<?xml version="1.0" encoding="utf-8" ?>
<svg baseProfile="tiny" height="600" version="1.2" width="600" xmlns="http://www.w3.org/2000/svg" xmlns:ev="http://www.w3.org/2001/xml-events" xmlns:xlink="http://www.w3.org/1999/xlink">
  <defs/>
  <ellipse cx="107.5" cy="107.5" fill="#1b9fd8" rx="15.0" ry="15.0" stroke-width="0" transform=" rotate(0, 107, 107)"/>
  <ellipse cx="142.5" cy="107.5" fill="#006ca1" rx="15.0" ry="15.0" stroke-width="0" transform=" rotate(0, 142, 107)"/>
  <ellipse cx="177.5" cy="107.5" fill="#6dd6ff" rx="15.0" ry="15.0" stroke-width="0" transform=" rotate(0, 177, 107)"/>
  <ellipse cx="212.5" cy="107.5" fill="#1b9fd8" rx="15.0" ry="15.0" stroke-width="0" transform=" rotate(0, 212, 107)"/>
  <ellipse cx="247.5" cy="107.5" fill="#006ca1" rx="15.0" ry="15.0" stroke-width="0" transform=" rotate(0, 247, 107)"/>
  <ellipse cx="282.5" cy="107.5" fill="#6dd6ff" rx="15.0" ry="15.0" stroke-width="0" transform=" rotate(0, 282, 107)"/>
  <ellipse cx="317.5" cy="107.5" fill="#1b9fd8" rx="15.0" ry="15.0" stroke-width="0" transform=" rotate(0, 317, 107)"/>
  <ellipse cx="352.5" cy="107.5" fill="#006ca1" rx="15.0" ry="15.0" stroke-width="0" transform=" rotate(0, 352, 107)"/>
  <ellipse cx="387.5" cy="107.5" fill="#6dd6ff" rx="15.0" ry="15.0" stroke-width="0" transform=" rotate(0, 387, 107)"/>
  <ellipse cx="422.5" cy="107.5" fill="#1b9fd8" rx="15.0" ry="15.0" stroke-width="0" transform=" rotate(0, 422, 107)"/>
  <ellipse cx="457.5" cy="107.5" fill="#006ca1" rx="15.0" ry="15.0" stroke-width="0" transform=" rotate(0, 457, 107)"/>
  <ellipse cx="492.5" cy="107.5" fill="#6dd6ff" rx="15.0" ry="15.0" stroke-width="0" transform=" rotate(0, 492, 107)"/>
  <rect fill="#1b9fd8" height="30" stroke-width="0" transform=" rotate(0, 107, 142)" width="30" x="92.5" y="127.5"/>
  <rect fill="#006ca1" height="30" stroke-width="0" transform=" rotate(0, 142, 142)" width="30" x="127.5" y="127.5"/>
  <rect fill="#6dd6ff" height="30" stroke-width="0" transform=" rotate(0, 177, 142)" width="30" x="162.5" y="127.5"/>
  <rect fill="#1b9fd8" height="30" stroke-width="0" transform=" rotate(0, 212, 142)" width="30" x="197.5" y="127.5"/>
  <rect fill="#006ca1" height="30" stroke-width="0" transform=" rotate(0, 247, 142)" width="30" x="232.5" y="127.5"/>
  <rect fill="#6dd6ff" height="30" stroke-width="0" transform=" rotate(0, 282, 142)" width="30" x="267.5" y="127.5"/>
  <rect fill="#1b9fd8" height="30" stroke-width="0" transform=" rotate(0, 317, 142)" width="30" x="302.5" y="127.5"/>
  <rect fill="#006ca1" height="30" stroke-width="0" transform=" rotate(0, 352, 142)" width="30" x="337.5" y="127.5"/>
  <rect fill="#6dd6ff" height="30" stroke-width="0" transform=" rotate(0, 387, 142)" width="30" x="372.5" y="127.5"/>
  <rect fill="#1b9fd8" height="30" stroke-width="0" transform=" rotate(0, 422, 142)" width="30" x="407.5" y="127.5"/>
  <rect fill="#006ca1" height="30" stroke-width="0" transform=" rotate(0, 457, 142)" width="30" x="442.5" y="127.5"/>
  <rect fill="#6dd6ff" height="30" stroke-width="0" transform=" rotate(0, 492, 142)" width="30" x="477.5" y="127.5"/>
  <polygon fill="#1b9fd8" points="92.5,192.5 107.5,162.5 122.5,192.5" stroke-width="0" transform=" rotate(0, 107, 177)"/>
  <polygon fill="#006ca1" points="127.5,192.5 142.5,162.5 157.5,192.5" stroke-width="0" transform=" rotate(0, 142, 177)"/>
  <polygon fill="#6dd6ff" points="162.5,192.5 177.5,162.5 192.5,192.5" stroke-width="0" transform=" rotate(0, 177, 177)"/>
  <polygon fill="#1b9fd8" points="197.5,192.5 212.5,162.5 227.5,192.5" stroke-width="0" transform=" rotate(0, 212, 177)"/>
  <polygon fill="#006ca1" points="232.5,192.5 247.5,162.5 262.5,192.5" stroke-width="0" transform=" rotate(0, 247, 177)"/>
  <polygon fill="#6dd6ff" points="267.5,192.5 282.5,162.5 297.5,192.5" stroke-width="0" transform=" rotate(0, 282, 177)"/>
  <polygon fill="#1b9fd8" points="302.5,192.5 317.5,162.5 332.5,192.5" stroke-width="0" transform=" rotate(0, 317, 177)"/>
  <polygon fill="#006ca1" points="337.5,192.5 352.5,162.5 367.5,192.5" stroke-width="0" transform=" rotate(0, 352, 177)"/>
  <polygon fill="#6dd6ff" points="372.5,192.5 387.5,162.5 402.5,192.5" stroke-width="0" transform=" rotate(0, 387, 177)"/>
  <polygon fill="#1b9fd8" points="407.5,192.5 422.5,162.5 437.5,192.5" stroke-width="0" transform=" rotate(0, 422, 177)"/>
  <polygon fill="#006ca1" points="442.5,192.5 457.5,162.5 472.5,192.5" stroke-width="0" transform=" rotate(0, 457, 177)"/>
  <polygon fill="#6dd6ff" points="477.5,192.5 492.5,162.5 507.5,192.5" stroke-width="0" transform=" rotate(0, 492, 177)"/>
  <ellipse cx="107.5" cy="212.5" fill="#1b9fd8" rx="15.0" ry="15.0" stroke-width="0" transform=" rotate(0, 107, 212)"/>
  <ellipse cx="142.5" cy="212.5" fill="#006ca1" rx="15.0" ry="15.0" stroke-width="0" transform=" rotate(0, 142, 212)"/>
  <ellipse cx="177.5" cy="212.5" fill="#6dd6ff" rx="15.0" ry="15.0" stroke-width="0" transform=" rotate(0, 177, 212)"/>
  <ellipse cx="212.5" cy="212.5" fill="#1b9fd8" rx="15.0" ry="15.0" stroke-width="0" transform=" rotate(0, 212, 212)"/>
  <ellipse cx="247.5" cy="212.5" fill="#006ca1" rx="15.0" ry="15.0" stroke-width="0" transform=" rotate(0, 247, 212)"/>
  <ellipse cx="282.5" cy="212.5" fill="#6dd6ff" rx="15.0" ry="15.0" stroke-width="0" transform=" rotate(0, 282, 212)"/>
  <ellipse cx="317.5" cy="212.5" fill="#1b9fd8" rx="15.0" ry="15.0" stroke-width="0" transform=" rotate(0, 317, 212)"/>
  <ellipse cx="352.5" cy="212.5" fill="#006ca1" rx="15.0" ry="15.0" stroke-width="0" transform=" rotate(0, 352, 212)"/>
  <ellipse cx="387.5" cy="212.5" fill="#6dd6ff" rx="15.0" ry="15.0" stroke-width="0" transform=" rotate(0, 387, 212)"/>
  <ellipse cx="422.5" cy="212.5" fill="#1b9fd8" rx="15.0" ry="15.0" stroke-width="0" transform=" rotate(0, 422, 212)"/>
  <ellipse cx="457.5" cy="212.5" fill="#006ca1" rx="15.0" ry="15.0" stroke-width="0" transform=" rotate(0, 457, 212)"/>
  <ellipse cx="492.5" cy="212.5" fill="#6dd6ff" rx="15.0" ry="15.0" stroke-width="0" transform=" rotate(0, 492, 212)"/>
  <rect fill="#1b9fd8" height="30" stroke-width="0" transform=" rotate(0, 107, 247)" width="30" x="92.5" y="232.5"/>
  <rect fill="#006ca1" height="30" stroke-width="0" transform=" rotate(0, 142, 247)" width="30" x="127.5" y="232.5"/>
  <rect fill="#6dd6ff" height="30" stroke-width="0" transform=" rotate(0, 177, 247)" width="30" x="162.5" y="232.5"/>
  <rect fill="#1b9fd8" height="30" stroke-width="0" transform=" rotate(0, 212, 247)" width="30" x="197.5" y="232.5"/>
  <rect fill="#006ca1" height="30" stroke-width="0" transform=" rotate(0, 247, 247)" width="30" x="232.5" y="232.5"/>
  <rect fill="#6dd6ff" height="30" stroke-width="0" transform=" rotate(0, 282, 247)" width="30" x="267.5" y="232.5"/>
  <rect fill="#1b9fd8" height="30" stroke-width="0" transform=" rotate(0, 317, 247)" width="30" x="302.5" y="232.5"/>
  <rect fill="#006ca1" height="30" stroke-width="0" transform=" rotate(0, 352, 247)" width="30" x="337.5" y="232.5"/>
  <rect fill="#6dd6ff" height="30" stroke-width="0" transform=" rotate(0, 387, 247)" width="30" x="372.5" y="232.5"/>
  <rect fill="#1b9fd8" height="30" stroke-width="0" transform=" rotate(0, 422, 247)" width="30" x="407.5" y="232.5"/>
  <rect fill="#006ca1" height="30" stroke-width="0" transform=" rotate(0, 457, 247)" width="30" x="442.5" y="232.5"/>
  <rect fill="#6dd6ff" height="30" stroke-width="0" transform=" rotate(0, 492, 247)" width="30" x="477.5" y="232.5"/>
  <polygon fill="#1b9fd8" points="92.5,297.5 107.5,267.5 122.5,297.5" stroke-width="0" transform=" rotate(0, 107, 282)"/>
  <polygon fill="#006ca1" points="127.5,297.5 142.5,267.5 157.5,297.5" stroke-width="0" transform=" rotate(0, 142, 282)"/>
  <polygon fill="#6dd6ff" points="162.5,297.5 177.5,267.5 192.5,297.5" stroke-width="0" transform=" rotate(0, 177, 282)"/>
  <polygon fill="#1b9fd8" points="197.5,297.5 212.5,267.5 227.5,297.5" stroke-width="0" transform=" rotate(0, 212, 282)"/>
  <polygon fill="#006ca1" points="232.5,297.5 247.5,267.5 262.5,297.5" stroke-width="0" transform=" rotate(0, 247, 282)"/>
  <polygon fill="#6dd6ff" points="267.5,297.5 282.5,267.5 297.5,297.5" stroke-width="0" transform=" rotate(0, 282, 282)"/>
  <polygon fill="#1b9fd8" points="302.5,297.5 317.5,267.5 332.5,297.5" stroke-width="0" transform=" rotate(0, 317, 282)"/>
  <polygon fill="#006ca1" points="337.5,297.5 352.5,267.5 367.5,297.5" stroke-width="0" transform=" rotate(0, 352, 282)"/>
  <polygon fill="#6dd6ff" points="372.5,297.5 387.5,267.5 402.5,297.5" stroke-width="0" transform=" rotate(0, 387, 282)"/>
  <polygon fill="#1b9fd8" points="407.5,297.5 422.5,267.5 437.5,297.5" stroke-width="0" transform=" rotate(0, 422, 282)"/>
  <polygon fill="#006ca1" points="442.5,297.5 457.5,267.5 472.5,297.5" stroke-width="0" transform=" rotate(0, 457, 282)"/>
  <polygon fill="#6dd6ff" points="477.5,297.5 492.5,267.5 507.5,297.5" stroke-width="0" transform=" rotate(0, 492, 282)"/>
  <ellipse cx="107.5" cy="317.5" fill="#1b9fd8" rx="15.0" ry="15.0" stroke-width="0" transform=" rotate(0, 107, 317)"/>
  <ellipse cx="142.5" cy="317.5" fill="#006ca1" rx="15.0" ry="15.0" stroke-width="0" transform=" rotate(0, 142, 317)"/>
  <ellipse cx="177.5" cy="317.5" fill="#6dd6ff" rx="15.0" ry="15.0" stroke-width="0" transform=" rotate(0, 177, 317)"/>
  <ellipse cx="212.5" cy="317.5" fill="#1b9fd8" rx="15.0" ry="15.0" stroke-width="0" transform=" rotate(0, 212, 317)"/>
  <ellipse cx="247.5" cy="317.5" fill="#006ca1" rx="15.0" ry="15.0" stroke-width="0" transform=" rotate(0, 247, 317)"/>
  <ellipse cx="282.5" cy="317.5" fill="#6dd6ff" rx="15.0" ry="15.0" stroke-width="0" transform=" rotate(0, 282, 317)"/>
  <ellipse cx="317.5" cy="317.5" fill="#1b9fd8" rx="15.0" ry="15.0" stroke-width="0" transform=" rotate(0, 317, 317)"/>
  <ellipse cx="352.5" cy="317.5" fill="#006ca1" rx="15.0" ry="15.0" stroke-width="0" transform=" rotate(0, 352, 317)"/>
  <ellipse cx="387.5" cy="317.5" fill="#6dd6ff" rx="15.0" ry="15.0" stroke-width="0" transform=" rotate(0, 387, 317)"/>
  <ellipse cx="422.5" cy="317.5" fill="#1b9fd8" rx="15.0" ry="15.0" stroke-width="0" transform=" rotate(0, 422, 317)"/>
  <ellipse cx="457.5" cy="317.5" fill="#006ca1" rx="15.0" ry="15.0" stroke-width="0" transform=" rotate(0, 457, 317)"/>
  <ellipse cx="492.5" cy="317.5" fill="#6dd6ff" rx="15.0" ry="15.0" stroke-width="0" transform=" rotate(0, 492, 317)"/>
  <rect fill="#1b9fd8" height="30" stroke-width="0" transform=" rotate(0, 107, 352)" width="30" x="92.5" y="337.5"/>
  <rect fill="#006ca1" height="30" stroke-width="0" transform=" rotate(0, 142, 352)" width="30" x="127.5" y="337.5"/>
  <rect fill="#6dd6ff" height="30" stroke-width="0" transform=" rotate(0, 177, 352)" width="30" x="162.5" y="337.5"/>
  <rect fill="#1b9fd8" height="30" stroke-width="0" transform=" rotate(0, 212, 352)" width="30" x="197.5" y="337.5"/>
  <rect fill="#006ca1" height="30" stroke-width="0" transform=" rotate(0, 247, 352)" width="30" x="232.5" y="337.5"/>
  <rect fill="#6dd6ff" height="30" stroke-width="0" transform=" rotate(0, 282, 352)" width="30" x="267.5" y="337.5"/>
  <rect fill="#1b9fd8" height="30" stroke-width="0" transform=" rotate(0, 317, 352)" width="30" x="302.5" y="337.5"/>
  <rect fill="#006ca1" height="30" stroke-width="0" transform=" rotate(0, 352, 352)" width="30" x="337.5" y="337.5"/>
  <rect fill="#6dd6ff" height="30" stroke-width="0" transform=" rotate(0, 387, 352)" width="30" x="372.5" y="337.5"/>
  <rect fill="#1b9fd8" height="30" stroke-width="0" transform=" rotate(0, 422, 352)" width="30" x="407.5" y="337.5"/>
  <rect fill="#006ca1" height="30" stroke-width="0" transform=" rotate(0, 457, 352)" width="30" x="442.5" y="337.5"/>
  <rect fill="#6dd6ff" height="30" stroke-width="0" transform=" rotate(0, 492, 352)" width="30" x="477.5" y="337.5"/>
  <polygon fill="#1b9fd8" points="92.5,402.5 107.5,372.5 122.5,402.5" stroke-width="0" transform=" rotate(0, 107, 387)"/>
  <polygon fill="#006ca1" points="127.5,402.5 142.5,372.5 157.5,402.5" stroke-width="0" transform=" rotate(0, 142, 387)"/>
  <polygon fill="#6dd6ff" points="162.5,402.5 177.5,372.5 192.5,402.5" stroke-width="0" transform=" rotate(0, 177, 387)"/>
  <polygon fill="#1b9fd8" points="197.5,402.5 212.5,372.5 227.5,402.5" stroke-width="0" transform=" rotate(0, 212, 387)"/>
  <polygon fill="#006ca1" points="232.5,402.5 247.5,372.5 262.5,402.5" stroke-width="0" transform=" rotate(0, 247, 387)"/>
  <polygon fill="#6dd6ff" points="267.5,402.5 282.5,372.5 297.5,402.5" stroke-width="0" transform=" rotate(0, 282, 387)"/>
  <polygon fill="#1b9fd8" points="302.5,402.5 317.5,372.5 332.5,402.5" stroke-width="0" transform=" rotate(0, 317, 387)"/>
  <polygon fill="#006ca1" points="337.5,402.5 352.5,372.5 367.5,402.5" stroke-width="0" transform=" rotate(0, 352, 387)"/>
  <polygon fill="#6dd6ff" points="372.5,402.5 387.5,372.5 402.5,402.5" stroke-width="0" transform=" rotate(0, 387, 387)"/>
  <polygon fill="#1b9fd8" points="407.5,402.5 422.5,372.5 437.5,402.5" stroke-width="0" transform=" rotate(0, 422, 387)"/>
  <polygon fill="#006ca1" points="442.5,402.5 457.5,372.5 472.5,402.5" stroke-width="0" transform=" rotate(0, 457, 387)"/>
  <polygon fill="#6dd6ff" points="477.5,402.5 492.5,372.5 507.5,402.5" stroke-width="0" transform=" rotate(0, 492, 387)"/>
  <ellipse cx="107.5" cy="422.5" fill="#1b9fd8" rx="15.0" ry="15.0" stroke-width="0" transform=" rotate(0, 107, 422)"/>
  <ellipse cx="142.5" cy="422.5" fill="#006ca1" rx="15.0" ry="15.0" stroke-width="0" transform=" rotate(0, 142, 422)"/>
  <ellipse cx="177.5" cy="422.5" fill="#6dd6ff" rx="15.0" ry="15.0" stroke-width="0" transform=" rotate(0, 177, 422)"/>
  <ellipse cx="212.5" cy="422.5" fill="#1b9fd8" rx="15.0" ry="15.0" stroke-width="0" transform=" rotate(0, 212, 422)"/>
  <ellipse cx="247.5" cy="422.5" fill="#006ca1" rx="15.0" ry="15.0" stroke-width="0" transform=" rotate(0, 247, 422)"/>
  <ellipse cx="282.5" cy="422.5" fill="#6dd6ff" rx="15.0" ry="15.0" stroke-width="0" transform=" rotate(0, 282, 422)"/>
  <ellipse cx="317.5" cy="422.5" fill="#1b9fd8" rx="15.0" ry="15.0" stroke-width="0" transform=" rotate(0, 317, 422)"/>
  <ellipse cx="352.5" cy="422.5" fill="#006ca1" rx="15.0" ry="15.0" stroke-width="0" transform=" rotate(0, 352, 422)"/>
  <ellipse cx="387.5" cy="422.5" fill="#6dd6ff" rx="15.0" ry="15.0" stroke-width="0" transform=" rotate(0, 387, 422)"/>
  <ellipse cx="422.5" cy="422.5" fill="#1b9fd8" rx="15.0" ry="15.0" stroke-width="0" transform=" rotate(0, 422, 422)"/>
  <ellipse cx="457.5" cy="422.5" fill="#006ca1" rx="15.0" ry="15.0" stroke-width="0" transform=" rotate(0, 457, 422)"/>
  <ellipse cx="492.5" cy="422.5" fill="#6dd6ff" rx="15.0" ry="15.0" stroke-width="0" transform=" rotate(0, 492, 422)"/>
  <rect fill="#1b9fd8" height="30" stroke-width="0" transform=" rotate(0, 107, 457)" width="30" x="92.5" y="442.5"/>
  <rect fill="#006ca1" height="30" stroke-width="0" transform=" rotate(0, 142, 457)" width="30" x="127.5" y="442.5"/>
  <rect fill="#6dd6ff" height="30" stroke-width="0" transform=" rotate(0, 177, 457)" width="30" x="162.5" y="442.5"/>
  <rect fill="#1b9fd8" height="30" stroke-width="0" transform=" rotate(0, 212, 457)" width="30" x="197.5" y="442.5"/>
  <rect fill="#006ca1" height="30" stroke-width="0" transform=" rotate(0, 247, 457)" width="30" x="232.5" y="442.5"/>
  <rect fill="#6dd6ff" height="30" stroke-width="0" transform=" rotate(0, 282, 457)" width="30" x="267.5" y="442.5"/>
  <rect fill="#1b9fd8" height="30" stroke-width="0" transform=" rotate(0, 317, 457)" width="30" x="302.5" y="442.5"/>
  <rect fill="#006ca1" height="30" stroke-width="0" transform=" rotate(0, 352, 457)" width="30" x="337.5" y="442.5"/>
  <rect fill="#6dd6ff" height="30" stroke-width="0" transform=" rotate(0, 387, 457)" width="30" x="372.5" y="442.5"/>
  <rect fill="#1b9fd8" height="30" stroke-width="0" transform=" rotate(0, 422, 457)" width="30" x="407.5" y="442.5"/>
  <rect fill="#006ca1" height="30" stroke-width="0" transform=" rotate(0, 457, 457)" width="30" x="442.5" y="442.5"/>
  <rect fill="#6dd6ff" height="30" stroke-width="0" transform=" rotate(0, 492, 457)" width="30" x="477.5" y="442.5"/>
  <polygon fill="#1b9fd8" points="92.5,507.5 107.5,477.5 122.5,507.5" stroke-width="0" transform=" rotate(0, 107, 492)"/>
  <polygon fill="#006ca1" points="127.5,507.5 142.5,477.5 157.5,507.5" stroke-width="0" transform=" rotate(0, 142, 492)"/>
  <polygon fill="#6dd6ff" points="162.5,507.5 177.5,477.5 192.5,507.5" stroke-width="0" transform=" rotate(0, 177, 492)"/>
  <polygon fill="#1b9fd8" points="197.5,507.5 212.5,477.5 227.5,507.5" stroke-width="0" transform=" rotate(0, 212, 492)"/>
  <polygon fill="#006ca1" points="232.5,507.5 247.5,477.5 262.5,507.5" stroke-width="0" transform=" rotate(0, 247, 492)"/>
  <polygon fill="#6dd6ff" points="267.5,507.5 282.5,477.5 297.5,507.5" stroke-width="0" transform=" rotate(0, 282, 492)"/>
  <polygon fill="#1b9fd8" points="302.5,507.5 317.5,477.5 332.5,507.5" stroke-width="0" transform=" rotate(0, 317, 492)"/>
  <polygon fill="#006ca1" points="337.5,507.5 352.5,477.5 367.5,507.5" stroke-width="0" transform=" rotate(0, 352, 492)"/>
  <polygon fill="#6dd6ff" points="372.5,507.5 387.5,477.5 402.5,507.5" stroke-width="0" transform=" rotate(0, 387, 492)"/>
  <polygon fill="#1b9fd8" points="407.5,507.5 422.5,477.5 437.5,507.5" stroke-width="0" transform=" rotate(0, 422, 492)"/>
  <polygon fill="#006ca1" points="442.5,507.5 457.5,477.5 472.5,507.5" stroke-width="0" transform=" rotate(0, 457, 492)"/>
  <polygon fill="#6dd6ff" points="477.5,507.5 492.5,477.5 507.5,507.5" stroke-width="0" transform=" rotate(0, 492, 492)"/>
</svg>
