<?xml version="1.0" encoding="utf-8" ?>
<svg baseProfile="tiny" height="600" version="1.2" width="600" xmlns="http://www.w3.org/2000/svg" xmlns:ev="http://www.w3.org/2001/xml-events" xmlns:xlink="http://www.w3.org/1999/xlink">
  <defs/>
  <ellipse cx="107.5" cy="107.5" fill="#1b9fd8" rx="15.0" ry="15.0" stroke-width="0" transform=" rotate(0, 107, 107)"/>
  <ellipse cx="142.5" cy="107.5" fill="#006ca1" rx="15.0" ry="15.0" stroke-width="0" transform=" rotate(0, 142, 107)"/>
  <ellipse cx="177.5" cy="107.5" fill="#6dd6ff" rx="15.0" ry="15.0" stroke-width="0" transform=" rotate(0, 177, 107)"/>
  <ellipse cx="212.5" cy="107.5" fill="#1b9fd8" rx="15.0" ry="15.0" stroke-width="0" transform=" rotate(0, 212, 107)"/>
  <ellipse cx="247.5" cy="107.5" fill="#006ca1" rx="15.0" ry="15.0" stroke-width="0" transform=" rotate(0, 247, 107)"/>
  <ellipse cx="282.5" cy="107.5" fill="#6dd6ff" rx="15.0" ry="15.0" stroke-width="0" transform=" rotate(0, 282, 107)"/>
  <ellipse cx="317.5" cy="107.5" fill="#1b9fd8" rx="15.0" ry="15.0" stroke-width="0" transform=" rotate(0, 317, 107)"/>
  <ellipse cx="352.5" cy="107.5" fill="#006ca1" rx="15.0" ry="15.0" stroke-width="0" transform=" rotate(0, 352, 107)"/>
  <ellipse cx="387.5" cy="107.5" fill="#6dd6ff" rx="15.0" ry="15.0" stroke-width="0" transform=" rotate(0, 387, 107)"/>
  <ellipse cx="422.5" cy="107.5" fill="#1b9fd8" rx="15.0" ry="15.0" stroke-width="0" transform=" rotate(0, 422, 107)"/>
  <ellipse cx="457.5" cy="107.5" fill="#006ca1" rx="15.0" ry="15.0" stroke-width="0" transform=" rotate(0, 457, 107)"/>
  <ellipse cx="492.5" cy="107.5" fill="#6dd6ff" rx="15.0" ry="15.0" stroke-width="0" transform=" rotate(0, 492, 107)"/>
  <ellipse cx="107.5" cy="142.5" fill="#1b9fd8" rx="15.0" ry="15.0" stroke-width="0" transform=" rotate(0, 107, 142)"/>
  <ellipse cx="142.5" cy="142.5" fill="#006ca1" rx="15.0" ry="15.0" stroke-width="0" transform=" rotate(0, 142, 142)"/>
  <ellipse cx="177.5" cy="142.5" fill="#6dd6ff" rx="15.0" ry="15.0" stroke-width="0" transform=" rotate(0, 177, 142)"/>
  <ellipse cx="212.5" cy="142.5" fill="#1b9fd8" rx="15.0" ry="15.0" stroke-width="0" transform=" rotate(0, 212, 142)"/>
  <ellipse cx="247.5" cy="142.5" fill="#006ca1" rx="15.0" ry="15.0" stroke-width="0" transform=" rotate(0, 247, 142)"/>
  <ellipse cx="282.5" cy="142.5" fill="#6dd6ff" rx="15.0" ry="15.0" stroke-width="0" transform=" rotate(0, 282, 142)"/>
  <ellipse cx="317.5" cy="142.5" fill="#1b9fd8" rx="15.0" ry="15.0" stroke-width="0" transform=" rotate(0, 317, 142)"/>
  <ellipse cx="352.5" cy="142.5" fill="#006ca1" rx="15.0" ry="15.0" stroke-width="0" transform=" rotate(0, 352, 142)"/>
  <ellipse cx="387.5" cy="142.5" fill="#6dd6ff" rx="15.0" ry="15.0" stroke-width="0" transform=" rotate(0, 387, 142)"/>
  <ellipse cx="422.5" cy="142.5" fill="#1b9fd8" rx="15.0" ry="15.0" stroke-width="0" transform=" rotate(0, 422, 142)"/>
  <ellipse cx="457.5" cy="142.5" fill="#006ca1" rx="15.0" ry="15.0" stroke-width="0" transform=" rotate(0, 457, 142)"/>
  <ellipse cx="492.5" cy="142.5" fill="#6dd6ff" rx="15.0" ry="15.0" stroke-width="0" transform=" rotate(0, 492, 142)"/>
  <ellipse cx="107.5" cy="177.5" fill="#1b9fd8" rx="15.0" ry="15.0" stroke-width="0" transform=" rotate(0, 107, 177)"/>
  <ellipse cx="142.5" cy="177.5" fill="#006ca1" rx="15.0" ry="15.0" stroke-width="0" transform=" rotate(0, 142, 177)"/>
  <ellipse cx="177.5" cy="177.5" fill="#6dd6ff" rx="15.0" ry="15.0" stroke-width="0" transform=" rotate(0, 177, 177)"/>
  <ellipse cx="212.5" cy="177.5" fill="#1b9fd8" rx="15.0" ry="15.0" stroke-width="0" transform=" rotate(0, 212, 177)"/>
  <ellipse cx="247.5" cy="177.5" fill="#006ca1" rx="15.0" ry="15.0" stroke-width="0" transform=" rotate(0, 247, 177)"/>
  <ellipse cx="282.5" cy="177.5" fill="#6dd6ff" rx="15.0" ry="15.0" stroke-width="0" transform=" rotate(0, 282, 177)"/>
  <ellipse cx="317.5" cy="177.5" fill="#1b9fd8" rx="15.0" ry="15.0" stroke-width="0" transform=" rotate(0, 317, 177)"/>
  <ellipse cx="352.5" cy="177.5" fill="#006ca1" rx="15.0" ry="15.0" stroke-width="0" transform=" rotate(0, 352, 177)"/>
  <ellipse cx="387.5" cy="177.5" fill="#6dd6ff" rx="15.0" ry="15.0" stroke-width="0" transform=" rotate(0, 387, 177)"/>
  <ellipse cx="422.5" cy="177.5" fill="#1b9fd8" rx="15.0" ry="15.0" stroke-width="0" transform=" rotate(0, 422, 177)"/>
  <ellipse cx="457.5" cy="177.5" fill="#006ca1" rx="15.0" ry="15.0" stroke-width="0" transform=" rotate(0, 457, 177)"/>
  <ellipse cx="492.5" cy="177.5" fill="#6dd6ff" rx="15.0" ry="15.0" stroke-width="0" transform=" rotate(0, 492, 177)"/>
  <ellipse cx="107.5" cy="212.5" fill="#1b9fd8" rx="15.0" ry="15.0" stroke-width="0" transform=" rotate(0, 107, 212)"/>
  <ellipse cx="142.5" cy="212.5" fill="#006ca1" rx="15.0" ry="15.0" stroke-width="0" transform=" rotate(0, 142, 212)"/>
  <ellipse cx="177.5" cy="212.5" fill="#6dd6ff" rx="15.0" ry="15.0" stroke-width="0" transform=" rotate(0, 177, 212)"/>
  <ellipse cx="212.5" cy="212.5" fill="#1b9fd8" rx="15.0" ry="15.0" stroke-width="0" transform=" rotate(0, 212, 212)"/>
  <ellipse cx="247.5" cy="212.5" fill="#006ca1" rx="15.0" ry="15.0" stroke-width="0" transform=" rotate(0, 247, 212)"/>
  <ellipse cx="282.5" cy="212.5" fill="#6dd6ff" rx="15.0" ry="15.0" stroke-width="0" transform=" rotate(0, 282, 212)"/>
  <ellipse cx="317.5" cy="212.5" fill="#1b9fd8" rx="15.0" ry="15.0" stroke-width="0" transform=" rotate(0, 317, 212)"/>
  <ellipse cx="352.5" cy="212.5" fill="#006ca1" rx="15.0" ry="15.0" stroke-width="0" transform=" rotate(0, 352, 212)"/>
  <ellipse cx="387.5" cy="212.5" fill="#6dd6ff" rx="15.0" ry="15.0" stroke-width="0" transform=" rotate(0, 387, 212)"/>
  <ellipse cx="422.5" cy="212.5" fill="#1b9fd8" rx="15.0" ry="15.0" stroke-width="0" transform=" rotate(0, 422, 212)"/>
  <ellipse cx="457.5" cy="212.5" fill="#006ca1" rx="15.0" ry="15.0" stroke-width="0" transform=" rotate(0, 457, 212)"/>
  <ellipse cx="492.5" cy="212.5" fill="#6dd6ff" rx="15.0" ry="15.0" stroke-width="0" transform=" rotate(0, 492, 212)"/>
  <ellipse cx="107.5" cy="247.5" fill="#1b9fd8" rx="15.0" ry="15.0" stroke-width="0" transform=" rotate(0, 107, 247)"/>
  <ellipse cx="142.5" cy="247.5" fill="#006ca1" rx="15.0" ry="15.0" stroke-width="0" transform=" rotate(0, 142, 247)"/>
  <ellipse cx="177.5" cy="247.5" fill="#6dd6ff" rx="15.0" ry="15.0" stroke-width="0" transform=" rotate(0, 177, 247)"/>
  <ellipse cx="212.5" cy="247.5" fill="#1b9fd8" rx="15.0" ry="15.0" stroke-width="0" transform=" rotate(0, 212, 247)"/>
  <ellipse cx="247.5" cy="247.5" fill="#006ca1" rx="15.0" ry="15.0" stroke-width="0" transform=" rotate(0, 247, 247)"/>
  <ellipse cx="282.5" cy="247.5" fill="#6dd6ff" rx="15.0" ry="15.0" stroke-width="0" transform=" rotate(0, 282, 247)"/>
  <ellipse cx="317.5" cy="247.5" fill="#1b9fd8" rx="15.0" ry="15.0" stroke-width="0" transform=" rotate(0, 317, 247)"/>
  <ellipse cx="352.5" cy="247.5" fill="#006ca1" rx="15.0" ry="15.0" stroke-width="0" transform=" rotate(0, 352, 247)"/>
  <ellipse cx="387.5" cy="247.5" fill="#6dd6ff" rx="15.0" ry="15.0" stroke-width="0" transform=" rotate(0, 387, 247)"/>
  <ellipse cx="422.5" cy="247.5" fill="#1b9fd8" rx="15.0" ry="15.0" stroke-width="0" transform=" rotate(0, 422, 247)"/>
  <ellipse cx="457.5" cy="247.5" fill="#006ca1" rx="15.0" ry="15.0" stroke-width="0" transform=" rotate(0, 457, 247)"/>
  <ellipse cx="492.5" cy="247.5" fill="#6dd6ff" rx="15.0" ry="15.0" stroke-width="0" transform=" rotate(0, 492, 247)"/>
  <ellipse cx="107.5" cy="282.5" fill="#1b9fd8" rx="15.0" ry="15.0" stroke-width="0" transform=" rotate(0, 107, 282)"/>
  <ellipse cx="142.5" cy="282.5" fill="#006ca1" rx="15.0" ry="15.0" stroke-width="0" transform=" rotate(0, 142, 282)"/>
  <ellipse cx="177.5" cy="282.5" fill="#6dd6ff" rx="15.0" ry="15.0" stroke-width="0" transform=" rotate(0, 177, 282)"/>
  <ellipse cx="212.5" cy="282.5" fill="#1b9fd8" rx="15.0" ry="15.0" stroke-width="0" transform=" rotate(0, 212, 282)"/>
  <ellipse cx="247.5" cy="282.5" fill="#006ca1" rx="15.0" ry="15.0" stroke-width="0" transform=" rotate(0, 247, 282)"/>
  <ellipse cx="282.5" cy="282.5" fill="#6dd6ff" rx="15.0" ry="15.0" stroke-width="0" transform=" rotate(0, 282, 282)"/>
  <ellipse cx="317.5" cy="282.5" fill="#1b9fd8" rx="15.0" ry="15.0" stroke-width="0" transform=" rotate(0, 317, 282)"/>
  <ellipse cx="352.5" cy="282.5" fill="#006ca1" rx="15.0" ry="15.0" stroke-width="0" transform=" rotate(0, 352, 282)"/>
  <ellipse cx="387.5" cy="282.5" fill="#6dd6ff" rx="15.0" ry="15.0" stroke-width="0" transform=" rotate(0, 387, 282)"/>
  <ellipse cx="422.5" cy="282.5" fill="#1b9fd8" rx="15.0" ry="15.0" stroke-width="0" transform=" rotate(0, 422, 282)"/>
  <ellipse cx="457.5" cy="282.5" fill="#006ca1" rx="15.0" ry="15.0" stroke-width="0" transform=" rotate(0, 457, 282)"/>
  <ellipse cx="492.5" cy="282.5" fill="#6dd6ff" rx="15.0" ry="15.0" stroke-width="0" transform=" rotate(0, 492, 282)"/>
  <ellipse cx="107.5" cy="317.5" fill="#1b9fd8" rx="15.0" ry="15.0" stroke-width="0" transform=" rotate(0, 107, 317)"/>
  <ellipse cx="142.5" cy="317.5" fill="#006ca1" rx="15.0" ry="15.0" stroke-width="0" transform=" rotate(0, 142, 317)"/>
  <ellipse cx="177.5" cy="317.5" fill="#6dd6ff" rx="15.0" ry="15.0" stroke-width="0" transform=" rotate(0, 177, 317)"/>
  <ellipse cx="212.5" cy="317.5" fill="#1b9fd8" rx="15.0" ry="15.0" stroke-width="0" transform=" rotate(0, 212, 317)"/>
  <ellipse cx="247.5" cy="317.5" fill="#006ca1" rx="15.0" ry="15.0" stroke-width="0" transform=" rotate(0, 247, 317)"/>
  <ellipse cx="282.5" cy="317.5" fill="#6dd6ff" rx="15.0" ry="15.0" stroke-width="0" transform=" rotate(0, 282, 317)"/>
  <ellipse cx="317.5" cy="317.5" fill="#1b9fd8" rx="15.0" ry="15.0" stroke-width="0" transform=" rotate(0, 317, 317)"/>
  <ellipse cx="352.5" cy="317.5" fill="#006ca1" rx="15.0" ry="15.0" stroke-width="0" transform=" rotate(0, 352, 317)"/>
  <ellipse cx="387.5" cy="317.5" fill="#6dd6ff" rx="15.0" ry="15.0" stroke-width="0" transform=" rotate(0, 387, 317)"/>
  <ellipse cx="422.5" cy="317.5" fill="#1b9fd8" rx="15.0" ry="15.0" stroke-width="0" transform=" rotate(0, 422, 317)"/>
  <ellipse cx="457.5" cy="317.5" fill="#006ca1" rx="15.0" ry="15.0" stroke-width="0" transform=" rotate(0, 457, 317)"/>
  <ellipse cx="492.5" cy="317.5" fill="#6dd6ff" rx="15.0" ry="15.0" stroke-width="0" transform=" rotate(0, 492, 317)"/>
  <ellipse cx="107.5" cy="352.5" fill="#1b9fd8" rx="15.0" ry="15.0" stroke-width="0" transform=" rotate(0, 107, 352)"/>
  <ellipse cx="142.5" cy="352.5" fill="#006ca1" rx="15.0" ry="15.0" stroke-width="0" transform=" rotate(0, 142, 352)"/>
  <ellipse cx="177.5" cy="352.5" fill="#6dd6ff" rx="15.0" ry="15.0" stroke-width="0" transform=" rotate(0, 177, 352)"/>
  <ellipse cx="212.5" cy="352.5" fill="#1b9fd8" rx="15.0" ry="15.0" stroke-width="0" transform=" rotate(0, 212, 352)"/>
  <ellipse cx="247.5" cy="352.5" fill="#006ca1" rx="15.0" ry="15.0" stroke-width="0" transform=" rotate(0, 247, 352)"/>
  <ellipse cx="282.5" cy="352.5" fill="#6dd6ff" rx="15.0" ry="15.0" stroke-width="0" transform=" rotate(0, 282, 352)"/>
  <ellipse cx="317.5" cy="352.5" fill="#1b9fd8" rx="15.0" ry="15.0" stroke-width="0" transform=" rotate(0, 317, 352)"/>
  <ellipse cx="352.5" cy="352.5" fill="#006ca1" rx="15.0" ry="15.0" stroke-width="0" transform=" rotate(0, 352, 352)"/>
  <ellipse cx="387.5" cy="352.5" fill="#6dd6ff" rx="15.0" ry="15.0" stroke-width="0" transform=" rotate(0, 387, 352)"/>
  <ellipse cx="422.5" cy="352.5" fill="#1b9fd8" rx="15.0" ry="15.0" stroke-width="0" transform=" rotate(0, 422, 352)"/>
  <ellipse cx="457.5" cy="352.5" fill="#006ca1" rx="15.0" ry="15.0" stroke-width="0" transform=" rotate(0, 457, 352)"/>
  <ellipse cx="492.5" cy="352.5" fill="#6dd6ff" rx="15.0" ry="15.0" stroke-width="0" transform=" rotate(0, 492, 352)"/>
  <ellipse cx="107.5" cy="387.5" fill="#1b9fd8" rx="15.0" ry="15.0" stroke-width="0" transform=" rotate(0, 107, 387)"/>
  <ellipse cx="142.5" cy="387.5" fill="#006ca1" rx="15.0" ry="15.0" stroke-width="0" transform=" rotate(0, 142, 387)"/>
  <ellipse cx="177.5" cy="387.5" fill="#6dd6ff" rx="15.0" ry="15.0" stroke-width="0" transform=" rotate(0, 177, 387)"/>
  <ellipse cx="212.5" cy="387.5" fill="#1b9fd8" rx="15.0" ry="15.0" stroke-width="0" transform=" rotate(0, 212, 387)"/>
  <ellipse cx="247.5" cy="387.5" fill="#006ca1" rx="15.0" ry="15.0" stroke-width="0" transform=" rotate(0, 247, 387)"/>
  <ellipse cx="282.5" cy="387.5" fill="#6dd6ff" rx="15.0" ry="15.0" stroke-width="0" transform=" rotate(0, 282, 387)"/>
  <ellipse cx="317.5" cy="387.5" fill="#1b9fd8" rx="15.0" ry="15.0" stroke-width="0" transform=" rotate(0, 317, 387)"/>
  <ellipse cx="352.5" cy="387.5" fill="#006ca1" rx="15.0" ry="15.0" stroke-width="0" transform=" rotate(0, 352, 387)"/>
  <ellipse cx="387.5" cy="387.5" fill="#6dd6ff" rx="15.0" ry="15.0" stroke-width="0" transform=" rotate(0, 387, 387)"/>
  <ellipse cx="422.5" cy="387.5" fill="#1b9fd8" rx="15.0" ry="15.0" stroke-width="0" transform=" rotate(0, 422, 387)"/>
  <ellipse cx="457.5" cy="387.5" fill="#006ca1" rx="15.0" ry="15.0" stroke-width="0" transform=" rotate(0, 457, 387)"/>
  <ellipse cx="492.5" cy="387.5" fill="#6dd6ff" rx="15.0" ry="15.0" stroke-width="0" transform=" rotate(0, 492, 387)"/>
  <ellipse cx="107.5" cy="422.5" fill="#1b9fd8" rx="15.0" ry="15.0" stroke-width="0" transform=" rotate(0, 107, 422)"/>
  <ellipse cx="142.5" cy="422.5" fill="#006ca1" rx="15.0" ry="15.0" stroke-width="0" transform=" rotate(0, 142, 422)"/>
  <ellipse cx="177.5" cy="422.5" fill="#6dd6ff" rx="15.0" ry="15.0" stroke-width="0" transform=" rotate(0, 177, 422)"/>
  <ellipse cx="212.5" cy="422.5" fill="#1b9fd8" rx="15.0" ry="15.0" stroke-width="0" transform=" rotate(0, 212, 422)"/>
  <ellipse cx="247.5" cy="422.5" fill="#006ca1" rx="15.0" ry="15.0" stroke-width="0" transform=" rotate(0, 247, 422)"/>
  <ellipse cx="282.5" cy="422.5" fill="#6dd6ff" rx="15.0" ry="15.0" stroke-width="0" transform=" rotate(0, 282, 422)"/>
  <ellipse cx="317.5" cy="422.5" fill="#1b9fd8" rx="15.0" ry="15.0" stroke-width="0" transform=" rotate(0, 317, 422)"/>
  <ellipse cx="352.5" cy="422.5" fill="#006ca1" rx="15.0" ry="15.0" stroke-width="0" transform=" rotate(0, 352, 422)"/>
  <ellipse cx="387.5" cy="422.5" fill="#6dd6ff" rx="15.0" ry="15.0" stroke-width="0" transform=" rotate(0, 387, 422)"/>
  <ellipse cx="422.5" cy="422.5" fill="#1b9fd8" rx="15.0" ry="15.0" stroke-width="0" transform=" rotate(0, 422, 422)"/>
  <ellipse cx="457.5" cy="422.5" fill="#006ca1" rx="15.0" ry="15.0" stroke-width="0" transform=" rotate(0, 457, 422)"/>
  <ellipse cx="492.5" cy="422.5" fill="#6dd6ff" rx="15.0" ry="15.0" stroke-width="0" transform=" rotate(0, 492, 422)"/>
  <ellipse cx="107.5" cy="457.5" fill="#1b9fd8" rx="15.0" ry="15.0" stroke-width="0" transform=" rotate(0, 107, 457)"/>
  <ellipse cx="142.5" cy="457.5" fill="#006ca1" rx="15.0" ry="15.0" stroke-width="0" transform=" rotate(0, 142, 457)"/>
  <ellipse cx="177.5" cy="457.5" fill="#6dd6ff" rx="15.0" ry="15.0" stroke-width="0" transform=" rotate(0, 177, 457)"/>
  <ellipse cx="212.5" cy="457.5" fill="#1b9fd8" rx="15.0" ry="15.0" stroke-width="0" transform=" rotate(0, 212, 457)"/>
  <ellipse cx="247.5" cy="457.5" fill="#006ca1" rx="15.0" ry="15.0" stroke-width="0" transform=" rotate(0, 247, 457)"/>
  <ellipse cx="282.5" cy="457.5" fill="#6dd6ff" rx="15.0" ry="15.0" stroke-width="0" transform=" rotate(0, 282, 457)"/>
  <ellipse cx="317.5" cy="457.5" fill="#1b9fd8" rx="15.0" ry="15.0" stroke-width="0" transform=" rotate(0, 317, 457)"/>
  <ellipse cx="352.5" cy="457.5" fill="#006ca1" rx="15.0" ry="15.0" stroke-width="0" transform=" rotate(0, 352, 457)"/>
  <ellipse cx="387.5" cy="457.5" fill="#6dd6ff" rx="15.0" ry="15.0" stroke-width="0" transform=" rotate(0, 387, 457)"/>
  <ellipse cx="422.5" cy="457.5" fill="#1b9fd8" rx="15.0" ry="15.0" stroke-width="0" transform=" rotate(0, 422, 457)"/>
  <ellipse cx="457.5" cy="457.5" fill="#006ca1" rx="15.0" ry="15.0" stroke-width="0" transform=" rotate(0, 457, 457)"/>
  <ellipse cx="492.5" cy="457.5" fill="#6dd6ff" rx="15.0" ry="15.0" stroke-width="0" transform=" rotate(0, 492, 457)"/>
  <ellipse cx="107.5" cy="492.5" fill="#1b9fd8" rx="15.0" ry="15.0" stroke-width="0" transform=" rotate(0, 107, 492)"/>
  <ellipse cx="142.5" cy="492.5" fill="#006ca1" rx="15.0" ry="15.0" stroke-width="0" transform=" rotate(0, 142, 492)"/>
  <ellipse cx="177.5" cy="492.5" fill="#6dd6ff" rx="15.0" ry="15.0" stroke-width="0" transform=" rotate(0, 177, 492)"/>
  <ellipse cx="212.5" cy="492.5" fill="#1b9fd8" rx="15.0" ry="15.0" stroke-width="0" transform=" rotate(0, 212, 492)"/>
  <ellipse cx="247.5" cy="492.5" fill="#006ca1" rx="15.0" ry="15.0" stroke-width="0" transform=" rotate(0, 247, 492)"/>
  <ellipse cx="282.5" cy="492.5" fill="#6dd6ff" rx="15.0" ry="15.0" stroke-width="0" transform=" rotate(0, 282, 492)"/>
  <ellipse cx="317.5" cy="492.5" fill="#1b9fd8" rx="15.0" ry="15.0" stroke-width="0" transform=" rotate(0, 317, 492)"/>
  <ellipse cx="352.5" cy="492.5" fill="#006ca1" rx="15.0" ry="15.0" stroke-width="0" transform=" rotate(0, 352, 492)"/>
  <ellipse cx="387.5" cy="492.5" fill="#6dd6ff" rx="15.0" ry="15.0" stroke-width="0" transform=" rotate(0, 387, 492)"/>
  <ellipse cx="422.5" cy="492.5" fill="#1b9fd8" rx="15.0" ry="15.0" stroke-width="0" transform=" rotate(0, 422, 492)"/>
  <ellipse cx="457.5" cy="492.5" fill="#006ca1" rx="15.0" ry="15.0" stroke-width="0" transform=" rotate(0, 457, 492)"/>
  <ellipse cx="492.5" cy="492.5" fill="#6dd6ff" rx="15.0" ry="15.0" stroke-width="0" transform=" rotate(0, 492, 492)"/>
</svg>
