<?xml version="1.0" encoding="utf-8" ?>
<svg baseProfile="tiny" height="600" version="1.2" width="600" xmlns="http://www.w3.org/2000/svg" xmlns:ev="http://www.w3.org/2001/xml-events" xmlns:xlink="http://www.w3.org/1999/xlink">
  <defs/>
  <ellipse cx="107.5" cy="107.5" fill="#1b9fd8" rx="15.0" ry="15.0" stroke-width="0" transform=" rotate(0, 107, 107)"/>
  <rect fill="#006ca1" height="30" stroke-width="0" transform=" rotate(0, 142, 107)" width="30" x="127.5" y="92.5"/>
  <polygon fill="#6dd6ff" points="162.5,122.5 177.5,92.5 192.5,122.5" stroke-width="0" transform=" rotate(0, 177, 107)"/>
  <ellipse cx="212.5" cy="107.5" fill="#1b9fd8" rx="15.0" ry="15.0" stroke-width="0" transform=" rotate(0, 212, 107)"/>
  <rect fill="#006ca1" height="30" stroke-width="0" transform=" rotate(0, 247, 107)" width="30" x="232.5" y="92.5"/>
  <polygon fill="#6dd6ff" points="267.5,122.5 282.5,92.5 297.5,122.5" stroke-width="0" transform=" rotate(0, 282, 107)"/>
  <ellipse cx="317.5" cy="107.5" fill="#1b9fd8" rx="15.0" ry="15.0" stroke-width="0" transform=" rotate(0, 317, 107)"/>
  <rect fill="#006ca1" height="30" stroke-width="0" transform=" rotate(0, 352, 107)" width="30" x="337.5" y="92.5"/>
  <polygon fill="#6dd6ff" points="372.5,122.5 387.5,92.5 402.5,122.5" stroke-width="0" transform=" rotate(0, 387, 107)"/>
  <ellipse cx="422.5" cy="107.5" fill="#1b9fd8" rx="15.0" ry="15.0" stroke-width="0" transform=" rotate(0, 422, 107)"/>
  <rect fill="#006ca1" height="30" stroke-width="0" transform=" rotate(0, 457, 107)" width="30" x="442.5" y="92.5"/>
  <polygon fill="#6dd6ff" points="477.5,122.5 492.5,92.5 507.5,122.5" stroke-width="0" transform=" rotate(0, 492, 107)"/>
  <ellipse cx="107.5" cy="142.5" fill="#1b9fd8" rx="10.0" ry="10.0" stroke-width="0" transform=" rotate(0, 107, 142)"/>
  <rect fill="#006ca1" height="20" stroke-width="0" transform=" rotate(0, 142, 142)" width="20" x="132.5" y="132.5"/>
  <polygon fill="#6dd6ff" points="167.5,152.5 177.5,132.5 187.5,152.5" stroke-width="0" transform=" rotate(0, 177, 142)"/>
  <ellipse cx="212.5" cy="142.5" fill="#1b9fd8" rx="10.0" ry="10.0" stroke-width="0" transform=" rotate(0, 212, 142)"/>
  <rect fill="#006ca1" height="20" stroke-width="0" transform=" rotate(0, 247, 142)" width="20" x="237.5" y="132.5"/>
  <polygon fill="#6dd6ff" points="272.5,152.5 282.5,132.5 292.5,152.5" stroke-width="0" transform=" rotate(0, 282, 142)"/>
  <ellipse cx="317.5" cy="142.5" fill="#1b9fd8" rx="10.0" ry="10.0" stroke-width="0" transform=" rotate(0, 317, 142)"/>
  <rect fill="#006ca1" height="20" stroke-width="0" transform=" rotate(0, 352, 142)" width="20" x="342.5" y="132.5"/>
  <polygon fill="#6dd6ff" points="377.5,152.5 387.5,132.5 397.5,152.5" stroke-width="0" transform=" rotate(0, 387, 142)"/>
  <ellipse cx="422.5" cy="142.5" fill="#1b9fd8" rx="10.0" ry="10.0" stroke-width="0" transform=" rotate(0, 422, 142)"/>
  <rect fill="#006ca1" height="20" stroke-width="0" transform=" rotate(0, 457, 142)" width="20" x="447.5" y="132.5"/>
  <polygon fill="#6dd6ff" points="482.5,152.5 492.5,132.5 502.5,152.5" stroke-width="0" transform=" rotate(0, 492, 142)"/>
  <ellipse cx="107.5" cy="177.5" fill="#1b9fd8" rx="12.5" ry="12.5" stroke-width="0" transform=" rotate(0, 107, 177)"/>
  <rect fill="#006ca1" height="25" stroke-width="0" transform=" rotate(0, 142, 177)" width="25" x="130.0" y="165.0"/>
  <polygon fill="#6dd6ff" points="165.0,190.0 177.5,165.0 190.0,190.0" stroke-width="0" transform=" rotate(0, 177, 177)"/>
  <ellipse cx="212.5" cy="177.5" fill="#1b9fd8" rx="12.5" ry="12.5" stroke-width="0" transform=" rotate(0, 212, 177)"/>
  <rect fill="#006ca1" height="25" stroke-width="0" transform=" rotate(0, 247, 177)" width="25" x="235.0" y="165.0"/>
  <polygon fill="#6dd6ff" points="270.0,190.0 282.5,165.0 295.0,190.0" stroke-width="0" transform=" rotate(0, 282, 177)"/>
  <ellipse cx="317.5" cy="177.5" fill="#1b9fd8" rx="12.5" ry="12.5" stroke-width="0" transform=" rotate(0, 317, 177)"/>
  <rect fill="#006ca1" height="25" stroke-width="0" transform=" rotate(0, 352, 177)" width="25" x="340.0" y="165.0"/>
  <polygon fill="#6dd6ff" points="375.0,190.0 387.5,165.0 400.0,190.0" stroke-width="0" transform=" rotate(0, 387, 177)"/>
  <ellipse cx="422.5" cy="177.5" fill="#1b9fd8" rx="12.5" ry="12.5" stroke-width="0" transform=" rotate(0, 422, 177)"/>
  <rect fill="#006ca1" height="25" stroke-width="0" transform=" rotate(0, 457, 177)" width="25" x="445.0" y="165.0"/>
  <polygon fill="#6dd6ff" points="480.0,190.0 492.5,165.0 505.0,190.0" stroke-width="0" transform=" rotate(0, 492, 177)"/>
  <ellipse cx="107.5" cy="212.5" fill="#1b9fd8" rx="15.0" ry="15.0" stroke-width="0" transform=" rotate(0, 107, 212)"/>
  <rect fill="#006ca1" height="30" stroke-width="0" transform=" rotate(0, 142, 212)" width="30" x="127.5" y="197.5"/>
  <polygon fill="#6dd6ff" points="162.5,227.5 177.5,197.5 192.5,227.5" stroke-width="0" transform=" rotate(0, 177, 212)"/>
  <ellipse cx="212.5" cy="212.5" fill="#1b9fd8" rx="15.0" ry="15.0" stroke-width="0" transform=" rotate(0, 212, 212)"/>
  <rect fill="#006ca1" height="30" stroke-width="0" transform=" rotate(0, 247, 212)" width="30" x="232.5" y="197.5"/>
  <polygon fill="#6dd6ff" points="267.5,227.5 282.5,197.5 297.5,227.5" stroke-width="0" transform=" rotate(0, 282, 212)"/>
  <ellipse cx="317.5" cy="212.5" fill="#1b9fd8" rx="15.0" ry="15.0" stroke-width="0" transform=" rotate(0, 317, 212)"/>
  <rect fill="#006ca1" height="30" stroke-width="0" transform=" rotate(0, 352, 212)" width="30" x="337.5" y="197.5"/>
  <polygon fill="#6dd6ff" points="372.5,227.5 387.5,197.5 402.5,227.5" stroke-width="0" transform=" rotate(0, 387, 212)"/>
  <ellipse cx="422.5" cy="212.5" fill="#1b9fd8" rx="15.0" ry="15.0" stroke-width="0" transform=" rotate(0, 422, 212)"/>
  <rect fill="#006ca1" height="30" stroke-width="0" transform=" rotate(0, 457, 212)" width="30" x="442.5" y="197.5"/>
  <polygon fill="#6dd6ff" points="477.5,227.5 492.5,197.5 507.5,227.5" stroke-width="0" transform=" rotate(0, 492, 212)"/>
  <ellipse cx="107.5" cy="247.5" fill="#1b9fd8" rx="10.0" ry="10.0" stroke-width="0" transform=" rotate(0, 107, 247)"/>
  <rect fill="#006ca1" height="20" stroke-width="0" transform=" rotate(0, 142, 247)" width="20" x="132.5" y="237.5"/>
  <polygon fill="#6dd6ff" points="167.5,257.5 177.5,237.5 187.5,257.5" stroke-width="0" transform=" rotate(0, 177, 247)"/>
  <ellipse cx="212.5" cy="247.5" fill="#1b9fd8" rx="10.0" ry="10.0" stroke-width="0" transform=" rotate(0, 212, 247)"/>
  <rect fill="#006ca1" height="20" stroke-width="0" transform=" rotate(0, 247, 247)" width="20" x="237.5" y="237.5"/>
  <polygon fill="#6dd6ff" points="272.5,257.5 282.5,237.5 292.5,257.5" stroke-width="0" transform=" rotate(0, 282, 247)"/>
  <ellipse cx="317.5" cy="247.5" fill="#1b9fd8" rx="10.0" ry="10.0" stroke-width="0" transform=" rotate(0, 317, 247)"/>
  <rect fill="#006ca1" height="20" stroke-width="0" transform=" rotate(0, 352, 247)" width="20" x="342.5" y="237.5"/>
  <polygon fill="#6dd6ff" points="377.5,257.5 387.5,237.5 397.5,257.5" stroke-width="0" transform=" rotate(0, 387, 247)"/>
  <ellipse cx="422.5" cy="247.5" fill="#1b9fd8" rx="10.0" ry="10.0" stroke-width="0" transform=" rotate(0, 422, 247)"/>
  <rect fill="#006ca1" height="20" stroke-width="0" transform=" rotate(0, 457, 247)" width="20" x="447.5" y="237.5"/>
  <polygon fill="#6dd6ff" points="482.5,257.5 492.5,237.5 502.5,257.5" stroke-width="0" transform=" rotate(0, 492, 247)"/>
  <ellipse cx="107.5" cy="282.5" fill="#1b9fd8" rx="12.5" ry="12.5" stroke-width="0" transform=" rotate(0, 107, 282)"/>
  <rect fill="#006ca1" height="25" stroke-width="0" transform=" rotate(0, 142, 282)" width="25" x="130.0" y="270.0"/>
  <polygon fill="#6dd6ff" points="165.0,295.0 177.5,270.0 190.0,295.0" stroke-width="0" transform=" rotate(0, 177, 282)"/>
  <ellipse cx="212.5" cy="282.5" fill="#1b9fd8" rx="12.5" ry="12.5" stroke-width="0" transform=" rotate(0, 212, 282)"/>
  <rect fill="#006ca1" height="25" stroke-width="0" transform=" rotate(0, 247, 282)" width="25" x="235.0" y="270.0"/>
  <polygon fill="#6dd6ff" points="270.0,295.0 282.5,270.0 295.0,295.0" stroke-width="0" transform=" rotate(0, 282, 282)"/>
  <ellipse cx="317.5" cy="282.5" fill="#1b9fd8" rx="12.5" ry="12.5" stroke-width="0" transform=" rotate(0, 317, 282)"/>
  <rect fill="#006ca1" height="25" stroke-width="0" transform=" rotate(0, 352, 282)" width="25" x="340.0" y="270.0"/>
  <polygon fill="#6dd6ff" points="375.0,295.0 387.5,270.0 400.0,295.0" stroke-width="0" transform=" rotate(0, 387, 282)"/>
  <ellipse cx="422.5" cy="282.5" fill="#1b9fd8" rx="12.5" ry="12.5" stroke-width="0" transform=" rotate(0, 422, 282)"/>
  <rect fill="#006ca1" height="25" stroke-width="0" transform=" rotate(0, 457, 282)" width="25" x="445.0" y="270.0"/>
  <polygon fill="#6dd6ff" points="480.0,295.0 492.5,270.0 505.0,295.0" stroke-width="0" transform=" rotate(0, 492, 282)"/>
  <ellipse cx="107.5" cy="317.5" fill="#1b9fd8" rx="15.0" ry="15.0" stroke-width="0" transform=" rotate(0, 107, 317)"/>
  <rect fill="#006ca1" height="30" stroke-width="0" transform=" rotate(0, 142, 317)" width="30" x="127.5" y="302.5"/>
  <polygon fill="#6dd6ff" points="162.5,332.5 177.5,302.5 192.5,332.5" stroke-width="0" transform=" rotate(0, 177, 317)"/>
  <ellipse cx="212.5" cy="317.5" fill="#1b9fd8" rx="15.0" ry="15.0" stroke-width="0" transform=" rotate(0, 212, 317)"/>
  <rect fill="#006ca1" height="30" stroke-width="0" transform=" rotate(0, 247, 317)" width="30" x="232.5" y="302.5"/>
  <polygon fill="#6dd6ff" points="267.5,332.5 282.5,302.5 297.5,332.5" stroke-width="0" transform=" rotate(0, 282, 317)"/>
  <ellipse cx="317.5" cy="317.5" fill="#1b9fd8" rx="15.0" ry="15.0" stroke-width="0" transform=" rotate(0, 317, 317)"/>
  <rect fill="#006ca1" height="30" stroke-width="0" transform=" rotate(0, 352, 317)" width="30" x="337.5" y="302.5"/>
  <polygon fill="#6dd6ff" points="372.5,332.5 387.5,302.5 402.5,332.5" stroke-width="0" transform=" rotate(0, 387, 317)"/>
  <ellipse cx="422.5" cy="317.5" fill="#1b9fd8" rx="15.0" ry="15.0" stroke-width="0" transform=" rotate(0, 422, 317)"/>
  <rect fill="#006ca1" height="30" stroke-width="0" transform=" rotate(0, 457, 317)" width="30" x="442.5" y="302.5"/>
  <polygon fill="#6dd6ff" points="477.5,332.5 492.5,302.5 507.5,332.5" stroke-width="0" transform=" rotate(0, 492, 317)"/>
  <ellipse cx="107.5" cy="352.5" fill="#1b9fd8" rx="10.0" ry="10.0" stroke-width="0" transform=" rotate(0, 107, 352)"/>
  <rect fill="#006ca1" height="20" stroke-width="0" transform=" rotate(0, 142, 352)" width="20" x="132.5" y="342.5"/>
  <polygon fill="#6dd6ff" points="167.5,362.5 177.5,342.5 187.5,362.5" stroke-width="0" transform=" rotate(0, 177, 352)"/>
  <ellipse cx="212.5" cy="352.5" fill="#1b9fd8" rx="10.0" ry="10.0" stroke-width="0" transform=" rotate(0, 212, 352)"/>
  <rect fill="#006ca1" height="20" stroke-width="0" transform=" rotate(0, 247, 352)" width="20" x="237.5" y="342.5"/>
  <polygon fill="#6dd6ff" points="272.5,362.5 282.5,342.5 292.5,362.5" stroke-width="0" transform=" rotate(0, 282, 352)"/>
  <ellipse cx="317.5" cy="352.5" fill="#1b9fd8" rx="10.0" ry="10.0" stroke-width="0" transform=" rotate(0, 317, 352)"/>
  <rect fill="#006ca1" height="20" stroke-width="0" transform=" rotate(0, 352, 352)" width="20" x="342.5" y="342.5"/>
  <polygon fill="#6dd6ff" points="377.5,362.5 387.5,342.5 397.5,362.5" stroke-width="0" transform=" rotate(0, 387, 352)"/>
  <ellipse cx="422.5" cy="352.5" fill="#1b9fd8" rx="10.0" ry="10.0" stroke-width="0" transform=" rotate(0, 422, 352)"/>
  <rect fill="#006ca1" height="20" stroke-width="0" transform=" rotate(0, 457, 352)" width="20" x="447.5" y="342.5"/>
  <polygon fill="#6dd6ff" points="482.5,362.5 492.5,342.5 502.5,362.5" stroke-width="0" transform=" rotate(0, 492, 352)"/>
  <ellipse cx="107.5" cy="387.5" fill="#1b9fd8" rx="12.5" ry="12.5" stroke-width="0" transform=" rotate(0, 107, 387)"/>
  <rect fill="#006ca1" height="25" stroke-width="0" transform=" rotate(0, 142, 387)" width="25" x="130.0" y="375.0"/>
  <polygon fill="#6dd6ff" points="165.0,400.0 177.5,375.0 190.0,400.0" stroke-width="0" transform=" rotate(0, 177, 387)"/>
  <ellipse cx="212.5" cy="387.5" fill="#1b9fd8" rx="12.5" ry="12.5" stroke-width="0" transform=" rotate(0, 212, 387)"/>
  <rect fill="#006ca1" height="25" stroke-width="0" transform=" rotate(0, 247, 387)" width="25" x="235.0" y="375.0"/>
  <polygon fill="#6dd6ff" points="270.0,400.0 282.5,375.0 295.0,400.0" stroke-width="0" transform=" rotate(0, 282, 387)"/>
  <ellipse cx="317.5" cy="387.5" fill="#1b9fd8" rx="12.5" ry="12.5" stroke-width="0" transform=" rotate(0, 317, 387)"/>
  <rect fill="#006ca1" height="25" stroke-width="0" transform=" rotate(0, 352, 387)" width="25" x="340.0" y="375.0"/>
  <polygon fill="#6dd6ff" points="375.0,400.0 387.5,375.0 400.0,400.0" stroke-width="0" transform=" rotate(0, 387, 387)"/>
  <ellipse cx="422.5" cy="387.5" fill="#1b9fd8" rx="12.5" ry="12.5" stroke-width="0" transform=" rotate(0, 422, 387)"/>
  <rect fill="#006ca1" height="25" stroke-width="0" transform=" rotate(0, 457, 387)" width="25" x="445.0" y="375.0"/>
  <polygon fill="#6dd6ff" points="480.0,400.0 492.5,375.0 505.0,400.0" stroke-width="0" transform=" rotate(0, 492, 387)"/>
  <ellipse cx="107.5" cy="422.5" fill="#1b9fd8" rx="15.0" ry="15.0" stroke-width="0" transform=" rotate(0, 107, 422)"/>
  <rect fill="#006ca1" height="30" stroke-width="0" transform=" rotate(0, 142, 422)" width="30" x="127.5" y="407.5"/>
  <polygon fill="#6dd6ff" points="162.5,437.5 177.5,407.5 192.5,437.5" stroke-width="0" transform=" rotate(0, 177, 422)"/>
  <ellipse cx="212.5" cy="422.5" fill="#1b9fd8" rx="15.0" ry="15.0" stroke-width="0" transform=" rotate(0, 212, 422)"/>
  <rect fill="#006ca1" height="30" stroke-width="0" transform=" rotate(0, 247, 422)" width="30" x="232.5" y="407.5"/>
  <polygon fill="#6dd6ff" points="267.5,437.5 282.5,407.5 297.5,437.5" stroke-width="0" transform=" rotate(0, 282, 422)"/>
  <ellipse cx="317.5" cy="422.5" fill="#1b9fd8" rx="15.0" ry="15.0" stroke-width="0" transform=" rotate(0, 317, 422)"/>
  <rect fill="#006ca1" height="30" stroke-width="0" transform=" rotate(0, 352, 422)" width="30" x="337.5" y="407.5"/>
  <polygon fill="#6dd6ff" points="372.5,437.5 387.5,407.5 402.5,437.5" stroke-width="0" transform=" rotate(0, 387, 422)"/>
  <ellipse cx="422.5" cy="422.5" fill="#1b9fd8" rx="15.0" ry="15.0" stroke-width="0" transform=" rotate(0, 422, 422)"/>
  <rect fill="#006ca1" height="30" stroke-width="0" transform=" rotate(0, 457, 422)" width="30" x="442.5" y="407.5"/>
  <polygon fill="#6dd6ff" points="477.5,437.5 492.5,407.5 507.5,437.5" stroke-width="0" transform=" rotate(0, 492, 422)"/>
  <ellipse cx="107.5" cy="457.5" fill="#1b9fd8" rx="10.0" ry="10.0" stroke-width="0" transform=" rotate(0, 107, 457)"/>
  <rect fill="#006ca1" height="20" stroke-width="0" transform=" rotate(0, 142, 457)" width="20" x="132.5" y="447.5"/>
  <polygon fill="#6dd6ff" points="167.5,467.5 177.5,447.5 187.5,467.5" stroke-width="0" transform=" rotate(0, 177, 457)"/>
  <ellipse cx="212.5" cy="457.5" fill="#1b9fd8" rx="10.0" ry="10.0" stroke-width="0" transform=" rotate(0, 212, 457)"/>
  <rect fill="#006ca1" height="20" stroke-width="0" transform=" rotate(0, 247, 457)" width="20" x="237.5" y="447.5"/>
  <polygon fill="#6dd6ff" points="272.5,467.5 282.5,447.5 292.5,467.5" stroke-width="0" transform=" rotate(0, 282, 457)"/>
  <ellipse cx="317.5" cy="457.5" fill="#1b9fd8" rx="10.0" ry="10.0" stroke-width="0" transform=" rotate(0, 317, 457)"/>
  <rect fill="#006ca1" height="20" stroke-width="0" transform=" rotate(0, 352, 457)" width="20" x="342.5" y="447.5"/>
  <polygon fill="#6dd6ff" points="377.5,467.5 387.5,447.5 397.5,467.5" stroke-width="0" transform=" rotate(0, 387, 457)"/>
  <ellipse cx="422.5" cy="457.5" fill="#1b9fd8" rx="10.0" ry="10.0" stroke-width="0" transform=" rotate(0, 422, 457)"/>
  <rect fill="#006ca1" height="20" stroke-width="0" transform=" rotate(0, 457, 457)" width="20" x="447.5" y="447.5"/>
  <polygon fill="#6dd6ff" points="482.5,467.5 492.5,447.5 502.5,467.5" stroke-width="0" transform=" rotate(0, 492, 457)"/>
  <ellipse cx="107.5" cy="492.5" fill="#1b9fd8" rx="12.5" ry="12.5" stroke-width="0" transform=" rotate(0, 107, 492)"/>
  <rect fill="#006ca1" height="25" stroke-width="0" transform=" rotate(0, 142, 492)" width="25" x="130.0" y="480.0"/>
  <polygon fill="#6dd6ff" points="165.0,505.0 177.5,480.0 190.0,505.0" stroke-width="0" transform=" rotate(0, 177, 492)"/>
  <ellipse cx="212.5" cy="492.5" fill="#1b9fd8" rx="12.5" ry="12.5" stroke-width="0" transform=" rotate(0, 212, 492)"/>
  <rect fill="#006ca1" height="25" stroke-width="0" transform=" rotate(0, 247, 492)" width="25" x="235.0" y="480.0"/>
  <polygon fill="#6dd6ff" points="270.0,505.0 282.5,480.0 295.0,505.0" stroke-width="0" transform=" rotate(0, 282, 492)"/>
  <ellipse cx="317.5" cy="492.5" fill="#1b9fd8" rx="12.5" ry="12.5" stroke-width="0" transform=" rotate(0, 317, 492)"/>
  <rect fill="#006ca1" height="25" stroke-width="0" transform=" rotate(0, 352, 492)" width="25" x="340.0" y="480.0"/>
  <polygon fill="#6dd6ff" points="375.0,505.0 387.5,480.0 400.0,505.0" stroke-width="0" transform=" rotate(0, 387, 492)"/>
  <ellipse cx="422.5" cy="492.5" fill="#1b9fd8" rx="12.5" ry="12.5" stroke-width="0" transform=" rotate(0, 422, 492)"/>
  <rect fill="#006ca1" height="25" stroke-width="0" transform=" rotate(0, 457, 492)" width="25" x="445.0" y="480.0"/>
  <polygon fill="#6dd6ff" points="480.0,505.0 492.5,480.0 505.0,505.0" stroke-width="0" transform=" rotate(0, 492, 492)"/>
</svg>
