<?xml version="1.0" encoding="utf-8" ?>
<svg baseProfile="tiny" height="600" version="1.2" width="600" xmlns="http://www.w3.org/2000/svg" xmlns:ev="http://www.w3.org/2001/xml-events" xmlns:xlink="http://www.w3.org/1999/xlink">
  <defs/>
  <ellipse cx="107.5" cy="107.5" fill="#006ca1" rx="15.0" ry="15.0" stroke-width="0" transform=" rotate(0, 107, 107)"/>
  <polygon fill="#006ca1" points="127.5,122.5 142.5,92.5 157.5,122.5" stroke-width="0" transform=" rotate(0, 142, 107)"/>
  <ellipse cx="177.5" cy="107.5" fill="#1b9fd8" rx="15.0" ry="15.0" stroke-width="0" transform=" rotate(0, 177, 107)"/>
  <polygon fill="#1b9fd8" points="197.5,122.5 212.5,92.5 227.5,122.5" stroke-width="0" transform=" rotate(0, 212, 107)"/>
  <rect fill="#006ca1" height="30" stroke-width="0" transform=" rotate(0, 247, 107)" width="30" x="232.5" y="92.5"/>
  <rect fill="#006ca1" height="30" stroke-width="0" transform=" rotate(0, 282, 107)" width="30" x="267.5" y="92.5"/>
  <rect fill="#006ca1" height="30" stroke-width="0" transform=" rotate(0, 317, 107)" width="30" x="302.5" y="92.5"/>
  <polygon fill="#006ca1" points="337.5,122.5 352.5,92.5 367.5,122.5" stroke-width="0" transform=" rotate(0, 352, 107)"/>
  <rect fill="#1b9fd8" height="30" stroke-width="0" transform=" rotate(0, 387, 107)" width="30" x="372.5" y="92.5"/>
  <rect fill="#1b9fd8" height="30" stroke-width="0" transform=" rotate(0, 422, 107)" width="30" x="407.5" y="92.5"/>
  <polygon fill="#006ca1" points="442.5,122.5 457.5,92.5 472.5,122.5" stroke-width="0" transform=" rotate(0, 457, 107)"/>
  <ellipse cx="492.5" cy="107.5" fill="#1b9fd8" rx="15.0" ry="15.0" stroke-width="0" transform=" rotate(0, 492, 107)"/>
  <ellipse cx="107.5" cy="142.5" fill="#1b9fd8" rx="15.0" ry="15.0" stroke-width="0" transform=" rotate(0, 107, 142)"/>
  <polygon fill="#1b9fd8" points="127.5,157.5 142.5,127.5 157.5,157.5" stroke-width="0" transform=" rotate(0, 142, 142)"/>
  <ellipse cx="177.5" cy="142.5" fill="#6dd6ff" rx="15.0" ry="15.0" stroke-width="0" transform=" rotate(0, 177, 142)"/>
  <polygon fill="#6dd6ff" points="197.5,157.5 212.5,127.5 227.5,157.5" stroke-width="0" transform=" rotate(0, 212, 142)"/>
  <polygon fill="#6dd6ff" points="232.5,157.5 247.5,127.5 262.5,157.5" stroke-width="0" transform=" rotate(0, 247, 142)"/>
  <polygon fill="#1b9fd8" points="267.5,157.5 282.5,127.5 297.5,157.5" stroke-width="0" transform=" rotate(0, 282, 142)"/>
  <rect fill="#1b9fd8" height="30" stroke-width="0" transform=" rotate(0, 317, 142)" width="30" x="302.5" y="127.5"/>
  <ellipse cx="352.5" cy="142.5" fill="#006ca1" rx="15.0" ry="15.0" stroke-width="0" transform=" rotate(0, 352, 142)"/>
  <rect fill="#1b9fd8" height="30" stroke-width="0" transform=" rotate(0, 387, 142)" width="30" x="372.5" y="127.5"/>
  <rect fill="#1b9fd8" height="30" stroke-width="0" transform=" rotate(0, 422, 142)" width="30" x="407.5" y="127.5"/>
  <ellipse cx="457.5" cy="142.5" fill="#1b9fd8" rx="15.0" ry="15.0" stroke-width="0" transform=" rotate(0, 457, 142)"/>
  <rect fill="#006ca1" height="30" stroke-width="0" transform=" rotate(0, 492, 142)" width="30" x="477.5" y="127.5"/>
  <polygon fill="#006ca1" points="92.5,192.5 107.5,162.5 122.5,192.5" stroke-width="0" transform=" rotate(0, 107, 177)"/>
  <ellipse cx="142.5" cy="177.5" fill="#1b9fd8" rx="15.0" ry="15.0" stroke-width="0" transform=" rotate(0, 142, 177)"/>
  <ellipse cx="177.5" cy="177.5" fill="#1b9fd8" rx="15.0" ry="15.0" stroke-width="0" transform=" rotate(0, 177, 177)"/>
  <ellipse cx="212.5" cy="177.5" fill="#1b9fd8" rx="15.0" ry="15.0" stroke-width="0" transform=" rotate(0, 212, 177)"/>
  <ellipse cx="247.5" cy="177.5" fill="#6dd6ff" rx="15.0" ry="15.0" stroke-width="0" transform=" rotate(0, 247, 177)"/>
  <polygon fill="#1b9fd8" points="267.5,192.5 282.5,162.5 297.5,192.5" stroke-width="0" transform=" rotate(0, 282, 177)"/>
  <rect fill="#6dd6ff" height="30" stroke-width="0" transform=" rotate(0, 317, 177)" width="30" x="302.5" y="162.5"/>
  <ellipse cx="352.5" cy="177.5" fill="#006ca1" rx="15.0" ry="15.0" stroke-width="0" transform=" rotate(0, 352, 177)"/>
  <polygon fill="#1b9fd8" points="372.5,192.5 387.5,162.5 402.5,192.5" stroke-width="0" transform=" rotate(0, 387, 177)"/>
  <ellipse cx="422.5" cy="177.5" fill="#006ca1" rx="15.0" ry="15.0" stroke-width="0" transform=" rotate(0, 422, 177)"/>
  <polygon fill="#1b9fd8" points="442.5,192.5 457.5,162.5 472.5,192.5" stroke-width="0" transform=" rotate(0, 457, 177)"/>
  <rect fill="#006ca1" height="30" stroke-width="0" transform=" rotate(0, 492, 177)" width="30" x="477.5" y="162.5"/>
  <ellipse cx="107.5" cy="212.5" fill="#1b9fd8" rx="15.0" ry="15.0" stroke-width="0" transform=" rotate(0, 107, 212)"/>
  <rect fill="#1b9fd8" height="30" stroke-width="0" transform=" rotate(0, 142, 212)" width="30" x="127.5" y="197.5"/>
  <rect fill="#6dd6ff" height="30" stroke-width="0" transform=" rotate(0, 177, 212)" width="30" x="162.5" y="197.5"/>
  <ellipse cx="212.5" cy="212.5" fill="#1b9fd8" rx="15.0" ry="15.0" stroke-width="0" transform=" rotate(0, 212, 212)"/>
  <polygon fill="#1b9fd8" points="232.5,227.5 247.5,197.5 262.5,227.5" stroke-width="0" transform=" rotate(0, 247, 212)"/>
  <rect fill="#6dd6ff" height="30" stroke-width="0" transform=" rotate(0, 282, 212)" width="30" x="267.5" y="197.5"/>
  <polygon fill="#6dd6ff" points="302.5,227.5 317.5,197.5 332.5,227.5" stroke-width="0" transform=" rotate(0, 317, 212)"/>
  <ellipse cx="352.5" cy="212.5" fill="#1b9fd8" rx="15.0" ry="15.0" stroke-width="0" transform=" rotate(0, 352, 212)"/>
  <rect fill="#6dd6ff" height="30" stroke-width="0" transform=" rotate(0, 387, 212)" width="30" x="372.5" y="197.5"/>
  <polygon fill="#6dd6ff" points="407.5,227.5 422.5,197.5 437.5,227.5" stroke-width="0" transform=" rotate(0, 422, 212)"/>
  <ellipse cx="457.5" cy="212.5" fill="#1b9fd8" rx="15.0" ry="15.0" stroke-width="0" transform=" rotate(0, 457, 212)"/>
  <ellipse cx="492.5" cy="212.5" fill="#1b9fd8" rx="15.0" ry="15.0" stroke-width="0" transform=" rotate(0, 492, 212)"/>
  <ellipse cx="107.5" cy="247.5" fill="#1b9fd8" rx="15.0" ry="15.0" stroke-width="0" transform=" rotate(0, 107, 247)"/>
  <rect fill="#1b9fd8" height="30" stroke-width="0" transform=" rotate(0, 142, 247)" width="30" x="127.5" y="232.5"/>
  <polygon fill="#1b9fd8" points="162.5,262.5 177.5,232.5 192.5,262.5" stroke-width="0" transform=" rotate(0, 177, 247)"/>
  <polygon fill="#1b9fd8" points="197.5,262.5 212.5,232.5 227.5,262.5" stroke-width="0" transform=" rotate(0, 212, 247)"/>
  <rect fill="#006ca1" height="30" stroke-width="0" transform=" rotate(0, 247, 247)" width="30" x="232.5" y="232.5"/>
  <ellipse cx="282.5" cy="247.5" fill="#006ca1" rx="15.0" ry="15.0" stroke-width="0" transform=" rotate(0, 282, 247)"/>
  <polygon fill="#6dd6ff" points="302.5,262.5 317.5,232.5 332.5,262.5" stroke-width="0" transform=" rotate(0, 317, 247)"/>
  <polygon fill="#006ca1" points="337.5,262.5 352.5,232.5 367.5,262.5" stroke-width="0" transform=" rotate(0, 352, 247)"/>
  <rect fill="#006ca1" height="30" stroke-width="0" transform=" rotate(0, 387, 247)" width="30" x="372.5" y="232.5"/>
  <rect fill="#6dd6ff" height="30" stroke-width="0" transform=" rotate(0, 422, 247)" width="30" x="407.5" y="232.5"/>
  <rect fill="#6dd6ff" height="30" stroke-width="0" transform=" rotate(0, 457, 247)" width="30" x="442.5" y="232.5"/>
  <polygon fill="#1b9fd8" points="477.5,262.5 492.5,232.5 507.5,262.5" stroke-width="0" transform=" rotate(0, 492, 247)"/>
  <ellipse cx="107.5" cy="282.5" fill="#1b9fd8" rx="15.0" ry="15.0" stroke-width="0" transform=" rotate(0, 107, 282)"/>
  <rect fill="#6dd6ff" height="30" stroke-width="0" transform=" rotate(0, 142, 282)" width="30" x="127.5" y="267.5"/>
  <ellipse cx="177.5" cy="282.5" fill="#6dd6ff" rx="15.0" ry="15.0" stroke-width="0" transform=" rotate(0, 177, 282)"/>
  <ellipse cx="212.5" cy="282.5" fill="#6dd6ff" rx="15.0" ry="15.0" stroke-width="0" transform=" rotate(0, 212, 282)"/>
  <rect fill="#6dd6ff" height="30" stroke-width="0" transform=" rotate(0, 247, 282)" width="30" x="232.5" y="267.5"/>
  <polygon fill="#006ca1" points="267.5,297.5 282.5,267.5 297.5,297.5" stroke-width="0" transform=" rotate(0, 282, 282)"/>
  <polygon fill="#1b9fd8" points="302.5,297.5 317.5,267.5 332.5,297.5" stroke-width="0" transform=" rotate(0, 317, 282)"/>
  <polygon fill="#006ca1" points="337.5,297.5 352.5,267.5 367.5,297.5" stroke-width="0" transform=" rotate(0, 352, 282)"/>
  <ellipse cx="387.5" cy="282.5" fill="#1b9fd8" rx="15.0" ry="15.0" stroke-width="0" transform=" rotate(0, 387, 282)"/>
  <polygon fill="#6dd6ff" points="407.5,297.5 422.5,267.5 437.5,297.5" stroke-width="0" transform=" rotate(0, 422, 282)"/>
  <rect fill="#006ca1" height="30" stroke-width="0" transform=" rotate(0, 457, 282)" width="30" x="442.5" y="267.5"/>
  <ellipse cx="492.5" cy="282.5" fill="#1b9fd8" rx="15.0" ry="15.0" stroke-width="0" transform=" rotate(0, 492, 282)"/>
  <polygon fill="#1b9fd8" points="92.5,332.5 107.5,302.5 122.5,332.5" stroke-width="0" transform=" rotate(0, 107, 317)"/>
  <polygon fill="#6dd6ff" points="127.5,332.5 142.5,302.5 157.5,332.5" stroke-width="0" transform=" rotate(0, 142, 317)"/>
  <rect fill="#6dd6ff" height="30" stroke-width="0" transform=" rotate(0, 177, 317)" width="30" x="162.5" y="302.5"/>
  <polygon fill="#006ca1" points="197.5,332.5 212.5,302.5 227.5,332.5" stroke-width="0" transform=" rotate(0, 212, 317)"/>
  <rect fill="#006ca1" height="30" stroke-width="0" transform=" rotate(0, 247, 317)" width="30" x="232.5" y="302.5"/>
  <rect fill="#6dd6ff" height="30" stroke-width="0" transform=" rotate(0, 282, 317)" width="30" x="267.5" y="302.5"/>
  <rect fill="#1b9fd8" height="30" stroke-width="0" transform=" rotate(0, 317, 317)" width="30" x="302.5" y="302.5"/>
  <ellipse cx="352.5" cy="317.5" fill="#006ca1" rx="15.0" ry="15.0" stroke-width="0" transform=" rotate(0, 352, 317)"/>
  <polygon fill="#6dd6ff" points="372.5,332.5 387.5,302.5 402.5,332.5" stroke-width="0" transform=" rotate(0, 387, 317)"/>
  <ellipse cx="422.5" cy="317.5" fill="#6dd6ff" rx="15.0" ry="15.0" stroke-width="0" transform=" rotate(0, 422, 317)"/>
  <ellipse cx="457.5" cy="317.5" fill="#6dd6ff" rx="15.0" ry="15.0" stroke-width="0" transform=" rotate(0, 457, 317)"/>
  <ellipse cx="492.5" cy="317.5" fill="#1b9fd8" rx="15.0" ry="15.0" stroke-width="0" transform=" rotate(0, 492, 317)"/>
  <polygon fill="#006ca1" points="92.5,367.5 107.5,337.5 122.5,367.5" stroke-width="0" transform=" rotate(0, 107, 352)"/>
  <rect fill="#6dd6ff" height="30" stroke-width="0" transform=" rotate(0, 142, 352)" width="30" x="127.5" y="337.5"/>
  <polygon fill="#1b9fd8" points="162.5,367.5 177.5,337.5 192.5,367.5" stroke-width="0" transform=" rotate(0, 177, 352)"/>
  <polygon fill="#1b9fd8" points="197.5,367.5 212.5,337.5 227.5,367.5" stroke-width="0" transform=" rotate(0, 212, 352)"/>
  <polygon fill="#006ca1" points="232.5,367.5 247.5,337.5 262.5,367.5" stroke-width="0" transform=" rotate(0, 247, 352)"/>
  <ellipse cx="282.5" cy="352.5" fill="#6dd6ff" rx="15.0" ry="15.0" stroke-width="0" transform=" rotate(0, 282, 352)"/>
  <polygon fill="#6dd6ff" points="302.5,367.5 317.5,337.5 332.5,367.5" stroke-width="0" transform=" rotate(0, 317, 352)"/>
  <ellipse cx="352.5" cy="352.5" fill="#6dd6ff" rx="15.0" ry="15.0" stroke-width="0" transform=" rotate(0, 352, 352)"/>
  <ellipse cx="387.5" cy="352.5" fill="#006ca1" rx="15.0" ry="15.0" stroke-width="0" transform=" rotate(0, 387, 352)"/>
  <rect fill="#006ca1" height="30" stroke-width="0" transform=" rotate(0, 422, 352)" width="30" x="407.5" y="337.5"/>
  <ellipse cx="457.5" cy="352.5" fill="#1b9fd8" rx="15.0" ry="15.0" stroke-width="0" transform=" rotate(0, 457, 352)"/>
  <ellipse cx="492.5" cy="352.5" fill="#006ca1" rx="15.0" ry="15.0" stroke-width="0" transform=" rotate(0, 492, 352)"/>
  <polygon fill="#1b9fd8" points="92.5,402.5 107.5,372.5 122.5,402.5" stroke-width="0" transform=" rotate(0, 107, 387)"/>
  <ellipse cx="142.5" cy="387.5" fill="#6dd6ff" rx="15.0" ry="15.0" stroke-width="0" transform=" rotate(0, 142, 387)"/>
  <ellipse cx="177.5" cy="387.5" fill="#006ca1" rx="15.0" ry="15.0" stroke-width="0" transform=" rotate(0, 177, 387)"/>
  <rect fill="#006ca1" height="30" stroke-width="0" transform=" rotate(0, 212, 387)" width="30" x="197.5" y="372.5"/>
  <rect fill="#006ca1" height="30" stroke-width="0" transform=" rotate(0, 247, 387)" width="30" x="232.5" y="372.5"/>
  <rect fill="#6dd6ff" height="30" stroke-width="0" transform=" rotate(0, 282, 387)" width="30" x="267.5" y="372.5"/>
  <rect fill="#1b9fd8" height="30" stroke-width="0" transform=" rotate(0, 317, 387)" width="30" x="302.5" y="372.5"/>
  <rect fill="#1b9fd8" height="30" stroke-width="0" transform=" rotate(0, 352, 387)" width="30" x="337.5" y="372.5"/>
  <ellipse cx="387.5" cy="387.5" fill="#6dd6ff" rx="15.0" ry="15.0" stroke-width="0" transform=" rotate(0, 387, 387)"/>
  <rect fill="#1b9fd8" height="30" stroke-width="0" transform=" rotate(0, 422, 387)" width="30" x="407.5" y="372.5"/>
  <rect fill="#6dd6ff" height="30" stroke-width="0" transform=" rotate(0, 457, 387)" width="30" x="442.5" y="372.5"/>
  <rect fill="#006ca1" height="30" stroke-width="0" transform=" rotate(0, 492, 387)" width="30" x="477.5" y="372.5"/>
  <ellipse cx="107.5" cy="422.5" fill="#6dd6ff" rx="15.0" ry="15.0" stroke-width="0" transform=" rotate(0, 107, 422)"/>
  <polygon fill="#006ca1" points="127.5,437.5 142.5,407.5 157.5,437.5" stroke-width="0" transform=" rotate(0, 142, 422)"/>
  <rect fill="#6dd6ff" height="30" stroke-width="0" transform=" rotate(0, 177, 422)" width="30" x="162.5" y="407.5"/>
  <rect fill="#006ca1" height="30" stroke-width="0" transform=" rotate(0, 212, 422)" width="30" x="197.5" y="407.5"/>
  <polygon fill="#006ca1" points="232.5,437.5 247.5,407.5 262.5,437.5" stroke-width="0" transform=" rotate(0, 247, 422)"/>
  <rect fill="#6dd6ff" height="30" stroke-width="0" transform=" rotate(0, 282, 422)" width="30" x="267.5" y="407.5"/>
  <rect fill="#006ca1" height="30" stroke-width="0" transform=" rotate(0, 317, 422)" width="30" x="302.5" y="407.5"/>
  <ellipse cx="352.5" cy="422.5" fill="#006ca1" rx="15.0" ry="15.0" stroke-width="0" transform=" rotate(0, 352, 422)"/>
  <rect fill="#006ca1" height="30" stroke-width="0" transform=" rotate(0, 387, 422)" width="30" x="372.5" y="407.5"/>
  <polygon fill="#6dd6ff" points="407.5,437.5 422.5,407.5 437.5,437.5" stroke-width="0" transform=" rotate(0, 422, 422)"/>
  <polygon fill="#006ca1" points="442.5,437.5 457.5,407.5 472.5,437.5" stroke-width="0" transform=" rotate(0, 457, 422)"/>
  <ellipse cx="492.5" cy="422.5" fill="#6dd6ff" rx="15.0" ry="15.0" stroke-width="0" transform=" rotate(0, 492, 422)"/>
  <rect fill="#6dd6ff" height="30" stroke-width="0" transform=" rotate(0, 107, 457)" width="30" x="92.5" y="442.5"/>
  <rect fill="#006ca1" height="30" stroke-width="0" transform=" rotate(0, 142, 457)" width="30" x="127.5" y="442.5"/>
  <rect fill="#1b9fd8" height="30" stroke-width="0" transform=" rotate(0, 177, 457)" width="30" x="162.5" y="442.5"/>
  <ellipse cx="212.5" cy="457.5" fill="#006ca1" rx="15.0" ry="15.0" stroke-width="0" transform=" rotate(0, 212, 457)"/>
  <polygon fill="#6dd6ff" points="232.5,472.5 247.5,442.5 262.5,472.5" stroke-width="0" transform=" rotate(0, 247, 457)"/>
  <polygon fill="#1b9fd8" points="267.5,472.5 282.5,442.5 297.5,472.5" stroke-width="0" transform=" rotate(0, 282, 457)"/>
  <polygon fill="#6dd6ff" points="302.5,472.5 317.5,442.5 332.5,472.5" stroke-width="0" transform=" rotate(0, 317, 457)"/>
  <ellipse cx="352.5" cy="457.5" fill="#6dd6ff" rx="15.0" ry="15.0" stroke-width="0" transform=" rotate(0, 352, 457)"/>
  <polygon fill="#006ca1" points="372.5,472.5 387.5,442.5 402.5,472.5" stroke-width="0" transform=" rotate(0, 387, 457)"/>
  <ellipse cx="422.5" cy="457.5" fill="#6dd6ff" rx="15.0" ry="15.0" stroke-width="0" transform=" rotate(0, 422, 457)"/>
  <rect fill="#006ca1" height="30" stroke-width="0" transform=" rotate(0, 457, 457)" width="30" x="442.5" y="442.5"/>
  <rect fill="#006ca1" height="30" stroke-width="0" transform=" rotate(0, 492, 457)" width="30" x="477.5" y="442.5"/>
  <rect fill="#6dd6ff" height="30" stroke-width="0" transform=" rotate(0, 107, 492)" width="30" x="92.5" y="477.5"/>
  <ellipse cx="142.5" cy="492.5" fill="#1b9fd8" rx="15.0" ry="15.0" stroke-width="0" transform=" rotate(0, 142, 492)"/>
  <ellipse cx="177.5" cy="492.5" fill="#006ca1" rx="15.0" ry="15.0" stroke-width="0" transform=" rotate(0, 177, 492)"/>
  <ellipse cx="212.5" cy="492.5" fill="#6dd6ff" rx="15.0" ry="15.0" stroke-width="0" transform=" rotate(0, 212, 492)"/>
  <polygon fill="#006ca1" points="232.5,507.5 247.5,477.5 262.5,507.5" stroke-width="0" transform=" rotate(0, 247, 492)"/>
  <polygon fill="#1b9fd8" points="267.5,507.5 282.5,477.5 297.5,507.5" stroke-width="0" transform=" rotate(0, 282, 492)"/>
  <polygon fill="#006ca1" points="302.5,507.5 317.5,477.5 332.5,507.5" stroke-width="0" transform=" rotate(0, 317, 492)"/>
  <ellipse cx="352.5" cy="492.5" fill="#006ca1" rx="15.0" ry="15.0" stroke-width="0" transform=" rotate(0, 352, 492)"/>
  <rect fill="#1b9fd8" height="30" stroke-width="0" transform=" rotate(0, 387, 492)" width="30" x="372.5" y="477.5"/>
  <polygon fill="#6dd6ff" points="407.5,507.5 422.5,477.5 437.5,507.5" stroke-width="0" transform=" rotate(0, 422, 492)"/>
  <ellipse cx="457.5" cy="492.5" fill="#6dd6ff" rx="15.0" ry="15.0" stroke-width="0" transform=" rotate(0, 457, 492)"/>
  <ellipse cx="492.5" cy="492.5" fill="#006ca1" rx="15.0" ry="15.0" stroke-width="0" transform=" rotate(0, 492, 492)"/>
</svg>
