<?xml version="1.0" encoding="utf-8" ?>
<svg baseProfile="tiny" height="264" version="1.2" width="264" xmlns="http://www.w3.org/2000/svg" xmlns:ev="http://www.w3.org/2001/xml-events" xmlns:xlink="http://www.w3.org/1999/xlink">
  <defs/>
  <rect fill="lightgrey" height="264" width="264" x="0" y="0"/>
  <ellipse cx="42" cy="42" fill="dodgerblue" rx="22.5" ry="22.5" stroke-width="0" transform=" rotate(0, 42, 42)">
    <set attributeName="fill" begin="click" to="green"/>
  </ellipse>
  <ellipse cx="102" cy="42" fill="dodgerblue" rx="22.5" ry="22.5" stroke-width="0" transform=" rotate(0, 102, 42)">
    <set attributeName="fill" begin="click" to="green"/>
  </ellipse>
  <ellipse cx="162" cy="42" fill="dodgerblue" rx="22.5" ry="22.5" stroke-width="0" transform=" rotate(0, 162, 42)">
    <set attributeName="fill" begin="click" to="green"/>
  </ellipse>
  <ellipse cx="222" cy="42" fill="dodgerblue" rx="22.5" ry="22.5" stroke-width="0" transform=" rotate(0, 222, 42)">
    <set attributeName="fill" begin="click" to="green"/>
  </ellipse>
  <ellipse cx="42" cy="102" fill="dodgerblue" rx="22.5" ry="22.5" stroke-width="0" transform=" rotate(0, 42, 102)">
    <set attributeName="fill" begin="click" to="green"/>
  </ellipse>
  <ellipse cx="102" cy="102" fill="dodgerblue" rx="22.5" ry="22.5" stroke-width="0" transform=" rotate(0, 102, 102)">
    <set attributeName="fill" begin="click" to="green"/>
  </ellipse>
  <ellipse cx="162" cy="102" fill="dodgerblue" rx="22.5" ry="22.5" stroke-width="0" transform=" rotate(0, 162, 102)">
    <set attributeName="fill" begin="click" to="green"/>
  </ellipse>
  <ellipse cx="222" cy="102" fill="dodgerblue" rx="22.5" ry="22.5" stroke-width="0" transform=" rotate(0, 222, 102)">
    <set attributeName="fill" begin="click" to="green"/>
  </ellipse>
  <ellipse cx="42" cy="162" fill="dodgerblue" rx="22.5" ry="22.5" stroke-width="0" transform=" rotate(0, 42, 162)">
    <set attributeName="fill" begin="click" to="green"/>
  </ellipse>
  <ellipse cx="102" cy="162" fill="dodgerblue" rx="22.5" ry="22.5" stroke-width="0" transform=" rotate(0, 102, 162)">
    <set attributeName="fill" begin="click" to="green"/>
  </ellipse>
  <ellipse cx="162" cy="162" fill="dodgerblue" rx="22.5" ry="22.5" stroke-width="0" transform=" rotate(0, 162, 162)">
    <set attributeName="fill" begin="click" to="green"/>
  </ellipse>
  <ellipse cx="222" cy="162" fill="dodgerblue" rx="22.5" ry="22.5" stroke-width="0" transform=" rotate(0, 222, 162)">
    <set attributeName="fill" begin="click" to="green"/>
  </ellipse>
  <ellipse cx="42" cy="222" fill="dodgerblue" rx="22.5" ry="22.5" stroke-width="0" transform=" rotate(0, 42, 222)">
    <set attributeName="fill" begin="click" to="green"/>
  </ellipse>
  <ellipse cx="102" cy="222" fill="dodgerblue" rx="22.5" ry="22.5" stroke-width="0" transform=" rotate(0, 102, 222)">
    <set attributeName="fill" begin="click" to="green"/>
  </ellipse>
  <ellipse cx="162" cy="222" fill="dodgerblue" rx="22.5" ry="22.5" stroke-width="0" transform=" rotate(0, 162, 222)">
    <set attributeName="fill" begin="click" to="green"/>
  </ellipse>
  <ellipse cx="222" cy="222" fill="dodgerblue" rx="22.5" ry="22.5" stroke-width="0" transform=" rotate(0, 222, 222)">
    <set attributeName="fill" begin="click" to="green"/>
  </ellipse>
</svg>
