<?xml version="1.0" encoding="utf-8" ?>
<svg baseProfile="tiny" height="264" version="1.2" width="264" xmlns="http://www.w3.org/2000/svg" xmlns:ev="http://www.w3.org/2001/xml-events" xmlns:xlink="http://www.w3.org/1999/xlink">
  <defs/>
  <rect fill="lightgrey" height="264" width="264" x="0" y="0"/>
  <image height="45" transform=" rotate(0, 42, 42)" width="45" x="19.5" xlink:href="https://media.inkscape.org/media/resources/file/Gears_8IWk3lq.svg" y="19.5"/>
  <image height="45" transform=" rotate(0, 102, 42)" width="45" x="79.5" xlink:href="https://upload.wikimedia.org/wikipedia/commons/b/bd/Test.svg" y="19.5"/>
  <image height="45" transform=" rotate(0, 162, 42)" width="45" x="139.5" xlink:href="https://upload.wikimedia.org/wikipedia/commons/6/6a/PNG_Test.png" y="19.5"/>
  <image height="45" transform=" rotate(0, 222, 42)" width="45" x="199.5" xlink:href="https://media.inkscape.org/media/resources/file/Gears_8IWk3lq.svg" y="19.5"/>
  <image height="45" transform=" rotate(0, 42, 102)" width="45" x="19.5" xlink:href="https://media.inkscape.org/media/resources/file/Gears_8IWk3lq.svg" y="79.5"/>
  <image height="45" transform=" rotate(0, 102, 102)" width="45" x="79.5" xlink:href="https://upload.wikimedia.org/wikipedia/commons/b/bd/Test.svg" y="79.5"/>
  <image height="45" transform=" rotate(0, 162, 102)" width="45" x="139.5" xlink:href="https://upload.wikimedia.org/wikipedia/commons/6/6a/PNG_Test.png" y="79.5"/>
  <image height="45" transform=" rotate(0, 222, 102)" width="45" x="199.5" xlink:href="https://media.inkscape.org/media/resources/file/Gears_8IWk3lq.svg" y="79.5"/>
  <image height="45" transform=" rotate(0, 42, 162)" width="45" x="19.5" xlink:href="https://media.inkscape.org/media/resources/file/Gears_8IWk3lq.svg" y="139.5"/>
  <image height="45" transform=" rotate(0, 102, 162)" width="45" x="79.5" xlink:href="https://upload.wikimedia.org/wikipedia/commons/b/bd/Test.svg" y="139.5"/>
  <image height="45" transform=" rotate(0, 162, 162)" width="45" x="139.5" xlink:href="https://upload.wikimedia.org/wikipedia/commons/6/6a/PNG_Test.png" y="139.5"/>
  <image height="45" transform=" rotate(0, 222, 162)" width="45" x="199.5" xlink:href="https://media.inkscape.org/media/resources/file/Gears_8IWk3lq.svg" y="139.5"/>
  <image height="45" transform=" rotate(0, 42, 222)" width="45" x="19.5" xlink:href="https://media.inkscape.org/media/resources/file/Gears_8IWk3lq.svg" y="199.5"/>
  <image height="45" transform=" rotate(0, 102, 222)" width="45" x="79.5" xlink:href="https://upload.wikimedia.org/wikipedia/commons/b/bd/Test.svg" y="199.5"/>
  <image height="45" transform=" rotate(0, 162, 222)" width="45" x="139.5" xlink:href="https://upload.wikimedia.org/wikipedia/commons/6/6a/PNG_Test.png" y="199.5"/>
  <image height="45" transform=" rotate(0, 222, 222)" width="45" x="199.5" xlink:href="https://media.inkscape.org/media/resources/file/Gears_8IWk3lq.svg" y="199.5"/>
</svg>
