<?xml version="1.0" encoding="utf-8" ?>
<svg baseProfile="tiny" height="320" version="1.2" width="320" xmlns="http://www.w3.org/2000/svg" xmlns:ev="http://www.w3.org/2001/xml-events" xmlns:xlink="http://www.w3.org/1999/xlink">
  <defs>
    <radialGradient id="id652">
      <stop offset="0.0" stop-color="white"/>
      <stop offset="1.0" stop-color="red"/>
    </radialGradient>
    <radialGradient id="id653">
      <stop offset="0.0" stop-color="white"/>
      <stop offset="1.0" stop-color="red"/>
    </radialGradient>
    <radialGradient id="id654">
      <stop offset="0.0" stop-color="white"/>
      <stop offset="1.0" stop-color="red"/>
    </radialGradient>
    <radialGradient id="id655">
      <stop offset="0.0" stop-color="white"/>
      <stop offset="1.0" stop-color="red"/>
    </radialGradient>
    <radialGradient id="id656">
      <stop offset="0.0" stop-color="white"/>
      <stop offset="1.0" stop-color="red"/>
    </radialGradient>
    <linearGradient id="id657" x1="0" x2="1" y1="0" y2="0">
      <stop offset="0.0" stop-color="red"/>
      <stop offset="0.2" stop-color="orange"/>
      <stop offset="0.4" stop-color="green"/>
      <stop offset="0.6" stop-color="blue"/>
      <stop offset="0.8" stop-color="indigo"/>
      <stop offset="1.0" stop-color="violet"/>
    </linearGradient>
    <linearGradient id="id658" x1="0" x2="1" y1="0" y2="0">
      <stop offset="0.0" stop-color="red"/>
      <stop offset="0.2" stop-color="orange"/>
      <stop offset="0.4" stop-color="green"/>
      <stop offset="0.6" stop-color="blue"/>
      <stop offset="0.8" stop-color="indigo"/>
      <stop offset="1.0" stop-color="violet"/>
    </linearGradient>
    <linearGradient id="id659" x1="0" x2="1" y1="0" y2="0">
      <stop offset="0.0" stop-color="red"/>
      <stop offset="0.2" stop-color="orange"/>
      <stop offset="0.4" stop-color="green"/>
      <stop offset="0.6" stop-color="blue"/>
      <stop offset="0.8" stop-color="indigo"/>
      <stop offset="1.0" stop-color="violet"/>
    </linearGradient>
    <linearGradient id="id660" x1="0" x2="1" y1="0" y2="0">
      <stop offset="0.0" stop-color="red"/>
      <stop offset="0.2" stop-color="orange"/>
      <stop offset="0.4" stop-color="green"/>
      <stop offset="0.6" stop-color="blue"/>
      <stop offset="0.8" stop-color="indigo"/>
      <stop offset="1.0" stop-color="violet"/>
    </linearGradient>
    <linearGradient id="id661" x1="0" x2="1" y1="0" y2="0">
      <stop offset="0.0" stop-color="red"/>
      <stop offset="0.2" stop-color="orange"/>
      <stop offset="0.4" stop-color="green"/>
      <stop offset="0.6" stop-color="blue"/>
      <stop offset="0.8" stop-color="indigo"/>
      <stop offset="1.0" stop-color="violet"/>
    </linearGradient>
    <linearGradient id="id662" x1="0" x2="0" y1="0" y2="1">
      <stop offset="0.0" stop-color="green"/>
      <stop offset="0.5" stop-color="white"/>
      <stop offset="1.0" stop-color="green"/>
    </linearGradient>
    <linearGradient id="id663" x1="0" x2="0" y1="0" y2="1">
      <stop offset="0.0" stop-color="green"/>
      <stop offset="0.5" stop-color="white"/>
      <stop offset="1.0" stop-color="green"/>
    </linearGradient>
    <linearGradient id="id664" x1="0" x2="0" y1="0" y2="1">
      <stop offset="0.0" stop-color="green"/>
      <stop offset="0.5" stop-color="white"/>
      <stop offset="1.0" stop-color="green"/>
    </linearGradient>
    <linearGradient id="id665" x1="0" x2="0" y1="0" y2="1">
      <stop offset="0.0" stop-color="green"/>
      <stop offset="0.5" stop-color="white"/>
      <stop offset="1.0" stop-color="green"/>
    </linearGradient>
    <linearGradient id="id666" x1="0" x2="0" y1="0" y2="1">
      <stop offset="0.0" stop-color="green"/>
      <stop offset="0.5" stop-color="white"/>
      <stop offset="1.0" stop-color="green"/>
    </linearGradient>
    <linearGradient id="id667" x1="0" x2="1" y1="0" y2="1">
      <stop offset="0.0" stop-color="red"/>
      <stop offset="1.0" stop-color="white"/>
    </linearGradient>
    <linearGradient id="id668" x1="0" x2="1" y1="0" y2="1">
      <stop offset="0.0" stop-color="red"/>
      <stop offset="1.0" stop-color="white"/>
    </linearGradient>
    <linearGradient id="id669" x1="0" x2="1" y1="0" y2="1">
      <stop offset="0.0" stop-color="red"/>
      <stop offset="1.0" stop-color="white"/>
    </linearGradient>
    <linearGradient id="id670" x1="0" x2="1" y1="0" y2="1">
      <stop offset="0.0" stop-color="red"/>
      <stop offset="1.0" stop-color="white"/>
    </linearGradient>
    <linearGradient id="id671" x1="0" x2="1" y1="0" y2="1">
      <stop offset="0.0" stop-color="red"/>
      <stop offset="1.0" stop-color="white"/>
    </linearGradient>
  </defs>
  <rect fill="lightgrey" height="320" width="320" x="0" y="0"/>
  <ellipse cx="40" cy="40" fill="dodgerblue" rx="20.0" ry="20.0" stroke="url(#id652) none" stroke-width="10" transform=" rotate(0, 40, 40)"/>
  <ellipse cx="100" cy="40" fill="dodgerblue" rx="20.0" ry="20.0" stroke="url(#id653) none" stroke-width="10" transform=" rotate(0, 100, 40)"/>
  <ellipse cx="160" cy="40" fill="dodgerblue" rx="20.0" ry="20.0" stroke="url(#id654) none" stroke-width="10" transform=" rotate(0, 160, 40)"/>
  <ellipse cx="220" cy="40" fill="dodgerblue" rx="20.0" ry="20.0" stroke="url(#id655) none" stroke-width="10" transform=" rotate(0, 220, 40)"/>
  <ellipse cx="280" cy="40" fill="dodgerblue" rx="20.0" ry="20.0" stroke="url(#id656) none" stroke-width="10" transform=" rotate(0, 280, 40)"/>
  <ellipse cx="40" cy="100" fill="dodgerblue" rx="20.0" ry="20.0" stroke="url(#id657) none" stroke-width="10" transform=" rotate(0, 40, 100)"/>
  <ellipse cx="100" cy="100" fill="dodgerblue" rx="20.0" ry="20.0" stroke="url(#id658) none" stroke-width="10" transform=" rotate(0, 100, 100)"/>
  <ellipse cx="160" cy="100" fill="dodgerblue" rx="20.0" ry="20.0" stroke="url(#id659) none" stroke-width="10" transform=" rotate(0, 160, 100)"/>
  <ellipse cx="220" cy="100" fill="dodgerblue" rx="20.0" ry="20.0" stroke="url(#id660) none" stroke-width="10" transform=" rotate(0, 220, 100)"/>
  <ellipse cx="280" cy="100" fill="dodgerblue" rx="20.0" ry="20.0" stroke="url(#id661) none" stroke-width="10" transform=" rotate(0, 280, 100)"/>
  <ellipse cx="40" cy="160" fill="dodgerblue" rx="20.0" ry="20.0" stroke="dodgerblue" stroke-width="0" transform=" rotate(0, 40, 160)"/>
  <ellipse cx="100" cy="160" fill="dodgerblue" rx="20.0" ry="20.0" stroke="dodgerblue" stroke-width="0" transform=" rotate(0, 100, 160)"/>
  <ellipse cx="160" cy="160" fill="dodgerblue" rx="20.0" ry="20.0" stroke="dodgerblue" stroke-width="0" transform=" rotate(0, 160, 160)"/>
  <ellipse cx="220" cy="160" fill="dodgerblue" rx="20.0" ry="20.0" stroke="dodgerblue" stroke-width="0" transform=" rotate(0, 220, 160)"/>
  <ellipse cx="280" cy="160" fill="dodgerblue" rx="20.0" ry="20.0" stroke="dodgerblue" stroke-width="0" transform=" rotate(0, 280, 160)"/>
  <ellipse cx="40" cy="220" fill="dodgerblue" rx="20.0" ry="20.0" stroke="url(#id662) none" stroke-width="10" transform=" rotate(0, 40, 220)"/>
  <ellipse cx="100" cy="220" fill="dodgerblue" rx="20.0" ry="20.0" stroke="url(#id663) none" stroke-width="10" transform=" rotate(0, 100, 220)"/>
  <ellipse cx="160" cy="220" fill="dodgerblue" rx="20.0" ry="20.0" stroke="url(#id664) none" stroke-width="10" transform=" rotate(0, 160, 220)"/>
  <ellipse cx="220" cy="220" fill="dodgerblue" rx="20.0" ry="20.0" stroke="url(#id665) none" stroke-width="10" transform=" rotate(0, 220, 220)"/>
  <ellipse cx="280" cy="220" fill="dodgerblue" rx="20.0" ry="20.0" stroke="url(#id666) none" stroke-width="10" transform=" rotate(0, 280, 220)"/>
  <ellipse cx="40" cy="280" fill="dodgerblue" rx="20.0" ry="20.0" stroke="url(#id667) none" stroke-width="10" transform=" rotate(0, 40, 280)"/>
  <ellipse cx="100" cy="280" fill="dodgerblue" rx="20.0" ry="20.0" stroke="url(#id668) none" stroke-width="10" transform=" rotate(0, 100, 280)"/>
  <ellipse cx="160" cy="280" fill="dodgerblue" rx="20.0" ry="20.0" stroke="url(#id669) none" stroke-width="10" transform=" rotate(0, 160, 280)"/>
  <ellipse cx="220" cy="280" fill="dodgerblue" rx="20.0" ry="20.0" stroke="url(#id670) none" stroke-width="10" transform=" rotate(0, 220, 280)"/>
  <ellipse cx="280" cy="280" fill="dodgerblue" rx="20.0" ry="20.0" stroke="url(#id671) none" stroke-width="10" transform=" rotate(0, 280, 280)"/>
</svg>
