<?xml version="1.0" encoding="utf-8" ?>
<svg baseProfile="tiny" height="350" version="1.2" width="350" xmlns="http://www.w3.org/2000/svg" xmlns:ev="http://www.w3.org/2001/xml-events" xmlns:xlink="http://www.w3.org/1999/xlink">
  <defs/>
  <polygon fill="dodgerblue" points="50.0,30.0 35.8579,35.8579 30.0,50.0 35.8579,64.1421 50.0,70.0 64.1421,64.1421 70.0,50.0 64.1421,35.8579" stroke-width="0" transform=" rotate(0, 50, 50)"/>
  <polygon fill="dodgerblue" points="100.0,30.0 85.8579,35.8579 80.0,50.0 85.8579,64.1421 100.0,70.0 114.1421,64.1421 120.0,50.0 114.1421,35.8579" stroke-width="0" transform=" rotate(0, 100, 50)"/>
  <polygon fill="dodgerblue" points="150.0,30.0 135.8579,35.8579 130.0,50.0 135.8579,64.1421 150.0,70.0 164.1421,64.1421 170.0,50.0 164.1421,35.8579" stroke-width="0" transform=" rotate(0, 150, 50)"/>
  <polygon fill="dodgerblue" points="200.0,30.0 185.8579,35.8579 180.0,50.0 185.8579,64.1421 200.0,70.0 214.1421,64.1421 220.0,50.0 214.1421,35.8579" stroke-width="0" transform=" rotate(0, 200, 50)"/>
  <polygon fill="dodgerblue" points="250.0,30.0 235.8579,35.8579 230.0,50.0 235.8579,64.1421 250.0,70.0 264.1421,64.1421 270.0,50.0 264.1421,35.8579" stroke-width="0" transform=" rotate(0, 250, 50)"/>
  <polygon fill="dodgerblue" points="300.0,30.0 285.8579,35.8579 280.0,50.0 285.8579,64.1421 300.0,70.0 314.1421,64.1421 320.0,50.0 314.1421,35.8579" stroke-width="0" transform=" rotate(0, 300, 50)"/>
  <polygon fill="dodgerblue" points="50.0,90.0 42.9289,92.9289 40.0,100.0 42.9289,107.0711 50.0,110.0 57.0711,107.0711 60.0,100.0 57.0711,92.9289" stroke-width="0" transform=" rotate(0, 50, 100)"/>
  <polygon fill="dodgerblue" points="100.0,90.0 92.9289,92.9289 90.0,100.0 92.9289,107.0711 100.0,110.0 107.0711,107.0711 110.0,100.0 107.0711,92.9289" stroke-width="0" transform=" rotate(0, 100, 100)"/>
  <polygon fill="dodgerblue" points="150.0,90.0 142.9289,92.9289 140.0,100.0 142.9289,107.0711 150.0,110.0 157.0711,107.0711 160.0,100.0 157.0711,92.9289" stroke-width="0" transform=" rotate(0, 150, 100)"/>
  <polygon fill="dodgerblue" points="200.0,90.0 192.9289,92.9289 190.0,100.0 192.9289,107.0711 200.0,110.0 207.0711,107.0711 210.0,100.0 207.0711,92.9289" stroke-width="0" transform=" rotate(0, 200, 100)"/>
  <polygon fill="dodgerblue" points="250.0,90.0 242.9289,92.9289 240.0,100.0 242.9289,107.0711 250.0,110.0 257.0711,107.0711 260.0,100.0 257.0711,92.9289" stroke-width="0" transform=" rotate(0, 250, 100)"/>
  <polygon fill="dodgerblue" points="300.0,90.0 292.9289,92.9289 290.0,100.0 292.9289,107.0711 300.0,110.0 307.0711,107.0711 310.0,100.0 307.0711,92.9289" stroke-width="0" transform=" rotate(0, 300, 100)"/>
  <polygon fill="dodgerblue" points="50.0,130.0 35.8579,135.8579 30.0,150.0 35.8579,164.1421 50.0,170.0 64.1421,164.1421 70.0,150.0 64.1421,135.8579" stroke-width="0" transform=" rotate(0, 50, 150)"/>
  <polygon fill="dodgerblue" points="100.0,130.0 85.8579,135.8579 80.0,150.0 85.8579,164.1421 100.0,170.0 114.1421,164.1421 120.0,150.0 114.1421,135.8579" stroke-width="0" transform=" rotate(0, 100, 150)"/>
  <polygon fill="dodgerblue" points="150.0,130.0 135.8579,135.8579 130.0,150.0 135.8579,164.1421 150.0,170.0 164.1421,164.1421 170.0,150.0 164.1421,135.8579" stroke-width="0" transform=" rotate(0, 150, 150)"/>
  <polygon fill="dodgerblue" points="200.0,130.0 185.8579,135.8579 180.0,150.0 185.8579,164.1421 200.0,170.0 214.1421,164.1421 220.0,150.0 214.1421,135.8579" stroke-width="0" transform=" rotate(0, 200, 150)"/>
  <polygon fill="dodgerblue" points="250.0,130.0 235.8579,135.8579 230.0,150.0 235.8579,164.1421 250.0,170.0 264.1421,164.1421 270.0,150.0 264.1421,135.8579" stroke-width="0" transform=" rotate(0, 250, 150)"/>
  <polygon fill="dodgerblue" points="300.0,130.0 285.8579,135.8579 280.0,150.0 285.8579,164.1421 300.0,170.0 314.1421,164.1421 320.0,150.0 314.1421,135.8579" stroke-width="0" transform=" rotate(0, 300, 150)"/>
  <polygon fill="dodgerblue" points="50.0,190.0 42.9289,192.9289 40.0,200.0 42.9289,207.0711 50.0,210.0 57.0711,207.0711 60.0,200.0 57.0711,192.9289" stroke-width="0" transform=" rotate(0, 50, 200)"/>
  <polygon fill="dodgerblue" points="100.0,190.0 92.9289,192.9289 90.0,200.0 92.9289,207.0711 100.0,210.0 107.0711,207.0711 110.0,200.0 107.0711,192.9289" stroke-width="0" transform=" rotate(0, 100, 200)"/>
  <polygon fill="dodgerblue" points="150.0,190.0 142.9289,192.9289 140.0,200.0 142.9289,207.0711 150.0,210.0 157.0711,207.0711 160.0,200.0 157.0711,192.9289" stroke-width="0" transform=" rotate(0, 150, 200)"/>
  <polygon fill="dodgerblue" points="200.0,190.0 192.9289,192.9289 190.0,200.0 192.9289,207.0711 200.0,210.0 207.0711,207.0711 210.0,200.0 207.0711,192.9289" stroke-width="0" transform=" rotate(0, 200, 200)"/>
  <polygon fill="dodgerblue" points="250.0,190.0 242.9289,192.9289 240.0,200.0 242.9289,207.0711 250.0,210.0 257.0711,207.0711 260.0,200.0 257.0711,192.9289" stroke-width="0" transform=" rotate(0, 250, 200)"/>
  <polygon fill="dodgerblue" points="300.0,190.0 292.9289,192.9289 290.0,200.0 292.9289,207.0711 300.0,210.0 307.0711,207.0711 310.0,200.0 307.0711,192.9289" stroke-width="0" transform=" rotate(0, 300, 200)"/>
  <polygon fill="dodgerblue" points="50.0,230.0 35.8579,235.8579 30.0,250.0 35.8579,264.1421 50.0,270.0 64.1421,264.1421 70.0,250.0 64.1421,235.8579" stroke-width="0" transform=" rotate(0, 50, 250)"/>
  <polygon fill="dodgerblue" points="100.0,230.0 85.8579,235.8579 80.0,250.0 85.8579,264.1421 100.0,270.0 114.1421,264.1421 120.0,250.0 114.1421,235.8579" stroke-width="0" transform=" rotate(0, 100, 250)"/>
  <polygon fill="dodgerblue" points="150.0,230.0 135.8579,235.8579 130.0,250.0 135.8579,264.1421 150.0,270.0 164.1421,264.1421 170.0,250.0 164.1421,235.8579" stroke-width="0" transform=" rotate(0, 150, 250)"/>
  <polygon fill="dodgerblue" points="200.0,230.0 185.8579,235.8579 180.0,250.0 185.8579,264.1421 200.0,270.0 214.1421,264.1421 220.0,250.0 214.1421,235.8579" stroke-width="0" transform=" rotate(0, 200, 250)"/>
  <polygon fill="dodgerblue" points="250.0,230.0 235.8579,235.8579 230.0,250.0 235.8579,264.1421 250.0,270.0 264.1421,264.1421 270.0,250.0 264.1421,235.8579" stroke-width="0" transform=" rotate(0, 250, 250)"/>
  <polygon fill="dodgerblue" points="300.0,230.0 285.8579,235.8579 280.0,250.0 285.8579,264.1421 300.0,270.0 314.1421,264.1421 320.0,250.0 314.1421,235.8579" stroke-width="0" transform=" rotate(0, 300, 250)"/>
  <polygon fill="dodgerblue" points="50.0,290.0 42.9289,292.9289 40.0,300.0 42.9289,307.0711 50.0,310.0 57.0711,307.0711 60.0,300.0 57.0711,292.9289" stroke-width="0" transform=" rotate(0, 50, 300)"/>
  <polygon fill="dodgerblue" points="100.0,290.0 92.9289,292.9289 90.0,300.0 92.9289,307.0711 100.0,310.0 107.0711,307.0711 110.0,300.0 107.0711,292.9289" stroke-width="0" transform=" rotate(0, 100, 300)"/>
  <polygon fill="dodgerblue" points="150.0,290.0 142.9289,292.9289 140.0,300.0 142.9289,307.0711 150.0,310.0 157.0711,307.0711 160.0,300.0 157.0711,292.9289" stroke-width="0" transform=" rotate(0, 150, 300)"/>
  <polygon fill="dodgerblue" points="200.0,290.0 192.9289,292.9289 190.0,300.0 192.9289,307.0711 200.0,310.0 207.0711,307.0711 210.0,300.0 207.0711,292.9289" stroke-width="0" transform=" rotate(0, 200, 300)"/>
  <polygon fill="dodgerblue" points="250.0,290.0 242.9289,292.9289 240.0,300.0 242.9289,307.0711 250.0,310.0 257.0711,307.0711 260.0,300.0 257.0711,292.9289" stroke-width="0" transform=" rotate(0, 250, 300)"/>
  <polygon fill="dodgerblue" points="300.0,290.0 292.9289,292.9289 290.0,300.0 292.9289,307.0711 300.0,310.0 307.0711,307.0711 310.0,300.0 307.0711,292.9289" stroke-width="0" transform=" rotate(0, 300, 300)"/>
</svg>
