<?xml version="1.0" encoding="utf-8" ?>
<svg baseProfile="tiny" height="340" version="1.2" width="340" xmlns="http://www.w3.org/2000/svg" xmlns:ev="http://www.w3.org/2001/xml-events" xmlns:xlink="http://www.w3.org/1999/xlink">
  <defs/>
  <rect fill="gainsboro" height="340" width="340" x="0" y="0"/>
  <path d="M37.5,186c-12.1-10.5-11.8-32.3-7.2-46.7c4.8-15,13.1-17.8,30.1-36.7C91,68.8,83.5,56.7,103.4,45 c22.2-13.1,51.1-9.5,69.6-1.6c18.1,7.8,15.7,15.3,43.3,33.2c28.8,18.8,37.2,14.3,46.7,27.9c15.6,22.3,6.4,53.3,4.4,60.2 c-3.3,11.2-7.1,23.9-18.5,32c-16.3,11.5-29.5,0.7-48.6,11c-16.2,8.7-12.6,19.7-28.2,33.2c-22.7,19.7-63.8,25.7-79.9,9.7 c-15.2-15.1,0.3-41.7-16.6-54.9C63,186,49.7,196.7,37.5,186z" fill="#006ca1" stroke-width="0" transform=" scale(0.138889, 0.138889) translate(360.000000, 360.000000) rotate(135, 144, 144)"/>
  <path d="M37.5,186c-12.1-10.5-11.8-32.3-7.2-46.7c4.8-15,13.1-17.8,30.1-36.7C91,68.8,83.5,56.7,103.4,45 c22.2-13.1,51.1-9.5,69.6-1.6c18.1,7.8,15.7,15.3,43.3,33.2c28.8,18.8,37.2,14.3,46.7,27.9c15.6,22.3,6.4,53.3,4.4,60.2 c-3.3,11.2-7.1,23.9-18.5,32c-16.3,11.5-29.5,0.7-48.6,11c-16.2,8.7-12.6,19.7-28.2,33.2c-22.7,19.7-63.8,25.7-79.9,9.7 c-15.2-15.1,0.3-41.7-16.6-54.9C63,186,49.7,196.7,37.5,186z" fill="#0091d4" stroke-width="0" transform=" scale(0.138889, 0.138889) translate(648.000000, 360.000000) rotate(135, 144, 144)"/>
  <path d="M37.5,186c-12.1-10.5-11.8-32.3-7.2-46.7c4.8-15,13.1-17.8,30.1-36.7C91,68.8,83.5,56.7,103.4,45 c22.2-13.1,51.1-9.5,69.6-1.6c18.1,7.8,15.7,15.3,43.3,33.2c28.8,18.8,37.2,14.3,46.7,27.9c15.6,22.3,6.4,53.3,4.4,60.2 c-3.3,11.2-7.1,23.9-18.5,32c-16.3,11.5-29.5,0.7-48.6,11c-16.2,8.7-12.6,19.7-28.2,33.2c-22.7,19.7-63.8,25.7-79.9,9.7 c-15.2-15.1,0.3-41.7-16.6-54.9C63,186,49.7,196.7,37.5,186z" fill="#07b4ff" stroke-width="0" transform=" scale(0.138889, 0.138889) translate(936.000000, 360.000000) rotate(135, 144, 144)"/>
  <path d="M37.5,186c-12.1-10.5-11.8-32.3-7.2-46.7c4.8-15,13.1-17.8,30.1-36.7C91,68.8,83.5,56.7,103.4,45 c22.2-13.1,51.1-9.5,69.6-1.6c18.1,7.8,15.7,15.3,43.3,33.2c28.8,18.8,37.2,14.3,46.7,27.9c15.6,22.3,6.4,53.3,4.4,60.2 c-3.3,11.2-7.1,23.9-18.5,32c-16.3,11.5-29.5,0.7-48.6,11c-16.2,8.7-12.6,19.7-28.2,33.2c-22.7,19.7-63.8,25.7-79.9,9.7 c-15.2-15.1,0.3-41.7-16.6-54.9C63,186,49.7,196.7,37.5,186z" fill="#07b4ff" stroke-width="0" transform=" scale(0.138889, 0.138889) translate(1224.000000, 360.000000) rotate(135, 144, 144)"/>
  <path d="M37.5,186c-12.1-10.5-11.8-32.3-7.2-46.7c4.8-15,13.1-17.8,30.1-36.7C91,68.8,83.5,56.7,103.4,45 c22.2-13.1,51.1-9.5,69.6-1.6c18.1,7.8,15.7,15.3,43.3,33.2c28.8,18.8,37.2,14.3,46.7,27.9c15.6,22.3,6.4,53.3,4.4,60.2 c-3.3,11.2-7.1,23.9-18.5,32c-16.3,11.5-29.5,0.7-48.6,11c-16.2,8.7-12.6,19.7-28.2,33.2c-22.7,19.7-63.8,25.7-79.9,9.7 c-15.2-15.1,0.3-41.7-16.6-54.9C63,186,49.7,196.7,37.5,186z" fill="#0091d4" stroke-width="0" transform=" scale(0.138889, 0.138889) translate(1512.000000, 360.000000) rotate(135, 144, 144)"/>
  <path d="M37.5,186c-12.1-10.5-11.8-32.3-7.2-46.7c4.8-15,13.1-17.8,30.1-36.7C91,68.8,83.5,56.7,103.4,45 c22.2-13.1,51.1-9.5,69.6-1.6c18.1,7.8,15.7,15.3,43.3,33.2c28.8,18.8,37.2,14.3,46.7,27.9c15.6,22.3,6.4,53.3,4.4,60.2 c-3.3,11.2-7.1,23.9-18.5,32c-16.3,11.5-29.5,0.7-48.6,11c-16.2,8.7-12.6,19.7-28.2,33.2c-22.7,19.7-63.8,25.7-79.9,9.7 c-15.2-15.1,0.3-41.7-16.6-54.9C63,186,49.7,196.7,37.5,186z" fill="#006ca1" stroke-width="0" transform=" scale(0.138889, 0.138889) translate(1800.000000, 360.000000) rotate(135, 144, 144)"/>
  <path d="M37.5,186c-12.1-10.5-11.8-32.3-7.2-46.7c4.8-15,13.1-17.8,30.1-36.7C91,68.8,83.5,56.7,103.4,45 c22.2-13.1,51.1-9.5,69.6-1.6c18.1,7.8,15.7,15.3,43.3,33.2c28.8,18.8,37.2,14.3,46.7,27.9c15.6,22.3,6.4,53.3,4.4,60.2 c-3.3,11.2-7.1,23.9-18.5,32c-16.3,11.5-29.5,0.7-48.6,11c-16.2,8.7-12.6,19.7-28.2,33.2c-22.7,19.7-63.8,25.7-79.9,9.7 c-15.2-15.1,0.3-41.7-16.6-54.9C63,186,49.7,196.7,37.5,186z" fill="#006ca1" stroke-width="0" transform=" scale(0.138889, 0.138889) translate(360.000000, 648.000000) rotate(135, 144, 144)"/>
  <path d="M37.5,186c-12.1-10.5-11.8-32.3-7.2-46.7c4.8-15,13.1-17.8,30.1-36.7C91,68.8,83.5,56.7,103.4,45 c22.2-13.1,51.1-9.5,69.6-1.6c18.1,7.8,15.7,15.3,43.3,33.2c28.8,18.8,37.2,14.3,46.7,27.9c15.6,22.3,6.4,53.3,4.4,60.2 c-3.3,11.2-7.1,23.9-18.5,32c-16.3,11.5-29.5,0.7-48.6,11c-16.2,8.7-12.6,19.7-28.2,33.2c-22.7,19.7-63.8,25.7-79.9,9.7 c-15.2-15.1,0.3-41.7-16.6-54.9C63,186,49.7,196.7,37.5,186z" fill="#0091d4" stroke-width="0" transform=" scale(0.138889, 0.138889) translate(648.000000, 648.000000) rotate(135, 144, 144)"/>
  <path d="M37.5,186c-12.1-10.5-11.8-32.3-7.2-46.7c4.8-15,13.1-17.8,30.1-36.7C91,68.8,83.5,56.7,103.4,45 c22.2-13.1,51.1-9.5,69.6-1.6c18.1,7.8,15.7,15.3,43.3,33.2c28.8,18.8,37.2,14.3,46.7,27.9c15.6,22.3,6.4,53.3,4.4,60.2 c-3.3,11.2-7.1,23.9-18.5,32c-16.3,11.5-29.5,0.7-48.6,11c-16.2,8.7-12.6,19.7-28.2,33.2c-22.7,19.7-63.8,25.7-79.9,9.7 c-15.2-15.1,0.3-41.7-16.6-54.9C63,186,49.7,196.7,37.5,186z" fill="#07b4ff" stroke-width="0" transform=" scale(0.138889, 0.138889) translate(936.000000, 648.000000) rotate(135, 144, 144)"/>
  <path d="M37.5,186c-12.1-10.5-11.8-32.3-7.2-46.7c4.8-15,13.1-17.8,30.1-36.7C91,68.8,83.5,56.7,103.4,45 c22.2-13.1,51.1-9.5,69.6-1.6c18.1,7.8,15.7,15.3,43.3,33.2c28.8,18.8,37.2,14.3,46.7,27.9c15.6,22.3,6.4,53.3,4.4,60.2 c-3.3,11.2-7.1,23.9-18.5,32c-16.3,11.5-29.5,0.7-48.6,11c-16.2,8.7-12.6,19.7-28.2,33.2c-22.7,19.7-63.8,25.7-79.9,9.7 c-15.2-15.1,0.3-41.7-16.6-54.9C63,186,49.7,196.7,37.5,186z" fill="#07b4ff" stroke-width="0" transform=" scale(0.138889, 0.138889) translate(1224.000000, 648.000000) rotate(135, 144, 144)"/>
  <path d="M37.5,186c-12.1-10.5-11.8-32.3-7.2-46.7c4.8-15,13.1-17.8,30.1-36.7C91,68.8,83.5,56.7,103.4,45 c22.2-13.1,51.1-9.5,69.6-1.6c18.1,7.8,15.7,15.3,43.3,33.2c28.8,18.8,37.2,14.3,46.7,27.9c15.6,22.3,6.4,53.3,4.4,60.2 c-3.3,11.2-7.1,23.9-18.5,32c-16.3,11.5-29.5,0.7-48.6,11c-16.2,8.7-12.6,19.7-28.2,33.2c-22.7,19.7-63.8,25.7-79.9,9.7 c-15.2-15.1,0.3-41.7-16.6-54.9C63,186,49.7,196.7,37.5,186z" fill="#0091d4" stroke-width="0" transform=" scale(0.138889, 0.138889) translate(1512.000000, 648.000000) rotate(135, 144, 144)"/>
  <path d="M37.5,186c-12.1-10.5-11.8-32.3-7.2-46.7c4.8-15,13.1-17.8,30.1-36.7C91,68.8,83.5,56.7,103.4,45 c22.2-13.1,51.1-9.5,69.6-1.6c18.1,7.8,15.7,15.3,43.3,33.2c28.8,18.8,37.2,14.3,46.7,27.9c15.6,22.3,6.4,53.3,4.4,60.2 c-3.3,11.2-7.1,23.9-18.5,32c-16.3,11.5-29.5,0.7-48.6,11c-16.2,8.7-12.6,19.7-28.2,33.2c-22.7,19.7-63.8,25.7-79.9,9.7 c-15.2-15.1,0.3-41.7-16.6-54.9C63,186,49.7,196.7,37.5,186z" fill="#006ca1" stroke-width="0" transform=" scale(0.138889, 0.138889) translate(1800.000000, 648.000000) rotate(135, 144, 144)"/>
  <path d="M37.5,186c-12.1-10.5-11.8-32.3-7.2-46.7c4.8-15,13.1-17.8,30.1-36.7C91,68.8,83.5,56.7,103.4,45 c22.2-13.1,51.1-9.5,69.6-1.6c18.1,7.8,15.7,15.3,43.3,33.2c28.8,18.8,37.2,14.3,46.7,27.9c15.6,22.3,6.4,53.3,4.4,60.2 c-3.3,11.2-7.1,23.9-18.5,32c-16.3,11.5-29.5,0.7-48.6,11c-16.2,8.7-12.6,19.7-28.2,33.2c-22.7,19.7-63.8,25.7-79.9,9.7 c-15.2-15.1,0.3-41.7-16.6-54.9C63,186,49.7,196.7,37.5,186z" fill="#006ca1" stroke-width="0" transform=" scale(0.138889, 0.138889) translate(360.000000, 936.000000) rotate(135, 144, 144)"/>
  <path d="M37.5,186c-12.1-10.5-11.8-32.3-7.2-46.7c4.8-15,13.1-17.8,30.1-36.7C91,68.8,83.5,56.7,103.4,45 c22.2-13.1,51.1-9.5,69.6-1.6c18.1,7.8,15.7,15.3,43.3,33.2c28.8,18.8,37.2,14.3,46.7,27.9c15.6,22.3,6.4,53.3,4.4,60.2 c-3.3,11.2-7.1,23.9-18.5,32c-16.3,11.5-29.5,0.7-48.6,11c-16.2,8.7-12.6,19.7-28.2,33.2c-22.7,19.7-63.8,25.7-79.9,9.7 c-15.2-15.1,0.3-41.7-16.6-54.9C63,186,49.7,196.7,37.5,186z" fill="#0091d4" stroke-width="0" transform=" scale(0.138889, 0.138889) translate(648.000000, 936.000000) rotate(135, 144, 144)"/>
  <path d="M37.5,186c-12.1-10.5-11.8-32.3-7.2-46.7c4.8-15,13.1-17.8,30.1-36.7C91,68.8,83.5,56.7,103.4,45 c22.2-13.1,51.1-9.5,69.6-1.6c18.1,7.8,15.7,15.3,43.3,33.2c28.8,18.8,37.2,14.3,46.7,27.9c15.6,22.3,6.4,53.3,4.4,60.2 c-3.3,11.2-7.1,23.9-18.5,32c-16.3,11.5-29.5,0.7-48.6,11c-16.2,8.7-12.6,19.7-28.2,33.2c-22.7,19.7-63.8,25.7-79.9,9.7 c-15.2-15.1,0.3-41.7-16.6-54.9C63,186,49.7,196.7,37.5,186z" fill="#07b4ff" stroke-width="0" transform=" scale(0.138889, 0.138889) translate(936.000000, 936.000000) rotate(135, 144, 144)"/>
  <path d="M37.5,186c-12.1-10.5-11.8-32.3-7.2-46.7c4.8-15,13.1-17.8,30.1-36.7C91,68.8,83.5,56.7,103.4,45 c22.2-13.1,51.1-9.5,69.6-1.6c18.1,7.8,15.7,15.3,43.3,33.2c28.8,18.8,37.2,14.3,46.7,27.9c15.6,22.3,6.4,53.3,4.4,60.2 c-3.3,11.2-7.1,23.9-18.5,32c-16.3,11.5-29.5,0.7-48.6,11c-16.2,8.7-12.6,19.7-28.2,33.2c-22.7,19.7-63.8,25.7-79.9,9.7 c-15.2-15.1,0.3-41.7-16.6-54.9C63,186,49.7,196.7,37.5,186z" fill="#07b4ff" stroke-width="0" transform=" scale(0.138889, 0.138889) translate(1224.000000, 936.000000) rotate(135, 144, 144)"/>
  <path d="M37.5,186c-12.1-10.5-11.8-32.3-7.2-46.7c4.8-15,13.1-17.8,30.1-36.7C91,68.8,83.5,56.7,103.4,45 c22.2-13.1,51.1-9.5,69.6-1.6c18.1,7.8,15.7,15.3,43.3,33.2c28.8,18.8,37.2,14.3,46.7,27.9c15.6,22.3,6.4,53.3,4.4,60.2 c-3.3,11.2-7.1,23.9-18.5,32c-16.3,11.5-29.5,0.7-48.6,11c-16.2,8.7-12.6,19.7-28.2,33.2c-22.7,19.7-63.8,25.7-79.9,9.7 c-15.2-15.1,0.3-41.7-16.6-54.9C63,186,49.7,196.7,37.5,186z" fill="#0091d4" stroke-width="0" transform=" scale(0.138889, 0.138889) translate(1512.000000, 936.000000) rotate(135, 144, 144)"/>
  <path d="M37.5,186c-12.1-10.5-11.8-32.3-7.2-46.7c4.8-15,13.1-17.8,30.1-36.7C91,68.8,83.5,56.7,103.4,45 c22.2-13.1,51.1-9.5,69.6-1.6c18.1,7.8,15.7,15.3,43.3,33.2c28.8,18.8,37.2,14.3,46.7,27.9c15.6,22.3,6.4,53.3,4.4,60.2 c-3.3,11.2-7.1,23.9-18.5,32c-16.3,11.5-29.5,0.7-48.6,11c-16.2,8.7-12.6,19.7-28.2,33.2c-22.7,19.7-63.8,25.7-79.9,9.7 c-15.2-15.1,0.3-41.7-16.6-54.9C63,186,49.7,196.7,37.5,186z" fill="#006ca1" stroke-width="0" transform=" scale(0.138889, 0.138889) translate(1800.000000, 936.000000) rotate(135, 144, 144)"/>
  <path d="M37.5,186c-12.1-10.5-11.8-32.3-7.2-46.7c4.8-15,13.1-17.8,30.1-36.7C91,68.8,83.5,56.7,103.4,45 c22.2-13.1,51.1-9.5,69.6-1.6c18.1,7.8,15.7,15.3,43.3,33.2c28.8,18.8,37.2,14.3,46.7,27.9c15.6,22.3,6.4,53.3,4.4,60.2 c-3.3,11.2-7.1,23.9-18.5,32c-16.3,11.5-29.5,0.7-48.6,11c-16.2,8.7-12.6,19.7-28.2,33.2c-22.7,19.7-63.8,25.7-79.9,9.7 c-15.2-15.1,0.3-41.7-16.6-54.9C63,186,49.7,196.7,37.5,186z" fill="#006ca1" stroke-width="0" transform=" scale(0.138889, 0.138889) translate(360.000000, 1224.000000) rotate(135, 144, 144)"/>
  <path d="M37.5,186c-12.1-10.5-11.8-32.3-7.2-46.7c4.8-15,13.1-17.8,30.1-36.7C91,68.8,83.5,56.7,103.4,45 c22.2-13.1,51.1-9.5,69.6-1.6c18.1,7.8,15.7,15.3,43.3,33.2c28.8,18.8,37.2,14.3,46.7,27.9c15.6,22.3,6.4,53.3,4.4,60.2 c-3.3,11.2-7.1,23.9-18.5,32c-16.3,11.5-29.5,0.7-48.6,11c-16.2,8.7-12.6,19.7-28.2,33.2c-22.7,19.7-63.8,25.7-79.9,9.7 c-15.2-15.1,0.3-41.7-16.6-54.9C63,186,49.7,196.7,37.5,186z" fill="#0091d4" stroke-width="0" transform=" scale(0.138889, 0.138889) translate(648.000000, 1224.000000) rotate(135, 144, 144)"/>
  <path d="M37.5,186c-12.1-10.5-11.8-32.3-7.2-46.7c4.8-15,13.1-17.8,30.1-36.7C91,68.8,83.5,56.7,103.4,45 c22.2-13.1,51.1-9.5,69.6-1.6c18.1,7.8,15.7,15.3,43.3,33.2c28.8,18.8,37.2,14.3,46.7,27.9c15.6,22.3,6.4,53.3,4.4,60.2 c-3.3,11.2-7.1,23.9-18.5,32c-16.3,11.5-29.5,0.7-48.6,11c-16.2,8.7-12.6,19.7-28.2,33.2c-22.7,19.7-63.8,25.7-79.9,9.7 c-15.2-15.1,0.3-41.7-16.6-54.9C63,186,49.7,196.7,37.5,186z" fill="#07b4ff" stroke-width="0" transform=" scale(0.138889, 0.138889) translate(936.000000, 1224.000000) rotate(135, 144, 144)"/>
  <path d="M37.5,186c-12.1-10.5-11.8-32.3-7.2-46.7c4.8-15,13.1-17.8,30.1-36.7C91,68.8,83.5,56.7,103.4,45 c22.2-13.1,51.1-9.5,69.6-1.6c18.1,7.8,15.7,15.3,43.3,33.2c28.8,18.8,37.2,14.3,46.7,27.9c15.6,22.3,6.4,53.3,4.4,60.2 c-3.3,11.2-7.1,23.9-18.5,32c-16.3,11.5-29.5,0.7-48.6,11c-16.2,8.7-12.6,19.7-28.2,33.2c-22.7,19.7-63.8,25.7-79.9,9.7 c-15.2-15.1,0.3-41.7-16.6-54.9C63,186,49.7,196.7,37.5,186z" fill="#07b4ff" stroke-width="0" transform=" scale(0.138889, 0.138889) translate(1224.000000, 1224.000000) rotate(135, 144, 144)"/>
  <path d="M37.5,186c-12.1-10.5-11.8-32.3-7.2-46.7c4.8-15,13.1-17.8,30.1-36.7C91,68.8,83.5,56.7,103.4,45 c22.2-13.1,51.1-9.5,69.6-1.6c18.1,7.8,15.7,15.3,43.3,33.2c28.8,18.8,37.2,14.3,46.7,27.9c15.6,22.3,6.4,53.3,4.4,60.2 c-3.3,11.2-7.1,23.9-18.5,32c-16.3,11.5-29.5,0.7-48.6,11c-16.2,8.7-12.6,19.7-28.2,33.2c-22.7,19.7-63.8,25.7-79.9,9.7 c-15.2-15.1,0.3-41.7-16.6-54.9C63,186,49.7,196.7,37.5,186z" fill="#0091d4" stroke-width="0" transform=" scale(0.138889, 0.138889) translate(1512.000000, 1224.000000) rotate(135, 144, 144)"/>
  <path d="M37.5,186c-12.1-10.5-11.8-32.3-7.2-46.7c4.8-15,13.1-17.8,30.1-36.7C91,68.8,83.5,56.7,103.4,45 c22.2-13.1,51.1-9.5,69.6-1.6c18.1,7.8,15.7,15.3,43.3,33.2c28.8,18.8,37.2,14.3,46.7,27.9c15.6,22.3,6.4,53.3,4.4,60.2 c-3.3,11.2-7.1,23.9-18.5,32c-16.3,11.5-29.5,0.7-48.6,11c-16.2,8.7-12.6,19.7-28.2,33.2c-22.7,19.7-63.8,25.7-79.9,9.7 c-15.2-15.1,0.3-41.7-16.6-54.9C63,186,49.7,196.7,37.5,186z" fill="#006ca1" stroke-width="0" transform=" scale(0.138889, 0.138889) translate(1800.000000, 1224.000000) rotate(135, 144, 144)"/>
  <path d="M37.5,186c-12.1-10.5-11.8-32.3-7.2-46.7c4.8-15,13.1-17.8,30.1-36.7C91,68.8,83.5,56.7,103.4,45 c22.2-13.1,51.1-9.5,69.6-1.6c18.1,7.8,15.7,15.3,43.3,33.2c28.8,18.8,37.2,14.3,46.7,27.9c15.6,22.3,6.4,53.3,4.4,60.2 c-3.3,11.2-7.1,23.9-18.5,32c-16.3,11.5-29.5,0.7-48.6,11c-16.2,8.7-12.6,19.7-28.2,33.2c-22.7,19.7-63.8,25.7-79.9,9.7 c-15.2-15.1,0.3-41.7-16.6-54.9C63,186,49.7,196.7,37.5,186z" fill="#006ca1" stroke-width="0" transform=" scale(0.138889, 0.138889) translate(360.000000, 1512.000000) rotate(135, 144, 144)"/>
  <path d="M37.5,186c-12.1-10.5-11.8-32.3-7.2-46.7c4.8-15,13.1-17.8,30.1-36.7C91,68.8,83.5,56.7,103.4,45 c22.2-13.1,51.1-9.5,69.6-1.6c18.1,7.8,15.7,15.3,43.3,33.2c28.8,18.8,37.2,14.3,46.7,27.9c15.6,22.3,6.4,53.3,4.4,60.2 c-3.3,11.2-7.1,23.9-18.5,32c-16.3,11.5-29.5,0.7-48.6,11c-16.2,8.7-12.6,19.7-28.2,33.2c-22.7,19.7-63.8,25.7-79.9,9.7 c-15.2-15.1,0.3-41.7-16.6-54.9C63,186,49.7,196.7,37.5,186z" fill="#0091d4" stroke-width="0" transform=" scale(0.138889, 0.138889) translate(648.000000, 1512.000000) rotate(135, 144, 144)"/>
  <path d="M37.5,186c-12.1-10.5-11.8-32.3-7.2-46.7c4.8-15,13.1-17.8,30.1-36.7C91,68.8,83.5,56.7,103.4,45 c22.2-13.1,51.1-9.5,69.6-1.6c18.1,7.8,15.7,15.3,43.3,33.2c28.8,18.8,37.2,14.3,46.7,27.9c15.6,22.3,6.4,53.3,4.4,60.2 c-3.3,11.2-7.1,23.9-18.5,32c-16.3,11.5-29.5,0.7-48.6,11c-16.2,8.7-12.6,19.7-28.2,33.2c-22.7,19.7-63.8,25.7-79.9,9.7 c-15.2-15.1,0.3-41.7-16.6-54.9C63,186,49.7,196.7,37.5,186z" fill="#07b4ff" stroke-width="0" transform=" scale(0.138889, 0.138889) translate(936.000000, 1512.000000) rotate(135, 144, 144)"/>
  <path d="M37.5,186c-12.1-10.5-11.8-32.3-7.2-46.7c4.8-15,13.1-17.8,30.1-36.7C91,68.8,83.5,56.7,103.4,45 c22.2-13.1,51.1-9.5,69.6-1.6c18.1,7.8,15.7,15.3,43.3,33.2c28.8,18.8,37.2,14.3,46.7,27.9c15.6,22.3,6.4,53.3,4.4,60.2 c-3.3,11.2-7.1,23.9-18.5,32c-16.3,11.5-29.5,0.7-48.6,11c-16.2,8.7-12.6,19.7-28.2,33.2c-22.7,19.7-63.8,25.7-79.9,9.7 c-15.2-15.1,0.3-41.7-16.6-54.9C63,186,49.7,196.7,37.5,186z" fill="#07b4ff" stroke-width="0" transform=" scale(0.138889, 0.138889) translate(1224.000000, 1512.000000) rotate(135, 144, 144)"/>
  <path d="M37.5,186c-12.1-10.5-11.8-32.3-7.2-46.7c4.8-15,13.1-17.8,30.1-36.7C91,68.8,83.5,56.7,103.4,45 c22.2-13.1,51.1-9.5,69.6-1.6c18.1,7.8,15.7,15.3,43.3,33.2c28.8,18.8,37.2,14.3,46.7,27.9c15.6,22.3,6.4,53.3,4.4,60.2 c-3.3,11.2-7.1,23.9-18.5,32c-16.3,11.5-29.5,0.7-48.6,11c-16.2,8.7-12.6,19.7-28.2,33.2c-22.7,19.7-63.8,25.7-79.9,9.7 c-15.2-15.1,0.3-41.7-16.6-54.9C63,186,49.7,196.7,37.5,186z" fill="#0091d4" stroke-width="0" transform=" scale(0.138889, 0.138889) translate(1512.000000, 1512.000000) rotate(135, 144, 144)"/>
  <path d="M37.5,186c-12.1-10.5-11.8-32.3-7.2-46.7c4.8-15,13.1-17.8,30.1-36.7C91,68.8,83.5,56.7,103.4,45 c22.2-13.1,51.1-9.5,69.6-1.6c18.1,7.8,15.7,15.3,43.3,33.2c28.8,18.8,37.2,14.3,46.7,27.9c15.6,22.3,6.4,53.3,4.4,60.2 c-3.3,11.2-7.1,23.9-18.5,32c-16.3,11.5-29.5,0.7-48.6,11c-16.2,8.7-12.6,19.7-28.2,33.2c-22.7,19.7-63.8,25.7-79.9,9.7 c-15.2-15.1,0.3-41.7-16.6-54.9C63,186,49.7,196.7,37.5,186z" fill="#006ca1" stroke-width="0" transform=" scale(0.138889, 0.138889) translate(1800.000000, 1512.000000) rotate(135, 144, 144)"/>
  <path d="M37.5,186c-12.1-10.5-11.8-32.3-7.2-46.7c4.8-15,13.1-17.8,30.1-36.7C91,68.8,83.5,56.7,103.4,45 c22.2-13.1,51.1-9.5,69.6-1.6c18.1,7.8,15.7,15.3,43.3,33.2c28.8,18.8,37.2,14.3,46.7,27.9c15.6,22.3,6.4,53.3,4.4,60.2 c-3.3,11.2-7.1,23.9-18.5,32c-16.3,11.5-29.5,0.7-48.6,11c-16.2,8.7-12.6,19.7-28.2,33.2c-22.7,19.7-63.8,25.7-79.9,9.7 c-15.2-15.1,0.3-41.7-16.6-54.9C63,186,49.7,196.7,37.5,186z" fill="#006ca1" stroke-width="0" transform=" scale(0.138889, 0.138889) translate(360.000000, 1800.000000) rotate(135, 144, 144)"/>
  <path d="M37.5,186c-12.1-10.5-11.8-32.3-7.2-46.7c4.8-15,13.1-17.8,30.1-36.7C91,68.8,83.5,56.7,103.4,45 c22.2-13.1,51.1-9.5,69.6-1.6c18.1,7.8,15.7,15.3,43.3,33.2c28.8,18.8,37.2,14.3,46.7,27.9c15.6,22.3,6.4,53.3,4.4,60.2 c-3.3,11.2-7.1,23.9-18.5,32c-16.3,11.5-29.5,0.7-48.6,11c-16.2,8.7-12.6,19.7-28.2,33.2c-22.7,19.7-63.8,25.7-79.9,9.7 c-15.2-15.1,0.3-41.7-16.6-54.9C63,186,49.7,196.7,37.5,186z" fill="#0091d4" stroke-width="0" transform=" scale(0.138889, 0.138889) translate(648.000000, 1800.000000) rotate(135, 144, 144)"/>
  <path d="M37.5,186c-12.1-10.5-11.8-32.3-7.2-46.7c4.8-15,13.1-17.8,30.1-36.7C91,68.8,83.5,56.7,103.4,45 c22.2-13.1,51.1-9.5,69.6-1.6c18.1,7.8,15.7,15.3,43.3,33.2c28.8,18.8,37.2,14.3,46.7,27.9c15.6,22.3,6.4,53.3,4.4,60.2 c-3.3,11.2-7.1,23.9-18.5,32c-16.3,11.5-29.5,0.7-48.6,11c-16.2,8.7-12.6,19.7-28.2,33.2c-22.7,19.7-63.8,25.7-79.9,9.7 c-15.2-15.1,0.3-41.7-16.6-54.9C63,186,49.7,196.7,37.5,186z" fill="#07b4ff" stroke-width="0" transform=" scale(0.138889, 0.138889) translate(936.000000, 1800.000000) rotate(135, 144, 144)"/>
  <path d="M37.5,186c-12.1-10.5-11.8-32.3-7.2-46.7c4.8-15,13.1-17.8,30.1-36.7C91,68.8,83.5,56.7,103.4,45 c22.2-13.1,51.1-9.5,69.6-1.6c18.1,7.8,15.7,15.3,43.3,33.2c28.8,18.8,37.2,14.3,46.7,27.9c15.6,22.3,6.4,53.3,4.4,60.2 c-3.3,11.2-7.1,23.9-18.5,32c-16.3,11.5-29.5,0.7-48.6,11c-16.2,8.7-12.6,19.7-28.2,33.2c-22.7,19.7-63.8,25.7-79.9,9.7 c-15.2-15.1,0.3-41.7-16.6-54.9C63,186,49.7,196.7,37.5,186z" fill="#07b4ff" stroke-width="0" transform=" scale(0.138889, 0.138889) translate(1224.000000, 1800.000000) rotate(135, 144, 144)"/>
  <path d="M37.5,186c-12.1-10.5-11.8-32.3-7.2-46.7c4.8-15,13.1-17.8,30.1-36.7C91,68.8,83.5,56.7,103.4,45 c22.2-13.1,51.1-9.5,69.6-1.6c18.1,7.8,15.7,15.3,43.3,33.2c28.8,18.8,37.2,14.3,46.7,27.9c15.6,22.3,6.4,53.3,4.4,60.2 c-3.3,11.2-7.1,23.9-18.5,32c-16.3,11.5-29.5,0.7-48.6,11c-16.2,8.7-12.6,19.7-28.2,33.2c-22.7,19.7-63.8,25.7-79.9,9.7 c-15.2-15.1,0.3-41.7-16.6-54.9C63,186,49.7,196.7,37.5,186z" fill="#0091d4" stroke-width="0" transform=" scale(0.138889, 0.138889) translate(1512.000000, 1800.000000) rotate(135, 144, 144)"/>
  <path d="M37.5,186c-12.1-10.5-11.8-32.3-7.2-46.7c4.8-15,13.1-17.8,30.1-36.7C91,68.8,83.5,56.7,103.4,45 c22.2-13.1,51.1-9.5,69.6-1.6c18.1,7.8,15.7,15.3,43.3,33.2c28.8,18.8,37.2,14.3,46.7,27.9c15.6,22.3,6.4,53.3,4.4,60.2 c-3.3,11.2-7.1,23.9-18.5,32c-16.3,11.5-29.5,0.7-48.6,11c-16.2,8.7-12.6,19.7-28.2,33.2c-22.7,19.7-63.8,25.7-79.9,9.7 c-15.2-15.1,0.3-41.7-16.6-54.9C63,186,49.7,196.7,37.5,186z" fill="#006ca1" stroke-width="0" transform=" scale(0.138889, 0.138889) translate(1800.000000, 1800.000000) rotate(135, 144, 144)"/>
</svg>
