<?xml version="1.0" encoding="utf-8" ?>
<svg xmlns="http://www.w3.org/2000/svg" xmlns:ev="http://www.w3.org/2001/xml-events" xmlns:xlink="http://www.w3.org/1999/xlink" baseProfile="full" height="240" version="1.1" width="240">
  <defs/>
  <g transform=" rotate(0, 120, 120)">
    <rect fill="none" height="240" width="240" x="0" y="0"/>
    <ellipse cx="45" cy="45" fill="dodgerblue" opacity="1" rx="25.0" ry="25.0" stroke-width="0" transform=" rotate(0, 45, 45)"/>
    <ellipse cx="95" cy="45" fill="dodgerblue" opacity="1" rx="25.0" ry="25.0" stroke-width="0" transform=" rotate(0, 95, 45)"/>
    <ellipse cx="145" cy="45" fill="dodgerblue" opacity="1" rx="25.0" ry="25.0" stroke-width="0" transform=" rotate(0, 145, 45)"/>
    <ellipse cx="195" cy="45" fill="dodgerblue" opacity="1" rx="25.0" ry="25.0" stroke-width="0" transform=" rotate(0, 195, 45)"/>
    <ellipse cx="45" cy="95" fill="dodgerblue" opacity="1" rx="25.0" ry="25.0" stroke-width="0" transform=" rotate(0, 45, 95)"/>
    <ellipse cx="95" cy="95" fill="dodgerblue" opacity="1" rx="25.0" ry="25.0" stroke-width="0" transform=" rotate(0, 95, 95)"/>
    <ellipse cx="145" cy="95" fill="dodgerblue" opacity="1" rx="25.0" ry="25.0" stroke-width="0" transform=" rotate(0, 145, 95)"/>
    <ellipse cx="195" cy="95" fill="dodgerblue" opacity="1" rx="25.0" ry="25.0" stroke-width="0" transform=" rotate(0, 195, 95)"/>
    <ellipse cx="45" cy="145" fill="dodgerblue" opacity="1" rx="25.0" ry="25.0" stroke-width="0" transform=" rotate(0, 45, 145)"/>
    <path d="M 37.5,186 C 25.4,175.5 25.7,153.7 30.3,139.3 C 35.1,124.3 43.4,121.5 60.4,102.6 C 91,68.8 83.5,56.7 103.4,45 C 125.6,31.9 154.5,35.5 173,43.4 C 191.1,51.2 188.7,58.7 216.3,76.6 C 245.1,95.4 253.5,90.9 263,104.5 C 278.6,126.8 269.4,157.8 267.4,164.7 C 264.1,175.9 260.3,188.6 248.9,196.7 C 232.6,208.2 219.4,197.4 200.3,207.7 C 184.1,216.4 187.7,227.4 172.1,240.9 C 149.4,260.6 108.3,266.6 92.2,250.6 C 77,235.5 92.5,208.9 75.6,195.7 C 63,186 49.7,196.7 37.5,186 Z" fill="dodgerblue" opacity="1" stroke-width="0" transform=" scale(0.173611, 0.173611) translate(403.200000, 691.200000) rotate(0, 144, 144)"/>
    <a onmouseout="audio.pause(); try { audio.currentTime=0; } catch(e) {} audio.loop=false;" onmouseover="audio = new Audio('audio/welldoneCCBY3.ogg'); audio.play(); audio.loop=true;" target="_blank" xlink:href="#">
      <ellipse cx="145" cy="145" fill="dodgerblue" opacity="1" rx="24.0" ry="25.0" stroke-width="0" transform=" rotate(0, 145, 145)">
        <set attributeName="fill" begin="click" dur="2s" to="purple;red;green"/>
      </ellipse>
    </a>
    <ellipse cx="195" cy="145" fill="dodgerblue" opacity="1" rx="25.0" ry="25.0" stroke-width="0" transform=" rotate(0, 195, 145)"/>
    <ellipse cx="45" cy="195" fill="dodgerblue" opacity="1" rx="25.0" ry="25.0" stroke-width="0" transform=" rotate(0, 45, 195)"/>
    <ellipse cx="95" cy="195" fill="dodgerblue" opacity="1" rx="25.0" ry="25.0" stroke-width="0" transform=" rotate(0, 95, 195)"/>
    <ellipse cx="145" cy="195" fill="dodgerblue" opacity="1" rx="25.0" ry="25.0" stroke-width="0" transform=" rotate(0, 145, 195)"/>
    <ellipse cx="195" cy="195" fill="dodgerblue" opacity="1" rx="25.0" ry="25.0" stroke-width="0" transform=" rotate(0, 195, 195)"/>
  </g>
  <a onmouseout="audio.pause(); try { audio.currentTime=0; } catch(e) {} audio.loop=false;" onmouseover="audio = new Audio('audio/welldoneCCBY3.ogg'); audio.play(); audio.loop=true;" target="_blank" xlink:href="#">
    <ellipse cx="145" cy="145" fill="dodgerblue" opacity="1" rx="24.0" ry="25.0" stroke-width="0" transform=" rotate(0, 145, 145)">
      <set attributeName="fill" begin="click" dur="2s" to="purple;red;green"/>
    </ellipse>
  </a>
</svg>
