<?xml version="1.0" encoding="utf-8" ?>
<svg xmlns="http://www.w3.org/2000/svg" xmlns:ev="http://www.w3.org/2001/xml-events" xmlns:xlink="http://www.w3.org/1999/xlink" baseProfile="full" height="1050" version="1.1" width="1050">
  <defs>
    <clipPath id="custom_clip_path">
      <ellipse cx="525.0" cy="525.0" fill="gray" opacity="1" rx="525.0" ry="525.0" stroke="green" stroke-width="4" transform=" rotate(0, 525, 525)"/>
    </clipPath>
  </defs>
  <g clip-path="url(#custom_clip_path)" transform=" rotate(0, 525, 525)">
    <rect fill="lightgrey" height="1050" width="1050" x="0" y="0"/>
    <rect fill="#1b9fd8" height="30" opacity="1" stroke-width="0" transform=" rotate(0, 225, 225)" width="30" x="210.0" y="210.0"/>
    <polygon fill="#6dd6ff" opacity="1" points="330.0,240.0 345.0,210.0 360.0,240.0" stroke-width="0" transform=" rotate(0, 345, 225)"/>
    <ellipse cx="465.0" cy="225.0" fill="#006ca1" opacity="1" rx="15.0" ry="15.0" stroke-width="0" transform=" rotate(0, 465, 225)"/>
    <rect fill="#1b9fd8" height="30" opacity="1" stroke-width="0" transform=" rotate(0, 585, 225)" width="30" x="570.0" y="210.0"/>
    <polygon fill="#6dd6ff" opacity="1" points="690.0,240.0 705.0,210.0 720.0,240.0" stroke-width="0" transform=" rotate(0, 705, 225)"/>
    <ellipse cx="825.0" cy="225.0" fill="#006ca1" opacity="1" rx="15.0" ry="15.0" stroke-width="0" transform=" rotate(0, 825, 225)"/>
    <rect fill="#1b9fd8" height="30" opacity="1" stroke-width="0" transform=" rotate(0, 225, 345)" width="30" x="210.0" y="330.0"/>
    <polygon fill="#6dd6ff" opacity="1" points="330.0,360.0 345.0,330.0 360.0,360.0" stroke-width="0" transform=" rotate(0, 345, 345)"/>
    <ellipse cx="465.0" cy="345.0" fill="#006ca1" opacity="1" rx="15.0" ry="15.0" stroke-width="0" transform=" rotate(0, 465, 345)"/>
    <rect fill="#1b9fd8" height="30" opacity="1" stroke-width="0" transform=" rotate(0, 585, 345)" width="30" x="570.0" y="330.0"/>
    <polygon fill="#6dd6ff" opacity="1" points="690.0,360.0 705.0,330.0 720.0,360.0" stroke-width="0" transform=" rotate(0, 705, 345)"/>
    <ellipse cx="825.0" cy="345.0" fill="#006ca1" opacity="1" rx="15.0" ry="15.0" stroke-width="0" transform=" rotate(0, 825, 345)"/>
    <rect fill="#1b9fd8" height="30" opacity="1" stroke-width="0" transform=" rotate(0, 225, 465)" width="30" x="210.0" y="450.0"/>
    <polygon fill="#6dd6ff" opacity="1" points="330.0,480.0 345.0,450.0 360.0,480.0" stroke-width="0" transform=" rotate(0, 345, 465)"/>
    <ellipse cx="465.0" cy="465.0" fill="#006ca1" opacity="1" rx="15.0" ry="15.0" stroke-width="0" transform=" rotate(0, 465, 465)"/>
    <rect fill="#1b9fd8" height="30" opacity="1" stroke-width="0" transform=" rotate(0, 585, 465)" width="30" x="570.0" y="450.0"/>
    <polygon fill="#6dd6ff" opacity="1" points="690.0,480.0 705.0,450.0 720.0,480.0" stroke-width="0" transform=" rotate(0, 705, 465)"/>
    <ellipse cx="825.0" cy="465.0" fill="#006ca1" opacity="1" rx="15.0" ry="15.0" stroke-width="0" transform=" rotate(0, 825, 465)"/>
    <rect fill="#1b9fd8" height="30" opacity="1" stroke-width="0" transform=" rotate(0, 225, 585)" width="30" x="210.0" y="570.0"/>
    <polygon fill="#6dd6ff" opacity="1" points="330.0,600.0 345.0,570.0 360.0,600.0" stroke-width="0" transform=" rotate(0, 345, 585)"/>
    <ellipse cx="465.0" cy="585.0" fill="#006ca1" opacity="1" rx="15.0" ry="15.0" stroke-width="0" transform=" rotate(0, 465, 585)"/>
    <rect fill="#1b9fd8" height="30" opacity="1" stroke-width="0" transform=" rotate(0, 585, 585)" width="30" x="570.0" y="570.0"/>
    <polygon fill="#6dd6ff" opacity="1" points="690.0,600.0 705.0,570.0 720.0,600.0" stroke-width="0" transform=" rotate(0, 705, 585)"/>
    <ellipse cx="825.0" cy="585.0" fill="#006ca1" opacity="1" rx="15.0" ry="15.0" stroke-width="0" transform=" rotate(0, 825, 585)"/>
    <rect fill="#1b9fd8" height="30" opacity="1" stroke-width="0" transform=" rotate(0, 225, 705)" width="30" x="210.0" y="690.0"/>
    <polygon fill="#6dd6ff" opacity="1" points="330.0,720.0 345.0,690.0 360.0,720.0" stroke-width="0" transform=" rotate(0, 345, 705)"/>
    <ellipse cx="465.0" cy="705.0" fill="#006ca1" opacity="1" rx="15.0" ry="15.0" stroke-width="0" transform=" rotate(0, 465, 705)"/>
    <rect fill="#1b9fd8" height="30" opacity="1" stroke-width="0" transform=" rotate(0, 585, 705)" width="30" x="570.0" y="690.0"/>
    <polygon fill="#6dd6ff" opacity="1" points="690.0,720.0 705.0,690.0 720.0,720.0" stroke-width="0" transform=" rotate(0, 705, 705)"/>
    <ellipse cx="825.0" cy="705.0" fill="#006ca1" opacity="1" rx="15.0" ry="15.0" stroke-width="0" transform=" rotate(0, 825, 705)"/>
    <rect fill="#1b9fd8" height="30" opacity="1" stroke-width="0" transform=" rotate(0, 225, 825)" width="30" x="210.0" y="810.0"/>
    <polygon fill="#6dd6ff" opacity="1" points="330.0,840.0 345.0,810.0 360.0,840.0" stroke-width="0" transform=" rotate(0, 345, 825)"/>
    <ellipse cx="465.0" cy="825.0" fill="#006ca1" opacity="1" rx="15.0" ry="15.0" stroke-width="0" transform=" rotate(0, 465, 825)"/>
    <rect fill="#1b9fd8" height="30" opacity="1" stroke-width="0" transform=" rotate(0, 585, 825)" width="30" x="570.0" y="810.0"/>
    <polygon fill="#6dd6ff" opacity="1" points="690.0,840.0 705.0,810.0 720.0,840.0" stroke-width="0" transform=" rotate(0, 705, 825)"/>
    <ellipse cx="825.0" cy="825.0" fill="#006ca1" opacity="1" rx="15.0" ry="15.0" stroke-width="0" transform=" rotate(0, 825, 825)"/>
  </g>
</svg>
