<?xml version="1.0" encoding="utf-8" ?>
<svg xmlns="http://www.w3.org/2000/svg" xmlns:ev="http://www.w3.org/2001/xml-events" xmlns:xlink="http://www.w3.org/1999/xlink" baseProfile="full" height="389" version="1.1" width="389">
  <defs/>
  <g transform=" rotate(45, 194, 194)">
    <rect fill="white" height="389" width="389" x="0" y="0"/>
    <polygon fill="black" opacity="1" points="82.0,59.5 59.5,82.0 82.0,104.5 104.5,82.0" stroke-width="0" transform=" rotate(0, 82, 82)"/>
    <polygon fill="black" opacity="1" points="127.0,59.5 104.5,82.0 127.0,104.5 149.5,82.0" stroke-width="0" transform=" rotate(0, 127, 82)"/>
    <polygon fill="black" opacity="1" points="172.0,59.5 149.5,82.0 172.0,104.5 194.5,82.0" stroke-width="0" transform=" rotate(0, 172, 82)"/>
    <polygon fill="black" opacity="1" points="217.0,59.5 194.5,82.0 217.0,104.5 239.5,82.0" stroke-width="0" transform=" rotate(0, 217, 82)"/>
    <polygon fill="black" opacity="1" points="262.0,59.5 239.5,82.0 262.0,104.5 284.5,82.0" stroke-width="0" transform=" rotate(0, 262, 82)"/>
    <polygon fill="black" opacity="1" points="307.0,59.5 284.5,82.0 307.0,104.5 329.5,82.0" stroke-width="0" transform=" rotate(0, 307, 82)"/>
    <polygon fill="black" opacity="1" points="82.0,104.5 59.5,127.0 82.0,149.5 104.5,127.0" stroke-width="0" transform=" rotate(0, 82, 127)"/>
    <polygon fill="black" opacity="1" points="127.0,104.5 104.5,127.0 127.0,149.5 149.5,127.0" stroke-width="0" transform=" rotate(0, 127, 127)"/>
    <polygon fill="black" opacity="1" points="172.0,104.5 149.5,127.0 172.0,149.5 194.5,127.0" stroke-width="0" transform=" rotate(0, 172, 127)"/>
    <polygon fill="black" opacity="1" points="217.0,104.5 194.5,127.0 217.0,149.5 239.5,127.0" stroke-width="0" transform=" rotate(0, 217, 127)"/>
    <polygon fill="black" opacity="1" points="262.0,104.5 239.5,127.0 262.0,149.5 284.5,127.0" stroke-width="0" transform=" rotate(0, 262, 127)"/>
    <polygon fill="black" opacity="1" points="307.0,104.5 284.5,127.0 307.0,149.5 329.5,127.0" stroke-width="0" transform=" rotate(0, 307, 127)"/>
    <polygon fill="black" opacity="1" points="82.0,149.5 59.5,172.0 82.0,194.5 104.5,172.0" stroke-width="0" transform=" rotate(0, 82, 172)"/>
    <polygon fill="black" opacity="1" points="127.0,149.5 104.5,172.0 127.0,194.5 149.5,172.0" stroke-width="0" transform=" rotate(0, 127, 172)"/>
    <polygon fill="black" opacity="1" points="172.0,149.5 149.5,172.0 172.0,194.5 194.5,172.0" stroke-width="0" transform=" rotate(0, 172, 172)"/>
    <polygon fill="black" opacity="1" points="217.0,149.5 194.5,172.0 217.0,194.5 239.5,172.0" stroke-width="0" transform=" rotate(0, 217, 172)"/>
    <polygon fill="black" opacity="1" points="262.0,149.5 239.5,172.0 262.0,194.5 284.5,172.0" stroke-width="0" transform=" rotate(0, 262, 172)"/>
    <polygon fill="black" opacity="1" points="307.0,149.5 284.5,172.0 307.0,194.5 329.5,172.0" stroke-width="0" transform=" rotate(0, 307, 172)"/>
    <polygon fill="black" opacity="1" points="82.0,194.5 59.5,217.0 82.0,239.5 104.5,217.0" stroke-width="0" transform=" rotate(0, 82, 217)"/>
    <polygon fill="black" opacity="1" points="127.0,194.5 104.5,217.0 127.0,239.5 149.5,217.0" stroke-width="0" transform=" rotate(0, 127, 217)"/>
    <polygon fill="black" opacity="1" points="172.0,194.5 149.5,217.0 172.0,239.5 194.5,217.0" stroke-width="0" transform=" rotate(0, 172, 217)"/>
    <polygon fill="black" opacity="1" points="217.0,194.5 194.5,217.0 217.0,239.5 239.5,217.0" stroke-width="0" transform=" rotate(0, 217, 217)"/>
    <polygon fill="black" opacity="1" points="262.0,194.5 239.5,217.0 262.0,239.5 284.5,217.0" stroke-width="0" transform=" rotate(0, 262, 217)"/>
    <polygon fill="black" opacity="1" points="307.0,194.5 284.5,217.0 307.0,239.5 329.5,217.0" stroke-width="0" transform=" rotate(0, 307, 217)"/>
    <polygon fill="black" opacity="1" points="82.0,239.5 59.5,262.0 82.0,284.5 104.5,262.0" stroke-width="0" transform=" rotate(0, 82, 262)"/>
    <polygon fill="black" opacity="1" points="127.0,239.5 104.5,262.0 127.0,284.5 149.5,262.0" stroke-width="0" transform=" rotate(0, 127, 262)"/>
    <polygon fill="black" opacity="1" points="172.0,239.5 149.5,262.0 172.0,284.5 194.5,262.0" stroke-width="0" transform=" rotate(0, 172, 262)"/>
    <polygon fill="black" opacity="1" points="217.0,239.5 194.5,262.0 217.0,284.5 239.5,262.0" stroke-width="0" transform=" rotate(0, 217, 262)"/>
    <polygon fill="black" opacity="1" points="262.0,239.5 239.5,262.0 262.0,284.5 284.5,262.0" stroke-width="0" transform=" rotate(0, 262, 262)"/>
    <polygon fill="black" opacity="1" points="307.0,239.5 284.5,262.0 307.0,284.5 329.5,262.0" stroke-width="0" transform=" rotate(0, 307, 262)"/>
    <polygon fill="black" opacity="1" points="82.0,284.5 59.5,307.0 82.0,329.5 104.5,307.0" stroke-width="0" transform=" rotate(0, 82, 307)"/>
    <polygon fill="black" opacity="1" points="127.0,284.5 104.5,307.0 127.0,329.5 149.5,307.0" stroke-width="0" transform=" rotate(0, 127, 307)"/>
    <polygon fill="black" opacity="1" points="172.0,284.5 149.5,307.0 172.0,329.5 194.5,307.0" stroke-width="0" transform=" rotate(0, 172, 307)"/>
    <polygon fill="black" opacity="1" points="217.0,284.5 194.5,307.0 217.0,329.5 239.5,307.0" stroke-width="0" transform=" rotate(0, 217, 307)"/>
    <polygon fill="black" opacity="1" points="262.0,284.5 239.5,307.0 262.0,329.5 284.5,307.0" stroke-width="0" transform=" rotate(0, 262, 307)"/>
    <polygon fill="black" opacity="1" points="307.0,284.5 284.5,307.0 307.0,329.5 329.5,307.0" stroke-width="0" transform=" rotate(0, 307, 307)"/>
  </g>
</svg>
