<?xml version="1.0" encoding="utf-8" ?>
<svg baseProfile="tiny" height="320" version="1.2" width="320" xmlns="http://www.w3.org/2000/svg" xmlns:ev="http://www.w3.org/2001/xml-events" xmlns:xlink="http://www.w3.org/1999/xlink">
  <defs>
    <radialGradient id="id411">
      <stop offset="0.0" stop-color="white"/>
      <stop offset="1.0" stop-color="red"/>
    </radialGradient>
    <radialGradient id="id412">
      <stop offset="0.0" stop-color="white"/>
      <stop offset="1.0" stop-color="red"/>
    </radialGradient>
    <radialGradient id="id413">
      <stop offset="0.0" stop-color="white"/>
      <stop offset="1.0" stop-color="red"/>
    </radialGradient>
    <radialGradient id="id414">
      <stop offset="0.0" stop-color="white"/>
      <stop offset="1.0" stop-color="red"/>
    </radialGradient>
    <radialGradient id="id415">
      <stop offset="0.0" stop-color="white"/>
      <stop offset="1.0" stop-color="red"/>
    </radialGradient>
    <linearGradient id="id416" x1="0" x2="1" y1="0" y2="0">
      <stop offset="0.0" stop-color="red"/>
      <stop offset="0.2" stop-color="orange"/>
      <stop offset="0.4" stop-color="green"/>
      <stop offset="0.6" stop-color="blue"/>
      <stop offset="0.8" stop-color="indigo"/>
      <stop offset="1.0" stop-color="violet"/>
    </linearGradient>
    <linearGradient id="id417" x1="0" x2="1" y1="0" y2="0">
      <stop offset="0.0" stop-color="red"/>
      <stop offset="0.2" stop-color="orange"/>
      <stop offset="0.4" stop-color="green"/>
      <stop offset="0.6" stop-color="blue"/>
      <stop offset="0.8" stop-color="indigo"/>
      <stop offset="1.0" stop-color="violet"/>
    </linearGradient>
    <linearGradient id="id418" x1="0" x2="1" y1="0" y2="0">
      <stop offset="0.0" stop-color="red"/>
      <stop offset="0.2" stop-color="orange"/>
      <stop offset="0.4" stop-color="green"/>
      <stop offset="0.6" stop-color="blue"/>
      <stop offset="0.8" stop-color="indigo"/>
      <stop offset="1.0" stop-color="violet"/>
    </linearGradient>
    <linearGradient id="id419" x1="0" x2="1" y1="0" y2="0">
      <stop offset="0.0" stop-color="red"/>
      <stop offset="0.2" stop-color="orange"/>
      <stop offset="0.4" stop-color="green"/>
      <stop offset="0.6" stop-color="blue"/>
      <stop offset="0.8" stop-color="indigo"/>
      <stop offset="1.0" stop-color="violet"/>
    </linearGradient>
    <linearGradient id="id420" x1="0" x2="1" y1="0" y2="0">
      <stop offset="0.0" stop-color="red"/>
      <stop offset="0.2" stop-color="orange"/>
      <stop offset="0.4" stop-color="green"/>
      <stop offset="0.6" stop-color="blue"/>
      <stop offset="0.8" stop-color="indigo"/>
      <stop offset="1.0" stop-color="violet"/>
    </linearGradient>
    <linearGradient id="id421" x1="0" x2="0" y1="0" y2="1">
      <stop offset="0.0" stop-color="green"/>
      <stop offset="0.5" stop-color="white"/>
      <stop offset="1.0" stop-color="green"/>
    </linearGradient>
    <linearGradient id="id422" x1="0" x2="0" y1="0" y2="1">
      <stop offset="0.0" stop-color="green"/>
      <stop offset="0.5" stop-color="white"/>
      <stop offset="1.0" stop-color="green"/>
    </linearGradient>
    <linearGradient id="id423" x1="0" x2="0" y1="0" y2="1">
      <stop offset="0.0" stop-color="green"/>
      <stop offset="0.5" stop-color="white"/>
      <stop offset="1.0" stop-color="green"/>
    </linearGradient>
    <linearGradient id="id424" x1="0" x2="0" y1="0" y2="1">
      <stop offset="0.0" stop-color="green"/>
      <stop offset="0.5" stop-color="white"/>
      <stop offset="1.0" stop-color="green"/>
    </linearGradient>
    <linearGradient id="id425" x1="0" x2="0" y1="0" y2="1">
      <stop offset="0.0" stop-color="green"/>
      <stop offset="0.5" stop-color="white"/>
      <stop offset="1.0" stop-color="green"/>
    </linearGradient>
    <linearGradient id="id426" x1="0" x2="1" y1="0" y2="1">
      <stop offset="0.0" stop-color="red"/>
      <stop offset="1.0" stop-color="white"/>
    </linearGradient>
    <linearGradient id="id427" x1="0" x2="1" y1="0" y2="1">
      <stop offset="0.0" stop-color="red"/>
      <stop offset="1.0" stop-color="white"/>
    </linearGradient>
    <linearGradient id="id428" x1="0" x2="1" y1="0" y2="1">
      <stop offset="0.0" stop-color="red"/>
      <stop offset="1.0" stop-color="white"/>
    </linearGradient>
    <linearGradient id="id429" x1="0" x2="1" y1="0" y2="1">
      <stop offset="0.0" stop-color="red"/>
      <stop offset="1.0" stop-color="white"/>
    </linearGradient>
    <linearGradient id="id430" x1="0" x2="1" y1="0" y2="1">
      <stop offset="0.0" stop-color="red"/>
      <stop offset="1.0" stop-color="white"/>
    </linearGradient>
  </defs>
  <rect fill="lightgrey" height="320" width="320" x="0" y="0"/>
  <ellipse cx="40" cy="40" fill="dodgerblue" rx="20.0" ry="20.0" stroke="url(#id411) none" stroke-width="10" transform=" rotate(0, 40, 40)"/>
  <ellipse cx="100" cy="40" fill="dodgerblue" rx="20.0" ry="20.0" stroke="url(#id412) none" stroke-width="10" transform=" rotate(0, 100, 40)"/>
  <ellipse cx="160" cy="40" fill="dodgerblue" rx="20.0" ry="20.0" stroke="url(#id413) none" stroke-width="10" transform=" rotate(0, 160, 40)"/>
  <ellipse cx="220" cy="40" fill="dodgerblue" rx="20.0" ry="20.0" stroke="url(#id414) none" stroke-width="10" transform=" rotate(0, 220, 40)"/>
  <ellipse cx="280" cy="40" fill="dodgerblue" rx="20.0" ry="20.0" stroke="url(#id415) none" stroke-width="10" transform=" rotate(0, 280, 40)"/>
  <ellipse cx="40" cy="100" fill="dodgerblue" rx="20.0" ry="20.0" stroke="url(#id416) none" stroke-width="10" transform=" rotate(0, 40, 100)"/>
  <ellipse cx="100" cy="100" fill="dodgerblue" rx="20.0" ry="20.0" stroke="url(#id417) none" stroke-width="10" transform=" rotate(0, 100, 100)"/>
  <ellipse cx="160" cy="100" fill="dodgerblue" rx="20.0" ry="20.0" stroke="url(#id418) none" stroke-width="10" transform=" rotate(0, 160, 100)"/>
  <ellipse cx="220" cy="100" fill="dodgerblue" rx="20.0" ry="20.0" stroke="url(#id419) none" stroke-width="10" transform=" rotate(0, 220, 100)"/>
  <ellipse cx="280" cy="100" fill="dodgerblue" rx="20.0" ry="20.0" stroke="url(#id420) none" stroke-width="10" transform=" rotate(0, 280, 100)"/>
  <ellipse cx="40" cy="160" fill="dodgerblue" rx="20.0" ry="20.0" stroke="green" stroke-width="0" transform=" rotate(0, 40, 160)"/>
  <ellipse cx="100" cy="160" fill="dodgerblue" rx="20.0" ry="20.0" stroke="green" stroke-width="0" transform=" rotate(0, 100, 160)"/>
  <ellipse cx="160" cy="160" fill="dodgerblue" rx="20.0" ry="20.0" stroke="green" stroke-width="0" transform=" rotate(0, 160, 160)"/>
  <ellipse cx="220" cy="160" fill="dodgerblue" rx="20.0" ry="20.0" stroke="green" stroke-width="0" transform=" rotate(0, 220, 160)"/>
  <ellipse cx="280" cy="160" fill="dodgerblue" rx="20.0" ry="20.0" stroke="green" stroke-width="0" transform=" rotate(0, 280, 160)"/>
  <ellipse cx="40" cy="220" fill="dodgerblue" rx="20.0" ry="20.0" stroke="url(#id421) none" stroke-width="10" transform=" rotate(0, 40, 220)"/>
  <ellipse cx="100" cy="220" fill="dodgerblue" rx="20.0" ry="20.0" stroke="url(#id422) none" stroke-width="10" transform=" rotate(0, 100, 220)"/>
  <ellipse cx="160" cy="220" fill="dodgerblue" rx="20.0" ry="20.0" stroke="url(#id423) none" stroke-width="10" transform=" rotate(0, 160, 220)"/>
  <ellipse cx="220" cy="220" fill="dodgerblue" rx="20.0" ry="20.0" stroke="url(#id424) none" stroke-width="10" transform=" rotate(0, 220, 220)"/>
  <ellipse cx="280" cy="220" fill="dodgerblue" rx="20.0" ry="20.0" stroke="url(#id425) none" stroke-width="10" transform=" rotate(0, 280, 220)"/>
  <ellipse cx="40" cy="280" fill="dodgerblue" rx="20.0" ry="20.0" stroke="url(#id426) none" stroke-width="10" transform=" rotate(0, 40, 280)"/>
  <ellipse cx="100" cy="280" fill="dodgerblue" rx="20.0" ry="20.0" stroke="url(#id427) none" stroke-width="10" transform=" rotate(0, 100, 280)"/>
  <ellipse cx="160" cy="280" fill="dodgerblue" rx="20.0" ry="20.0" stroke="url(#id428) none" stroke-width="10" transform=" rotate(0, 160, 280)"/>
  <ellipse cx="220" cy="280" fill="dodgerblue" rx="20.0" ry="20.0" stroke="url(#id429) none" stroke-width="10" transform=" rotate(0, 220, 280)"/>
  <ellipse cx="280" cy="280" fill="dodgerblue" rx="20.0" ry="20.0" stroke="url(#id430) none" stroke-width="10" transform=" rotate(0, 280, 280)"/>
</svg>
