<?xml version="1.0" encoding="utf-8" ?>
<svg baseProfile="tiny" height="324" version="1.2" width="324" xmlns="http://www.w3.org/2000/svg" xmlns:ev="http://www.w3.org/2001/xml-events" xmlns:xlink="http://www.w3.org/1999/xlink">
  <defs>
    <radialGradient id="id392">
      <stop offset="0.0" stop-color="white"/>
      <stop offset="1.0" stop-color="red"/>
    </radialGradient>
    <radialGradient id="id393">
      <stop offset="0.0" stop-color="white"/>
      <stop offset="1.0" stop-color="red"/>
    </radialGradient>
    <radialGradient id="id394">
      <stop offset="0.0" stop-color="white"/>
      <stop offset="1.0" stop-color="red"/>
    </radialGradient>
    <radialGradient id="id395">
      <stop offset="0.0" stop-color="white"/>
      <stop offset="1.0" stop-color="red"/>
    </radialGradient>
    <radialGradient id="id396">
      <stop offset="0.0" stop-color="white"/>
      <stop offset="1.0" stop-color="red"/>
    </radialGradient>
    <linearGradient id="id397" x1="0" x2="1" y1="0" y2="0">
      <stop offset="0.0" stop-color="red"/>
      <stop offset="0.2" stop-color="orange"/>
      <stop offset="0.4" stop-color="green"/>
      <stop offset="0.6" stop-color="blue"/>
      <stop offset="0.8" stop-color="indigo"/>
      <stop offset="1.0" stop-color="violet"/>
    </linearGradient>
    <linearGradient id="id398" x1="0" x2="1" y1="0" y2="0">
      <stop offset="0.0" stop-color="red"/>
      <stop offset="0.2" stop-color="orange"/>
      <stop offset="0.4" stop-color="green"/>
      <stop offset="0.6" stop-color="blue"/>
      <stop offset="0.8" stop-color="indigo"/>
      <stop offset="1.0" stop-color="violet"/>
    </linearGradient>
    <linearGradient id="id399" x1="0" x2="1" y1="0" y2="0">
      <stop offset="0.0" stop-color="red"/>
      <stop offset="0.2" stop-color="orange"/>
      <stop offset="0.4" stop-color="green"/>
      <stop offset="0.6" stop-color="blue"/>
      <stop offset="0.8" stop-color="indigo"/>
      <stop offset="1.0" stop-color="violet"/>
    </linearGradient>
    <linearGradient id="id400" x1="0" x2="1" y1="0" y2="0">
      <stop offset="0.0" stop-color="red"/>
      <stop offset="0.2" stop-color="orange"/>
      <stop offset="0.4" stop-color="green"/>
      <stop offset="0.6" stop-color="blue"/>
      <stop offset="0.8" stop-color="indigo"/>
      <stop offset="1.0" stop-color="violet"/>
    </linearGradient>
    <linearGradient id="id401" x1="0" x2="1" y1="0" y2="0">
      <stop offset="0.0" stop-color="red"/>
      <stop offset="0.2" stop-color="orange"/>
      <stop offset="0.4" stop-color="green"/>
      <stop offset="0.6" stop-color="blue"/>
      <stop offset="0.8" stop-color="indigo"/>
      <stop offset="1.0" stop-color="violet"/>
    </linearGradient>
    <linearGradient id="id402" x1="0" x2="0" y1="0" y2="1">
      <stop offset="0.0" stop-color="green"/>
      <stop offset="0.5" stop-color="white"/>
      <stop offset="1.0" stop-color="green"/>
    </linearGradient>
    <linearGradient id="id403" x1="0" x2="0" y1="0" y2="1">
      <stop offset="0.0" stop-color="green"/>
      <stop offset="0.5" stop-color="white"/>
      <stop offset="1.0" stop-color="green"/>
    </linearGradient>
    <linearGradient id="id404" x1="0" x2="0" y1="0" y2="1">
      <stop offset="0.0" stop-color="green"/>
      <stop offset="0.5" stop-color="white"/>
      <stop offset="1.0" stop-color="green"/>
    </linearGradient>
    <linearGradient id="id405" x1="0" x2="0" y1="0" y2="1">
      <stop offset="0.0" stop-color="green"/>
      <stop offset="0.5" stop-color="white"/>
      <stop offset="1.0" stop-color="green"/>
    </linearGradient>
    <linearGradient id="id406" x1="0" x2="0" y1="0" y2="1">
      <stop offset="0.0" stop-color="green"/>
      <stop offset="0.5" stop-color="white"/>
      <stop offset="1.0" stop-color="green"/>
    </linearGradient>
    <linearGradient id="id407" x1="0" x2="1" y1="0" y2="1">
      <stop offset="0.0" stop-color="red"/>
      <stop offset="1.0" stop-color="white"/>
    </linearGradient>
    <linearGradient id="id408" x1="0" x2="1" y1="0" y2="1">
      <stop offset="0.0" stop-color="red"/>
      <stop offset="1.0" stop-color="white"/>
    </linearGradient>
    <linearGradient id="id409" x1="0" x2="1" y1="0" y2="1">
      <stop offset="0.0" stop-color="red"/>
      <stop offset="1.0" stop-color="white"/>
    </linearGradient>
    <linearGradient id="id410" x1="0" x2="1" y1="0" y2="1">
      <stop offset="0.0" stop-color="red"/>
      <stop offset="1.0" stop-color="white"/>
    </linearGradient>
    <linearGradient id="id411" x1="0" x2="1" y1="0" y2="1">
      <stop offset="0.0" stop-color="red"/>
      <stop offset="1.0" stop-color="white"/>
    </linearGradient>
  </defs>
  <rect fill="lightgrey" height="324" width="324" x="0" y="0"/>
  <ellipse cx="42" cy="42" fill="url(#id392) none" rx="22.5" ry="22.5" stroke-width="0" transform=" rotate(0, 42, 42)"/>
  <ellipse cx="102" cy="42" fill="url(#id393) none" rx="22.5" ry="22.5" stroke-width="0" transform=" rotate(0, 102, 42)"/>
  <ellipse cx="162" cy="42" fill="url(#id394) none" rx="22.5" ry="22.5" stroke-width="0" transform=" rotate(0, 162, 42)"/>
  <ellipse cx="222" cy="42" fill="url(#id395) none" rx="22.5" ry="22.5" stroke-width="0" transform=" rotate(0, 222, 42)"/>
  <ellipse cx="282" cy="42" fill="url(#id396) none" rx="22.5" ry="22.5" stroke-width="0" transform=" rotate(0, 282, 42)"/>
  <ellipse cx="42" cy="102" fill="green" rx="22.5" ry="22.5" stroke-width="0" transform=" rotate(0, 42, 102)"/>
  <ellipse cx="102" cy="102" fill="green" rx="22.5" ry="22.5" stroke-width="0" transform=" rotate(0, 102, 102)"/>
  <ellipse cx="162" cy="102" fill="green" rx="22.5" ry="22.5" stroke-width="0" transform=" rotate(0, 162, 102)"/>
  <ellipse cx="222" cy="102" fill="green" rx="22.5" ry="22.5" stroke-width="0" transform=" rotate(0, 222, 102)"/>
  <ellipse cx="282" cy="102" fill="green" rx="22.5" ry="22.5" stroke-width="0" transform=" rotate(0, 282, 102)"/>
  <ellipse cx="42" cy="162" fill="url(#id397) none" rx="22.5" ry="22.5" stroke-width="0" transform=" rotate(0, 42, 162)"/>
  <ellipse cx="102" cy="162" fill="url(#id398) none" rx="22.5" ry="22.5" stroke-width="0" transform=" rotate(0, 102, 162)"/>
  <ellipse cx="162" cy="162" fill="url(#id399) none" rx="22.5" ry="22.5" stroke-width="0" transform=" rotate(0, 162, 162)"/>
  <ellipse cx="222" cy="162" fill="url(#id400) none" rx="22.5" ry="22.5" stroke-width="0" transform=" rotate(0, 222, 162)"/>
  <ellipse cx="282" cy="162" fill="url(#id401) none" rx="22.5" ry="22.5" stroke-width="0" transform=" rotate(0, 282, 162)"/>
  <ellipse cx="42" cy="222" fill="url(#id402) none" rx="22.5" ry="22.5" stroke-width="0" transform=" rotate(0, 42, 222)"/>
  <ellipse cx="102" cy="222" fill="url(#id403) none" rx="22.5" ry="22.5" stroke-width="0" transform=" rotate(0, 102, 222)"/>
  <ellipse cx="162" cy="222" fill="url(#id404) none" rx="22.5" ry="22.5" stroke-width="0" transform=" rotate(0, 162, 222)"/>
  <ellipse cx="222" cy="222" fill="url(#id405) none" rx="22.5" ry="22.5" stroke-width="0" transform=" rotate(0, 222, 222)"/>
  <ellipse cx="282" cy="222" fill="url(#id406) none" rx="22.5" ry="22.5" stroke-width="0" transform=" rotate(0, 282, 222)"/>
  <ellipse cx="42" cy="282" fill="url(#id407) none" rx="22.5" ry="22.5" stroke-width="0" transform=" rotate(0, 42, 282)"/>
  <ellipse cx="102" cy="282" fill="url(#id408) none" rx="22.5" ry="22.5" stroke-width="0" transform=" rotate(0, 102, 282)"/>
  <ellipse cx="162" cy="282" fill="url(#id409) none" rx="22.5" ry="22.5" stroke-width="0" transform=" rotate(0, 162, 282)"/>
  <ellipse cx="222" cy="282" fill="url(#id410) none" rx="22.5" ry="22.5" stroke-width="0" transform=" rotate(0, 222, 282)"/>
  <ellipse cx="282" cy="282" fill="url(#id411) none" rx="22.5" ry="22.5" stroke-width="0" transform=" rotate(0, 282, 282)"/>
</svg>
