<?xml version="1.0" encoding="utf-8" ?>
<svg baseProfile="tiny" height="324" version="1.2" width="324" xmlns="http://www.w3.org/2000/svg" xmlns:ev="http://www.w3.org/2001/xml-events" xmlns:xlink="http://www.w3.org/1999/xlink">
  <defs>
    <radialGradient id="id391">
      <stop offset="0.0" stop-color="white"/>
      <stop offset="1.0" stop-color="red"/>
    </radialGradient>
    <radialGradient id="id392">
      <stop offset="0.0" stop-color="white"/>
      <stop offset="1.0" stop-color="red"/>
    </radialGradient>
    <radialGradient id="id393">
      <stop offset="0.0" stop-color="white"/>
      <stop offset="1.0" stop-color="red"/>
    </radialGradient>
    <radialGradient id="id394">
      <stop offset="0.0" stop-color="white"/>
      <stop offset="1.0" stop-color="red"/>
    </radialGradient>
    <radialGradient id="id395">
      <stop offset="0.0" stop-color="white"/>
      <stop offset="1.0" stop-color="red"/>
    </radialGradient>
    <linearGradient id="id396" x1="0" x2="1" y1="0" y2="0">
      <stop offset="0.0" stop-color="red"/>
      <stop offset="0.2" stop-color="orange"/>
      <stop offset="0.4" stop-color="green"/>
      <stop offset="0.6" stop-color="blue"/>
      <stop offset="0.8" stop-color="indigo"/>
      <stop offset="1.0" stop-color="violet"/>
    </linearGradient>
    <linearGradient id="id397" x1="0" x2="1" y1="0" y2="0">
      <stop offset="0.0" stop-color="red"/>
      <stop offset="0.2" stop-color="orange"/>
      <stop offset="0.4" stop-color="green"/>
      <stop offset="0.6" stop-color="blue"/>
      <stop offset="0.8" stop-color="indigo"/>
      <stop offset="1.0" stop-color="violet"/>
    </linearGradient>
    <linearGradient id="id398" x1="0" x2="1" y1="0" y2="0">
      <stop offset="0.0" stop-color="red"/>
      <stop offset="0.2" stop-color="orange"/>
      <stop offset="0.4" stop-color="green"/>
      <stop offset="0.6" stop-color="blue"/>
      <stop offset="0.8" stop-color="indigo"/>
      <stop offset="1.0" stop-color="violet"/>
    </linearGradient>
    <linearGradient id="id399" x1="0" x2="1" y1="0" y2="0">
      <stop offset="0.0" stop-color="red"/>
      <stop offset="0.2" stop-color="orange"/>
      <stop offset="0.4" stop-color="green"/>
      <stop offset="0.6" stop-color="blue"/>
      <stop offset="0.8" stop-color="indigo"/>
      <stop offset="1.0" stop-color="violet"/>
    </linearGradient>
    <linearGradient id="id400" x1="0" x2="1" y1="0" y2="0">
      <stop offset="0.0" stop-color="red"/>
      <stop offset="0.2" stop-color="orange"/>
      <stop offset="0.4" stop-color="green"/>
      <stop offset="0.6" stop-color="blue"/>
      <stop offset="0.8" stop-color="indigo"/>
      <stop offset="1.0" stop-color="violet"/>
    </linearGradient>
    <linearGradient id="id401" x1="0" x2="0" y1="0" y2="1">
      <stop offset="0.0" stop-color="green"/>
      <stop offset="0.5" stop-color="white"/>
      <stop offset="1.0" stop-color="green"/>
    </linearGradient>
    <linearGradient id="id402" x1="0" x2="0" y1="0" y2="1">
      <stop offset="0.0" stop-color="green"/>
      <stop offset="0.5" stop-color="white"/>
      <stop offset="1.0" stop-color="green"/>
    </linearGradient>
    <linearGradient id="id403" x1="0" x2="0" y1="0" y2="1">
      <stop offset="0.0" stop-color="green"/>
      <stop offset="0.5" stop-color="white"/>
      <stop offset="1.0" stop-color="green"/>
    </linearGradient>
    <linearGradient id="id404" x1="0" x2="0" y1="0" y2="1">
      <stop offset="0.0" stop-color="green"/>
      <stop offset="0.5" stop-color="white"/>
      <stop offset="1.0" stop-color="green"/>
    </linearGradient>
    <linearGradient id="id405" x1="0" x2="0" y1="0" y2="1">
      <stop offset="0.0" stop-color="green"/>
      <stop offset="0.5" stop-color="white"/>
      <stop offset="1.0" stop-color="green"/>
    </linearGradient>
    <linearGradient id="id406" x1="0" x2="1" y1="0" y2="1">
      <stop offset="0.0" stop-color="red"/>
      <stop offset="1.0" stop-color="white"/>
    </linearGradient>
    <linearGradient id="id407" x1="0" x2="1" y1="0" y2="1">
      <stop offset="0.0" stop-color="red"/>
      <stop offset="1.0" stop-color="white"/>
    </linearGradient>
    <linearGradient id="id408" x1="0" x2="1" y1="0" y2="1">
      <stop offset="0.0" stop-color="red"/>
      <stop offset="1.0" stop-color="white"/>
    </linearGradient>
    <linearGradient id="id409" x1="0" x2="1" y1="0" y2="1">
      <stop offset="0.0" stop-color="red"/>
      <stop offset="1.0" stop-color="white"/>
    </linearGradient>
    <linearGradient id="id410" x1="0" x2="1" y1="0" y2="1">
      <stop offset="0.0" stop-color="red"/>
      <stop offset="1.0" stop-color="white"/>
    </linearGradient>
  </defs>
  <rect fill="lightgrey" height="324" width="324" x="0" y="0"/>
  <ellipse cx="42" cy="42" fill="url(#id391) none" rx="22.5" ry="22.5" stroke-width="0" transform=" rotate(0, 42, 42)"/>
  <rect fill="url(#id392) none" height="45" stroke-width="0" transform=" rotate(0, 102, 42)" width="45" x="79.5" y="19.5"/>
  <polygon fill="url(#id393) none" points="139.5,64.5 162,19.5 184.5,64.5" stroke-width="0" transform=" rotate(0, 162, 42)"/>
  <polygon fill="url(#id394) none" points="222.0,19.5 206.0901,26.0901 199.5,42.0 206.0901,57.9099 222.0,64.5 237.9099,57.9099 244.5,42.0 237.9099,26.0901" stroke-width="0" transform=" rotate(0, 222, 42)"/>
  <path d="M37.5,186c-12.1-10.5-11.8-32.3-7.2-46.7c4.8-15,13.1-17.8,30.1-36.7C91,68.8,83.5,56.7,103.4,45 c22.2-13.1,51.1-9.5,69.6-1.6c18.1,7.8,15.7,15.3,43.3,33.2c28.8,18.8,37.2,14.3,46.7,27.9c15.6,22.3,6.4,53.3,4.4,60.2 c-3.3,11.2-7.1,23.9-18.5,32c-16.3,11.5-29.5,0.7-48.6,11c-16.2,8.7-12.6,19.7-28.2,33.2c-22.7,19.7-63.8,25.7-79.9,9.7 c-15.2-15.1,0.3-41.7-16.6-54.9C63,186,49.7,196.7,37.5,186z" fill="url(#id395) none" stroke-width="0" transform=" scale(0.156250, 0.156250) translate(1660.800000, 124.800000) rotate(0, 144, 144)"/>
  <ellipse cx="42" cy="102" fill="green" rx="22.5" ry="22.5" stroke-width="0" transform=" rotate(0, 42, 102)"/>
  <rect fill="green" height="45" stroke-width="0" transform=" rotate(0, 102, 102)" width="45" x="79.5" y="79.5"/>
  <polygon fill="green" points="139.5,124.5 162,79.5 184.5,124.5" stroke-width="0" transform=" rotate(0, 162, 102)"/>
  <polygon fill="green" points="222.0,79.5 206.0901,86.0901 199.5,102.0 206.0901,117.9099 222.0,124.5 237.9099,117.9099 244.5,102.0 237.9099,86.0901" stroke-width="0" transform=" rotate(0, 222, 102)"/>
  <path d="M37.5,186c-12.1-10.5-11.8-32.3-7.2-46.7c4.8-15,13.1-17.8,30.1-36.7C91,68.8,83.5,56.7,103.4,45 c22.2-13.1,51.1-9.5,69.6-1.6c18.1,7.8,15.7,15.3,43.3,33.2c28.8,18.8,37.2,14.3,46.7,27.9c15.6,22.3,6.4,53.3,4.4,60.2 c-3.3,11.2-7.1,23.9-18.5,32c-16.3,11.5-29.5,0.7-48.6,11c-16.2,8.7-12.6,19.7-28.2,33.2c-22.7,19.7-63.8,25.7-79.9,9.7 c-15.2-15.1,0.3-41.7-16.6-54.9C63,186,49.7,196.7,37.5,186z" fill="green" stroke-width="0" transform=" scale(0.156250, 0.156250) translate(1660.800000, 508.800000) rotate(0, 144, 144)"/>
  <ellipse cx="42" cy="162" fill="url(#id396) none" rx="22.5" ry="22.5" stroke-width="0" transform=" rotate(0, 42, 162)"/>
  <rect fill="url(#id397) none" height="45" stroke-width="0" transform=" rotate(0, 102, 162)" width="45" x="79.5" y="139.5"/>
  <polygon fill="url(#id398) none" points="139.5,184.5 162,139.5 184.5,184.5" stroke-width="0" transform=" rotate(0, 162, 162)"/>
  <polygon fill="url(#id399) none" points="222.0,139.5 206.0901,146.0901 199.5,162.0 206.0901,177.9099 222.0,184.5 237.9099,177.9099 244.5,162.0 237.9099,146.0901" stroke-width="0" transform=" rotate(0, 222, 162)"/>
  <path d="M37.5,186c-12.1-10.5-11.8-32.3-7.2-46.7c4.8-15,13.1-17.8,30.1-36.7C91,68.8,83.5,56.7,103.4,45 c22.2-13.1,51.1-9.5,69.6-1.6c18.1,7.8,15.7,15.3,43.3,33.2c28.8,18.8,37.2,14.3,46.7,27.9c15.6,22.3,6.4,53.3,4.4,60.2 c-3.3,11.2-7.1,23.9-18.5,32c-16.3,11.5-29.5,0.7-48.6,11c-16.2,8.7-12.6,19.7-28.2,33.2c-22.7,19.7-63.8,25.7-79.9,9.7 c-15.2-15.1,0.3-41.7-16.6-54.9C63,186,49.7,196.7,37.5,186z" fill="url(#id400) none" stroke-width="0" transform=" scale(0.156250, 0.156250) translate(1660.800000, 892.800000) rotate(0, 144, 144)"/>
  <ellipse cx="42" cy="222" fill="url(#id401) none" rx="22.5" ry="22.5" stroke-width="0" transform=" rotate(0, 42, 222)"/>
  <rect fill="url(#id402) none" height="45" stroke-width="0" transform=" rotate(0, 102, 222)" width="45" x="79.5" y="199.5"/>
  <polygon fill="url(#id403) none" points="139.5,244.5 162,199.5 184.5,244.5" stroke-width="0" transform=" rotate(0, 162, 222)"/>
  <polygon fill="url(#id404) none" points="222.0,199.5 206.0901,206.0901 199.5,222.0 206.0901,237.9099 222.0,244.5 237.9099,237.9099 244.5,222.0 237.9099,206.0901" stroke-width="0" transform=" rotate(0, 222, 222)"/>
  <path d="M37.5,186c-12.1-10.5-11.8-32.3-7.2-46.7c4.8-15,13.1-17.8,30.1-36.7C91,68.8,83.5,56.7,103.4,45 c22.2-13.1,51.1-9.5,69.6-1.6c18.1,7.8,15.7,15.3,43.3,33.2c28.8,18.8,37.2,14.3,46.7,27.9c15.6,22.3,6.4,53.3,4.4,60.2 c-3.3,11.2-7.1,23.9-18.5,32c-16.3,11.5-29.5,0.7-48.6,11c-16.2,8.7-12.6,19.7-28.2,33.2c-22.7,19.7-63.8,25.7-79.9,9.7 c-15.2-15.1,0.3-41.7-16.6-54.9C63,186,49.7,196.7,37.5,186z" fill="url(#id405) none" stroke-width="0" transform=" scale(0.156250, 0.156250) translate(1660.800000, 1276.800000) rotate(0, 144, 144)"/>
  <ellipse cx="42" cy="282" fill="url(#id406) none" rx="22.5" ry="22.5" stroke-width="0" transform=" rotate(0, 42, 282)"/>
  <rect fill="url(#id407) none" height="45" stroke-width="0" transform=" rotate(0, 102, 282)" width="45" x="79.5" y="259.5"/>
  <polygon fill="url(#id408) none" points="139.5,304.5 162,259.5 184.5,304.5" stroke-width="0" transform=" rotate(0, 162, 282)"/>
  <polygon fill="url(#id409) none" points="222.0,259.5 206.0901,266.0901 199.5,282.0 206.0901,297.9099 222.0,304.5 237.9099,297.9099 244.5,282.0 237.9099,266.0901" stroke-width="0" transform=" rotate(0, 222, 282)"/>
  <path d="M37.5,186c-12.1-10.5-11.8-32.3-7.2-46.7c4.8-15,13.1-17.8,30.1-36.7C91,68.8,83.5,56.7,103.4,45 c22.2-13.1,51.1-9.5,69.6-1.6c18.1,7.8,15.7,15.3,43.3,33.2c28.8,18.8,37.2,14.3,46.7,27.9c15.6,22.3,6.4,53.3,4.4,60.2 c-3.3,11.2-7.1,23.9-18.5,32c-16.3,11.5-29.5,0.7-48.6,11c-16.2,8.7-12.6,19.7-28.2,33.2c-22.7,19.7-63.8,25.7-79.9,9.7 c-15.2-15.1,0.3-41.7-16.6-54.9C63,186,49.7,196.7,37.5,186z" fill="url(#id410) none" stroke-width="0" transform=" scale(0.156250, 0.156250) translate(1660.800000, 1660.800000) rotate(0, 144, 144)"/>
</svg>
