<?xml version="1.0" encoding="utf-8" ?>
<svg baseProfile="full" height="234" version="1.1" width="234" xmlns="http://www.w3.org/2000/svg" xmlns:ev="http://www.w3.org/2001/xml-events" xmlns:xlink="http://www.w3.org/1999/xlink">
  <defs/>
  <g>
    <rect fill="none" height="234" width="234" x="0" y="0"/>
    <polygon fill="dodgerblue" opacity="1" points="42.0,19.49999999999991 19.500000000000004,36.68847050625462 28.094235253127362,64.49999999999984 55.90576474687263,64.49999999999984 64.5,36.688470506254625" stroke-width="0" transform=" rotate(0, 42, 42)"/>
    <polygon fill="dodgerblue" opacity="1" points="92.0,19.49999999999991 69.5,36.68847050625462 78.09423525312737,64.49999999999984 105.90576474687262,64.49999999999984 114.5,36.688470506254625" stroke-width="0" transform=" rotate(0, 92, 42)"/>
    <ellipse cx="142" cy="42" fill="dodgerblue" opacity="1" rx="22.5" ry="22.5" stroke-width="0" transform=" rotate(0, 142, 42)">
      <animate attributeName="fill" dur="10s" repeatCount="indefinite" values="#6dd6ff;#1b9fd8;#006ca1;#1b9fd8;#6dd6ff"/>
    </ellipse>
    <polygon fill="dodgerblue" opacity="1" points="192.0,19.49999999999991 169.5,36.68847050625462 178.09423525312735,64.49999999999984 205.90576474687262,64.49999999999984 214.5,36.688470506254625" stroke-width="0" transform=" rotate(0, 192, 42)"/>
    <polygon fill="dodgerblue" opacity="1" points="42.0,69.50000000000017 19.500000000000004,86.68847050625494 28.094235253127362,114.50000000000028 55.90576474687263,114.50000000000028 64.5,86.68847050625496" stroke-width="0" transform=" rotate(0, 42, 92)"/>
    <polygon fill="dodgerblue" opacity="1" points="92.0,69.50000000000017 69.5,86.68847050625494 78.09423525312737,114.50000000000028 105.90576474687262,114.50000000000028 114.5,86.68847050625496" stroke-width="0" transform=" rotate(0, 92, 92)"/>
    <polygon fill="dodgerblue" opacity="1" points="142.0,69.50000000000017 119.5,86.68847050625494 128.09423525312735,114.50000000000028 155.90576474687262,114.50000000000028 164.5,86.68847050625496" stroke-width="0" transform=" rotate(0, 142, 92)"/>
    <polygon fill="dodgerblue" opacity="1" points="192.0,69.50000000000017 169.5,86.68847050625494 178.09423525312735,114.50000000000028 205.90576474687262,114.50000000000028 214.5,86.68847050625496" stroke-width="0" transform=" rotate(0, 192, 92)"/>
    <polygon fill="dodgerblue" opacity="1" points="42.0,119.50000000000036 19.500000000000004,136.688470506255 28.094235253127362,164.5000000000001 55.90576474687263,164.5000000000001 64.5,136.688470506255" stroke-width="0" transform=" rotate(0, 42, 142)"/>
    <polygon fill="dodgerblue" opacity="1" points="92.0,119.50000000000036 69.5,136.688470506255 78.09423525312737,164.5000000000001 105.90576474687262,164.5000000000001 114.5,136.688470506255" stroke-width="0" transform=" rotate(0, 92, 142)"/>
    <polygon fill="dodgerblue" opacity="1" points="142.0,119.50000000000036 119.5,136.688470506255 128.09423525312735,164.5000000000001 155.90576474687262,164.5000000000001 164.5,136.688470506255" stroke-width="0" transform=" rotate(0, 142, 142)"/>
    <polygon fill="dodgerblue" opacity="1" points="192.0,119.50000000000036 169.5,136.688470506255 178.09423525312735,164.5000000000001 205.90576474687262,164.5000000000001 214.5,136.688470506255" stroke-width="0" transform=" rotate(0, 192, 142)"/>
    <polygon fill="dodgerblue" opacity="1" points="42.0,169.50000000000034 19.500000000000004,186.688470506255 28.094235253127362,214.5000000000001 55.90576474687263,214.5000000000001 64.5,186.688470506255" stroke-width="0" transform=" rotate(0, 42, 192)"/>
    <polygon fill="dodgerblue" opacity="1" points="92.0,169.50000000000034 69.5,186.688470506255 78.09423525312737,214.5000000000001 105.90576474687262,214.5000000000001 114.5,186.688470506255" stroke-width="0" transform=" rotate(0, 92, 192)"/>
    <polygon fill="dodgerblue" opacity="1" points="142.0,169.50000000000034 119.5,186.688470506255 128.09423525312735,214.5000000000001 155.90576474687262,214.5000000000001 164.5,186.688470506255" stroke-width="0" transform=" rotate(0, 142, 192)"/>
    <polygon fill="dodgerblue" opacity="1" points="192.0,169.50000000000034 169.5,186.688470506255 178.09423525312735,214.5000000000001 205.90576474687262,214.5000000000001 214.5,186.688470506255" stroke-width="0" transform=" rotate(0, 192, 192)"/>
  </g>
</svg>
