<?xml version="1.0" encoding="utf-8" ?>
<svg baseProfile="tiny" height="600" version="1.2" width="600" xmlns="http://www.w3.org/2000/svg" xmlns:ev="http://www.w3.org/2001/xml-events" xmlns:xlink="http://www.w3.org/1999/xlink">
  <defs/>
  <ellipse cx="-45.0" cy="-30.0" fill="#1b9fd8" rx="14.0" ry="14.0" stroke-width="0" transform=" rotate(0, -45, -30)"/>
  <ellipse cx="-15.0" cy="-30.0" fill="#006ca1" rx="14.0" ry="14.0" stroke-width="0" transform=" rotate(0, -15, -30)"/>
  <ellipse cx="15.0" cy="-30.0" fill="#6dd6ff" rx="14.0" ry="14.0" stroke-width="0" transform=" rotate(0, 15, -30)"/>
  <ellipse cx="45.0" cy="-30.0" fill="#1b9fd8" rx="14.0" ry="14.0" stroke-width="0" transform=" rotate(0, 45, -30)"/>
  <ellipse cx="75.0" cy="-30.0" fill="#006ca1" rx="14.0" ry="14.0" stroke-width="0" transform=" rotate(0, 75, -30)"/>
  <ellipse cx="105.0" cy="-30.0" fill="#6dd6ff" rx="14.0" ry="14.0" stroke-width="0" transform=" rotate(0, 105, -30)"/>
  <ellipse cx="135.0" cy="-30.0" fill="#1b9fd8" rx="14.0" ry="14.0" stroke-width="0" transform=" rotate(0, 135, -30)"/>
  <ellipse cx="165.0" cy="-30.0" fill="#006ca1" rx="14.0" ry="14.0" stroke-width="0" transform=" rotate(0, 165, -30)"/>
  <ellipse cx="195.0" cy="-30.0" fill="#6dd6ff" rx="14.0" ry="14.0" stroke-width="0" transform=" rotate(0, 195, -30)"/>
  <ellipse cx="225.0" cy="-30.0" fill="#1b9fd8" rx="14.0" ry="14.0" stroke-width="0" transform=" rotate(0, 225, -30)"/>
  <ellipse cx="255.0" cy="-30.0" fill="#006ca1" rx="14.0" ry="14.0" stroke-width="0" transform=" rotate(0, 255, -30)"/>
  <ellipse cx="285.0" cy="-30.0" fill="#6dd6ff" rx="14.0" ry="14.0" stroke-width="0" transform=" rotate(0, 285, -30)"/>
  <ellipse cx="315.0" cy="-30.0" fill="#1b9fd8" rx="14.0" ry="14.0" stroke-width="0" transform=" rotate(0, 315, -30)"/>
  <ellipse cx="345.0" cy="-30.0" fill="#006ca1" rx="14.0" ry="14.0" stroke-width="0" transform=" rotate(0, 345, -30)"/>
  <ellipse cx="375.0" cy="-30.0" fill="#6dd6ff" rx="14.0" ry="14.0" stroke-width="0" transform=" rotate(0, 375, -30)"/>
  <ellipse cx="405.0" cy="-30.0" fill="#1b9fd8" rx="14.0" ry="14.0" stroke-width="0" transform=" rotate(0, 405, -30)"/>
  <ellipse cx="435.0" cy="-30.0" fill="#006ca1" rx="14.0" ry="14.0" stroke-width="0" transform=" rotate(0, 435, -30)"/>
  <ellipse cx="465.0" cy="-30.0" fill="#6dd6ff" rx="14.0" ry="14.0" stroke-width="0" transform=" rotate(0, 465, -30)"/>
  <ellipse cx="495.0" cy="-30.0" fill="#1b9fd8" rx="14.0" ry="14.0" stroke-width="0" transform=" rotate(0, 495, -30)"/>
  <ellipse cx="525.0" cy="-30.0" fill="#006ca1" rx="14.0" ry="14.0" stroke-width="0" transform=" rotate(0, 525, -30)"/>
  <ellipse cx="555.0" cy="-30.0" fill="#6dd6ff" rx="14.0" ry="14.0" stroke-width="0" transform=" rotate(0, 555, -30)"/>
  <ellipse cx="585.0" cy="-30.0" fill="#1b9fd8" rx="14.0" ry="14.0" stroke-width="0" transform=" rotate(0, 585, -30)"/>
  <ellipse cx="615.0" cy="-30.0" fill="#006ca1" rx="14.0" ry="14.0" stroke-width="0" transform=" rotate(0, 615, -30)"/>
  <ellipse cx="645.0" cy="-30.0" fill="#6dd6ff" rx="14.0" ry="14.0" stroke-width="0" transform=" rotate(0, 645, -30)"/>
  <ellipse cx="-45.0" cy="30.0" fill="#1b9fd8" rx="14.0" ry="14.0" stroke-width="0" transform=" rotate(0, -45, 30)"/>
  <ellipse cx="-15.0" cy="30.0" fill="#006ca1" rx="14.0" ry="14.0" stroke-width="0" transform=" rotate(0, -15, 30)"/>
  <ellipse cx="15.0" cy="30.0" fill="#6dd6ff" rx="14.0" ry="14.0" stroke-width="0" transform=" rotate(0, 15, 30)"/>
  <ellipse cx="45.0" cy="30.0" fill="#1b9fd8" rx="14.0" ry="14.0" stroke-width="0" transform=" rotate(0, 45, 30)"/>
  <ellipse cx="75.0" cy="30.0" fill="#006ca1" rx="14.0" ry="14.0" stroke-width="0" transform=" rotate(0, 75, 30)"/>
  <ellipse cx="105.0" cy="30.0" fill="#6dd6ff" rx="14.0" ry="14.0" stroke-width="0" transform=" rotate(0, 105, 30)"/>
  <ellipse cx="135.0" cy="30.0" fill="#1b9fd8" rx="14.0" ry="14.0" stroke-width="0" transform=" rotate(0, 135, 30)"/>
  <ellipse cx="165.0" cy="30.0" fill="#006ca1" rx="14.0" ry="14.0" stroke-width="0" transform=" rotate(0, 165, 30)"/>
  <ellipse cx="195.0" cy="30.0" fill="#6dd6ff" rx="14.0" ry="14.0" stroke-width="0" transform=" rotate(0, 195, 30)"/>
  <ellipse cx="225.0" cy="30.0" fill="#1b9fd8" rx="14.0" ry="14.0" stroke-width="0" transform=" rotate(0, 225, 30)"/>
  <ellipse cx="255.0" cy="30.0" fill="#006ca1" rx="14.0" ry="14.0" stroke-width="0" transform=" rotate(0, 255, 30)"/>
  <ellipse cx="285.0" cy="30.0" fill="#6dd6ff" rx="14.0" ry="14.0" stroke-width="0" transform=" rotate(0, 285, 30)"/>
  <ellipse cx="315.0" cy="30.0" fill="#1b9fd8" rx="14.0" ry="14.0" stroke-width="0" transform=" rotate(0, 315, 30)"/>
  <ellipse cx="345.0" cy="30.0" fill="#006ca1" rx="14.0" ry="14.0" stroke-width="0" transform=" rotate(0, 345, 30)"/>
  <ellipse cx="375.0" cy="30.0" fill="#6dd6ff" rx="14.0" ry="14.0" stroke-width="0" transform=" rotate(0, 375, 30)"/>
  <ellipse cx="405.0" cy="30.0" fill="#1b9fd8" rx="14.0" ry="14.0" stroke-width="0" transform=" rotate(0, 405, 30)"/>
  <ellipse cx="435.0" cy="30.0" fill="#006ca1" rx="14.0" ry="14.0" stroke-width="0" transform=" rotate(0, 435, 30)"/>
  <ellipse cx="465.0" cy="30.0" fill="#6dd6ff" rx="14.0" ry="14.0" stroke-width="0" transform=" rotate(0, 465, 30)"/>
  <ellipse cx="495.0" cy="30.0" fill="#1b9fd8" rx="14.0" ry="14.0" stroke-width="0" transform=" rotate(0, 495, 30)"/>
  <ellipse cx="525.0" cy="30.0" fill="#006ca1" rx="14.0" ry="14.0" stroke-width="0" transform=" rotate(0, 525, 30)"/>
  <ellipse cx="555.0" cy="30.0" fill="#6dd6ff" rx="14.0" ry="14.0" stroke-width="0" transform=" rotate(0, 555, 30)"/>
  <ellipse cx="585.0" cy="30.0" fill="#1b9fd8" rx="14.0" ry="14.0" stroke-width="0" transform=" rotate(0, 585, 30)"/>
  <ellipse cx="615.0" cy="30.0" fill="#006ca1" rx="14.0" ry="14.0" stroke-width="0" transform=" rotate(0, 615, 30)"/>
  <ellipse cx="645.0" cy="30.0" fill="#6dd6ff" rx="14.0" ry="14.0" stroke-width="0" transform=" rotate(0, 645, 30)"/>
  <ellipse cx="-45.0" cy="90.0" fill="#1b9fd8" rx="14.0" ry="14.0" stroke-width="0" transform=" rotate(0, -45, 90)"/>
  <ellipse cx="-15.0" cy="90.0" fill="#006ca1" rx="14.0" ry="14.0" stroke-width="0" transform=" rotate(0, -15, 90)"/>
  <ellipse cx="15.0" cy="90.0" fill="#6dd6ff" rx="14.0" ry="14.0" stroke-width="0" transform=" rotate(0, 15, 90)"/>
  <ellipse cx="45.0" cy="90.0" fill="#1b9fd8" rx="14.0" ry="14.0" stroke-width="0" transform=" rotate(0, 45, 90)"/>
  <ellipse cx="75.0" cy="90.0" fill="#006ca1" rx="14.0" ry="14.0" stroke-width="0" transform=" rotate(0, 75, 90)"/>
  <ellipse cx="105.0" cy="90.0" fill="#6dd6ff" rx="14.0" ry="14.0" stroke-width="0" transform=" rotate(0, 105, 90)"/>
  <ellipse cx="135.0" cy="90.0" fill="#1b9fd8" rx="14.0" ry="14.0" stroke-width="0" transform=" rotate(0, 135, 90)"/>
  <ellipse cx="165.0" cy="90.0" fill="#006ca1" rx="14.0" ry="14.0" stroke-width="0" transform=" rotate(0, 165, 90)"/>
  <ellipse cx="195.0" cy="90.0" fill="#6dd6ff" rx="14.0" ry="14.0" stroke-width="0" transform=" rotate(0, 195, 90)"/>
  <ellipse cx="225.0" cy="90.0" fill="#1b9fd8" rx="14.0" ry="14.0" stroke-width="0" transform=" rotate(0, 225, 90)"/>
  <ellipse cx="255.0" cy="90.0" fill="#006ca1" rx="14.0" ry="14.0" stroke-width="0" transform=" rotate(0, 255, 90)"/>
  <ellipse cx="285.0" cy="90.0" fill="#6dd6ff" rx="14.0" ry="14.0" stroke-width="0" transform=" rotate(0, 285, 90)"/>
  <ellipse cx="315.0" cy="90.0" fill="#1b9fd8" rx="14.0" ry="14.0" stroke-width="0" transform=" rotate(0, 315, 90)"/>
  <ellipse cx="345.0" cy="90.0" fill="#006ca1" rx="14.0" ry="14.0" stroke-width="0" transform=" rotate(0, 345, 90)"/>
  <ellipse cx="375.0" cy="90.0" fill="#6dd6ff" rx="14.0" ry="14.0" stroke-width="0" transform=" rotate(0, 375, 90)"/>
  <ellipse cx="405.0" cy="90.0" fill="#1b9fd8" rx="14.0" ry="14.0" stroke-width="0" transform=" rotate(0, 405, 90)"/>
  <ellipse cx="435.0" cy="90.0" fill="#006ca1" rx="14.0" ry="14.0" stroke-width="0" transform=" rotate(0, 435, 90)"/>
  <ellipse cx="465.0" cy="90.0" fill="#6dd6ff" rx="14.0" ry="14.0" stroke-width="0" transform=" rotate(0, 465, 90)"/>
  <ellipse cx="495.0" cy="90.0" fill="#1b9fd8" rx="14.0" ry="14.0" stroke-width="0" transform=" rotate(0, 495, 90)"/>
  <ellipse cx="525.0" cy="90.0" fill="#006ca1" rx="14.0" ry="14.0" stroke-width="0" transform=" rotate(0, 525, 90)"/>
  <ellipse cx="555.0" cy="90.0" fill="#6dd6ff" rx="14.0" ry="14.0" stroke-width="0" transform=" rotate(0, 555, 90)"/>
  <ellipse cx="585.0" cy="90.0" fill="#1b9fd8" rx="14.0" ry="14.0" stroke-width="0" transform=" rotate(0, 585, 90)"/>
  <ellipse cx="615.0" cy="90.0" fill="#006ca1" rx="14.0" ry="14.0" stroke-width="0" transform=" rotate(0, 615, 90)"/>
  <ellipse cx="645.0" cy="90.0" fill="#6dd6ff" rx="14.0" ry="14.0" stroke-width="0" transform=" rotate(0, 645, 90)"/>
  <ellipse cx="-45.0" cy="150.0" fill="#1b9fd8" rx="14.0" ry="14.0" stroke-width="0" transform=" rotate(0, -45, 150)"/>
  <ellipse cx="-15.0" cy="150.0" fill="#006ca1" rx="14.0" ry="14.0" stroke-width="0" transform=" rotate(0, -15, 150)"/>
  <ellipse cx="15.0" cy="150.0" fill="#6dd6ff" rx="14.0" ry="14.0" stroke-width="0" transform=" rotate(0, 15, 150)"/>
  <ellipse cx="45.0" cy="150.0" fill="#1b9fd8" rx="14.0" ry="14.0" stroke-width="0" transform=" rotate(0, 45, 150)"/>
  <ellipse cx="75.0" cy="150.0" fill="#006ca1" rx="14.0" ry="14.0" stroke-width="0" transform=" rotate(0, 75, 150)"/>
  <ellipse cx="105.0" cy="150.0" fill="#6dd6ff" rx="14.0" ry="14.0" stroke-width="0" transform=" rotate(0, 105, 150)"/>
  <ellipse cx="135.0" cy="150.0" fill="#1b9fd8" rx="14.0" ry="14.0" stroke-width="0" transform=" rotate(0, 135, 150)"/>
  <ellipse cx="165.0" cy="150.0" fill="#006ca1" rx="14.0" ry="14.0" stroke-width="0" transform=" rotate(0, 165, 150)"/>
  <ellipse cx="195.0" cy="150.0" fill="#6dd6ff" rx="14.0" ry="14.0" stroke-width="0" transform=" rotate(0, 195, 150)"/>
  <ellipse cx="225.0" cy="150.0" fill="#1b9fd8" rx="14.0" ry="14.0" stroke-width="0" transform=" rotate(0, 225, 150)"/>
  <ellipse cx="255.0" cy="150.0" fill="#006ca1" rx="14.0" ry="14.0" stroke-width="0" transform=" rotate(0, 255, 150)"/>
  <ellipse cx="285.0" cy="150.0" fill="#6dd6ff" rx="14.0" ry="14.0" stroke-width="0" transform=" rotate(0, 285, 150)"/>
  <ellipse cx="315.0" cy="150.0" fill="#1b9fd8" rx="14.0" ry="14.0" stroke-width="0" transform=" rotate(0, 315, 150)"/>
  <ellipse cx="345.0" cy="150.0" fill="#006ca1" rx="14.0" ry="14.0" stroke-width="0" transform=" rotate(0, 345, 150)"/>
  <ellipse cx="375.0" cy="150.0" fill="#6dd6ff" rx="14.0" ry="14.0" stroke-width="0" transform=" rotate(0, 375, 150)"/>
  <ellipse cx="405.0" cy="150.0" fill="#1b9fd8" rx="14.0" ry="14.0" stroke-width="0" transform=" rotate(0, 405, 150)"/>
  <ellipse cx="435.0" cy="150.0" fill="#006ca1" rx="14.0" ry="14.0" stroke-width="0" transform=" rotate(0, 435, 150)"/>
  <ellipse cx="465.0" cy="150.0" fill="#6dd6ff" rx="14.0" ry="14.0" stroke-width="0" transform=" rotate(0, 465, 150)"/>
  <ellipse cx="495.0" cy="150.0" fill="#1b9fd8" rx="14.0" ry="14.0" stroke-width="0" transform=" rotate(0, 495, 150)"/>
  <ellipse cx="525.0" cy="150.0" fill="#006ca1" rx="14.0" ry="14.0" stroke-width="0" transform=" rotate(0, 525, 150)"/>
  <ellipse cx="555.0" cy="150.0" fill="#6dd6ff" rx="14.0" ry="14.0" stroke-width="0" transform=" rotate(0, 555, 150)"/>
  <ellipse cx="585.0" cy="150.0" fill="#1b9fd8" rx="14.0" ry="14.0" stroke-width="0" transform=" rotate(0, 585, 150)"/>
  <ellipse cx="615.0" cy="150.0" fill="#006ca1" rx="14.0" ry="14.0" stroke-width="0" transform=" rotate(0, 615, 150)"/>
  <ellipse cx="645.0" cy="150.0" fill="#6dd6ff" rx="14.0" ry="14.0" stroke-width="0" transform=" rotate(0, 645, 150)"/>
  <ellipse cx="-45.0" cy="210.0" fill="#1b9fd8" rx="14.0" ry="14.0" stroke-width="0" transform=" rotate(0, -45, 210)"/>
  <ellipse cx="-15.0" cy="210.0" fill="#006ca1" rx="14.0" ry="14.0" stroke-width="0" transform=" rotate(0, -15, 210)"/>
  <ellipse cx="15.0" cy="210.0" fill="#6dd6ff" rx="14.0" ry="14.0" stroke-width="0" transform=" rotate(0, 15, 210)"/>
  <ellipse cx="45.0" cy="210.0" fill="#1b9fd8" rx="14.0" ry="14.0" stroke-width="0" transform=" rotate(0, 45, 210)"/>
  <ellipse cx="75.0" cy="210.0" fill="#006ca1" rx="14.0" ry="14.0" stroke-width="0" transform=" rotate(0, 75, 210)"/>
  <ellipse cx="105.0" cy="210.0" fill="#6dd6ff" rx="14.0" ry="14.0" stroke-width="0" transform=" rotate(0, 105, 210)"/>
  <ellipse cx="135.0" cy="210.0" fill="#1b9fd8" rx="14.0" ry="14.0" stroke-width="0" transform=" rotate(0, 135, 210)"/>
  <ellipse cx="165.0" cy="210.0" fill="#006ca1" rx="14.0" ry="14.0" stroke-width="0" transform=" rotate(0, 165, 210)"/>
  <ellipse cx="195.0" cy="210.0" fill="#6dd6ff" rx="14.0" ry="14.0" stroke-width="0" transform=" rotate(0, 195, 210)"/>
  <ellipse cx="225.0" cy="210.0" fill="#1b9fd8" rx="14.0" ry="14.0" stroke-width="0" transform=" rotate(0, 225, 210)"/>
  <ellipse cx="255.0" cy="210.0" fill="#006ca1" rx="14.0" ry="14.0" stroke-width="0" transform=" rotate(0, 255, 210)"/>
  <ellipse cx="285.0" cy="210.0" fill="#6dd6ff" rx="14.0" ry="14.0" stroke-width="0" transform=" rotate(0, 285, 210)"/>
  <ellipse cx="315.0" cy="210.0" fill="#1b9fd8" rx="14.0" ry="14.0" stroke-width="0" transform=" rotate(0, 315, 210)"/>
  <ellipse cx="345.0" cy="210.0" fill="#006ca1" rx="14.0" ry="14.0" stroke-width="0" transform=" rotate(0, 345, 210)"/>
  <ellipse cx="375.0" cy="210.0" fill="#6dd6ff" rx="14.0" ry="14.0" stroke-width="0" transform=" rotate(0, 375, 210)"/>
  <ellipse cx="405.0" cy="210.0" fill="#1b9fd8" rx="14.0" ry="14.0" stroke-width="0" transform=" rotate(0, 405, 210)"/>
  <ellipse cx="435.0" cy="210.0" fill="#006ca1" rx="14.0" ry="14.0" stroke-width="0" transform=" rotate(0, 435, 210)"/>
  <ellipse cx="465.0" cy="210.0" fill="#6dd6ff" rx="14.0" ry="14.0" stroke-width="0" transform=" rotate(0, 465, 210)"/>
  <ellipse cx="495.0" cy="210.0" fill="#1b9fd8" rx="14.0" ry="14.0" stroke-width="0" transform=" rotate(0, 495, 210)"/>
  <ellipse cx="525.0" cy="210.0" fill="#006ca1" rx="14.0" ry="14.0" stroke-width="0" transform=" rotate(0, 525, 210)"/>
  <ellipse cx="555.0" cy="210.0" fill="#6dd6ff" rx="14.0" ry="14.0" stroke-width="0" transform=" rotate(0, 555, 210)"/>
  <ellipse cx="585.0" cy="210.0" fill="#1b9fd8" rx="14.0" ry="14.0" stroke-width="0" transform=" rotate(0, 585, 210)"/>
  <ellipse cx="615.0" cy="210.0" fill="#006ca1" rx="14.0" ry="14.0" stroke-width="0" transform=" rotate(0, 615, 210)"/>
  <ellipse cx="645.0" cy="210.0" fill="#6dd6ff" rx="14.0" ry="14.0" stroke-width="0" transform=" rotate(0, 645, 210)"/>
  <ellipse cx="-45.0" cy="270.0" fill="#1b9fd8" rx="14.0" ry="14.0" stroke-width="0" transform=" rotate(0, -45, 270)"/>
  <ellipse cx="-15.0" cy="270.0" fill="#006ca1" rx="14.0" ry="14.0" stroke-width="0" transform=" rotate(0, -15, 270)"/>
  <ellipse cx="15.0" cy="270.0" fill="#6dd6ff" rx="14.0" ry="14.0" stroke-width="0" transform=" rotate(0, 15, 270)"/>
  <ellipse cx="45.0" cy="270.0" fill="#1b9fd8" rx="14.0" ry="14.0" stroke-width="0" transform=" rotate(0, 45, 270)"/>
  <ellipse cx="75.0" cy="270.0" fill="#006ca1" rx="14.0" ry="14.0" stroke-width="0" transform=" rotate(0, 75, 270)"/>
  <ellipse cx="105.0" cy="270.0" fill="#6dd6ff" rx="14.0" ry="14.0" stroke-width="0" transform=" rotate(0, 105, 270)"/>
  <ellipse cx="135.0" cy="270.0" fill="#1b9fd8" rx="14.0" ry="14.0" stroke-width="0" transform=" rotate(0, 135, 270)"/>
  <ellipse cx="165.0" cy="270.0" fill="#006ca1" rx="14.0" ry="14.0" stroke-width="0" transform=" rotate(0, 165, 270)"/>
  <ellipse cx="195.0" cy="270.0" fill="#6dd6ff" rx="14.0" ry="14.0" stroke-width="0" transform=" rotate(0, 195, 270)"/>
  <ellipse cx="225.0" cy="270.0" fill="#1b9fd8" rx="14.0" ry="14.0" stroke-width="0" transform=" rotate(0, 225, 270)"/>
  <ellipse cx="255.0" cy="270.0" fill="#006ca1" rx="14.0" ry="14.0" stroke-width="0" transform=" rotate(0, 255, 270)"/>
  <ellipse cx="285.0" cy="270.0" fill="#6dd6ff" rx="14.0" ry="14.0" stroke-width="0" transform=" rotate(0, 285, 270)"/>
  <ellipse cx="315.0" cy="270.0" fill="#1b9fd8" rx="14.0" ry="14.0" stroke-width="0" transform=" rotate(0, 315, 270)"/>
  <ellipse cx="345.0" cy="270.0" fill="#006ca1" rx="14.0" ry="14.0" stroke-width="0" transform=" rotate(0, 345, 270)"/>
  <ellipse cx="375.0" cy="270.0" fill="#6dd6ff" rx="14.0" ry="14.0" stroke-width="0" transform=" rotate(0, 375, 270)"/>
  <ellipse cx="405.0" cy="270.0" fill="#1b9fd8" rx="14.0" ry="14.0" stroke-width="0" transform=" rotate(0, 405, 270)"/>
  <ellipse cx="435.0" cy="270.0" fill="#006ca1" rx="14.0" ry="14.0" stroke-width="0" transform=" rotate(0, 435, 270)"/>
  <ellipse cx="465.0" cy="270.0" fill="#6dd6ff" rx="14.0" ry="14.0" stroke-width="0" transform=" rotate(0, 465, 270)"/>
  <ellipse cx="495.0" cy="270.0" fill="#1b9fd8" rx="14.0" ry="14.0" stroke-width="0" transform=" rotate(0, 495, 270)"/>
  <ellipse cx="525.0" cy="270.0" fill="#006ca1" rx="14.0" ry="14.0" stroke-width="0" transform=" rotate(0, 525, 270)"/>
  <ellipse cx="555.0" cy="270.0" fill="#6dd6ff" rx="14.0" ry="14.0" stroke-width="0" transform=" rotate(0, 555, 270)"/>
  <ellipse cx="585.0" cy="270.0" fill="#1b9fd8" rx="14.0" ry="14.0" stroke-width="0" transform=" rotate(0, 585, 270)"/>
  <ellipse cx="615.0" cy="270.0" fill="#006ca1" rx="14.0" ry="14.0" stroke-width="0" transform=" rotate(0, 615, 270)"/>
  <ellipse cx="645.0" cy="270.0" fill="#6dd6ff" rx="14.0" ry="14.0" stroke-width="0" transform=" rotate(0, 645, 270)"/>
  <ellipse cx="-45.0" cy="330.0" fill="#1b9fd8" rx="14.0" ry="14.0" stroke-width="0" transform=" rotate(0, -45, 330)"/>
  <ellipse cx="-15.0" cy="330.0" fill="#006ca1" rx="14.0" ry="14.0" stroke-width="0" transform=" rotate(0, -15, 330)"/>
  <ellipse cx="15.0" cy="330.0" fill="#6dd6ff" rx="14.0" ry="14.0" stroke-width="0" transform=" rotate(0, 15, 330)"/>
  <ellipse cx="45.0" cy="330.0" fill="#1b9fd8" rx="14.0" ry="14.0" stroke-width="0" transform=" rotate(0, 45, 330)"/>
  <ellipse cx="75.0" cy="330.0" fill="#006ca1" rx="14.0" ry="14.0" stroke-width="0" transform=" rotate(0, 75, 330)"/>
  <ellipse cx="105.0" cy="330.0" fill="#6dd6ff" rx="14.0" ry="14.0" stroke-width="0" transform=" rotate(0, 105, 330)"/>
  <ellipse cx="135.0" cy="330.0" fill="#1b9fd8" rx="14.0" ry="14.0" stroke-width="0" transform=" rotate(0, 135, 330)"/>
  <ellipse cx="165.0" cy="330.0" fill="#006ca1" rx="14.0" ry="14.0" stroke-width="0" transform=" rotate(0, 165, 330)"/>
  <ellipse cx="195.0" cy="330.0" fill="#6dd6ff" rx="14.0" ry="14.0" stroke-width="0" transform=" rotate(0, 195, 330)"/>
  <ellipse cx="225.0" cy="330.0" fill="#1b9fd8" rx="14.0" ry="14.0" stroke-width="0" transform=" rotate(0, 225, 330)"/>
  <ellipse cx="255.0" cy="330.0" fill="#006ca1" rx="14.0" ry="14.0" stroke-width="0" transform=" rotate(0, 255, 330)"/>
  <ellipse cx="285.0" cy="330.0" fill="#6dd6ff" rx="14.0" ry="14.0" stroke-width="0" transform=" rotate(0, 285, 330)"/>
  <ellipse cx="315.0" cy="330.0" fill="#1b9fd8" rx="14.0" ry="14.0" stroke-width="0" transform=" rotate(0, 315, 330)"/>
  <ellipse cx="345.0" cy="330.0" fill="#006ca1" rx="14.0" ry="14.0" stroke-width="0" transform=" rotate(0, 345, 330)"/>
  <ellipse cx="375.0" cy="330.0" fill="#6dd6ff" rx="14.0" ry="14.0" stroke-width="0" transform=" rotate(0, 375, 330)"/>
  <ellipse cx="405.0" cy="330.0" fill="#1b9fd8" rx="14.0" ry="14.0" stroke-width="0" transform=" rotate(0, 405, 330)"/>
  <ellipse cx="435.0" cy="330.0" fill="#006ca1" rx="14.0" ry="14.0" stroke-width="0" transform=" rotate(0, 435, 330)"/>
  <ellipse cx="465.0" cy="330.0" fill="#6dd6ff" rx="14.0" ry="14.0" stroke-width="0" transform=" rotate(0, 465, 330)"/>
  <ellipse cx="495.0" cy="330.0" fill="#1b9fd8" rx="14.0" ry="14.0" stroke-width="0" transform=" rotate(0, 495, 330)"/>
  <ellipse cx="525.0" cy="330.0" fill="#006ca1" rx="14.0" ry="14.0" stroke-width="0" transform=" rotate(0, 525, 330)"/>
  <ellipse cx="555.0" cy="330.0" fill="#6dd6ff" rx="14.0" ry="14.0" stroke-width="0" transform=" rotate(0, 555, 330)"/>
  <ellipse cx="585.0" cy="330.0" fill="#1b9fd8" rx="14.0" ry="14.0" stroke-width="0" transform=" rotate(0, 585, 330)"/>
  <ellipse cx="615.0" cy="330.0" fill="#006ca1" rx="14.0" ry="14.0" stroke-width="0" transform=" rotate(0, 615, 330)"/>
  <ellipse cx="645.0" cy="330.0" fill="#6dd6ff" rx="14.0" ry="14.0" stroke-width="0" transform=" rotate(0, 645, 330)"/>
  <ellipse cx="-45.0" cy="390.0" fill="#1b9fd8" rx="14.0" ry="14.0" stroke-width="0" transform=" rotate(0, -45, 390)"/>
  <ellipse cx="-15.0" cy="390.0" fill="#006ca1" rx="14.0" ry="14.0" stroke-width="0" transform=" rotate(0, -15, 390)"/>
  <ellipse cx="15.0" cy="390.0" fill="#6dd6ff" rx="14.0" ry="14.0" stroke-width="0" transform=" rotate(0, 15, 390)"/>
  <ellipse cx="45.0" cy="390.0" fill="#1b9fd8" rx="14.0" ry="14.0" stroke-width="0" transform=" rotate(0, 45, 390)"/>
  <ellipse cx="75.0" cy="390.0" fill="#006ca1" rx="14.0" ry="14.0" stroke-width="0" transform=" rotate(0, 75, 390)"/>
  <ellipse cx="105.0" cy="390.0" fill="#6dd6ff" rx="14.0" ry="14.0" stroke-width="0" transform=" rotate(0, 105, 390)"/>
  <ellipse cx="135.0" cy="390.0" fill="#1b9fd8" rx="14.0" ry="14.0" stroke-width="0" transform=" rotate(0, 135, 390)"/>
  <ellipse cx="165.0" cy="390.0" fill="#006ca1" rx="14.0" ry="14.0" stroke-width="0" transform=" rotate(0, 165, 390)"/>
  <ellipse cx="195.0" cy="390.0" fill="#6dd6ff" rx="14.0" ry="14.0" stroke-width="0" transform=" rotate(0, 195, 390)"/>
  <ellipse cx="225.0" cy="390.0" fill="#1b9fd8" rx="14.0" ry="14.0" stroke-width="0" transform=" rotate(0, 225, 390)"/>
  <ellipse cx="255.0" cy="390.0" fill="#006ca1" rx="14.0" ry="14.0" stroke-width="0" transform=" rotate(0, 255, 390)"/>
  <ellipse cx="285.0" cy="390.0" fill="#6dd6ff" rx="14.0" ry="14.0" stroke-width="0" transform=" rotate(0, 285, 390)"/>
  <ellipse cx="315.0" cy="390.0" fill="#1b9fd8" rx="14.0" ry="14.0" stroke-width="0" transform=" rotate(0, 315, 390)"/>
  <ellipse cx="345.0" cy="390.0" fill="#006ca1" rx="14.0" ry="14.0" stroke-width="0" transform=" rotate(0, 345, 390)"/>
  <ellipse cx="375.0" cy="390.0" fill="#6dd6ff" rx="14.0" ry="14.0" stroke-width="0" transform=" rotate(0, 375, 390)"/>
  <ellipse cx="405.0" cy="390.0" fill="#1b9fd8" rx="14.0" ry="14.0" stroke-width="0" transform=" rotate(0, 405, 390)"/>
  <ellipse cx="435.0" cy="390.0" fill="#006ca1" rx="14.0" ry="14.0" stroke-width="0" transform=" rotate(0, 435, 390)"/>
  <ellipse cx="465.0" cy="390.0" fill="#6dd6ff" rx="14.0" ry="14.0" stroke-width="0" transform=" rotate(0, 465, 390)"/>
  <ellipse cx="495.0" cy="390.0" fill="#1b9fd8" rx="14.0" ry="14.0" stroke-width="0" transform=" rotate(0, 495, 390)"/>
  <ellipse cx="525.0" cy="390.0" fill="#006ca1" rx="14.0" ry="14.0" stroke-width="0" transform=" rotate(0, 525, 390)"/>
  <ellipse cx="555.0" cy="390.0" fill="#6dd6ff" rx="14.0" ry="14.0" stroke-width="0" transform=" rotate(0, 555, 390)"/>
  <ellipse cx="585.0" cy="390.0" fill="#1b9fd8" rx="14.0" ry="14.0" stroke-width="0" transform=" rotate(0, 585, 390)"/>
  <ellipse cx="615.0" cy="390.0" fill="#006ca1" rx="14.0" ry="14.0" stroke-width="0" transform=" rotate(0, 615, 390)"/>
  <ellipse cx="645.0" cy="390.0" fill="#6dd6ff" rx="14.0" ry="14.0" stroke-width="0" transform=" rotate(0, 645, 390)"/>
  <ellipse cx="-45.0" cy="450.0" fill="#1b9fd8" rx="14.0" ry="14.0" stroke-width="0" transform=" rotate(0, -45, 450)"/>
  <ellipse cx="-15.0" cy="450.0" fill="#006ca1" rx="14.0" ry="14.0" stroke-width="0" transform=" rotate(0, -15, 450)"/>
  <ellipse cx="15.0" cy="450.0" fill="#6dd6ff" rx="14.0" ry="14.0" stroke-width="0" transform=" rotate(0, 15, 450)"/>
  <ellipse cx="45.0" cy="450.0" fill="#1b9fd8" rx="14.0" ry="14.0" stroke-width="0" transform=" rotate(0, 45, 450)"/>
  <ellipse cx="75.0" cy="450.0" fill="#006ca1" rx="14.0" ry="14.0" stroke-width="0" transform=" rotate(0, 75, 450)"/>
  <ellipse cx="105.0" cy="450.0" fill="#6dd6ff" rx="14.0" ry="14.0" stroke-width="0" transform=" rotate(0, 105, 450)"/>
  <ellipse cx="135.0" cy="450.0" fill="#1b9fd8" rx="14.0" ry="14.0" stroke-width="0" transform=" rotate(0, 135, 450)"/>
  <ellipse cx="165.0" cy="450.0" fill="#006ca1" rx="14.0" ry="14.0" stroke-width="0" transform=" rotate(0, 165, 450)"/>
  <ellipse cx="195.0" cy="450.0" fill="#6dd6ff" rx="14.0" ry="14.0" stroke-width="0" transform=" rotate(0, 195, 450)"/>
  <ellipse cx="225.0" cy="450.0" fill="#1b9fd8" rx="14.0" ry="14.0" stroke-width="0" transform=" rotate(0, 225, 450)"/>
  <ellipse cx="255.0" cy="450.0" fill="#006ca1" rx="14.0" ry="14.0" stroke-width="0" transform=" rotate(0, 255, 450)"/>
  <ellipse cx="285.0" cy="450.0" fill="#6dd6ff" rx="14.0" ry="14.0" stroke-width="0" transform=" rotate(0, 285, 450)"/>
  <ellipse cx="315.0" cy="450.0" fill="#1b9fd8" rx="14.0" ry="14.0" stroke-width="0" transform=" rotate(0, 315, 450)"/>
  <ellipse cx="345.0" cy="450.0" fill="#006ca1" rx="14.0" ry="14.0" stroke-width="0" transform=" rotate(0, 345, 450)"/>
  <ellipse cx="375.0" cy="450.0" fill="#6dd6ff" rx="14.0" ry="14.0" stroke-width="0" transform=" rotate(0, 375, 450)"/>
  <ellipse cx="405.0" cy="450.0" fill="#1b9fd8" rx="14.0" ry="14.0" stroke-width="0" transform=" rotate(0, 405, 450)"/>
  <ellipse cx="435.0" cy="450.0" fill="#006ca1" rx="14.0" ry="14.0" stroke-width="0" transform=" rotate(0, 435, 450)"/>
  <ellipse cx="465.0" cy="450.0" fill="#6dd6ff" rx="14.0" ry="14.0" stroke-width="0" transform=" rotate(0, 465, 450)"/>
  <ellipse cx="495.0" cy="450.0" fill="#1b9fd8" rx="14.0" ry="14.0" stroke-width="0" transform=" rotate(0, 495, 450)"/>
  <ellipse cx="525.0" cy="450.0" fill="#006ca1" rx="14.0" ry="14.0" stroke-width="0" transform=" rotate(0, 525, 450)"/>
  <ellipse cx="555.0" cy="450.0" fill="#6dd6ff" rx="14.0" ry="14.0" stroke-width="0" transform=" rotate(0, 555, 450)"/>
  <ellipse cx="585.0" cy="450.0" fill="#1b9fd8" rx="14.0" ry="14.0" stroke-width="0" transform=" rotate(0, 585, 450)"/>
  <ellipse cx="615.0" cy="450.0" fill="#006ca1" rx="14.0" ry="14.0" stroke-width="0" transform=" rotate(0, 615, 450)"/>
  <ellipse cx="645.0" cy="450.0" fill="#6dd6ff" rx="14.0" ry="14.0" stroke-width="0" transform=" rotate(0, 645, 450)"/>
  <ellipse cx="-45.0" cy="510.0" fill="#1b9fd8" rx="14.0" ry="14.0" stroke-width="0" transform=" rotate(0, -45, 510)"/>
  <ellipse cx="-15.0" cy="510.0" fill="#006ca1" rx="14.0" ry="14.0" stroke-width="0" transform=" rotate(0, -15, 510)"/>
  <ellipse cx="15.0" cy="510.0" fill="#6dd6ff" rx="14.0" ry="14.0" stroke-width="0" transform=" rotate(0, 15, 510)"/>
  <ellipse cx="45.0" cy="510.0" fill="#1b9fd8" rx="14.0" ry="14.0" stroke-width="0" transform=" rotate(0, 45, 510)"/>
  <ellipse cx="75.0" cy="510.0" fill="#006ca1" rx="14.0" ry="14.0" stroke-width="0" transform=" rotate(0, 75, 510)"/>
  <ellipse cx="105.0" cy="510.0" fill="#6dd6ff" rx="14.0" ry="14.0" stroke-width="0" transform=" rotate(0, 105, 510)"/>
  <ellipse cx="135.0" cy="510.0" fill="#1b9fd8" rx="14.0" ry="14.0" stroke-width="0" transform=" rotate(0, 135, 510)"/>
  <ellipse cx="165.0" cy="510.0" fill="#006ca1" rx="14.0" ry="14.0" stroke-width="0" transform=" rotate(0, 165, 510)"/>
  <ellipse cx="195.0" cy="510.0" fill="#6dd6ff" rx="14.0" ry="14.0" stroke-width="0" transform=" rotate(0, 195, 510)"/>
  <ellipse cx="225.0" cy="510.0" fill="#1b9fd8" rx="14.0" ry="14.0" stroke-width="0" transform=" rotate(0, 225, 510)"/>
  <ellipse cx="255.0" cy="510.0" fill="#006ca1" rx="14.0" ry="14.0" stroke-width="0" transform=" rotate(0, 255, 510)"/>
  <ellipse cx="285.0" cy="510.0" fill="#6dd6ff" rx="14.0" ry="14.0" stroke-width="0" transform=" rotate(0, 285, 510)"/>
  <ellipse cx="315.0" cy="510.0" fill="#1b9fd8" rx="14.0" ry="14.0" stroke-width="0" transform=" rotate(0, 315, 510)"/>
  <ellipse cx="345.0" cy="510.0" fill="#006ca1" rx="14.0" ry="14.0" stroke-width="0" transform=" rotate(0, 345, 510)"/>
  <ellipse cx="375.0" cy="510.0" fill="#6dd6ff" rx="14.0" ry="14.0" stroke-width="0" transform=" rotate(0, 375, 510)"/>
  <ellipse cx="405.0" cy="510.0" fill="#1b9fd8" rx="14.0" ry="14.0" stroke-width="0" transform=" rotate(0, 405, 510)"/>
  <ellipse cx="435.0" cy="510.0" fill="#006ca1" rx="14.0" ry="14.0" stroke-width="0" transform=" rotate(0, 435, 510)"/>
  <ellipse cx="465.0" cy="510.0" fill="#6dd6ff" rx="14.0" ry="14.0" stroke-width="0" transform=" rotate(0, 465, 510)"/>
  <ellipse cx="495.0" cy="510.0" fill="#1b9fd8" rx="14.0" ry="14.0" stroke-width="0" transform=" rotate(0, 495, 510)"/>
  <ellipse cx="525.0" cy="510.0" fill="#006ca1" rx="14.0" ry="14.0" stroke-width="0" transform=" rotate(0, 525, 510)"/>
  <ellipse cx="555.0" cy="510.0" fill="#6dd6ff" rx="14.0" ry="14.0" stroke-width="0" transform=" rotate(0, 555, 510)"/>
  <ellipse cx="585.0" cy="510.0" fill="#1b9fd8" rx="14.0" ry="14.0" stroke-width="0" transform=" rotate(0, 585, 510)"/>
  <ellipse cx="615.0" cy="510.0" fill="#006ca1" rx="14.0" ry="14.0" stroke-width="0" transform=" rotate(0, 615, 510)"/>
  <ellipse cx="645.0" cy="510.0" fill="#6dd6ff" rx="14.0" ry="14.0" stroke-width="0" transform=" rotate(0, 645, 510)"/>
  <ellipse cx="-45.0" cy="570.0" fill="#1b9fd8" rx="14.0" ry="14.0" stroke-width="0" transform=" rotate(0, -45, 570)"/>
  <ellipse cx="-15.0" cy="570.0" fill="#006ca1" rx="14.0" ry="14.0" stroke-width="0" transform=" rotate(0, -15, 570)"/>
  <ellipse cx="15.0" cy="570.0" fill="#6dd6ff" rx="14.0" ry="14.0" stroke-width="0" transform=" rotate(0, 15, 570)"/>
  <ellipse cx="45.0" cy="570.0" fill="#1b9fd8" rx="14.0" ry="14.0" stroke-width="0" transform=" rotate(0, 45, 570)"/>
  <ellipse cx="75.0" cy="570.0" fill="#006ca1" rx="14.0" ry="14.0" stroke-width="0" transform=" rotate(0, 75, 570)"/>
  <ellipse cx="105.0" cy="570.0" fill="#6dd6ff" rx="14.0" ry="14.0" stroke-width="0" transform=" rotate(0, 105, 570)"/>
  <ellipse cx="135.0" cy="570.0" fill="#1b9fd8" rx="14.0" ry="14.0" stroke-width="0" transform=" rotate(0, 135, 570)"/>
  <ellipse cx="165.0" cy="570.0" fill="#006ca1" rx="14.0" ry="14.0" stroke-width="0" transform=" rotate(0, 165, 570)"/>
  <ellipse cx="195.0" cy="570.0" fill="#6dd6ff" rx="14.0" ry="14.0" stroke-width="0" transform=" rotate(0, 195, 570)"/>
  <ellipse cx="225.0" cy="570.0" fill="#1b9fd8" rx="14.0" ry="14.0" stroke-width="0" transform=" rotate(0, 225, 570)"/>
  <ellipse cx="255.0" cy="570.0" fill="#006ca1" rx="14.0" ry="14.0" stroke-width="0" transform=" rotate(0, 255, 570)"/>
  <ellipse cx="285.0" cy="570.0" fill="#6dd6ff" rx="14.0" ry="14.0" stroke-width="0" transform=" rotate(0, 285, 570)"/>
  <ellipse cx="315.0" cy="570.0" fill="#1b9fd8" rx="14.0" ry="14.0" stroke-width="0" transform=" rotate(0, 315, 570)"/>
  <ellipse cx="345.0" cy="570.0" fill="#006ca1" rx="14.0" ry="14.0" stroke-width="0" transform=" rotate(0, 345, 570)"/>
  <ellipse cx="375.0" cy="570.0" fill="#6dd6ff" rx="14.0" ry="14.0" stroke-width="0" transform=" rotate(0, 375, 570)"/>
  <ellipse cx="405.0" cy="570.0" fill="#1b9fd8" rx="14.0" ry="14.0" stroke-width="0" transform=" rotate(0, 405, 570)"/>
  <ellipse cx="435.0" cy="570.0" fill="#006ca1" rx="14.0" ry="14.0" stroke-width="0" transform=" rotate(0, 435, 570)"/>
  <ellipse cx="465.0" cy="570.0" fill="#6dd6ff" rx="14.0" ry="14.0" stroke-width="0" transform=" rotate(0, 465, 570)"/>
  <ellipse cx="495.0" cy="570.0" fill="#1b9fd8" rx="14.0" ry="14.0" stroke-width="0" transform=" rotate(0, 495, 570)"/>
  <ellipse cx="525.0" cy="570.0" fill="#006ca1" rx="14.0" ry="14.0" stroke-width="0" transform=" rotate(0, 525, 570)"/>
  <ellipse cx="555.0" cy="570.0" fill="#6dd6ff" rx="14.0" ry="14.0" stroke-width="0" transform=" rotate(0, 555, 570)"/>
  <ellipse cx="585.0" cy="570.0" fill="#1b9fd8" rx="14.0" ry="14.0" stroke-width="0" transform=" rotate(0, 585, 570)"/>
  <ellipse cx="615.0" cy="570.0" fill="#006ca1" rx="14.0" ry="14.0" stroke-width="0" transform=" rotate(0, 615, 570)"/>
  <ellipse cx="645.0" cy="570.0" fill="#6dd6ff" rx="14.0" ry="14.0" stroke-width="0" transform=" rotate(0, 645, 570)"/>
  <ellipse cx="-45.0" cy="630.0" fill="#1b9fd8" rx="14.0" ry="14.0" stroke-width="0" transform=" rotate(0, -45, 630)"/>
  <ellipse cx="-15.0" cy="630.0" fill="#006ca1" rx="14.0" ry="14.0" stroke-width="0" transform=" rotate(0, -15, 630)"/>
  <ellipse cx="15.0" cy="630.0" fill="#6dd6ff" rx="14.0" ry="14.0" stroke-width="0" transform=" rotate(0, 15, 630)"/>
  <ellipse cx="45.0" cy="630.0" fill="#1b9fd8" rx="14.0" ry="14.0" stroke-width="0" transform=" rotate(0, 45, 630)"/>
  <ellipse cx="75.0" cy="630.0" fill="#006ca1" rx="14.0" ry="14.0" stroke-width="0" transform=" rotate(0, 75, 630)"/>
  <ellipse cx="105.0" cy="630.0" fill="#6dd6ff" rx="14.0" ry="14.0" stroke-width="0" transform=" rotate(0, 105, 630)"/>
  <ellipse cx="135.0" cy="630.0" fill="#1b9fd8" rx="14.0" ry="14.0" stroke-width="0" transform=" rotate(0, 135, 630)"/>
  <ellipse cx="165.0" cy="630.0" fill="#006ca1" rx="14.0" ry="14.0" stroke-width="0" transform=" rotate(0, 165, 630)"/>
  <ellipse cx="195.0" cy="630.0" fill="#6dd6ff" rx="14.0" ry="14.0" stroke-width="0" transform=" rotate(0, 195, 630)"/>
  <ellipse cx="225.0" cy="630.0" fill="#1b9fd8" rx="14.0" ry="14.0" stroke-width="0" transform=" rotate(0, 225, 630)"/>
  <ellipse cx="255.0" cy="630.0" fill="#006ca1" rx="14.0" ry="14.0" stroke-width="0" transform=" rotate(0, 255, 630)"/>
  <ellipse cx="285.0" cy="630.0" fill="#6dd6ff" rx="14.0" ry="14.0" stroke-width="0" transform=" rotate(0, 285, 630)"/>
  <ellipse cx="315.0" cy="630.0" fill="#1b9fd8" rx="14.0" ry="14.0" stroke-width="0" transform=" rotate(0, 315, 630)"/>
  <ellipse cx="345.0" cy="630.0" fill="#006ca1" rx="14.0" ry="14.0" stroke-width="0" transform=" rotate(0, 345, 630)"/>
  <ellipse cx="375.0" cy="630.0" fill="#6dd6ff" rx="14.0" ry="14.0" stroke-width="0" transform=" rotate(0, 375, 630)"/>
  <ellipse cx="405.0" cy="630.0" fill="#1b9fd8" rx="14.0" ry="14.0" stroke-width="0" transform=" rotate(0, 405, 630)"/>
  <ellipse cx="435.0" cy="630.0" fill="#006ca1" rx="14.0" ry="14.0" stroke-width="0" transform=" rotate(0, 435, 630)"/>
  <ellipse cx="465.0" cy="630.0" fill="#6dd6ff" rx="14.0" ry="14.0" stroke-width="0" transform=" rotate(0, 465, 630)"/>
  <ellipse cx="495.0" cy="630.0" fill="#1b9fd8" rx="14.0" ry="14.0" stroke-width="0" transform=" rotate(0, 495, 630)"/>
  <ellipse cx="525.0" cy="630.0" fill="#006ca1" rx="14.0" ry="14.0" stroke-width="0" transform=" rotate(0, 525, 630)"/>
  <ellipse cx="555.0" cy="630.0" fill="#6dd6ff" rx="14.0" ry="14.0" stroke-width="0" transform=" rotate(0, 555, 630)"/>
  <ellipse cx="585.0" cy="630.0" fill="#1b9fd8" rx="14.0" ry="14.0" stroke-width="0" transform=" rotate(0, 585, 630)"/>
  <ellipse cx="615.0" cy="630.0" fill="#006ca1" rx="14.0" ry="14.0" stroke-width="0" transform=" rotate(0, 615, 630)"/>
  <ellipse cx="645.0" cy="630.0" fill="#6dd6ff" rx="14.0" ry="14.0" stroke-width="0" transform=" rotate(0, 645, 630)"/>
</svg>
