<?xml version="1.0" encoding="utf-8" ?>
<svg baseProfile="tiny" height="600" version="1.2" width="600" xmlns="http://www.w3.org/2000/svg" xmlns:ev="http://www.w3.org/2001/xml-events" xmlns:xlink="http://www.w3.org/1999/xlink">
  <defs/>
  <ellipse cx="-45.0" cy="-45.0" fill="#1b9fd8" rx="14.0" ry="14.0" stroke-width="0" transform=" rotate(0, -45, -45)"/>
  <ellipse cx="-15.0" cy="-45.0" fill="#1b9fd8" rx="14.0" ry="14.0" stroke-width="0" transform=" rotate(0, -15, -45)"/>
  <ellipse cx="15.0" cy="-45.0" fill="#1b9fd8" rx="14.0" ry="14.0" stroke-width="0" transform=" rotate(0, 15, -45)"/>
  <ellipse cx="45.0" cy="-45.0" fill="#1b9fd8" rx="14.0" ry="14.0" stroke-width="0" transform=" rotate(0, 45, -45)"/>
  <ellipse cx="75.0" cy="-45.0" fill="#1b9fd8" rx="14.0" ry="14.0" stroke-width="0" transform=" rotate(0, 75, -45)"/>
  <ellipse cx="105.0" cy="-45.0" fill="#1b9fd8" rx="14.0" ry="14.0" stroke-width="0" transform=" rotate(0, 105, -45)"/>
  <ellipse cx="135.0" cy="-45.0" fill="#1b9fd8" rx="14.0" ry="14.0" stroke-width="0" transform=" rotate(0, 135, -45)"/>
  <ellipse cx="165.0" cy="-45.0" fill="#1b9fd8" rx="14.0" ry="14.0" stroke-width="0" transform=" rotate(0, 165, -45)"/>
  <ellipse cx="195.0" cy="-45.0" fill="#1b9fd8" rx="14.0" ry="14.0" stroke-width="0" transform=" rotate(0, 195, -45)"/>
  <ellipse cx="225.0" cy="-45.0" fill="#1b9fd8" rx="14.0" ry="14.0" stroke-width="0" transform=" rotate(0, 225, -45)"/>
  <ellipse cx="255.0" cy="-45.0" fill="#1b9fd8" rx="14.0" ry="14.0" stroke-width="0" transform=" rotate(0, 255, -45)"/>
  <ellipse cx="285.0" cy="-45.0" fill="#1b9fd8" rx="14.0" ry="14.0" stroke-width="0" transform=" rotate(0, 285, -45)"/>
  <polygon fill="#1b9fd8" points="301.0,-31.0 315.0,-59.0 329.0,-31.0" stroke-width="0" transform=" rotate(0, 315, -45)"/>
  <polygon fill="#1b9fd8" points="331.0,-31.0 345.0,-59.0 359.0,-31.0" stroke-width="0" transform=" rotate(0, 345, -45)"/>
  <polygon fill="#1b9fd8" points="361.0,-31.0 375.0,-59.0 389.0,-31.0" stroke-width="0" transform=" rotate(0, 375, -45)"/>
  <polygon fill="#1b9fd8" points="391.0,-31.0 405.0,-59.0 419.0,-31.0" stroke-width="0" transform=" rotate(0, 405, -45)"/>
  <polygon fill="#1b9fd8" points="421.0,-31.0 435.0,-59.0 449.0,-31.0" stroke-width="0" transform=" rotate(0, 435, -45)"/>
  <polygon fill="#1b9fd8" points="451.0,-31.0 465.0,-59.0 479.0,-31.0" stroke-width="0" transform=" rotate(0, 465, -45)"/>
  <polygon fill="#1b9fd8" points="481.0,-31.0 495.0,-59.0 509.0,-31.0" stroke-width="0" transform=" rotate(0, 495, -45)"/>
  <polygon fill="#1b9fd8" points="511.0,-31.0 525.0,-59.0 539.0,-31.0" stroke-width="0" transform=" rotate(0, 525, -45)"/>
  <polygon fill="#1b9fd8" points="541.0,-31.0 555.0,-59.0 569.0,-31.0" stroke-width="0" transform=" rotate(0, 555, -45)"/>
  <polygon fill="#1b9fd8" points="571.0,-31.0 585.0,-59.0 599.0,-31.0" stroke-width="0" transform=" rotate(0, 585, -45)"/>
  <polygon fill="#1b9fd8" points="601.0,-31.0 615.0,-59.0 629.0,-31.0" stroke-width="0" transform=" rotate(0, 615, -45)"/>
  <polygon fill="#1b9fd8" points="631.0,-31.0 645.0,-59.0 659.0,-31.0" stroke-width="0" transform=" rotate(0, 645, -45)"/>
  <ellipse cx="-45.0" cy="-15.0" fill="#1b9fd8" rx="14.0" ry="14.0" stroke-width="0" transform=" rotate(0, -45, -15)"/>
  <ellipse cx="-15.0" cy="-15.0" fill="#1b9fd8" rx="14.0" ry="14.0" stroke-width="0" transform=" rotate(0, -15, -15)"/>
  <ellipse cx="15.0" cy="-15.0" fill="#1b9fd8" rx="14.0" ry="14.0" stroke-width="0" transform=" rotate(0, 15, -15)"/>
  <ellipse cx="45.0" cy="-15.0" fill="#1b9fd8" rx="14.0" ry="14.0" stroke-width="0" transform=" rotate(0, 45, -15)"/>
  <ellipse cx="75.0" cy="-15.0" fill="#1b9fd8" rx="14.0" ry="14.0" stroke-width="0" transform=" rotate(0, 75, -15)"/>
  <ellipse cx="105.0" cy="-15.0" fill="#1b9fd8" rx="14.0" ry="14.0" stroke-width="0" transform=" rotate(0, 105, -15)"/>
  <ellipse cx="135.0" cy="-15.0" fill="#1b9fd8" rx="14.0" ry="14.0" stroke-width="0" transform=" rotate(0, 135, -15)"/>
  <ellipse cx="165.0" cy="-15.0" fill="#1b9fd8" rx="14.0" ry="14.0" stroke-width="0" transform=" rotate(0, 165, -15)"/>
  <ellipse cx="195.0" cy="-15.0" fill="#1b9fd8" rx="14.0" ry="14.0" stroke-width="0" transform=" rotate(0, 195, -15)"/>
  <ellipse cx="225.0" cy="-15.0" fill="#1b9fd8" rx="14.0" ry="14.0" stroke-width="0" transform=" rotate(0, 225, -15)"/>
  <ellipse cx="255.0" cy="-15.0" fill="#1b9fd8" rx="14.0" ry="14.0" stroke-width="0" transform=" rotate(0, 255, -15)"/>
  <ellipse cx="285.0" cy="-15.0" fill="#1b9fd8" rx="14.0" ry="14.0" stroke-width="0" transform=" rotate(0, 285, -15)"/>
  <polygon fill="#1b9fd8" points="301.0,-1.0 315.0,-29.0 329.0,-1.0" stroke-width="0" transform=" rotate(0, 315, -15)"/>
  <polygon fill="#1b9fd8" points="331.0,-1.0 345.0,-29.0 359.0,-1.0" stroke-width="0" transform=" rotate(0, 345, -15)"/>
  <polygon fill="#1b9fd8" points="361.0,-1.0 375.0,-29.0 389.0,-1.0" stroke-width="0" transform=" rotate(0, 375, -15)"/>
  <polygon fill="#1b9fd8" points="391.0,-1.0 405.0,-29.0 419.0,-1.0" stroke-width="0" transform=" rotate(0, 405, -15)"/>
  <polygon fill="#1b9fd8" points="421.0,-1.0 435.0,-29.0 449.0,-1.0" stroke-width="0" transform=" rotate(0, 435, -15)"/>
  <polygon fill="#1b9fd8" points="451.0,-1.0 465.0,-29.0 479.0,-1.0" stroke-width="0" transform=" rotate(0, 465, -15)"/>
  <polygon fill="#1b9fd8" points="481.0,-1.0 495.0,-29.0 509.0,-1.0" stroke-width="0" transform=" rotate(0, 495, -15)"/>
  <polygon fill="#1b9fd8" points="511.0,-1.0 525.0,-29.0 539.0,-1.0" stroke-width="0" transform=" rotate(0, 525, -15)"/>
  <polygon fill="#1b9fd8" points="541.0,-1.0 555.0,-29.0 569.0,-1.0" stroke-width="0" transform=" rotate(0, 555, -15)"/>
  <polygon fill="#1b9fd8" points="571.0,-1.0 585.0,-29.0 599.0,-1.0" stroke-width="0" transform=" rotate(0, 585, -15)"/>
  <polygon fill="#1b9fd8" points="601.0,-1.0 615.0,-29.0 629.0,-1.0" stroke-width="0" transform=" rotate(0, 615, -15)"/>
  <polygon fill="#1b9fd8" points="631.0,-1.0 645.0,-29.0 659.0,-1.0" stroke-width="0" transform=" rotate(0, 645, -15)"/>
  <ellipse cx="-45.0" cy="15.0" fill="#1b9fd8" rx="14.0" ry="14.0" stroke-width="0" transform=" rotate(0, -45, 15)"/>
  <ellipse cx="-15.0" cy="15.0" fill="#1b9fd8" rx="14.0" ry="14.0" stroke-width="0" transform=" rotate(0, -15, 15)"/>
  <ellipse cx="15.0" cy="15.0" fill="#1b9fd8" rx="14.0" ry="14.0" stroke-width="0" transform=" rotate(0, 15, 15)"/>
  <ellipse cx="45.0" cy="15.0" fill="#1b9fd8" rx="14.0" ry="14.0" stroke-width="0" transform=" rotate(0, 45, 15)"/>
  <ellipse cx="75.0" cy="15.0" fill="#1b9fd8" rx="14.0" ry="14.0" stroke-width="0" transform=" rotate(0, 75, 15)"/>
  <ellipse cx="105.0" cy="15.0" fill="#1b9fd8" rx="14.0" ry="14.0" stroke-width="0" transform=" rotate(0, 105, 15)"/>
  <ellipse cx="135.0" cy="15.0" fill="#1b9fd8" rx="14.0" ry="14.0" stroke-width="0" transform=" rotate(0, 135, 15)"/>
  <ellipse cx="165.0" cy="15.0" fill="#1b9fd8" rx="14.0" ry="14.0" stroke-width="0" transform=" rotate(0, 165, 15)"/>
  <ellipse cx="195.0" cy="15.0" fill="#1b9fd8" rx="14.0" ry="14.0" stroke-width="0" transform=" rotate(0, 195, 15)"/>
  <ellipse cx="225.0" cy="15.0" fill="#1b9fd8" rx="14.0" ry="14.0" stroke-width="0" transform=" rotate(0, 225, 15)"/>
  <ellipse cx="255.0" cy="15.0" fill="#1b9fd8" rx="14.0" ry="14.0" stroke-width="0" transform=" rotate(0, 255, 15)"/>
  <ellipse cx="285.0" cy="15.0" fill="#1b9fd8" rx="14.0" ry="14.0" stroke-width="0" transform=" rotate(0, 285, 15)"/>
  <polygon fill="#1b9fd8" points="301.0,29.0 315.0,1.0 329.0,29.0" stroke-width="0" transform=" rotate(0, 315, 15)"/>
  <polygon fill="#1b9fd8" points="331.0,29.0 345.0,1.0 359.0,29.0" stroke-width="0" transform=" rotate(0, 345, 15)"/>
  <polygon fill="#1b9fd8" points="361.0,29.0 375.0,1.0 389.0,29.0" stroke-width="0" transform=" rotate(0, 375, 15)"/>
  <polygon fill="#1b9fd8" points="391.0,29.0 405.0,1.0 419.0,29.0" stroke-width="0" transform=" rotate(0, 405, 15)"/>
  <polygon fill="#1b9fd8" points="421.0,29.0 435.0,1.0 449.0,29.0" stroke-width="0" transform=" rotate(0, 435, 15)"/>
  <polygon fill="#1b9fd8" points="451.0,29.0 465.0,1.0 479.0,29.0" stroke-width="0" transform=" rotate(0, 465, 15)"/>
  <polygon fill="#1b9fd8" points="481.0,29.0 495.0,1.0 509.0,29.0" stroke-width="0" transform=" rotate(0, 495, 15)"/>
  <polygon fill="#1b9fd8" points="511.0,29.0 525.0,1.0 539.0,29.0" stroke-width="0" transform=" rotate(0, 525, 15)"/>
  <polygon fill="#1b9fd8" points="541.0,29.0 555.0,1.0 569.0,29.0" stroke-width="0" transform=" rotate(0, 555, 15)"/>
  <polygon fill="#1b9fd8" points="571.0,29.0 585.0,1.0 599.0,29.0" stroke-width="0" transform=" rotate(0, 585, 15)"/>
  <polygon fill="#1b9fd8" points="601.0,29.0 615.0,1.0 629.0,29.0" stroke-width="0" transform=" rotate(0, 615, 15)"/>
  <polygon fill="#1b9fd8" points="631.0,29.0 645.0,1.0 659.0,29.0" stroke-width="0" transform=" rotate(0, 645, 15)"/>
  <ellipse cx="-45.0" cy="45.0" fill="#1b9fd8" rx="14.0" ry="14.0" stroke-width="0" transform=" rotate(0, -45, 45)"/>
  <ellipse cx="-15.0" cy="45.0" fill="#1b9fd8" rx="14.0" ry="14.0" stroke-width="0" transform=" rotate(0, -15, 45)"/>
  <ellipse cx="15.0" cy="45.0" fill="#1b9fd8" rx="14.0" ry="14.0" stroke-width="0" transform=" rotate(0, 15, 45)"/>
  <ellipse cx="45.0" cy="45.0" fill="#1b9fd8" rx="14.0" ry="14.0" stroke-width="0" transform=" rotate(0, 45, 45)"/>
  <ellipse cx="75.0" cy="45.0" fill="#1b9fd8" rx="14.0" ry="14.0" stroke-width="0" transform=" rotate(0, 75, 45)"/>
  <ellipse cx="105.0" cy="45.0" fill="#1b9fd8" rx="14.0" ry="14.0" stroke-width="0" transform=" rotate(0, 105, 45)"/>
  <ellipse cx="135.0" cy="45.0" fill="#1b9fd8" rx="14.0" ry="14.0" stroke-width="0" transform=" rotate(0, 135, 45)"/>
  <ellipse cx="165.0" cy="45.0" fill="#1b9fd8" rx="14.0" ry="14.0" stroke-width="0" transform=" rotate(0, 165, 45)"/>
  <ellipse cx="195.0" cy="45.0" fill="#1b9fd8" rx="14.0" ry="14.0" stroke-width="0" transform=" rotate(0, 195, 45)"/>
  <ellipse cx="225.0" cy="45.0" fill="#1b9fd8" rx="14.0" ry="14.0" stroke-width="0" transform=" rotate(0, 225, 45)"/>
  <ellipse cx="255.0" cy="45.0" fill="#1b9fd8" rx="14.0" ry="14.0" stroke-width="0" transform=" rotate(0, 255, 45)"/>
  <ellipse cx="285.0" cy="45.0" fill="#1b9fd8" rx="14.0" ry="14.0" stroke-width="0" transform=" rotate(0, 285, 45)"/>
  <polygon fill="#1b9fd8" points="301.0,59.0 315.0,31.0 329.0,59.0" stroke-width="0" transform=" rotate(0, 315, 45)"/>
  <polygon fill="#1b9fd8" points="331.0,59.0 345.0,31.0 359.0,59.0" stroke-width="0" transform=" rotate(0, 345, 45)"/>
  <polygon fill="#1b9fd8" points="361.0,59.0 375.0,31.0 389.0,59.0" stroke-width="0" transform=" rotate(0, 375, 45)"/>
  <polygon fill="#1b9fd8" points="391.0,59.0 405.0,31.0 419.0,59.0" stroke-width="0" transform=" rotate(0, 405, 45)"/>
  <polygon fill="#1b9fd8" points="421.0,59.0 435.0,31.0 449.0,59.0" stroke-width="0" transform=" rotate(0, 435, 45)"/>
  <polygon fill="#1b9fd8" points="451.0,59.0 465.0,31.0 479.0,59.0" stroke-width="0" transform=" rotate(0, 465, 45)"/>
  <polygon fill="#1b9fd8" points="481.0,59.0 495.0,31.0 509.0,59.0" stroke-width="0" transform=" rotate(0, 495, 45)"/>
  <polygon fill="#1b9fd8" points="511.0,59.0 525.0,31.0 539.0,59.0" stroke-width="0" transform=" rotate(0, 525, 45)"/>
  <polygon fill="#1b9fd8" points="541.0,59.0 555.0,31.0 569.0,59.0" stroke-width="0" transform=" rotate(0, 555, 45)"/>
  <polygon fill="#1b9fd8" points="571.0,59.0 585.0,31.0 599.0,59.0" stroke-width="0" transform=" rotate(0, 585, 45)"/>
  <polygon fill="#1b9fd8" points="601.0,59.0 615.0,31.0 629.0,59.0" stroke-width="0" transform=" rotate(0, 615, 45)"/>
  <polygon fill="#1b9fd8" points="631.0,59.0 645.0,31.0 659.0,59.0" stroke-width="0" transform=" rotate(0, 645, 45)"/>
  <ellipse cx="-45.0" cy="75.0" fill="#1b9fd8" rx="14.0" ry="14.0" stroke-width="0" transform=" rotate(0, -45, 75)"/>
  <ellipse cx="-15.0" cy="75.0" fill="#1b9fd8" rx="14.0" ry="14.0" stroke-width="0" transform=" rotate(0, -15, 75)"/>
  <ellipse cx="15.0" cy="75.0" fill="#1b9fd8" rx="14.0" ry="14.0" stroke-width="0" transform=" rotate(0, 15, 75)"/>
  <ellipse cx="45.0" cy="75.0" fill="#1b9fd8" rx="14.0" ry="14.0" stroke-width="0" transform=" rotate(0, 45, 75)"/>
  <ellipse cx="75.0" cy="75.0" fill="#1b9fd8" rx="14.0" ry="14.0" stroke-width="0" transform=" rotate(0, 75, 75)"/>
  <ellipse cx="105.0" cy="75.0" fill="#1b9fd8" rx="14.0" ry="14.0" stroke-width="0" transform=" rotate(0, 105, 75)"/>
  <ellipse cx="135.0" cy="75.0" fill="#1b9fd8" rx="14.0" ry="14.0" stroke-width="0" transform=" rotate(0, 135, 75)"/>
  <ellipse cx="165.0" cy="75.0" fill="#1b9fd8" rx="14.0" ry="14.0" stroke-width="0" transform=" rotate(0, 165, 75)"/>
  <ellipse cx="195.0" cy="75.0" fill="#1b9fd8" rx="14.0" ry="14.0" stroke-width="0" transform=" rotate(0, 195, 75)"/>
  <ellipse cx="225.0" cy="75.0" fill="#1b9fd8" rx="14.0" ry="14.0" stroke-width="0" transform=" rotate(0, 225, 75)"/>
  <ellipse cx="255.0" cy="75.0" fill="#1b9fd8" rx="14.0" ry="14.0" stroke-width="0" transform=" rotate(0, 255, 75)"/>
  <ellipse cx="285.0" cy="75.0" fill="#1b9fd8" rx="14.0" ry="14.0" stroke-width="0" transform=" rotate(0, 285, 75)"/>
  <polygon fill="#1b9fd8" points="301.0,89.0 315.0,61.0 329.0,89.0" stroke-width="0" transform=" rotate(0, 315, 75)"/>
  <polygon fill="#1b9fd8" points="331.0,89.0 345.0,61.0 359.0,89.0" stroke-width="0" transform=" rotate(0, 345, 75)"/>
  <polygon fill="#1b9fd8" points="361.0,89.0 375.0,61.0 389.0,89.0" stroke-width="0" transform=" rotate(0, 375, 75)"/>
  <polygon fill="#1b9fd8" points="391.0,89.0 405.0,61.0 419.0,89.0" stroke-width="0" transform=" rotate(0, 405, 75)"/>
  <polygon fill="#1b9fd8" points="421.0,89.0 435.0,61.0 449.0,89.0" stroke-width="0" transform=" rotate(0, 435, 75)"/>
  <polygon fill="#1b9fd8" points="451.0,89.0 465.0,61.0 479.0,89.0" stroke-width="0" transform=" rotate(0, 465, 75)"/>
  <polygon fill="#1b9fd8" points="481.0,89.0 495.0,61.0 509.0,89.0" stroke-width="0" transform=" rotate(0, 495, 75)"/>
  <polygon fill="#1b9fd8" points="511.0,89.0 525.0,61.0 539.0,89.0" stroke-width="0" transform=" rotate(0, 525, 75)"/>
  <polygon fill="#1b9fd8" points="541.0,89.0 555.0,61.0 569.0,89.0" stroke-width="0" transform=" rotate(0, 555, 75)"/>
  <polygon fill="#1b9fd8" points="571.0,89.0 585.0,61.0 599.0,89.0" stroke-width="0" transform=" rotate(0, 585, 75)"/>
  <polygon fill="#1b9fd8" points="601.0,89.0 615.0,61.0 629.0,89.0" stroke-width="0" transform=" rotate(0, 615, 75)"/>
  <polygon fill="#1b9fd8" points="631.0,89.0 645.0,61.0 659.0,89.0" stroke-width="0" transform=" rotate(0, 645, 75)"/>
  <ellipse cx="-45.0" cy="105.0" fill="#1b9fd8" rx="14.0" ry="14.0" stroke-width="0" transform=" rotate(0, -45, 105)"/>
  <ellipse cx="-15.0" cy="105.0" fill="#1b9fd8" rx="14.0" ry="14.0" stroke-width="0" transform=" rotate(0, -15, 105)"/>
  <ellipse cx="15.0" cy="105.0" fill="#1b9fd8" rx="14.0" ry="14.0" stroke-width="0" transform=" rotate(0, 15, 105)"/>
  <ellipse cx="45.0" cy="105.0" fill="#1b9fd8" rx="14.0" ry="14.0" stroke-width="0" transform=" rotate(0, 45, 105)"/>
  <ellipse cx="75.0" cy="105.0" fill="#1b9fd8" rx="14.0" ry="14.0" stroke-width="0" transform=" rotate(0, 75, 105)"/>
  <ellipse cx="105.0" cy="105.0" fill="#1b9fd8" rx="14.0" ry="14.0" stroke-width="0" transform=" rotate(0, 105, 105)"/>
  <ellipse cx="135.0" cy="105.0" fill="#1b9fd8" rx="14.0" ry="14.0" stroke-width="0" transform=" rotate(0, 135, 105)"/>
  <ellipse cx="165.0" cy="105.0" fill="#1b9fd8" rx="14.0" ry="14.0" stroke-width="0" transform=" rotate(0, 165, 105)"/>
  <ellipse cx="195.0" cy="105.0" fill="#1b9fd8" rx="14.0" ry="14.0" stroke-width="0" transform=" rotate(0, 195, 105)"/>
  <ellipse cx="225.0" cy="105.0" fill="#1b9fd8" rx="14.0" ry="14.0" stroke-width="0" transform=" rotate(0, 225, 105)"/>
  <ellipse cx="255.0" cy="105.0" fill="#1b9fd8" rx="14.0" ry="14.0" stroke-width="0" transform=" rotate(0, 255, 105)"/>
  <ellipse cx="285.0" cy="105.0" fill="#1b9fd8" rx="14.0" ry="14.0" stroke-width="0" transform=" rotate(0, 285, 105)"/>
  <polygon fill="#1b9fd8" points="301.0,119.0 315.0,91.0 329.0,119.0" stroke-width="0" transform=" rotate(0, 315, 105)"/>
  <polygon fill="#1b9fd8" points="331.0,119.0 345.0,91.0 359.0,119.0" stroke-width="0" transform=" rotate(0, 345, 105)"/>
  <polygon fill="#1b9fd8" points="361.0,119.0 375.0,91.0 389.0,119.0" stroke-width="0" transform=" rotate(0, 375, 105)"/>
  <polygon fill="#1b9fd8" points="391.0,119.0 405.0,91.0 419.0,119.0" stroke-width="0" transform=" rotate(0, 405, 105)"/>
  <polygon fill="#1b9fd8" points="421.0,119.0 435.0,91.0 449.0,119.0" stroke-width="0" transform=" rotate(0, 435, 105)"/>
  <polygon fill="#1b9fd8" points="451.0,119.0 465.0,91.0 479.0,119.0" stroke-width="0" transform=" rotate(0, 465, 105)"/>
  <polygon fill="#1b9fd8" points="481.0,119.0 495.0,91.0 509.0,119.0" stroke-width="0" transform=" rotate(0, 495, 105)"/>
  <polygon fill="#1b9fd8" points="511.0,119.0 525.0,91.0 539.0,119.0" stroke-width="0" transform=" rotate(0, 525, 105)"/>
  <polygon fill="#1b9fd8" points="541.0,119.0 555.0,91.0 569.0,119.0" stroke-width="0" transform=" rotate(0, 555, 105)"/>
  <polygon fill="#1b9fd8" points="571.0,119.0 585.0,91.0 599.0,119.0" stroke-width="0" transform=" rotate(0, 585, 105)"/>
  <polygon fill="#1b9fd8" points="601.0,119.0 615.0,91.0 629.0,119.0" stroke-width="0" transform=" rotate(0, 615, 105)"/>
  <polygon fill="#1b9fd8" points="631.0,119.0 645.0,91.0 659.0,119.0" stroke-width="0" transform=" rotate(0, 645, 105)"/>
  <ellipse cx="-45.0" cy="135.0" fill="#1b9fd8" rx="14.0" ry="14.0" stroke-width="0" transform=" rotate(0, -45, 135)"/>
  <ellipse cx="-15.0" cy="135.0" fill="#1b9fd8" rx="14.0" ry="14.0" stroke-width="0" transform=" rotate(0, -15, 135)"/>
  <ellipse cx="15.0" cy="135.0" fill="#1b9fd8" rx="14.0" ry="14.0" stroke-width="0" transform=" rotate(0, 15, 135)"/>
  <ellipse cx="45.0" cy="135.0" fill="#1b9fd8" rx="14.0" ry="14.0" stroke-width="0" transform=" rotate(0, 45, 135)"/>
  <ellipse cx="75.0" cy="135.0" fill="#1b9fd8" rx="14.0" ry="14.0" stroke-width="0" transform=" rotate(0, 75, 135)"/>
  <ellipse cx="105.0" cy="135.0" fill="#1b9fd8" rx="14.0" ry="14.0" stroke-width="0" transform=" rotate(0, 105, 135)"/>
  <ellipse cx="135.0" cy="135.0" fill="#1b9fd8" rx="14.0" ry="14.0" stroke-width="0" transform=" rotate(0, 135, 135)"/>
  <ellipse cx="165.0" cy="135.0" fill="#1b9fd8" rx="14.0" ry="14.0" stroke-width="0" transform=" rotate(0, 165, 135)"/>
  <ellipse cx="195.0" cy="135.0" fill="#1b9fd8" rx="14.0" ry="14.0" stroke-width="0" transform=" rotate(0, 195, 135)"/>
  <ellipse cx="225.0" cy="135.0" fill="#1b9fd8" rx="14.0" ry="14.0" stroke-width="0" transform=" rotate(0, 225, 135)"/>
  <ellipse cx="255.0" cy="135.0" fill="#1b9fd8" rx="14.0" ry="14.0" stroke-width="0" transform=" rotate(0, 255, 135)"/>
  <ellipse cx="285.0" cy="135.0" fill="#1b9fd8" rx="14.0" ry="14.0" stroke-width="0" transform=" rotate(0, 285, 135)"/>
  <polygon fill="#1b9fd8" points="301.0,149.0 315.0,121.0 329.0,149.0" stroke-width="0" transform=" rotate(0, 315, 135)"/>
  <polygon fill="#1b9fd8" points="331.0,149.0 345.0,121.0 359.0,149.0" stroke-width="0" transform=" rotate(0, 345, 135)"/>
  <polygon fill="#1b9fd8" points="361.0,149.0 375.0,121.0 389.0,149.0" stroke-width="0" transform=" rotate(0, 375, 135)"/>
  <polygon fill="#1b9fd8" points="391.0,149.0 405.0,121.0 419.0,149.0" stroke-width="0" transform=" rotate(0, 405, 135)"/>
  <polygon fill="#1b9fd8" points="421.0,149.0 435.0,121.0 449.0,149.0" stroke-width="0" transform=" rotate(0, 435, 135)"/>
  <polygon fill="#1b9fd8" points="451.0,149.0 465.0,121.0 479.0,149.0" stroke-width="0" transform=" rotate(0, 465, 135)"/>
  <polygon fill="#1b9fd8" points="481.0,149.0 495.0,121.0 509.0,149.0" stroke-width="0" transform=" rotate(0, 495, 135)"/>
  <polygon fill="#1b9fd8" points="511.0,149.0 525.0,121.0 539.0,149.0" stroke-width="0" transform=" rotate(0, 525, 135)"/>
  <polygon fill="#1b9fd8" points="541.0,149.0 555.0,121.0 569.0,149.0" stroke-width="0" transform=" rotate(0, 555, 135)"/>
  <polygon fill="#1b9fd8" points="571.0,149.0 585.0,121.0 599.0,149.0" stroke-width="0" transform=" rotate(0, 585, 135)"/>
  <polygon fill="#1b9fd8" points="601.0,149.0 615.0,121.0 629.0,149.0" stroke-width="0" transform=" rotate(0, 615, 135)"/>
  <polygon fill="#1b9fd8" points="631.0,149.0 645.0,121.0 659.0,149.0" stroke-width="0" transform=" rotate(0, 645, 135)"/>
  <ellipse cx="-45.0" cy="165.0" fill="#1b9fd8" rx="14.0" ry="14.0" stroke-width="0" transform=" rotate(0, -45, 165)"/>
  <ellipse cx="-15.0" cy="165.0" fill="#1b9fd8" rx="14.0" ry="14.0" stroke-width="0" transform=" rotate(0, -15, 165)"/>
  <ellipse cx="15.0" cy="165.0" fill="#1b9fd8" rx="14.0" ry="14.0" stroke-width="0" transform=" rotate(0, 15, 165)"/>
  <ellipse cx="45.0" cy="165.0" fill="#1b9fd8" rx="14.0" ry="14.0" stroke-width="0" transform=" rotate(0, 45, 165)"/>
  <ellipse cx="75.0" cy="165.0" fill="#1b9fd8" rx="14.0" ry="14.0" stroke-width="0" transform=" rotate(0, 75, 165)"/>
  <ellipse cx="105.0" cy="165.0" fill="#1b9fd8" rx="14.0" ry="14.0" stroke-width="0" transform=" rotate(0, 105, 165)"/>
  <ellipse cx="135.0" cy="165.0" fill="#1b9fd8" rx="14.0" ry="14.0" stroke-width="0" transform=" rotate(0, 135, 165)"/>
  <ellipse cx="165.0" cy="165.0" fill="#1b9fd8" rx="14.0" ry="14.0" stroke-width="0" transform=" rotate(0, 165, 165)"/>
  <ellipse cx="195.0" cy="165.0" fill="#1b9fd8" rx="14.0" ry="14.0" stroke-width="0" transform=" rotate(0, 195, 165)"/>
  <ellipse cx="225.0" cy="165.0" fill="#1b9fd8" rx="14.0" ry="14.0" stroke-width="0" transform=" rotate(0, 225, 165)"/>
  <ellipse cx="255.0" cy="165.0" fill="#1b9fd8" rx="14.0" ry="14.0" stroke-width="0" transform=" rotate(0, 255, 165)"/>
  <ellipse cx="285.0" cy="165.0" fill="#1b9fd8" rx="14.0" ry="14.0" stroke-width="0" transform=" rotate(0, 285, 165)"/>
  <polygon fill="#1b9fd8" points="301.0,179.0 315.0,151.0 329.0,179.0" stroke-width="0" transform=" rotate(0, 315, 165)"/>
  <polygon fill="#1b9fd8" points="331.0,179.0 345.0,151.0 359.0,179.0" stroke-width="0" transform=" rotate(0, 345, 165)"/>
  <polygon fill="#1b9fd8" points="361.0,179.0 375.0,151.0 389.0,179.0" stroke-width="0" transform=" rotate(0, 375, 165)"/>
  <polygon fill="#1b9fd8" points="391.0,179.0 405.0,151.0 419.0,179.0" stroke-width="0" transform=" rotate(0, 405, 165)"/>
  <polygon fill="#1b9fd8" points="421.0,179.0 435.0,151.0 449.0,179.0" stroke-width="0" transform=" rotate(0, 435, 165)"/>
  <polygon fill="#1b9fd8" points="451.0,179.0 465.0,151.0 479.0,179.0" stroke-width="0" transform=" rotate(0, 465, 165)"/>
  <polygon fill="#1b9fd8" points="481.0,179.0 495.0,151.0 509.0,179.0" stroke-width="0" transform=" rotate(0, 495, 165)"/>
  <polygon fill="#1b9fd8" points="511.0,179.0 525.0,151.0 539.0,179.0" stroke-width="0" transform=" rotate(0, 525, 165)"/>
  <polygon fill="#1b9fd8" points="541.0,179.0 555.0,151.0 569.0,179.0" stroke-width="0" transform=" rotate(0, 555, 165)"/>
  <polygon fill="#1b9fd8" points="571.0,179.0 585.0,151.0 599.0,179.0" stroke-width="0" transform=" rotate(0, 585, 165)"/>
  <polygon fill="#1b9fd8" points="601.0,179.0 615.0,151.0 629.0,179.0" stroke-width="0" transform=" rotate(0, 615, 165)"/>
  <polygon fill="#1b9fd8" points="631.0,179.0 645.0,151.0 659.0,179.0" stroke-width="0" transform=" rotate(0, 645, 165)"/>
  <ellipse cx="-45.0" cy="195.0" fill="#1b9fd8" rx="14.0" ry="14.0" stroke-width="0" transform=" rotate(0, -45, 195)"/>
  <ellipse cx="-15.0" cy="195.0" fill="#1b9fd8" rx="14.0" ry="14.0" stroke-width="0" transform=" rotate(0, -15, 195)"/>
  <ellipse cx="15.0" cy="195.0" fill="#1b9fd8" rx="14.0" ry="14.0" stroke-width="0" transform=" rotate(0, 15, 195)"/>
  <ellipse cx="45.0" cy="195.0" fill="#1b9fd8" rx="14.0" ry="14.0" stroke-width="0" transform=" rotate(0, 45, 195)"/>
  <ellipse cx="75.0" cy="195.0" fill="#1b9fd8" rx="14.0" ry="14.0" stroke-width="0" transform=" rotate(0, 75, 195)"/>
  <ellipse cx="105.0" cy="195.0" fill="#1b9fd8" rx="14.0" ry="14.0" stroke-width="0" transform=" rotate(0, 105, 195)"/>
  <ellipse cx="135.0" cy="195.0" fill="#1b9fd8" rx="14.0" ry="14.0" stroke-width="0" transform=" rotate(0, 135, 195)"/>
  <ellipse cx="165.0" cy="195.0" fill="#1b9fd8" rx="14.0" ry="14.0" stroke-width="0" transform=" rotate(0, 165, 195)"/>
  <ellipse cx="195.0" cy="195.0" fill="#1b9fd8" rx="14.0" ry="14.0" stroke-width="0" transform=" rotate(0, 195, 195)"/>
  <ellipse cx="225.0" cy="195.0" fill="#1b9fd8" rx="14.0" ry="14.0" stroke-width="0" transform=" rotate(0, 225, 195)"/>
  <ellipse cx="255.0" cy="195.0" fill="#1b9fd8" rx="14.0" ry="14.0" stroke-width="0" transform=" rotate(0, 255, 195)"/>
  <ellipse cx="285.0" cy="195.0" fill="#1b9fd8" rx="14.0" ry="14.0" stroke-width="0" transform=" rotate(0, 285, 195)"/>
  <polygon fill="#1b9fd8" points="301.0,209.0 315.0,181.0 329.0,209.0" stroke-width="0" transform=" rotate(0, 315, 195)"/>
  <polygon fill="#1b9fd8" points="331.0,209.0 345.0,181.0 359.0,209.0" stroke-width="0" transform=" rotate(0, 345, 195)"/>
  <polygon fill="#1b9fd8" points="361.0,209.0 375.0,181.0 389.0,209.0" stroke-width="0" transform=" rotate(0, 375, 195)"/>
  <polygon fill="#1b9fd8" points="391.0,209.0 405.0,181.0 419.0,209.0" stroke-width="0" transform=" rotate(0, 405, 195)"/>
  <polygon fill="#1b9fd8" points="421.0,209.0 435.0,181.0 449.0,209.0" stroke-width="0" transform=" rotate(0, 435, 195)"/>
  <polygon fill="#1b9fd8" points="451.0,209.0 465.0,181.0 479.0,209.0" stroke-width="0" transform=" rotate(0, 465, 195)"/>
  <polygon fill="#1b9fd8" points="481.0,209.0 495.0,181.0 509.0,209.0" stroke-width="0" transform=" rotate(0, 495, 195)"/>
  <polygon fill="#1b9fd8" points="511.0,209.0 525.0,181.0 539.0,209.0" stroke-width="0" transform=" rotate(0, 525, 195)"/>
  <polygon fill="#1b9fd8" points="541.0,209.0 555.0,181.0 569.0,209.0" stroke-width="0" transform=" rotate(0, 555, 195)"/>
  <polygon fill="#1b9fd8" points="571.0,209.0 585.0,181.0 599.0,209.0" stroke-width="0" transform=" rotate(0, 585, 195)"/>
  <polygon fill="#1b9fd8" points="601.0,209.0 615.0,181.0 629.0,209.0" stroke-width="0" transform=" rotate(0, 615, 195)"/>
  <polygon fill="#1b9fd8" points="631.0,209.0 645.0,181.0 659.0,209.0" stroke-width="0" transform=" rotate(0, 645, 195)"/>
  <ellipse cx="-45.0" cy="225.0" fill="#1b9fd8" rx="14.0" ry="14.0" stroke-width="0" transform=" rotate(0, -45, 225)"/>
  <ellipse cx="-15.0" cy="225.0" fill="#1b9fd8" rx="14.0" ry="14.0" stroke-width="0" transform=" rotate(0, -15, 225)"/>
  <ellipse cx="15.0" cy="225.0" fill="#1b9fd8" rx="14.0" ry="14.0" stroke-width="0" transform=" rotate(0, 15, 225)"/>
  <ellipse cx="45.0" cy="225.0" fill="#1b9fd8" rx="14.0" ry="14.0" stroke-width="0" transform=" rotate(0, 45, 225)"/>
  <ellipse cx="75.0" cy="225.0" fill="#1b9fd8" rx="14.0" ry="14.0" stroke-width="0" transform=" rotate(0, 75, 225)"/>
  <ellipse cx="105.0" cy="225.0" fill="#1b9fd8" rx="14.0" ry="14.0" stroke-width="0" transform=" rotate(0, 105, 225)"/>
  <ellipse cx="135.0" cy="225.0" fill="#1b9fd8" rx="14.0" ry="14.0" stroke-width="0" transform=" rotate(0, 135, 225)"/>
  <ellipse cx="165.0" cy="225.0" fill="#1b9fd8" rx="14.0" ry="14.0" stroke-width="0" transform=" rotate(0, 165, 225)"/>
  <ellipse cx="195.0" cy="225.0" fill="#1b9fd8" rx="14.0" ry="14.0" stroke-width="0" transform=" rotate(0, 195, 225)"/>
  <ellipse cx="225.0" cy="225.0" fill="#1b9fd8" rx="14.0" ry="14.0" stroke-width="0" transform=" rotate(0, 225, 225)"/>
  <ellipse cx="255.0" cy="225.0" fill="#1b9fd8" rx="14.0" ry="14.0" stroke-width="0" transform=" rotate(0, 255, 225)"/>
  <ellipse cx="285.0" cy="225.0" fill="#1b9fd8" rx="14.0" ry="14.0" stroke-width="0" transform=" rotate(0, 285, 225)"/>
  <polygon fill="#1b9fd8" points="301.0,239.0 315.0,211.0 329.0,239.0" stroke-width="0" transform=" rotate(0, 315, 225)"/>
  <polygon fill="#1b9fd8" points="331.0,239.0 345.0,211.0 359.0,239.0" stroke-width="0" transform=" rotate(0, 345, 225)"/>
  <polygon fill="#1b9fd8" points="361.0,239.0 375.0,211.0 389.0,239.0" stroke-width="0" transform=" rotate(0, 375, 225)"/>
  <polygon fill="#1b9fd8" points="391.0,239.0 405.0,211.0 419.0,239.0" stroke-width="0" transform=" rotate(0, 405, 225)"/>
  <polygon fill="#1b9fd8" points="421.0,239.0 435.0,211.0 449.0,239.0" stroke-width="0" transform=" rotate(0, 435, 225)"/>
  <polygon fill="#1b9fd8" points="451.0,239.0 465.0,211.0 479.0,239.0" stroke-width="0" transform=" rotate(0, 465, 225)"/>
  <polygon fill="#1b9fd8" points="481.0,239.0 495.0,211.0 509.0,239.0" stroke-width="0" transform=" rotate(0, 495, 225)"/>
  <polygon fill="#1b9fd8" points="511.0,239.0 525.0,211.0 539.0,239.0" stroke-width="0" transform=" rotate(0, 525, 225)"/>
  <polygon fill="#1b9fd8" points="541.0,239.0 555.0,211.0 569.0,239.0" stroke-width="0" transform=" rotate(0, 555, 225)"/>
  <polygon fill="#1b9fd8" points="571.0,239.0 585.0,211.0 599.0,239.0" stroke-width="0" transform=" rotate(0, 585, 225)"/>
  <polygon fill="#1b9fd8" points="601.0,239.0 615.0,211.0 629.0,239.0" stroke-width="0" transform=" rotate(0, 615, 225)"/>
  <polygon fill="#1b9fd8" points="631.0,239.0 645.0,211.0 659.0,239.0" stroke-width="0" transform=" rotate(0, 645, 225)"/>
  <ellipse cx="-45.0" cy="255.0" fill="#1b9fd8" rx="14.0" ry="14.0" stroke-width="0" transform=" rotate(0, -45, 255)"/>
  <ellipse cx="-15.0" cy="255.0" fill="#1b9fd8" rx="14.0" ry="14.0" stroke-width="0" transform=" rotate(0, -15, 255)"/>
  <ellipse cx="15.0" cy="255.0" fill="#1b9fd8" rx="14.0" ry="14.0" stroke-width="0" transform=" rotate(0, 15, 255)"/>
  <ellipse cx="45.0" cy="255.0" fill="#1b9fd8" rx="14.0" ry="14.0" stroke-width="0" transform=" rotate(0, 45, 255)"/>
  <ellipse cx="75.0" cy="255.0" fill="#1b9fd8" rx="14.0" ry="14.0" stroke-width="0" transform=" rotate(0, 75, 255)"/>
  <ellipse cx="105.0" cy="255.0" fill="#1b9fd8" rx="14.0" ry="14.0" stroke-width="0" transform=" rotate(0, 105, 255)"/>
  <ellipse cx="135.0" cy="255.0" fill="#1b9fd8" rx="14.0" ry="14.0" stroke-width="0" transform=" rotate(0, 135, 255)"/>
  <ellipse cx="165.0" cy="255.0" fill="#1b9fd8" rx="14.0" ry="14.0" stroke-width="0" transform=" rotate(0, 165, 255)"/>
  <ellipse cx="195.0" cy="255.0" fill="#1b9fd8" rx="14.0" ry="14.0" stroke-width="0" transform=" rotate(0, 195, 255)"/>
  <ellipse cx="225.0" cy="255.0" fill="#1b9fd8" rx="14.0" ry="14.0" stroke-width="0" transform=" rotate(0, 225, 255)"/>
  <ellipse cx="255.0" cy="255.0" fill="#1b9fd8" rx="14.0" ry="14.0" stroke-width="0" transform=" rotate(0, 255, 255)"/>
  <ellipse cx="285.0" cy="255.0" fill="#1b9fd8" rx="14.0" ry="14.0" stroke-width="0" transform=" rotate(0, 285, 255)"/>
  <polygon fill="#1b9fd8" points="301.0,269.0 315.0,241.0 329.0,269.0" stroke-width="0" transform=" rotate(0, 315, 255)"/>
  <polygon fill="#1b9fd8" points="331.0,269.0 345.0,241.0 359.0,269.0" stroke-width="0" transform=" rotate(0, 345, 255)"/>
  <polygon fill="#1b9fd8" points="361.0,269.0 375.0,241.0 389.0,269.0" stroke-width="0" transform=" rotate(0, 375, 255)"/>
  <polygon fill="#1b9fd8" points="391.0,269.0 405.0,241.0 419.0,269.0" stroke-width="0" transform=" rotate(0, 405, 255)"/>
  <polygon fill="#1b9fd8" points="421.0,269.0 435.0,241.0 449.0,269.0" stroke-width="0" transform=" rotate(0, 435, 255)"/>
  <polygon fill="#1b9fd8" points="451.0,269.0 465.0,241.0 479.0,269.0" stroke-width="0" transform=" rotate(0, 465, 255)"/>
  <polygon fill="#1b9fd8" points="481.0,269.0 495.0,241.0 509.0,269.0" stroke-width="0" transform=" rotate(0, 495, 255)"/>
  <polygon fill="#1b9fd8" points="511.0,269.0 525.0,241.0 539.0,269.0" stroke-width="0" transform=" rotate(0, 525, 255)"/>
  <polygon fill="#1b9fd8" points="541.0,269.0 555.0,241.0 569.0,269.0" stroke-width="0" transform=" rotate(0, 555, 255)"/>
  <polygon fill="#1b9fd8" points="571.0,269.0 585.0,241.0 599.0,269.0" stroke-width="0" transform=" rotate(0, 585, 255)"/>
  <polygon fill="#1b9fd8" points="601.0,269.0 615.0,241.0 629.0,269.0" stroke-width="0" transform=" rotate(0, 615, 255)"/>
  <polygon fill="#1b9fd8" points="631.0,269.0 645.0,241.0 659.0,269.0" stroke-width="0" transform=" rotate(0, 645, 255)"/>
  <ellipse cx="-45.0" cy="285.0" fill="#1b9fd8" rx="14.0" ry="14.0" stroke-width="0" transform=" rotate(0, -45, 285)"/>
  <ellipse cx="-15.0" cy="285.0" fill="#1b9fd8" rx="14.0" ry="14.0" stroke-width="0" transform=" rotate(0, -15, 285)"/>
  <ellipse cx="15.0" cy="285.0" fill="#1b9fd8" rx="14.0" ry="14.0" stroke-width="0" transform=" rotate(0, 15, 285)"/>
  <ellipse cx="45.0" cy="285.0" fill="#1b9fd8" rx="14.0" ry="14.0" stroke-width="0" transform=" rotate(0, 45, 285)"/>
  <ellipse cx="75.0" cy="285.0" fill="#1b9fd8" rx="14.0" ry="14.0" stroke-width="0" transform=" rotate(0, 75, 285)"/>
  <ellipse cx="105.0" cy="285.0" fill="#1b9fd8" rx="14.0" ry="14.0" stroke-width="0" transform=" rotate(0, 105, 285)"/>
  <ellipse cx="135.0" cy="285.0" fill="#1b9fd8" rx="14.0" ry="14.0" stroke-width="0" transform=" rotate(0, 135, 285)"/>
  <ellipse cx="165.0" cy="285.0" fill="#1b9fd8" rx="14.0" ry="14.0" stroke-width="0" transform=" rotate(0, 165, 285)"/>
  <ellipse cx="195.0" cy="285.0" fill="#1b9fd8" rx="14.0" ry="14.0" stroke-width="0" transform=" rotate(0, 195, 285)"/>
  <ellipse cx="225.0" cy="285.0" fill="#1b9fd8" rx="14.0" ry="14.0" stroke-width="0" transform=" rotate(0, 225, 285)"/>
  <ellipse cx="255.0" cy="285.0" fill="#1b9fd8" rx="14.0" ry="14.0" stroke-width="0" transform=" rotate(0, 255, 285)"/>
  <ellipse cx="285.0" cy="285.0" fill="#1b9fd8" rx="14.0" ry="14.0" stroke-width="0" transform=" rotate(0, 285, 285)"/>
  <polygon fill="#1b9fd8" points="301.0,299.0 315.0,271.0 329.0,299.0" stroke-width="0" transform=" rotate(0, 315, 285)"/>
  <polygon fill="#1b9fd8" points="331.0,299.0 345.0,271.0 359.0,299.0" stroke-width="0" transform=" rotate(0, 345, 285)"/>
  <polygon fill="#1b9fd8" points="361.0,299.0 375.0,271.0 389.0,299.0" stroke-width="0" transform=" rotate(0, 375, 285)"/>
  <polygon fill="#1b9fd8" points="391.0,299.0 405.0,271.0 419.0,299.0" stroke-width="0" transform=" rotate(0, 405, 285)"/>
  <polygon fill="#1b9fd8" points="421.0,299.0 435.0,271.0 449.0,299.0" stroke-width="0" transform=" rotate(0, 435, 285)"/>
  <polygon fill="#1b9fd8" points="451.0,299.0 465.0,271.0 479.0,299.0" stroke-width="0" transform=" rotate(0, 465, 285)"/>
  <polygon fill="#1b9fd8" points="481.0,299.0 495.0,271.0 509.0,299.0" stroke-width="0" transform=" rotate(0, 495, 285)"/>
  <polygon fill="#1b9fd8" points="511.0,299.0 525.0,271.0 539.0,299.0" stroke-width="0" transform=" rotate(0, 525, 285)"/>
  <polygon fill="#1b9fd8" points="541.0,299.0 555.0,271.0 569.0,299.0" stroke-width="0" transform=" rotate(0, 555, 285)"/>
  <polygon fill="#1b9fd8" points="571.0,299.0 585.0,271.0 599.0,299.0" stroke-width="0" transform=" rotate(0, 585, 285)"/>
  <polygon fill="#1b9fd8" points="601.0,299.0 615.0,271.0 629.0,299.0" stroke-width="0" transform=" rotate(0, 615, 285)"/>
  <polygon fill="#1b9fd8" points="631.0,299.0 645.0,271.0 659.0,299.0" stroke-width="0" transform=" rotate(0, 645, 285)"/>
  <ellipse cx="-45.0" cy="315.0" fill="#6dd6ff" rx="14.0" ry="14.0" stroke-width="0" transform=" rotate(0, -45, 315)"/>
  <ellipse cx="-15.0" cy="315.0" fill="#6dd6ff" rx="14.0" ry="14.0" stroke-width="0" transform=" rotate(0, -15, 315)"/>
  <ellipse cx="15.0" cy="315.0" fill="#6dd6ff" rx="14.0" ry="14.0" stroke-width="0" transform=" rotate(0, 15, 315)"/>
  <ellipse cx="45.0" cy="315.0" fill="#6dd6ff" rx="14.0" ry="14.0" stroke-width="0" transform=" rotate(0, 45, 315)"/>
  <ellipse cx="75.0" cy="315.0" fill="#6dd6ff" rx="14.0" ry="14.0" stroke-width="0" transform=" rotate(0, 75, 315)"/>
  <ellipse cx="105.0" cy="315.0" fill="#6dd6ff" rx="14.0" ry="14.0" stroke-width="0" transform=" rotate(0, 105, 315)"/>
  <ellipse cx="135.0" cy="315.0" fill="#6dd6ff" rx="14.0" ry="14.0" stroke-width="0" transform=" rotate(0, 135, 315)"/>
  <ellipse cx="165.0" cy="315.0" fill="#6dd6ff" rx="14.0" ry="14.0" stroke-width="0" transform=" rotate(0, 165, 315)"/>
  <ellipse cx="195.0" cy="315.0" fill="#6dd6ff" rx="14.0" ry="14.0" stroke-width="0" transform=" rotate(0, 195, 315)"/>
  <ellipse cx="225.0" cy="315.0" fill="#6dd6ff" rx="14.0" ry="14.0" stroke-width="0" transform=" rotate(0, 225, 315)"/>
  <ellipse cx="255.0" cy="315.0" fill="#6dd6ff" rx="14.0" ry="14.0" stroke-width="0" transform=" rotate(0, 255, 315)"/>
  <ellipse cx="285.0" cy="315.0" fill="#6dd6ff" rx="14.0" ry="14.0" stroke-width="0" transform=" rotate(0, 285, 315)"/>
  <polygon fill="#6dd6ff" points="301.0,329.0 315.0,301.0 329.0,329.0" stroke-width="0" transform=" rotate(0, 315, 315)"/>
  <polygon fill="#6dd6ff" points="331.0,329.0 345.0,301.0 359.0,329.0" stroke-width="0" transform=" rotate(0, 345, 315)"/>
  <polygon fill="#6dd6ff" points="361.0,329.0 375.0,301.0 389.0,329.0" stroke-width="0" transform=" rotate(0, 375, 315)"/>
  <polygon fill="#6dd6ff" points="391.0,329.0 405.0,301.0 419.0,329.0" stroke-width="0" transform=" rotate(0, 405, 315)"/>
  <polygon fill="#6dd6ff" points="421.0,329.0 435.0,301.0 449.0,329.0" stroke-width="0" transform=" rotate(0, 435, 315)"/>
  <polygon fill="#6dd6ff" points="451.0,329.0 465.0,301.0 479.0,329.0" stroke-width="0" transform=" rotate(0, 465, 315)"/>
  <polygon fill="#6dd6ff" points="481.0,329.0 495.0,301.0 509.0,329.0" stroke-width="0" transform=" rotate(0, 495, 315)"/>
  <polygon fill="#6dd6ff" points="511.0,329.0 525.0,301.0 539.0,329.0" stroke-width="0" transform=" rotate(0, 525, 315)"/>
  <polygon fill="#6dd6ff" points="541.0,329.0 555.0,301.0 569.0,329.0" stroke-width="0" transform=" rotate(0, 555, 315)"/>
  <polygon fill="#6dd6ff" points="571.0,329.0 585.0,301.0 599.0,329.0" stroke-width="0" transform=" rotate(0, 585, 315)"/>
  <polygon fill="#6dd6ff" points="601.0,329.0 615.0,301.0 629.0,329.0" stroke-width="0" transform=" rotate(0, 615, 315)"/>
  <polygon fill="#6dd6ff" points="631.0,329.0 645.0,301.0 659.0,329.0" stroke-width="0" transform=" rotate(0, 645, 315)"/>
  <ellipse cx="-45.0" cy="345.0" fill="#6dd6ff" rx="14.0" ry="14.0" stroke-width="0" transform=" rotate(0, -45, 345)"/>
  <ellipse cx="-15.0" cy="345.0" fill="#6dd6ff" rx="14.0" ry="14.0" stroke-width="0" transform=" rotate(0, -15, 345)"/>
  <ellipse cx="15.0" cy="345.0" fill="#6dd6ff" rx="14.0" ry="14.0" stroke-width="0" transform=" rotate(0, 15, 345)"/>
  <ellipse cx="45.0" cy="345.0" fill="#6dd6ff" rx="14.0" ry="14.0" stroke-width="0" transform=" rotate(0, 45, 345)"/>
  <ellipse cx="75.0" cy="345.0" fill="#6dd6ff" rx="14.0" ry="14.0" stroke-width="0" transform=" rotate(0, 75, 345)"/>
  <ellipse cx="105.0" cy="345.0" fill="#6dd6ff" rx="14.0" ry="14.0" stroke-width="0" transform=" rotate(0, 105, 345)"/>
  <ellipse cx="135.0" cy="345.0" fill="#6dd6ff" rx="14.0" ry="14.0" stroke-width="0" transform=" rotate(0, 135, 345)"/>
  <ellipse cx="165.0" cy="345.0" fill="#6dd6ff" rx="14.0" ry="14.0" stroke-width="0" transform=" rotate(0, 165, 345)"/>
  <ellipse cx="195.0" cy="345.0" fill="#6dd6ff" rx="14.0" ry="14.0" stroke-width="0" transform=" rotate(0, 195, 345)"/>
  <ellipse cx="225.0" cy="345.0" fill="#6dd6ff" rx="14.0" ry="14.0" stroke-width="0" transform=" rotate(0, 225, 345)"/>
  <ellipse cx="255.0" cy="345.0" fill="#6dd6ff" rx="14.0" ry="14.0" stroke-width="0" transform=" rotate(0, 255, 345)"/>
  <ellipse cx="285.0" cy="345.0" fill="#6dd6ff" rx="14.0" ry="14.0" stroke-width="0" transform=" rotate(0, 285, 345)"/>
  <polygon fill="#6dd6ff" points="301.0,359.0 315.0,331.0 329.0,359.0" stroke-width="0" transform=" rotate(0, 315, 345)"/>
  <polygon fill="#6dd6ff" points="331.0,359.0 345.0,331.0 359.0,359.0" stroke-width="0" transform=" rotate(0, 345, 345)"/>
  <polygon fill="#6dd6ff" points="361.0,359.0 375.0,331.0 389.0,359.0" stroke-width="0" transform=" rotate(0, 375, 345)"/>
  <polygon fill="#6dd6ff" points="391.0,359.0 405.0,331.0 419.0,359.0" stroke-width="0" transform=" rotate(0, 405, 345)"/>
  <polygon fill="#6dd6ff" points="421.0,359.0 435.0,331.0 449.0,359.0" stroke-width="0" transform=" rotate(0, 435, 345)"/>
  <polygon fill="#6dd6ff" points="451.0,359.0 465.0,331.0 479.0,359.0" stroke-width="0" transform=" rotate(0, 465, 345)"/>
  <polygon fill="#6dd6ff" points="481.0,359.0 495.0,331.0 509.0,359.0" stroke-width="0" transform=" rotate(0, 495, 345)"/>
  <polygon fill="#6dd6ff" points="511.0,359.0 525.0,331.0 539.0,359.0" stroke-width="0" transform=" rotate(0, 525, 345)"/>
  <polygon fill="#6dd6ff" points="541.0,359.0 555.0,331.0 569.0,359.0" stroke-width="0" transform=" rotate(0, 555, 345)"/>
  <polygon fill="#6dd6ff" points="571.0,359.0 585.0,331.0 599.0,359.0" stroke-width="0" transform=" rotate(0, 585, 345)"/>
  <polygon fill="#6dd6ff" points="601.0,359.0 615.0,331.0 629.0,359.0" stroke-width="0" transform=" rotate(0, 615, 345)"/>
  <polygon fill="#6dd6ff" points="631.0,359.0 645.0,331.0 659.0,359.0" stroke-width="0" transform=" rotate(0, 645, 345)"/>
  <ellipse cx="-45.0" cy="375.0" fill="#6dd6ff" rx="14.0" ry="14.0" stroke-width="0" transform=" rotate(0, -45, 375)"/>
  <ellipse cx="-15.0" cy="375.0" fill="#6dd6ff" rx="14.0" ry="14.0" stroke-width="0" transform=" rotate(0, -15, 375)"/>
  <ellipse cx="15.0" cy="375.0" fill="#6dd6ff" rx="14.0" ry="14.0" stroke-width="0" transform=" rotate(0, 15, 375)"/>
  <ellipse cx="45.0" cy="375.0" fill="#6dd6ff" rx="14.0" ry="14.0" stroke-width="0" transform=" rotate(0, 45, 375)"/>
  <ellipse cx="75.0" cy="375.0" fill="#6dd6ff" rx="14.0" ry="14.0" stroke-width="0" transform=" rotate(0, 75, 375)"/>
  <ellipse cx="105.0" cy="375.0" fill="#6dd6ff" rx="14.0" ry="14.0" stroke-width="0" transform=" rotate(0, 105, 375)"/>
  <ellipse cx="135.0" cy="375.0" fill="#6dd6ff" rx="14.0" ry="14.0" stroke-width="0" transform=" rotate(0, 135, 375)"/>
  <ellipse cx="165.0" cy="375.0" fill="#6dd6ff" rx="14.0" ry="14.0" stroke-width="0" transform=" rotate(0, 165, 375)"/>
  <ellipse cx="195.0" cy="375.0" fill="#6dd6ff" rx="14.0" ry="14.0" stroke-width="0" transform=" rotate(0, 195, 375)"/>
  <ellipse cx="225.0" cy="375.0" fill="#6dd6ff" rx="14.0" ry="14.0" stroke-width="0" transform=" rotate(0, 225, 375)"/>
  <ellipse cx="255.0" cy="375.0" fill="#6dd6ff" rx="14.0" ry="14.0" stroke-width="0" transform=" rotate(0, 255, 375)"/>
  <ellipse cx="285.0" cy="375.0" fill="#6dd6ff" rx="14.0" ry="14.0" stroke-width="0" transform=" rotate(0, 285, 375)"/>
  <polygon fill="#6dd6ff" points="301.0,389.0 315.0,361.0 329.0,389.0" stroke-width="0" transform=" rotate(0, 315, 375)"/>
  <polygon fill="#6dd6ff" points="331.0,389.0 345.0,361.0 359.0,389.0" stroke-width="0" transform=" rotate(0, 345, 375)"/>
  <polygon fill="#6dd6ff" points="361.0,389.0 375.0,361.0 389.0,389.0" stroke-width="0" transform=" rotate(0, 375, 375)"/>
  <polygon fill="#6dd6ff" points="391.0,389.0 405.0,361.0 419.0,389.0" stroke-width="0" transform=" rotate(0, 405, 375)"/>
  <polygon fill="#6dd6ff" points="421.0,389.0 435.0,361.0 449.0,389.0" stroke-width="0" transform=" rotate(0, 435, 375)"/>
  <polygon fill="#6dd6ff" points="451.0,389.0 465.0,361.0 479.0,389.0" stroke-width="0" transform=" rotate(0, 465, 375)"/>
  <polygon fill="#6dd6ff" points="481.0,389.0 495.0,361.0 509.0,389.0" stroke-width="0" transform=" rotate(0, 495, 375)"/>
  <polygon fill="#6dd6ff" points="511.0,389.0 525.0,361.0 539.0,389.0" stroke-width="0" transform=" rotate(0, 525, 375)"/>
  <polygon fill="#6dd6ff" points="541.0,389.0 555.0,361.0 569.0,389.0" stroke-width="0" transform=" rotate(0, 555, 375)"/>
  <polygon fill="#6dd6ff" points="571.0,389.0 585.0,361.0 599.0,389.0" stroke-width="0" transform=" rotate(0, 585, 375)"/>
  <polygon fill="#6dd6ff" points="601.0,389.0 615.0,361.0 629.0,389.0" stroke-width="0" transform=" rotate(0, 615, 375)"/>
  <polygon fill="#6dd6ff" points="631.0,389.0 645.0,361.0 659.0,389.0" stroke-width="0" transform=" rotate(0, 645, 375)"/>
  <ellipse cx="-45.0" cy="405.0" fill="#6dd6ff" rx="14.0" ry="14.0" stroke-width="0" transform=" rotate(0, -45, 405)"/>
  <ellipse cx="-15.0" cy="405.0" fill="#6dd6ff" rx="14.0" ry="14.0" stroke-width="0" transform=" rotate(0, -15, 405)"/>
  <ellipse cx="15.0" cy="405.0" fill="#6dd6ff" rx="14.0" ry="14.0" stroke-width="0" transform=" rotate(0, 15, 405)"/>
  <ellipse cx="45.0" cy="405.0" fill="#6dd6ff" rx="14.0" ry="14.0" stroke-width="0" transform=" rotate(0, 45, 405)"/>
  <ellipse cx="75.0" cy="405.0" fill="#6dd6ff" rx="14.0" ry="14.0" stroke-width="0" transform=" rotate(0, 75, 405)"/>
  <ellipse cx="105.0" cy="405.0" fill="#6dd6ff" rx="14.0" ry="14.0" stroke-width="0" transform=" rotate(0, 105, 405)"/>
  <ellipse cx="135.0" cy="405.0" fill="#6dd6ff" rx="14.0" ry="14.0" stroke-width="0" transform=" rotate(0, 135, 405)"/>
  <ellipse cx="165.0" cy="405.0" fill="#6dd6ff" rx="14.0" ry="14.0" stroke-width="0" transform=" rotate(0, 165, 405)"/>
  <ellipse cx="195.0" cy="405.0" fill="#6dd6ff" rx="14.0" ry="14.0" stroke-width="0" transform=" rotate(0, 195, 405)"/>
  <ellipse cx="225.0" cy="405.0" fill="#6dd6ff" rx="14.0" ry="14.0" stroke-width="0" transform=" rotate(0, 225, 405)"/>
  <ellipse cx="255.0" cy="405.0" fill="#6dd6ff" rx="14.0" ry="14.0" stroke-width="0" transform=" rotate(0, 255, 405)"/>
  <ellipse cx="285.0" cy="405.0" fill="#6dd6ff" rx="14.0" ry="14.0" stroke-width="0" transform=" rotate(0, 285, 405)"/>
  <polygon fill="#6dd6ff" points="301.0,419.0 315.0,391.0 329.0,419.0" stroke-width="0" transform=" rotate(0, 315, 405)"/>
  <polygon fill="#6dd6ff" points="331.0,419.0 345.0,391.0 359.0,419.0" stroke-width="0" transform=" rotate(0, 345, 405)"/>
  <polygon fill="#6dd6ff" points="361.0,419.0 375.0,391.0 389.0,419.0" stroke-width="0" transform=" rotate(0, 375, 405)"/>
  <polygon fill="#6dd6ff" points="391.0,419.0 405.0,391.0 419.0,419.0" stroke-width="0" transform=" rotate(0, 405, 405)"/>
  <polygon fill="#6dd6ff" points="421.0,419.0 435.0,391.0 449.0,419.0" stroke-width="0" transform=" rotate(0, 435, 405)"/>
  <polygon fill="#6dd6ff" points="451.0,419.0 465.0,391.0 479.0,419.0" stroke-width="0" transform=" rotate(0, 465, 405)"/>
  <polygon fill="#6dd6ff" points="481.0,419.0 495.0,391.0 509.0,419.0" stroke-width="0" transform=" rotate(0, 495, 405)"/>
  <polygon fill="#6dd6ff" points="511.0,419.0 525.0,391.0 539.0,419.0" stroke-width="0" transform=" rotate(0, 525, 405)"/>
  <polygon fill="#6dd6ff" points="541.0,419.0 555.0,391.0 569.0,419.0" stroke-width="0" transform=" rotate(0, 555, 405)"/>
  <polygon fill="#6dd6ff" points="571.0,419.0 585.0,391.0 599.0,419.0" stroke-width="0" transform=" rotate(0, 585, 405)"/>
  <polygon fill="#6dd6ff" points="601.0,419.0 615.0,391.0 629.0,419.0" stroke-width="0" transform=" rotate(0, 615, 405)"/>
  <polygon fill="#6dd6ff" points="631.0,419.0 645.0,391.0 659.0,419.0" stroke-width="0" transform=" rotate(0, 645, 405)"/>
  <ellipse cx="-45.0" cy="435.0" fill="#6dd6ff" rx="14.0" ry="14.0" stroke-width="0" transform=" rotate(0, -45, 435)"/>
  <ellipse cx="-15.0" cy="435.0" fill="#6dd6ff" rx="14.0" ry="14.0" stroke-width="0" transform=" rotate(0, -15, 435)"/>
  <ellipse cx="15.0" cy="435.0" fill="#6dd6ff" rx="14.0" ry="14.0" stroke-width="0" transform=" rotate(0, 15, 435)"/>
  <ellipse cx="45.0" cy="435.0" fill="#6dd6ff" rx="14.0" ry="14.0" stroke-width="0" transform=" rotate(0, 45, 435)"/>
  <ellipse cx="75.0" cy="435.0" fill="#6dd6ff" rx="14.0" ry="14.0" stroke-width="0" transform=" rotate(0, 75, 435)"/>
  <ellipse cx="105.0" cy="435.0" fill="#6dd6ff" rx="14.0" ry="14.0" stroke-width="0" transform=" rotate(0, 105, 435)"/>
  <ellipse cx="135.0" cy="435.0" fill="#6dd6ff" rx="14.0" ry="14.0" stroke-width="0" transform=" rotate(0, 135, 435)"/>
  <ellipse cx="165.0" cy="435.0" fill="#6dd6ff" rx="14.0" ry="14.0" stroke-width="0" transform=" rotate(0, 165, 435)"/>
  <ellipse cx="195.0" cy="435.0" fill="#6dd6ff" rx="14.0" ry="14.0" stroke-width="0" transform=" rotate(0, 195, 435)"/>
  <ellipse cx="225.0" cy="435.0" fill="#6dd6ff" rx="14.0" ry="14.0" stroke-width="0" transform=" rotate(0, 225, 435)"/>
  <ellipse cx="255.0" cy="435.0" fill="#6dd6ff" rx="14.0" ry="14.0" stroke-width="0" transform=" rotate(0, 255, 435)"/>
  <ellipse cx="285.0" cy="435.0" fill="#6dd6ff" rx="14.0" ry="14.0" stroke-width="0" transform=" rotate(0, 285, 435)"/>
  <polygon fill="#6dd6ff" points="301.0,449.0 315.0,421.0 329.0,449.0" stroke-width="0" transform=" rotate(0, 315, 435)"/>
  <polygon fill="#6dd6ff" points="331.0,449.0 345.0,421.0 359.0,449.0" stroke-width="0" transform=" rotate(0, 345, 435)"/>
  <polygon fill="#6dd6ff" points="361.0,449.0 375.0,421.0 389.0,449.0" stroke-width="0" transform=" rotate(0, 375, 435)"/>
  <polygon fill="#6dd6ff" points="391.0,449.0 405.0,421.0 419.0,449.0" stroke-width="0" transform=" rotate(0, 405, 435)"/>
  <polygon fill="#6dd6ff" points="421.0,449.0 435.0,421.0 449.0,449.0" stroke-width="0" transform=" rotate(0, 435, 435)"/>
  <polygon fill="#6dd6ff" points="451.0,449.0 465.0,421.0 479.0,449.0" stroke-width="0" transform=" rotate(0, 465, 435)"/>
  <polygon fill="#6dd6ff" points="481.0,449.0 495.0,421.0 509.0,449.0" stroke-width="0" transform=" rotate(0, 495, 435)"/>
  <polygon fill="#6dd6ff" points="511.0,449.0 525.0,421.0 539.0,449.0" stroke-width="0" transform=" rotate(0, 525, 435)"/>
  <polygon fill="#6dd6ff" points="541.0,449.0 555.0,421.0 569.0,449.0" stroke-width="0" transform=" rotate(0, 555, 435)"/>
  <polygon fill="#6dd6ff" points="571.0,449.0 585.0,421.0 599.0,449.0" stroke-width="0" transform=" rotate(0, 585, 435)"/>
  <polygon fill="#6dd6ff" points="601.0,449.0 615.0,421.0 629.0,449.0" stroke-width="0" transform=" rotate(0, 615, 435)"/>
  <polygon fill="#6dd6ff" points="631.0,449.0 645.0,421.0 659.0,449.0" stroke-width="0" transform=" rotate(0, 645, 435)"/>
  <ellipse cx="-45.0" cy="465.0" fill="#6dd6ff" rx="14.0" ry="14.0" stroke-width="0" transform=" rotate(0, -45, 465)"/>
  <ellipse cx="-15.0" cy="465.0" fill="#6dd6ff" rx="14.0" ry="14.0" stroke-width="0" transform=" rotate(0, -15, 465)"/>
  <ellipse cx="15.0" cy="465.0" fill="#6dd6ff" rx="14.0" ry="14.0" stroke-width="0" transform=" rotate(0, 15, 465)"/>
  <ellipse cx="45.0" cy="465.0" fill="#6dd6ff" rx="14.0" ry="14.0" stroke-width="0" transform=" rotate(0, 45, 465)"/>
  <ellipse cx="75.0" cy="465.0" fill="#6dd6ff" rx="14.0" ry="14.0" stroke-width="0" transform=" rotate(0, 75, 465)"/>
  <ellipse cx="105.0" cy="465.0" fill="#6dd6ff" rx="14.0" ry="14.0" stroke-width="0" transform=" rotate(0, 105, 465)"/>
  <ellipse cx="135.0" cy="465.0" fill="#6dd6ff" rx="14.0" ry="14.0" stroke-width="0" transform=" rotate(0, 135, 465)"/>
  <ellipse cx="165.0" cy="465.0" fill="#6dd6ff" rx="14.0" ry="14.0" stroke-width="0" transform=" rotate(0, 165, 465)"/>
  <ellipse cx="195.0" cy="465.0" fill="#6dd6ff" rx="14.0" ry="14.0" stroke-width="0" transform=" rotate(0, 195, 465)"/>
  <ellipse cx="225.0" cy="465.0" fill="#6dd6ff" rx="14.0" ry="14.0" stroke-width="0" transform=" rotate(0, 225, 465)"/>
  <ellipse cx="255.0" cy="465.0" fill="#6dd6ff" rx="14.0" ry="14.0" stroke-width="0" transform=" rotate(0, 255, 465)"/>
  <ellipse cx="285.0" cy="465.0" fill="#6dd6ff" rx="14.0" ry="14.0" stroke-width="0" transform=" rotate(0, 285, 465)"/>
  <polygon fill="#6dd6ff" points="301.0,479.0 315.0,451.0 329.0,479.0" stroke-width="0" transform=" rotate(0, 315, 465)"/>
  <polygon fill="#6dd6ff" points="331.0,479.0 345.0,451.0 359.0,479.0" stroke-width="0" transform=" rotate(0, 345, 465)"/>
  <polygon fill="#6dd6ff" points="361.0,479.0 375.0,451.0 389.0,479.0" stroke-width="0" transform=" rotate(0, 375, 465)"/>
  <polygon fill="#6dd6ff" points="391.0,479.0 405.0,451.0 419.0,479.0" stroke-width="0" transform=" rotate(0, 405, 465)"/>
  <polygon fill="#6dd6ff" points="421.0,479.0 435.0,451.0 449.0,479.0" stroke-width="0" transform=" rotate(0, 435, 465)"/>
  <polygon fill="#6dd6ff" points="451.0,479.0 465.0,451.0 479.0,479.0" stroke-width="0" transform=" rotate(0, 465, 465)"/>
  <polygon fill="#6dd6ff" points="481.0,479.0 495.0,451.0 509.0,479.0" stroke-width="0" transform=" rotate(0, 495, 465)"/>
  <polygon fill="#6dd6ff" points="511.0,479.0 525.0,451.0 539.0,479.0" stroke-width="0" transform=" rotate(0, 525, 465)"/>
  <polygon fill="#6dd6ff" points="541.0,479.0 555.0,451.0 569.0,479.0" stroke-width="0" transform=" rotate(0, 555, 465)"/>
  <polygon fill="#6dd6ff" points="571.0,479.0 585.0,451.0 599.0,479.0" stroke-width="0" transform=" rotate(0, 585, 465)"/>
  <polygon fill="#6dd6ff" points="601.0,479.0 615.0,451.0 629.0,479.0" stroke-width="0" transform=" rotate(0, 615, 465)"/>
  <polygon fill="#6dd6ff" points="631.0,479.0 645.0,451.0 659.0,479.0" stroke-width="0" transform=" rotate(0, 645, 465)"/>
  <ellipse cx="-45.0" cy="495.0" fill="#6dd6ff" rx="14.0" ry="14.0" stroke-width="0" transform=" rotate(0, -45, 495)"/>
  <ellipse cx="-15.0" cy="495.0" fill="#6dd6ff" rx="14.0" ry="14.0" stroke-width="0" transform=" rotate(0, -15, 495)"/>
  <ellipse cx="15.0" cy="495.0" fill="#6dd6ff" rx="14.0" ry="14.0" stroke-width="0" transform=" rotate(0, 15, 495)"/>
  <ellipse cx="45.0" cy="495.0" fill="#6dd6ff" rx="14.0" ry="14.0" stroke-width="0" transform=" rotate(0, 45, 495)"/>
  <ellipse cx="75.0" cy="495.0" fill="#6dd6ff" rx="14.0" ry="14.0" stroke-width="0" transform=" rotate(0, 75, 495)"/>
  <ellipse cx="105.0" cy="495.0" fill="#6dd6ff" rx="14.0" ry="14.0" stroke-width="0" transform=" rotate(0, 105, 495)"/>
  <ellipse cx="135.0" cy="495.0" fill="#6dd6ff" rx="14.0" ry="14.0" stroke-width="0" transform=" rotate(0, 135, 495)"/>
  <ellipse cx="165.0" cy="495.0" fill="#6dd6ff" rx="14.0" ry="14.0" stroke-width="0" transform=" rotate(0, 165, 495)"/>
  <ellipse cx="195.0" cy="495.0" fill="#6dd6ff" rx="14.0" ry="14.0" stroke-width="0" transform=" rotate(0, 195, 495)"/>
  <ellipse cx="225.0" cy="495.0" fill="#6dd6ff" rx="14.0" ry="14.0" stroke-width="0" transform=" rotate(0, 225, 495)"/>
  <ellipse cx="255.0" cy="495.0" fill="#6dd6ff" rx="14.0" ry="14.0" stroke-width="0" transform=" rotate(0, 255, 495)"/>
  <ellipse cx="285.0" cy="495.0" fill="#6dd6ff" rx="14.0" ry="14.0" stroke-width="0" transform=" rotate(0, 285, 495)"/>
  <polygon fill="#6dd6ff" points="301.0,509.0 315.0,481.0 329.0,509.0" stroke-width="0" transform=" rotate(0, 315, 495)"/>
  <polygon fill="#6dd6ff" points="331.0,509.0 345.0,481.0 359.0,509.0" stroke-width="0" transform=" rotate(0, 345, 495)"/>
  <polygon fill="#6dd6ff" points="361.0,509.0 375.0,481.0 389.0,509.0" stroke-width="0" transform=" rotate(0, 375, 495)"/>
  <polygon fill="#6dd6ff" points="391.0,509.0 405.0,481.0 419.0,509.0" stroke-width="0" transform=" rotate(0, 405, 495)"/>
  <polygon fill="#6dd6ff" points="421.0,509.0 435.0,481.0 449.0,509.0" stroke-width="0" transform=" rotate(0, 435, 495)"/>
  <polygon fill="#6dd6ff" points="451.0,509.0 465.0,481.0 479.0,509.0" stroke-width="0" transform=" rotate(0, 465, 495)"/>
  <polygon fill="#6dd6ff" points="481.0,509.0 495.0,481.0 509.0,509.0" stroke-width="0" transform=" rotate(0, 495, 495)"/>
  <polygon fill="#6dd6ff" points="511.0,509.0 525.0,481.0 539.0,509.0" stroke-width="0" transform=" rotate(0, 525, 495)"/>
  <polygon fill="#6dd6ff" points="541.0,509.0 555.0,481.0 569.0,509.0" stroke-width="0" transform=" rotate(0, 555, 495)"/>
  <polygon fill="#6dd6ff" points="571.0,509.0 585.0,481.0 599.0,509.0" stroke-width="0" transform=" rotate(0, 585, 495)"/>
  <polygon fill="#6dd6ff" points="601.0,509.0 615.0,481.0 629.0,509.0" stroke-width="0" transform=" rotate(0, 615, 495)"/>
  <polygon fill="#6dd6ff" points="631.0,509.0 645.0,481.0 659.0,509.0" stroke-width="0" transform=" rotate(0, 645, 495)"/>
  <ellipse cx="-45.0" cy="525.0" fill="#6dd6ff" rx="14.0" ry="14.0" stroke-width="0" transform=" rotate(0, -45, 525)"/>
  <ellipse cx="-15.0" cy="525.0" fill="#6dd6ff" rx="14.0" ry="14.0" stroke-width="0" transform=" rotate(0, -15, 525)"/>
  <ellipse cx="15.0" cy="525.0" fill="#6dd6ff" rx="14.0" ry="14.0" stroke-width="0" transform=" rotate(0, 15, 525)"/>
  <ellipse cx="45.0" cy="525.0" fill="#6dd6ff" rx="14.0" ry="14.0" stroke-width="0" transform=" rotate(0, 45, 525)"/>
  <ellipse cx="75.0" cy="525.0" fill="#6dd6ff" rx="14.0" ry="14.0" stroke-width="0" transform=" rotate(0, 75, 525)"/>
  <ellipse cx="105.0" cy="525.0" fill="#6dd6ff" rx="14.0" ry="14.0" stroke-width="0" transform=" rotate(0, 105, 525)"/>
  <ellipse cx="135.0" cy="525.0" fill="#6dd6ff" rx="14.0" ry="14.0" stroke-width="0" transform=" rotate(0, 135, 525)"/>
  <ellipse cx="165.0" cy="525.0" fill="#6dd6ff" rx="14.0" ry="14.0" stroke-width="0" transform=" rotate(0, 165, 525)"/>
  <ellipse cx="195.0" cy="525.0" fill="#6dd6ff" rx="14.0" ry="14.0" stroke-width="0" transform=" rotate(0, 195, 525)"/>
  <ellipse cx="225.0" cy="525.0" fill="#6dd6ff" rx="14.0" ry="14.0" stroke-width="0" transform=" rotate(0, 225, 525)"/>
  <ellipse cx="255.0" cy="525.0" fill="#6dd6ff" rx="14.0" ry="14.0" stroke-width="0" transform=" rotate(0, 255, 525)"/>
  <ellipse cx="285.0" cy="525.0" fill="#6dd6ff" rx="14.0" ry="14.0" stroke-width="0" transform=" rotate(0, 285, 525)"/>
  <polygon fill="#6dd6ff" points="301.0,539.0 315.0,511.0 329.0,539.0" stroke-width="0" transform=" rotate(0, 315, 525)"/>
  <polygon fill="#6dd6ff" points="331.0,539.0 345.0,511.0 359.0,539.0" stroke-width="0" transform=" rotate(0, 345, 525)"/>
  <polygon fill="#6dd6ff" points="361.0,539.0 375.0,511.0 389.0,539.0" stroke-width="0" transform=" rotate(0, 375, 525)"/>
  <polygon fill="#6dd6ff" points="391.0,539.0 405.0,511.0 419.0,539.0" stroke-width="0" transform=" rotate(0, 405, 525)"/>
  <polygon fill="#6dd6ff" points="421.0,539.0 435.0,511.0 449.0,539.0" stroke-width="0" transform=" rotate(0, 435, 525)"/>
  <polygon fill="#6dd6ff" points="451.0,539.0 465.0,511.0 479.0,539.0" stroke-width="0" transform=" rotate(0, 465, 525)"/>
  <polygon fill="#6dd6ff" points="481.0,539.0 495.0,511.0 509.0,539.0" stroke-width="0" transform=" rotate(0, 495, 525)"/>
  <polygon fill="#6dd6ff" points="511.0,539.0 525.0,511.0 539.0,539.0" stroke-width="0" transform=" rotate(0, 525, 525)"/>
  <polygon fill="#6dd6ff" points="541.0,539.0 555.0,511.0 569.0,539.0" stroke-width="0" transform=" rotate(0, 555, 525)"/>
  <polygon fill="#6dd6ff" points="571.0,539.0 585.0,511.0 599.0,539.0" stroke-width="0" transform=" rotate(0, 585, 525)"/>
  <polygon fill="#6dd6ff" points="601.0,539.0 615.0,511.0 629.0,539.0" stroke-width="0" transform=" rotate(0, 615, 525)"/>
  <polygon fill="#6dd6ff" points="631.0,539.0 645.0,511.0 659.0,539.0" stroke-width="0" transform=" rotate(0, 645, 525)"/>
  <ellipse cx="-45.0" cy="555.0" fill="#6dd6ff" rx="14.0" ry="14.0" stroke-width="0" transform=" rotate(0, -45, 555)"/>
  <ellipse cx="-15.0" cy="555.0" fill="#6dd6ff" rx="14.0" ry="14.0" stroke-width="0" transform=" rotate(0, -15, 555)"/>
  <ellipse cx="15.0" cy="555.0" fill="#6dd6ff" rx="14.0" ry="14.0" stroke-width="0" transform=" rotate(0, 15, 555)"/>
  <ellipse cx="45.0" cy="555.0" fill="#6dd6ff" rx="14.0" ry="14.0" stroke-width="0" transform=" rotate(0, 45, 555)"/>
  <ellipse cx="75.0" cy="555.0" fill="#6dd6ff" rx="14.0" ry="14.0" stroke-width="0" transform=" rotate(0, 75, 555)"/>
  <ellipse cx="105.0" cy="555.0" fill="#6dd6ff" rx="14.0" ry="14.0" stroke-width="0" transform=" rotate(0, 105, 555)"/>
  <ellipse cx="135.0" cy="555.0" fill="#6dd6ff" rx="14.0" ry="14.0" stroke-width="0" transform=" rotate(0, 135, 555)"/>
  <ellipse cx="165.0" cy="555.0" fill="#6dd6ff" rx="14.0" ry="14.0" stroke-width="0" transform=" rotate(0, 165, 555)"/>
  <ellipse cx="195.0" cy="555.0" fill="#6dd6ff" rx="14.0" ry="14.0" stroke-width="0" transform=" rotate(0, 195, 555)"/>
  <ellipse cx="225.0" cy="555.0" fill="#6dd6ff" rx="14.0" ry="14.0" stroke-width="0" transform=" rotate(0, 225, 555)"/>
  <ellipse cx="255.0" cy="555.0" fill="#6dd6ff" rx="14.0" ry="14.0" stroke-width="0" transform=" rotate(0, 255, 555)"/>
  <ellipse cx="285.0" cy="555.0" fill="#6dd6ff" rx="14.0" ry="14.0" stroke-width="0" transform=" rotate(0, 285, 555)"/>
  <polygon fill="#6dd6ff" points="301.0,569.0 315.0,541.0 329.0,569.0" stroke-width="0" transform=" rotate(0, 315, 555)"/>
  <polygon fill="#6dd6ff" points="331.0,569.0 345.0,541.0 359.0,569.0" stroke-width="0" transform=" rotate(0, 345, 555)"/>
  <polygon fill="#6dd6ff" points="361.0,569.0 375.0,541.0 389.0,569.0" stroke-width="0" transform=" rotate(0, 375, 555)"/>
  <polygon fill="#6dd6ff" points="391.0,569.0 405.0,541.0 419.0,569.0" stroke-width="0" transform=" rotate(0, 405, 555)"/>
  <polygon fill="#6dd6ff" points="421.0,569.0 435.0,541.0 449.0,569.0" stroke-width="0" transform=" rotate(0, 435, 555)"/>
  <polygon fill="#6dd6ff" points="451.0,569.0 465.0,541.0 479.0,569.0" stroke-width="0" transform=" rotate(0, 465, 555)"/>
  <polygon fill="#6dd6ff" points="481.0,569.0 495.0,541.0 509.0,569.0" stroke-width="0" transform=" rotate(0, 495, 555)"/>
  <polygon fill="#6dd6ff" points="511.0,569.0 525.0,541.0 539.0,569.0" stroke-width="0" transform=" rotate(0, 525, 555)"/>
  <polygon fill="#6dd6ff" points="541.0,569.0 555.0,541.0 569.0,569.0" stroke-width="0" transform=" rotate(0, 555, 555)"/>
  <polygon fill="#6dd6ff" points="571.0,569.0 585.0,541.0 599.0,569.0" stroke-width="0" transform=" rotate(0, 585, 555)"/>
  <polygon fill="#6dd6ff" points="601.0,569.0 615.0,541.0 629.0,569.0" stroke-width="0" transform=" rotate(0, 615, 555)"/>
  <polygon fill="#6dd6ff" points="631.0,569.0 645.0,541.0 659.0,569.0" stroke-width="0" transform=" rotate(0, 645, 555)"/>
  <ellipse cx="-45.0" cy="585.0" fill="#6dd6ff" rx="14.0" ry="14.0" stroke-width="0" transform=" rotate(0, -45, 585)"/>
  <ellipse cx="-15.0" cy="585.0" fill="#6dd6ff" rx="14.0" ry="14.0" stroke-width="0" transform=" rotate(0, -15, 585)"/>
  <ellipse cx="15.0" cy="585.0" fill="#6dd6ff" rx="14.0" ry="14.0" stroke-width="0" transform=" rotate(0, 15, 585)"/>
  <ellipse cx="45.0" cy="585.0" fill="#6dd6ff" rx="14.0" ry="14.0" stroke-width="0" transform=" rotate(0, 45, 585)"/>
  <ellipse cx="75.0" cy="585.0" fill="#6dd6ff" rx="14.0" ry="14.0" stroke-width="0" transform=" rotate(0, 75, 585)"/>
  <ellipse cx="105.0" cy="585.0" fill="#6dd6ff" rx="14.0" ry="14.0" stroke-width="0" transform=" rotate(0, 105, 585)"/>
  <ellipse cx="135.0" cy="585.0" fill="#6dd6ff" rx="14.0" ry="14.0" stroke-width="0" transform=" rotate(0, 135, 585)"/>
  <ellipse cx="165.0" cy="585.0" fill="#6dd6ff" rx="14.0" ry="14.0" stroke-width="0" transform=" rotate(0, 165, 585)"/>
  <ellipse cx="195.0" cy="585.0" fill="#6dd6ff" rx="14.0" ry="14.0" stroke-width="0" transform=" rotate(0, 195, 585)"/>
  <ellipse cx="225.0" cy="585.0" fill="#6dd6ff" rx="14.0" ry="14.0" stroke-width="0" transform=" rotate(0, 225, 585)"/>
  <ellipse cx="255.0" cy="585.0" fill="#6dd6ff" rx="14.0" ry="14.0" stroke-width="0" transform=" rotate(0, 255, 585)"/>
  <ellipse cx="285.0" cy="585.0" fill="#6dd6ff" rx="14.0" ry="14.0" stroke-width="0" transform=" rotate(0, 285, 585)"/>
  <polygon fill="#6dd6ff" points="301.0,599.0 315.0,571.0 329.0,599.0" stroke-width="0" transform=" rotate(0, 315, 585)"/>
  <polygon fill="#6dd6ff" points="331.0,599.0 345.0,571.0 359.0,599.0" stroke-width="0" transform=" rotate(0, 345, 585)"/>
  <polygon fill="#6dd6ff" points="361.0,599.0 375.0,571.0 389.0,599.0" stroke-width="0" transform=" rotate(0, 375, 585)"/>
  <polygon fill="#6dd6ff" points="391.0,599.0 405.0,571.0 419.0,599.0" stroke-width="0" transform=" rotate(0, 405, 585)"/>
  <polygon fill="#6dd6ff" points="421.0,599.0 435.0,571.0 449.0,599.0" stroke-width="0" transform=" rotate(0, 435, 585)"/>
  <polygon fill="#6dd6ff" points="451.0,599.0 465.0,571.0 479.0,599.0" stroke-width="0" transform=" rotate(0, 465, 585)"/>
  <polygon fill="#6dd6ff" points="481.0,599.0 495.0,571.0 509.0,599.0" stroke-width="0" transform=" rotate(0, 495, 585)"/>
  <polygon fill="#6dd6ff" points="511.0,599.0 525.0,571.0 539.0,599.0" stroke-width="0" transform=" rotate(0, 525, 585)"/>
  <polygon fill="#6dd6ff" points="541.0,599.0 555.0,571.0 569.0,599.0" stroke-width="0" transform=" rotate(0, 555, 585)"/>
  <polygon fill="#6dd6ff" points="571.0,599.0 585.0,571.0 599.0,599.0" stroke-width="0" transform=" rotate(0, 585, 585)"/>
  <polygon fill="#6dd6ff" points="601.0,599.0 615.0,571.0 629.0,599.0" stroke-width="0" transform=" rotate(0, 615, 585)"/>
  <polygon fill="#6dd6ff" points="631.0,599.0 645.0,571.0 659.0,599.0" stroke-width="0" transform=" rotate(0, 645, 585)"/>
  <ellipse cx="-45.0" cy="615.0" fill="#6dd6ff" rx="14.0" ry="14.0" stroke-width="0" transform=" rotate(0, -45, 615)"/>
  <ellipse cx="-15.0" cy="615.0" fill="#6dd6ff" rx="14.0" ry="14.0" stroke-width="0" transform=" rotate(0, -15, 615)"/>
  <ellipse cx="15.0" cy="615.0" fill="#6dd6ff" rx="14.0" ry="14.0" stroke-width="0" transform=" rotate(0, 15, 615)"/>
  <ellipse cx="45.0" cy="615.0" fill="#6dd6ff" rx="14.0" ry="14.0" stroke-width="0" transform=" rotate(0, 45, 615)"/>
  <ellipse cx="75.0" cy="615.0" fill="#6dd6ff" rx="14.0" ry="14.0" stroke-width="0" transform=" rotate(0, 75, 615)"/>
  <ellipse cx="105.0" cy="615.0" fill="#6dd6ff" rx="14.0" ry="14.0" stroke-width="0" transform=" rotate(0, 105, 615)"/>
  <ellipse cx="135.0" cy="615.0" fill="#6dd6ff" rx="14.0" ry="14.0" stroke-width="0" transform=" rotate(0, 135, 615)"/>
  <ellipse cx="165.0" cy="615.0" fill="#6dd6ff" rx="14.0" ry="14.0" stroke-width="0" transform=" rotate(0, 165, 615)"/>
  <ellipse cx="195.0" cy="615.0" fill="#6dd6ff" rx="14.0" ry="14.0" stroke-width="0" transform=" rotate(0, 195, 615)"/>
  <ellipse cx="225.0" cy="615.0" fill="#6dd6ff" rx="14.0" ry="14.0" stroke-width="0" transform=" rotate(0, 225, 615)"/>
  <ellipse cx="255.0" cy="615.0" fill="#6dd6ff" rx="14.0" ry="14.0" stroke-width="0" transform=" rotate(0, 255, 615)"/>
  <ellipse cx="285.0" cy="615.0" fill="#6dd6ff" rx="14.0" ry="14.0" stroke-width="0" transform=" rotate(0, 285, 615)"/>
  <polygon fill="#6dd6ff" points="301.0,629.0 315.0,601.0 329.0,629.0" stroke-width="0" transform=" rotate(0, 315, 615)"/>
  <polygon fill="#6dd6ff" points="331.0,629.0 345.0,601.0 359.0,629.0" stroke-width="0" transform=" rotate(0, 345, 615)"/>
  <polygon fill="#6dd6ff" points="361.0,629.0 375.0,601.0 389.0,629.0" stroke-width="0" transform=" rotate(0, 375, 615)"/>
  <polygon fill="#6dd6ff" points="391.0,629.0 405.0,601.0 419.0,629.0" stroke-width="0" transform=" rotate(0, 405, 615)"/>
  <polygon fill="#6dd6ff" points="421.0,629.0 435.0,601.0 449.0,629.0" stroke-width="0" transform=" rotate(0, 435, 615)"/>
  <polygon fill="#6dd6ff" points="451.0,629.0 465.0,601.0 479.0,629.0" stroke-width="0" transform=" rotate(0, 465, 615)"/>
  <polygon fill="#6dd6ff" points="481.0,629.0 495.0,601.0 509.0,629.0" stroke-width="0" transform=" rotate(0, 495, 615)"/>
  <polygon fill="#6dd6ff" points="511.0,629.0 525.0,601.0 539.0,629.0" stroke-width="0" transform=" rotate(0, 525, 615)"/>
  <polygon fill="#6dd6ff" points="541.0,629.0 555.0,601.0 569.0,629.0" stroke-width="0" transform=" rotate(0, 555, 615)"/>
  <polygon fill="#6dd6ff" points="571.0,629.0 585.0,601.0 599.0,629.0" stroke-width="0" transform=" rotate(0, 585, 615)"/>
  <polygon fill="#6dd6ff" points="601.0,629.0 615.0,601.0 629.0,629.0" stroke-width="0" transform=" rotate(0, 615, 615)"/>
  <polygon fill="#6dd6ff" points="631.0,629.0 645.0,601.0 659.0,629.0" stroke-width="0" transform=" rotate(0, 645, 615)"/>
  <ellipse cx="-45.0" cy="645.0" fill="#6dd6ff" rx="14.0" ry="14.0" stroke-width="0" transform=" rotate(0, -45, 645)"/>
  <ellipse cx="-15.0" cy="645.0" fill="#6dd6ff" rx="14.0" ry="14.0" stroke-width="0" transform=" rotate(0, -15, 645)"/>
  <ellipse cx="15.0" cy="645.0" fill="#6dd6ff" rx="14.0" ry="14.0" stroke-width="0" transform=" rotate(0, 15, 645)"/>
  <ellipse cx="45.0" cy="645.0" fill="#6dd6ff" rx="14.0" ry="14.0" stroke-width="0" transform=" rotate(0, 45, 645)"/>
  <ellipse cx="75.0" cy="645.0" fill="#6dd6ff" rx="14.0" ry="14.0" stroke-width="0" transform=" rotate(0, 75, 645)"/>
  <ellipse cx="105.0" cy="645.0" fill="#6dd6ff" rx="14.0" ry="14.0" stroke-width="0" transform=" rotate(0, 105, 645)"/>
  <ellipse cx="135.0" cy="645.0" fill="#6dd6ff" rx="14.0" ry="14.0" stroke-width="0" transform=" rotate(0, 135, 645)"/>
  <ellipse cx="165.0" cy="645.0" fill="#6dd6ff" rx="14.0" ry="14.0" stroke-width="0" transform=" rotate(0, 165, 645)"/>
  <ellipse cx="195.0" cy="645.0" fill="#6dd6ff" rx="14.0" ry="14.0" stroke-width="0" transform=" rotate(0, 195, 645)"/>
  <ellipse cx="225.0" cy="645.0" fill="#6dd6ff" rx="14.0" ry="14.0" stroke-width="0" transform=" rotate(0, 225, 645)"/>
  <ellipse cx="255.0" cy="645.0" fill="#6dd6ff" rx="14.0" ry="14.0" stroke-width="0" transform=" rotate(0, 255, 645)"/>
  <ellipse cx="285.0" cy="645.0" fill="#6dd6ff" rx="14.0" ry="14.0" stroke-width="0" transform=" rotate(0, 285, 645)"/>
  <polygon fill="#6dd6ff" points="301.0,659.0 315.0,631.0 329.0,659.0" stroke-width="0" transform=" rotate(0, 315, 645)"/>
  <polygon fill="#6dd6ff" points="331.0,659.0 345.0,631.0 359.0,659.0" stroke-width="0" transform=" rotate(0, 345, 645)"/>
  <polygon fill="#6dd6ff" points="361.0,659.0 375.0,631.0 389.0,659.0" stroke-width="0" transform=" rotate(0, 375, 645)"/>
  <polygon fill="#6dd6ff" points="391.0,659.0 405.0,631.0 419.0,659.0" stroke-width="0" transform=" rotate(0, 405, 645)"/>
  <polygon fill="#6dd6ff" points="421.0,659.0 435.0,631.0 449.0,659.0" stroke-width="0" transform=" rotate(0, 435, 645)"/>
  <polygon fill="#6dd6ff" points="451.0,659.0 465.0,631.0 479.0,659.0" stroke-width="0" transform=" rotate(0, 465, 645)"/>
  <polygon fill="#6dd6ff" points="481.0,659.0 495.0,631.0 509.0,659.0" stroke-width="0" transform=" rotate(0, 495, 645)"/>
  <polygon fill="#6dd6ff" points="511.0,659.0 525.0,631.0 539.0,659.0" stroke-width="0" transform=" rotate(0, 525, 645)"/>
  <polygon fill="#6dd6ff" points="541.0,659.0 555.0,631.0 569.0,659.0" stroke-width="0" transform=" rotate(0, 555, 645)"/>
  <polygon fill="#6dd6ff" points="571.0,659.0 585.0,631.0 599.0,659.0" stroke-width="0" transform=" rotate(0, 585, 645)"/>
  <polygon fill="#6dd6ff" points="601.0,659.0 615.0,631.0 629.0,659.0" stroke-width="0" transform=" rotate(0, 615, 645)"/>
  <polygon fill="#6dd6ff" points="631.0,659.0 645.0,631.0 659.0,659.0" stroke-width="0" transform=" rotate(0, 645, 645)"/>
</svg>
