<?xml version="1.0" encoding="utf-8" ?>
<svg baseProfile="tiny" height="330" version="1.2" width="330" xmlns="http://www.w3.org/2000/svg" xmlns:ev="http://www.w3.org/2001/xml-events" xmlns:xlink="http://www.w3.org/1999/xlink">
  <defs/>
  <rect fill="white" height="330" width="330" x="0" y="0"/>
  <rect fill="#6dd6ff" height="15" stroke-width="0" transform=" rotate(0, 55, 55)" width="15" x="47.6681" y="48.306"/>
  <polygon fill="#6dd6ff" points="81.686,67.273 89.186,52.273 96.686,67.273" stroke-width="0" transform=" rotate(0, 89, 59)"/>
  <ellipse cx="122.3269" cy="55.6465" fill="#6dd6ff" rx="7.5" ry="7.5" stroke-width="0" transform=" rotate(0, 122, 55)"/>
  <rect fill="#6dd6ff" height="15" stroke-width="0" transform=" rotate(0, 144, 64)" width="15" x="137.2562" y="56.5203"/>
  <polygon fill="#6dd6ff" points="176.8979,68.7423 184.3979,53.7423 191.8979,68.7423" stroke-width="0" transform=" rotate(0, 184, 61)"/>
  <ellipse cx="212.323" cy="58.7571" fill="#6dd6ff" rx="7.5" ry="7.5" stroke-width="0" transform=" rotate(0, 212, 58)"/>
  <rect fill="#6dd6ff" height="15" stroke-width="0" transform=" rotate(0, 239, 64)" width="15" x="232.4911" y="57.4428"/>
  <polygon fill="#6dd6ff" points="257.3484,66.6283 264.8484,51.6283 272.3484,66.6283" stroke-width="0" transform=" rotate(0, 264, 59)"/>
  <rect fill="#1b9fd8" height="21" stroke-width="0" transform=" rotate(0, 63, 86)" width="21" x="53.2919" y="76.3573"/>
  <polygon fill="#1b9fd8" points="77.9623,100.8144 88.4623,79.8144 98.9623,100.8144" stroke-width="0" transform=" rotate(0, 88, 90)"/>
  <ellipse cx="116.1911" cy="92.2476" fill="#1b9fd8" rx="10.5" ry="10.5" stroke-width="0" transform=" rotate(0, 116, 92)"/>
  <rect fill="#1b9fd8" height="21" stroke-width="0" transform=" rotate(0, 150, 86)" width="21" x="140.4549" y="76.2073"/>
  <polygon fill="#1b9fd8" points="174.6878,99.7225 185.1878,78.7225 195.6878,99.7225" stroke-width="0" transform=" rotate(0, 185, 89)"/>
  <ellipse cx="205.8239" cy="86.8087" fill="#1b9fd8" rx="10.5" ry="10.5" stroke-width="0" transform=" rotate(0, 205, 86)"/>
  <rect fill="#1b9fd8" height="21" stroke-width="0" transform=" rotate(0, 240, 86)" width="21" x="230.0967" y="76.1021"/>
  <polygon fill="#1b9fd8" points="261.5462,102.383 272.0462,81.383 282.5462,102.383" stroke-width="0" transform=" rotate(0, 272, 91)"/>
  <rect fill="#006ca1" height="27" stroke-width="0" transform=" rotate(0, 55, 122)" width="27" x="42.1818" y="109.3851"/>
  <polygon fill="#006ca1" points="76.5197,128.298 90.0197,101.298 103.5197,128.298" stroke-width="0" transform=" rotate(0, 90, 114)"/>
  <ellipse cx="121.8805" cy="117.6125" fill="#006ca1" rx="13.5" ry="13.5" stroke-width="0" transform=" rotate(0, 121, 117)"/>
  <rect fill="#006ca1" height="27" stroke-width="0" transform=" rotate(0, 149, 115)" width="27" x="135.9385" y="102.4241"/>
  <polygon fill="#006ca1" points="162.3338,137.3576 175.8338,110.3576 189.3338,137.3576" stroke-width="0" transform=" rotate(0, 175, 123)"/>
  <ellipse cx="211.6726" cy="126.3039" fill="#006ca1" rx="13.5" ry="13.5" stroke-width="0" transform=" rotate(0, 211, 126)"/>
  <rect fill="#006ca1" height="27" stroke-width="0" transform=" rotate(0, 239, 116)" width="27" x="225.5828" y="102.8031"/>
  <polygon fill="#006ca1" points="260.8978,135.7362 274.3978,108.7362 287.8978,135.7362" stroke-width="0" transform=" rotate(0, 274, 122)"/>
  <rect fill="#6dd6ff" height="15" stroke-width="0" transform=" rotate(0, 59, 154)" width="15" x="51.8379" y="146.5312"/>
  <polygon fill="#6dd6ff" points="83.2301,153.2857 90.7301,138.2857 98.2301,153.2857" stroke-width="0" transform=" rotate(0, 90, 145)"/>
  <ellipse cx="122.124" cy="148.8243" fill="#6dd6ff" rx="7.5" ry="7.5" stroke-width="0" transform=" rotate(0, 122, 148)"/>
  <rect fill="#6dd6ff" height="15" stroke-width="0" transform=" rotate(0, 147, 148)" width="15" x="139.6011" y="141.4604"/>
  <polygon fill="#6dd6ff" points="174.3106,153.7201 181.8106,138.7201 189.3106,153.7201" stroke-width="0" transform=" rotate(0, 181, 146)"/>
  <ellipse cx="215.2414" cy="145.3363" fill="#6dd6ff" rx="7.5" ry="7.5" stroke-width="0" transform=" rotate(0, 215, 145)"/>
  <rect fill="#6dd6ff" height="15" stroke-width="0" transform=" rotate(0, 234, 146)" width="15" x="227.0267" y="139.4424"/>
  <polygon fill="#6dd6ff" points="260.9673,156.4687 268.4673,141.4687 275.9673,156.4687" stroke-width="0" transform=" rotate(0, 268, 148)"/>
  <rect fill="#6dd6ff" height="15" stroke-width="0" transform=" rotate(0, 61, 179)" width="15" x="54.4374" y="171.65"/>
  <polygon fill="#6dd6ff" points="81.8506,184.7243 89.3506,169.7243 96.8506,184.7243" stroke-width="0" transform=" rotate(0, 89, 177)"/>
  <ellipse cx="125.2041" cy="182.8148" fill="#6dd6ff" rx="7.5" ry="7.5" stroke-width="0" transform=" rotate(0, 125, 182)"/>
  <rect fill="#6dd6ff" height="15" stroke-width="0" transform=" rotate(0, 152, 178)" width="15" x="144.6401" y="171.3462"/>
  <polygon fill="#6dd6ff" points="172.2803,193.4939 179.7803,178.4939 187.2803,193.4939" stroke-width="0" transform=" rotate(0, 179, 185)"/>
  <ellipse cx="214.8872" cy="181.4762" fill="#6dd6ff" rx="7.5" ry="7.5" stroke-width="0" transform=" rotate(0, 214, 181)"/>
  <rect fill="#6dd6ff" height="15" stroke-width="0" transform=" rotate(0, 241, 184)" width="15" x="234.1822" y="177.4535"/>
  <polygon fill="#6dd6ff" points="263.7703,183.6689 271.2703,168.6689 278.7703,183.6689" stroke-width="0" transform=" rotate(0, 271, 176)"/>
  <rect fill="#006ca1" height="27" stroke-width="0" transform=" rotate(0, 60, 208)" width="27" x="47.2978" y="195.4268"/>
  <polygon fill="#006ca1" points="77.6867,228.7349 91.1867,201.7349 104.6867,228.7349" stroke-width="0" transform=" rotate(0, 91, 215)"/>
  <ellipse cx="121.5738" cy="208.9761" fill="#006ca1" rx="13.5" ry="13.5" stroke-width="0" transform=" rotate(0, 121, 208)"/>
  <rect fill="#006ca1" height="27" stroke-width="0" transform=" rotate(0, 155, 205)" width="27" x="141.8965" y="192.415"/>
  <polygon fill="#006ca1" points="164.4073,222.4453 177.9073,195.4453 191.4073,222.4453" stroke-width="0" transform=" rotate(0, 177, 208)"/>
  <ellipse cx="214.9185" cy="212.2731" fill="#006ca1" rx="13.5" ry="13.5" stroke-width="0" transform=" rotate(0, 214, 212)"/>
  <rect fill="#006ca1" height="27" stroke-width="0" transform=" rotate(0, 238, 209)" width="27" x="224.818" y="195.733"/>
  <polygon fill="#006ca1" points="253.5347,229.1216 267.0347,202.1216 280.5347,229.1216" stroke-width="0" transform=" rotate(0, 267, 215)"/>
  <rect fill="#1b9fd8" height="21" stroke-width="0" transform=" rotate(0, 54, 236)" width="21" x="44.2739" y="226.4604"/>
  <polygon fill="#1b9fd8" points="84.4599,248.004 94.9599,227.004 105.4599,248.004" stroke-width="0" transform=" rotate(0, 94, 237)"/>
  <ellipse cx="115.523" cy="246.0271" fill="#1b9fd8" rx="10.5" ry="10.5" stroke-width="0" transform=" rotate(0, 115, 246)"/>
  <rect fill="#1b9fd8" height="21" stroke-width="0" transform=" rotate(0, 148, 237)" width="21" x="137.9473" y="227.2893"/>
  <polygon fill="#1b9fd8" points="174.0308,254.682 184.5308,233.682 195.0308,254.682" stroke-width="0" transform=" rotate(0, 184, 244)"/>
  <ellipse cx="212.6378" cy="235.7387" fill="#1b9fd8" rx="10.5" ry="10.5" stroke-width="0" transform=" rotate(0, 212, 235)"/>
  <rect fill="#1b9fd8" height="21" stroke-width="0" transform=" rotate(0, 236, 235)" width="21" x="226.4766" y="225.4167"/>
  <polygon fill="#1b9fd8" points="257.6409,248.6584 268.1409,227.6584 278.6409,248.6584" stroke-width="0" transform=" rotate(0, 268, 238)"/>
  <rect fill="#6dd6ff" height="15" stroke-width="0" transform=" rotate(0, 59, 274)" width="15" x="51.57" y="267.4083"/>
  <polygon fill="#6dd6ff" points="80.0461,282.6822 87.5461,267.6822 95.0461,282.6822" stroke-width="0" transform=" rotate(0, 87, 275)"/>
  <ellipse cx="118.6193" cy="274.8557" fill="#6dd6ff" rx="7.5" ry="7.5" stroke-width="0" transform=" rotate(0, 118, 274)"/>
  <rect fill="#6dd6ff" height="15" stroke-width="0" transform=" rotate(0, 147, 275)" width="15" x="139.5082" y="267.6252"/>
  <polygon fill="#6dd6ff" points="167.3869,273.1288 174.8869,258.1288 182.3869,273.1288" stroke-width="0" transform=" rotate(0, 174, 265)"/>
  <ellipse cx="214.1837" cy="269.0199" fill="#6dd6ff" rx="7.5" ry="7.5" stroke-width="0" transform=" rotate(0, 214, 269)"/>
  <rect fill="#6dd6ff" height="15" stroke-width="0" transform=" rotate(0, 234, 272)" width="15" x="226.7623" y="265.1045"/>
  <polygon fill="#6dd6ff" points="264.1486,281.1963 271.6486,266.1963 279.1486,281.1963" stroke-width="0" transform=" rotate(0, 271, 273)"/>
</svg>
