<?xml version="1.0" encoding="utf-8" ?>
<svg baseProfile="tiny" height="330" version="1.2" width="330" xmlns="http://www.w3.org/2000/svg" xmlns:ev="http://www.w3.org/2001/xml-events" xmlns:xlink="http://www.w3.org/1999/xlink">
  <defs/>
  <rect fill="white" height="330" width="330" x="0" y="0"/>
  <rect fill="#6dd6ff" height="5" stroke-width="0" transform=" rotate(0, 45, 53)" width="5" x="42.7625" y="50.6458"/>
  <polygon fill="#6dd6ff" points="56.8835,51.9123 59.3835,46.9123 61.8835,51.9123" stroke-width="0" transform=" rotate(0, 59, 49)"/>
  <ellipse cx="72.6049" cy="48.7538" fill="#6dd6ff" rx="2.5" ry="2.5" stroke-width="0" transform=" rotate(0, 72, 48)"/>
  <rect fill="#6dd6ff" height="5" stroke-width="0" transform=" rotate(0, 74, 55)" width="5" x="72.3401" y="52.5145"/>
  <polygon fill="#6dd6ff" points="92.2289,56.4335 94.7289,51.4335 97.2289,56.4335" stroke-width="0" transform=" rotate(0, 94, 53)"/>
  <ellipse cx="102.6008" cy="43.8805" fill="#6dd6ff" rx="2.5" ry="2.5" stroke-width="0" transform=" rotate(0, 102, 43)"/>
  <rect fill="#6dd6ff" height="5" stroke-width="0" transform=" rotate(0, 110, 54)" width="5" x="107.7092" y="51.5791"/>
  <polygon fill="#6dd6ff" points="112.4346,57.7976 114.9346,52.7976 117.4346,57.7976" stroke-width="0" transform=" rotate(0, 114, 55)"/>
  <ellipse cx="134.1074" cy="54.0301" fill="#6dd6ff" rx="2.5" ry="2.5" stroke-width="0" transform=" rotate(0, 134, 54)"/>
  <rect fill="#6dd6ff" height="5" stroke-width="0" transform=" rotate(0, 138, 55)" width="5" x="136.1411" y="52.9442"/>
  <polygon fill="#6dd6ff" points="143.8117,57.7414 146.3117,52.7414 148.8117,57.7414" stroke-width="0" transform=" rotate(0, 146, 55)"/>
  <ellipse cx="161.1977" cy="44.9475" fill="#6dd6ff" rx="2.5" ry="2.5" stroke-width="0" transform=" rotate(0, 161, 44)"/>
  <rect fill="#6dd6ff" height="5" stroke-width="0" transform=" rotate(0, 175, 47)" width="5" x="173.0391" y="45.2151"/>
  <polygon fill="#6dd6ff" points="173.4352,51.719 175.9352,46.719 178.4352,51.719" stroke-width="0" transform=" rotate(0, 175, 49)"/>
  <ellipse cx="190.8303" cy="46.5334" fill="#6dd6ff" rx="2.5" ry="2.5" stroke-width="0" transform=" rotate(0, 190, 46)"/>
  <rect fill="#6dd6ff" height="5" stroke-width="0" transform=" rotate(0, 202, 51)" width="5" x="199.8169" y="48.8337"/>
  <polygon fill="#6dd6ff" points="203.2893,53.5868 205.7893,48.5868 208.2893,53.5868" stroke-width="0" transform=" rotate(0, 205, 51)"/>
  <ellipse cx="220.2385" cy="44.9026" fill="#6dd6ff" rx="2.5" ry="2.5" stroke-width="0" transform=" rotate(0, 220, 44)"/>
  <rect fill="#6dd6ff" height="5" stroke-width="0" transform=" rotate(0, 232, 55)" width="5" x="229.6471" y="52.8291"/>
  <polygon fill="#6dd6ff" points="237.1424,46.5447 239.6424,41.5447 242.1424,46.5447" stroke-width="0" transform=" rotate(0, 239, 44)"/>
  <ellipse cx="245.9452" cy="52.683" fill="#6dd6ff" rx="2.5" ry="2.5" stroke-width="0" transform=" rotate(0, 245, 52)"/>
  <rect fill="#6dd6ff" height="5" stroke-width="0" transform=" rotate(0, 261, 45)" width="5" x="259.4338" y="43.4832"/>
  <polygon fill="#6dd6ff" points="266.7776,50.1715 269.2776,45.1715 271.7776,50.1715" stroke-width="0" transform=" rotate(0, 269, 47)"/>
  <ellipse cx="284.7288" cy="49.5394" fill="#6dd6ff" rx="2.5" ry="2.5" stroke-width="0" transform=" rotate(0, 284, 49)"/>
  <rect fill="#1b9fd8" height="7" stroke-width="0" transform=" rotate(0, 49, 61)" width="7" x="46.0392" y="57.6934"/>
  <polygon fill="#1b9fd8" points="57.4671,60.5485 60.9671,53.5485 64.4671,60.5485" stroke-width="0" transform=" rotate(0, 60, 57)"/>
  <ellipse cx="72.3968" cy="64.4166" fill="#1b9fd8" rx="3.5" ry="3.5" stroke-width="0" transform=" rotate(0, 72, 64)"/>
  <rect fill="#1b9fd8" height="7" stroke-width="0" transform=" rotate(0, 77, 61)" width="7" x="73.745" y="58.3368"/>
  <polygon fill="#1b9fd8" points="88.5753,59.5972 92.0753,52.5972 95.5753,59.5972" stroke-width="0" transform=" rotate(0, 92, 56)"/>
  <ellipse cx="105.594" cy="62.2408" fill="#1b9fd8" rx="3.5" ry="3.5" stroke-width="0" transform=" rotate(0, 105, 62)"/>
  <rect fill="#1b9fd8" height="7" stroke-width="0" transform=" rotate(0, 104, 62)" width="7" x="101.1047" y="59.1026"/>
  <polygon fill="#1b9fd8" points="115.1463,67.7667 118.6463,60.7667 122.1463,67.7667" stroke-width="0" transform=" rotate(0, 118, 64)"/>
  <ellipse cx="132.2054" cy="57.6328" fill="#1b9fd8" rx="3.5" ry="3.5" stroke-width="0" transform=" rotate(0, 132, 57)"/>
  <rect fill="#1b9fd8" height="7" stroke-width="0" transform=" rotate(0, 139, 56)" width="7" x="136.0523" y="53.228"/>
  <polygon fill="#1b9fd8" points="152.0559,66.4585 155.5559,59.4585 159.0559,66.4585" stroke-width="0" transform=" rotate(0, 155, 62)"/>
  <ellipse cx="162.4132" cy="56.8462" fill="#1b9fd8" rx="3.5" ry="3.5" stroke-width="0" transform=" rotate(0, 162, 56)"/>
  <rect fill="#1b9fd8" height="7" stroke-width="0" transform=" rotate(0, 169, 63)" width="7" x="166.493" y="60.2053"/>
  <polygon fill="#1b9fd8" points="181.7308,66.6496 185.2308,59.6496 188.7308,66.6496" stroke-width="0" transform=" rotate(0, 185, 63)"/>
  <ellipse cx="191.9436" cy="59.4434" fill="#1b9fd8" rx="3.5" ry="3.5" stroke-width="0" transform=" rotate(0, 191, 59)"/>
  <rect fill="#1b9fd8" height="7" stroke-width="0" transform=" rotate(0, 201, 65)" width="7" x="198.0212" y="62.0926"/>
  <polygon fill="#1b9fd8" points="207.5366,63.1882 211.0366,56.1882 214.5366,63.1882" stroke-width="0" transform=" rotate(0, 211, 59)"/>
  <ellipse cx="221.4354" cy="64.7268" fill="#1b9fd8" rx="3.5" ry="3.5" stroke-width="0" transform=" rotate(0, 221, 64)"/>
  <rect fill="#1b9fd8" height="7" stroke-width="0" transform=" rotate(0, 231, 60)" width="7" x="228.3325" y="57.1503"/>
  <polygon fill="#1b9fd8" points="242.2532,62.8423 245.7532,55.8423 249.2532,62.8423" stroke-width="0" transform=" rotate(0, 245, 59)"/>
  <ellipse cx="248.072" cy="56.7176" fill="#1b9fd8" rx="3.5" ry="3.5" stroke-width="0" transform=" rotate(0, 248, 56)"/>
  <rect fill="#1b9fd8" height="7" stroke-width="0" transform=" rotate(0, 265, 54)" width="7" x="261.763" y="50.7768"/>
  <polygon fill="#1b9fd8" points="264.9932,61.1782 268.4932,54.1782 271.9932,61.1782" stroke-width="0" transform=" rotate(0, 268, 57)"/>
  <ellipse cx="277.1769" cy="60.5909" fill="#1b9fd8" rx="3.5" ry="3.5" stroke-width="0" transform=" rotate(0, 277, 60)"/>
  <rect fill="#006ca1" height="9" stroke-width="0" transform=" rotate(0, 44, 64)" width="9" x="40.3582" y="59.5054"/>
  <polygon fill="#006ca1" points="60.8053,79.0248 65.3053,70.0248 69.8053,79.0248" stroke-width="0" transform=" rotate(0, 65, 74)"/>
  <ellipse cx="65.6265" cy="71.7615" fill="#006ca1" rx="4.5" ry="4.5" stroke-width="0" transform=" rotate(0, 65, 71)"/>
  <rect fill="#006ca1" height="9" stroke-width="0" transform=" rotate(0, 78, 71)" width="9" x="74.1258" y="67.3354"/>
  <polygon fill="#006ca1" points="90.3653,78.2917 94.8653,69.2917 99.3653,78.2917" stroke-width="0" transform=" rotate(0, 94, 73)"/>
  <ellipse cx="102.9238" cy="73.7645" fill="#006ca1" rx="4.5" ry="4.5" stroke-width="0" transform=" rotate(0, 102, 73)"/>
  <rect fill="#006ca1" height="9" stroke-width="0" transform=" rotate(0, 107, 66)" width="9" x="102.6174" y="61.8996"/>
  <polygon fill="#006ca1" points="113.8116,69.2632 118.3116,60.2632 122.8116,69.2632" stroke-width="0" transform=" rotate(0, 118, 64)"/>
  <ellipse cx="129.2644" cy="74.4349" fill="#006ca1" rx="4.5" ry="4.5" stroke-width="0" transform=" rotate(0, 129, 74)"/>
  <rect fill="#006ca1" height="9" stroke-width="0" transform=" rotate(0, 137, 71)" width="9" x="133.2015" y="67.1289"/>
  <polygon fill="#006ca1" points="144.3022,68.5089 148.8022,59.5089 153.3022,68.5089" stroke-width="0" transform=" rotate(0, 148, 64)"/>
  <ellipse cx="157.1498" cy="66.2883" fill="#006ca1" rx="4.5" ry="4.5" stroke-width="0" transform=" rotate(0, 157, 66)"/>
  <rect fill="#006ca1" height="9" stroke-width="0" transform=" rotate(0, 164, 69)" width="9" x="160.4741" y="64.6746"/>
  <polygon fill="#006ca1" points="180.0093,77.4487 184.5093,68.4487 189.0093,77.4487" stroke-width="0" transform=" rotate(0, 184, 72)"/>
  <ellipse cx="184.3335" cy="68.4599" fill="#006ca1" rx="4.5" ry="4.5" stroke-width="0" transform=" rotate(0, 184, 68)"/>
  <rect fill="#006ca1" height="9" stroke-width="0" transform=" rotate(0, 201, 70)" width="9" x="197.4092" y="65.6134"/>
  <polygon fill="#006ca1" points="200.6512,72.8554 205.1512,63.8554 209.6512,72.8554" stroke-width="0" transform=" rotate(0, 205, 68)"/>
  <ellipse cx="219.2199" cy="67.2322" fill="#006ca1" rx="4.5" ry="4.5" stroke-width="0" transform=" rotate(0, 219, 67)"/>
  <rect fill="#006ca1" height="9" stroke-width="0" transform=" rotate(0, 224, 69)" width="9" x="220.4876" y="64.8635"/>
  <polygon fill="#006ca1" points="239.076,72.3413 243.576,63.3413 248.076,72.3413" stroke-width="0" transform=" rotate(0, 243, 67)"/>
  <ellipse cx="250.7268" cy="65.6338" fill="#006ca1" rx="4.5" ry="4.5" stroke-width="0" transform=" rotate(0, 250, 65)"/>
  <rect fill="#006ca1" height="9" stroke-width="0" transform=" rotate(0, 258, 71)" width="9" x="253.6779" y="66.6319"/>
  <polygon fill="#006ca1" points="270.0222,79.2326 274.5222,70.2326 279.0222,79.2326" stroke-width="0" transform=" rotate(0, 274, 74)"/>
  <ellipse cx="278.5587" cy="74.8328" fill="#006ca1" rx="4.5" ry="4.5" stroke-width="0" transform=" rotate(0, 278, 74)"/>
  <rect fill="#6dd6ff" height="5" stroke-width="0" transform=" rotate(0, 46, 83)" width="5" x="43.7294" y="80.8455"/>
  <polygon fill="#6dd6ff" points="57.2751,82.9358 59.7751,77.9358 62.2751,82.9358" stroke-width="0" transform=" rotate(0, 59, 80)"/>
  <ellipse cx="71.758" cy="81.2706" fill="#6dd6ff" rx="2.5" ry="2.5" stroke-width="0" transform=" rotate(0, 71, 81)"/>
  <rect fill="#6dd6ff" height="5" stroke-width="0" transform=" rotate(0, 76, 79)" width="5" x="73.5756" y="77.4496"/>
  <polygon fill="#6dd6ff" points="86.1552,86.9816 88.6552,81.9816 91.1552,86.9816" stroke-width="0" transform=" rotate(0, 88, 84)"/>
  <ellipse cx="96.1796" cy="74.0943" fill="#6dd6ff" rx="2.5" ry="2.5" stroke-width="0" transform=" rotate(0, 96, 74)"/>
  <rect fill="#6dd6ff" height="5" stroke-width="0" transform=" rotate(0, 105, 80)" width="5" x="103.4677" y="78.0942"/>
  <polygon fill="#6dd6ff" points="118.884,87.7216 121.384,82.7216 123.884,87.7216" stroke-width="0" transform=" rotate(0, 121, 85)"/>
  <ellipse cx="132.4118" cy="82.7907" fill="#6dd6ff" rx="2.5" ry="2.5" stroke-width="0" transform=" rotate(0, 132, 82)"/>
  <rect fill="#6dd6ff" height="5" stroke-width="0" transform=" rotate(0, 134, 75)" width="5" x="131.6173" y="73.2064"/>
  <polygon fill="#6dd6ff" points="144.504,79.2683 147.004,74.2683 149.504,79.2683" stroke-width="0" transform=" rotate(0, 147, 76)"/>
  <ellipse cx="155.2723" cy="78.8196" fill="#6dd6ff" rx="2.5" ry="2.5" stroke-width="0" transform=" rotate(0, 155, 78)"/>
  <rect fill="#6dd6ff" height="5" stroke-width="0" transform=" rotate(0, 173, 75)" width="5" x="170.9092" y="73.2014"/>
  <polygon fill="#6dd6ff" points="183.4182,81.8203 185.9182,76.8203 188.4182,81.8203" stroke-width="0" transform=" rotate(0, 185, 79)"/>
  <ellipse cx="185.661" cy="83.0986" fill="#6dd6ff" rx="2.5" ry="2.5" stroke-width="0" transform=" rotate(0, 185, 83)"/>
  <rect fill="#6dd6ff" height="5" stroke-width="0" transform=" rotate(0, 201, 84)" width="5" x="199.2462" y="82.0331"/>
  <polygon fill="#6dd6ff" points="211.0872,76.587 213.5872,71.587 216.0872,76.587" stroke-width="0" transform=" rotate(0, 213, 74)"/>
  <ellipse cx="215.1303" cy="80.3312" fill="#6dd6ff" rx="2.5" ry="2.5" stroke-width="0" transform=" rotate(0, 215, 80)"/>
  <rect fill="#6dd6ff" height="5" stroke-width="0" transform=" rotate(0, 228, 83)" width="5" x="225.7469" y="81.4819"/>
  <polygon fill="#6dd6ff" points="235.8865,76.4342 238.3865,71.4342 240.8865,76.4342" stroke-width="0" transform=" rotate(0, 238, 73)"/>
  <ellipse cx="245.5759" cy="85.2111" fill="#6dd6ff" rx="2.5" ry="2.5" stroke-width="0" transform=" rotate(0, 245, 85)"/>
  <rect fill="#6dd6ff" height="5" stroke-width="0" transform=" rotate(0, 254, 83)" width="5" x="252.1694" y="81.3675"/>
  <polygon fill="#6dd6ff" points="263.8167,82.5978 266.3167,77.5978 268.8167,82.5978" stroke-width="0" transform=" rotate(0, 266, 80)"/>
  <ellipse cx="278.395" cy="78.7722" fill="#6dd6ff" rx="2.5" ry="2.5" stroke-width="0" transform=" rotate(0, 278, 78)"/>
  <rect fill="#1b9fd8" height="7" stroke-width="0" transform=" rotate(0, 48, 85)" width="7" x="45.0809" y="81.8217"/>
  <polygon fill="#1b9fd8" points="53.1058,99.3099 56.6058,92.3099 60.1058,99.3099" stroke-width="0" transform=" rotate(0, 56, 95)"/>
  <ellipse cx="72.3397" cy="88.0018" fill="#1b9fd8" rx="3.5" ry="3.5" stroke-width="0" transform=" rotate(0, 72, 88)"/>
  <rect fill="#1b9fd8" height="7" stroke-width="0" transform=" rotate(0, 78, 89)" width="7" x="74.7693" y="85.897"/>
  <polygon fill="#1b9fd8" points="92.1003,93.9807 95.6003,86.9807 99.1003,93.9807" stroke-width="0" transform=" rotate(0, 95, 90)"/>
  <ellipse cx="100.9667" cy="89.8375" fill="#1b9fd8" rx="3.5" ry="3.5" stroke-width="0" transform=" rotate(0, 100, 89)"/>
  <rect fill="#1b9fd8" height="7" stroke-width="0" transform=" rotate(0, 114, 95)" width="7" x="111.0332" y="92.0419"/>
  <polygon fill="#1b9fd8" points="112.0234,87.9388 115.5234,80.9388 119.0234,87.9388" stroke-width="0" transform=" rotate(0, 115, 84)"/>
  <ellipse cx="128.352" cy="86.588" fill="#1b9fd8" rx="3.5" ry="3.5" stroke-width="0" transform=" rotate(0, 128, 86)"/>
  <rect fill="#1b9fd8" height="7" stroke-width="0" transform=" rotate(0, 144, 95)" width="7" x="141.3218" y="91.5517"/>
  <polygon fill="#1b9fd8" points="144.9025,92.5977 148.4025,85.5977 151.9025,92.5977" stroke-width="0" transform=" rotate(0, 148, 89)"/>
  <ellipse cx="155.263" cy="93.9038" fill="#1b9fd8" rx="3.5" ry="3.5" stroke-width="0" transform=" rotate(0, 155, 93)"/>
  <rect fill="#1b9fd8" height="7" stroke-width="0" transform=" rotate(0, 168, 88)" width="7" x="164.871" y="84.7603"/>
  <polygon fill="#1b9fd8" points="178.2841,96.6525 181.7841,89.6525 185.2841,96.6525" stroke-width="0" transform=" rotate(0, 181, 93)"/>
  <ellipse cx="188.666" cy="89.138" fill="#1b9fd8" rx="3.5" ry="3.5" stroke-width="0" transform=" rotate(0, 188, 89)"/>
  <rect fill="#1b9fd8" height="7" stroke-width="0" transform=" rotate(0, 205, 86)" width="7" x="201.7184" y="83.0629"/>
  <polygon fill="#1b9fd8" points="202.8351,98.8295 206.3351,91.8295 209.8351,98.8295" stroke-width="0" transform=" rotate(0, 206, 95)"/>
  <ellipse cx="216.8927" cy="85.4184" fill="#1b9fd8" rx="3.5" ry="3.5" stroke-width="0" transform=" rotate(0, 216, 85)"/>
  <rect fill="#1b9fd8" height="7" stroke-width="0" transform=" rotate(0, 235, 85)" width="7" x="232.1343" y="82.0498"/>
  <polygon fill="#1b9fd8" points="233.6853,93.6372 237.1853,86.6372 240.6853,93.6372" stroke-width="0" transform=" rotate(0, 237, 90)"/>
  <ellipse cx="253.7419" cy="87.2763" fill="#1b9fd8" rx="3.5" ry="3.5" stroke-width="0" transform=" rotate(0, 253, 87)"/>
  <rect fill="#1b9fd8" height="7" stroke-width="0" transform=" rotate(0, 255, 89)" width="7" x="251.5822" y="85.8788"/>
  <polygon fill="#1b9fd8" points="261.7647,94.0707 265.2647,87.0707 268.7647,94.0707" stroke-width="0" transform=" rotate(0, 265, 90)"/>
  <ellipse cx="277.5639" cy="89.2653" fill="#1b9fd8" rx="3.5" ry="3.5" stroke-width="0" transform=" rotate(0, 277, 89)"/>
  <rect fill="#006ca1" height="9" stroke-width="0" transform=" rotate(0, 54, 104)" width="9" x="49.9868" y="100.3902"/>
  <polygon fill="#006ca1" points="60.2678,103.5027 64.7678,94.5027 69.2678,103.5027" stroke-width="0" transform=" rotate(0, 64, 99)"/>
  <ellipse cx="74.4329" cy="100.4059" fill="#006ca1" rx="4.5" ry="4.5" stroke-width="0" transform=" rotate(0, 74, 100)"/>
  <rect fill="#006ca1" height="9" stroke-width="0" transform=" rotate(0, 84, 94)" width="9" x="80.2094" y="89.8634"/>
  <polygon fill="#006ca1" points="80.4694,100.5463 84.9694,91.5463 89.4694,100.5463" stroke-width="0" transform=" rotate(0, 84, 96)"/>
  <ellipse cx="98.4475" cy="102.1671" fill="#006ca1" rx="4.5" ry="4.5" stroke-width="0" transform=" rotate(0, 98, 102)"/>
  <rect fill="#006ca1" height="9" stroke-width="0" transform=" rotate(0, 112, 105)" width="9" x="107.624" y="100.6952"/>
  <polygon fill="#006ca1" points="118.7438,100.3589 123.2438,91.3589 127.7438,100.3589" stroke-width="0" transform=" rotate(0, 123, 95)"/>
  <ellipse cx="133.0445" cy="101.5152" fill="#006ca1" rx="4.5" ry="4.5" stroke-width="0" transform=" rotate(0, 133, 101)"/>
  <rect fill="#006ca1" height="9" stroke-width="0" transform=" rotate(0, 139, 96)" width="9" x="134.8806" y="91.9529"/>
  <polygon fill="#006ca1" points="148.3409,109.4122 152.8409,100.4122 157.3409,109.4122" stroke-width="0" transform=" rotate(0, 152, 104)"/>
  <ellipse cx="162.8551" cy="100.6928" fill="#006ca1" rx="4.5" ry="4.5" stroke-width="0" transform=" rotate(0, 162, 100)"/>
  <rect fill="#006ca1" height="9" stroke-width="0" transform=" rotate(0, 175, 104)" width="9" x="170.5851" y="99.8314"/>
  <polygon fill="#006ca1" points="169.7958,105.5116 174.2958,96.5116 178.7958,105.5116" stroke-width="0" transform=" rotate(0, 174, 101)"/>
  <ellipse cx="193.2214" cy="102.1444" fill="#006ca1" rx="4.5" ry="4.5" stroke-width="0" transform=" rotate(0, 193, 102)"/>
  <rect fill="#006ca1" height="9" stroke-width="0" transform=" rotate(0, 202, 97)" width="9" x="198.1229" y="92.7047"/>
  <polygon fill="#006ca1" points="207.1776,100.5816 211.6776,91.5816 216.1776,100.5816" stroke-width="0" transform=" rotate(0, 211, 96)"/>
  <ellipse cx="221.1021" cy="97.79" fill="#006ca1" rx="4.5" ry="4.5" stroke-width="0" transform=" rotate(0, 221, 97)"/>
  <rect fill="#006ca1" height="9" stroke-width="0" transform=" rotate(0, 226, 104)" width="9" x="222.0909" y="99.5482"/>
  <polygon fill="#006ca1" points="239.286,100.8112 243.786,91.8112 248.286,100.8112" stroke-width="0" transform=" rotate(0, 243, 96)"/>
  <ellipse cx="252.942" cy="100.8926" fill="#006ca1" rx="4.5" ry="4.5" stroke-width="0" transform=" rotate(0, 252, 100)"/>
  <rect fill="#006ca1" height="9" stroke-width="0" transform=" rotate(0, 256, 98)" width="9" x="251.6786" y="94.2887"/>
  <polygon fill="#006ca1" points="260.7318,105.7249 265.2318,96.7249 269.7318,105.7249" stroke-width="0" transform=" rotate(0, 265, 101)"/>
  <ellipse cx="284.964" cy="96.1904" fill="#006ca1" rx="4.5" ry="4.5" stroke-width="0" transform=" rotate(0, 284, 96)"/>
  <rect fill="#6dd6ff" height="5" stroke-width="0" transform=" rotate(0, 46, 113)" width="5" x="44.1885" y="111.237"/>
  <polygon fill="#6dd6ff" points="52.5629,110.3039 55.0629,105.3039 57.5629,110.3039" stroke-width="0" transform=" rotate(0, 55, 107)"/>
  <ellipse cx="64.0888" cy="112.9479" fill="#6dd6ff" rx="2.5" ry="2.5" stroke-width="0" transform=" rotate(0, 64, 112)"/>
  <rect fill="#6dd6ff" height="5" stroke-width="0" transform=" rotate(0, 81, 110)" width="5" x="79.2792" y="108.3695"/>
  <polygon fill="#6dd6ff" points="82.1095,111.1677 84.6095,106.1677 87.1095,111.1677" stroke-width="0" transform=" rotate(0, 84, 108)"/>
  <ellipse cx="96.3325" cy="114.4357" fill="#6dd6ff" rx="2.5" ry="2.5" stroke-width="0" transform=" rotate(0, 96, 114)"/>
  <rect fill="#6dd6ff" height="5" stroke-width="0" transform=" rotate(0, 112, 112)" width="5" x="110.2371" y="110.4608"/>
  <polygon fill="#6dd6ff" points="119.5269,112.5672 122.0269,107.5672 124.5269,112.5672" stroke-width="0" transform=" rotate(0, 122, 110)"/>
  <ellipse cx="131.9262" cy="106.9604" fill="#6dd6ff" rx="2.5" ry="2.5" stroke-width="0" transform=" rotate(0, 131, 106)"/>
  <rect fill="#6dd6ff" height="5" stroke-width="0" transform=" rotate(0, 145, 104)" width="5" x="142.921" y="102.0979"/>
  <polygon fill="#6dd6ff" points="149.1792,114.5946 151.6792,109.5946 154.1792,114.5946" stroke-width="0" transform=" rotate(0, 151, 112)"/>
  <ellipse cx="162.4902" cy="109.5853" fill="#6dd6ff" rx="2.5" ry="2.5" stroke-width="0" transform=" rotate(0, 162, 109)"/>
  <rect fill="#6dd6ff" height="5" stroke-width="0" transform=" rotate(0, 168, 110)" width="5" x="166.4537" y="107.5519"/>
  <polygon fill="#6dd6ff" points="180.8386,118.1677 183.3386,113.1677 185.8386,118.1677" stroke-width="0" transform=" rotate(0, 183, 115)"/>
  <ellipse cx="187.6527" cy="112.0958" fill="#6dd6ff" rx="2.5" ry="2.5" stroke-width="0" transform=" rotate(0, 187, 112)"/>
  <rect fill="#6dd6ff" height="5" stroke-width="0" transform=" rotate(0, 205, 106)" width="5" x="202.8451" y="103.8341"/>
  <polygon fill="#6dd6ff" points="207.6478,117.4299 210.1478,112.4299 212.6478,117.4299" stroke-width="0" transform=" rotate(0, 210, 114)"/>
  <ellipse cx="217.6974" cy="110.228" fill="#6dd6ff" rx="2.5" ry="2.5" stroke-width="0" transform=" rotate(0, 217, 110)"/>
  <rect fill="#6dd6ff" height="5" stroke-width="0" transform=" rotate(0, 234, 113)" width="5" x="232.4531" y="110.7653"/>
  <polygon fill="#6dd6ff" points="242.7015,106.6005 245.2015,101.6005 247.7015,106.6005" stroke-width="0" transform=" rotate(0, 245, 104)"/>
  <ellipse cx="254.8483" cy="108.4851" fill="#6dd6ff" rx="2.5" ry="2.5" stroke-width="0" transform=" rotate(0, 254, 108)"/>
  <rect fill="#6dd6ff" height="5" stroke-width="0" transform=" rotate(0, 255, 105)" width="5" x="253.3616" y="103.0347"/>
  <polygon fill="#6dd6ff" points="266.4451,110.0891 268.9451,105.0891 271.4451,110.0891" stroke-width="0" transform=" rotate(0, 268, 107)"/>
  <ellipse cx="282.9846" cy="109.2055" fill="#6dd6ff" rx="2.5" ry="2.5" stroke-width="0" transform=" rotate(0, 282, 109)"/>
  <rect fill="#1b9fd8" height="7" stroke-width="0" transform=" rotate(0, 51, 124)" width="7" x="48.1786" y="121.4052"/>
  <polygon fill="#1b9fd8" points="56.3708,127.7938 59.8708,120.7938 63.3708,127.7938" stroke-width="0" transform=" rotate(0, 59, 124)"/>
  <ellipse cx="74.7423" cy="119.2762" fill="#1b9fd8" rx="3.5" ry="3.5" stroke-width="0" transform=" rotate(0, 74, 119)"/>
  <rect fill="#1b9fd8" height="7" stroke-width="0" transform=" rotate(0, 76, 115)" width="7" x="72.8747" y="112.1848"/>
  <polygon fill="#1b9fd8" points="84.973,127.9415 88.473,120.9415 91.973,127.9415" stroke-width="0" transform=" rotate(0, 88, 124)"/>
  <ellipse cx="104.1392" cy="119.1972" fill="#1b9fd8" rx="3.5" ry="3.5" stroke-width="0" transform=" rotate(0, 104, 119)"/>
  <rect fill="#1b9fd8" height="7" stroke-width="0" transform=" rotate(0, 112, 124)" width="7" x="108.7683" y="121.3222"/>
  <polygon fill="#1b9fd8" points="122.1169,122.1775 125.6169,115.1775 129.1169,122.1775" stroke-width="0" transform=" rotate(0, 125, 118)"/>
  <ellipse cx="131.2254" cy="114.9446" fill="#1b9fd8" rx="3.5" ry="3.5" stroke-width="0" transform=" rotate(0, 131, 114)"/>
  <rect fill="#1b9fd8" height="7" stroke-width="0" transform=" rotate(0, 140, 118)" width="7" x="137.4572" y="115.2163"/>
  <polygon fill="#1b9fd8" points="146.0772,123.7229 149.5772,116.7229 153.0772,123.7229" stroke-width="0" transform=" rotate(0, 149, 120)"/>
  <ellipse cx="163.1718" cy="124.8923" fill="#1b9fd8" rx="3.5" ry="3.5" stroke-width="0" transform=" rotate(0, 163, 124)"/>
  <rect fill="#1b9fd8" height="7" stroke-width="0" transform=" rotate(0, 164, 121)" width="7" x="160.6597" y="118.2487"/>
  <polygon fill="#1b9fd8" points="172.7554,117.8537 176.2554,110.8537 179.7554,117.8537" stroke-width="0" transform=" rotate(0, 176, 114)"/>
  <ellipse cx="186.7452" cy="125.6285" fill="#1b9fd8" rx="3.5" ry="3.5" stroke-width="0" transform=" rotate(0, 186, 125)"/>
  <rect fill="#1b9fd8" height="7" stroke-width="0" transform=" rotate(0, 200, 119)" width="7" x="196.7289" y="115.8479"/>
  <polygon fill="#1b9fd8" points="212.2226,119.1128 215.7226,112.1128 219.2226,119.1128" stroke-width="0" transform=" rotate(0, 215, 115)"/>
  <ellipse cx="218.4371" cy="118.0086" fill="#1b9fd8" rx="3.5" ry="3.5" stroke-width="0" transform=" rotate(0, 218, 118)"/>
  <rect fill="#1b9fd8" height="7" stroke-width="0" transform=" rotate(0, 232, 123)" width="7" x="229.449" y="119.9217"/>
  <polygon fill="#1b9fd8" points="237.3594,128.3131 240.8594,121.3131 244.3594,128.3131" stroke-width="0" transform=" rotate(0, 240, 124)"/>
  <ellipse cx="255.3746" cy="119.2212" fill="#1b9fd8" rx="3.5" ry="3.5" stroke-width="0" transform=" rotate(0, 255, 119)"/>
  <rect fill="#1b9fd8" height="7" stroke-width="0" transform=" rotate(0, 262, 117)" width="7" x="259.1558" y="113.8694"/>
  <polygon fill="#1b9fd8" points="271.9399,128.5878 275.4399,121.5878 278.9399,128.5878" stroke-width="0" transform=" rotate(0, 275, 125)"/>
  <ellipse cx="285.5716" cy="118.4592" fill="#1b9fd8" rx="3.5" ry="3.5" stroke-width="0" transform=" rotate(0, 285, 118)"/>
  <rect fill="#006ca1" height="9" stroke-width="0" transform=" rotate(0, 48, 131)" width="9" x="44.0992" y="127.2574"/>
  <polygon fill="#006ca1" points="58.1069,137.739 62.6069,128.739 67.1069,137.739" stroke-width="0" transform=" rotate(0, 62, 133)"/>
  <ellipse cx="70.2332" cy="134.0433" fill="#006ca1" rx="4.5" ry="4.5" stroke-width="0" transform=" rotate(0, 70, 134)"/>
  <rect fill="#006ca1" height="9" stroke-width="0" transform=" rotate(0, 80, 134)" width="9" x="75.9634" y="129.6844"/>
  <polygon fill="#006ca1" points="91.3162,130.7012 95.8162,121.7012 100.3162,130.7012" stroke-width="0" transform=" rotate(0, 95, 126)"/>
  <ellipse cx="100.7769" cy="126.89" fill="#006ca1" rx="4.5" ry="4.5" stroke-width="0" transform=" rotate(0, 100, 126)"/>
  <rect fill="#006ca1" height="9" stroke-width="0" transform=" rotate(0, 113, 130)" width="9" x="108.774" y="126.0457"/>
  <polygon fill="#006ca1" points="115.2181,136.4664 119.7181,127.4664 124.2181,136.4664" stroke-width="0" transform=" rotate(0, 119, 131)"/>
  <ellipse cx="130.9921" cy="130.1355" fill="#006ca1" rx="4.5" ry="4.5" stroke-width="0" transform=" rotate(0, 130, 130)"/>
  <rect fill="#006ca1" height="9" stroke-width="0" transform=" rotate(0, 138, 132)" width="9" x="133.7233" y="128.1117"/>
  <polygon fill="#006ca1" points="145.3784,135.9079 149.8784,126.9079 154.3784,135.9079" stroke-width="0" transform=" rotate(0, 149, 131)"/>
  <ellipse cx="156.5025" cy="131.4677" fill="#006ca1" rx="4.5" ry="4.5" stroke-width="0" transform=" rotate(0, 156, 131)"/>
  <rect fill="#006ca1" height="9" stroke-width="0" transform=" rotate(0, 168, 131)" width="9" x="164.3999" y="127.1506"/>
  <polygon fill="#006ca1" points="178.3595,133.6595 182.8595,124.6595 187.3595,133.6595" stroke-width="0" transform=" rotate(0, 182, 129)"/>
  <ellipse cx="193.3" cy="131.9982" fill="#006ca1" rx="4.5" ry="4.5" stroke-width="0" transform=" rotate(0, 193, 131)"/>
  <rect fill="#006ca1" height="9" stroke-width="0" transform=" rotate(0, 195, 135)" width="9" x="191.4486" y="131.3461"/>
  <polygon fill="#006ca1" points="203.2599,134.0598 207.7599,125.0598 212.2599,134.0598" stroke-width="0" transform=" rotate(0, 207, 129)"/>
  <ellipse cx="221.7882" cy="133.109" fill="#006ca1" rx="4.5" ry="4.5" stroke-width="0" transform=" rotate(0, 221, 133)"/>
  <rect fill="#006ca1" height="9" stroke-width="0" transform=" rotate(0, 235, 134)" width="9" x="230.8374" y="129.8668"/>
  <polygon fill="#006ca1" points="232.0274,133.1882 236.5274,124.1882 241.0274,133.1882" stroke-width="0" transform=" rotate(0, 236, 128)"/>
  <ellipse cx="254.5939" cy="125.3584" fill="#006ca1" rx="4.5" ry="4.5" stroke-width="0" transform=" rotate(0, 254, 125)"/>
  <rect fill="#006ca1" height="9" stroke-width="0" transform=" rotate(0, 257, 130)" width="9" x="253.2536" y="126.2512"/>
  <polygon fill="#006ca1" points="266.7319,128.6528 271.2319,119.6528 275.7319,128.6528" stroke-width="0" transform=" rotate(0, 271, 124)"/>
  <ellipse cx="275.7393" cy="134.1645" fill="#006ca1" rx="4.5" ry="4.5" stroke-width="0" transform=" rotate(0, 275, 134)"/>
  <rect fill="#6dd6ff" height="5" stroke-width="0" transform=" rotate(0, 45, 144)" width="5" x="43.0603" y="141.755"/>
  <polygon fill="#6dd6ff" points="58.1542,144.1224 60.6542,139.1224 63.1542,144.1224" stroke-width="0" transform=" rotate(0, 60, 141)"/>
  <ellipse cx="73.7554" cy="140.1103" fill="#6dd6ff" rx="2.5" ry="2.5" stroke-width="0" transform=" rotate(0, 73, 140)"/>
  <rect fill="#6dd6ff" height="5" stroke-width="0" transform=" rotate(0, 80, 144)" width="5" x="78.1988" y="142.2547"/>
  <polygon fill="#6dd6ff" points="84.2979,138.3006 86.7979,133.3006 89.2979,138.3006" stroke-width="0" transform=" rotate(0, 86, 135)"/>
  <ellipse cx="97.8701" cy="143.5352" fill="#6dd6ff" rx="2.5" ry="2.5" stroke-width="0" transform=" rotate(0, 97, 143)"/>
  <rect fill="#6dd6ff" height="5" stroke-width="0" transform=" rotate(0, 106, 144)" width="5" x="104.4255" y="141.8276"/>
  <polygon fill="#6dd6ff" points="116.3635,142.6558 118.8635,137.6558 121.3635,142.6558" stroke-width="0" transform=" rotate(0, 118, 140)"/>
  <ellipse cx="135.0426" cy="145.7594" fill="#6dd6ff" rx="2.5" ry="2.5" stroke-width="0" transform=" rotate(0, 135, 145)"/>
  <rect fill="#6dd6ff" height="5" stroke-width="0" transform=" rotate(0, 138, 144)" width="5" x="136.2573" y="141.9601"/>
  <polygon fill="#6dd6ff" points="148.8479,143.9291 151.3479,138.9291 153.8479,143.9291" stroke-width="0" transform=" rotate(0, 151, 141)"/>
  <ellipse cx="159.2272" cy="138.8075" fill="#6dd6ff" rx="2.5" ry="2.5" stroke-width="0" transform=" rotate(0, 159, 138)"/>
  <rect fill="#6dd6ff" height="5" stroke-width="0" transform=" rotate(0, 167, 136)" width="5" x="165.2058" y="133.7681"/>
  <polygon fill="#6dd6ff" points="171.4849,137.8119 173.9849,132.8119 176.4849,137.8119" stroke-width="0" transform=" rotate(0, 173, 135)"/>
  <ellipse cx="188.8508" cy="143.8922" fill="#6dd6ff" rx="2.5" ry="2.5" stroke-width="0" transform=" rotate(0, 188, 143)"/>
  <rect fill="#6dd6ff" height="5" stroke-width="0" transform=" rotate(0, 203, 144)" width="5" x="201.0498" y="142.0126"/>
  <polygon fill="#6dd6ff" points="202.0936,136.5661 204.5936,131.5661 207.0936,136.5661" stroke-width="0" transform=" rotate(0, 204, 134)"/>
  <ellipse cx="225.0749" cy="145.1065" fill="#6dd6ff" rx="2.5" ry="2.5" stroke-width="0" transform=" rotate(0, 225, 145)"/>
  <rect fill="#6dd6ff" height="5" stroke-width="0" transform=" rotate(0, 229, 137)" width="5" x="226.9235" y="135.2737"/>
  <polygon fill="#6dd6ff" points="239.2008,142.8362 241.7008,137.8362 244.2008,142.8362" stroke-width="0" transform=" rotate(0, 241, 140)"/>
  <ellipse cx="250.7289" cy="135.5618" fill="#6dd6ff" rx="2.5" ry="2.5" stroke-width="0" transform=" rotate(0, 250, 135)"/>
  <rect fill="#6dd6ff" height="5" stroke-width="0" transform=" rotate(0, 259, 137)" width="5" x="256.7301" y="135.1375"/>
  <polygon fill="#6dd6ff" points="271.894,147.9255 274.394,142.9255 276.894,147.9255" stroke-width="0" transform=" rotate(0, 274, 145)"/>
  <ellipse cx="274.548" cy="142.3044" fill="#6dd6ff" rx="2.5" ry="2.5" stroke-width="0" transform=" rotate(0, 274, 142)"/>
  <rect fill="#1b9fd8" height="7" stroke-width="0" transform=" rotate(0, 55, 150)" width="7" x="52.2375" y="147.3857"/>
  <polygon fill="#1b9fd8" points="56.022,150.941 59.522,143.941 63.022,150.941" stroke-width="0" transform=" rotate(0, 59, 147)"/>
  <ellipse cx="68.568" cy="148.9238" fill="#1b9fd8" rx="3.5" ry="3.5" stroke-width="0" transform=" rotate(0, 68, 148)"/>
  <rect fill="#1b9fd8" height="7" stroke-width="0" transform=" rotate(0, 76, 150)" width="7" x="73.4459" y="147.4163"/>
  <polygon fill="#1b9fd8" points="90.8875,157.186 94.3875,150.186 97.8875,157.186" stroke-width="0" transform=" rotate(0, 94, 153)"/>
  <ellipse cx="96.5555" cy="150.7756" fill="#1b9fd8" rx="3.5" ry="3.5" stroke-width="0" transform=" rotate(0, 96, 150)"/>
  <rect fill="#1b9fd8" height="7" stroke-width="0" transform=" rotate(0, 110, 151)" width="7" x="107.2222" y="147.8876"/>
  <polygon fill="#1b9fd8" points="119.7738,151.73 123.2738,144.73 126.7738,151.73" stroke-width="0" transform=" rotate(0, 123, 148)"/>
  <ellipse cx="133.812" cy="146.8996" fill="#1b9fd8" rx="3.5" ry="3.5" stroke-width="0" transform=" rotate(0, 133, 146)"/>
  <rect fill="#1b9fd8" height="7" stroke-width="0" transform=" rotate(0, 139, 146)" width="7" x="135.5914" y="142.6806"/>
  <polygon fill="#1b9fd8" points="148.9957,154.8016 152.4957,147.8016 155.9957,154.8016" stroke-width="0" transform=" rotate(0, 152, 151)"/>
  <ellipse cx="157.9521" cy="155.7643" fill="#1b9fd8" rx="3.5" ry="3.5" stroke-width="0" transform=" rotate(0, 157, 155)"/>
  <rect fill="#1b9fd8" height="7" stroke-width="0" transform=" rotate(0, 166, 155)" width="7" x="163.2722" y="151.8613"/>
  <polygon fill="#1b9fd8" points="174.5365,148.9291 178.0365,141.9291 181.5365,148.9291" stroke-width="0" transform=" rotate(0, 178, 145)"/>
  <ellipse cx="185.952" cy="151.3792" fill="#1b9fd8" rx="3.5" ry="3.5" stroke-width="0" transform=" rotate(0, 185, 151)"/>
  <rect fill="#1b9fd8" height="7" stroke-width="0" transform=" rotate(0, 195, 150)" width="7" x="192.1015" y="146.7421"/>
  <polygon fill="#1b9fd8" points="205.1837,152.3145 208.6837,145.3145 212.1837,152.3145" stroke-width="0" transform=" rotate(0, 208, 148)"/>
  <ellipse cx="224.9398" cy="153.6327" fill="#1b9fd8" rx="3.5" ry="3.5" stroke-width="0" transform=" rotate(0, 224, 153)"/>
  <rect fill="#1b9fd8" height="7" stroke-width="0" transform=" rotate(0, 226, 154)" width="7" x="222.6414" y="151.4254"/>
  <polygon fill="#1b9fd8" points="240.3431,155.1894 243.8431,148.1894 247.3431,155.1894" stroke-width="0" transform=" rotate(0, 243, 151)"/>
  <ellipse cx="249.5397" cy="150.4245" fill="#1b9fd8" rx="3.5" ry="3.5" stroke-width="0" transform=" rotate(0, 249, 150)"/>
  <rect fill="#1b9fd8" height="7" stroke-width="0" transform=" rotate(0, 256, 144)" width="7" x="253.3063" y="140.5475"/>
  <polygon fill="#1b9fd8" points="268.6096,158.2332 272.1096,151.2332 275.6096,158.2332" stroke-width="0" transform=" rotate(0, 272, 154)"/>
  <ellipse cx="284.5763" cy="149.8443" fill="#1b9fd8" rx="3.5" ry="3.5" stroke-width="0" transform=" rotate(0, 284, 149)"/>
  <rect fill="#006ca1" height="9" stroke-width="0" transform=" rotate(0, 51, 157)" width="9" x="47.0581" y="152.5383"/>
  <polygon fill="#006ca1" points="53.7564,166.3542 58.2564,157.3542 62.7564,166.3542" stroke-width="0" transform=" rotate(0, 58, 161)"/>
  <ellipse cx="64.6338" cy="160.5186" fill="#006ca1" rx="4.5" ry="4.5" stroke-width="0" transform=" rotate(0, 64, 160)"/>
  <rect fill="#006ca1" height="9" stroke-width="0" transform=" rotate(0, 80, 156)" width="9" x="75.9931" y="151.5955"/>
  <polygon fill="#006ca1" points="80.645,160.2075 85.145,151.2075 89.645,160.2075" stroke-width="0" transform=" rotate(0, 85, 155)"/>
  <ellipse cx="101.0862" cy="164.3595" fill="#006ca1" rx="4.5" ry="4.5" stroke-width="0" transform=" rotate(0, 101, 164)"/>
  <rect fill="#006ca1" height="9" stroke-width="0" transform=" rotate(0, 112, 164)" width="9" x="108.2432" y="159.8582"/>
  <polygon fill="#006ca1" points="114.3398,165.3848 118.8398,156.3848 123.3398,165.3848" stroke-width="0" transform=" rotate(0, 118, 160)"/>
  <ellipse cx="133.547" cy="161.3322" fill="#006ca1" rx="4.5" ry="4.5" stroke-width="0" transform=" rotate(0, 133, 161)"/>
  <rect fill="#006ca1" height="9" stroke-width="0" transform=" rotate(0, 138, 163)" width="9" x="133.5108" y="159.2699"/>
  <polygon fill="#006ca1" points="139.9363,164.3828 144.4363,155.3828 148.9363,164.3828" stroke-width="0" transform=" rotate(0, 144, 159)"/>
  <ellipse cx="154.3332" cy="159.5348" fill="#006ca1" rx="4.5" ry="4.5" stroke-width="0" transform=" rotate(0, 154, 159)"/>
  <rect fill="#006ca1" height="9" stroke-width="0" transform=" rotate(0, 174, 156)" width="9" x="169.8077" y="152.344"/>
  <polygon fill="#006ca1" points="177.8285,160.2245 182.3285,151.2245 186.8285,160.2245" stroke-width="0" transform=" rotate(0, 182, 155)"/>
  <ellipse cx="184.2675" cy="164.6048" fill="#006ca1" rx="4.5" ry="4.5" stroke-width="0" transform=" rotate(0, 184, 164)"/>
  <rect fill="#006ca1" height="9" stroke-width="0" transform=" rotate(0, 201, 161)" width="9" x="196.9647" y="157.2777"/>
  <polygon fill="#006ca1" points="209.7736,166.3667 214.2736,157.3667 218.7736,166.3667" stroke-width="0" transform=" rotate(0, 214, 161)"/>
  <ellipse cx="216.6644" cy="165.4849" fill="#006ca1" rx="4.5" ry="4.5" stroke-width="0" transform=" rotate(0, 216, 165)"/>
  <rect fill="#006ca1" height="9" stroke-width="0" transform=" rotate(0, 227, 154)" width="9" x="223.4649" y="150.1609"/>
  <polygon fill="#006ca1" points="233.9466,165.947 238.4466,156.947 242.9466,165.947" stroke-width="0" transform=" rotate(0, 238, 161)"/>
  <ellipse cx="245.1031" cy="157.922" fill="#006ca1" rx="4.5" ry="4.5" stroke-width="0" transform=" rotate(0, 245, 157)"/>
  <rect fill="#006ca1" height="9" stroke-width="0" transform=" rotate(0, 265, 160)" width="9" x="261.2198" y="156.3009"/>
  <polygon fill="#006ca1" points="271.2996,169.658 275.7996,160.658 280.2996,169.658" stroke-width="0" transform=" rotate(0, 275, 165)"/>
  <ellipse cx="275.6251" cy="154.7013" fill="#006ca1" rx="4.5" ry="4.5" stroke-width="0" transform=" rotate(0, 275, 154)"/>
  <rect fill="#006ca1" height="9" stroke-width="0" transform=" rotate(0, 48, 173)" width="9" x="44.0607" y="169.038"/>
  <polygon fill="#006ca1" points="61.0588,175.1489 65.5588,166.1489 70.0588,175.1489" stroke-width="0" transform=" rotate(0, 65, 170)"/>
  <ellipse cx="74.8401" cy="166.0585" fill="#006ca1" rx="4.5" ry="4.5" stroke-width="0" transform=" rotate(0, 74, 166)"/>
  <rect fill="#006ca1" height="9" stroke-width="0" transform=" rotate(0, 75, 168)" width="9" x="71.106" y="163.9935"/>
  <polygon fill="#006ca1" points="85.1234,174.5833 89.6234,165.5833 94.1234,174.5833" stroke-width="0" transform=" rotate(0, 89, 170)"/>
  <ellipse cx="99.0002" cy="172.8546" fill="#006ca1" rx="4.5" ry="4.5" stroke-width="0" transform=" rotate(0, 99, 172)"/>
  <rect fill="#006ca1" height="9" stroke-width="0" transform=" rotate(0, 111, 164)" width="9" x="106.8133" y="160.3936"/>
  <polygon fill="#006ca1" points="115.3576,169.1326 119.8576,160.1326 124.3576,169.1326" stroke-width="0" transform=" rotate(0, 119, 164)"/>
  <ellipse cx="128.4949" cy="164.8979" fill="#006ca1" rx="4.5" ry="4.5" stroke-width="0" transform=" rotate(0, 128, 164)"/>
  <rect fill="#006ca1" height="9" stroke-width="0" transform=" rotate(0, 136, 168)" width="9" x="131.6472" y="163.9169"/>
  <polygon fill="#006ca1" points="148.256,174.9399 152.756,165.9399 157.256,174.9399" stroke-width="0" transform=" rotate(0, 152, 170)"/>
  <ellipse cx="161.3336" cy="174.7773" fill="#006ca1" rx="4.5" ry="4.5" stroke-width="0" transform=" rotate(0, 161, 174)"/>
  <rect fill="#006ca1" height="9" stroke-width="0" transform=" rotate(0, 164, 174)" width="9" x="160.1115" y="169.9819"/>
  <polygon fill="#006ca1" points="177.2823,173.2669 181.7823,164.2669 186.2823,173.2669" stroke-width="0" transform=" rotate(0, 181, 168)"/>
  <ellipse cx="195.0383" cy="173.7016" fill="#006ca1" rx="4.5" ry="4.5" stroke-width="0" transform=" rotate(0, 195, 173)"/>
  <rect fill="#006ca1" height="9" stroke-width="0" transform=" rotate(0, 200, 174)" width="9" x="195.7437" y="170.2857"/>
  <polygon fill="#006ca1" points="204.3783,174.0669 208.8783,165.0669 213.3783,174.0669" stroke-width="0" transform=" rotate(0, 208, 169)"/>
  <ellipse cx="222.9106" cy="165.6614" fill="#006ca1" rx="4.5" ry="4.5" stroke-width="0" transform=" rotate(0, 222, 165)"/>
  <rect fill="#006ca1" height="9" stroke-width="0" transform=" rotate(0, 232, 169)" width="9" x="227.8847" y="164.9902"/>
  <polygon fill="#006ca1" points="231.7149,173.213 236.2149,164.213 240.7149,173.213" stroke-width="0" transform=" rotate(0, 236, 168)"/>
  <ellipse cx="251.6554" cy="168.9791" fill="#006ca1" rx="4.5" ry="4.5" stroke-width="0" transform=" rotate(0, 251, 168)"/>
  <rect fill="#006ca1" height="9" stroke-width="0" transform=" rotate(0, 263, 165)" width="9" x="259.1503" y="160.8311"/>
  <polygon fill="#006ca1" points="270.3343,174.0553 274.8343,165.0553 279.3343,174.0553" stroke-width="0" transform=" rotate(0, 274, 169)"/>
  <ellipse cx="277.3227" cy="171.0112" fill="#006ca1" rx="4.5" ry="4.5" stroke-width="0" transform=" rotate(0, 277, 171)"/>
  <rect fill="#1b9fd8" height="7" stroke-width="0" transform=" rotate(0, 48, 183)" width="7" x="44.7098" y="180.2385"/>
  <polygon fill="#1b9fd8" points="51.9916,180.1038 55.4916,173.1038 58.9916,180.1038" stroke-width="0" transform=" rotate(0, 55, 176)"/>
  <ellipse cx="64.8758" cy="176.3396" fill="#1b9fd8" rx="3.5" ry="3.5" stroke-width="0" transform=" rotate(0, 64, 176)"/>
  <rect fill="#1b9fd8" height="7" stroke-width="0" transform=" rotate(0, 75, 183)" width="7" x="71.69" y="179.6163"/>
  <polygon fill="#1b9fd8" points="91.6482,179.3951 95.1482,172.3951 98.6482,179.3951" stroke-width="0" transform=" rotate(0, 95, 175)"/>
  <ellipse cx="105.6845" cy="178.5702" fill="#1b9fd8" rx="3.5" ry="3.5" stroke-width="0" transform=" rotate(0, 105, 178)"/>
  <rect fill="#1b9fd8" height="7" stroke-width="0" transform=" rotate(0, 110, 180)" width="7" x="107.4188" y="177.3827"/>
  <polygon fill="#1b9fd8" points="116.2955,182.6933 119.7955,175.6933 123.2955,182.6933" stroke-width="0" transform=" rotate(0, 119, 179)"/>
  <ellipse cx="135.1145" cy="185.3954" fill="#1b9fd8" rx="3.5" ry="3.5" stroke-width="0" transform=" rotate(0, 135, 185)"/>
  <rect fill="#1b9fd8" height="7" stroke-width="0" transform=" rotate(0, 145, 175)" width="7" x="142.4508" y="171.7597"/>
  <polygon fill="#1b9fd8" points="149.1323,178.3666 152.6323,171.3666 156.1323,178.3666" stroke-width="0" transform=" rotate(0, 152, 174)"/>
  <ellipse cx="159.7087" cy="184.9711" fill="#1b9fd8" rx="3.5" ry="3.5" stroke-width="0" transform=" rotate(0, 159, 184)"/>
  <rect fill="#1b9fd8" height="7" stroke-width="0" transform=" rotate(0, 173, 181)" width="7" x="169.8836" y="177.7417"/>
  <polygon fill="#1b9fd8" points="175.7325,187.0809 179.2325,180.0809 182.7325,187.0809" stroke-width="0" transform=" rotate(0, 179, 183)"/>
  <ellipse cx="188.8394" cy="174.1811" fill="#1b9fd8" rx="3.5" ry="3.5" stroke-width="0" transform=" rotate(0, 188, 174)"/>
  <rect fill="#1b9fd8" height="7" stroke-width="0" transform=" rotate(0, 200, 174)" width="7" x="197.4589" y="171.4111"/>
  <polygon fill="#1b9fd8" points="211.724,187.2399 215.224,180.2399 218.724,187.2399" stroke-width="0" transform=" rotate(0, 215, 183)"/>
  <ellipse cx="219.6164" cy="176.3466" fill="#1b9fd8" rx="3.5" ry="3.5" stroke-width="0" transform=" rotate(0, 219, 176)"/>
  <rect fill="#1b9fd8" height="7" stroke-width="0" transform=" rotate(0, 230, 183)" width="7" x="227.3299" y="180.2178"/>
  <polygon fill="#1b9fd8" points="234.7234,178.0874 238.2234,171.0874 241.7234,178.0874" stroke-width="0" transform=" rotate(0, 238, 174)"/>
  <ellipse cx="245.4965" cy="182.3382" fill="#1b9fd8" rx="3.5" ry="3.5" stroke-width="0" transform=" rotate(0, 245, 182)"/>
  <rect fill="#1b9fd8" height="7" stroke-width="0" transform=" rotate(0, 263, 175)" width="7" x="260.0757" y="171.5918"/>
  <polygon fill="#1b9fd8" points="266.847,178.0995 270.347,171.0995 273.847,178.0995" stroke-width="0" transform=" rotate(0, 270, 174)"/>
  <ellipse cx="275.1386" cy="181.2337" fill="#1b9fd8" rx="3.5" ry="3.5" stroke-width="0" transform=" rotate(0, 275, 181)"/>
  <rect fill="#6dd6ff" height="5" stroke-width="0" transform=" rotate(0, 49, 188)" width="5" x="47.0779" y="185.5249"/>
  <polygon fill="#6dd6ff" points="63.4024,196.8465 65.9024,191.8465 68.4024,196.8465" stroke-width="0" transform=" rotate(0, 65, 194)"/>
  <ellipse cx="66.2723" cy="194.4084" fill="#6dd6ff" rx="2.5" ry="2.5" stroke-width="0" transform=" rotate(0, 66, 194)"/>
  <rect fill="#6dd6ff" height="5" stroke-width="0" transform=" rotate(0, 84, 188)" width="5" x="82.0519" y="186.1713"/>
  <polygon fill="#6dd6ff" points="85.6109,197.2708 88.1109,192.2708 90.6109,197.2708" stroke-width="0" transform=" rotate(0, 88, 194)"/>
  <ellipse cx="95.0948" cy="190.7652" fill="#6dd6ff" rx="2.5" ry="2.5" stroke-width="0" transform=" rotate(0, 95, 190)"/>
  <rect fill="#6dd6ff" height="5" stroke-width="0" transform=" rotate(0, 107, 188)" width="5" x="105.4395" y="186.2716"/>
  <polygon fill="#6dd6ff" points="119.5147,187.1335 122.0147,182.1335 124.5147,187.1335" stroke-width="0" transform=" rotate(0, 122, 184)"/>
  <ellipse cx="134.0928" cy="195.2645" fill="#6dd6ff" rx="2.5" ry="2.5" stroke-width="0" transform=" rotate(0, 134, 195)"/>
  <rect fill="#6dd6ff" height="5" stroke-width="0" transform=" rotate(0, 136, 185)" width="5" x="133.8936" y="183.4171"/>
  <polygon fill="#6dd6ff" points="151.8726,189.1548 154.3726,184.1548 156.8726,189.1548" stroke-width="0" transform=" rotate(0, 154, 186)"/>
  <ellipse cx="157.7463" cy="192.7678" fill="#6dd6ff" rx="2.5" ry="2.5" stroke-width="0" transform=" rotate(0, 157, 192)"/>
  <rect fill="#6dd6ff" height="5" stroke-width="0" transform=" rotate(0, 165, 194)" width="5" x="162.8416" y="191.8218"/>
  <polygon fill="#6dd6ff" points="182.4798,190.3109 184.9798,185.3109 187.4798,190.3109" stroke-width="0" transform=" rotate(0, 184, 187)"/>
  <ellipse cx="185.703" cy="186.542" fill="#6dd6ff" rx="2.5" ry="2.5" stroke-width="0" transform=" rotate(0, 185, 186)"/>
  <rect fill="#6dd6ff" height="5" stroke-width="0" transform=" rotate(0, 203, 190)" width="5" x="200.6302" y="188.415"/>
  <polygon fill="#6dd6ff" points="203.5187,195.7646 206.0187,190.7646 208.5187,195.7646" stroke-width="0" transform=" rotate(0, 206, 193)"/>
  <ellipse cx="216.7513" cy="188.6239" fill="#6dd6ff" rx="2.5" ry="2.5" stroke-width="0" transform=" rotate(0, 216, 188)"/>
  <rect fill="#6dd6ff" height="5" stroke-width="0" transform=" rotate(0, 228, 184)" width="5" x="226.2468" y="181.504"/>
  <polygon fill="#6dd6ff" points="239.3149,196.6153 241.8149,191.6153 244.3149,196.6153" stroke-width="0" transform=" rotate(0, 241, 194)"/>
  <ellipse cx="249.0065" cy="185.2826" fill="#6dd6ff" rx="2.5" ry="2.5" stroke-width="0" transform=" rotate(0, 249, 185)"/>
  <rect fill="#6dd6ff" height="5" stroke-width="0" transform=" rotate(0, 262, 184)" width="5" x="259.9036" y="181.6388"/>
  <polygon fill="#6dd6ff" points="268.2585,195.0571 270.7585,190.0571 273.2585,195.0571" stroke-width="0" transform=" rotate(0, 270, 192)"/>
  <ellipse cx="275.1843" cy="188.0182" fill="#6dd6ff" rx="2.5" ry="2.5" stroke-width="0" transform=" rotate(0, 275, 188)"/>
  <rect fill="#006ca1" height="9" stroke-width="0" transform=" rotate(0, 47, 195)" width="9" x="42.6884" y="191.4112"/>
  <polygon fill="#006ca1" points="50.0499,202.527 54.5499,193.527 59.0499,202.527" stroke-width="0" transform=" rotate(0, 54, 198)"/>
  <ellipse cx="73.4637" cy="194.8798" fill="#006ca1" rx="4.5" ry="4.5" stroke-width="0" transform=" rotate(0, 73, 194)"/>
  <rect fill="#006ca1" height="9" stroke-width="0" transform=" rotate(0, 79, 205)" width="9" x="75.1755" y="201.0304"/>
  <polygon fill="#006ca1" points="86.2166,205.8713 90.7166,196.8713 95.2166,205.8713" stroke-width="0" transform=" rotate(0, 90, 201)"/>
  <ellipse cx="104.3564" cy="193.9029" fill="#006ca1" rx="4.5" ry="4.5" stroke-width="0" transform=" rotate(0, 104, 193)"/>
  <rect fill="#006ca1" height="9" stroke-width="0" transform=" rotate(0, 104, 199)" width="9" x="99.5834" y="195.2505"/>
  <polygon fill="#006ca1" points="113.5682,209.6724 118.0682,200.6724 122.5682,209.6724" stroke-width="0" transform=" rotate(0, 118, 205)"/>
  <ellipse cx="124.409" cy="194.9818" fill="#006ca1" rx="4.5" ry="4.5" stroke-width="0" transform=" rotate(0, 124, 194)"/>
  <rect fill="#006ca1" height="9" stroke-width="0" transform=" rotate(0, 135, 197)" width="9" x="131.4792" y="192.9378"/>
  <polygon fill="#006ca1" points="145.8793,200.6717 150.3793,191.6717 154.8793,200.6717" stroke-width="0" transform=" rotate(0, 150, 196)"/>
  <ellipse cx="159.4648" cy="204.5242" fill="#006ca1" rx="4.5" ry="4.5" stroke-width="0" transform=" rotate(0, 159, 204)"/>
  <rect fill="#006ca1" height="9" stroke-width="0" transform=" rotate(0, 164, 205)" width="9" x="159.8598" y="200.7639"/>
  <polygon fill="#006ca1" points="180.4417,202.3457 184.9417,193.3457 189.4417,202.3457" stroke-width="0" transform=" rotate(0, 184, 197)"/>
  <ellipse cx="195.6652" cy="203.0906" fill="#006ca1" rx="4.5" ry="4.5" stroke-width="0" transform=" rotate(0, 195, 203)"/>
  <rect fill="#006ca1" height="9" stroke-width="0" transform=" rotate(0, 194, 193)" width="9" x="189.8214" y="189.4057"/>
  <polygon fill="#006ca1" points="210.5081,201.5842 215.0081,192.5842 219.5081,201.5842" stroke-width="0" transform=" rotate(0, 215, 197)"/>
  <ellipse cx="221.463" cy="198.7578" fill="#006ca1" rx="4.5" ry="4.5" stroke-width="0" transform=" rotate(0, 221, 198)"/>
  <rect fill="#006ca1" height="9" stroke-width="0" transform=" rotate(0, 230, 196)" width="9" x="225.7652" y="191.8831"/>
  <polygon fill="#006ca1" points="229.6971,205.5221 234.1971,196.5221 238.6971,205.5221" stroke-width="0" transform=" rotate(0, 234, 201)"/>
  <ellipse cx="248.5524" cy="195.2767" fill="#006ca1" rx="4.5" ry="4.5" stroke-width="0" transform=" rotate(0, 248, 195)"/>
  <rect fill="#006ca1" height="9" stroke-width="0" transform=" rotate(0, 255, 201)" width="9" x="250.711" y="196.9822"/>
  <polygon fill="#006ca1" points="267.5088,207.5546 272.0088,198.5546 276.5088,207.5546" stroke-width="0" transform=" rotate(0, 272, 203)"/>
  <ellipse cx="281.5371" cy="198.2117" fill="#006ca1" rx="4.5" ry="4.5" stroke-width="0" transform=" rotate(0, 281, 198)"/>
  <rect fill="#1b9fd8" height="7" stroke-width="0" transform=" rotate(0, 44, 205)" width="7" x="41.1779" y="202.3807"/>
  <polygon fill="#1b9fd8" points="54.0143,213.7567 57.5143,206.7567 61.0143,213.7567" stroke-width="0" transform=" rotate(0, 57, 210)"/>
  <ellipse cx="66.2602" cy="207.1473" fill="#1b9fd8" rx="3.5" ry="3.5" stroke-width="0" transform=" rotate(0, 66, 207)"/>
  <rect fill="#1b9fd8" height="7" stroke-width="0" transform=" rotate(0, 79, 208)" width="7" x="75.5736" y="205.4478"/>
  <polygon fill="#1b9fd8" points="88.8373,217.6695 92.3373,210.6695 95.8373,217.6695" stroke-width="0" transform=" rotate(0, 92, 214)"/>
  <ellipse cx="103.985" cy="209.4916" fill="#1b9fd8" rx="3.5" ry="3.5" stroke-width="0" transform=" rotate(0, 103, 209)"/>
  <rect fill="#1b9fd8" height="7" stroke-width="0" transform=" rotate(0, 114, 208)" width="7" x="110.6551" y="205.2925"/>
  <polygon fill="#1b9fd8" points="113.5585,208.8404 117.0585,201.8404 120.5585,208.8404" stroke-width="0" transform=" rotate(0, 117, 205)"/>
  <ellipse cx="130.8774" cy="214.4983" fill="#1b9fd8" rx="3.5" ry="3.5" stroke-width="0" transform=" rotate(0, 130, 214)"/>
  <rect fill="#1b9fd8" height="7" stroke-width="0" transform=" rotate(0, 139, 212)" width="7" x="135.6" y="208.5831"/>
  <polygon fill="#1b9fd8" points="146.8244,217.0697 150.3244,210.0697 153.8244,217.0697" stroke-width="0" transform=" rotate(0, 150, 213)"/>
  <ellipse cx="161.7121" cy="205.5566" fill="#1b9fd8" rx="3.5" ry="3.5" stroke-width="0" transform=" rotate(0, 161, 205)"/>
  <rect fill="#1b9fd8" height="7" stroke-width="0" transform=" rotate(0, 165, 213)" width="7" x="162.3589" y="209.8418"/>
  <polygon fill="#1b9fd8" points="181.8725,209.1595 185.3725,202.1595 188.8725,209.1595" stroke-width="0" transform=" rotate(0, 185, 205)"/>
  <ellipse cx="193.5934" cy="215.6352" fill="#1b9fd8" rx="3.5" ry="3.5" stroke-width="0" transform=" rotate(0, 193, 215)"/>
  <rect fill="#1b9fd8" height="7" stroke-width="0" transform=" rotate(0, 197, 209)" width="7" x="193.6785" y="205.5966"/>
  <polygon fill="#1b9fd8" points="204.6515,212.0384 208.1515,205.0384 211.6515,212.0384" stroke-width="0" transform=" rotate(0, 208, 208)"/>
  <ellipse cx="222.1576" cy="212.5856" fill="#1b9fd8" rx="3.5" ry="3.5" stroke-width="0" transform=" rotate(0, 222, 212)"/>
  <rect fill="#1b9fd8" height="7" stroke-width="0" transform=" rotate(0, 235, 211)" width="7" x="232.4427" y="208.344"/>
  <polygon fill="#1b9fd8" points="232.3891,208.2222 235.8891,201.2222 239.3891,208.2222" stroke-width="0" transform=" rotate(0, 235, 204)"/>
  <ellipse cx="255.6915" cy="206.3757" fill="#1b9fd8" rx="3.5" ry="3.5" stroke-width="0" transform=" rotate(0, 255, 206)"/>
  <rect fill="#1b9fd8" height="7" stroke-width="0" transform=" rotate(0, 264, 212)" width="7" x="261.0649" y="208.5833"/>
  <polygon fill="#1b9fd8" points="261.6789,214.795 265.1789,207.795 268.6789,214.795" stroke-width="0" transform=" rotate(0, 265, 211)"/>
  <ellipse cx="280.1401" cy="209.2222" fill="#1b9fd8" rx="3.5" ry="3.5" stroke-width="0" transform=" rotate(0, 280, 209)"/>
  <rect fill="#6dd6ff" height="5" stroke-width="0" transform=" rotate(0, 51, 221)" width="5" x="49.1767" y="219.3592"/>
  <polygon fill="#6dd6ff" points="62.6119,218.5826 65.1119,213.5826 67.6119,218.5826" stroke-width="0" transform=" rotate(0, 65, 216)"/>
  <ellipse cx="73.1614" cy="219.0599" fill="#6dd6ff" rx="2.5" ry="2.5" stroke-width="0" transform=" rotate(0, 73, 219)"/>
  <rect fill="#6dd6ff" height="5" stroke-width="0" transform=" rotate(0, 80, 222)" width="5" x="77.7398" y="220.1891"/>
  <polygon fill="#6dd6ff" points="84.4172,222.2896 86.9172,217.2896 89.4172,222.2896" stroke-width="0" transform=" rotate(0, 86, 219)"/>
  <ellipse cx="101.7293" cy="216.4053" fill="#6dd6ff" rx="2.5" ry="2.5" stroke-width="0" transform=" rotate(0, 101, 216)"/>
  <rect fill="#6dd6ff" height="5" stroke-width="0" transform=" rotate(0, 106, 224)" width="5" x="103.5844" y="222.1478"/>
  <polygon fill="#6dd6ff" points="115.2806,218.7393 117.7806,213.7393 120.2806,218.7393" stroke-width="0" transform=" rotate(0, 117, 216)"/>
  <ellipse cx="128.7654" cy="225.3151" fill="#6dd6ff" rx="2.5" ry="2.5" stroke-width="0" transform=" rotate(0, 128, 225)"/>
  <rect fill="#6dd6ff" height="5" stroke-width="0" transform=" rotate(0, 139, 216)" width="5" x="137.2854" y="213.8275"/>
  <polygon fill="#6dd6ff" points="144.5677,218.5104 147.0677,213.5104 149.5677,218.5104" stroke-width="0" transform=" rotate(0, 147, 216)"/>
  <ellipse cx="159.3638" cy="220.0791" fill="#6dd6ff" rx="2.5" ry="2.5" stroke-width="0" transform=" rotate(0, 159, 220)"/>
  <rect fill="#6dd6ff" height="5" stroke-width="0" transform=" rotate(0, 173, 216)" width="5" x="170.691" y="214.4032"/>
  <polygon fill="#6dd6ff" points="174.4263,226.6171 176.9263,221.6171 179.4263,226.6171" stroke-width="0" transform=" rotate(0, 176, 224)"/>
  <ellipse cx="194.0239" cy="221.3006" fill="#6dd6ff" rx="2.5" ry="2.5" stroke-width="0" transform=" rotate(0, 194, 221)"/>
  <rect fill="#6dd6ff" height="5" stroke-width="0" transform=" rotate(0, 205, 223)" width="5" x="203.0604" y="221.401"/>
  <polygon fill="#6dd6ff" points="210.4303,220.6803 212.9303,215.6803 215.4303,220.6803" stroke-width="0" transform=" rotate(0, 212, 218)"/>
  <ellipse cx="217.1926" cy="216.6427" fill="#6dd6ff" rx="2.5" ry="2.5" stroke-width="0" transform=" rotate(0, 217, 216)"/>
  <rect fill="#6dd6ff" height="5" stroke-width="0" transform=" rotate(0, 229, 214)" width="5" x="227.3118" y="211.645"/>
  <polygon fill="#6dd6ff" points="240.1098,225.7805 242.6098,220.7805 245.1098,225.7805" stroke-width="0" transform=" rotate(0, 242, 223)"/>
  <ellipse cx="245.8097" cy="217.6685" fill="#6dd6ff" rx="2.5" ry="2.5" stroke-width="0" transform=" rotate(0, 245, 217)"/>
  <rect fill="#6dd6ff" height="5" stroke-width="0" transform=" rotate(0, 263, 214)" width="5" x="261.3205" y="211.795"/>
  <polygon fill="#6dd6ff" points="263.754,222.2847 266.254,217.2847 268.754,222.2847" stroke-width="0" transform=" rotate(0, 266, 219)"/>
  <ellipse cx="274.977" cy="222.3456" fill="#6dd6ff" rx="2.5" ry="2.5" stroke-width="0" transform=" rotate(0, 274, 222)"/>
  <rect fill="#006ca1" height="9" stroke-width="0" transform=" rotate(0, 55, 225)" width="9" x="50.741" y="220.6765"/>
  <polygon fill="#006ca1" points="57.4326,230.1105 61.9326,221.1105 66.4326,230.1105" stroke-width="0" transform=" rotate(0, 61, 225)"/>
  <ellipse cx="68.6852" cy="233.0664" fill="#006ca1" rx="4.5" ry="4.5" stroke-width="0" transform=" rotate(0, 68, 233)"/>
  <rect fill="#006ca1" height="9" stroke-width="0" transform=" rotate(0, 84, 235)" width="9" x="80.3419" y="230.8377"/>
  <polygon fill="#006ca1" points="89.2108,238.2891 93.7108,229.2891 98.2108,238.2891" stroke-width="0" transform=" rotate(0, 93, 233)"/>
  <ellipse cx="105.5858" cy="229.7554" fill="#006ca1" rx="4.5" ry="4.5" stroke-width="0" transform=" rotate(0, 105, 229)"/>
  <rect fill="#006ca1" height="9" stroke-width="0" transform=" rotate(0, 111, 224)" width="9" x="106.6034" y="219.5055"/>
  <polygon fill="#006ca1" points="118.7247,236.3631 123.2247,227.3631 127.7247,236.3631" stroke-width="0" transform=" rotate(0, 123, 231)"/>
  <ellipse cx="132.7648" cy="226.9615" fill="#006ca1" rx="4.5" ry="4.5" stroke-width="0" transform=" rotate(0, 132, 226)"/>
  <rect fill="#006ca1" height="9" stroke-width="0" transform=" rotate(0, 134, 234)" width="9" x="130.4105" y="230.3128"/>
  <polygon fill="#006ca1" points="145.4804,230.5884 149.9804,221.5884 154.4804,230.5884" stroke-width="0" transform=" rotate(0, 149, 226)"/>
  <ellipse cx="162.9924" cy="231.3274" fill="#006ca1" rx="4.5" ry="4.5" stroke-width="0" transform=" rotate(0, 162, 231)"/>
  <rect fill="#006ca1" height="9" stroke-width="0" transform=" rotate(0, 165, 229)" width="9" x="160.5446" y="224.6292"/>
  <polygon fill="#006ca1" points="180.4998,236.3364 184.9998,227.3364 189.4998,236.3364" stroke-width="0" transform=" rotate(0, 184, 231)"/>
  <ellipse cx="189.007" cy="234.8381" fill="#006ca1" rx="4.5" ry="4.5" stroke-width="0" transform=" rotate(0, 189, 234)"/>
  <rect fill="#006ca1" height="9" stroke-width="0" transform=" rotate(0, 202, 234)" width="9" x="198.336" y="230.4074"/>
  <polygon fill="#006ca1" points="202.7347,235.3121 207.2347,226.3121 211.7347,235.3121" stroke-width="0" transform=" rotate(0, 207, 230)"/>
  <ellipse cx="221.3404" cy="226.891" fill="#006ca1" rx="4.5" ry="4.5" stroke-width="0" transform=" rotate(0, 221, 226)"/>
  <rect fill="#006ca1" height="9" stroke-width="0" transform=" rotate(0, 235, 226)" width="9" x="230.9172" y="221.6558"/>
  <polygon fill="#006ca1" points="235.4609,230.8038 239.9609,221.8038 244.4609,230.8038" stroke-width="0" transform=" rotate(0, 239, 226)"/>
  <ellipse cx="253.5554" cy="229.318" fill="#006ca1" rx="4.5" ry="4.5" stroke-width="0" transform=" rotate(0, 253, 229)"/>
  <rect fill="#006ca1" height="9" stroke-width="0" transform=" rotate(0, 254, 227)" width="9" x="250.4871" y="222.8242"/>
  <polygon fill="#006ca1" points="270.6194,239.7202 275.1194,230.7202 279.6194,239.7202" stroke-width="0" transform=" rotate(0, 275, 235)"/>
  <ellipse cx="277.9836" cy="230.7539" fill="#006ca1" rx="4.5" ry="4.5" stroke-width="0" transform=" rotate(0, 277, 230)"/>
  <rect fill="#1b9fd8" height="7" stroke-width="0" transform=" rotate(0, 46, 234)" width="7" x="43.3853" y="230.8425"/>
  <polygon fill="#1b9fd8" points="51.2282,239.4619 54.7282,232.4619 58.2282,239.4619" stroke-width="0" transform=" rotate(0, 54, 235)"/>
  <ellipse cx="66.8296" cy="240.0824" fill="#1b9fd8" rx="3.5" ry="3.5" stroke-width="0" transform=" rotate(0, 66, 240)"/>
  <rect fill="#1b9fd8" height="7" stroke-width="0" transform=" rotate(0, 75, 235)" width="7" x="72.0345" y="231.5527"/>
  <polygon fill="#1b9fd8" points="81.6016,244.2653 85.1016,237.2653 88.6016,244.2653" stroke-width="0" transform=" rotate(0, 85, 240)"/>
  <ellipse cx="94.5016" cy="236.8059" fill="#1b9fd8" rx="3.5" ry="3.5" stroke-width="0" transform=" rotate(0, 94, 236)"/>
  <rect fill="#1b9fd8" height="7" stroke-width="0" transform=" rotate(0, 104, 241)" width="7" x="100.5539" y="237.7509"/>
  <polygon fill="#1b9fd8" points="116.6219,243.8492 120.1219,236.8492 123.6219,243.8492" stroke-width="0" transform=" rotate(0, 120, 240)"/>
  <ellipse cx="133.7911" cy="241.1073" fill="#1b9fd8" rx="3.5" ry="3.5" stroke-width="0" transform=" rotate(0, 133, 241)"/>
  <rect fill="#1b9fd8" height="7" stroke-width="0" transform=" rotate(0, 144, 235)" width="7" x="140.7399" y="231.8343"/>
  <polygon fill="#1b9fd8" points="143.9763,238.3905 147.4763,231.3905 150.9763,238.3905" stroke-width="0" transform=" rotate(0, 147, 234)"/>
  <ellipse cx="163.437" cy="242.5525" fill="#1b9fd8" rx="3.5" ry="3.5" stroke-width="0" transform=" rotate(0, 163, 242)"/>
  <rect fill="#1b9fd8" height="7" stroke-width="0" transform=" rotate(0, 171, 237)" width="7" x="167.5285" y="233.7446"/>
  <polygon fill="#1b9fd8" points="171.7332,239.6376 175.2332,232.6376 178.7332,239.6376" stroke-width="0" transform=" rotate(0, 175, 236)"/>
  <ellipse cx="187.4033" cy="237.3963" fill="#1b9fd8" rx="3.5" ry="3.5" stroke-width="0" transform=" rotate(0, 187, 237)"/>
  <rect fill="#1b9fd8" height="7" stroke-width="0" transform=" rotate(0, 203, 235)" width="7" x="199.6333" y="231.6967"/>
  <polygon fill="#1b9fd8" points="202.0827,247.2468 205.5827,240.2468 209.0827,247.2468" stroke-width="0" transform=" rotate(0, 205, 243)"/>
  <ellipse cx="221.0576" cy="234.6477" fill="#1b9fd8" rx="3.5" ry="3.5" stroke-width="0" transform=" rotate(0, 221, 234)"/>
  <rect fill="#1b9fd8" height="7" stroke-width="0" transform=" rotate(0, 225, 243)" width="7" x="221.9548" y="239.9589"/>
  <polygon fill="#1b9fd8" points="234.3005,248.167 237.8005,241.167 241.3005,248.167" stroke-width="0" transform=" rotate(0, 237, 244)"/>
  <ellipse cx="250.0235" cy="238.093" fill="#1b9fd8" rx="3.5" ry="3.5" stroke-width="0" transform=" rotate(0, 250, 238)"/>
  <rect fill="#1b9fd8" height="7" stroke-width="0" transform=" rotate(0, 255, 235)" width="7" x="251.526" y="231.6293"/>
  <polygon fill="#1b9fd8" points="272.2551,237.8636 275.7551,230.8636 279.2551,237.8636" stroke-width="0" transform=" rotate(0, 275, 234)"/>
  <ellipse cx="281.8676" cy="242.2296" fill="#1b9fd8" rx="3.5" ry="3.5" stroke-width="0" transform=" rotate(0, 281, 242)"/>
  <rect fill="#6dd6ff" height="5" stroke-width="0" transform=" rotate(0, 46, 250)" width="5" x="43.6496" y="248.0966"/>
  <polygon fill="#6dd6ff" points="52.5454,248.6632 55.0454,243.6632 57.5454,248.6632" stroke-width="0" transform=" rotate(0, 55, 246)"/>
  <ellipse cx="70.5886" cy="255.2603" fill="#6dd6ff" rx="2.5" ry="2.5" stroke-width="0" transform=" rotate(0, 70, 255)"/>
  <rect fill="#6dd6ff" height="5" stroke-width="0" transform=" rotate(0, 79, 255)" width="5" x="77.0133" y="252.6116"/>
  <polygon fill="#6dd6ff" points="85.468,253.4401 87.968,248.4401 90.468,253.4401" stroke-width="0" transform=" rotate(0, 87, 250)"/>
  <ellipse cx="101.908" cy="247.3361" fill="#6dd6ff" rx="2.5" ry="2.5" stroke-width="0" transform=" rotate(0, 101, 247)"/>
  <rect fill="#6dd6ff" height="5" stroke-width="0" transform=" rotate(0, 114, 251)" width="5" x="112.3961" y="249.2637"/>
  <polygon fill="#6dd6ff" points="116.1991,257.4036 118.6991,252.4036 121.1991,257.4036" stroke-width="0" transform=" rotate(0, 118, 254)"/>
  <ellipse cx="126.2942" cy="253.8267" fill="#6dd6ff" rx="2.5" ry="2.5" stroke-width="0" transform=" rotate(0, 126, 253)"/>
  <rect fill="#6dd6ff" height="5" stroke-width="0" transform=" rotate(0, 142, 254)" width="5" x="139.5131" y="252.2783"/>
  <polygon fill="#6dd6ff" points="144.3275,255.9077 146.8275,250.9077 149.3275,255.9077" stroke-width="0" transform=" rotate(0, 146, 253)"/>
  <ellipse cx="157.2582" cy="251.4196" fill="#6dd6ff" rx="2.5" ry="2.5" stroke-width="0" transform=" rotate(0, 157, 251)"/>
  <rect fill="#6dd6ff" height="5" stroke-width="0" transform=" rotate(0, 171, 255)" width="5" x="168.9861" y="253.2712"/>
  <polygon fill="#6dd6ff" points="182.9535,246.8097 185.4535,241.8097 187.9535,246.8097" stroke-width="0" transform=" rotate(0, 185, 244)"/>
  <ellipse cx="183.9708" cy="247.6888" fill="#6dd6ff" rx="2.5" ry="2.5" stroke-width="0" transform=" rotate(0, 183, 247)"/>
  <rect fill="#6dd6ff" height="5" stroke-width="0" transform=" rotate(0, 203, 248)" width="5" x="200.5716" y="246.3739"/>
  <polygon fill="#6dd6ff" points="212.9986,251.179 215.4986,246.179 217.9986,251.179" stroke-width="0" transform=" rotate(0, 215, 248)"/>
  <ellipse cx="221.4191" cy="249.5292" fill="#6dd6ff" rx="2.5" ry="2.5" stroke-width="0" transform=" rotate(0, 221, 249)"/>
  <rect fill="#6dd6ff" height="5" stroke-width="0" transform=" rotate(0, 233, 250)" width="5" x="231.116" y="248.4696"/>
  <polygon fill="#6dd6ff" points="237.0614,252.7549 239.5614,247.7549 242.0614,252.7549" stroke-width="0" transform=" rotate(0, 239, 250)"/>
  <ellipse cx="254.2092" cy="252.8054" fill="#6dd6ff" rx="2.5" ry="2.5" stroke-width="0" transform=" rotate(0, 254, 252)"/>
  <rect fill="#6dd6ff" height="5" stroke-width="0" transform=" rotate(0, 262, 244)" width="5" x="259.8685" y="242.1764"/>
  <polygon fill="#6dd6ff" points="269.7062,251.325 272.2062,246.325 274.7062,251.325" stroke-width="0" transform=" rotate(0, 272, 248)"/>
  <ellipse cx="274.3179" cy="253.0042" fill="#6dd6ff" rx="2.5" ry="2.5" stroke-width="0" transform=" rotate(0, 274, 253)"/>
  <rect fill="#006ca1" height="9" stroke-width="0" transform=" rotate(0, 54, 264)" width="9" x="49.9135" y="260.0202"/>
  <polygon fill="#006ca1" points="52.2623,261.6265 56.7623,252.6265 61.2623,261.6265" stroke-width="0" transform=" rotate(0, 56, 257)"/>
  <ellipse cx="75.8781" cy="260.6164" fill="#006ca1" rx="4.5" ry="4.5" stroke-width="0" transform=" rotate(0, 75, 260)"/>
  <rect fill="#006ca1" height="9" stroke-width="0" transform=" rotate(0, 75, 256)" width="9" x="71.2681" y="252.4539"/>
  <polygon fill="#006ca1" points="88.4357,259.4073 92.9357,250.4073 97.4357,259.4073" stroke-width="0" transform=" rotate(0, 92, 254)"/>
  <ellipse cx="95.3678" cy="262.8316" fill="#006ca1" rx="4.5" ry="4.5" stroke-width="0" transform=" rotate(0, 95, 262)"/>
  <rect fill="#006ca1" height="9" stroke-width="0" transform=" rotate(0, 109, 254)" width="9" x="105.302" y="250.4082"/>
  <polygon fill="#006ca1" points="112.8184,262.5619 117.3184,253.5619 121.8184,262.5619" stroke-width="0" transform=" rotate(0, 117, 258)"/>
  <ellipse cx="132.9649" cy="255.6899" fill="#006ca1" rx="4.5" ry="4.5" stroke-width="0" transform=" rotate(0, 132, 255)"/>
  <rect fill="#006ca1" height="9" stroke-width="0" transform=" rotate(0, 136, 255)" width="9" x="131.7962" y="251.2301"/>
  <polygon fill="#006ca1" points="139.8122,261.2838 144.3122,252.2838 148.8122,261.2838" stroke-width="0" transform=" rotate(0, 144, 256)"/>
  <ellipse cx="163.899" cy="265.33" fill="#006ca1" rx="4.5" ry="4.5" stroke-width="0" transform=" rotate(0, 163, 265)"/>
  <rect fill="#006ca1" height="9" stroke-width="0" transform=" rotate(0, 170, 256)" width="9" x="165.7906" y="251.9227"/>
  <polygon fill="#006ca1" points="179.7987,263.3609 184.2987,254.3609 188.7987,263.3609" stroke-width="0" transform=" rotate(0, 184, 258)"/>
  <ellipse cx="185.9637" cy="261.8892" fill="#006ca1" rx="4.5" ry="4.5" stroke-width="0" transform=" rotate(0, 185, 261)"/>
  <rect fill="#006ca1" height="9" stroke-width="0" transform=" rotate(0, 200, 264)" width="9" x="195.823" y="260.4347"/>
  <polygon fill="#006ca1" points="210.8958,262.643 215.3958,253.643 219.8958,262.643" stroke-width="0" transform=" rotate(0, 215, 258)"/>
  <ellipse cx="219.5444" cy="258.7316" fill="#006ca1" rx="4.5" ry="4.5" stroke-width="0" transform=" rotate(0, 219, 258)"/>
  <rect fill="#006ca1" height="9" stroke-width="0" transform=" rotate(0, 228, 259)" width="9" x="224.0179" y="255.3271"/>
  <polygon fill="#006ca1" points="232.6682,266.075 237.1682,257.075 241.6682,266.075" stroke-width="0" transform=" rotate(0, 237, 261)"/>
  <ellipse cx="247.9731" cy="256.0486" fill="#006ca1" rx="4.5" ry="4.5" stroke-width="0" transform=" rotate(0, 247, 256)"/>
  <rect fill="#006ca1" height="9" stroke-width="0" transform=" rotate(0, 262, 257)" width="9" x="257.7383" y="252.6691"/>
  <polygon fill="#006ca1" points="260.4361,263.1133 264.9361,254.1133 269.4361,263.1133" stroke-width="0" transform=" rotate(0, 264, 258)"/>
  <ellipse cx="277.8068" cy="259.4514" fill="#006ca1" rx="4.5" ry="4.5" stroke-width="0" transform=" rotate(0, 277, 259)"/>
  <rect fill="#1b9fd8" height="7" stroke-width="0" transform=" rotate(0, 48, 268)" width="7" x="45.1497" y="265.1577"/>
  <polygon fill="#1b9fd8" points="58.8131,278.8507 62.3131,271.8507 65.8131,278.8507" stroke-width="0" transform=" rotate(0, 62, 275)"/>
  <ellipse cx="69.7834" cy="264.0538" fill="#1b9fd8" rx="3.5" ry="3.5" stroke-width="0" transform=" rotate(0, 69, 264)"/>
  <rect fill="#1b9fd8" height="7" stroke-width="0" transform=" rotate(0, 82, 267)" width="7" x="79.2029" y="263.6625"/>
  <polygon fill="#1b9fd8" points="90.0272,276.1281 93.5272,269.1281 97.0272,276.1281" stroke-width="0" transform=" rotate(0, 93, 272)"/>
  <ellipse cx="94.7258" cy="273.1782" fill="#1b9fd8" rx="3.5" ry="3.5" stroke-width="0" transform=" rotate(0, 94, 273)"/>
  <rect fill="#1b9fd8" height="7" stroke-width="0" transform=" rotate(0, 106, 267)" width="7" x="102.6249" y="264.4779"/>
  <polygon fill="#1b9fd8" points="115.0592,267.4134 118.5592,260.4134 122.0592,267.4134" stroke-width="0" transform=" rotate(0, 118, 263)"/>
  <ellipse cx="133.1817" cy="274.2215" fill="#1b9fd8" rx="3.5" ry="3.5" stroke-width="0" transform=" rotate(0, 133, 274)"/>
  <rect fill="#1b9fd8" height="7" stroke-width="0" transform=" rotate(0, 145, 275)" width="7" x="142.3897" y="271.5133"/>
  <polygon fill="#1b9fd8" points="152.331,269.6504 155.831,262.6504 159.331,269.6504" stroke-width="0" transform=" rotate(0, 155, 266)"/>
  <ellipse cx="163.1517" cy="267.9042" fill="#1b9fd8" rx="3.5" ry="3.5" stroke-width="0" transform=" rotate(0, 163, 267)"/>
  <rect fill="#1b9fd8" height="7" stroke-width="0" transform=" rotate(0, 166, 273)" width="7" x="162.7065" y="269.9573"/>
  <polygon fill="#1b9fd8" points="182.3143,278.5223 185.8143,271.5223 189.3143,278.5223" stroke-width="0" transform=" rotate(0, 185, 275)"/>
  <ellipse cx="184.3677" cy="264.4369" fill="#1b9fd8" rx="3.5" ry="3.5" stroke-width="0" transform=" rotate(0, 184, 264)"/>
  <rect fill="#1b9fd8" height="7" stroke-width="0" transform=" rotate(0, 203, 275)" width="7" x="199.6145" y="271.5868"/>
  <polygon fill="#1b9fd8" points="201.605,273.9492 205.105,266.9492 208.605,273.9492" stroke-width="0" transform=" rotate(0, 205, 270)"/>
  <ellipse cx="218.4111" cy="273.3462" fill="#1b9fd8" rx="3.5" ry="3.5" stroke-width="0" transform=" rotate(0, 218, 273)"/>
  <rect fill="#1b9fd8" height="7" stroke-width="0" transform=" rotate(0, 224, 268)" width="7" x="221.3306" y="264.6453"/>
  <polygon fill="#1b9fd8" points="238.4982,276.3509 241.9982,269.3509 245.4982,276.3509" stroke-width="0" transform=" rotate(0, 241, 272)"/>
  <ellipse cx="244.0646" cy="271.8849" fill="#1b9fd8" rx="3.5" ry="3.5" stroke-width="0" transform=" rotate(0, 244, 271)"/>
  <rect fill="#1b9fd8" height="7" stroke-width="0" transform=" rotate(0, 261, 270)" width="7" x="257.6385" y="267.2769"/>
  <polygon fill="#1b9fd8" points="262.2693,276.1629 265.7693,269.1629 269.2693,276.1629" stroke-width="0" transform=" rotate(0, 265, 272)"/>
  <ellipse cx="284.3995" cy="267.7469" fill="#1b9fd8" rx="3.5" ry="3.5" stroke-width="0" transform=" rotate(0, 284, 267)"/>
  <rect fill="#6dd6ff" height="5" stroke-width="0" transform=" rotate(0, 44, 281)" width="5" x="41.5731" y="278.8098"/>
  <polygon fill="#6dd6ff" points="62.1866,277.1404 64.6866,272.1404 67.1866,277.1404" stroke-width="0" transform=" rotate(0, 64, 274)"/>
  <ellipse cx="68.3191" cy="278.8201" fill="#6dd6ff" rx="2.5" ry="2.5" stroke-width="0" transform=" rotate(0, 68, 278)"/>
  <rect fill="#6dd6ff" height="5" stroke-width="0" transform=" rotate(0, 76, 283)" width="5" x="73.8112" y="281.4068"/>
  <polygon fill="#6dd6ff" points="88.7365,282.9801 91.2365,277.9801 93.7365,282.9801" stroke-width="0" transform=" rotate(0, 91, 280)"/>
  <ellipse cx="99.6811" cy="277.7086" fill="#6dd6ff" rx="2.5" ry="2.5" stroke-width="0" transform=" rotate(0, 99, 277)"/>
  <rect fill="#6dd6ff" height="5" stroke-width="0" transform=" rotate(0, 113, 281)" width="5" x="110.8021" y="279.1479"/>
  <polygon fill="#6dd6ff" points="113.8603,284.1838 116.3603,279.1838 118.8603,284.1838" stroke-width="0" transform=" rotate(0, 116, 281)"/>
  <ellipse cx="124.1392" cy="274.1039" fill="#6dd6ff" rx="2.5" ry="2.5" stroke-width="0" transform=" rotate(0, 124, 274)"/>
  <rect fill="#6dd6ff" height="5" stroke-width="0" transform=" rotate(0, 139, 282)" width="5" x="137.3892" y="280.4171"/>
  <polygon fill="#6dd6ff" points="146.4462,278.7912 148.9462,273.7912 151.4462,278.7912" stroke-width="0" transform=" rotate(0, 148, 276)"/>
  <ellipse cx="161.3989" cy="284.3419" fill="#6dd6ff" rx="2.5" ry="2.5" stroke-width="0" transform=" rotate(0, 161, 284)"/>
  <rect fill="#6dd6ff" height="5" stroke-width="0" transform=" rotate(0, 164, 280)" width="5" x="162.3216" y="278.4003"/>
  <polygon fill="#6dd6ff" points="175.623,287.8023 178.123,282.8023 180.623,287.8023" stroke-width="0" transform=" rotate(0, 178, 285)"/>
  <ellipse cx="188.6697" cy="284.6117" fill="#6dd6ff" rx="2.5" ry="2.5" stroke-width="0" transform=" rotate(0, 188, 284)"/>
  <rect fill="#6dd6ff" height="5" stroke-width="0" transform=" rotate(0, 202, 277)" width="5" x="200.065" y="275.0424"/>
  <polygon fill="#6dd6ff" points="207.6631,288.1505 210.1631,283.1505 212.6631,288.1505" stroke-width="0" transform=" rotate(0, 210, 285)"/>
  <ellipse cx="218.4653" cy="276.5067" fill="#6dd6ff" rx="2.5" ry="2.5" stroke-width="0" transform=" rotate(0, 218, 276)"/>
  <rect fill="#6dd6ff" height="5" stroke-width="0" transform=" rotate(0, 232, 274)" width="5" x="230.3076" y="272.1958"/>
  <polygon fill="#6dd6ff" points="234.4706,287.3099 236.9706,282.3099 239.4706,287.3099" stroke-width="0" transform=" rotate(0, 236, 284)"/>
  <ellipse cx="244.2909" cy="284.4934" fill="#6dd6ff" rx="2.5" ry="2.5" stroke-width="0" transform=" rotate(0, 244, 284)"/>
  <rect fill="#6dd6ff" height="5" stroke-width="0" transform=" rotate(0, 259, 273)" width="5" x="257.2092" y="271.41"/>
  <polygon fill="#6dd6ff" points="273.0989,284.5191 275.5989,279.5191 278.0989,284.5191" stroke-width="0" transform=" rotate(0, 275, 282)"/>
  <ellipse cx="281.9515" cy="280.2983" fill="#6dd6ff" rx="2.5" ry="2.5" stroke-width="0" transform=" rotate(0, 281, 280)"/>
</svg>
