<?xml version="1.0" encoding="utf-8" ?>
<svg baseProfile="tiny" height="330" version="1.2" width="330" xmlns="http://www.w3.org/2000/svg" xmlns:ev="http://www.w3.org/2001/xml-events" xmlns:xlink="http://www.w3.org/1999/xlink">
  <defs/>
  <rect fill="white" height="330" width="330" x="0" y="0"/>
  <rect fill="#6dd6ff" height="5" stroke-width="0" transform=" rotate(0, 48, 51)" width="5" x="45.8971" y="48.5512"/>
  <polygon fill="#6dd6ff" points="57.2708,52.3067 59.7708,47.3067 62.2708,52.3067" stroke-width="0" transform=" rotate(0, 59, 49)"/>
  <ellipse cx="70.8446" cy="49.5872" fill="#6dd6ff" rx="2.5" ry="2.5" stroke-width="0" transform=" rotate(0, 70, 49)"/>
  <rect fill="#6dd6ff" height="5" stroke-width="0" transform=" rotate(0, 78, 51)" width="5" x="75.7563" y="49.1741"/>
  <polygon fill="#6dd6ff" points="89.0526,53.8137 91.5526,48.8137 94.0526,53.8137" stroke-width="0" transform=" rotate(0, 91, 51)"/>
  <ellipse cx="100.8432" cy="47.9627" fill="#6dd6ff" rx="2.5" ry="2.5" stroke-width="0" transform=" rotate(0, 100, 47)"/>
  <rect fill="#6dd6ff" height="5" stroke-width="0" transform=" rotate(0, 110, 51)" width="5" x="107.546" y="48.8623"/>
  <polygon fill="#6dd6ff" points="115.7878,54.2684 118.2878,49.2684 120.7878,54.2684" stroke-width="0" transform=" rotate(0, 118, 51)"/>
  <ellipse cx="131.3454" cy="51.346" fill="#6dd6ff" rx="2.5" ry="2.5" stroke-width="0" transform=" rotate(0, 131, 51)"/>
  <rect fill="#6dd6ff" height="5" stroke-width="0" transform=" rotate(0, 139, 51)" width="5" x="137.0233" y="49.3173"/>
  <polygon fill="#6dd6ff" points="146.2469,54.2497 148.7469,49.2497 151.2469,54.2497" stroke-width="0" transform=" rotate(0, 148, 51)"/>
  <ellipse cx="160.3755" cy="48.3184" fill="#6dd6ff" rx="2.5" ry="2.5" stroke-width="0" transform=" rotate(0, 160, 48)"/>
  <rect fill="#6dd6ff" height="5" stroke-width="0" transform=" rotate(0, 171, 49)" width="5" x="169.3226" y="46.7409"/>
  <polygon fill="#6dd6ff" points="176.1213,52.2422 178.6213,47.2422 181.1213,52.2422" stroke-width="0" transform=" rotate(0, 178, 49)"/>
  <ellipse cx="190.253" cy="48.847" fill="#6dd6ff" rx="2.5" ry="2.5" stroke-width="0" transform=" rotate(0, 190, 48)"/>
  <rect fill="#6dd6ff" height="5" stroke-width="0" transform=" rotate(0, 200, 50)" width="5" x="198.2486" y="47.9471"/>
  <polygon fill="#6dd6ff" points="206.0727,52.8649 208.5727,47.8649 211.0727,52.8649" stroke-width="0" transform=" rotate(0, 208, 50)"/>
  <ellipse cx="220.0558" cy="48.3034" fill="#6dd6ff" rx="2.5" ry="2.5" stroke-width="0" transform=" rotate(0, 220, 48)"/>
  <rect fill="#6dd6ff" height="5" stroke-width="0" transform=" rotate(0, 230, 51)" width="5" x="228.192" y="49.2789"/>
  <polygon fill="#6dd6ff" points="237.3571,50.5175 239.8571,45.5175 242.3571,50.5175" stroke-width="0" transform=" rotate(0, 239, 48)"/>
  <ellipse cx="248.6247" cy="50.8969" fill="#6dd6ff" rx="2.5" ry="2.5" stroke-width="0" transform=" rotate(0, 248, 50)"/>
  <rect fill="#6dd6ff" height="5" stroke-width="0" transform=" rotate(0, 260, 48)" width="5" x="258.1209" y="46.1637"/>
  <polygon fill="#6dd6ff" points="267.2355,51.7264 269.7355,46.7264 272.2355,51.7264" stroke-width="0" transform=" rotate(0, 269, 49)"/>
  <ellipse cx="281.5526" cy="49.849" fill="#6dd6ff" rx="2.5" ry="2.5" stroke-width="0" transform=" rotate(0, 281, 49)"/>
  <rect fill="#1b9fd8" height="7" stroke-width="0" transform=" rotate(0, 49, 60)" width="7" x="46.2658" y="57.0761"/>
  <polygon fill="#1b9fd8" points="56.9322,62.1418 60.4322,55.1418 63.9322,62.1418" stroke-width="0" transform=" rotate(0, 60, 58)"/>
  <ellipse cx="71.0994" cy="62.0803" fill="#1b9fd8" rx="3.5" ry="3.5" stroke-width="0" transform=" rotate(0, 71, 62)"/>
  <rect fill="#1b9fd8" height="7" stroke-width="0" transform=" rotate(0, 78, 60)" width="7" x="75.1952" y="57.3763"/>
  <polygon fill="#1b9fd8" points="87.4494,61.6979 90.9494,54.6979 94.4494,61.6979" stroke-width="0" transform=" rotate(0, 90, 58)"/>
  <ellipse cx="102.5914" cy="61.0649" fill="#1b9fd8" rx="3.5" ry="3.5" stroke-width="0" transform=" rotate(0, 102, 61)"/>
  <rect fill="#1b9fd8" height="7" stroke-width="0" transform=" rotate(0, 107, 61)" width="7" x="103.9631" y="57.7337"/>
  <polygon fill="#1b9fd8" points="115.8492,65.5103 119.3492,58.5103 122.8492,65.5103" stroke-width="0" transform=" rotate(0, 119, 62)"/>
  <ellipse cx="131.0101" cy="58.9145" fill="#1b9fd8" rx="3.5" ry="3.5" stroke-width="0" transform=" rotate(0, 131, 58)"/>
  <rect fill="#1b9fd8" height="7" stroke-width="0" transform=" rotate(0, 139, 58)" width="7" x="136.2719" y="54.9922"/>
  <polygon fill="#1b9fd8" points="149.0736,64.8998 152.5736,57.8998 156.0736,64.8998" stroke-width="0" transform=" rotate(0, 152, 61)"/>
  <ellipse cx="161.1071" cy="58.5474" fill="#1b9fd8" rx="3.5" ry="3.5" stroke-width="0" transform=" rotate(0, 161, 58)"/>
  <rect fill="#1b9fd8" height="7" stroke-width="0" transform=" rotate(0, 169, 61)" width="7" x="166.4776" y="58.2483"/>
  <polygon fill="#1b9fd8" points="178.9219,64.989 182.4219,57.989 185.9219,64.989" stroke-width="0" transform=" rotate(0, 182, 61)"/>
  <ellipse cx="190.8879" cy="59.7594" fill="#1b9fd8" rx="3.5" ry="3.5" stroke-width="0" transform=" rotate(0, 190, 59)"/>
  <rect fill="#1b9fd8" height="7" stroke-width="0" transform=" rotate(0, 200, 62)" width="7" x="197.1908" y="59.1291"/>
  <polygon fill="#1b9fd8" points="206.9646,63.3737 210.4646,56.3737 213.9646,63.3737" stroke-width="0" transform=" rotate(0, 210, 59)"/>
  <ellipse cx="220.6507" cy="62.225" fill="#1b9fd8" rx="3.5" ry="3.5" stroke-width="0" transform=" rotate(0, 220, 62)"/>
  <rect fill="#1b9fd8" height="7" stroke-width="0" transform=" rotate(0, 230, 60)" width="7" x="227.336" y="56.8226"/>
  <polygon fill="#1b9fd8" points="239.1657,63.2123 242.6657,56.2123 246.1657,63.2123" stroke-width="0" transform=" rotate(0, 242, 59)"/>
  <ellipse cx="249.0811" cy="58.4874" fill="#1b9fd8" rx="3.5" ry="3.5" stroke-width="0" transform=" rotate(0, 249, 58)"/>
  <rect fill="#1b9fd8" height="7" stroke-width="0" transform=" rotate(0, 262, 57)" width="7" x="258.9369" y="53.8484"/>
  <polygon fill="#1b9fd8" points="265.7777,62.4357 269.2777,55.4357 272.7777,62.4357" stroke-width="0" transform=" rotate(0, 269, 58)"/>
  <ellipse cx="278.6635" cy="60.2949" fill="#1b9fd8" rx="3.5" ry="3.5" stroke-width="0" transform=" rotate(0, 278, 60)"/>
  <rect fill="#006ca1" height="9" stroke-width="0" transform=" rotate(0, 46, 66)" width="9" x="42.4004" y="61.939"/>
  <polygon fill="#006ca1" points="58.6687,77.2507 63.1687,68.2507 67.6687,77.2507" stroke-width="0" transform=" rotate(0, 63, 72)"/>
  <ellipse cx="67.3614" cy="71.0927" fill="#006ca1" rx="4.5" ry="4.5" stroke-width="0" transform=" rotate(0, 67, 71)"/>
  <rect fill="#006ca1" height="9" stroke-width="0" transform=" rotate(0, 79, 71)" width="9" x="74.661" y="66.637"/>
  <polygon fill="#006ca1" points="88.4047,76.8108 92.9047,67.8108 97.4047,76.8108" stroke-width="0" transform=" rotate(0, 92, 72)"/>
  <ellipse cx="101.7397" cy="72.2945" fill="#006ca1" rx="4.5" ry="4.5" stroke-width="0" transform=" rotate(0, 101, 72)"/>
  <rect fill="#006ca1" height="9" stroke-width="0" transform=" rotate(0, 108, 67)" width="9" x="103.7559" y="63.3755"/>
  <polygon fill="#006ca1" points="114.4724,71.3937 118.9724,62.3937 123.4724,71.3937" stroke-width="0" transform=" rotate(0, 118, 66)"/>
  <ellipse cx="129.5441" cy="72.6967" fill="#006ca1" rx="4.5" ry="4.5" stroke-width="0" transform=" rotate(0, 129, 72)"/>
  <rect fill="#006ca1" height="9" stroke-width="0" transform=" rotate(0, 138, 71)" width="9" x="134.1064" y="66.5131"/>
  <polygon fill="#006ca1" points="144.7668,70.9411 149.2668,61.9411 153.7668,70.9411" stroke-width="0" transform=" rotate(0, 149, 66)"/>
  <ellipse cx="158.2754" cy="67.8088" fill="#006ca1" rx="4.5" ry="4.5" stroke-width="0" transform=" rotate(0, 158, 67)"/>
  <rect fill="#006ca1" height="9" stroke-width="0" transform=" rotate(0, 166, 69)" width="9" x="162.4699" y="65.0405"/>
  <polygon fill="#006ca1" points="178.191,76.305 182.691,67.305 187.191,76.305" stroke-width="0" transform=" rotate(0, 182, 71)"/>
  <ellipse cx="186.5856" cy="69.1117" fill="#006ca1" rx="4.5" ry="4.5" stroke-width="0" transform=" rotate(0, 186, 69)"/>
  <rect fill="#006ca1" height="9" stroke-width="0" transform=" rotate(0, 201, 70)" width="9" x="196.631" y="65.6038"/>
  <polygon fill="#006ca1" points="202.5762,73.549 207.0762,64.549 211.5762,73.549" stroke-width="0" transform=" rotate(0, 207, 69)"/>
  <ellipse cx="219.5174" cy="68.3751" fill="#006ca1" rx="4.5" ry="4.5" stroke-width="0" transform=" rotate(0, 219, 68)"/>
  <rect fill="#006ca1" height="9" stroke-width="0" transform=" rotate(0, 226, 69)" width="9" x="222.478" y="65.1539"/>
  <polygon fill="#006ca1" points="237.6311,73.2405 242.1311,64.2405 246.6311,73.2405" stroke-width="0" transform=" rotate(0, 242, 68)"/>
  <ellipse cx="250.4216" cy="67.4161" fill="#006ca1" rx="4.5" ry="4.5" stroke-width="0" transform=" rotate(0, 250, 67)"/>
  <rect fill="#006ca1" height="9" stroke-width="0" transform=" rotate(0, 258, 70)" width="9" x="254.3922" y="66.2149"/>
  <polygon fill="#006ca1" points="268.1988,77.3753 272.6988,68.3753 277.1988,77.3753" stroke-width="0" transform=" rotate(0, 272, 72)"/>
  <ellipse cx="279.1207" cy="72.9355" fill="#006ca1" rx="4.5" ry="4.5" stroke-width="0" transform=" rotate(0, 279, 72)"/>
  <rect fill="#6dd6ff" height="5" stroke-width="0" transform=" rotate(0, 48, 81)" width="5" x="46.2194" y="78.6178"/>
  <polygon fill="#6dd6ff" points="57.4013,82.6479 59.9013,77.6479 62.4013,82.6479" stroke-width="0" transform=" rotate(0, 59, 80)"/>
  <ellipse cx="70.5623" cy="80.4261" fill="#6dd6ff" rx="2.5" ry="2.5" stroke-width="0" transform=" rotate(0, 70, 80)"/>
  <rect fill="#6dd6ff" height="5" stroke-width="0" transform=" rotate(0, 78, 79)" width="5" x="76.1681" y="77.4858"/>
  <polygon fill="#6dd6ff" points="87.028,83.9965 89.528,78.9965 92.028,83.9965" stroke-width="0" transform=" rotate(0, 89, 81)"/>
  <ellipse cx="98.7028" cy="78.034" fill="#6dd6ff" rx="2.5" ry="2.5" stroke-width="0" transform=" rotate(0, 98, 78)"/>
  <rect fill="#6dd6ff" height="5" stroke-width="0" transform=" rotate(0, 108, 80)" width="5" x="106.1322" y="77.7006"/>
  <polygon fill="#6dd6ff" points="117.9376,84.2431 120.4376,79.2431 122.9376,84.2431" stroke-width="0" transform=" rotate(0, 120, 81)"/>
  <ellipse cx="130.7802" cy="80.9328" fill="#6dd6ff" rx="2.5" ry="2.5" stroke-width="0" transform=" rotate(0, 130, 80)"/>
  <rect fill="#6dd6ff" height="5" stroke-width="0" transform=" rotate(0, 138, 78)" width="5" x="135.5154" y="76.0714"/>
  <polygon fill="#6dd6ff" points="146.4776,81.4254 148.9776,76.4254 151.4776,81.4254" stroke-width="0" transform=" rotate(0, 148, 78)"/>
  <ellipse cx="158.4004" cy="79.6091" fill="#6dd6ff" rx="2.5" ry="2.5" stroke-width="0" transform=" rotate(0, 158, 79)"/>
  <rect fill="#6dd6ff" height="5" stroke-width="0" transform=" rotate(0, 171, 78)" width="5" x="168.6127" y="76.0697"/>
  <polygon fill="#6dd6ff" points="179.449,82.276 181.949,77.276 184.449,82.276" stroke-width="0" transform=" rotate(0, 181, 79)"/>
  <ellipse cx="188.5299" cy="81.0354" fill="#6dd6ff" rx="2.5" ry="2.5" stroke-width="0" transform=" rotate(0, 188, 81)"/>
  <rect fill="#6dd6ff" height="5" stroke-width="0" transform=" rotate(0, 200, 81)" width="5" x="198.0583" y="79.0136"/>
  <polygon fill="#6dd6ff" points="208.672,80.5316 211.172,75.5316 213.672,80.5316" stroke-width="0" transform=" rotate(0, 211, 78)"/>
  <ellipse cx="218.353" cy="80.113" fill="#6dd6ff" rx="2.5" ry="2.5" stroke-width="0" transform=" rotate(0, 218, 80)"/>
  <rect fill="#6dd6ff" height="5" stroke-width="0" transform=" rotate(0, 229, 81)" width="5" x="226.8919" y="78.8299"/>
  <polygon fill="#6dd6ff" points="236.9384,80.4807 239.4384,75.4807 241.9384,80.4807" stroke-width="0" transform=" rotate(0, 239, 77)"/>
  <ellipse cx="248.5016" cy="81.7396" fill="#6dd6ff" rx="2.5" ry="2.5" stroke-width="0" transform=" rotate(0, 248, 81)"/>
  <rect fill="#6dd6ff" height="5" stroke-width="0" transform=" rotate(0, 258, 81)" width="5" x="255.6994" y="78.7918"/>
  <polygon fill="#6dd6ff" points="266.2485,82.5352 268.7485,77.5352 271.2485,82.5352" stroke-width="0" transform=" rotate(0, 268, 80)"/>
  <ellipse cx="279.4413" cy="79.5933" fill="#6dd6ff" rx="2.5" ry="2.5" stroke-width="0" transform=" rotate(0, 279, 79)"/>
  <rect fill="#1b9fd8" height="7" stroke-width="0" transform=" rotate(0, 49, 87)" width="7" x="45.8186" y="84.336"/>
  <polygon fill="#1b9fd8" points="54.8969,96.2304 58.3969,89.2304 61.8969,96.2304" stroke-width="0" transform=" rotate(0, 58, 92)"/>
  <ellipse cx="71.0727" cy="89.0867" fill="#1b9fd8" rx="3.5" ry="3.5" stroke-width="0" transform=" rotate(0, 71, 89)"/>
  <rect fill="#1b9fd8" height="7" stroke-width="0" transform=" rotate(0, 79, 89)" width="7" x="75.6732" y="86.2378"/>
  <polygon fill="#1b9fd8" points="89.0944,93.7435 92.5944,86.7435 96.0944,93.7435" stroke-width="0" transform=" rotate(0, 92, 90)"/>
  <ellipse cx="100.432" cy="89.9433" fill="#1b9fd8" rx="3.5" ry="3.5" stroke-width="0" transform=" rotate(0, 100, 89)"/>
  <rect fill="#1b9fd8" height="7" stroke-width="0" transform=" rotate(0, 112, 92)" width="7" x="108.5964" y="89.1054"/>
  <polygon fill="#1b9fd8" points="114.3918,90.9239 117.8918,83.9239 121.3918,90.9239" stroke-width="0" transform=" rotate(0, 117, 87)"/>
  <ellipse cx="129.2118" cy="88.4269" fill="#1b9fd8" rx="3.5" ry="3.5" stroke-width="0" transform=" rotate(0, 129, 88)"/>
  <rect fill="#1b9fd8" height="7" stroke-width="0" transform=" rotate(0, 142, 92)" width="7" x="138.7311" y="88.8766"/>
  <polygon fill="#1b9fd8" points="145.7354,93.0981 149.2354,86.0981 152.7354,93.0981" stroke-width="0" transform=" rotate(0, 149, 89)"/>
  <ellipse cx="157.7703" cy="91.841" fill="#1b9fd8" rx="3.5" ry="3.5" stroke-width="0" transform=" rotate(0, 157, 91)"/>
  <rect fill="#1b9fd8" height="7" stroke-width="0" transform=" rotate(0, 169, 89)" width="7" x="165.7207" y="85.7073"/>
  <polygon fill="#1b9fd8" points="177.3134,94.9904 180.8134,87.9904 184.3134,94.9904" stroke-width="0" transform=" rotate(0, 180, 91)"/>
  <ellipse cx="189.3584" cy="89.6169" fill="#1b9fd8" rx="3.5" ry="3.5" stroke-width="0" transform=" rotate(0, 189, 89)"/>
  <rect fill="#1b9fd8" height="7" stroke-width="0" transform=" rotate(0, 202, 88)" width="7" x="198.9162" y="84.9152"/>
  <polygon fill="#1b9fd8" points="204.7706,96.0063 208.2706,89.0063 211.7706,96.0063" stroke-width="0" transform=" rotate(0, 208, 92)"/>
  <ellipse cx="218.5308" cy="87.8811" fill="#1b9fd8" rx="3.5" ry="3.5" stroke-width="0" transform=" rotate(0, 218, 87)"/>
  <rect fill="#1b9fd8" height="7" stroke-width="0" transform=" rotate(0, 232, 87)" width="7" x="229.1102" y="84.4424"/>
  <polygon fill="#1b9fd8" points="235.1673,93.5832 238.6673,86.5832 242.1673,93.5832" stroke-width="0" transform=" rotate(0, 238, 90)"/>
  <ellipse cx="251.7271" cy="88.7481" fill="#1b9fd8" rx="3.5" ry="3.5" stroke-width="0" transform=" rotate(0, 251, 88)"/>
  <rect fill="#1b9fd8" height="7" stroke-width="0" transform=" rotate(0, 257, 89)" width="7" x="254.1859" y="86.2293"/>
  <polygon fill="#1b9fd8" points="264.2711,93.7855 267.7711,86.7855 271.2711,93.7855" stroke-width="0" transform=" rotate(0, 267, 90)"/>
  <ellipse cx="278.844" cy="89.6763" fill="#1b9fd8" rx="3.5" ry="3.5" stroke-width="0" transform=" rotate(0, 278, 89)"/>
  <rect fill="#006ca1" height="9" stroke-width="0" transform=" rotate(0, 52, 102)" width="9" x="48.1776" y="98.4699"/>
  <polygon fill="#006ca1" points="58.3462,103.9374 62.8462,94.9374 67.3462,103.9374" stroke-width="0" transform=" rotate(0, 62, 99)"/>
  <ellipse cx="72.6452" cy="100.2793" fill="#006ca1" rx="4.5" ry="4.5" stroke-width="0" transform=" rotate(0, 72, 100)"/>
  <rect fill="#006ca1" height="9" stroke-width="0" transform=" rotate(0, 82, 96)" width="9" x="78.3111" y="92.1538"/>
  <polygon fill="#006ca1" points="82.4671,102.1635 86.9671,93.1635 91.4671,102.1635" stroke-width="0" transform=" rotate(0, 86, 97)"/>
  <ellipse cx="99.054" cy="101.336" fill="#006ca1" rx="4.5" ry="4.5" stroke-width="0" transform=" rotate(0, 99, 101)"/>
  <rect fill="#006ca1" height="9" stroke-width="0" transform=" rotate(0, 111, 103)" width="9" x="106.7599" y="98.6529"/>
  <polygon fill="#006ca1" points="117.4318,102.0511 121.9318,93.0511 126.4318,102.0511" stroke-width="0" transform=" rotate(0, 121, 97)"/>
  <ellipse cx="131.8122" cy="100.9449" fill="#006ca1" rx="4.5" ry="4.5" stroke-width="0" transform=" rotate(0, 131, 100)"/>
  <rect fill="#006ca1" height="9" stroke-width="0" transform=" rotate(0, 139, 97)" width="9" x="135.1139" y="93.4075"/>
  <polygon fill="#006ca1" points="147.19,107.4831 151.69,98.4831 156.19,107.4831" stroke-width="0" transform=" rotate(0, 151, 102)"/>
  <ellipse cx="161.6985" cy="100.4514" fill="#006ca1" rx="4.5" ry="4.5" stroke-width="0" transform=" rotate(0, 161, 100)"/>
  <rect fill="#006ca1" height="9" stroke-width="0" transform=" rotate(0, 173, 102)" width="9" x="168.5365" y="98.1346"/>
  <polygon fill="#006ca1" points="172.063,105.1428 176.563,96.1428 181.063,105.1428" stroke-width="0" transform=" rotate(0, 176, 100)"/>
  <ellipse cx="191.9183" cy="101.3225" fill="#006ca1" rx="4.5" ry="4.5" stroke-width="0" transform=" rotate(0, 191, 101)"/>
  <rect fill="#006ca1" height="9" stroke-width="0" transform=" rotate(0, 201, 98)" width="9" x="197.0592" y="93.8586"/>
  <polygon fill="#006ca1" points="206.492,102.1848 210.992,93.1848 215.492,102.1848" stroke-width="0" transform=" rotate(0, 210, 97)"/>
  <ellipse cx="220.6468" cy="98.7098" fill="#006ca1" rx="4.5" ry="4.5" stroke-width="0" transform=" rotate(0, 220, 98)"/>
  <rect fill="#006ca1" height="9" stroke-width="0" transform=" rotate(0, 227, 102)" width="9" x="223.44" y="97.9647"/>
  <polygon fill="#006ca1" points="237.7571,102.3225 242.2571,93.3225 246.7571,102.3225" stroke-width="0" transform=" rotate(0, 242, 97)"/>
  <ellipse cx="251.7507" cy="100.5714" fill="#006ca1" rx="4.5" ry="4.5" stroke-width="0" transform=" rotate(0, 251, 100)"/>
  <rect fill="#006ca1" height="9" stroke-width="0" transform=" rotate(0, 257, 99)" width="9" x="253.1926" y="94.809"/>
  <polygon fill="#006ca1" points="262.6246,105.2707 267.1246,96.2707 271.6246,105.2707" stroke-width="0" transform=" rotate(0, 267, 100)"/>
  <ellipse cx="282.9639" cy="97.75" fill="#006ca1" rx="4.5" ry="4.5" stroke-width="0" transform=" rotate(0, 282, 97)"/>
  <rect fill="#6dd6ff" height="5" stroke-width="0" transform=" rotate(0, 48, 111)" width="5" x="46.3724" y="108.7482"/>
  <polygon fill="#6dd6ff" points="55.8306,111.7705 58.3306,106.7705 60.8306,111.7705" stroke-width="0" transform=" rotate(0, 58, 109)"/>
  <ellipse cx="68.0059" cy="110.9852" fill="#6dd6ff" rx="2.5" ry="2.5" stroke-width="0" transform=" rotate(0, 68, 110)"/>
  <rect fill="#6dd6ff" height="5" stroke-width="0" transform=" rotate(0, 80, 110)" width="5" x="78.0694" y="107.7924"/>
  <polygon fill="#6dd6ff" points="85.6794,112.0585 88.1794,107.0585 90.6794,112.0585" stroke-width="0" transform=" rotate(0, 88, 109)"/>
  <ellipse cx="98.7538" cy="111.4811" fill="#6dd6ff" rx="2.5" ry="2.5" stroke-width="0" transform=" rotate(0, 98, 111)"/>
  <rect fill="#6dd6ff" height="5" stroke-width="0" transform=" rotate(0, 110, 110)" width="5" x="108.3887" y="108.4895"/>
  <polygon fill="#6dd6ff" points="118.1519,112.525 120.6519,107.525 123.1519,112.525" stroke-width="0" transform=" rotate(0, 120, 110)"/>
  <ellipse cx="130.6183" cy="108.9894" fill="#6dd6ff" rx="2.5" ry="2.5" stroke-width="0" transform=" rotate(0, 130, 108)"/>
  <rect fill="#6dd6ff" height="5" stroke-width="0" transform=" rotate(0, 141, 108)" width="5" x="139.2833" y="105.7019"/>
  <polygon fill="#6dd6ff" points="148.036,113.2008 150.536,108.2008 153.036,113.2008" stroke-width="0" transform=" rotate(0, 150, 110)"/>
  <ellipse cx="160.8063" cy="109.8643" fill="#6dd6ff" rx="2.5" ry="2.5" stroke-width="0" transform=" rotate(0, 160, 109)"/>
  <rect fill="#6dd6ff" height="5" stroke-width="0" transform=" rotate(0, 169, 110)" width="5" x="167.1275" y="107.5199"/>
  <polygon fill="#6dd6ff" points="178.5892,114.3918 181.0892,109.3918 183.5892,114.3918" stroke-width="0" transform=" rotate(0, 181, 111)"/>
  <ellipse cx="189.1939" cy="110.7012" fill="#6dd6ff" rx="2.5" ry="2.5" stroke-width="0" transform=" rotate(0, 189, 110)"/>
  <rect fill="#6dd6ff" height="5" stroke-width="0" transform=" rotate(0, 201, 108)" width="5" x="199.258" y="106.2806"/>
  <polygon fill="#6dd6ff" points="207.5255,114.1459 210.0255,109.1459 212.5255,114.1459" stroke-width="0" transform=" rotate(0, 210, 111)"/>
  <ellipse cx="219.2087" cy="110.0786" fill="#6dd6ff" rx="2.5" ry="2.5" stroke-width="0" transform=" rotate(0, 219, 110)"/>
  <rect fill="#6dd6ff" height="5" stroke-width="0" transform=" rotate(0, 231, 111)" width="5" x="229.1273" y="108.591"/>
  <polygon fill="#6dd6ff" points="239.2101,110.5361 241.7101,105.5361 244.2101,110.5361" stroke-width="0" transform=" rotate(0, 241, 108)"/>
  <ellipse cx="251.5924" cy="109.4976" fill="#6dd6ff" rx="2.5" ry="2.5" stroke-width="0" transform=" rotate(0, 251, 109)"/>
  <rect fill="#6dd6ff" height="5" stroke-width="0" transform=" rotate(0, 258, 108)" width="5" x="256.0968" y="106.0141"/>
  <polygon fill="#6dd6ff" points="267.1246,111.699 269.6246,106.699 272.1246,111.699" stroke-width="0" transform=" rotate(0, 269, 109)"/>
  <ellipse cx="280.9712" cy="109.7377" fill="#6dd6ff" rx="2.5" ry="2.5" stroke-width="0" transform=" rotate(0, 280, 109)"/>
  <rect fill="#1b9fd8" height="7" stroke-width="0" transform=" rotate(0, 50, 122)" width="7" x="47.2642" y="118.8083"/>
  <polygon fill="#1b9fd8" points="56.4206,125.523 59.9206,118.523 63.4206,125.523" stroke-width="0" transform=" rotate(0, 59, 122)"/>
  <ellipse cx="72.1939" cy="119.6814" fill="#1b9fd8" rx="3.5" ry="3.5" stroke-width="0" transform=" rotate(0, 72, 119)"/>
  <rect fill="#1b9fd8" height="7" stroke-width="0" transform=" rotate(0, 78, 118)" width="7" x="74.7891" y="114.5054"/>
  <polygon fill="#1b9fd8" points="85.7683,125.5919 89.2683,118.5919 92.7683,125.5919" stroke-width="0" transform=" rotate(0, 89, 122)"/>
  <ellipse cx="101.9125" cy="119.6446" fill="#1b9fd8" rx="3.5" ry="3.5" stroke-width="0" transform=" rotate(0, 101, 119)"/>
  <rect fill="#1b9fd8" height="7" stroke-width="0" transform=" rotate(0, 111, 122)" width="7" x="107.5394" y="118.7695"/>
  <polygon fill="#1b9fd8" points="119.1021,122.902 122.6021,115.902 126.1021,122.902" stroke-width="0" transform=" rotate(0, 122, 119)"/>
  <ellipse cx="130.5527" cy="117.66" fill="#1b9fd8" rx="3.5" ry="3.5" stroke-width="0" transform=" rotate(0, 130, 117)"/>
  <rect fill="#1b9fd8" height="7" stroke-width="0" transform=" rotate(0, 140, 119)" width="7" x="136.9276" y="115.9201"/>
  <polygon fill="#1b9fd8" points="146.2836,123.6232 149.7836,116.6232 153.2836,123.6232" stroke-width="0" transform=" rotate(0, 149, 120)"/>
  <ellipse cx="161.4611" cy="122.3023" fill="#1b9fd8" rx="3.5" ry="3.5" stroke-width="0" transform=" rotate(0, 161, 122)"/>
  <rect fill="#1b9fd8" height="7" stroke-width="0" transform=" rotate(0, 167, 120)" width="7" x="163.7554" y="117.3352"/>
  <polygon fill="#1b9fd8" points="174.7334,120.8842 178.2334,113.8842 181.7334,120.8842" stroke-width="0" transform=" rotate(0, 178, 117)"/>
  <ellipse cx="188.462" cy="122.6458" fill="#1b9fd8" rx="3.5" ry="3.5" stroke-width="0" transform=" rotate(0, 188, 122)"/>
  <rect fill="#1b9fd8" height="7" stroke-width="0" transform=" rotate(0, 200, 119)" width="7" x="196.5877" y="116.2148"/>
  <polygon fill="#1b9fd8" points="209.1514,121.4718 212.6514,114.4718 216.1514,121.4718" stroke-width="0" transform=" rotate(0, 212, 117)"/>
  <ellipse cx="219.2515" cy="119.0899" fill="#1b9fd8" rx="3.5" ry="3.5" stroke-width="0" transform=" rotate(0, 219, 119)"/>
  <rect fill="#1b9fd8" height="7" stroke-width="0" transform=" rotate(0, 231, 121)" width="7" x="227.8571" y="118.116"/>
  <polygon fill="#1b9fd8" points="236.882,125.7653 240.382,118.7653 243.882,125.7653" stroke-width="0" transform=" rotate(0, 240, 122)"/>
  <ellipse cx="252.489" cy="119.6557" fill="#1b9fd8" rx="3.5" ry="3.5" stroke-width="0" transform=" rotate(0, 252, 119)"/>
  <rect fill="#1b9fd8" height="7" stroke-width="0" transform=" rotate(0, 261, 118)" width="7" x="257.7202" y="115.2916"/>
  <polygon fill="#1b9fd8" points="269.0195,125.8935 272.5195,118.8935 276.0195,125.8935" stroke-width="0" transform=" rotate(0, 272, 122)"/>
  <ellipse cx="282.5809" cy="119.3001" fill="#1b9fd8" rx="3.5" ry="3.5" stroke-width="0" transform=" rotate(0, 282, 119)"/>
  <rect fill="#006ca1" height="9" stroke-width="0" transform=" rotate(0, 49, 131)" width="9" x="44.645" y="126.5902"/>
  <polygon fill="#006ca1" points="57.0496,136.4792 61.5496,127.4792 66.0496,136.4792" stroke-width="0" transform=" rotate(0, 61, 131)"/>
  <ellipse cx="70.1254" cy="132.4618" fill="#006ca1" rx="4.5" ry="4.5" stroke-width="0" transform=" rotate(0, 70, 132)"/>
  <rect fill="#006ca1" height="9" stroke-width="0" transform=" rotate(0, 80, 132)" width="9" x="75.7635" y="128.0464"/>
  <polygon fill="#006ca1" points="88.9752,132.2565 93.4752,123.2565 97.9752,132.2565" stroke-width="0" transform=" rotate(0, 93, 127)"/>
  <ellipse cx="100.4516" cy="128.1698" fill="#006ca1" rx="4.5" ry="4.5" stroke-width="0" transform=" rotate(0, 100, 128)"/>
  <rect fill="#006ca1" height="9" stroke-width="0" transform=" rotate(0, 111, 130)" width="9" x="107.4499" y="125.8632"/>
  <polygon fill="#006ca1" points="115.3163,135.7156 119.8163,126.7156 124.3163,135.7156" stroke-width="0" transform=" rotate(0, 119, 131)"/>
  <ellipse cx="130.5807" cy="130.1171" fill="#006ca1" rx="4.5" ry="4.5" stroke-width="0" transform=" rotate(0, 130, 130)"/>
  <rect fill="#006ca1" height="9" stroke-width="0" transform=" rotate(0, 138, 131)" width="9" x="134.4195" y="127.1028"/>
  <polygon fill="#006ca1" points="145.4125,135.3805 149.9125,126.3805 154.4125,135.3805" stroke-width="0" transform=" rotate(0, 149, 130)"/>
  <ellipse cx="157.887" cy="130.9164" fill="#006ca1" rx="4.5" ry="4.5" stroke-width="0" transform=" rotate(0, 157, 130)"/>
  <rect fill="#006ca1" height="9" stroke-width="0" transform=" rotate(0, 169, 131)" width="9" x="164.8254" y="126.5261"/>
  <polygon fill="#006ca1" points="177.2012,134.0315 181.7012,125.0315 186.2012,134.0315" stroke-width="0" transform=" rotate(0, 181, 129)"/>
  <ellipse cx="191.9655" cy="131.2347" fill="#006ca1" rx="4.5" ry="4.5" stroke-width="0" transform=" rotate(0, 191, 131)"/>
  <rect fill="#006ca1" height="9" stroke-width="0" transform=" rotate(0, 197, 133)" width="9" x="193.0547" y="129.0435"/>
  <polygon fill="#006ca1" points="204.1414,134.2717 208.6414,125.2717 213.1414,134.2717" stroke-width="0" transform=" rotate(0, 208, 129)"/>
  <ellipse cx="221.0584" cy="131.9012" fill="#006ca1" rx="4.5" ry="4.5" stroke-width="0" transform=" rotate(0, 221, 131)"/>
  <rect fill="#006ca1" height="9" stroke-width="0" transform=" rotate(0, 233, 132)" width="9" x="228.6879" y="128.1559"/>
  <polygon fill="#006ca1" points="233.4019,133.7487 237.9019,124.7487 242.4019,133.7487" stroke-width="0" transform=" rotate(0, 237, 129)"/>
  <ellipse cx="252.7418" cy="127.2508" fill="#006ca1" rx="4.5" ry="4.5" stroke-width="0" transform=" rotate(0, 252, 127)"/>
  <rect fill="#006ca1" height="9" stroke-width="0" transform=" rotate(0, 258, 130)" width="9" x="254.1377" y="125.9865"/>
  <polygon fill="#006ca1" points="266.2246,131.0275 270.7246,122.0275 275.2246,131.0275" stroke-width="0" transform=" rotate(0, 270, 126)"/>
  <ellipse cx="277.4291" cy="132.5345" fill="#006ca1" rx="4.5" ry="4.5" stroke-width="0" transform=" rotate(0, 277, 132)"/>
  <rect fill="#6dd6ff" height="5" stroke-width="0" transform=" rotate(0, 48, 141)" width="5" x="45.9964" y="138.9209"/>
  <polygon fill="#6dd6ff" points="57.6943,143.0434 60.1943,138.0434 62.6943,143.0434" stroke-width="0" transform=" rotate(0, 60, 140)"/>
  <ellipse cx="71.2281" cy="140.0393" fill="#6dd6ff" rx="2.5" ry="2.5" stroke-width="0" transform=" rotate(0, 71, 140)"/>
  <rect fill="#6dd6ff" height="5" stroke-width="0" transform=" rotate(0, 80, 141)" width="5" x="77.7092" y="139.0875"/>
  <polygon fill="#6dd6ff" points="86.4089,141.1028 88.9089,136.1028 91.4089,141.1028" stroke-width="0" transform=" rotate(0, 88, 138)"/>
  <ellipse cx="99.2663" cy="141.181" fill="#6dd6ff" rx="2.5" ry="2.5" stroke-width="0" transform=" rotate(0, 99, 141)"/>
  <rect fill="#6dd6ff" height="5" stroke-width="0" transform=" rotate(0, 108, 141)" width="5" x="106.4514" y="138.9451"/>
  <polygon fill="#6dd6ff" points="117.0974,142.5545 119.5974,137.5545 122.0974,142.5545" stroke-width="0" transform=" rotate(0, 119, 140)"/>
  <ellipse cx="131.6571" cy="141.9224" fill="#6dd6ff" rx="2.5" ry="2.5" stroke-width="0" transform=" rotate(0, 131, 141)"/>
  <rect fill="#6dd6ff" height="5" stroke-width="0" transform=" rotate(0, 139, 141)" width="5" x="137.062" y="138.9893"/>
  <polygon fill="#6dd6ff" points="147.9256,142.9789 150.4256,137.9789 152.9256,142.9789" stroke-width="0" transform=" rotate(0, 150, 140)"/>
  <ellipse cx="159.7187" cy="139.6051" fill="#6dd6ff" rx="2.5" ry="2.5" stroke-width="0" transform=" rotate(0, 159, 139)"/>
  <rect fill="#6dd6ff" height="5" stroke-width="0" transform=" rotate(0, 169, 138)" width="5" x="166.7115" y="136.2586"/>
  <polygon fill="#6dd6ff" points="175.4712,140.9399 177.9712,135.9399 180.4712,140.9399" stroke-width="0" transform=" rotate(0, 177, 138)"/>
  <ellipse cx="189.5932" cy="141.3" fill="#6dd6ff" rx="2.5" ry="2.5" stroke-width="0" transform=" rotate(0, 189, 141)"/>
  <rect fill="#6dd6ff" height="5" stroke-width="0" transform=" rotate(0, 201, 141)" width="5" x="198.6595" y="139.0068"/>
  <polygon fill="#6dd6ff" points="205.6741,140.5246 208.1741,135.5246 210.6741,140.5246" stroke-width="0" transform=" rotate(0, 208, 138)"/>
  <ellipse cx="221.6679" cy="141.7048" fill="#6dd6ff" rx="2.5" ry="2.5" stroke-width="0" transform=" rotate(0, 221, 141)"/>
  <rect fill="#6dd6ff" height="5" stroke-width="0" transform=" rotate(0, 229, 139)" width="5" x="227.2841" y="136.7605"/>
  <polygon fill="#6dd6ff" points="238.0432,142.6146 240.5432,137.6146 243.0432,142.6146" stroke-width="0" transform=" rotate(0, 240, 140)"/>
  <ellipse cx="250.2192" cy="138.5232" fill="#6dd6ff" rx="2.5" ry="2.5" stroke-width="0" transform=" rotate(0, 250, 138)"/>
  <rect fill="#6dd6ff" height="5" stroke-width="0" transform=" rotate(0, 259, 139)" width="5" x="257.2196" y="136.7151"/>
  <polygon fill="#6dd6ff" points="268.9409,144.3111 271.4409,139.3111 273.9409,144.3111" stroke-width="0" transform=" rotate(0, 271, 141)"/>
  <ellipse cx="278.1589" cy="140.7707" fill="#6dd6ff" rx="2.5" ry="2.5" stroke-width="0" transform=" rotate(0, 278, 140)"/>
  <rect fill="#1b9fd8" height="7" stroke-width="0" transform=" rotate(0, 52, 150)" width="7" x="49.1584" y="146.9325"/>
  <polygon fill="#1b9fd8" points="56.2578,152.325 59.7578,145.325 63.2578,152.325" stroke-width="0" transform=" rotate(0, 59, 148)"/>
  <ellipse cx="69.3126" cy="149.5169" fill="#1b9fd8" rx="3.5" ry="3.5" stroke-width="0" transform=" rotate(0, 69, 149)"/>
  <rect fill="#1b9fd8" height="7" stroke-width="0" transform=" rotate(0, 78, 150)" width="7" x="75.0556" y="146.9468"/>
  <polygon fill="#1b9fd8" points="88.5284,155.2393 92.0284,148.2393 95.5284,155.2393" stroke-width="0" transform=" rotate(0, 92, 151)"/>
  <ellipse cx="98.3735" cy="150.3811" fill="#1b9fd8" rx="3.5" ry="3.5" stroke-width="0" transform=" rotate(0, 98, 150)"/>
  <rect fill="#1b9fd8" height="7" stroke-width="0" transform=" rotate(0, 110, 150)" width="7" x="106.8179" y="147.1667"/>
  <polygon fill="#1b9fd8" points="118.0086,152.6932 121.5086,145.6932 125.0086,152.6932" stroke-width="0" transform=" rotate(0, 121, 149)"/>
  <ellipse cx="131.7598" cy="148.5723" fill="#1b9fd8" rx="3.5" ry="3.5" stroke-width="0" transform=" rotate(0, 131, 148)"/>
  <rect fill="#1b9fd8" height="7" stroke-width="0" transform=" rotate(0, 139, 148)" width="7" x="136.0568" y="144.7368"/>
  <polygon fill="#1b9fd8" points="147.6455,154.1266 151.1455,147.1266 154.6455,154.1266" stroke-width="0" transform=" rotate(0, 151, 150)"/>
  <ellipse cx="159.0252" cy="152.7092" fill="#1b9fd8" rx="3.5" ry="3.5" stroke-width="0" transform=" rotate(0, 159, 152)"/>
  <rect fill="#1b9fd8" height="7" stroke-width="0" transform=" rotate(0, 168, 152)" width="7" x="164.9746" y="149.0211"/>
  <polygon fill="#1b9fd8" points="175.5646,151.3861 179.0646,144.3861 182.5646,151.3861" stroke-width="0" transform=" rotate(0, 179, 147)"/>
  <ellipse cx="188.0918" cy="150.6628" fill="#1b9fd8" rx="3.5" ry="3.5" stroke-width="0" transform=" rotate(0, 188, 150)"/>
  <rect fill="#1b9fd8" height="7" stroke-width="0" transform=" rotate(0, 197, 150)" width="7" x="194.4282" y="146.6322"/>
  <polygon fill="#1b9fd8" points="205.8666,152.9659 209.3666,145.9659 212.8666,152.9659" stroke-width="0" transform=" rotate(0, 209, 149)"/>
  <ellipse cx="222.2861" cy="151.7145" fill="#1b9fd8" rx="3.5" ry="3.5" stroke-width="0" transform=" rotate(0, 222, 151)"/>
  <rect fill="#1b9fd8" height="7" stroke-width="0" transform=" rotate(0, 228, 152)" width="7" x="224.6802" y="148.8177"/>
  <polygon fill="#1b9fd8" points="238.2743,154.3076 241.7743,147.3076 245.2743,154.3076" stroke-width="0" transform=" rotate(0, 241, 150)"/>
  <ellipse cx="249.7661" cy="150.2173" fill="#1b9fd8" rx="3.5" ry="3.5" stroke-width="0" transform=" rotate(0, 249, 150)"/>
  <rect fill="#1b9fd8" height="7" stroke-width="0" transform=" rotate(0, 258, 147)" width="7" x="254.9905" y="143.7413"/>
  <polygon fill="#1b9fd8" points="267.4654,155.728 270.9654,148.728 274.4654,155.728" stroke-width="0" transform=" rotate(0, 270, 152)"/>
  <ellipse cx="282.1165" cy="149.9465" fill="#1b9fd8" rx="3.5" ry="3.5" stroke-width="0" transform=" rotate(0, 282, 149)"/>
  <rect fill="#006ca1" height="9" stroke-width="0" transform=" rotate(0, 50, 158)" width="9" x="46.4203" y="153.7587"/>
  <polygon fill="#006ca1" points="54.4393,165.6483 58.9393,156.6483 63.4393,165.6483" stroke-width="0" transform=" rotate(0, 58, 161)"/>
  <ellipse cx="66.7658" cy="160.347" fill="#006ca1" rx="4.5" ry="4.5" stroke-width="0" transform=" rotate(0, 66, 160)"/>
  <rect fill="#006ca1" height="9" stroke-width="0" transform=" rotate(0, 80, 157)" width="9" x="75.7814" y="153.1931"/>
  <polygon fill="#006ca1" points="82.5725,161.9603 87.0725,152.9603 91.5725,161.9603" stroke-width="0" transform=" rotate(0, 87, 157)"/>
  <ellipse cx="100.6372" cy="162.6515" fill="#006ca1" rx="4.5" ry="4.5" stroke-width="0" transform=" rotate(0, 100, 162)"/>
  <rect fill="#006ca1" height="9" stroke-width="0" transform=" rotate(0, 111, 162)" width="9" x="107.1314" y="158.1507"/>
  <polygon fill="#006ca1" points="114.7893,165.0666 119.2893,156.0666 123.7893,165.0666" stroke-width="0" transform=" rotate(0, 119, 160)"/>
  <ellipse cx="132.1137" cy="160.8351" fill="#006ca1" rx="4.5" ry="4.5" stroke-width="0" transform=" rotate(0, 132, 160)"/>
  <rect fill="#006ca1" height="9" stroke-width="0" transform=" rotate(0, 138, 162)" width="9" x="134.2919" y="157.7977"/>
  <polygon fill="#006ca1" points="142.1473,164.4654 146.6473,155.4654 151.1473,164.4654" stroke-width="0" transform=" rotate(0, 146, 159)"/>
  <ellipse cx="156.5854" cy="159.7566" fill="#006ca1" rx="4.5" ry="4.5" stroke-width="0" transform=" rotate(0, 156, 159)"/>
  <rect fill="#006ca1" height="9" stroke-width="0" transform=" rotate(0, 172, 158)" width="9" x="168.0701" y="153.6422"/>
  <polygon fill="#006ca1" points="176.8826,161.9705 181.3826,152.9705 185.8826,161.9705" stroke-width="0" transform=" rotate(0, 181, 157)"/>
  <ellipse cx="186.546" cy="162.7987" fill="#006ca1" rx="4.5" ry="4.5" stroke-width="0" transform=" rotate(0, 186, 162)"/>
  <rect fill="#006ca1" height="9" stroke-width="0" transform=" rotate(0, 200, 161)" width="9" x="196.3643" y="156.6024"/>
  <polygon fill="#006ca1" points="208.0496,165.6558 212.5496,156.6558 217.0496,165.6558" stroke-width="0" transform=" rotate(0, 212, 161)"/>
  <ellipse cx="217.9841" cy="163.3267" fill="#006ca1" rx="4.5" ry="4.5" stroke-width="0" transform=" rotate(0, 217, 163)"/>
  <rect fill="#006ca1" height="9" stroke-width="0" transform=" rotate(0, 228, 156)" width="9" x="224.2644" y="152.3323"/>
  <polygon fill="#006ca1" points="234.5534,165.404 239.0534,156.404 243.5534,165.404" stroke-width="0" transform=" rotate(0, 239, 160)"/>
  <ellipse cx="247.0473" cy="158.789" fill="#006ca1" rx="4.5" ry="4.5" stroke-width="0" transform=" rotate(0, 247, 158)"/>
  <rect fill="#006ca1" height="9" stroke-width="0" transform=" rotate(0, 263, 160)" width="9" x="258.9174" y="156.0163"/>
  <polygon fill="#006ca1" points="268.9652,167.6306 273.4652,158.6306 277.9652,167.6306" stroke-width="0" transform=" rotate(0, 273, 163)"/>
  <ellipse cx="277.3606" cy="156.8566" fill="#006ca1" rx="4.5" ry="4.5" stroke-width="0" transform=" rotate(0, 277, 156)"/>
  <rect fill="#006ca1" height="9" stroke-width="0" transform=" rotate(0, 49, 172)" width="9" x="44.6219" y="167.6586"/>
  <polygon fill="#006ca1" points="58.8208,174.9251 63.3208,165.9251 67.8208,174.9251" stroke-width="0" transform=" rotate(0, 63, 170)"/>
  <ellipse cx="72.8895" cy="167.6709" fill="#006ca1" rx="4.5" ry="4.5" stroke-width="0" transform=" rotate(0, 72, 167)"/>
  <rect fill="#006ca1" height="9" stroke-width="0" transform=" rotate(0, 77, 169)" width="9" x="72.8491" y="164.6319"/>
  <polygon fill="#006ca1" points="85.2595,174.5857 89.7595,165.5857 94.2595,174.5857" stroke-width="0" transform=" rotate(0, 89, 170)"/>
  <ellipse cx="99.3856" cy="171.7486" fill="#006ca1" rx="4.5" ry="4.5" stroke-width="0" transform=" rotate(0, 99, 171)"/>
  <rect fill="#006ca1" height="9" stroke-width="0" transform=" rotate(0, 110, 166)" width="9" x="106.2735" y="162.472"/>
  <polygon fill="#006ca1" points="115.4001,171.3154 119.9001,162.3154 124.4001,171.3154" stroke-width="0" transform=" rotate(0, 119, 166)"/>
  <ellipse cx="129.0825" cy="166.9745" fill="#006ca1" rx="4.5" ry="4.5" stroke-width="0" transform=" rotate(0, 129, 166)"/>
  <rect fill="#006ca1" height="9" stroke-width="0" transform=" rotate(0, 137, 169)" width="9" x="133.1738" y="164.5859"/>
  <polygon fill="#006ca1" points="147.1391,174.7997 151.6391,165.7997 156.1391,174.7997" stroke-width="0" transform=" rotate(0, 151, 170)"/>
  <ellipse cx="160.7856" cy="172.9022" fill="#006ca1" rx="4.5" ry="4.5" stroke-width="0" transform=" rotate(0, 160, 172)"/>
  <rect fill="#006ca1" height="9" stroke-width="0" transform=" rotate(0, 166, 172)" width="9" x="162.2524" y="168.2249"/>
  <polygon fill="#006ca1" points="176.5549,173.7959 181.0549,164.7959 185.5549,173.7959" stroke-width="0" transform=" rotate(0, 181, 169)"/>
  <ellipse cx="193.0085" cy="172.2568" fill="#006ca1" rx="4.5" ry="4.5" stroke-width="0" transform=" rotate(0, 193, 172)"/>
  <rect fill="#006ca1" height="9" stroke-width="0" transform=" rotate(0, 200, 172)" width="9" x="195.6317" y="168.4072"/>
  <polygon fill="#006ca1" points="204.8125,174.2759 209.3125,165.2759 213.8125,174.2759" stroke-width="0" transform=" rotate(0, 209, 169)"/>
  <ellipse cx="221.7319" cy="167.4326" fill="#006ca1" rx="4.5" ry="4.5" stroke-width="0" transform=" rotate(0, 221, 167)"/>
  <rect fill="#006ca1" height="9" stroke-width="0" transform=" rotate(0, 231, 169)" width="9" x="226.9163" y="165.2299"/>
  <polygon fill="#006ca1" points="233.2144,173.7636 237.7144,164.7636 242.2144,173.7636" stroke-width="0" transform=" rotate(0, 237, 169)"/>
  <ellipse cx="250.9787" cy="169.4232" fill="#006ca1" rx="4.5" ry="4.5" stroke-width="0" transform=" rotate(0, 250, 169)"/>
  <rect fill="#006ca1" height="9" stroke-width="0" transform=" rotate(0, 262, 167)" width="9" x="257.6756" y="162.7345"/>
  <polygon fill="#006ca1" points="268.3861,174.269 272.8861,165.269 277.3861,174.269" stroke-width="0" transform=" rotate(0, 272, 169)"/>
  <ellipse cx="278.3791" cy="170.6425" fill="#006ca1" rx="4.5" ry="4.5" stroke-width="0" transform=" rotate(0, 278, 170)"/>
  <rect fill="#1b9fd8" height="7" stroke-width="0" transform=" rotate(0, 49, 181)" width="7" x="45.6455" y="178.2638"/>
  <polygon fill="#1b9fd8" points="54.377,181.9343 57.877,174.9343 61.377,181.9343" stroke-width="0" transform=" rotate(0, 57, 178)"/>
  <ellipse cx="67.5896" cy="178.311" fill="#1b9fd8" rx="3.5" ry="3.5" stroke-width="0" transform=" rotate(0, 67, 178)"/>
  <rect fill="#1b9fd8" height="7" stroke-width="0" transform=" rotate(0, 77, 181)" width="7" x="74.2362" y="177.9735"/>
  <polygon fill="#1b9fd8" points="88.8834,181.6036 92.3834,174.6036 95.8834,181.6036" stroke-width="0" transform=" rotate(0, 92, 178)"/>
  <ellipse cx="102.6336" cy="179.3519" fill="#1b9fd8" rx="3.5" ry="3.5" stroke-width="0" transform=" rotate(0, 102, 179)"/>
  <rect fill="#1b9fd8" height="7" stroke-width="0" transform=" rotate(0, 110, 180)" width="7" x="106.9097" y="176.9311"/>
  <polygon fill="#1b9fd8" points="116.3854,183.1427 119.8854,176.1427 123.3854,183.1427" stroke-width="0" transform=" rotate(0, 119, 179)"/>
  <ellipse cx="132.3677" cy="182.537" fill="#1b9fd8" rx="3.5" ry="3.5" stroke-width="0" transform=" rotate(0, 132, 182)"/>
  <rect fill="#1b9fd8" height="7" stroke-width="0" transform=" rotate(0, 142, 177)" width="7" x="139.2579" y="174.307"/>
  <polygon fill="#1b9fd8" points="147.7093,181.1236 151.2093,174.1236 154.7093,181.1236" stroke-width="0" transform=" rotate(0, 151, 177)"/>
  <ellipse cx="159.8449" cy="182.339" fill="#1b9fd8" rx="3.5" ry="3.5" stroke-width="0" transform=" rotate(0, 159, 182)"/>
  <rect fill="#1b9fd8" height="7" stroke-width="0" transform=" rotate(0, 171, 180)" width="7" x="168.0599" y="177.0986"/>
  <polygon fill="#1b9fd8" points="176.1227,185.1902 179.6227,178.1902 183.1227,185.1902" stroke-width="0" transform=" rotate(0, 179, 181)"/>
  <ellipse cx="189.4392" cy="177.3037" fill="#1b9fd8" rx="3.5" ry="3.5" stroke-width="0" transform=" rotate(0, 189, 177)"/>
  <rect fill="#1b9fd8" height="7" stroke-width="0" transform=" rotate(0, 200, 177)" width="7" x="196.9284" y="174.1444"/>
  <polygon fill="#1b9fd8" points="208.9188,185.2645 212.4188,178.2645 215.9188,185.2645" stroke-width="0" transform=" rotate(0, 212, 181)"/>
  <ellipse cx="219.8019" cy="178.3143" fill="#1b9fd8" rx="3.5" ry="3.5" stroke-width="0" transform=" rotate(0, 219, 178)"/>
  <rect fill="#1b9fd8" height="7" stroke-width="0" transform=" rotate(0, 230, 181)" width="7" x="226.8681" y="178.2542"/>
  <polygon fill="#1b9fd8" points="235.6518,180.9933 239.1518,173.9933 242.6518,180.9933" stroke-width="0" transform=" rotate(0, 239, 177)"/>
  <ellipse cx="247.8792" cy="181.1103" fill="#1b9fd8" rx="3.5" ry="3.5" stroke-width="0" transform=" rotate(0, 247, 181)"/>
  <rect fill="#1b9fd8" height="7" stroke-width="0" transform=" rotate(0, 261, 177)" width="7" x="258.1495" y="174.2287"/>
  <polygon fill="#1b9fd8" points="266.6428,180.999 270.1428,173.999 273.6428,180.999" stroke-width="0" transform=" rotate(0, 270, 177)"/>
  <ellipse cx="277.7122" cy="180.5949" fill="#1b9fd8" rx="3.5" ry="3.5" stroke-width="0" transform=" rotate(0, 277, 180)"/>
  <rect fill="#6dd6ff" height="5" stroke-width="0" transform=" rotate(0, 49, 189)" width="5" x="47.3356" y="186.8442"/>
  <polygon fill="#6dd6ff" points="59.4438,193.9514 61.9438,188.9514 64.4438,193.9514" stroke-width="0" transform=" rotate(0, 61, 191)"/>
  <ellipse cx="68.7337" cy="191.472" fill="#6dd6ff" rx="2.5" ry="2.5" stroke-width="0" transform=" rotate(0, 68, 191)"/>
  <rect fill="#6dd6ff" height="5" stroke-width="0" transform=" rotate(0, 81, 189)" width="5" x="78.9936" y="187.0597"/>
  <polygon fill="#6dd6ff" points="86.8466,194.0928 89.3466,189.0928 91.8466,194.0928" stroke-width="0" transform=" rotate(0, 89, 191)"/>
  <ellipse cx="98.3412" cy="190.2576" fill="#6dd6ff" rx="2.5" ry="2.5" stroke-width="0" transform=" rotate(0, 98, 190)"/>
  <rect fill="#6dd6ff" height="5" stroke-width="0" transform=" rotate(0, 109, 189)" width="5" x="106.7894" y="187.0931"/>
  <polygon fill="#6dd6ff" points="118.1478,190.7137 120.6478,185.7137 123.1478,190.7137" stroke-width="0" transform=" rotate(0, 120, 188)"/>
  <ellipse cx="131.3405" cy="191.7574" fill="#6dd6ff" rx="2.5" ry="2.5" stroke-width="0" transform=" rotate(0, 131, 191)"/>
  <rect fill="#6dd6ff" height="5" stroke-width="0" transform=" rotate(0, 138, 188)" width="5" x="136.2742" y="186.1416"/>
  <polygon fill="#6dd6ff" points="148.9338,191.3875 151.4338,186.3875 153.9338,191.3875" stroke-width="0" transform=" rotate(0, 151, 188)"/>
  <ellipse cx="159.225" cy="190.9252" fill="#6dd6ff" rx="2.5" ry="2.5" stroke-width="0" transform=" rotate(0, 159, 190)"/>
  <rect fill="#6dd6ff" height="5" stroke-width="0" transform=" rotate(0, 168, 191)" width="5" x="165.9235" y="188.9432"/>
  <polygon fill="#6dd6ff" points="179.1362,191.7729 181.6362,186.7729 184.1362,191.7729" stroke-width="0" transform=" rotate(0, 181, 189)"/>
  <ellipse cx="188.5439" cy="188.8499" fill="#6dd6ff" rx="2.5" ry="2.5" stroke-width="0" transform=" rotate(0, 188, 188)"/>
  <rect fill="#6dd6ff" height="5" stroke-width="0" transform=" rotate(0, 201, 190)" width="5" x="198.5197" y="187.8076"/>
  <polygon fill="#6dd6ff" points="206.1492,193.5908 208.6492,188.5908 211.1492,193.5908" stroke-width="0" transform=" rotate(0, 208, 191)"/>
  <ellipse cx="218.8934" cy="189.5439" fill="#6dd6ff" rx="2.5" ry="2.5" stroke-width="0" transform=" rotate(0, 218, 189)"/>
  <rect fill="#6dd6ff" height="5" stroke-width="0" transform=" rotate(0, 229, 188)" width="5" x="227.0585" y="185.5039"/>
  <polygon fill="#6dd6ff" points="238.0812,193.8744 240.5812,188.8744 243.0812,193.8744" stroke-width="0" transform=" rotate(0, 240, 191)"/>
  <ellipse cx="249.6451" cy="188.4301" fill="#6dd6ff" rx="2.5" ry="2.5" stroke-width="0" transform=" rotate(0, 249, 188)"/>
  <rect fill="#6dd6ff" height="5" stroke-width="0" transform=" rotate(0, 260, 188)" width="5" x="258.2775" y="185.5488"/>
  <polygon fill="#6dd6ff" points="267.7291,193.3549 270.2291,188.3549 272.7291,193.3549" stroke-width="0" transform=" rotate(0, 270, 190)"/>
  <ellipse cx="278.371" cy="189.342" fill="#6dd6ff" rx="2.5" ry="2.5" stroke-width="0" transform=" rotate(0, 278, 189)"/>
  <rect fill="#006ca1" height="9" stroke-width="0" transform=" rotate(0, 48, 197)" width="9" x="43.7985" y="193.0825"/>
  <polygon fill="#006ca1" points="52.2155,203.352 56.7155,194.352 61.2155,203.352" stroke-width="0" transform=" rotate(0, 56, 198)"/>
  <ellipse cx="72.0637" cy="196.9637" fill="#006ca1" rx="4.5" ry="4.5" stroke-width="0" transform=" rotate(0, 72, 196)"/>
  <rect fill="#006ca1" height="9" stroke-width="0" transform=" rotate(0, 79, 203)" width="9" x="75.2908" y="198.854"/>
  <polygon fill="#006ca1" points="85.9154,205.3586 90.4154,196.3586 94.9154,205.3586" stroke-width="0" transform=" rotate(0, 90, 200)"/>
  <ellipse cx="102.5993" cy="196.3776" fill="#006ca1" rx="4.5" ry="4.5" stroke-width="0" transform=" rotate(0, 102, 196)"/>
  <rect fill="#006ca1" height="9" stroke-width="0" transform=" rotate(0, 106, 199)" width="9" x="101.9355" y="195.3861"/>
  <polygon fill="#006ca1" points="114.3264,207.6392 118.8264,198.6392 123.3264,207.6392" stroke-width="0" transform=" rotate(0, 118, 203)"/>
  <ellipse cx="126.6309" cy="197.0249" fill="#006ca1" rx="4.5" ry="4.5" stroke-width="0" transform=" rotate(0, 126, 197)"/>
  <rect fill="#006ca1" height="9" stroke-width="0" transform=" rotate(0, 137, 198)" width="9" x="133.073" y="193.9984"/>
  <polygon fill="#006ca1" points="145.7131,202.2388 150.2131,193.2388 154.7131,202.2388" stroke-width="0" transform=" rotate(0, 150, 197)"/>
  <ellipse cx="159.6643" cy="202.7503" fill="#006ca1" rx="4.5" ry="4.5" stroke-width="0" transform=" rotate(0, 159, 202)"/>
  <rect fill="#006ca1" height="9" stroke-width="0" transform=" rotate(0, 166, 203)" width="9" x="162.1014" y="198.6941"/>
  <polygon fill="#006ca1" points="178.4505,203.2432 182.9505,194.2432 187.4505,203.2432" stroke-width="0" transform=" rotate(0, 182, 198)"/>
  <ellipse cx="193.3846" cy="201.8901" fill="#006ca1" rx="4.5" ry="4.5" stroke-width="0" transform=" rotate(0, 193, 201)"/>
  <rect fill="#006ca1" height="9" stroke-width="0" transform=" rotate(0, 196, 196)" width="9" x="192.0783" y="191.8792"/>
  <polygon fill="#006ca1" points="208.4904,202.7863 212.9904,193.7863 217.4904,202.7863" stroke-width="0" transform=" rotate(0, 212, 198)"/>
  <ellipse cx="220.8633" cy="199.2905" fill="#006ca1" rx="4.5" ry="4.5" stroke-width="0" transform=" rotate(0, 220, 199)"/>
  <rect fill="#006ca1" height="9" stroke-width="0" transform=" rotate(0, 230, 197)" width="9" x="225.6446" y="193.3656"/>
  <polygon fill="#006ca1" points="232.0037,205.149 236.5037,196.149 241.0037,205.149" stroke-width="0" transform=" rotate(0, 236, 200)"/>
  <ellipse cx="249.1169" cy="197.2018" fill="#006ca1" rx="4.5" ry="4.5" stroke-width="0" transform=" rotate(0, 249, 197)"/>
  <rect fill="#006ca1" height="9" stroke-width="0" transform=" rotate(0, 257, 200)" width="9" x="252.6121" y="196.4251"/>
  <polygon fill="#006ca1" points="266.6908,206.3686 271.1908,197.3686 275.6908,206.3686" stroke-width="0" transform=" rotate(0, 271, 201)"/>
  <ellipse cx="280.9078" cy="198.9628" fill="#006ca1" rx="4.5" ry="4.5" stroke-width="0" transform=" rotate(0, 280, 198)"/>
  <rect fill="#1b9fd8" height="7" stroke-width="0" transform=" rotate(0, 47, 208)" width="7" x="43.9972" y="204.5968"/>
  <polygon fill="#1b9fd8" points="55.3209,213.639 58.8209,206.639 62.3209,213.639" stroke-width="0" transform=" rotate(0, 58, 210)"/>
  <ellipse cx="68.2356" cy="208.6879" fill="#1b9fd8" rx="3.5" ry="3.5" stroke-width="0" transform=" rotate(0, 68, 208)"/>
  <rect fill="#1b9fd8" height="7" stroke-width="0" transform=" rotate(0, 79, 209)" width="7" x="76.0485" y="206.0282"/>
  <polygon fill="#1b9fd8" points="87.5716,215.465 91.0716,208.465 94.5716,215.465" stroke-width="0" transform=" rotate(0, 91, 211)"/>
  <ellipse cx="101.8406" cy="209.7819" fill="#1b9fd8" rx="3.5" ry="3.5" stroke-width="0" transform=" rotate(0, 101, 209)"/>
  <rect fill="#1b9fd8" height="7" stroke-width="0" transform=" rotate(0, 111, 209)" width="7" x="108.4199" y="205.9557"/>
  <polygon fill="#1b9fd8" points="115.1082,211.3447 118.6082,204.3447 122.1082,211.3447" stroke-width="0" transform=" rotate(0, 118, 207)"/>
  <ellipse cx="130.3903" cy="212.1184" fill="#1b9fd8" rx="3.5" ry="3.5" stroke-width="0" transform=" rotate(0, 130, 212)"/>
  <rect fill="#1b9fd8" height="7" stroke-width="0" transform=" rotate(0, 139, 210)" width="7" x="136.0609" y="207.4913"/>
  <polygon fill="#1b9fd8" points="146.6323,215.185 150.1323,208.185 153.6323,215.185" stroke-width="0" transform=" rotate(0, 150, 211)"/>
  <ellipse cx="160.7799" cy="207.9456" fill="#1b9fd8" rx="3.5" ry="3.5" stroke-width="0" transform=" rotate(0, 160, 207)"/>
  <rect fill="#1b9fd8" height="7" stroke-width="0" transform=" rotate(0, 168, 211)" width="7" x="164.5484" y="208.0787"/>
  <polygon fill="#1b9fd8" points="178.988,211.4936 182.488,204.4936 185.988,211.4936" stroke-width="0" transform=" rotate(0, 182, 207)"/>
  <ellipse cx="191.6578" cy="212.649" fill="#1b9fd8" rx="3.5" ry="3.5" stroke-width="0" transform=" rotate(0, 191, 212)"/>
  <rect fill="#1b9fd8" height="7" stroke-width="0" transform=" rotate(0, 198, 209)" width="7" x="195.1642" y="206.0976"/>
  <polygon fill="#1b9fd8" points="205.6183,212.8371 209.1183,205.8371 212.6183,212.8371" stroke-width="0" transform=" rotate(0, 209, 209)"/>
  <ellipse cx="220.9878" cy="211.2258" fill="#1b9fd8" rx="3.5" ry="3.5" stroke-width="0" transform=" rotate(0, 220, 211)"/>
  <rect fill="#1b9fd8" height="7" stroke-width="0" transform=" rotate(0, 232, 210)" width="7" x="229.2542" y="207.3797"/>
  <polygon fill="#1b9fd8" points="234.5625,211.0562 238.0625,204.0562 241.5625,211.0562" stroke-width="0" transform=" rotate(0, 238, 207)"/>
  <ellipse cx="252.6369" cy="208.3278" fill="#1b9fd8" rx="3.5" ry="3.5" stroke-width="0" transform=" rotate(0, 252, 208)"/>
  <rect fill="#1b9fd8" height="7" stroke-width="0" transform=" rotate(0, 262, 210)" width="7" x="258.6112" y="207.4914"/>
  <polygon fill="#1b9fd8" points="264.231,214.1235 267.731,207.1235 271.231,214.1235" stroke-width="0" transform=" rotate(0, 267, 210)"/>
  <ellipse cx="280.0463" cy="209.6562" fill="#1b9fd8" rx="3.5" ry="3.5" stroke-width="0" transform=" rotate(0, 280, 209)"/>
  <rect fill="#6dd6ff" height="5" stroke-width="0" transform=" rotate(0, 50, 220)" width="5" x="48.0352" y="218.1223"/>
  <polygon fill="#6dd6ff" points="59.1802,221.1968 61.6802,216.1968 64.1802,221.1968" stroke-width="0" transform=" rotate(0, 61, 218)"/>
  <ellipse cx="71.0301" cy="219.6892" fill="#6dd6ff" rx="2.5" ry="2.5" stroke-width="0" transform=" rotate(0, 71, 219)"/>
  <rect fill="#6dd6ff" height="5" stroke-width="0" transform=" rotate(0, 80, 220)" width="5" x="77.5562" y="218.399"/>
  <polygon fill="#6dd6ff" points="86.4487,222.4324 88.9487,217.4324 91.4487,222.4324" stroke-width="0" transform=" rotate(0, 88, 219)"/>
  <ellipse cx="100.5527" cy="218.8043" fill="#6dd6ff" rx="2.5" ry="2.5" stroke-width="0" transform=" rotate(0, 100, 218)"/>
  <rect fill="#6dd6ff" height="5" stroke-width="0" transform=" rotate(0, 108, 221)" width="5" x="106.1711" y="219.0518"/>
  <polygon fill="#6dd6ff" points="116.7365,221.249 119.2365,216.249 121.7365,221.249" stroke-width="0" transform=" rotate(0, 119, 218)"/>
  <ellipse cx="129.5648" cy="221.7743" fill="#6dd6ff" rx="2.5" ry="2.5" stroke-width="0" transform=" rotate(0, 129, 221)"/>
  <rect fill="#6dd6ff" height="5" stroke-width="0" transform=" rotate(0, 139, 218)" width="5" x="137.4048" y="216.2784"/>
  <polygon fill="#6dd6ff" points="146.4988,221.1727 148.9988,216.1727 151.4988,221.1727" stroke-width="0" transform=" rotate(0, 148, 218)"/>
  <ellipse cx="159.7642" cy="220.0289" fill="#6dd6ff" rx="2.5" ry="2.5" stroke-width="0" transform=" rotate(0, 159, 220)"/>
  <rect fill="#6dd6ff" height="5" stroke-width="0" transform=" rotate(0, 171, 218)" width="5" x="168.5399" y="216.4703"/>
  <polygon fill="#6dd6ff" points="176.4517,223.875 178.9517,218.875 181.4517,223.875" stroke-width="0" transform=" rotate(0, 178, 221)"/>
  <ellipse cx="191.3176" cy="220.4361" fill="#6dd6ff" rx="2.5" ry="2.5" stroke-width="0" transform=" rotate(0, 191, 220)"/>
  <rect fill="#6dd6ff" height="5" stroke-width="0" transform=" rotate(0, 201, 221)" width="5" x="199.3298" y="218.8029"/>
  <polygon fill="#6dd6ff" points="208.453,221.896 210.953,216.896 213.453,221.896" stroke-width="0" transform=" rotate(0, 210, 219)"/>
  <ellipse cx="219.0405" cy="218.8835" fill="#6dd6ff" rx="2.5" ry="2.5" stroke-width="0" transform=" rotate(0, 219, 218)"/>
  <rect fill="#6dd6ff" height="5" stroke-width="0" transform=" rotate(0, 229, 218)" width="5" x="227.4135" y="215.5509"/>
  <polygon fill="#6dd6ff" points="238.3462,223.5961 240.8462,218.5961 243.3462,223.5961" stroke-width="0" transform=" rotate(0, 240, 221)"/>
  <ellipse cx="248.5795" cy="219.2254" fill="#6dd6ff" rx="2.5" ry="2.5" stroke-width="0" transform=" rotate(0, 248, 219)"/>
  <rect fill="#6dd6ff" height="5" stroke-width="0" transform=" rotate(0, 261, 218)" width="5" x="258.7498" y="215.6009"/>
  <polygon fill="#6dd6ff" points="266.2276,222.4308 268.7276,217.4308 271.2276,222.4308" stroke-width="0" transform=" rotate(0, 268, 219)"/>
  <ellipse cx="278.302" cy="220.7844" fill="#6dd6ff" rx="2.5" ry="2.5" stroke-width="0" transform=" rotate(0, 278, 220)"/>
  <rect fill="#006ca1" height="9" stroke-width="0" transform=" rotate(0, 53, 227)" width="9" x="48.6301" y="222.6417"/>
  <polygon fill="#006ca1" points="56.645,231.9021 61.145,222.9021 65.645,231.9021" stroke-width="0" transform=" rotate(0, 61, 227)"/>
  <ellipse cx="69.1966" cy="231.8756" fill="#006ca1" rx="4.5" ry="4.5" stroke-width="0" transform=" rotate(0, 69, 231)"/>
  <rect fill="#006ca1" height="9" stroke-width="0" transform=" rotate(0, 82, 233)" width="9" x="78.3906" y="228.7384"/>
  <polygon fill="#006ca1" points="87.712,236.8092 92.212,227.8092 96.712,236.8092" stroke-width="0" transform=" rotate(0, 92, 232)"/>
  <ellipse cx="103.337" cy="229.889" fill="#006ca1" rx="4.5" ry="4.5" stroke-width="0" transform=" rotate(0, 103, 229)"/>
  <rect fill="#006ca1" height="9" stroke-width="0" transform=" rotate(0, 110, 226)" width="9" x="106.1475" y="221.9391"/>
  <polygon fill="#006ca1" points="117.4203,235.6536 121.9203,226.6536 126.4203,235.6536" stroke-width="0" transform=" rotate(0, 121, 231)"/>
  <ellipse cx="131.6444" cy="228.2127" fill="#006ca1" rx="4.5" ry="4.5" stroke-width="0" transform=" rotate(0, 131, 228)"/>
  <rect fill="#006ca1" height="9" stroke-width="0" transform=" rotate(0, 136, 232)" width="9" x="132.4318" y="228.4234"/>
  <polygon fill="#006ca1" points="145.4737,232.1888 149.9737,223.1888 154.4737,232.1888" stroke-width="0" transform=" rotate(0, 149, 227)"/>
  <ellipse cx="161.781" cy="230.8322" fill="#006ca1" rx="4.5" ry="4.5" stroke-width="0" transform=" rotate(0, 161, 230)"/>
  <rect fill="#006ca1" height="9" stroke-width="0" transform=" rotate(0, 167, 229)" width="9" x="162.5122" y="225.0133"/>
  <polygon fill="#006ca1" points="178.4853,235.6376 182.9853,226.6376 187.4853,235.6376" stroke-width="0" transform=" rotate(0, 182, 231)"/>
  <ellipse cx="189.3897" cy="232.9387" fill="#006ca1" rx="4.5" ry="4.5" stroke-width="0" transform=" rotate(0, 189, 232)"/>
  <rect fill="#006ca1" height="9" stroke-width="0" transform=" rotate(0, 201, 232)" width="9" x="197.1871" y="228.4802"/>
  <polygon fill="#006ca1" points="203.8263,235.0231 208.3263,226.0231 212.8263,235.0231" stroke-width="0" transform=" rotate(0, 208, 230)"/>
  <ellipse cx="220.7897" cy="228.1704" fill="#006ca1" rx="4.5" ry="4.5" stroke-width="0" transform=" rotate(0, 220, 228)"/>
  <rect fill="#006ca1" height="9" stroke-width="0" transform=" rotate(0, 233, 227)" width="9" x="228.7358" y="223.2292"/>
  <polygon fill="#006ca1" points="235.462,232.318 239.962,223.318 244.462,232.318" stroke-width="0" transform=" rotate(0, 239, 227)"/>
  <ellipse cx="252.1187" cy="229.6266" fill="#006ca1" rx="4.5" ry="4.5" stroke-width="0" transform=" rotate(0, 252, 229)"/>
  <rect fill="#006ca1" height="9" stroke-width="0" transform=" rotate(0, 256, 228)" width="9" x="252.4777" y="223.9303"/>
  <polygon fill="#006ca1" points="268.5571,237.6679 273.0571,228.6679 277.5571,237.6679" stroke-width="0" transform=" rotate(0, 273, 233)"/>
  <ellipse cx="278.7757" cy="230.4881" fill="#006ca1" rx="4.5" ry="4.5" stroke-width="0" transform=" rotate(0, 278, 230)"/>
  <rect fill="#1b9fd8" height="7" stroke-width="0" transform=" rotate(0, 48, 237)" width="7" x="45.0274" y="233.879"/>
  <polygon fill="#1b9fd8" points="54.0207,241.6347 57.5207,234.6347 61.0207,241.6347" stroke-width="0" transform=" rotate(0, 57, 238)"/>
  <ellipse cx="68.5013" cy="240.0576" fill="#1b9fd8" rx="3.5" ry="3.5" stroke-width="0" transform=" rotate(0, 68, 240)"/>
  <rect fill="#1b9fd8" height="7" stroke-width="0" transform=" rotate(0, 77, 237)" width="7" x="74.397" y="234.2105"/>
  <polygon fill="#1b9fd8" points="84.195,243.8763 87.695,236.8763 91.195,243.8763" stroke-width="0" transform=" rotate(0, 87, 240)"/>
  <ellipse cx="97.415" cy="238.5286" fill="#1b9fd8" rx="3.5" ry="3.5" stroke-width="0" transform=" rotate(0, 97, 238)"/>
  <rect fill="#1b9fd8" height="7" stroke-width="0" transform=" rotate(0, 107, 240)" width="7" x="103.706" y="237.1029"/>
  <polygon fill="#1b9fd8" points="116.5377,243.6821 120.0377,236.6821 123.5377,243.6821" stroke-width="0" transform=" rotate(0, 120, 240)"/>
  <ellipse cx="131.7501" cy="240.5359" fill="#1b9fd8" rx="3.5" ry="3.5" stroke-width="0" transform=" rotate(0, 131, 240)"/>
  <rect fill="#1b9fd8" height="7" stroke-width="0" transform=" rotate(0, 141, 237)" width="7" x="138.4595" y="234.3419"/>
  <polygon fill="#1b9fd8" points="145.3032,241.1348 148.8032,234.1348 152.3032,241.1348" stroke-width="0" transform=" rotate(0, 148, 237)"/>
  <ellipse cx="161.5848" cy="241.2104" fill="#1b9fd8" rx="3.5" ry="3.5" stroke-width="0" transform=" rotate(0, 161, 241)"/>
  <rect fill="#1b9fd8" height="7" stroke-width="0" transform=" rotate(0, 170, 238)" width="7" x="166.9609" y="235.2333"/>
  <polygon fill="#1b9fd8" points="174.2564,241.7167 177.7564,234.7167 181.2564,241.7167" stroke-width="0" transform=" rotate(0, 177, 238)"/>
  <ellipse cx="188.7691" cy="238.8041" fill="#1b9fd8" rx="3.5" ry="3.5" stroke-width="0" transform=" rotate(0, 188, 238)"/>
  <rect fill="#1b9fd8" height="7" stroke-width="0" transform=" rotate(0, 201, 237)" width="7" x="197.9431" y="234.2777"/>
  <polygon fill="#1b9fd8" points="204.4195,245.2677 207.9195,238.2677 211.4195,245.2677" stroke-width="0" transform=" rotate(0, 207, 241)"/>
  <ellipse cx="220.4744" cy="237.5214" fill="#1b9fd8" rx="3.5" ry="3.5" stroke-width="0" transform=" rotate(0, 220, 237)"/>
  <rect fill="#1b9fd8" height="7" stroke-width="0" transform=" rotate(0, 227, 241)" width="7" x="224.3598" y="238.1333"/>
  <polygon fill="#1b9fd8" points="235.4544,245.6971 238.9544,238.6971 242.4544,245.6971" stroke-width="0" transform=" rotate(0, 238, 242)"/>
  <ellipse cx="249.9919" cy="239.1293" fill="#1b9fd8" rx="3.5" ry="3.5" stroke-width="0" transform=" rotate(0, 249, 239)"/>
  <rect fill="#1b9fd8" height="7" stroke-width="0" transform=" rotate(0, 257, 237)" width="7" x="254.1597" y="234.2462"/>
  <polygon fill="#1b9fd8" points="269.1666,240.8888 272.6666,233.8888 276.1666,240.8888" stroke-width="0" transform=" rotate(0, 272, 237)"/>
  <ellipse cx="280.8524" cy="241.0597" fill="#1b9fd8" rx="3.5" ry="3.5" stroke-width="0" transform=" rotate(0, 280, 241)"/>
  <rect fill="#6dd6ff" height="5" stroke-width="0" transform=" rotate(0, 48, 250)" width="5" x="46.1928" y="247.7014"/>
  <polygon fill="#6dd6ff" points="55.8247,251.2237 58.3247,246.2237 60.8247,251.2237" stroke-width="0" transform=" rotate(0, 58, 248)"/>
  <ellipse cx="70.1725" cy="251.756" fill="#6dd6ff" rx="2.5" ry="2.5" stroke-width="0" transform=" rotate(0, 70, 251)"/>
  <rect fill="#6dd6ff" height="5" stroke-width="0" transform=" rotate(0, 79, 251)" width="5" x="77.314" y="249.2064"/>
  <polygon fill="#6dd6ff" points="86.7989,252.816 89.2989,247.816 91.7989,252.816" stroke-width="0" transform=" rotate(0, 89, 250)"/>
  <ellipse cx="100.6123" cy="249.1146" fill="#6dd6ff" rx="2.5" ry="2.5" stroke-width="0" transform=" rotate(0, 100, 249)"/>
  <rect fill="#6dd6ff" height="5" stroke-width="0" transform=" rotate(0, 111, 250)" width="5" x="109.1083" y="248.0905"/>
  <polygon fill="#6dd6ff" points="117.0427,254.1371 119.5427,249.1371 122.0427,254.1371" stroke-width="0" transform=" rotate(0, 119, 251)"/>
  <ellipse cx="128.741" cy="251.2782" fill="#6dd6ff" rx="2.5" ry="2.5" stroke-width="0" transform=" rotate(0, 128, 251)"/>
  <rect fill="#6dd6ff" height="5" stroke-width="0" transform=" rotate(0, 140, 251)" width="5" x="138.1473" y="249.0953"/>
  <polygon fill="#6dd6ff" points="146.4188,253.6385 148.9188,248.6385 151.4188,253.6385" stroke-width="0" transform=" rotate(0, 148, 251)"/>
  <ellipse cx="159.0623" cy="250.4758" fill="#6dd6ff" rx="2.5" ry="2.5" stroke-width="0" transform=" rotate(0, 159, 250)"/>
  <rect fill="#6dd6ff" height="5" stroke-width="0" transform=" rotate(0, 170, 251)" width="5" x="167.9717" y="249.4263"/>
  <polygon fill="#6dd6ff" points="179.2941,250.6058 181.7941,245.6058 184.2941,250.6058" stroke-width="0" transform=" rotate(0, 181, 248)"/>
  <ellipse cx="187.9665" cy="249.2322" fill="#6dd6ff" rx="2.5" ry="2.5" stroke-width="0" transform=" rotate(0, 187, 249)"/>
  <rect fill="#6dd6ff" height="5" stroke-width="0" transform=" rotate(0, 201, 249)" width="5" x="198.5001" y="247.1272"/>
  <polygon fill="#6dd6ff" points="209.3092,252.0622 211.8092,247.0622 214.3092,252.0622" stroke-width="0" transform=" rotate(0, 211, 249)"/>
  <ellipse cx="220.4493" cy="249.8457" fill="#6dd6ff" rx="2.5" ry="2.5" stroke-width="0" transform=" rotate(0, 220, 249)"/>
  <rect fill="#6dd6ff" height="5" stroke-width="0" transform=" rotate(0, 231, 250)" width="5" x="228.6816" y="247.8258"/>
  <polygon fill="#6dd6ff" points="237.3301,252.5876 239.8301,247.5876 242.3301,252.5876" stroke-width="0" transform=" rotate(0, 239, 250)"/>
  <ellipse cx="251.3794" cy="250.9377" fill="#6dd6ff" rx="2.5" ry="2.5" stroke-width="0" transform=" rotate(0, 251, 250)"/>
  <rect fill="#6dd6ff" height="5" stroke-width="0" transform=" rotate(0, 260, 248)" width="5" x="258.2658" y="245.728"/>
  <polygon fill="#6dd6ff" points="268.2117,252.1109 270.7117,247.1109 273.2117,252.1109" stroke-width="0" transform=" rotate(0, 270, 249)"/>
  <ellipse cx="278.0823" cy="251.004" fill="#6dd6ff" rx="2.5" ry="2.5" stroke-width="0" transform=" rotate(0, 278, 251)"/>
  <rect fill="#006ca1" height="9" stroke-width="0" transform=" rotate(0, 52, 262)" width="9" x="48.1336" y="258.2479"/>
  <polygon fill="#006ca1" points="53.5428,262.8117 58.0428,253.8117 62.5428,262.8117" stroke-width="0" transform=" rotate(0, 58, 258)"/>
  <ellipse cx="73.5124" cy="260.4056" fill="#006ca1" rx="4.5" ry="4.5" stroke-width="0" transform=" rotate(0, 73, 260)"/>
  <rect fill="#006ca1" height="9" stroke-width="0" transform=" rotate(0, 77, 258)" width="9" x="72.9463" y="253.7081"/>
  <polygon fill="#006ca1" points="87.2469,261.4802 91.7469,252.4802 96.2469,261.4802" stroke-width="0" transform=" rotate(0, 91, 256)"/>
  <ellipse cx="97.2062" cy="261.7348" fill="#006ca1" rx="4.5" ry="4.5" stroke-width="0" transform=" rotate(0, 97, 261)"/>
  <rect fill="#006ca1" height="9" stroke-width="0" transform=" rotate(0, 109, 256)" width="9" x="105.3667" y="252.4807"/>
  <polygon fill="#006ca1" points="113.8765,263.3729 118.3765,254.3729 122.8765,263.3729" stroke-width="0" transform=" rotate(0, 118, 258)"/>
  <ellipse cx="131.7644" cy="257.4497" fill="#006ca1" rx="4.5" ry="4.5" stroke-width="0" transform=" rotate(0, 131, 257)"/>
  <rect fill="#006ca1" height="9" stroke-width="0" transform=" rotate(0, 137, 257)" width="9" x="133.2632" y="252.9738"/>
  <polygon fill="#006ca1" points="142.0728,262.6061 146.5728,253.6061 151.0728,262.6061" stroke-width="0" transform=" rotate(0, 146, 258)"/>
  <ellipse cx="162.3249" cy="263.2338" fill="#006ca1" rx="4.5" ry="4.5" stroke-width="0" transform=" rotate(0, 162, 263)"/>
  <rect fill="#006ca1" height="9" stroke-width="0" transform=" rotate(0, 170, 257)" width="9" x="165.6598" y="253.3894"/>
  <polygon fill="#006ca1" points="178.0647,263.8523 182.5647,254.8523 187.0647,263.8523" stroke-width="0" transform=" rotate(0, 182, 259)"/>
  <ellipse cx="187.5637" cy="261.1693" fill="#006ca1" rx="4.5" ry="4.5" stroke-width="0" transform=" rotate(0, 187, 261)"/>
  <rect fill="#006ca1" height="9" stroke-width="0" transform=" rotate(0, 200, 262)" width="9" x="195.6793" y="258.4966"/>
  <polygon fill="#006ca1" points="208.7229,263.4216 213.2229,254.4216 217.7229,263.4216" stroke-width="0" transform=" rotate(0, 213, 258)"/>
  <ellipse cx="219.7121" cy="259.2748" fill="#006ca1" rx="4.5" ry="4.5" stroke-width="0" transform=" rotate(0, 219, 259)"/>
  <rect fill="#006ca1" height="9" stroke-width="0" transform=" rotate(0, 229, 259)" width="9" x="224.5962" y="255.4321"/>
  <polygon fill="#006ca1" points="233.7864,265.4808 238.2864,256.4808 242.7864,265.4808" stroke-width="0" transform=" rotate(0, 238, 260)"/>
  <ellipse cx="248.7694" cy="257.6649" fill="#006ca1" rx="4.5" ry="4.5" stroke-width="0" transform=" rotate(0, 248, 257)"/>
  <rect fill="#006ca1" height="9" stroke-width="0" transform=" rotate(0, 261, 258)" width="9" x="256.8285" y="253.8372"/>
  <polygon fill="#006ca1" points="262.4471,263.7038 266.9471,254.7038 271.4471,263.7038" stroke-width="0" transform=" rotate(0, 266, 259)"/>
  <ellipse cx="278.6696" cy="259.7066" fill="#006ca1" rx="4.5" ry="4.5" stroke-width="0" transform=" rotate(0, 278, 259)"/>
  <rect fill="#1b9fd8" height="7" stroke-width="0" transform=" rotate(0, 49, 269)" width="7" x="45.8507" y="265.8928"/>
  <polygon fill="#1b9fd8" points="57.5603,276.0161 61.0603,269.0161 64.5603,276.0161" stroke-width="0" transform=" rotate(0, 61, 272)"/>
  <ellipse cx="69.8798" cy="267.2443" fill="#1b9fd8" rx="3.5" ry="3.5" stroke-width="0" transform=" rotate(0, 69, 267)"/>
  <rect fill="#1b9fd8" height="7" stroke-width="0" transform=" rotate(0, 81, 268)" width="7" x="77.7422" y="265.195"/>
  <polygon fill="#1b9fd8" points="88.1269,274.7456 91.6269,267.7456 95.1269,274.7456" stroke-width="0" transform=" rotate(0, 91, 271)"/>
  <ellipse cx="97.5196" cy="271.5023" fill="#1b9fd8" rx="3.5" ry="3.5" stroke-width="0" transform=" rotate(0, 97, 271)"/>
  <rect fill="#1b9fd8" height="7" stroke-width="0" transform=" rotate(0, 108, 269)" width="7" x="104.6725" y="265.5755"/>
  <polygon fill="#1b9fd8" points="115.8085,270.6788 119.3085,263.6788 122.8085,270.6788" stroke-width="0" transform=" rotate(0, 119, 267)"/>
  <ellipse cx="131.4657" cy="271.9892" fill="#1b9fd8" rx="3.5" ry="3.5" stroke-width="0" transform=" rotate(0, 131, 271)"/>
  <rect fill="#1b9fd8" height="7" stroke-width="0" transform=" rotate(0, 142, 272)" width="7" x="139.2294" y="268.8587"/>
  <polygon fill="#1b9fd8" points="149.202,271.7227 152.702,264.7227 156.202,271.7227" stroke-width="0" transform=" rotate(0, 152, 268)"/>
  <ellipse cx="161.4517" cy="269.0411" fill="#1b9fd8" rx="3.5" ry="3.5" stroke-width="0" transform=" rotate(0, 161, 269)"/>
  <rect fill="#1b9fd8" height="7" stroke-width="0" transform=" rotate(0, 168, 271)" width="7" x="164.7106" y="268.1326"/>
  <polygon fill="#1b9fd8" points="179.1942,275.8629 182.6942,268.8629 186.1942,275.8629" stroke-width="0" transform=" rotate(0, 182, 272)"/>
  <ellipse cx="187.3525" cy="267.4231" fill="#1b9fd8" rx="3.5" ry="3.5" stroke-width="0" transform=" rotate(0, 187, 267)"/>
  <rect fill="#1b9fd8" height="7" stroke-width="0" transform=" rotate(0, 201, 272)" width="7" x="197.9343" y="268.893"/>
  <polygon fill="#1b9fd8" points="204.1965,273.7288 207.6965,266.7288 211.1965,273.7288" stroke-width="0" transform=" rotate(0, 207, 270)"/>
  <ellipse cx="219.2394" cy="271.5807" fill="#1b9fd8" rx="3.5" ry="3.5" stroke-width="0" transform=" rotate(0, 219, 271)"/>
  <rect fill="#1b9fd8" height="7" stroke-width="0" transform=" rotate(0, 227, 269)" width="7" x="224.0685" y="265.6537"/>
  <polygon fill="#1b9fd8" points="237.4134,274.8496 240.9134,267.8496 244.4134,274.8496" stroke-width="0" transform=" rotate(0, 240, 271)"/>
  <ellipse cx="247.211" cy="270.8988" fill="#1b9fd8" rx="3.5" ry="3.5" stroke-width="0" transform=" rotate(0, 247, 270)"/>
  <rect fill="#1b9fd8" height="7" stroke-width="0" transform=" rotate(0, 260, 270)" width="7" x="257.0122" y="266.8817"/>
  <polygon fill="#1b9fd8" points="264.5065,274.7619 268.0065,267.7619 271.5065,274.7619" stroke-width="0" transform=" rotate(0, 268, 271)"/>
  <ellipse cx="282.034" cy="268.9677" fill="#1b9fd8" rx="3.5" ry="3.5" stroke-width="0" transform=" rotate(0, 282, 268)"/>
  <rect fill="#6dd6ff" height="5" stroke-width="0" transform=" rotate(0, 48, 280)" width="5" x="45.5006" y="277.9392"/>
  <polygon fill="#6dd6ff" points="59.0385,280.716 61.5385,275.716 64.0385,280.716" stroke-width="0" transform=" rotate(0, 61, 278)"/>
  <ellipse cx="69.416" cy="279.6093" fill="#6dd6ff" rx="2.5" ry="2.5" stroke-width="0" transform=" rotate(0, 69, 279)"/>
  <rect fill="#6dd6ff" height="5" stroke-width="0" transform=" rotate(0, 78, 281)" width="5" x="76.2467" y="278.8048"/>
  <polygon fill="#6dd6ff" points="87.8885,282.6626 90.3885,277.6626 92.8885,282.6626" stroke-width="0" transform=" rotate(0, 90, 280)"/>
  <ellipse cx="99.87" cy="279.2388" fill="#6dd6ff" rx="2.5" ry="2.5" stroke-width="0" transform=" rotate(0, 99, 279)"/>
  <rect fill="#6dd6ff" height="5" stroke-width="0" transform=" rotate(0, 111, 280)" width="5" x="108.577" y="278.0519"/>
  <polygon fill="#6dd6ff" points="116.263,283.0638 118.763,278.0638 121.263,283.0638" stroke-width="0" transform=" rotate(0, 118, 280)"/>
  <ellipse cx="128.0227" cy="278.0372" fill="#6dd6ff" rx="2.5" ry="2.5" stroke-width="0" transform=" rotate(0, 128, 278)"/>
  <rect fill="#6dd6ff" height="5" stroke-width="0" transform=" rotate(0, 139, 280)" width="5" x="137.4393" y="278.4749"/>
  <polygon fill="#6dd6ff" points="147.125,281.2663 149.625,276.2663 152.125,281.2663" stroke-width="0" transform=" rotate(0, 149, 278)"/>
  <ellipse cx="160.4426" cy="281.4499" fill="#6dd6ff" rx="2.5" ry="2.5" stroke-width="0" transform=" rotate(0, 160, 281)"/>
  <rect fill="#6dd6ff" height="5" stroke-width="0" transform=" rotate(0, 168, 280)" width="5" x="165.7502" y="277.8027"/>
  <polygon fill="#6dd6ff" points="176.8506,284.27 179.3506,279.27 181.8506,284.27" stroke-width="0" transform=" rotate(0, 179, 281)"/>
  <ellipse cx="189.5328" cy="281.5398" fill="#6dd6ff" rx="2.5" ry="2.5" stroke-width="0" transform=" rotate(0, 189, 281)"/>
  <rect fill="#6dd6ff" height="5" stroke-width="0" transform=" rotate(0, 200, 279)" width="5" x="198.3313" y="276.6834"/>
  <polygon fill="#6dd6ff" points="207.5306,284.3861 210.0306,279.3861 212.5306,284.3861" stroke-width="0" transform=" rotate(0, 210, 281)"/>
  <ellipse cx="219.4647" cy="278.8381" fill="#6dd6ff" rx="2.5" ry="2.5" stroke-width="0" transform=" rotate(0, 219, 278)"/>
  <rect fill="#6dd6ff" height="5" stroke-width="0" transform=" rotate(0, 230, 278)" width="5" x="228.4122" y="275.7345"/>
  <polygon fill="#6dd6ff" points="236.4665,284.1059 238.9665,279.1059 241.4665,284.1059" stroke-width="0" transform=" rotate(0, 238, 281)"/>
  <ellipse cx="248.0733" cy="281.5004" fill="#6dd6ff" rx="2.5" ry="2.5" stroke-width="0" transform=" rotate(0, 248, 281)"/>
  <rect fill="#6dd6ff" height="5" stroke-width="0" transform=" rotate(0, 259, 277)" width="5" x="257.3794" y="275.4726"/>
  <polygon fill="#6dd6ff" points="269.3426,283.1756 271.8426,278.1756 274.3426,283.1756" stroke-width="0" transform=" rotate(0, 271, 280)"/>
  <ellipse cx="280.6268" cy="280.102" fill="#6dd6ff" rx="2.5" ry="2.5" stroke-width="0" transform=" rotate(0, 280, 280)"/>
</svg>
