<?xml version="1.0" encoding="utf-8" ?>
<svg baseProfile="tiny" height="330" version="1.2" width="330" xmlns="http://www.w3.org/2000/svg" xmlns:ev="http://www.w3.org/2001/xml-events" xmlns:xlink="http://www.w3.org/1999/xlink">
  <defs/>
  <rect fill="white" height="330" width="330" x="0" y="0"/>
  <rect fill="#6dd6ff" height="7.5" stroke-width="0" transform=" rotate(0, 43, 50)" width="7.5" x="40.2436" y="46.485"/>
  <polygon fill="#6dd6ff" points="62.4553,64.9332 66.2053,57.4332 69.9553,64.9332" stroke-width="0" transform=" rotate(0, 66, 61)"/>
  <ellipse cx="86.8427" cy="45.786" fill="#6dd6ff" rx="3.75" ry="3.75" stroke-width="0" transform=" rotate(0, 86, 45)"/>
  <rect fill="#6dd6ff" height="7.5" stroke-width="0" transform=" rotate(0, 88, 59)" width="7.5" x="84.5044" y="55.514"/>
  <polygon fill="#6dd6ff" points="116.8099,55.483 120.5599,47.983 124.3099,55.483" stroke-width="0" transform=" rotate(0, 120, 51)"/>
  <ellipse cx="131.8357" cy="46.9496" fill="#6dd6ff" rx="3.75" ry="3.75" stroke-width="0" transform=" rotate(0, 131, 46)"/>
  <rect fill="#6dd6ff" height="7.5" stroke-width="0" transform=" rotate(0, 142, 56)" width="7.5" x="138.9003" y="52.4804"/>
  <polygon fill="#6dd6ff" points="144.6697,64.2971 148.4197,56.7971 152.1697,64.2971" stroke-width="0" transform=" rotate(0, 148, 60)"/>
  <ellipse cx="179.4722" cy="55.2652" fill="#6dd6ff" rx="3.75" ry="3.75" stroke-width="0" transform=" rotate(0, 179, 55)"/>
  <rect fill="#6dd6ff" height="7.5" stroke-width="0" transform=" rotate(0, 184, 49)" width="7.5" x="181.1562" y="45.7372"/>
  <polygon fill="#6dd6ff" points="192.0798,46.8977 195.8298,39.3977 199.5798,46.8977" stroke-width="0" transform=" rotate(0, 195, 43)"/>
  <ellipse cx="219.3802" cy="53.4015" fill="#6dd6ff" rx="3.75" ry="3.75" stroke-width="0" transform=" rotate(0, 219, 53)"/>
  <rect fill="#6dd6ff" height="7.5" stroke-width="0" transform=" rotate(0, 241, 44)" width="7.5" x="238.2276" y="40.2923"/>
  <polygon fill="#6dd6ff" points="236.4208,58.1894 240.1708,50.6894 243.9208,58.1894" stroke-width="0" transform=" rotate(0, 240, 54)"/>
  <ellipse cx="263.7372" cy="57.3391" fill="#6dd6ff" rx="3.75" ry="3.75" stroke-width="0" transform=" rotate(0, 263, 57)"/>
  <rect fill="#6dd6ff" height="7.5" stroke-width="0" transform=" rotate(0, 281, 50)" width="7.5" x="277.5889" y="46.7581"/>
  <rect fill="#1b9fd8" height="10.5" stroke-width="0" transform=" rotate(0, 44, 73)" width="10.5" x="39.6656" y="68.4958"/>
  <polygon fill="#1b9fd8" points="62.4516,69.3073 67.7016,58.8073 72.9516,69.3073" stroke-width="0" transform=" rotate(0, 67, 64)"/>
  <ellipse cx="86.0416" cy="57.802" fill="#1b9fd8" rx="5.25" ry="5.25" stroke-width="0" transform=" rotate(0, 86, 57)"/>
  <rect fill="#1b9fd8" height="10.5" stroke-width="0" transform=" rotate(0, 96, 57)" width="10.5" x="91.4084" y="52.3716"/>
  <polygon fill="#1b9fd8" points="99.9384,80.3271 105.1884,69.8271 110.4384,80.3271" stroke-width="0" transform=" rotate(0, 105, 75)"/>
  <ellipse cx="130.6683" cy="71.6134" fill="#1b9fd8" rx="5.25" ry="5.25" stroke-width="0" transform=" rotate(0, 130, 71)"/>
  <rect fill="#1b9fd8" height="10.5" stroke-width="0" transform=" rotate(0, 141, 57)" width="10.5" x="135.77" y="52.2566"/>
  <polygon fill="#1b9fd8" points="160.3097,75.3518 165.5597,64.8518 170.8097,75.3518" stroke-width="0" transform=" rotate(0, 165, 70)"/>
  <ellipse cx="171.4778" cy="75.0173" fill="#1b9fd8" rx="5.25" ry="5.25" stroke-width="0" transform=" rotate(0, 171, 75)"/>
  <rect fill="#1b9fd8" height="10.5" stroke-width="0" transform=" rotate(0, 188, 61)" width="10.5" x="183.7267" y="56.4513"/>
  <polygon fill="#1b9fd8" points="201.2286,69.227 206.4786,58.727 211.7286,69.227" stroke-width="0" transform=" rotate(0, 206, 63)"/>
  <ellipse cx="212.4631" cy="64.82" fill="#1b9fd8" rx="5.25" ry="5.25" stroke-width="0" transform=" rotate(0, 212, 64)"/>
  <rect fill="#1b9fd8" height="10.5" stroke-width="0" transform=" rotate(0, 235, 58)" width="10.5" x="230.6661" y="53.7189"/>
  <polygon fill="#1b9fd8" points="251.8238,82.7982 257.0738,72.2982 262.3238,82.7982" stroke-width="0" transform=" rotate(0, 257, 77)"/>
  <ellipse cx="252.8424" cy="77.6877" fill="#1b9fd8" rx="5.25" ry="5.25" stroke-width="0" transform=" rotate(0, 252, 77)"/>
  <rect fill="#1b9fd8" height="10.5" stroke-width="0" transform=" rotate(0, 274, 59)" width="10.5" x="269.6653" y="54.6325"/>
  <rect fill="#006ca1" height="13.5" stroke-width="0" transform=" rotate(0, 56, 80)" width="13.5" x="49.3937" y="73.2697"/>
  <polygon fill="#006ca1" points="59.7507,99.0164 66.5007,85.5164 73.2507,99.0164" stroke-width="0" transform=" rotate(0, 66, 92)"/>
  <ellipse cx="92.007" cy="91.0087" fill="#006ca1" rx="6.75" ry="6.75" stroke-width="0" transform=" rotate(0, 92, 91)"/>
  <rect fill="#006ca1" height="13.5" stroke-width="0" transform=" rotate(0, 101, 74)" width="13.5" x="94.7574" y="68.099"/>
  <polygon fill="#006ca1" points="105.522,88.6295 112.272,75.1295 119.022,88.6295" stroke-width="0" transform=" rotate(0, 112, 81)"/>
  <ellipse cx="136.4382" cy="80.7889" fill="#006ca1" rx="6.75" ry="6.75" stroke-width="0" transform=" rotate(0, 136, 80)"/>
  <rect fill="#006ca1" height="13.5" stroke-width="0" transform=" rotate(0, 145, 84)" width="13.5" x="138.9356" y="78.0868"/>
  <polygon fill="#006ca1" points="153.1963,89.0393 159.9463,75.5393 166.6963,89.0393" stroke-width="0" transform=" rotate(0, 159, 82)"/>
  <ellipse cx="174.0982" cy="79.9047" fill="#006ca1" rx="6.75" ry="6.75" stroke-width="0" transform=" rotate(0, 174, 79)"/>
  <rect fill="#006ca1" height="13.5" stroke-width="0" transform=" rotate(0, 189, 75)" width="13.5" x="183.0462" y="69.0462"/>
  <polygon fill="#006ca1" points="198.7411,94.1114 205.4911,80.6114 212.2411,94.1114" stroke-width="0" transform=" rotate(0, 205, 87)"/>
  <ellipse cx="227.3523" cy="84.8723" fill="#006ca1" rx="6.75" ry="6.75" stroke-width="0" transform=" rotate(0, 227, 84)"/>
  <rect fill="#006ca1" height="13.5" stroke-width="0" transform=" rotate(0, 228, 73)" width="13.5" x="222.1602" y="66.3586"/>
  <polygon fill="#006ca1" points="249.7444,92.4075 256.4944,78.9075 263.2444,92.4075" stroke-width="0" transform=" rotate(0, 256, 85)"/>
  <ellipse cx="259.6474" cy="91.3556" fill="#006ca1" rx="6.75" ry="6.75" stroke-width="0" transform=" rotate(0, 259, 91)"/>
  <rect fill="#006ca1" height="13.5" stroke-width="0" transform=" rotate(0, 272, 82)" width="13.5" x="265.5939" y="76.2149"/>
  <rect fill="#6dd6ff" height="7.5" stroke-width="0" transform=" rotate(0, 43, 95)" width="7.5" x="39.5362" y="91.8256"/>
  <polygon fill="#6dd6ff" points="72.8186,106.3821 76.5686,98.8821 80.3186,106.3821" stroke-width="0" transform=" rotate(0, 76, 102)"/>
  <ellipse cx="74.6307" cy="101.7117" fill="#6dd6ff" rx="3.75" ry="3.75" stroke-width="0" transform=" rotate(0, 74, 101)"/>
  <rect fill="#6dd6ff" height="7.5" stroke-width="0" transform=" rotate(0, 94, 90)" width="7.5" x="91.1293" y="87.1645"/>
  <polygon fill="#6dd6ff" points="117.0485,104.1854 120.7985,96.6854 124.5485,104.1854" stroke-width="0" transform=" rotate(0, 120, 100)"/>
  <ellipse cx="132.4008" cy="103.9265" fill="#6dd6ff" rx="3.75" ry="3.75" stroke-width="0" transform=" rotate(0, 132, 103)"/>
  <rect fill="#6dd6ff" height="7.5" stroke-width="0" transform=" rotate(0, 137, 105)" width="7.5" x="133.4896" y="102.2486"/>
  <polygon fill="#6dd6ff" points="150.5795,96.6032 154.3295,89.1032 158.0795,96.6032" stroke-width="0" transform=" rotate(0, 154, 92)"/>
  <ellipse cx="170.997" cy="94.4057" fill="#6dd6ff" rx="3.75" ry="3.75" stroke-width="0" transform=" rotate(0, 170, 94)"/>
  <rect fill="#6dd6ff" height="7.5" stroke-width="0" transform=" rotate(0, 183, 89)" width="7.5" x="179.5119" y="85.8988"/>
  <polygon fill="#6dd6ff" points="196.4382,92.3212 200.1882,84.8212 203.9382,92.3212" stroke-width="0" transform=" rotate(0, 200, 88)"/>
  <ellipse cx="212.2964" cy="89.1211" fill="#6dd6ff" rx="3.75" ry="3.75" stroke-width="0" transform=" rotate(0, 212, 89)"/>
  <rect fill="#6dd6ff" height="7.5" stroke-width="0" transform=" rotate(0, 223, 106)" width="7.5" x="219.7388" y="102.7978"/>
  <polygon fill="#6dd6ff" points="251.4254,111.2364 255.1754,103.7364 258.9254,111.2364" stroke-width="0" transform=" rotate(0, 255, 107)"/>
  <ellipse cx="252.3679" cy="99.1464" fill="#6dd6ff" rx="3.75" ry="3.75" stroke-width="0" transform=" rotate(0, 252, 99)"/>
  <rect fill="#6dd6ff" height="7.5" stroke-width="0" transform=" rotate(0, 280, 97)" width="7.5" x="276.8753" y="93.4306"/>
  <rect fill="#1b9fd8" height="10.5" stroke-width="0" transform=" rotate(0, 43, 121)" width="10.5" x="38.5488" y="116.2389"/>
  <polygon fill="#1b9fd8" points="60.669,128.2025 65.919,117.7025 71.169,128.2025" stroke-width="0" transform=" rotate(0, 65, 122)"/>
  <ellipse cx="73.5125" cy="117.145" fill="#1b9fd8" rx="5.25" ry="5.25" stroke-width="0" transform=" rotate(0, 73, 117)"/>
  <rect fill="#1b9fd8" height="10.5" stroke-width="0" transform=" rotate(0, 103, 112)" width="10.5" x="98.2923" y="106.7787"/>
  <polygon fill="#1b9fd8" points="108.3062,123.7098 113.5562,113.2098 118.8062,123.7098" stroke-width="0" transform=" rotate(0, 113, 118)"/>
  <ellipse cx="124.0956" cy="111.1954" fill="#1b9fd8" rx="5.25" ry="5.25" stroke-width="0" transform=" rotate(0, 124, 111)"/>
  <rect fill="#1b9fd8" height="10.5" stroke-width="0" transform=" rotate(0, 150, 110)" width="10.5" x="144.9481" y="105.2574"/>
  <polygon fill="#1b9fd8" points="149.5119,119.4666 154.7619,108.9666 160.0119,119.4666" stroke-width="0" transform=" rotate(0, 154, 114)"/>
  <ellipse cx="165.6856" cy="121.6805" fill="#1b9fd8" rx="5.25" ry="5.25" stroke-width="0" transform=" rotate(0, 165, 121)"/>
  <rect fill="#1b9fd8" height="10.5" stroke-width="0" transform=" rotate(0, 186, 111)" width="10.5" x="181.6407" y="106.6173"/>
  <polygon fill="#1b9fd8" points="200.1107,119.2408 205.3607,108.7408 210.6107,119.2408" stroke-width="0" transform=" rotate(0, 205, 113)"/>
  <ellipse cx="210.4165" cy="109.4295" fill="#1b9fd8" rx="5.25" ry="5.25" stroke-width="0" transform=" rotate(0, 210, 109)"/>
  <rect fill="#1b9fd8" height="10.5" stroke-width="0" transform=" rotate(0, 229, 104)" width="10.5" x="224.6809" y="99.4073"/>
  <polygon fill="#1b9fd8" points="235.3485,124.046 240.5985,113.546 245.8485,124.046" stroke-width="0" transform=" rotate(0, 240, 118)"/>
  <ellipse cx="255.2277" cy="113.1457" fill="#1b9fd8" rx="5.25" ry="5.25" stroke-width="0" transform=" rotate(0, 255, 113)"/>
  <rect fill="#1b9fd8" height="10.5" stroke-width="0" transform=" rotate(0, 279, 104)" width="10.5" x="274.4563" y="98.7811"/>
  <rect fill="#006ca1" height="13.5" stroke-width="0" transform=" rotate(0, 56, 126)" width="13.5" x="49.7548" y="120.0498"/>
  <polygon fill="#006ca1" points="50.2395,144.6178 56.9895,131.1178 63.7395,144.6178" stroke-width="0" transform=" rotate(0, 56, 137)"/>
  <ellipse cx="77.0413" cy="121.015" fill="#006ca1" rx="6.75" ry="6.75" stroke-width="0" transform=" rotate(0, 77, 121)"/>
  <rect fill="#006ca1" height="13.5" stroke-width="0" transform=" rotate(0, 89, 135)" width="13.5" x="82.2607" y="128.7544"/>
  <polygon fill="#006ca1" points="111.5004,130.9826 118.2504,117.4826 125.0004,130.9826" stroke-width="0" transform=" rotate(0, 118, 124)"/>
  <ellipse cx="137.6411" cy="118.9545" fill="#006ca1" rx="6.75" ry="6.75" stroke-width="0" transform=" rotate(0, 137, 118)"/>
  <rect fill="#006ca1" height="13.5" stroke-width="0" transform=" rotate(0, 134, 123)" width="13.5" x="127.941" y="117.1826"/>
  <polygon fill="#006ca1" points="153.5901,137.8142 160.3401,124.3142 167.0901,137.8142" stroke-width="0" transform=" rotate(0, 160, 131)"/>
  <ellipse cx="178.5619" cy="134.7009" fill="#006ca1" rx="6.75" ry="6.75" stroke-width="0" transform=" rotate(0, 178, 134)"/>
  <rect fill="#006ca1" height="13.5" stroke-width="0" transform=" rotate(0, 178, 121)" width="13.5" x="172.0122" y="114.4774"/>
  <polygon fill="#006ca1" points="192.4663,141.9406 199.2163,128.4406 205.9663,141.9406" stroke-width="0" transform=" rotate(0, 199, 135)"/>
  <ellipse cx="214.4605" cy="123.5945" fill="#006ca1" rx="6.75" ry="6.75" stroke-width="0" transform=" rotate(0, 214, 123)"/>
  <rect fill="#006ca1" height="13.5" stroke-width="0" transform=" rotate(0, 224, 119)" width="13.5" x="217.792" y="112.6363"/>
  <polygon fill="#006ca1" points="231.2057,143.0031 237.9557,129.5031 244.7057,143.0031" stroke-width="0" transform=" rotate(0, 237, 136)"/>
  <ellipse cx="255.8385" cy="120.0187" fill="#006ca1" rx="6.75" ry="6.75" stroke-width="0" transform=" rotate(0, 255, 120)"/>
  <rect fill="#006ca1" height="13.5" stroke-width="0" transform=" rotate(0, 274, 133)" width="13.5" x="267.7254" y="126.2663"/>
  <rect fill="#6dd6ff" height="7.5" stroke-width="0" transform=" rotate(0, 49, 135)" width="7.5" x="46.0508" y="131.8212"/>
  <polygon fill="#6dd6ff" points="57.5944,140.6033 61.3444,133.1033 65.0944,140.6033" stroke-width="0" transform=" rotate(0, 61, 136)"/>
  <ellipse cx="86.3787" cy="140.3454" fill="#6dd6ff" rx="3.75" ry="3.75" stroke-width="0" transform=" rotate(0, 86, 140)"/>
  <rect fill="#6dd6ff" height="7.5" stroke-width="0" transform=" rotate(0, 94, 145)" width="7.5" x="90.5055" y="141.9646"/>
  <polygon fill="#6dd6ff" points="118.3348,144.5498 122.0848,137.0498 125.8348,144.5498" stroke-width="0" transform=" rotate(0, 122, 140)"/>
  <ellipse cx="128.976" cy="146.7448" fill="#6dd6ff" rx="3.75" ry="3.75" stroke-width="0" transform=" rotate(0, 128, 146)"/>
  <rect fill="#6dd6ff" height="7.5" stroke-width="0" transform=" rotate(0, 150, 143)" width="7.5" x="146.4673" y="140.1159"/>
  <polygon fill="#6dd6ff" points="145.7002,137.861 149.4502,130.361 153.2002,137.861" stroke-width="0" transform=" rotate(0, 149, 134)"/>
  <ellipse cx="169.4003" cy="137.6181" fill="#6dd6ff" rx="3.75" ry="3.75" stroke-width="0" transform=" rotate(0, 169, 137)"/>
  <rect fill="#6dd6ff" height="7.5" stroke-width="0" transform=" rotate(0, 195, 133)" width="7.5" x="191.9725" y="129.2509"/>
  <polygon fill="#6dd6ff" points="195.7387,152.35 199.4887,144.85 203.2387,152.35" stroke-width="0" transform=" rotate(0, 199, 148)"/>
  <ellipse cx="208.9944" cy="141.9707" fill="#6dd6ff" rx="3.75" ry="3.75" stroke-width="0" transform=" rotate(0, 208, 141)"/>
  <rect fill="#6dd6ff" height="7.5" stroke-width="0" transform=" rotate(0, 229, 143)" width="7.5" x="225.6835" y="140.0425"/>
  <polygon fill="#6dd6ff" points="246.6563,153.9122 250.4063,146.4122 254.1563,153.9122" stroke-width="0" transform=" rotate(0, 250, 150)"/>
  <ellipse cx="259.9498" cy="132.1844" fill="#6dd6ff" rx="3.75" ry="3.75" stroke-width="0" transform=" rotate(0, 259, 132)"/>
  <rect fill="#6dd6ff" height="7.5" stroke-width="0" transform=" rotate(0, 286, 139)" width="7.5" x="282.6665" y="135.4079"/>
  <rect fill="#1b9fd8" height="10.5" stroke-width="0" transform=" rotate(0, 45, 147)" width="10.5" x="40.6207" y="142.5042"/>
  <polygon fill="#1b9fd8" points="56.5964,155.7521 61.8464,145.2521 67.0964,155.7521" stroke-width="0" transform=" rotate(0, 61, 150)"/>
  <ellipse cx="92.1443" cy="158.2024" fill="#1b9fd8" rx="5.25" ry="5.25" stroke-width="0" transform=" rotate(0, 92, 158)"/>
  <rect fill="#1b9fd8" height="10.5" stroke-width="0" transform=" rotate(0, 92, 156)" width="10.5" x="87.1084" y="151.3519"/>
  <polygon fill="#1b9fd8" points="113.5826,152.9182 118.8326,142.4182 124.0826,152.9182" stroke-width="0" transform=" rotate(0, 118, 147)"/>
  <ellipse cx="118.678" cy="166.1864" fill="#1b9fd8" rx="5.25" ry="5.25" stroke-width="0" transform=" rotate(0, 118, 166)"/>
  <rect fill="#1b9fd8" height="10.5" stroke-width="0" transform=" rotate(0, 133, 167)" width="10.5" x="128.7475" y="162.2026"/>
  <polygon fill="#1b9fd8" points="147.771,152.851 153.021,142.351 158.271,152.851" stroke-width="0" transform=" rotate(0, 153, 147)"/>
  <ellipse cx="180.1362" cy="166.3027" fill="#1b9fd8" rx="5.25" ry="5.25" stroke-width="0" transform=" rotate(0, 180, 166)"/>
  <rect fill="#1b9fd8" height="10.5" stroke-width="0" transform=" rotate(0, 195, 160)" width="10.5" x="190.3779" y="154.8488"/>
  <polygon fill="#1b9fd8" points="204.7917,163.2526 210.0417,152.7526 215.2917,163.2526" stroke-width="0" transform=" rotate(0, 210, 158)"/>
  <ellipse cx="225.5256" cy="147.3834" fill="#1b9fd8" rx="5.25" ry="5.25" stroke-width="0" transform=" rotate(0, 225, 147)"/>
  <rect fill="#1b9fd8" height="10.5" stroke-width="0" transform=" rotate(0, 223, 155)" width="10.5" x="218.2307" y="149.7551"/>
  <polygon fill="#1b9fd8" points="239.3173,154.4078 244.5673,143.9078 249.8173,154.4078" stroke-width="0" transform=" rotate(0, 244, 149)"/>
  <ellipse cx="266.0012" cy="161.0539" fill="#1b9fd8" rx="5.25" ry="5.25" stroke-width="0" transform=" rotate(0, 266, 161)"/>
  <rect fill="#1b9fd8" height="10.5" stroke-width="0" transform=" rotate(0, 282, 160)" width="10.5" x="277.7109" y="154.9785"/>
  <rect fill="#1b9fd8" height="10.5" stroke-width="0" transform=" rotate(0, 57, 163)" width="10.5" x="52.362" y="157.9748"/>
  <polygon fill="#1b9fd8" points="60.9503,173.4386 66.2003,162.9386 71.4503,173.4386" stroke-width="0" transform=" rotate(0, 66, 168)"/>
  <ellipse cx="87.2558" cy="165.9938" fill="#1b9fd8" rx="5.25" ry="5.25" stroke-width="0" transform=" rotate(0, 87, 165)"/>
  <rect fill="#1b9fd8" height="10.5" stroke-width="0" transform=" rotate(0, 102, 170)" width="10.5" x="97.0306" y="165.6673"/>
  <polygon fill="#1b9fd8" points="115.9332,181.8787 121.1832,171.3787 126.4332,181.8787" stroke-width="0" transform=" rotate(0, 121, 176)"/>
  <ellipse cx="117.3019" cy="179.5123" fill="#1b9fd8" rx="5.25" ry="5.25" stroke-width="0" transform=" rotate(0, 117, 179)"/>
  <rect fill="#1b9fd8" height="10.5" stroke-width="0" transform=" rotate(0, 147, 179)" width="10.5" x="142.6717" y="174.5599"/>
  <polygon fill="#1b9fd8" points="156.6242,172.641 161.8742,162.141 167.1242,172.641" stroke-width="0" transform=" rotate(0, 161, 167)"/>
  <ellipse cx="175.22" cy="174.0739" fill="#1b9fd8" rx="5.25" ry="5.25" stroke-width="0" transform=" rotate(0, 175, 174)"/>
  <rect fill="#1b9fd8" height="10.5" stroke-width="0" transform=" rotate(0, 189, 170)" width="10.5" x="183.963" y="165.7135"/>
  <polygon fill="#1b9fd8" points="191.0683,178.3562 196.3183,167.8562 201.5683,178.3562" stroke-width="0" transform=" rotate(0, 196, 173)"/>
  <ellipse cx="223.9097" cy="175.5347" fill="#1b9fd8" rx="5.25" ry="5.25" stroke-width="0" transform=" rotate(0, 223, 175)"/>
  <rect fill="#1b9fd8" height="10.5" stroke-width="0" transform=" rotate(0, 237, 165)" width="10.5" x="232.1828" y="160.0416"/>
  <polygon fill="#1b9fd8" points="235.3467,187.1903 240.5967,176.6903 245.8467,187.1903" stroke-width="0" transform=" rotate(0, 240, 181)"/>
  <ellipse cx="253.9399" cy="178.8269" fill="#1b9fd8" rx="5.25" ry="5.25" stroke-width="0" transform=" rotate(0, 253, 178)"/>
  <rect fill="#1b9fd8" height="10.5" stroke-width="0" transform=" rotate(0, 285, 167)" width="10.5" x="280.7213" y="162.3508"/>
  <rect fill="#6dd6ff" height="7.5" stroke-width="0" transform=" rotate(0, 46, 184)" width="7.5" x="42.7391" y="180.5537"/>
  <polygon fill="#6dd6ff" points="54.8942,195.0643 58.6442,187.5643 62.3942,195.0643" stroke-width="0" transform=" rotate(0, 58, 191)"/>
  <ellipse cx="71.9397" cy="197.9383" fill="#6dd6ff" rx="3.75" ry="3.75" stroke-width="0" transform=" rotate(0, 71, 197)"/>
  <rect fill="#6dd6ff" height="7.5" stroke-width="0" transform=" rotate(0, 100, 180)" width="7.5" x="96.6479" y="176.5944"/>
  <polygon fill="#6dd6ff" points="99.1008,201.2486 102.8508,193.7486 106.6008,201.2486" stroke-width="0" transform=" rotate(0, 102, 197)"/>
  <ellipse cx="120.8661" cy="195.5272" fill="#6dd6ff" rx="3.75" ry="3.75" stroke-width="0" transform=" rotate(0, 120, 195)"/>
  <rect fill="#6dd6ff" height="7.5" stroke-width="0" transform=" rotate(0, 147, 179)" width="7.5" x="143.3242" y="175.3516"/>
  <polygon fill="#6dd6ff" points="157.0813,191.5337 160.8313,184.0337 164.5813,191.5337" stroke-width="0" transform=" rotate(0, 160, 187)"/>
  <ellipse cx="175.655" cy="190.4727" fill="#6dd6ff" rx="3.75" ry="3.75" stroke-width="0" transform=" rotate(0, 175, 190)"/>
  <rect fill="#6dd6ff" height="7.5" stroke-width="0" transform=" rotate(0, 196, 196)" width="7.5" x="193.0209" y="192.7343"/>
  <polygon fill="#6dd6ff" points="201.4729,196.821 205.2229,189.321 208.9729,196.821" stroke-width="0" transform=" rotate(0, 205, 193)"/>
  <ellipse cx="221.6421" cy="187.9581" fill="#6dd6ff" rx="3.75" ry="3.75" stroke-width="0" transform=" rotate(0, 221, 187)"/>
  <rect fill="#6dd6ff" height="7.5" stroke-width="0" transform=" rotate(0, 230, 182)" width="7.5" x="226.7031" y="178.3935"/>
  <polygon fill="#6dd6ff" points="249.3768,194.3147 253.1268,186.8147 256.8768,194.3147" stroke-width="0" transform=" rotate(0, 253, 190)"/>
  <ellipse cx="258.1765" cy="180.6862" fill="#6dd6ff" rx="3.75" ry="3.75" stroke-width="0" transform=" rotate(0, 258, 180)"/>
  <rect fill="#6dd6ff" height="7.5" stroke-width="0" transform=" rotate(0, 286, 183)" width="7.5" x="282.8882" y="179.9046"/>
  <rect fill="#006ca1" height="13.5" stroke-width="0" transform=" rotate(0, 52, 200)" width="13.5" x="45.7928" y="193.628"/>
  <polygon fill="#006ca1" points="56.5046,208.913 63.2546,195.413 70.0046,208.913" stroke-width="0" transform=" rotate(0, 63, 202)"/>
  <ellipse cx="90.9521" cy="197.4069" fill="#006ca1" rx="6.75" ry="6.75" stroke-width="0" transform=" rotate(0, 90, 197)"/>
  <rect fill="#006ca1" height="13.5" stroke-width="0" transform=" rotate(0, 106, 201)" width="13.5" x="99.6369" y="194.6752"/>
  <polygon fill="#006ca1" points="114.0187,214.8728 120.7687,201.3728 127.5187,214.8728" stroke-width="0" transform=" rotate(0, 120, 208)"/>
  <ellipse cx="120.042" cy="197.1596" fill="#006ca1" rx="6.75" ry="6.75" stroke-width="0" transform=" rotate(0, 120, 197)"/>
  <rect fill="#006ca1" height="13.5" stroke-width="0" transform=" rotate(0, 140, 209)" width="13.5" x="133.6881" y="202.8304"/>
  <polygon fill="#006ca1" points="155.7573,219.0193 162.5073,205.5193 169.2573,219.0193" stroke-width="0" transform=" rotate(0, 162, 212)"/>
  <ellipse cx="175.2217" cy="207.6665" fill="#006ca1" rx="6.75" ry="6.75" stroke-width="0" transform=" rotate(0, 175, 207)"/>
  <rect fill="#006ca1" height="13.5" stroke-width="0" transform=" rotate(0, 187, 197)" width="13.5" x="180.3082" y="190.8755"/>
  <polygon fill="#006ca1" points="203.8332,208.9591 210.5832,195.4591 217.3332,208.9591" stroke-width="0" transform=" rotate(0, 210, 202)"/>
  <ellipse cx="210.9399" cy="207.1057" fill="#006ca1" rx="6.75" ry="6.75" stroke-width="0" transform=" rotate(0, 210, 207)"/>
  <rect fill="#006ca1" height="13.5" stroke-width="0" transform=" rotate(0, 229, 195)" width="13.5" x="222.862" y="188.4555"/>
  <polygon fill="#006ca1" points="247.7778,215.9744 254.5278,202.4744 261.2778,215.9744" stroke-width="0" transform=" rotate(0, 254, 209)"/>
  <ellipse cx="266.2537" cy="195.9831" fill="#006ca1" rx="6.75" ry="6.75" stroke-width="0" transform=" rotate(0, 266, 195)"/>
  <rect fill="#006ca1" height="13.5" stroke-width="0" transform=" rotate(0, 287, 193)" width="13.5" x="280.3637" y="186.9983"/>
  <rect fill="#1b9fd8" height="10.5" stroke-width="0" transform=" rotate(0, 54, 226)" width="10.5" x="49.1786" y="221.4602"/>
  <polygon fill="#1b9fd8" points="63.7094,226.1705 68.9594,215.6705 74.2094,226.1705" stroke-width="0" transform=" rotate(0, 68, 220)"/>
  <ellipse cx="81.5443" cy="215.2377" fill="#1b9fd8" rx="5.25" ry="5.25" stroke-width="0" transform=" rotate(0, 81, 215)"/>
  <rect fill="#1b9fd8" height="10.5" stroke-width="0" transform=" rotate(0, 102, 226)" width="10.5" x="97.5849" y="220.7618"/>
  <polygon fill="#1b9fd8" points="96.8138,229.2824 102.0638,218.7824 107.3138,229.2824" stroke-width="0" transform=" rotate(0, 102, 224)"/>
  <ellipse cx="120.7311" cy="227.3137" fill="#1b9fd8" rx="5.25" ry="5.25" stroke-width="0" transform=" rotate(0, 120, 227)"/>
  <rect fill="#1b9fd8" height="10.5" stroke-width="0" transform=" rotate(0, 136, 219)" width="10.5" x="131.3384" y="214.2194"/>
  <polygon fill="#1b9fd8" points="152.4349,228.4317 157.6849,217.9317 162.9349,228.4317" stroke-width="0" transform=" rotate(0, 157, 223)"/>
  <ellipse cx="182.2988" cy="222.3769" fill="#1b9fd8" rx="5.25" ry="5.25" stroke-width="0" transform=" rotate(0, 182, 222)"/>
  <rect fill="#1b9fd8" height="10.5" stroke-width="0" transform=" rotate(0, 184, 208)" width="10.5" x="179.2991" y="203.3819"/>
  <polygon fill="#1b9fd8" points="202.195,222.7541 207.445,212.2541 212.695,222.7541" stroke-width="0" transform=" rotate(0, 207, 217)"/>
  <ellipse cx="218.7883" cy="222.7753" fill="#1b9fd8" rx="5.25" ry="5.25" stroke-width="0" transform=" rotate(0, 218, 222)"/>
  <rect fill="#1b9fd8" height="10.5" stroke-width="0" transform=" rotate(0, 241, 208)" width="10.5" x="236.4398" y="203.6165"/>
  <polygon fill="#1b9fd8" points="246.6818,231.5381 251.9318,221.0381 257.1818,231.5381" stroke-width="0" transform=" rotate(0, 251, 226)"/>
  <ellipse cx="271.804" cy="215.8008" fill="#1b9fd8" rx="5.25" ry="5.25" stroke-width="0" transform=" rotate(0, 271, 215)"/>
  <rect fill="#1b9fd8" height="10.5" stroke-width="0" transform=" rotate(0, 287, 222)" width="10.5" x="281.7844" y="217.2515"/>
  <rect fill="#6dd6ff" height="7.5" stroke-width="0" transform=" rotate(0, 49, 227)" width="7.5" x="46.0829" y="223.9492"/>
  <polygon fill="#6dd6ff" points="68.0962,238.6343 71.8462,231.1343 75.5962,238.6343" stroke-width="0" transform=" rotate(0, 71, 234)"/>
  <ellipse cx="82.6923" cy="242.0185" fill="#6dd6ff" rx="3.75" ry="3.75" stroke-width="0" transform=" rotate(0, 82, 242)"/>
  <rect fill="#6dd6ff" height="7.5" stroke-width="0" transform=" rotate(0, 98, 232)" width="7.5" x="94.3452" y="228.72"/>
  <polygon fill="#6dd6ff" points="118.7125,242.5105 122.4625,235.0105 126.2125,242.5105" stroke-width="0" transform=" rotate(0, 122, 238)"/>
  <ellipse cx="128.6438" cy="223.7659" fill="#6dd6ff" rx="3.75" ry="3.75" stroke-width="0" transform=" rotate(0, 128, 223)"/>
  <rect fill="#6dd6ff" height="7.5" stroke-width="0" transform=" rotate(0, 148, 241)" width="7.5" x="144.2637" y="237.7475"/>
  <polygon fill="#6dd6ff" points="153.0409,232.7599 156.7909,225.2599 160.5409,232.7599" stroke-width="0" transform=" rotate(0, 156, 229)"/>
  <ellipse cx="174.0203" cy="227.0878" fill="#6dd6ff" rx="3.75" ry="3.75" stroke-width="0" transform=" rotate(0, 174, 227)"/>
  <rect fill="#6dd6ff" height="7.5" stroke-width="0" transform=" rotate(0, 184, 223)" width="7.5" x="180.425" y="219.5629"/>
  <polygon fill="#6dd6ff" points="198.3215,230.7403 202.0715,223.2403 205.8215,230.7403" stroke-width="0" transform=" rotate(0, 202, 226)"/>
  <ellipse cx="211.1637" cy="224.7238" fill="#6dd6ff" rx="3.75" ry="3.75" stroke-width="0" transform=" rotate(0, 211, 224)"/>
  <rect fill="#6dd6ff" height="7.5" stroke-width="0" transform=" rotate(0, 230, 223)" width="7.5" x="226.609" y="220.2163"/>
  <polygon fill="#6dd6ff" points="248.5384,226.6663 252.2884,219.1663 256.0384,226.6663" stroke-width="0" transform=" rotate(0, 252, 222)"/>
  <ellipse cx="268.0592" cy="222.1328" fill="#6dd6ff" rx="3.75" ry="3.75" stroke-width="0" transform=" rotate(0, 268, 222)"/>
  <rect fill="#6dd6ff" height="7.5" stroke-width="0" transform=" rotate(0, 270, 232)" width="7.5" x="266.4443" y="229.0018"/>
  <rect fill="#006ca1" height="13.5" stroke-width="0" transform=" rotate(0, 48, 254)" width="13.5" x="41.614" y="247.423"/>
  <polygon fill="#006ca1" points="63.6636,261.7083 70.4136,248.2083 77.1636,261.7083" stroke-width="0" transform=" rotate(0, 70, 254)"/>
  <ellipse cx="91.6247" cy="243.122" fill="#006ca1" rx="6.75" ry="6.75" stroke-width="0" transform=" rotate(0, 91, 243)"/>
  <rect fill="#006ca1" height="13.5" stroke-width="0" transform=" rotate(0, 91, 253)" width="13.5" x="84.4572" y="246.8033"/>
  <polygon fill="#006ca1" points="113.5736,256.0885 120.3236,242.5885 127.0736,256.0885" stroke-width="0" transform=" rotate(0, 120, 249)"/>
  <ellipse cx="123.3531" cy="239.1966" fill="#006ca1" rx="6.75" ry="6.75" stroke-width="0" transform=" rotate(0, 123, 239)"/>
  <rect fill="#006ca1" height="13.5" stroke-width="0" transform=" rotate(0, 144, 242)" width="13.5" x="137.6901" y="236.2442"/>
  <polygon fill="#006ca1" points="143.078,259.7717 149.828,246.2717 156.578,259.7717" stroke-width="0" transform=" rotate(0, 149, 253)"/>
  <ellipse cx="164.5147" cy="239.8083" fill="#006ca1" rx="6.75" ry="6.75" stroke-width="0" transform=" rotate(0, 164, 239)"/>
  <rect fill="#006ca1" height="13.5" stroke-width="0" transform=" rotate(0, 188, 249)" width="13.5" x="181.6791" y="242.6394"/>
  <polygon fill="#006ca1" points="202.1062,246.3345 208.8562,232.8345 215.6062,246.3345" stroke-width="0" transform=" rotate(0, 208, 239)"/>
  <ellipse cx="218.5072" cy="243.6893" fill="#006ca1" rx="6.75" ry="6.75" stroke-width="0" transform=" rotate(0, 218, 243)"/>
  <rect fill="#006ca1" height="13.5" stroke-width="0" transform=" rotate(0, 226, 247)" width="13.5" x="219.9306" y="240.8297"/>
  <polygon fill="#006ca1" points="236.8069,245.5841 243.5569,232.0841 250.3069,245.5841" stroke-width="0" transform=" rotate(0, 243, 238)"/>
  <ellipse cx="256.9038" cy="257.61" fill="#006ca1" rx="6.75" ry="6.75" stroke-width="0" transform=" rotate(0, 256, 257)"/>
  <rect fill="#006ca1" height="13.5" stroke-width="0" transform=" rotate(0, 275, 250)" width="13.5" x="268.5453" y="244.0569"/>
  <rect fill="#1b9fd8" height="10.5" stroke-width="0" transform=" rotate(0, 61, 255)" width="10.5" x="55.8587" y="250.5504"/>
  <polygon fill="#1b9fd8" points="59.8594,259.118 65.1094,248.618 70.3594,259.118" stroke-width="0" transform=" rotate(0, 65, 253)"/>
  <ellipse cx="84.643" cy="263.5686" fill="#1b9fd8" rx="5.25" ry="5.25" stroke-width="0" transform=" rotate(0, 84, 263)"/>
  <rect fill="#1b9fd8" height="10.5" stroke-width="0" transform=" rotate(0, 95, 261)" width="10.5" x="90.6818" y="256.4367"/>
  <polygon fill="#1b9fd8" points="103.0193,264.2325 108.2693,253.7325 113.5193,264.2325" stroke-width="0" transform=" rotate(0, 108, 258)"/>
  <ellipse cx="116.7578" cy="265.8776" fill="#1b9fd8" rx="5.25" ry="5.25" stroke-width="0" transform=" rotate(0, 116, 265)"/>
  <rect fill="#1b9fd8" height="10.5" stroke-width="0" transform=" rotate(0, 140, 271)" width="10.5" x="135.0232" y="265.8568"/>
  <polygon fill="#1b9fd8" points="158.2463,265.512 163.4963,255.012 168.7463,265.512" stroke-width="0" transform=" rotate(0, 163, 260)"/>
  <ellipse cx="162.823" cy="256.0533" fill="#1b9fd8" rx="5.25" ry="5.25" stroke-width="0" transform=" rotate(0, 162, 256)"/>
  <rect fill="#1b9fd8" height="10.5" stroke-width="0" transform=" rotate(0, 196, 266)" width="10.5" x="190.9154" y="260.8115"/>
  <polygon fill="#1b9fd8" points="196.0253,262.2365 201.2753,251.7365 206.5253,262.2365" stroke-width="0" transform=" rotate(0, 201, 256)"/>
  <ellipse cx="220.2607" cy="257.7403" fill="#1b9fd8" rx="5.25" ry="5.25" stroke-width="0" transform=" rotate(0, 220, 257)"/>
  <rect fill="#1b9fd8" height="10.5" stroke-width="0" transform=" rotate(0, 233, 265)" width="10.5" x="228.3098" y="259.8893"/>
  <polygon fill="#1b9fd8" points="240.6869,277.3322 245.9369,266.8322 251.1869,277.3322" stroke-width="0" transform=" rotate(0, 245, 272)"/>
  <ellipse cx="269.9737" cy="251.9874" fill="#1b9fd8" rx="5.25" ry="5.25" stroke-width="0" transform=" rotate(0, 269, 251)"/>
  <rect fill="#1b9fd8" height="10.5" stroke-width="0" transform=" rotate(0, 267, 267)" width="10.5" x="262.4932" y="262.6638"/>
  <rect fill="#6dd6ff" height="7.5" stroke-width="0" transform=" rotate(0, 62, 287)" width="7.5" x="58.5748" y="283.4111"/>
  <polygon fill="#6dd6ff" points="62.6978,283.7719 66.4478,276.2719 70.1978,283.7719" stroke-width="0" transform=" rotate(0, 66, 280)"/>
  <ellipse cx="79.7783" cy="283.8666" fill="#6dd6ff" rx="3.75" ry="3.75" stroke-width="0" transform=" rotate(0, 79, 283)"/>
  <rect fill="#6dd6ff" height="7.5" stroke-width="0" transform=" rotate(0, 91, 276)" width="7.5" x="88.1896" y="273.0209"/>
  <polygon fill="#6dd6ff" points="116.2124,288.6546 119.9624,281.1546 123.7124,288.6546" stroke-width="0" transform=" rotate(0, 119, 284)"/>
  <ellipse cx="121.2564" cy="281.6835" fill="#6dd6ff" rx="3.75" ry="3.75" stroke-width="0" transform=" rotate(0, 121, 281)"/>
  <rect fill="#6dd6ff" height="7.5" stroke-width="0" transform=" rotate(0, 143, 281)" width="7.5" x="139.798" y="277.6493"/>
  <polygon fill="#6dd6ff" points="159.2633,271.3449 163.0133,263.8449 166.7633,271.3449" stroke-width="0" transform=" rotate(0, 163, 267)"/>
  <ellipse cx="178.9553" cy="285.2621" fill="#6dd6ff" rx="3.75" ry="3.75" stroke-width="0" transform=" rotate(0, 178, 285)"/>
  <rect fill="#6dd6ff" height="7.5" stroke-width="0" transform=" rotate(0, 185, 271)" width="7.5" x="181.9441" y="268.1225"/>
  <polygon fill="#6dd6ff" points="202.9016,291.5753 206.6516,284.0753 210.4016,291.5753" stroke-width="0" transform=" rotate(0, 206, 287)"/>
  <ellipse cx="213.7004" cy="270.1327" fill="#6dd6ff" rx="3.75" ry="3.75" stroke-width="0" transform=" rotate(0, 213, 270)"/>
  <rect fill="#6dd6ff" height="7.5" stroke-width="0" transform=" rotate(0, 226, 282)" width="7.5" x="222.8856" y="278.926"/>
  <polygon fill="#6dd6ff" points="240.0982,273.1822 243.8482,265.6822 247.5982,273.1822" stroke-width="0" transform=" rotate(0, 243, 269)"/>
  <ellipse cx="255.2003" cy="277.1921" fill="#6dd6ff" rx="3.75" ry="3.75" stroke-width="0" transform=" rotate(0, 255, 277)"/>
  <rect fill="#6dd6ff" height="7.5" stroke-width="0" transform=" rotate(0, 269, 272)" width="7.5" x="265.8368" y="269.0958"/>
</svg>
