<?xml version="1.0" encoding="utf-8" ?>
<svg baseProfile="tiny" height="330" version="1.2" width="330" xmlns="http://www.w3.org/2000/svg" xmlns:ev="http://www.w3.org/2001/xml-events" xmlns:xlink="http://www.w3.org/1999/xlink">
  <defs/>
  <rect fill="white" height="330" width="330" x="0" y="0"/>
  <rect fill="#6dd6ff" height="5" stroke-width="0" transform=" rotate(0, 48, 51)" width="5" x="45.9208" y="48.5486"/>
  <polygon fill="#6dd6ff" points="57.2945,52.3041 59.7945,47.3041 62.2945,52.3041" stroke-width="0" transform=" rotate(0, 59, 49)"/>
  <ellipse cx="70.8683" cy="49.5846" fill="#6dd6ff" rx="2.5" ry="2.5" stroke-width="0" transform=" rotate(0, 70, 49)"/>
  <rect fill="#6dd6ff" height="5" stroke-width="0" transform=" rotate(0, 78, 51)" width="5" x="75.78" y="49.1715"/>
  <polygon fill="#6dd6ff" points="89.0763,53.8112 91.5763,48.8112 94.0763,53.8112" stroke-width="0" transform=" rotate(0, 91, 51)"/>
  <ellipse cx="100.8669" cy="47.9602" fill="#6dd6ff" rx="2.5" ry="2.5" stroke-width="0" transform=" rotate(0, 100, 47)"/>
  <rect fill="#6dd6ff" height="5" stroke-width="0" transform=" rotate(0, 110, 51)" width="5" x="107.5697" y="48.8597"/>
  <polygon fill="#6dd6ff" points="115.8115,54.2659 118.3115,49.2659 120.8115,54.2659" stroke-width="0" transform=" rotate(0, 118, 51)"/>
  <ellipse cx="131.3691" cy="51.3434" fill="#6dd6ff" rx="2.5" ry="2.5" stroke-width="0" transform=" rotate(0, 131, 51)"/>
  <rect fill="#6dd6ff" height="5" stroke-width="0" transform=" rotate(0, 139, 51)" width="5" x="137.047" y="49.3147"/>
  <polygon fill="#6dd6ff" points="146.2706,54.2471 148.7706,49.2471 151.2706,54.2471" stroke-width="0" transform=" rotate(0, 148, 51)"/>
  <ellipse cx="160.3992" cy="48.3158" fill="#6dd6ff" rx="2.5" ry="2.5" stroke-width="0" transform=" rotate(0, 160, 48)"/>
  <rect fill="#6dd6ff" height="5" stroke-width="0" transform=" rotate(0, 171, 49)" width="5" x="169.3464" y="46.7384"/>
  <polygon fill="#6dd6ff" points="176.1451,52.2397 178.6451,47.2397 181.1451,52.2397" stroke-width="0" transform=" rotate(0, 178, 49)"/>
  <ellipse cx="190.2768" cy="48.8445" fill="#6dd6ff" rx="2.5" ry="2.5" stroke-width="0" transform=" rotate(0, 190, 48)"/>
  <rect fill="#6dd6ff" height="5" stroke-width="0" transform=" rotate(0, 200, 50)" width="5" x="198.2723" y="47.9446"/>
  <polygon fill="#6dd6ff" points="206.0964,52.8623 208.5964,47.8623 211.0964,52.8623" stroke-width="0" transform=" rotate(0, 208, 50)"/>
  <ellipse cx="220.0795" cy="48.3009" fill="#6dd6ff" rx="2.5" ry="2.5" stroke-width="0" transform=" rotate(0, 220, 48)"/>
  <rect fill="#6dd6ff" height="5" stroke-width="0" transform=" rotate(0, 230, 51)" width="5" x="228.2157" y="49.2764"/>
  <polygon fill="#6dd6ff" points="237.3808,50.5149 239.8808,45.5149 242.3808,50.5149" stroke-width="0" transform=" rotate(0, 239, 48)"/>
  <ellipse cx="248.6484" cy="50.8943" fill="#6dd6ff" rx="2.5" ry="2.5" stroke-width="0" transform=" rotate(0, 248, 50)"/>
  <rect fill="#6dd6ff" height="5" stroke-width="0" transform=" rotate(0, 260, 48)" width="5" x="258.1446" y="46.1611"/>
  <polygon fill="#6dd6ff" points="267.2592,51.7238 269.7592,46.7238 272.2592,51.7238" stroke-width="0" transform=" rotate(0, 269, 49)"/>
  <ellipse cx="281.5763" cy="49.8465" fill="#6dd6ff" rx="2.5" ry="2.5" stroke-width="0" transform=" rotate(0, 281, 49)"/>
  <rect fill="#1b9fd8" height="7" stroke-width="0" transform=" rotate(0, 49, 60)" width="7" x="46.3464" y="56.8978"/>
  <polygon fill="#1b9fd8" points="56.8224,62.5162 60.3224,55.5162 63.8224,62.5162" stroke-width="0" transform=" rotate(0, 60, 59)"/>
  <ellipse cx="70.7989" cy="61.4722" fill="#1b9fd8" rx="3.5" ry="3.5" stroke-width="0" transform=" rotate(0, 70, 61)"/>
  <rect fill="#1b9fd8" height="7" stroke-width="0" transform=" rotate(0, 79, 60)" width="7" x="75.5817" y="57.1123"/>
  <polygon fill="#1b9fd8" points="87.1918,62.1991 90.6918,55.1991 94.1918,62.1991" stroke-width="0" transform=" rotate(0, 90, 58)"/>
  <ellipse cx="101.8647" cy="60.7469" fill="#1b9fd8" rx="3.5" ry="3.5" stroke-width="0" transform=" rotate(0, 101, 60)"/>
  <rect fill="#1b9fd8" height="7" stroke-width="0" transform=" rotate(0, 108, 60)" width="7" x="104.7016" y="57.3675"/>
  <polygon fill="#1b9fd8" points="116.0488,64.9222 119.5488,57.9222 123.0488,64.9222" stroke-width="0" transform=" rotate(0, 119, 61)"/>
  <ellipse cx="130.7351" cy="59.2109" fill="#1b9fd8" rx="3.5" ry="3.5" stroke-width="0" transform=" rotate(0, 130, 59)"/>
  <rect fill="#1b9fd8" height="7" stroke-width="0" transform=" rotate(0, 139, 58)" width="7" x="136.3508" y="55.4093"/>
  <polygon fill="#1b9fd8" points="148.352,64.4862 151.852,57.4862 155.352,64.4862" stroke-width="0" transform=" rotate(0, 151, 60)"/>
  <ellipse cx="160.8044" cy="58.9487" fill="#1b9fd8" rx="3.5" ry="3.5" stroke-width="0" transform=" rotate(0, 160, 58)"/>
  <rect fill="#1b9fd8" height="7" stroke-width="0" transform=" rotate(0, 169, 61)" width="7" x="166.4977" y="57.7351"/>
  <polygon fill="#1b9fd8" points="178.2436,64.5499 181.7436,57.5499 185.2436,64.5499" stroke-width="0" transform=" rotate(0, 181, 61)"/>
  <ellipse cx="190.6479" cy="59.8145" fill="#1b9fd8" rx="3.5" ry="3.5" stroke-width="0" transform=" rotate(0, 190, 59)"/>
  <rect fill="#1b9fd8" height="7" stroke-width="0" transform=" rotate(0, 200, 61)" width="7" x="197.0071" y="58.3642"/>
  <polygon fill="#1b9fd8" points="206.8455,63.3961 210.3455,56.3961 213.8455,63.3961" stroke-width="0" transform=" rotate(0, 210, 59)"/>
  <ellipse cx="220.4785" cy="61.5756" fill="#1b9fd8" rx="3.5" ry="3.5" stroke-width="0" transform=" rotate(0, 220, 61)"/>
  <rect fill="#1b9fd8" height="7" stroke-width="0" transform=" rotate(0, 230, 60)" width="7" x="227.1108" y="56.7168"/>
  <polygon fill="#1b9fd8" points="238.4177,63.2808 241.9177,56.2808 245.4177,63.2808" stroke-width="0" transform=" rotate(0, 241, 59)"/>
  <ellipse cx="249.3573" cy="58.9059" fill="#1b9fd8" rx="3.5" ry="3.5" stroke-width="0" transform=" rotate(0, 249, 58)"/>
  <rect fill="#1b9fd8" height="7" stroke-width="0" transform=" rotate(0, 261, 58)" width="7" x="258.2543" y="54.5923"/>
  <polygon fill="#1b9fd8" points="265.9977,62.7261 269.4977,55.7261 272.9977,62.7261" stroke-width="0" transform=" rotate(0, 269, 59)"/>
  <ellipse cx="279.059" cy="60.197" fill="#1b9fd8" rx="3.5" ry="3.5" stroke-width="0" transform=" rotate(0, 279, 60)"/>
  <rect fill="#006ca1" height="9" stroke-width="0" transform=" rotate(0, 48, 68)" width="9" x="43.7861" y="63.5018"/>
  <polygon fill="#006ca1" points="57.2684,76.0083 61.7684,67.0083 66.2684,76.0083" stroke-width="0" transform=" rotate(0, 61, 71)"/>
  <ellipse cx="68.5422" cy="70.5872" fill="#006ca1" rx="4.5" ry="4.5" stroke-width="0" transform=" rotate(0, 68, 70)"/>
  <rect fill="#006ca1" height="9" stroke-width="0" transform=" rotate(0, 79, 70)" width="9" x="75.0419" y="66.1118"/>
  <polygon fill="#006ca1" points="87.1218,75.7639 91.6218,66.7639 96.1218,75.7639" stroke-width="0" transform=" rotate(0, 91, 71)"/>
  <ellipse cx="100.9746" cy="71.2548" fill="#006ca1" rx="4.5" ry="4.5" stroke-width="0" transform=" rotate(0, 100, 71)"/>
  <rect fill="#006ca1" height="9" stroke-width="0" transform=" rotate(0, 109, 68)" width="9" x="104.5391" y="64.2999"/>
  <polygon fill="#006ca1" points="114.9372,72.7544 119.4372,63.7544 123.9372,72.7544" stroke-width="0" transform=" rotate(0, 119, 68)"/>
  <ellipse cx="129.7548" cy="71.4783" fill="#006ca1" rx="4.5" ry="4.5" stroke-width="0" transform=" rotate(0, 129, 71)"/>
  <rect fill="#006ca1" height="9" stroke-width="0" transform=" rotate(0, 139, 70)" width="9" x="134.7338" y="66.043"/>
  <polygon fill="#006ca1" points="145.1007,72.503 149.6007,63.503 154.1007,72.503" stroke-width="0" transform=" rotate(0, 149, 68)"/>
  <ellipse cx="159.0499" cy="68.7628" fill="#006ca1" rx="4.5" ry="4.5" stroke-width="0" transform=" rotate(0, 159, 68)"/>
  <rect fill="#006ca1" height="9" stroke-width="0" transform=" rotate(0, 168, 69)" width="9" x="163.8247" y="65.2249"/>
  <polygon fill="#006ca1" points="177.0031,75.4829 181.5031,66.4829 186.0031,75.4829" stroke-width="0" transform=" rotate(0, 181, 70)"/>
  <ellipse cx="188.1112" cy="69.4866" fill="#006ca1" rx="4.5" ry="4.5" stroke-width="0" transform=" rotate(0, 188, 69)"/>
  <rect fill="#006ca1" height="9" stroke-width="0" transform=" rotate(0, 200, 70)" width="9" x="196.1364" y="65.5378"/>
  <polygon fill="#006ca1" points="203.8837,73.9518 208.3837,64.9518 212.8837,73.9518" stroke-width="0" transform=" rotate(0, 208, 69)"/>
  <ellipse cx="219.74" cy="69.0774" fill="#006ca1" rx="4.5" ry="4.5" stroke-width="0" transform=" rotate(0, 219, 69)"/>
  <rect fill="#006ca1" height="9" stroke-width="0" transform=" rotate(0, 228, 69)" width="9" x="223.8292" y="65.2878"/>
  <polygon fill="#006ca1" points="236.692,73.7804 241.192,64.7804 245.692,73.7804" stroke-width="0" transform=" rotate(0, 241, 69)"/>
  <ellipse cx="250.2423" cy="68.5446" fill="#006ca1" rx="4.5" ry="4.5" stroke-width="0" transform=" rotate(0, 250, 68)"/>
  <rect fill="#006ca1" height="9" stroke-width="0" transform=" rotate(0, 259, 70)" width="9" x="254.8926" y="65.8773"/>
  <polygon fill="#006ca1" points="267.0074,76.0775 271.5074,67.0775 276.0074,76.0775" stroke-width="0" transform=" rotate(0, 271, 71)"/>
  <ellipse cx="279.5196" cy="71.6109" fill="#006ca1" rx="4.5" ry="4.5" stroke-width="0" transform=" rotate(0, 279, 71)"/>
  <rect fill="#6dd6ff" height="5" stroke-width="0" transform=" rotate(0, 48, 81)" width="5" x="46.2431" y="78.6152"/>
  <polygon fill="#6dd6ff" points="57.425,82.6453 59.925,77.6453 62.425,82.6453" stroke-width="0" transform=" rotate(0, 59, 80)"/>
  <ellipse cx="70.586" cy="80.4235" fill="#6dd6ff" rx="2.5" ry="2.5" stroke-width="0" transform=" rotate(0, 70, 80)"/>
  <rect fill="#6dd6ff" height="5" stroke-width="0" transform=" rotate(0, 78, 79)" width="5" x="76.1919" y="77.4832"/>
  <polygon fill="#6dd6ff" points="87.0517,83.9939 89.5517,78.9939 92.0517,83.9939" stroke-width="0" transform=" rotate(0, 89, 81)"/>
  <ellipse cx="98.7265" cy="78.0314" fill="#6dd6ff" rx="2.5" ry="2.5" stroke-width="0" transform=" rotate(0, 98, 78)"/>
  <rect fill="#6dd6ff" height="5" stroke-width="0" transform=" rotate(0, 108, 80)" width="5" x="106.1559" y="77.6981"/>
  <polygon fill="#6dd6ff" points="117.9613,84.2405 120.4613,79.2405 122.9613,84.2405" stroke-width="0" transform=" rotate(0, 120, 81)"/>
  <ellipse cx="130.8039" cy="80.9302" fill="#6dd6ff" rx="2.5" ry="2.5" stroke-width="0" transform=" rotate(0, 130, 80)"/>
  <rect fill="#6dd6ff" height="5" stroke-width="0" transform=" rotate(0, 138, 78)" width="5" x="135.5391" y="76.0688"/>
  <polygon fill="#6dd6ff" points="146.5013,81.4228 149.0013,76.4228 151.5013,81.4228" stroke-width="0" transform=" rotate(0, 149, 78)"/>
  <ellipse cx="158.4241" cy="79.6065" fill="#6dd6ff" rx="2.5" ry="2.5" stroke-width="0" transform=" rotate(0, 158, 79)"/>
  <rect fill="#6dd6ff" height="5" stroke-width="0" transform=" rotate(0, 171, 78)" width="5" x="168.6364" y="76.0671"/>
  <polygon fill="#6dd6ff" points="179.4727,82.2734 181.9727,77.2734 184.4727,82.2734" stroke-width="0" transform=" rotate(0, 181, 79)"/>
  <ellipse cx="188.5537" cy="81.0329" fill="#6dd6ff" rx="2.5" ry="2.5" stroke-width="0" transform=" rotate(0, 188, 81)"/>
  <rect fill="#6dd6ff" height="5" stroke-width="0" transform=" rotate(0, 200, 81)" width="5" x="198.0821" y="79.011"/>
  <polygon fill="#6dd6ff" points="208.6957,80.529 211.1957,75.529 213.6957,80.529" stroke-width="0" transform=" rotate(0, 211, 78)"/>
  <ellipse cx="218.3768" cy="80.1104" fill="#6dd6ff" rx="2.5" ry="2.5" stroke-width="0" transform=" rotate(0, 218, 80)"/>
  <rect fill="#6dd6ff" height="5" stroke-width="0" transform=" rotate(0, 229, 81)" width="5" x="226.9156" y="78.8273"/>
  <polygon fill="#6dd6ff" points="236.9622,80.4781 239.4622,75.4781 241.9622,80.4781" stroke-width="0" transform=" rotate(0, 239, 77)"/>
  <ellipse cx="248.5253" cy="81.737" fill="#6dd6ff" rx="2.5" ry="2.5" stroke-width="0" transform=" rotate(0, 248, 81)"/>
  <rect fill="#6dd6ff" height="5" stroke-width="0" transform=" rotate(0, 258, 81)" width="5" x="255.7231" y="78.7892"/>
  <polygon fill="#6dd6ff" points="266.2722,82.5326 268.7722,77.5326 271.2722,82.5326" stroke-width="0" transform=" rotate(0, 268, 80)"/>
  <ellipse cx="279.465" cy="79.5907" fill="#6dd6ff" rx="2.5" ry="2.5" stroke-width="0" transform=" rotate(0, 279, 79)"/>
  <rect fill="#1b9fd8" height="7" stroke-width="0" transform=" rotate(0, 49, 88)" width="7" x="46.027" y="84.9406"/>
  <polygon fill="#1b9fd8" points="55.3686,95.4366 58.8686,88.4366 62.3686,95.4366" stroke-width="0" transform=" rotate(0, 58, 91)"/>
  <ellipse cx="70.7799" cy="89.3339" fill="#1b9fd8" rx="3.5" ry="3.5" stroke-width="0" transform=" rotate(0, 70, 89)"/>
  <rect fill="#1b9fd8" height="7" stroke-width="0" transform=" rotate(0, 79, 89)" width="7" x="75.9231" y="86.299"/>
  <polygon fill="#1b9fd8" points="88.3668,93.6602 91.8668,86.6602 95.3668,93.6602" stroke-width="0" transform=" rotate(0, 91, 90)"/>
  <ellipse cx="100.3222" cy="89.9458" fill="#1b9fd8" rx="3.5" ry="3.5" stroke-width="0" transform=" rotate(0, 100, 89)"/>
  <rect fill="#1b9fd8" height="7" stroke-width="0" transform=" rotate(0, 111, 91)" width="7" x="108.0111" y="88.3473"/>
  <polygon fill="#1b9fd8" points="115.0078,91.6463 118.5078,84.6463 122.0078,91.6463" stroke-width="0" transform=" rotate(0, 118, 88)"/>
  <ellipse cx="129.4507" cy="88.8627" fill="#1b9fd8" rx="3.5" ry="3.5" stroke-width="0" transform=" rotate(0, 129, 88)"/>
  <rect fill="#1b9fd8" height="7" stroke-width="0" transform=" rotate(0, 141, 91)" width="7" x="138.1073" y="88.1839"/>
  <polygon fill="#1b9fd8" points="145.9675,93.1992 149.4675,86.1992 152.9675,93.1992" stroke-width="0" transform=" rotate(0, 149, 89)"/>
  <ellipse cx="158.421" cy="91.3013" fill="#1b9fd8" rx="3.5" ry="3.5" stroke-width="0" transform=" rotate(0, 158, 91)"/>
  <rect fill="#1b9fd8" height="7" stroke-width="0" transform=" rotate(0, 169, 89)" width="7" x="165.957" y="85.9201"/>
  <polygon fill="#1b9fd8" points="177.0947,94.5508 180.5947,87.5508 184.0947,94.5508" stroke-width="0" transform=" rotate(0, 180, 91)"/>
  <ellipse cx="189.5553" cy="89.7127" fill="#1b9fd8" rx="3.5" ry="3.5" stroke-width="0" transform=" rotate(0, 189, 89)"/>
  <rect fill="#1b9fd8" height="7" stroke-width="0" transform=" rotate(0, 201, 88)" width="7" x="198.2395" y="85.3543"/>
  <polygon fill="#1b9fd8" points="205.2784,95.2765 208.7784,88.2765 212.2784,95.2765" stroke-width="0" transform=" rotate(0, 208, 91)"/>
  <ellipse cx="218.9642" cy="88.4728" fill="#1b9fd8" rx="3.5" ry="3.5" stroke-width="0" transform=" rotate(0, 218, 88)"/>
  <rect fill="#1b9fd8" height="7" stroke-width="0" transform=" rotate(0, 231, 88)" width="7" x="228.3781" y="85.0166"/>
  <polygon fill="#1b9fd8" points="235.5618,93.5457 239.0618,86.5457 242.5618,93.5457" stroke-width="0" transform=" rotate(0, 239, 90)"/>
  <ellipse cx="251.2473" cy="89.0921" fill="#1b9fd8" rx="3.5" ry="3.5" stroke-width="0" transform=" rotate(0, 251, 89)"/>
  <rect fill="#1b9fd8" height="7" stroke-width="0" transform=" rotate(0, 258, 89)" width="7" x="254.8607" y="86.2929"/>
  <polygon fill="#1b9fd8" points="264.9216,93.6902 268.4216,86.6902 271.9216,93.6902" stroke-width="0" transform=" rotate(0, 268, 90)"/>
  <ellipse cx="279.188" cy="89.7551" fill="#1b9fd8" rx="3.5" ry="3.5" stroke-width="0" transform=" rotate(0, 279, 89)"/>
  <rect fill="#006ca1" height="9" stroke-width="0" transform=" rotate(0, 51, 101)" width="9" x="46.9956" y="97.1301"/>
  <polygon fill="#006ca1" points="57.0893,104.1676 61.5893,95.1676 66.0893,104.1676" stroke-width="0" transform=" rotate(0, 61, 99)"/>
  <ellipse cx="71.4776" cy="100.1353" fill="#006ca1" rx="4.5" ry="4.5" stroke-width="0" transform=" rotate(0, 71, 100)"/>
  <rect fill="#006ca1" height="9" stroke-width="0" transform=" rotate(0, 81, 98)" width="9" x="77.0698" y="93.6211"/>
  <polygon fill="#006ca1" points="83.8231,103.1821 88.3231,94.1821 92.8231,103.1821" stroke-width="0" transform=" rotate(0, 88, 98)"/>
  <ellipse cx="99.4825" cy="100.7224" fill="#006ca1" rx="4.5" ry="4.5" stroke-width="0" transform=" rotate(0, 99, 100)"/>
  <rect fill="#006ca1" height="9" stroke-width="0" transform=" rotate(0, 110, 101)" width="9" x="106.208" y="97.2317"/>
  <polygon fill="#006ca1" points="116.5813,103.1196 121.0813,94.1196 125.5813,103.1196" stroke-width="0" transform=" rotate(0, 121, 98)"/>
  <ellipse cx="131.0148" cy="100.5051" fill="#006ca1" rx="4.5" ry="4.5" stroke-width="0" transform=" rotate(0, 131, 100)"/>
  <rect fill="#006ca1" height="9" stroke-width="0" transform=" rotate(0, 139, 98)" width="9" x="135.2935" y="94.3176"/>
  <polygon fill="#006ca1" points="146.447,106.1374 150.947,97.1374 155.447,106.1374" stroke-width="0" transform=" rotate(0, 150, 101)"/>
  <ellipse cx="160.9517" cy="100.2309" fill="#006ca1" rx="4.5" ry="4.5" stroke-width="0" transform=" rotate(0, 160, 100)"/>
  <rect fill="#006ca1" height="9" stroke-width="0" transform=" rotate(0, 171, 101)" width="9" x="167.195" y="96.9438"/>
  <polygon fill="#006ca1" points="173.5986,104.8372 178.0986,95.8372 182.5986,104.8372" stroke-width="0" transform=" rotate(0, 178, 100)"/>
  <ellipse cx="191.0738" cy="100.7148" fill="#006ca1" rx="4.5" ry="4.5" stroke-width="0" transform=" rotate(0, 191, 100)"/>
  <rect fill="#006ca1" height="9" stroke-width="0" transform=" rotate(0, 200, 99)" width="9" x="196.3743" y="94.5682"/>
  <polygon fill="#006ca1" points="206.0592,103.1939 210.5592,94.1939 215.0592,103.1939" stroke-width="0" transform=" rotate(0, 210, 98)"/>
  <ellipse cx="220.3674" cy="99.2633" fill="#006ca1" rx="4.5" ry="4.5" stroke-width="0" transform=" rotate(0, 220, 99)"/>
  <rect fill="#006ca1" height="9" stroke-width="0" transform=" rotate(0, 228, 101)" width="9" x="224.3636" y="96.8494"/>
  <polygon fill="#006ca1" points="236.762,103.2704 241.262,94.2704 245.762,103.2704" stroke-width="0" transform=" rotate(0, 241, 98)"/>
  <ellipse cx="250.9807" cy="100.2975" fill="#006ca1" rx="4.5" ry="4.5" stroke-width="0" transform=" rotate(0, 250, 100)"/>
  <rect fill="#006ca1" height="9" stroke-width="0" transform=" rotate(0, 258, 99)" width="9" x="254.2262" y="95.0962"/>
  <polygon fill="#006ca1" points="263.9106,104.9083 268.4106,95.9083 272.9106,104.9083" stroke-width="0" transform=" rotate(0, 268, 100)"/>
  <ellipse cx="281.6547" cy="98.7301" fill="#006ca1" rx="4.5" ry="4.5" stroke-width="0" transform=" rotate(0, 281, 98)"/>
  <rect fill="#6dd6ff" height="5" stroke-width="0" transform=" rotate(0, 48, 111)" width="5" x="46.3962" y="108.7457"/>
  <polygon fill="#6dd6ff" points="55.8543,111.768 58.3543,106.768 60.8543,111.768" stroke-width="0" transform=" rotate(0, 58, 109)"/>
  <ellipse cx="68.0296" cy="110.9826" fill="#6dd6ff" rx="2.5" ry="2.5" stroke-width="0" transform=" rotate(0, 68, 110)"/>
  <rect fill="#6dd6ff" height="5" stroke-width="0" transform=" rotate(0, 80, 110)" width="5" x="78.0931" y="107.7898"/>
  <polygon fill="#6dd6ff" points="85.7032,112.0559 88.2032,107.0559 90.7032,112.0559" stroke-width="0" transform=" rotate(0, 88, 109)"/>
  <ellipse cx="98.7775" cy="111.4786" fill="#6dd6ff" rx="2.5" ry="2.5" stroke-width="0" transform=" rotate(0, 98, 111)"/>
  <rect fill="#6dd6ff" height="5" stroke-width="0" transform=" rotate(0, 110, 110)" width="5" x="108.4124" y="108.4869"/>
  <polygon fill="#6dd6ff" points="118.1756,112.5224 120.6756,107.5224 123.1756,112.5224" stroke-width="0" transform=" rotate(0, 120, 110)"/>
  <ellipse cx="130.6421" cy="108.9868" fill="#6dd6ff" rx="2.5" ry="2.5" stroke-width="0" transform=" rotate(0, 130, 108)"/>
  <rect fill="#6dd6ff" height="5" stroke-width="0" transform=" rotate(0, 141, 108)" width="5" x="139.307" y="105.6993"/>
  <polygon fill="#6dd6ff" points="148.0597,113.1982 150.5597,108.1982 153.0597,113.1982" stroke-width="0" transform=" rotate(0, 150, 110)"/>
  <ellipse cx="160.8301" cy="109.8618" fill="#6dd6ff" rx="2.5" ry="2.5" stroke-width="0" transform=" rotate(0, 160, 109)"/>
  <rect fill="#6dd6ff" height="5" stroke-width="0" transform=" rotate(0, 169, 110)" width="5" x="167.1512" y="107.5173"/>
  <polygon fill="#6dd6ff" points="178.6129,114.3892 181.1129,109.3892 183.6129,114.3892" stroke-width="0" transform=" rotate(0, 181, 111)"/>
  <ellipse cx="189.2176" cy="110.6986" fill="#6dd6ff" rx="2.5" ry="2.5" stroke-width="0" transform=" rotate(0, 189, 110)"/>
  <rect fill="#6dd6ff" height="5" stroke-width="0" transform=" rotate(0, 201, 108)" width="5" x="199.2817" y="106.278"/>
  <polygon fill="#6dd6ff" points="207.5493,114.1433 210.0493,109.1433 212.5493,114.1433" stroke-width="0" transform=" rotate(0, 210, 111)"/>
  <ellipse cx="219.2325" cy="110.076" fill="#6dd6ff" rx="2.5" ry="2.5" stroke-width="0" transform=" rotate(0, 219, 110)"/>
  <rect fill="#6dd6ff" height="5" stroke-width="0" transform=" rotate(0, 231, 111)" width="5" x="229.151" y="108.5884"/>
  <polygon fill="#6dd6ff" points="239.2338,110.5335 241.7338,105.5335 244.2338,110.5335" stroke-width="0" transform=" rotate(0, 241, 108)"/>
  <ellipse cx="251.6161" cy="109.495" fill="#6dd6ff" rx="2.5" ry="2.5" stroke-width="0" transform=" rotate(0, 251, 109)"/>
  <rect fill="#6dd6ff" height="5" stroke-width="0" transform=" rotate(0, 258, 108)" width="5" x="256.1205" y="106.0116"/>
  <polygon fill="#6dd6ff" points="267.1484,111.6964 269.6484,106.6964 272.1484,111.6964" stroke-width="0" transform=" rotate(0, 269, 109)"/>
  <ellipse cx="280.9949" cy="109.7352" fill="#6dd6ff" rx="2.5" ry="2.5" stroke-width="0" transform=" rotate(0, 280, 109)"/>
  <rect fill="#1b9fd8" height="7" stroke-width="0" transform=" rotate(0, 50, 121)" width="7" x="47.0595" y="118.1351"/>
  <polygon fill="#1b9fd8" points="56.4569,124.9313 59.9569,117.9313 63.4569,124.9313" stroke-width="0" transform=" rotate(0, 59, 121)"/>
  <ellipse cx="71.5808" cy="119.7587" fill="#1b9fd8" rx="3.5" ry="3.5" stroke-width="0" transform=" rotate(0, 71, 119)"/>
  <rect fill="#1b9fd8" height="7" stroke-width="0" transform=" rotate(0, 78, 118)" width="7" x="75.2916" y="115.0616"/>
  <polygon fill="#1b9fd8" points="85.991,124.9805 89.491,117.9805 92.991,124.9805" stroke-width="0" transform=" rotate(0, 89, 121)"/>
  <ellipse cx="101.3797" cy="119.7324" fill="#1b9fd8" rx="3.5" ry="3.5" stroke-width="0" transform=" rotate(0, 101, 119)"/>
  <rect fill="#1b9fd8" height="7" stroke-width="0" transform=" rotate(0, 110, 121)" width="7" x="107.2561" y="118.1074"/>
  <polygon fill="#1b9fd8" points="118.3723,123.0592 121.8723,116.0592 125.3723,123.0592" stroke-width="0" transform=" rotate(0, 121, 119)"/>
  <ellipse cx="130.4085" cy="118.3149" fill="#1b9fd8" rx="3.5" ry="3.5" stroke-width="0" transform=" rotate(0, 130, 118)"/>
  <rect fill="#1b9fd8" height="7" stroke-width="0" transform=" rotate(0, 140, 119)" width="7" x="136.8191" y="116.0721"/>
  <polygon fill="#1b9fd8" points="146.3591,123.5743 149.8591,116.5743 153.3591,123.5743" stroke-width="0" transform=" rotate(0, 149, 120)"/>
  <ellipse cx="161.0573" cy="121.6308" fill="#1b9fd8" rx="3.5" ry="3.5" stroke-width="0" transform=" rotate(0, 161, 121)"/>
  <rect fill="#1b9fd8" height="7" stroke-width="0" transform=" rotate(0, 168, 120)" width="7" x="164.5532" y="117.0829"/>
  <polygon fill="#1b9fd8" points="175.2518,121.6179 178.7518,114.6179 182.2518,121.6179" stroke-width="0" transform=" rotate(0, 178, 118)"/>
  <ellipse cx="188.9151" cy="121.8762" fill="#1b9fd8" rx="3.5" ry="3.5" stroke-width="0" transform=" rotate(0, 188, 121)"/>
  <rect fill="#1b9fd8" height="7" stroke-width="0" transform=" rotate(0, 200, 119)" width="7" x="196.5763" y="116.2826"/>
  <polygon fill="#1b9fd8" points="208.4075,122.0376 211.9075,115.0376 215.4075,122.0376" stroke-width="0" transform=" rotate(0, 211, 118)"/>
  <ellipse cx="219.479" cy="119.3362" fill="#1b9fd8" rx="3.5" ry="3.5" stroke-width="0" transform=" rotate(0, 219, 119)"/>
  <rect fill="#1b9fd8" height="7" stroke-width="0" transform=" rotate(0, 230, 121)" width="7" x="227.483" y="117.6406"/>
  <polygon fill="#1b9fd8" points="236.7865,125.1044 240.2865,118.1044 243.7865,125.1044" stroke-width="0" transform=" rotate(0, 240, 121)"/>
  <ellipse cx="251.7915" cy="119.7404" fill="#1b9fd8" rx="3.5" ry="3.5" stroke-width="0" transform=" rotate(0, 251, 119)"/>
  <rect fill="#1b9fd8" height="7" stroke-width="0" transform=" rotate(0, 260, 119)" width="7" x="257.3853" y="115.6231"/>
  <polygon fill="#1b9fd8" points="268.3133,125.1959 271.8133,118.1959 275.3133,125.1959" stroke-width="0" transform=" rotate(0, 271, 121)"/>
  <ellipse cx="281.8572" cy="119.4864" fill="#1b9fd8" rx="3.5" ry="3.5" stroke-width="0" transform=" rotate(0, 281, 119)"/>
  <rect fill="#006ca1" height="9" stroke-width="0" transform=" rotate(0, 49, 130)" width="9" x="45.0331" y="126.0858"/>
  <polygon fill="#006ca1" points="56.369,135.5797 60.869,126.5797 65.369,135.5797" stroke-width="0" transform=" rotate(0, 60, 131)"/>
  <ellipse cx="70.0777" cy="131.3478" fill="#006ca1" rx="4.5" ry="4.5" stroke-width="0" transform=" rotate(0, 70, 131)"/>
  <rect fill="#006ca1" height="9" stroke-width="0" transform=" rotate(0, 80, 131)" width="9" x="75.6545" y="126.8948"/>
  <polygon fill="#006ca1" points="87.4387,133.2337 91.9387,124.2337 96.4387,133.2337" stroke-width="0" transform=" rotate(0, 91, 128)"/>
  <ellipse cx="100.259" cy="128.9633" fill="#006ca1" rx="4.5" ry="4.5" stroke-width="0" transform=" rotate(0, 100, 128)"/>
  <rect fill="#006ca1" height="9" stroke-width="0" transform=" rotate(0, 111, 130)" width="9" x="106.5913" y="125.6819"/>
  <polygon fill="#006ca1" points="115.406,135.1555 119.906,126.1555 124.406,135.1555" stroke-width="0" transform=" rotate(0, 119, 130)"/>
  <ellipse cx="130.3307" cy="130.0452" fill="#006ca1" rx="4.5" ry="4.5" stroke-width="0" transform=" rotate(0, 130, 130)"/>
  <rect fill="#006ca1" height="9" stroke-width="0" transform=" rotate(0, 139, 130)" width="9" x="134.9078" y="126.3706"/>
  <polygon fill="#006ca1" points="145.4595,134.9693 149.9595,125.9693 154.4595,134.9693" stroke-width="0" transform=" rotate(0, 149, 130)"/>
  <ellipse cx="158.8342" cy="130.4892" fill="#006ca1" rx="4.5" ry="4.5" stroke-width="0" transform=" rotate(0, 158, 130)"/>
  <rect fill="#006ca1" height="9" stroke-width="0" transform=" rotate(0, 169, 130)" width="9" x="165.1333" y="126.0502"/>
  <polygon fill="#006ca1" points="176.4532,134.2198 180.9532,125.2198 185.4532,134.2198" stroke-width="0" transform=" rotate(0, 180, 129)"/>
  <ellipse cx="191.1" cy="130.6661" fill="#006ca1" rx="4.5" ry="4.5" stroke-width="0" transform=" rotate(0, 191, 130)"/>
  <rect fill="#006ca1" height="9" stroke-width="0" transform=" rotate(0, 198, 131)" width="9" x="194.1495" y="127.4487"/>
  <polygon fill="#006ca1" points="204.7533,134.3533 209.2533,125.3533 213.7533,134.3533" stroke-width="0" transform=" rotate(0, 209, 129)"/>
  <ellipse cx="220.5961" cy="131.0363" fill="#006ca1" rx="4.5" ry="4.5" stroke-width="0" transform=" rotate(0, 220, 131)"/>
  <rect fill="#006ca1" height="9" stroke-width="0" transform=" rotate(0, 231, 131)" width="9" x="227.2791" y="126.9556"/>
  <polygon fill="#006ca1" points="234.3425,134.0627 238.8425,125.0627 243.3425,134.0627" stroke-width="0" transform=" rotate(0, 238, 129)"/>
  <ellipse cx="251.5313" cy="128.4528" fill="#006ca1" rx="4.5" ry="4.5" stroke-width="0" transform=" rotate(0, 251, 128)"/>
  <rect fill="#006ca1" height="9" stroke-width="0" transform=" rotate(0, 259, 130)" width="9" x="254.7512" y="125.7504"/>
  <polygon fill="#006ca1" points="265.9106,132.5509 270.4106,123.5509 274.9106,132.5509" stroke-width="0" transform=" rotate(0, 270, 128)"/>
  <ellipse cx="278.5798" cy="131.3882" fill="#006ca1" rx="4.5" ry="4.5" stroke-width="0" transform=" rotate(0, 278, 131)"/>
  <rect fill="#6dd6ff" height="5" stroke-width="0" transform=" rotate(0, 48, 141)" width="5" x="46.0201" y="138.9183"/>
  <polygon fill="#6dd6ff" points="57.7181,143.0408 60.2181,138.0408 62.7181,143.0408" stroke-width="0" transform=" rotate(0, 60, 140)"/>
  <ellipse cx="71.2518" cy="140.0368" fill="#6dd6ff" rx="2.5" ry="2.5" stroke-width="0" transform=" rotate(0, 71, 140)"/>
  <rect fill="#6dd6ff" height="5" stroke-width="0" transform=" rotate(0, 80, 141)" width="5" x="77.7329" y="139.0849"/>
  <polygon fill="#6dd6ff" points="86.4326,141.1002 88.9326,136.1002 91.4326,141.1002" stroke-width="0" transform=" rotate(0, 88, 138)"/>
  <ellipse cx="99.29" cy="141.1784" fill="#6dd6ff" rx="2.5" ry="2.5" stroke-width="0" transform=" rotate(0, 99, 141)"/>
  <rect fill="#6dd6ff" height="5" stroke-width="0" transform=" rotate(0, 108, 141)" width="5" x="106.4752" y="138.9425"/>
  <polygon fill="#6dd6ff" points="117.1212,142.5519 119.6212,137.5519 122.1212,142.5519" stroke-width="0" transform=" rotate(0, 119, 140)"/>
  <ellipse cx="131.6809" cy="141.9198" fill="#6dd6ff" rx="2.5" ry="2.5" stroke-width="0" transform=" rotate(0, 131, 141)"/>
  <rect fill="#6dd6ff" height="5" stroke-width="0" transform=" rotate(0, 139, 141)" width="5" x="137.0858" y="138.9867"/>
  <polygon fill="#6dd6ff" points="147.9493,142.9764 150.4493,137.9764 152.9493,142.9764" stroke-width="0" transform=" rotate(0, 150, 140)"/>
  <ellipse cx="159.7424" cy="139.6025" fill="#6dd6ff" rx="2.5" ry="2.5" stroke-width="0" transform=" rotate(0, 159, 139)"/>
  <rect fill="#6dd6ff" height="5" stroke-width="0" transform=" rotate(0, 169, 138)" width="5" x="166.7353" y="136.256"/>
  <polygon fill="#6dd6ff" points="175.495,140.9373 177.995,135.9373 180.495,140.9373" stroke-width="0" transform=" rotate(0, 177, 138)"/>
  <ellipse cx="189.6169" cy="141.2974" fill="#6dd6ff" rx="2.5" ry="2.5" stroke-width="0" transform=" rotate(0, 189, 141)"/>
  <rect fill="#6dd6ff" height="5" stroke-width="0" transform=" rotate(0, 201, 141)" width="5" x="198.6833" y="139.0042"/>
  <polygon fill="#6dd6ff" points="205.6979,140.522 208.1979,135.522 210.6979,140.522" stroke-width="0" transform=" rotate(0, 208, 138)"/>
  <ellipse cx="221.6916" cy="141.7022" fill="#6dd6ff" rx="2.5" ry="2.5" stroke-width="0" transform=" rotate(0, 221, 141)"/>
  <rect fill="#6dd6ff" height="5" stroke-width="0" transform=" rotate(0, 229, 139)" width="5" x="227.3078" y="136.7579"/>
  <polygon fill="#6dd6ff" points="238.0669,142.6121 240.5669,137.6121 243.0669,142.6121" stroke-width="0" transform=" rotate(0, 240, 140)"/>
  <ellipse cx="250.243" cy="138.5206" fill="#6dd6ff" rx="2.5" ry="2.5" stroke-width="0" transform=" rotate(0, 250, 138)"/>
  <rect fill="#6dd6ff" height="5" stroke-width="0" transform=" rotate(0, 259, 139)" width="5" x="257.2434" y="136.7125"/>
  <polygon fill="#6dd6ff" points="268.9647,144.3085 271.4647,139.3085 273.9647,144.3085" stroke-width="0" transform=" rotate(0, 271, 141)"/>
  <ellipse cx="278.1827" cy="140.7681" fill="#6dd6ff" rx="2.5" ry="2.5" stroke-width="0" transform=" rotate(0, 278, 140)"/>
  <rect fill="#1b9fd8" height="7" stroke-width="0" transform=" rotate(0, 51, 150)" width="7" x="48.4125" y="146.7952"/>
  <polygon fill="#1b9fd8" points="56.3407,152.647 59.8407,145.647 63.3407,152.647" stroke-width="0" transform=" rotate(0, 59, 149)"/>
  <ellipse cx="69.5227" cy="149.6413" fill="#1b9fd8" rx="3.5" ry="3.5" stroke-width="0" transform=" rotate(0, 69, 149)"/>
  <rect fill="#1b9fd8" height="7" stroke-width="0" transform=" rotate(0, 78, 150)" width="7" x="75.482" y="146.8054"/>
  <polygon fill="#1b9fd8" points="87.9625,154.7287 91.4625,147.7287 94.9625,154.7287" stroke-width="0" transform=" rotate(0, 91, 151)"/>
  <ellipse cx="98.8518" cy="150.2585" fill="#1b9fd8" rx="3.5" ry="3.5" stroke-width="0" transform=" rotate(0, 98, 150)"/>
  <rect fill="#1b9fd8" height="7" stroke-width="0" transform=" rotate(0, 110, 150)" width="7" x="106.7407" y="146.9625"/>
  <polygon fill="#1b9fd8" points="117.5913,152.91 121.0913,145.91 124.5913,152.91" stroke-width="0" transform=" rotate(0, 121, 149)"/>
  <ellipse cx="131.2707" cy="148.9665" fill="#1b9fd8" rx="3.5" ry="3.5" stroke-width="0" transform=" rotate(0, 131, 148)"/>
  <rect fill="#1b9fd8" height="7" stroke-width="0" transform=" rotate(0, 139, 148)" width="7" x="136.1971" y="145.2269"/>
  <polygon fill="#1b9fd8" points="147.3319,153.9339 150.8319,146.9339 154.3319,153.9339" stroke-width="0" transform=" rotate(0, 150, 150)"/>
  <ellipse cx="159.3174" cy="151.9214" fill="#1b9fd8" rx="3.5" ry="3.5" stroke-width="0" transform=" rotate(0, 159, 151)"/>
  <rect fill="#1b9fd8" height="7" stroke-width="0" transform=" rotate(0, 168, 151)" width="7" x="165.4241" y="148.2871"/>
  <polygon fill="#1b9fd8" points="175.8455,151.9764 179.3455,144.9764 182.8455,151.9764" stroke-width="0" transform=" rotate(0, 179, 148)"/>
  <ellipse cx="188.6507" cy="150.4597" fill="#1b9fd8" rx="3.5" ry="3.5" stroke-width="0" transform=" rotate(0, 188, 150)"/>
  <rect fill="#1b9fd8" height="7" stroke-width="0" transform=" rotate(0, 198, 150)" width="7" x="195.0338" y="146.5807"/>
  <polygon fill="#1b9fd8" points="206.0612,153.1048 209.5612,146.1048 213.0612,153.1048" stroke-width="0" transform=" rotate(0, 209, 149)"/>
  <ellipse cx="221.6466" cy="151.2109" fill="#1b9fd8" rx="3.5" ry="3.5" stroke-width="0" transform=" rotate(0, 221, 151)"/>
  <rect fill="#1b9fd8" height="7" stroke-width="0" transform=" rotate(0, 228, 151)" width="7" x="225.2138" y="148.1418"/>
  <polygon fill="#1b9fd8" points="237.781,154.0631 241.281,147.0631 244.781,154.0631" stroke-width="0" transform=" rotate(0, 241, 150)"/>
  <ellipse cx="249.8466" cy="150.1415" fill="#1b9fd8" rx="3.5" ry="3.5" stroke-width="0" transform=" rotate(0, 249, 150)"/>
  <rect fill="#1b9fd8" height="7" stroke-width="0" transform=" rotate(0, 258, 148)" width="7" x="255.4354" y="144.5158"/>
  <polygon fill="#1b9fd8" points="267.2032,155.0777 270.7032,148.0777 274.2032,155.0777" stroke-width="0" transform=" rotate(0, 270, 151)"/>
  <ellipse cx="281.5254" cy="149.9481" fill="#1b9fd8" rx="3.5" ry="3.5" stroke-width="0" transform=" rotate(0, 281, 149)"/>
  <rect fill="#006ca1" height="9" stroke-width="0" transform=" rotate(0, 50, 159)" width="9" x="46.0194" y="154.5128"/>
  <polygon fill="#006ca1" points="54.9188,165.1181 59.4188,156.1181 63.9188,165.1181" stroke-width="0" transform=" rotate(0, 59, 160)"/>
  <ellipse cx="68.2113" cy="160.1729" fill="#006ca1" rx="4.5" ry="4.5" stroke-width="0" transform=" rotate(0, 68, 160)"/>
  <rect fill="#006ca1" height="9" stroke-width="0" transform=" rotate(0, 80, 158)" width="9" x="75.6644" y="154.1985"/>
  <polygon fill="#006ca1" points="83.8817,163.0692 88.3817,154.0692 92.8817,163.0692" stroke-width="0" transform=" rotate(0, 88, 158)"/>
  <ellipse cx="100.3621" cy="161.4532" fill="#006ca1" rx="4.5" ry="4.5" stroke-width="0" transform=" rotate(0, 100, 161)"/>
  <rect fill="#006ca1" height="9" stroke-width="0" transform=" rotate(0, 110, 161)" width="9" x="106.4144" y="156.9527"/>
  <polygon fill="#006ca1" points="115.1133,164.7949 119.6133,155.7949 124.1133,164.7949" stroke-width="0" transform=" rotate(0, 119, 160)"/>
  <ellipse cx="131.1823" cy="160.4441" fill="#006ca1" rx="4.5" ry="4.5" stroke-width="0" transform=" rotate(0, 131, 160)"/>
  <rect fill="#006ca1" height="9" stroke-width="0" transform=" rotate(0, 139, 161)" width="9" x="134.8369" y="156.7566"/>
  <polygon fill="#006ca1" points="143.6454,164.4609 148.1454,155.4609 152.6454,164.4609" stroke-width="0" transform=" rotate(0, 148, 159)"/>
  <ellipse cx="158.1111" cy="159.8449" fill="#006ca1" rx="4.5" ry="4.5" stroke-width="0" transform=" rotate(0, 158, 159)"/>
  <rect fill="#006ca1" height="9" stroke-width="0" transform=" rotate(0, 171, 158)" width="9" x="166.9359" y="154.448"/>
  <polygon fill="#006ca1" points="176.2762,163.0748 180.7762,154.0748 185.2762,163.0748" stroke-width="0" transform=" rotate(0, 180, 158)"/>
  <ellipse cx="188.0892" cy="161.5349" fill="#006ca1" rx="4.5" ry="4.5" stroke-width="0" transform=" rotate(0, 188, 161)"/>
  <rect fill="#006ca1" height="9" stroke-width="0" transform=" rotate(0, 200, 160)" width="9" x="195.9882" y="156.0926"/>
  <polygon fill="#006ca1" points="206.9245,165.1222 211.4245,156.1222 215.9245,165.1222" stroke-width="0" transform=" rotate(0, 211, 160)"/>
  <ellipse cx="218.8881" cy="161.8283" fill="#006ca1" rx="4.5" ry="4.5" stroke-width="0" transform=" rotate(0, 218, 161)"/>
  <rect fill="#006ca1" height="9" stroke-width="0" transform=" rotate(0, 229, 158)" width="9" x="224.8216" y="153.7203"/>
  <polygon fill="#006ca1" points="234.9822,164.9823 239.4822,155.9823 243.9822,164.9823" stroke-width="0" transform=" rotate(0, 239, 160)"/>
  <ellipse cx="248.3677" cy="159.3073" fill="#006ca1" rx="4.5" ry="4.5" stroke-width="0" transform=" rotate(0, 248, 159)"/>
  <rect fill="#006ca1" height="9" stroke-width="0" transform=" rotate(0, 261, 160)" width="9" x="257.4066" y="155.767"/>
  <polygon fill="#006ca1" points="267.4332,166.2193 271.9332,157.2193 276.4332,166.2193" stroke-width="0" transform=" rotate(0, 271, 161)"/>
  <ellipse cx="278.5417" cy="158.2338" fill="#006ca1" rx="4.5" ry="4.5" stroke-width="0" transform=" rotate(0, 278, 158)"/>
  <rect fill="#006ca1" height="9" stroke-width="0" transform=" rotate(0, 49, 171)" width="9" x="45.0202" y="166.6793"/>
  <polygon fill="#006ca1" points="57.3529,174.7163 61.8529,165.7163 66.3529,174.7163" stroke-width="0" transform=" rotate(0, 61, 170)"/>
  <ellipse cx="71.6134" cy="168.6862" fill="#006ca1" rx="4.5" ry="4.5" stroke-width="0" transform=" rotate(0, 71, 168)"/>
  <rect fill="#006ca1" height="9" stroke-width="0" transform=" rotate(0, 78, 169)" width="9" x="74.0353" y="164.9978"/>
  <polygon fill="#006ca1" points="85.3745,174.5278 89.8745,165.5278 94.3745,174.5278" stroke-width="0" transform=" rotate(0, 89, 170)"/>
  <ellipse cx="99.6667" cy="170.9515" fill="#006ca1" rx="4.5" ry="4.5" stroke-width="0" transform=" rotate(0, 99, 170)"/>
  <rect fill="#006ca1" height="9" stroke-width="0" transform=" rotate(0, 110, 168)" width="9" x="105.9378" y="163.7979"/>
  <polygon fill="#006ca1" points="115.4525,172.7109 119.9525,163.7109 124.4525,172.7109" stroke-width="0" transform=" rotate(0, 119, 168)"/>
  <ellipse cx="129.4983" cy="168.2993" fill="#006ca1" rx="4.5" ry="4.5" stroke-width="0" transform=" rotate(0, 129, 168)"/>
  <rect fill="#006ca1" height="9" stroke-width="0" transform=" rotate(0, 138, 169)" width="9" x="134.2157" y="164.9723"/>
  <polygon fill="#006ca1" points="146.4187,174.6466 150.9187,165.6466 155.4187,174.6466" stroke-width="0" transform=" rotate(0, 150, 170)"/>
  <ellipse cx="160.4445" cy="171.5924" fill="#006ca1" rx="4.5" ry="4.5" stroke-width="0" transform=" rotate(0, 160, 171)"/>
  <rect fill="#006ca1" height="9" stroke-width="0" transform=" rotate(0, 168, 171)" width="9" x="163.7038" y="166.994"/>
  <polygon fill="#006ca1" points="176.0941,174.089 180.5941,165.089 185.0941,174.089" stroke-width="0" transform=" rotate(0, 180, 169)"/>
  <ellipse cx="191.6794" cy="171.2339" fill="#006ca1" rx="4.5" ry="4.5" stroke-width="0" transform=" rotate(0, 191, 171)"/>
  <rect fill="#006ca1" height="9" stroke-width="0" transform=" rotate(0, 200, 171)" width="9" x="195.5812" y="167.0952"/>
  <polygon fill="#006ca1" points="205.1261,174.3556 209.6261,165.3556 214.1261,174.3556" stroke-width="0" transform=" rotate(0, 209, 169)"/>
  <ellipse cx="220.9702" cy="168.5538" fill="#006ca1" rx="4.5" ry="4.5" stroke-width="0" transform=" rotate(0, 220, 168)"/>
  <rect fill="#006ca1" height="9" stroke-width="0" transform=" rotate(0, 230, 169)" width="9" x="226.2949" y="165.3301"/>
  <polygon fill="#006ca1" points="234.2383,174.071 238.7383,165.071 243.2383,174.071" stroke-width="0" transform=" rotate(0, 238, 169)"/>
  <ellipse cx="250.5518" cy="169.6597" fill="#006ca1" rx="4.5" ry="4.5" stroke-width="0" transform=" rotate(0, 250, 169)"/>
  <rect fill="#006ca1" height="9" stroke-width="0" transform=" rotate(0, 261, 168)" width="9" x="256.7168" y="163.9437"/>
  <polygon fill="#006ca1" points="267.1114,174.3518 271.6114,165.3518 276.1114,174.3518" stroke-width="0" transform=" rotate(0, 271, 169)"/>
  <ellipse cx="279.1076" cy="170.3371" fill="#006ca1" rx="4.5" ry="4.5" stroke-width="0" transform=" rotate(0, 279, 170)"/>
  <rect fill="#1b9fd8" height="7" stroke-width="0" transform=" rotate(0, 49, 181)" width="7" x="45.9033" y="177.7462"/>
  <polygon fill="#1b9fd8" points="54.9972,182.3679 58.4972,175.3679 61.9972,182.3679" stroke-width="0" transform=" rotate(0, 58, 178)"/>
  <ellipse cx="68.2919" cy="178.7799" fill="#1b9fd8" rx="3.5" ry="3.5" stroke-width="0" transform=" rotate(0, 68, 178)"/>
  <rect fill="#1b9fd8" height="7" stroke-width="0" transform=" rotate(0, 78, 181)" width="7" x="74.8967" y="177.5388"/>
  <polygon fill="#1b9fd8" points="88.2161,182.1317 91.7161,175.1317 95.2161,182.1317" stroke-width="0" transform=" rotate(0, 91, 178)"/>
  <ellipse cx="101.8948" cy="179.5234" fill="#1b9fd8" rx="3.5" ry="3.5" stroke-width="0" transform=" rotate(0, 101, 179)"/>
  <rect fill="#1b9fd8" height="7" stroke-width="0" transform=" rotate(0, 110, 180)" width="7" x="106.8063" y="176.7942"/>
  <polygon fill="#1b9fd8" points="116.4318,183.2311 119.9318,176.2311 123.4318,183.2311" stroke-width="0" transform=" rotate(0, 119, 179)"/>
  <ellipse cx="131.7048" cy="181.7985" fill="#1b9fd8" rx="3.5" ry="3.5" stroke-width="0" transform=" rotate(0, 131, 181)"/>
  <rect fill="#1b9fd8" height="7" stroke-width="0" transform=" rotate(0, 141, 178)" width="7" x="138.4836" y="174.9199"/>
  <polygon fill="#1b9fd8" points="147.3774,181.7889 150.8774,174.7889 154.3774,181.7889" stroke-width="0" transform=" rotate(0, 150, 178)"/>
  <ellipse cx="159.9029" cy="181.657" fill="#1b9fd8" rx="3.5" ry="3.5" stroke-width="0" transform=" rotate(0, 159, 181)"/>
  <rect fill="#1b9fd8" height="7" stroke-width="0" transform=" rotate(0, 171, 180)" width="7" x="167.6279" y="176.9139"/>
  <polygon fill="#1b9fd8" points="176.2442,184.6936 179.7442,177.6936 183.2442,184.6936" stroke-width="0" transform=" rotate(0, 179, 181)"/>
  <ellipse cx="189.6131" cy="178.0604" fill="#1b9fd8" rx="3.5" ry="3.5" stroke-width="0" transform=" rotate(0, 189, 178)"/>
  <rect fill="#1b9fd8" height="7" stroke-width="0" transform=" rotate(0, 200, 178)" width="7" x="196.8196" y="174.8037"/>
  <polygon fill="#1b9fd8" points="208.2413,184.7466 211.7413,177.7466 215.2413,184.7466" stroke-width="0" transform=" rotate(0, 211, 181)"/>
  <ellipse cx="219.8721" cy="178.7822" fill="#1b9fd8" rx="3.5" ry="3.5" stroke-width="0" transform=" rotate(0, 219, 178)"/>
  <rect fill="#1b9fd8" height="7" stroke-width="0" transform=" rotate(0, 230, 181)" width="7" x="226.7766" y="177.7393"/>
  <polygon fill="#1b9fd8" points="235.9078,181.6958 239.4078,174.6958 242.9078,181.6958" stroke-width="0" transform=" rotate(0, 239, 178)"/>
  <ellipse cx="248.4988" cy="180.7794" fill="#1b9fd8" rx="3.5" ry="3.5" stroke-width="0" transform=" rotate(0, 248, 180)"/>
  <rect fill="#1b9fd8" height="7" stroke-width="0" transform=" rotate(0, 261, 178)" width="7" x="257.6919" y="174.8639"/>
  <polygon fill="#1b9fd8" points="266.6157,181.6998 270.1157,174.6998 273.6157,181.6998" stroke-width="0" transform=" rotate(0, 270, 178)"/>
  <ellipse cx="278.3795" cy="180.4112" fill="#1b9fd8" rx="3.5" ry="3.5" stroke-width="0" transform=" rotate(0, 278, 180)"/>
  <rect fill="#6dd6ff" height="5" stroke-width="0" transform=" rotate(0, 49, 189)" width="5" x="47.3593" y="186.8416"/>
  <polygon fill="#6dd6ff" points="59.4675,193.9488 61.9675,188.9488 64.4675,193.9488" stroke-width="0" transform=" rotate(0, 61, 191)"/>
  <ellipse cx="68.7574" cy="191.4695" fill="#6dd6ff" rx="2.5" ry="2.5" stroke-width="0" transform=" rotate(0, 68, 191)"/>
  <rect fill="#6dd6ff" height="5" stroke-width="0" transform=" rotate(0, 81, 189)" width="5" x="79.0173" y="187.0571"/>
  <polygon fill="#6dd6ff" points="86.8703,194.0903 89.3703,189.0903 91.8703,194.0903" stroke-width="0" transform=" rotate(0, 89, 191)"/>
  <ellipse cx="98.3649" cy="190.2551" fill="#6dd6ff" rx="2.5" ry="2.5" stroke-width="0" transform=" rotate(0, 98, 190)"/>
  <rect fill="#6dd6ff" height="5" stroke-width="0" transform=" rotate(0, 109, 189)" width="5" x="106.8132" y="187.0905"/>
  <polygon fill="#6dd6ff" points="118.1716,190.7112 120.6716,185.7112 123.1716,190.7112" stroke-width="0" transform=" rotate(0, 120, 188)"/>
  <ellipse cx="131.3643" cy="191.7548" fill="#6dd6ff" rx="2.5" ry="2.5" stroke-width="0" transform=" rotate(0, 131, 191)"/>
  <rect fill="#6dd6ff" height="5" stroke-width="0" transform=" rotate(0, 138, 188)" width="5" x="136.2979" y="186.139"/>
  <polygon fill="#6dd6ff" points="148.9575,191.3849 151.4575,186.3849 153.9575,191.3849" stroke-width="0" transform=" rotate(0, 151, 188)"/>
  <ellipse cx="159.2488" cy="190.9226" fill="#6dd6ff" rx="2.5" ry="2.5" stroke-width="0" transform=" rotate(0, 159, 190)"/>
  <rect fill="#6dd6ff" height="5" stroke-width="0" transform=" rotate(0, 168, 191)" width="5" x="165.9472" y="188.9406"/>
  <polygon fill="#6dd6ff" points="179.1599,191.7703 181.6599,186.7703 184.1599,191.7703" stroke-width="0" transform=" rotate(0, 181, 189)"/>
  <ellipse cx="188.5677" cy="188.8473" fill="#6dd6ff" rx="2.5" ry="2.5" stroke-width="0" transform=" rotate(0, 188, 188)"/>
  <rect fill="#6dd6ff" height="5" stroke-width="0" transform=" rotate(0, 201, 190)" width="5" x="198.5434" y="187.805"/>
  <polygon fill="#6dd6ff" points="206.1729,193.5882 208.6729,188.5882 211.1729,193.5882" stroke-width="0" transform=" rotate(0, 208, 191)"/>
  <ellipse cx="218.9171" cy="189.5413" fill="#6dd6ff" rx="2.5" ry="2.5" stroke-width="0" transform=" rotate(0, 218, 189)"/>
  <rect fill="#6dd6ff" height="5" stroke-width="0" transform=" rotate(0, 229, 188)" width="5" x="227.0823" y="185.5013"/>
  <polygon fill="#6dd6ff" points="238.105,193.8718 240.605,188.8718 243.105,193.8718" stroke-width="0" transform=" rotate(0, 240, 191)"/>
  <ellipse cx="249.6688" cy="188.4275" fill="#6dd6ff" rx="2.5" ry="2.5" stroke-width="0" transform=" rotate(0, 249, 188)"/>
  <rect fill="#6dd6ff" height="5" stroke-width="0" transform=" rotate(0, 260, 188)" width="5" x="258.3012" y="185.5463"/>
  <polygon fill="#6dd6ff" points="267.7528,193.3524 270.2528,188.3524 272.7528,193.3524" stroke-width="0" transform=" rotate(0, 270, 190)"/>
  <ellipse cx="278.3948" cy="189.3394" fill="#6dd6ff" rx="2.5" ry="2.5" stroke-width="0" transform=" rotate(0, 278, 189)"/>
  <rect fill="#006ca1" height="9" stroke-width="0" transform=" rotate(0, 49, 198)" width="9" x="44.5628" y="194.1371"/>
  <polygon fill="#006ca1" points="53.6833,203.8423 58.1833,194.8423 62.6833,203.8423" stroke-width="0" transform=" rotate(0, 58, 199)"/>
  <ellipse cx="71.1546" cy="198.2933" fill="#006ca1" rx="4.5" ry="4.5" stroke-width="0" transform=" rotate(0, 71, 198)"/>
  <rect fill="#006ca1" height="9" stroke-width="0" transform=" rotate(0, 79, 201)" width="9" x="75.3918" y="197.3435"/>
  <polygon fill="#006ca1" points="85.7389,204.9571 90.2389,195.9571 94.7389,204.9571" stroke-width="0" transform=" rotate(0, 90, 200)"/>
  <ellipse cx="101.4521" cy="197.9676" fill="#006ca1" rx="4.5" ry="4.5" stroke-width="0" transform=" rotate(0, 101, 197)"/>
  <rect fill="#006ca1" height="9" stroke-width="0" transform=" rotate(0, 108, 199)" width="9" x="103.5278" y="195.4168"/>
  <polygon fill="#006ca1" points="114.8561,206.2241 119.3561,197.2241 123.8561,206.2241" stroke-width="0" transform=" rotate(0, 119, 201)"/>
  <ellipse cx="128.1363" cy="198.3273" fill="#006ca1" rx="4.5" ry="4.5" stroke-width="0" transform=" rotate(0, 128, 198)"/>
  <rect fill="#006ca1" height="9" stroke-width="0" transform=" rotate(0, 138, 199)" width="9" x="134.1597" y="194.6459"/>
  <polygon fill="#006ca1" points="145.6264,203.2239 150.1264,194.2239 154.6264,203.2239" stroke-width="0" transform=" rotate(0, 150, 198)"/>
  <ellipse cx="159.8216" cy="201.5081" fill="#006ca1" rx="4.5" ry="4.5" stroke-width="0" transform=" rotate(0, 159, 201)"/>
  <rect fill="#006ca1" height="9" stroke-width="0" transform=" rotate(0, 168, 201)" width="9" x="163.6199" y="197.2546"/>
  <polygon fill="#006ca1" points="177.1472,203.7819 181.6472,194.7819 186.1472,203.7819" stroke-width="0" transform=" rotate(0, 181, 199)"/>
  <ellipse cx="191.8884" cy="201.0302" fill="#006ca1" rx="4.5" ry="4.5" stroke-width="0" transform=" rotate(0, 191, 201)"/>
  <rect fill="#006ca1" height="9" stroke-width="0" transform=" rotate(0, 198, 197)" width="9" x="193.6071" y="193.4686"/>
  <polygon fill="#006ca1" points="207.1694,203.5281 211.6694,194.5281 216.1694,203.5281" stroke-width="0" transform=" rotate(0, 211, 199)"/>
  <ellipse cx="220.4877" cy="199.5859" fill="#006ca1" rx="4.5" ry="4.5" stroke-width="0" transform=" rotate(0, 220, 199)"/>
  <rect fill="#006ca1" height="9" stroke-width="0" transform=" rotate(0, 230, 198)" width="9" x="225.5884" y="194.2944"/>
  <polygon fill="#006ca1" points="233.5657,204.8407 238.0657,195.8407 242.5657,204.8407" stroke-width="0" transform=" rotate(0, 238, 200)"/>
  <ellipse cx="249.5175" cy="198.4256" fill="#006ca1" rx="4.5" ry="4.5" stroke-width="0" transform=" rotate(0, 249, 198)"/>
  <rect fill="#006ca1" height="9" stroke-width="0" transform=" rotate(0, 258, 200)" width="9" x="253.9037" y="195.9941"/>
  <polygon fill="#006ca1" points="266.1696,205.5182 270.6696,196.5182 275.1696,205.5182" stroke-width="0" transform=" rotate(0, 270, 201)"/>
  <ellipse cx="280.5124" cy="199.4039" fill="#006ca1" rx="4.5" ry="4.5" stroke-width="0" transform=" rotate(0, 280, 199)"/>
  <rect fill="#1b9fd8" height="7" stroke-width="0" transform=" rotate(0, 48, 208)" width="7" x="44.726" y="205.1269"/>
  <polygon fill="#1b9fd8" points="55.6714,213.5856 59.1714,206.5856 62.6714,213.5856" stroke-width="0" transform=" rotate(0, 59, 210)"/>
  <ellipse cx="68.7534" cy="209.0491" fill="#1b9fd8" rx="3.5" ry="3.5" stroke-width="0" transform=" rotate(0, 68, 209)"/>
  <rect fill="#1b9fd8" height="7" stroke-width="0" transform=" rotate(0, 79, 209)" width="7" x="76.1912" y="206.1493"/>
  <polygon fill="#1b9fd8" points="87.2791,214.8898 90.7791,207.8898 94.2791,214.8898" stroke-width="0" transform=" rotate(0, 90, 211)"/>
  <ellipse cx="101.3283" cy="209.8305" fill="#1b9fd8" rx="3.5" ry="3.5" stroke-width="0" transform=" rotate(0, 101, 209)"/>
  <rect fill="#1b9fd8" height="7" stroke-width="0" transform=" rotate(0, 111, 209)" width="7" x="107.885" y="206.0975"/>
  <polygon fill="#1b9fd8" points="115.5195,211.9468 119.0195,204.9468 122.5195,211.9468" stroke-width="0" transform=" rotate(0, 119, 208)"/>
  <ellipse cx="130.2925" cy="211.4994" fill="#1b9fd8" rx="3.5" ry="3.5" stroke-width="0" transform=" rotate(0, 130, 211)"/>
  <rect fill="#1b9fd8" height="7" stroke-width="0" transform=" rotate(0, 139, 210)" width="7" x="136.2" y="207.1944"/>
  <polygon fill="#1b9fd8" points="146.6081,214.6899 150.1081,207.6899 153.6081,214.6899" stroke-width="0" transform=" rotate(0, 150, 211)"/>
  <ellipse cx="160.5707" cy="208.5189" fill="#1b9fd8" rx="3.5" ry="3.5" stroke-width="0" transform=" rotate(0, 160, 208)"/>
  <rect fill="#1b9fd8" height="7" stroke-width="0" transform=" rotate(0, 168, 211)" width="7" x="165.1196" y="207.6139"/>
  <polygon fill="#1b9fd8" points="178.2908,212.0532 181.7908,205.0532 185.2908,212.0532" stroke-width="0" transform=" rotate(0, 181, 208)"/>
  <ellipse cx="191.1978" cy="211.8784" fill="#1b9fd8" rx="3.5" ry="3.5" stroke-width="0" transform=" rotate(0, 191, 211)"/>
  <rect fill="#1b9fd8" height="7" stroke-width="0" transform=" rotate(0, 199, 209)" width="7" x="195.5595" y="206.1989"/>
  <polygon fill="#1b9fd8" points="205.8838,213.0128 209.3838,206.0128 212.8838,213.0128" stroke-width="0" transform=" rotate(0, 209, 209)"/>
  <ellipse cx="220.7192" cy="210.8619" fill="#1b9fd8" rx="3.5" ry="3.5" stroke-width="0" transform=" rotate(0, 220, 210)"/>
  <rect fill="#1b9fd8" height="7" stroke-width="0" transform=" rotate(0, 231, 210)" width="7" x="228.4809" y="207.1147"/>
  <polygon fill="#1b9fd8" points="235.1297,211.7407 238.6297,204.7407 242.1297,211.7407" stroke-width="0" transform=" rotate(0, 238, 208)"/>
  <ellipse cx="251.8972" cy="208.7919" fill="#1b9fd8" rx="3.5" ry="3.5" stroke-width="0" transform=" rotate(0, 251, 208)"/>
  <rect fill="#1b9fd8" height="7" stroke-width="0" transform=" rotate(0, 261, 210)" width="7" x="258.0216" y="207.1944"/>
  <polygon fill="#1b9fd8" points="264.893,213.9317 268.393,206.9317 271.893,213.9317" stroke-width="0" transform=" rotate(0, 268, 210)"/>
  <ellipse cx="280.0467" cy="209.7407" fill="#1b9fd8" rx="3.5" ry="3.5" stroke-width="0" transform=" rotate(0, 280, 209)"/>
  <rect fill="#6dd6ff" height="5" stroke-width="0" transform=" rotate(0, 50, 220)" width="5" x="48.0589" y="218.1197"/>
  <polygon fill="#6dd6ff" points="59.204,221.1942 61.704,216.1942 64.204,221.1942" stroke-width="0" transform=" rotate(0, 61, 218)"/>
  <ellipse cx="71.0538" cy="219.6866" fill="#6dd6ff" rx="2.5" ry="2.5" stroke-width="0" transform=" rotate(0, 71, 219)"/>
  <rect fill="#6dd6ff" height="5" stroke-width="0" transform=" rotate(0, 80, 220)" width="5" x="77.5799" y="218.3964"/>
  <polygon fill="#6dd6ff" points="86.4724,222.4299 88.9724,217.4299 91.4724,222.4299" stroke-width="0" transform=" rotate(0, 88, 219)"/>
  <ellipse cx="100.5764" cy="218.8018" fill="#6dd6ff" rx="2.5" ry="2.5" stroke-width="0" transform=" rotate(0, 100, 218)"/>
  <rect fill="#6dd6ff" height="5" stroke-width="0" transform=" rotate(0, 108, 221)" width="5" x="106.1948" y="219.0493"/>
  <polygon fill="#6dd6ff" points="116.7602,221.2464 119.2602,216.2464 121.7602,221.2464" stroke-width="0" transform=" rotate(0, 119, 218)"/>
  <ellipse cx="129.5885" cy="221.7717" fill="#6dd6ff" rx="2.5" ry="2.5" stroke-width="0" transform=" rotate(0, 129, 221)"/>
  <rect fill="#6dd6ff" height="5" stroke-width="0" transform=" rotate(0, 139, 218)" width="5" x="137.4285" y="216.2758"/>
  <polygon fill="#6dd6ff" points="146.5226,221.1701 149.0226,216.1701 151.5226,221.1701" stroke-width="0" transform=" rotate(0, 149, 218)"/>
  <ellipse cx="159.7879" cy="220.0264" fill="#6dd6ff" rx="2.5" ry="2.5" stroke-width="0" transform=" rotate(0, 159, 220)"/>
  <rect fill="#6dd6ff" height="5" stroke-width="0" transform=" rotate(0, 171, 218)" width="5" x="168.5637" y="216.4677"/>
  <polygon fill="#6dd6ff" points="176.4754,223.8724 178.9754,218.8724 181.4754,223.8724" stroke-width="0" transform=" rotate(0, 178, 221)"/>
  <ellipse cx="191.3413" cy="220.4335" fill="#6dd6ff" rx="2.5" ry="2.5" stroke-width="0" transform=" rotate(0, 191, 220)"/>
  <rect fill="#6dd6ff" height="5" stroke-width="0" transform=" rotate(0, 201, 221)" width="5" x="199.3535" y="218.8003"/>
  <polygon fill="#6dd6ff" points="208.4768,221.8934 210.9768,216.8934 213.4768,221.8934" stroke-width="0" transform=" rotate(0, 210, 219)"/>
  <ellipse cx="219.0642" cy="218.8809" fill="#6dd6ff" rx="2.5" ry="2.5" stroke-width="0" transform=" rotate(0, 219, 218)"/>
  <rect fill="#6dd6ff" height="5" stroke-width="0" transform=" rotate(0, 229, 218)" width="5" x="227.4373" y="215.5483"/>
  <polygon fill="#6dd6ff" points="238.3699,223.5935 240.8699,218.5935 243.3699,223.5935" stroke-width="0" transform=" rotate(0, 240, 221)"/>
  <ellipse cx="248.6032" cy="219.2228" fill="#6dd6ff" rx="2.5" ry="2.5" stroke-width="0" transform=" rotate(0, 248, 219)"/>
  <rect fill="#6dd6ff" height="5" stroke-width="0" transform=" rotate(0, 261, 218)" width="5" x="258.7735" y="215.5983"/>
  <polygon fill="#6dd6ff" points="266.2513,222.4282 268.7513,217.4282 271.2513,222.4282" stroke-width="0" transform=" rotate(0, 268, 219)"/>
  <ellipse cx="278.3257" cy="220.7819" fill="#6dd6ff" rx="2.5" ry="2.5" stroke-width="0" transform=" rotate(0, 278, 220)"/>
  <rect fill="#006ca1" height="9" stroke-width="0" transform=" rotate(0, 51, 228)" width="9" x="47.247" y="223.8922"/>
  <polygon fill="#006ca1" points="56.1442,233.0368 60.6442,224.0368 65.1442,233.0368" stroke-width="0" transform=" rotate(0, 60, 228)"/>
  <ellipse cx="69.5617" cy="231.0221" fill="#006ca1" rx="4.5" ry="4.5" stroke-width="0" transform=" rotate(0, 69, 231)"/>
  <rect fill="#006ca1" height="9" stroke-width="0" transform=" rotate(0, 81, 231)" width="9" x="77.114" y="227.2792"/>
  <polygon fill="#006ca1" points="86.7369,235.763 91.2369,226.763 95.7369,235.763" stroke-width="0" transform=" rotate(0, 91, 231)"/>
  <ellipse cx="101.8619" cy="229.9185" fill="#006ca1" rx="4.5" ry="4.5" stroke-width="0" transform=" rotate(0, 101, 229)"/>
  <rect fill="#006ca1" height="9" stroke-width="0" transform=" rotate(0, 110, 228)" width="9" x="105.8678" y="223.5018"/>
  <polygon fill="#006ca1" points="116.5749,235.121 121.0749,226.121 125.5749,235.121" stroke-width="0" transform=" rotate(0, 121, 230)"/>
  <ellipse cx="130.9216" cy="228.9872" fill="#006ca1" rx="4.5" ry="4.5" stroke-width="0" transform=" rotate(0, 130, 228)"/>
  <rect fill="#006ca1" height="9" stroke-width="0" transform=" rotate(0, 138, 231)" width="9" x="133.8035" y="227.1043"/>
  <polygon fill="#006ca1" points="145.4935,233.1961 149.9935,224.1961 154.4935,233.1961" stroke-width="0" transform=" rotate(0, 149, 228)"/>
  <ellipse cx="160.9975" cy="230.4425" fill="#006ca1" rx="4.5" ry="4.5" stroke-width="0" transform=" rotate(0, 160, 230)"/>
  <rect fill="#006ca1" height="9" stroke-width="0" transform=" rotate(0, 168, 229)" width="9" x="163.8482" y="225.2097"/>
  <polygon fill="#006ca1" points="177.1666,235.1121 181.6666,226.1121 186.1666,235.1121" stroke-width="0" transform=" rotate(0, 181, 230)"/>
  <ellipse cx="189.669" cy="231.6127" fill="#006ca1" rx="4.5" ry="4.5" stroke-width="0" transform=" rotate(0, 189, 231)"/>
  <rect fill="#006ca1" height="9" stroke-width="0" transform=" rotate(0, 200, 231)" width="9" x="196.4453" y="227.1358"/>
  <polygon fill="#006ca1" points="204.5782,234.7707 209.0782,225.7707 213.5782,234.7707" stroke-width="0" transform=" rotate(0, 209, 230)"/>
  <ellipse cx="220.4468" cy="228.9637" fill="#006ca1" rx="4.5" ry="4.5" stroke-width="0" transform=" rotate(0, 220, 228)"/>
  <rect fill="#006ca1" height="9" stroke-width="0" transform=" rotate(0, 231, 228)" width="9" x="227.3057" y="224.2186"/>
  <polygon fill="#006ca1" points="235.487,233.2679 239.987,224.2679 244.487,233.2679" stroke-width="0" transform=" rotate(0, 239, 228)"/>
  <ellipse cx="251.1851" cy="229.7727" fill="#006ca1" rx="4.5" ry="4.5" stroke-width="0" transform=" rotate(0, 251, 229)"/>
  <rect fill="#006ca1" height="9" stroke-width="0" transform=" rotate(0, 258, 229)" width="9" x="253.829" y="224.6081"/>
  <polygon fill="#006ca1" points="267.2065,236.2401 271.7065,227.2401 276.2065,236.2401" stroke-width="0" transform=" rotate(0, 271, 231)"/>
  <ellipse cx="279.3279" cy="230.2513" fill="#006ca1" rx="4.5" ry="4.5" stroke-width="0" transform=" rotate(0, 279, 230)"/>
  <rect fill="#1b9fd8" height="7" stroke-width="0" transform=" rotate(0, 48, 238)" width="7" x="45.4618" y="234.6142"/>
  <polygon fill="#1b9fd8" points="54.7427,242.154 58.2427,235.154 61.7427,242.154" stroke-width="0" transform=" rotate(0, 58, 238)"/>
  <ellipse cx="68.9432" cy="240.0275" fill="#1b9fd8" rx="3.5" ry="3.5" stroke-width="0" transform=" rotate(0, 68, 240)"/>
  <rect fill="#1b9fd8" height="7" stroke-width="0" transform=" rotate(0, 78, 238)" width="7" x="75.0115" y="234.8509"/>
  <polygon fill="#1b9fd8" points="84.8672,243.7551 88.3672,236.7551 91.8672,243.7551" stroke-width="0" transform=" rotate(0, 88, 240)"/>
  <ellipse cx="98.1672" cy="238.9353" fill="#1b9fd8" rx="3.5" ry="3.5" stroke-width="0" transform=" rotate(0, 98, 238)"/>
  <rect fill="#1b9fd8" height="7" stroke-width="0" transform=" rotate(0, 108, 240)" width="7" x="104.518" y="236.917"/>
  <polygon fill="#1b9fd8" points="116.5406,243.6164 120.0406,236.6164 123.5406,243.6164" stroke-width="0" transform=" rotate(0, 120, 240)"/>
  <ellipse cx="131.2637" cy="240.3691" fill="#1b9fd8" rx="3.5" ry="3.5" stroke-width="0" transform=" rotate(0, 131, 240)"/>
  <rect fill="#1b9fd8" height="7" stroke-width="0" transform=" rotate(0, 141, 238)" width="7" x="137.9133" y="234.9448"/>
  <polygon fill="#1b9fd8" points="145.6588,241.7968 149.1588,234.7968 152.6588,241.7968" stroke-width="0" transform=" rotate(0, 149, 238)"/>
  <ellipse cx="161.1457" cy="240.8508" fill="#1b9fd8" rx="3.5" ry="3.5" stroke-width="0" transform=" rotate(0, 161, 240)"/>
  <rect fill="#1b9fd8" height="7" stroke-width="0" transform=" rotate(0, 170, 239)" width="7" x="166.8428" y="235.5815"/>
  <polygon fill="#1b9fd8" points="174.9111,242.2125 178.4111,235.2125 181.9111,242.2125" stroke-width="0" transform=" rotate(0, 178, 238)"/>
  <ellipse cx="189.1344" cy="239.1321" fill="#1b9fd8" rx="3.5" ry="3.5" stroke-width="0" transform=" rotate(0, 189, 239)"/>
  <rect fill="#1b9fd8" height="7" stroke-width="0" transform=" rotate(0, 201, 238)" width="7" x="197.5444" y="234.8989"/>
  <polygon fill="#1b9fd8" points="205.0276,244.7489 208.5276,237.7489 212.0276,244.7489" stroke-width="0" transform=" rotate(0, 208, 241)"/>
  <ellipse cx="220.3525" cy="238.2159" fill="#1b9fd8" rx="3.5" ry="3.5" stroke-width="0" transform=" rotate(0, 220, 238)"/>
  <rect fill="#1b9fd8" height="7" stroke-width="0" transform=" rotate(0, 228, 241)" width="7" x="224.9849" y="237.653"/>
  <polygon fill="#1b9fd8" points="235.7668,245.0557 239.2668,238.0557 242.7668,245.0557" stroke-width="0" transform=" rotate(0, 239, 241)"/>
  <ellipse cx="250.0078" cy="239.3643" fill="#1b9fd8" rx="3.5" ry="3.5" stroke-width="0" transform=" rotate(0, 250, 239)"/>
  <rect fill="#1b9fd8" height="7" stroke-width="0" transform=" rotate(0, 258, 238)" width="7" x="254.842" y="234.8764"/>
  <polygon fill="#1b9fd8" points="268.4184,241.6212 271.9184,234.6212 275.4184,241.6212" stroke-width="0" transform=" rotate(0, 271, 238)"/>
  <ellipse cx="280.6225" cy="240.7432" fill="#1b9fd8" rx="3.5" ry="3.5" stroke-width="0" transform=" rotate(0, 280, 240)"/>
  <rect fill="#6dd6ff" height="5" stroke-width="0" transform=" rotate(0, 48, 250)" width="5" x="46.2165" y="247.6989"/>
  <polygon fill="#6dd6ff" points="55.8485,251.2211 58.3485,246.2211 60.8485,251.2211" stroke-width="0" transform=" rotate(0, 58, 248)"/>
  <ellipse cx="70.1962" cy="251.7534" fill="#6dd6ff" rx="2.5" ry="2.5" stroke-width="0" transform=" rotate(0, 70, 251)"/>
  <rect fill="#6dd6ff" height="5" stroke-width="0" transform=" rotate(0, 79, 251)" width="5" x="77.3378" y="249.2039"/>
  <polygon fill="#6dd6ff" points="86.8227,252.8134 89.3227,247.8134 91.8227,252.8134" stroke-width="0" transform=" rotate(0, 89, 250)"/>
  <ellipse cx="100.636" cy="249.112" fill="#6dd6ff" rx="2.5" ry="2.5" stroke-width="0" transform=" rotate(0, 100, 249)"/>
  <rect fill="#6dd6ff" height="5" stroke-width="0" transform=" rotate(0, 111, 250)" width="5" x="109.132" y="248.0879"/>
  <polygon fill="#6dd6ff" points="117.0664,254.1345 119.5664,249.1345 122.0664,254.1345" stroke-width="0" transform=" rotate(0, 119, 251)"/>
  <ellipse cx="128.7647" cy="251.2756" fill="#6dd6ff" rx="2.5" ry="2.5" stroke-width="0" transform=" rotate(0, 128, 251)"/>
  <rect fill="#6dd6ff" height="5" stroke-width="0" transform=" rotate(0, 140, 251)" width="5" x="138.171" y="249.0928"/>
  <polygon fill="#6dd6ff" points="146.4425,253.6359 148.9425,248.6359 151.4425,253.6359" stroke-width="0" transform=" rotate(0, 148, 251)"/>
  <ellipse cx="159.0861" cy="250.4732" fill="#6dd6ff" rx="2.5" ry="2.5" stroke-width="0" transform=" rotate(0, 159, 250)"/>
  <rect fill="#6dd6ff" height="5" stroke-width="0" transform=" rotate(0, 170, 251)" width="5" x="167.9954" y="249.4237"/>
  <polygon fill="#6dd6ff" points="179.3178,250.6032 181.8178,245.6032 184.3178,250.6032" stroke-width="0" transform=" rotate(0, 181, 248)"/>
  <ellipse cx="187.9903" cy="249.2296" fill="#6dd6ff" rx="2.5" ry="2.5" stroke-width="0" transform=" rotate(0, 187, 249)"/>
  <rect fill="#6dd6ff" height="5" stroke-width="0" transform=" rotate(0, 201, 249)" width="5" x="198.5239" y="247.1246"/>
  <polygon fill="#6dd6ff" points="209.3329,252.0597 211.8329,247.0597 214.3329,252.0597" stroke-width="0" transform=" rotate(0, 211, 249)"/>
  <ellipse cx="220.473" cy="249.8431" fill="#6dd6ff" rx="2.5" ry="2.5" stroke-width="0" transform=" rotate(0, 220, 249)"/>
  <rect fill="#6dd6ff" height="5" stroke-width="0" transform=" rotate(0, 231, 250)" width="5" x="228.7053" y="247.8232"/>
  <polygon fill="#6dd6ff" points="237.3538,252.585 239.8538,247.585 242.3538,252.585" stroke-width="0" transform=" rotate(0, 239, 250)"/>
  <ellipse cx="251.4031" cy="250.9351" fill="#6dd6ff" rx="2.5" ry="2.5" stroke-width="0" transform=" rotate(0, 251, 250)"/>
  <rect fill="#6dd6ff" height="5" stroke-width="0" transform=" rotate(0, 260, 248)" width="5" x="258.2895" y="245.7255"/>
  <polygon fill="#6dd6ff" points="268.2354,252.1083 270.7354,247.1083 273.2354,252.1083" stroke-width="0" transform=" rotate(0, 270, 249)"/>
  <ellipse cx="278.106" cy="251.0014" fill="#6dd6ff" rx="2.5" ry="2.5" stroke-width="0" transform=" rotate(0, 278, 251)"/>
  <rect fill="#006ca1" height="9" stroke-width="0" transform=" rotate(0, 51, 261)" width="9" x="46.9712" y="257.0067"/>
  <polygon fill="#006ca1" points="54.4208,263.5422 58.9208,254.5422 63.4208,263.5422" stroke-width="0" transform=" rotate(0, 58, 259)"/>
  <ellipse cx="71.9594" cy="260.2055" fill="#006ca1" rx="4.5" ry="4.5" stroke-width="0" transform=" rotate(0, 71, 260)"/>
  <rect fill="#006ca1" height="9" stroke-width="0" transform=" rotate(0, 78, 258)" width="9" x="74.0894" y="254.4846"/>
  <polygon fill="#006ca1" points="86.4786,262.8024 90.9786,253.8024 95.4786,262.8024" stroke-width="0" transform=" rotate(0, 90, 258)"/>
  <ellipse cx="98.4559" cy="260.9439" fill="#006ca1" rx="4.5" ry="4.5" stroke-width="0" transform=" rotate(0, 98, 260)"/>
  <rect fill="#006ca1" height="9" stroke-width="0" transform=" rotate(0, 109, 258)" width="9" x="105.434" y="253.8027"/>
  <polygon fill="#006ca1" points="114.6061,263.854 119.1061,254.854 123.6061,263.854" stroke-width="0" transform=" rotate(0, 119, 259)"/>
  <ellipse cx="130.9883" cy="258.5633" fill="#006ca1" rx="4.5" ry="4.5" stroke-width="0" transform=" rotate(0, 130, 258)"/>
  <rect fill="#006ca1" height="9" stroke-width="0" transform=" rotate(0, 138, 258)" width="9" x="134.2654" y="254.0767"/>
  <polygon fill="#006ca1" points="143.6041,263.4279 148.1041,254.4279 152.6041,263.4279" stroke-width="0" transform=" rotate(0, 148, 258)"/>
  <ellipse cx="161.2997" cy="261.7767" fill="#006ca1" rx="4.5" ry="4.5" stroke-width="0" transform=" rotate(0, 161, 261)"/>
  <rect fill="#006ca1" height="9" stroke-width="0" transform=" rotate(0, 170, 258)" width="9" x="165.5969" y="254.3076"/>
  <polygon fill="#006ca1" points="176.9329,264.1203 181.4329,255.1203 185.9329,264.1203" stroke-width="0" transform=" rotate(0, 181, 259)"/>
  <ellipse cx="188.6546" cy="260.6297" fill="#006ca1" rx="4.5" ry="4.5" stroke-width="0" transform=" rotate(0, 188, 260)"/>
  <rect fill="#006ca1" height="9" stroke-width="0" transform=" rotate(0, 200, 261)" width="9" x="195.6077" y="257.1449"/>
  <polygon fill="#006ca1" points="207.2986,263.881 211.7986,254.881 216.2986,263.881" stroke-width="0" transform=" rotate(0, 211, 259)"/>
  <ellipse cx="219.8481" cy="259.5772" fill="#006ca1" rx="4.5" ry="4.5" stroke-width="0" transform=" rotate(0, 219, 259)"/>
  <rect fill="#006ca1" height="9" stroke-width="0" transform=" rotate(0, 229, 259)" width="9" x="225.006" y="255.4424"/>
  <polygon fill="#006ca1" points="234.5561,265.025 239.0561,256.025 243.5561,265.025" stroke-width="0" transform=" rotate(0, 239, 260)"/>
  <ellipse cx="249.3244" cy="258.6829" fill="#006ca1" rx="4.5" ry="4.5" stroke-width="0" transform=" rotate(0, 249, 258)"/>
  <rect fill="#006ca1" height="9" stroke-width="0" transform=" rotate(0, 260, 259)" width="9" x="256.2461" y="254.5564"/>
  <polygon fill="#006ca1" points="263.812,264.0378 268.312,255.0378 272.812,264.0378" stroke-width="0" transform=" rotate(0, 268, 259)"/>
  <ellipse cx="279.2689" cy="259.8171" fill="#006ca1" rx="4.5" ry="4.5" stroke-width="0" transform=" rotate(0, 279, 259)"/>
  <rect fill="#1b9fd8" height="7" stroke-width="0" transform=" rotate(0, 49, 269)" width="7" x="46.0499" y="266.0526"/>
  <polygon fill="#1b9fd8" points="57.271,275.2836 60.771,268.2836 64.271,275.2836" stroke-width="0" transform=" rotate(0, 60, 271)"/>
  <ellipse cx="69.9278" cy="268.0179" fill="#1b9fd8" rx="3.5" ry="3.5" stroke-width="0" transform=" rotate(0, 69, 268)"/>
  <rect fill="#1b9fd8" height="7" stroke-width="0" transform=" rotate(0, 80, 269)" width="7" x="77.401" y="265.5542"/>
  <polygon fill="#1b9fd8" points="87.6757,274.376 91.1757,267.376 94.6757,274.376" stroke-width="0" transform=" rotate(0, 91, 270)"/>
  <ellipse cx="98.2419" cy="271.0594" fill="#1b9fd8" rx="3.5" ry="3.5" stroke-width="0" transform=" rotate(0, 98, 271)"/>
  <rect fill="#1b9fd8" height="7" stroke-width="0" transform=" rotate(0, 108, 269)" width="7" x="105.2083" y="265.826"/>
  <polygon fill="#1b9fd8" points="116.0197,271.4711 119.5197,264.4711 123.0197,271.4711" stroke-width="0" transform=" rotate(0, 119, 267)"/>
  <ellipse cx="131.0606" cy="271.4072" fill="#1b9fd8" rx="3.5" ry="3.5" stroke-width="0" transform=" rotate(0, 131, 271)"/>
  <rect fill="#1b9fd8" height="7" stroke-width="0" transform=" rotate(0, 141, 271)" width="7" x="138.4632" y="268.1711"/>
  <polygon fill="#1b9fd8" points="148.4437,272.2168 151.9437,265.2168 155.4437,272.2168" stroke-width="0" transform=" rotate(0, 151, 268)"/>
  <ellipse cx="161.0506" cy="269.3014" fill="#1b9fd8" rx="3.5" ry="3.5" stroke-width="0" transform=" rotate(0, 161, 269)"/>
  <rect fill="#1b9fd8" height="7" stroke-width="0" transform=" rotate(0, 168, 271)" width="7" x="165.2355" y="267.6524"/>
  <polygon fill="#1b9fd8" points="178.4381,275.1741 181.9381,268.1741 185.4381,275.1741" stroke-width="0" transform=" rotate(0, 181, 271)"/>
  <ellipse cx="188.1226" cy="268.1456" fill="#1b9fd8" rx="3.5" ry="3.5" stroke-width="0" transform=" rotate(0, 188, 268)"/>
  <rect fill="#1b9fd8" height="7" stroke-width="0" transform=" rotate(0, 201, 271)" width="7" x="197.5382" y="268.1956"/>
  <polygon fill="#1b9fd8" points="204.8683,273.6497 208.3683,266.6497 211.8683,273.6497" stroke-width="0" transform=" rotate(0, 208, 270)"/>
  <ellipse cx="219.4704" cy="271.1154" fill="#1b9fd8" rx="3.5" ry="3.5" stroke-width="0" transform=" rotate(0, 219, 271)"/>
  <rect fill="#1b9fd8" height="7" stroke-width="0" transform=" rotate(0, 228, 269)" width="7" x="224.7769" y="265.8818"/>
  <polygon fill="#1b9fd8" points="237.1661,274.4503 240.6661,267.4503 244.1661,274.4503" stroke-width="0" transform=" rotate(0, 240, 270)"/>
  <ellipse cx="248.0215" cy="270.6283" fill="#1b9fd8" rx="3.5" ry="3.5" stroke-width="0" transform=" rotate(0, 248, 270)"/>
  <rect fill="#1b9fd8" height="7" stroke-width="0" transform=" rotate(0, 260, 270)" width="7" x="256.8795" y="266.759"/>
  <polygon fill="#1b9fd8" points="265.0898,274.3876 268.5898,267.3876 272.0898,274.3876" stroke-width="0" transform=" rotate(0, 268, 270)"/>
  <ellipse cx="281.4665" cy="269.249" fill="#1b9fd8" rx="3.5" ry="3.5" stroke-width="0" transform=" rotate(0, 281, 269)"/>
  <rect fill="#6dd6ff" height="5" stroke-width="0" transform=" rotate(0, 48, 280)" width="5" x="45.5244" y="277.9366"/>
  <polygon fill="#6dd6ff" points="59.0622,280.7135 61.5622,275.7135 64.0622,280.7135" stroke-width="0" transform=" rotate(0, 61, 278)"/>
  <ellipse cx="69.4397" cy="279.6067" fill="#6dd6ff" rx="2.5" ry="2.5" stroke-width="0" transform=" rotate(0, 69, 279)"/>
  <rect fill="#6dd6ff" height="5" stroke-width="0" transform=" rotate(0, 78, 281)" width="5" x="76.2704" y="278.8023"/>
  <polygon fill="#6dd6ff" points="87.9122,282.66 90.4122,277.66 92.9122,282.66" stroke-width="0" transform=" rotate(0, 90, 280)"/>
  <ellipse cx="99.8937" cy="279.2362" fill="#6dd6ff" rx="2.5" ry="2.5" stroke-width="0" transform=" rotate(0, 99, 279)"/>
  <rect fill="#6dd6ff" height="5" stroke-width="0" transform=" rotate(0, 111, 280)" width="5" x="108.6007" y="278.0493"/>
  <polygon fill="#6dd6ff" points="116.2868,283.0613 118.7868,278.0613 121.2868,283.0613" stroke-width="0" transform=" rotate(0, 118, 280)"/>
  <ellipse cx="128.0464" cy="278.0346" fill="#6dd6ff" rx="2.5" ry="2.5" stroke-width="0" transform=" rotate(0, 128, 278)"/>
  <rect fill="#6dd6ff" height="5" stroke-width="0" transform=" rotate(0, 139, 280)" width="5" x="137.4631" y="278.4724"/>
  <polygon fill="#6dd6ff" points="147.1487,281.2637 149.6487,276.2637 152.1487,281.2637" stroke-width="0" transform=" rotate(0, 149, 278)"/>
  <ellipse cx="160.4663" cy="281.4473" fill="#6dd6ff" rx="2.5" ry="2.5" stroke-width="0" transform=" rotate(0, 160, 281)"/>
  <rect fill="#6dd6ff" height="5" stroke-width="0" transform=" rotate(0, 168, 280)" width="5" x="165.7739" y="277.8001"/>
  <polygon fill="#6dd6ff" points="176.8743,284.2674 179.3743,279.2674 181.8743,284.2674" stroke-width="0" transform=" rotate(0, 179, 281)"/>
  <ellipse cx="189.5566" cy="281.5372" fill="#6dd6ff" rx="2.5" ry="2.5" stroke-width="0" transform=" rotate(0, 189, 281)"/>
  <rect fill="#6dd6ff" height="5" stroke-width="0" transform=" rotate(0, 200, 279)" width="5" x="198.355" y="276.6808"/>
  <polygon fill="#6dd6ff" points="207.5544,284.3835 210.0544,279.3835 212.5544,284.3835" stroke-width="0" transform=" rotate(0, 210, 281)"/>
  <ellipse cx="219.4884" cy="278.8356" fill="#6dd6ff" rx="2.5" ry="2.5" stroke-width="0" transform=" rotate(0, 219, 278)"/>
  <rect fill="#6dd6ff" height="5" stroke-width="0" transform=" rotate(0, 230, 278)" width="5" x="228.4359" y="275.7319"/>
  <polygon fill="#6dd6ff" points="236.4902,284.1033 238.9902,279.1033 241.4902,284.1033" stroke-width="0" transform=" rotate(0, 238, 281)"/>
  <ellipse cx="248.097" cy="281.4978" fill="#6dd6ff" rx="2.5" ry="2.5" stroke-width="0" transform=" rotate(0, 248, 281)"/>
  <rect fill="#6dd6ff" height="5" stroke-width="0" transform=" rotate(0, 259, 277)" width="5" x="257.4031" y="275.47"/>
  <polygon fill="#6dd6ff" points="269.3663,283.173 271.8663,278.173 274.3663,283.173" stroke-width="0" transform=" rotate(0, 271, 280)"/>
  <ellipse cx="280.6505" cy="280.0994" fill="#6dd6ff" rx="2.5" ry="2.5" stroke-width="0" transform=" rotate(0, 280, 280)"/>
</svg>
