<?xml version="1.0" encoding="utf-8" ?>
<svg baseProfile="tiny" height="330" version="1.2" width="330" xmlns="http://www.w3.org/2000/svg" xmlns:ev="http://www.w3.org/2001/xml-events" xmlns:xlink="http://www.w3.org/1999/xlink">
  <defs/>
  <rect fill="white" height="330" width="330" x="0" y="0"/>
  <rect fill="#6dd6ff" height="5" stroke-width="0" transform=" rotate(0, 47, 51)" width="5" x="45.2892" y="48.968"/>
  <polygon fill="#6dd6ff" points="57.2123,52.2258 59.7123,47.2258 62.2123,52.2258" stroke-width="0" transform=" rotate(0, 59, 49)"/>
  <ellipse cx="71.2156" cy="49.4185" fill="#6dd6ff" rx="2.5" ry="2.5" stroke-width="0" transform=" rotate(0, 71, 49)"/>
  <rect fill="#6dd6ff" height="5" stroke-width="0" transform=" rotate(0, 77, 52)" width="5" x="75.092" y="49.8401"/>
  <polygon fill="#6dd6ff" points="89.7068,54.3356 92.2068,49.3356 94.7068,54.3356" stroke-width="0" transform=" rotate(0, 92, 51)"/>
  <ellipse cx="101.2137" cy="47.1442" fill="#6dd6ff" rx="2.5" ry="2.5" stroke-width="0" transform=" rotate(0, 101, 47)"/>
  <rect fill="#6dd6ff" height="5" stroke-width="0" transform=" rotate(0, 110, 51)" width="5" x="107.5976" y="49.4036"/>
  <polygon fill="#6dd6ff" points="115.1361,54.9722 117.6361,49.9722 120.1361,54.9722" stroke-width="0" transform=" rotate(0, 117, 52)"/>
  <ellipse cx="131.9168" cy="51.8807" fill="#6dd6ff" rx="2.5" ry="2.5" stroke-width="0" transform=" rotate(0, 131, 51)"/>
  <rect fill="#6dd6ff" height="5" stroke-width="0" transform=" rotate(0, 139, 52)" width="5" x="136.8659" y="50.0406"/>
  <polygon fill="#6dd6ff" points="145.7788,54.946 148.2788,49.946 150.7788,54.946" stroke-width="0" transform=" rotate(0, 148, 52)"/>
  <ellipse cx="160.5589" cy="47.6422" fill="#6dd6ff" rx="2.5" ry="2.5" stroke-width="0" transform=" rotate(0, 160, 47)"/>
  <rect fill="#6dd6ff" height="5" stroke-width="0" transform=" rotate(0, 172, 48)" width="5" x="170.0849" y="46.4337"/>
  <polygon fill="#6dd6ff" points="175.6031,52.1355 178.1031,47.1355 180.6031,52.1355" stroke-width="0" transform=" rotate(0, 178, 49)"/>
  <ellipse cx="190.3875" cy="48.3822" fill="#6dd6ff" rx="2.5" ry="2.5" stroke-width="0" transform=" rotate(0, 190, 48)"/>
  <rect fill="#6dd6ff" height="5" stroke-width="0" transform=" rotate(0, 201, 50)" width="5" x="198.5812" y="48.1224"/>
  <polygon fill="#6dd6ff" points="205.535,53.0072 208.035,48.0072 210.535,53.0072" stroke-width="0" transform=" rotate(0, 208, 50)"/>
  <ellipse cx="220.1113" cy="47.6212" fill="#6dd6ff" rx="2.5" ry="2.5" stroke-width="0" transform=" rotate(0, 220, 47)"/>
  <rect fill="#6dd6ff" height="5" stroke-width="0" transform=" rotate(0, 231, 52)" width="5" x="228.502" y="49.9869"/>
  <polygon fill="#6dd6ff" points="237.3331,49.7209 239.8331,44.7209 242.3331,49.7209" stroke-width="0" transform=" rotate(0, 239, 47)"/>
  <ellipse cx="248.1078" cy="51.2521" fill="#6dd6ff" rx="2.5" ry="2.5" stroke-width="0" transform=" rotate(0, 248, 51)"/>
  <rect fill="#6dd6ff" height="5" stroke-width="0" transform=" rotate(0, 260, 48)" width="5" x="258.4024" y="45.6255"/>
  <polygon fill="#6dd6ff" points="267.1629,51.4134 269.6629,46.4134 272.1629,51.4134" stroke-width="0" transform=" rotate(0, 269, 48)"/>
  <ellipse cx="282.2068" cy="49.785" fill="#6dd6ff" rx="2.5" ry="2.5" stroke-width="0" transform=" rotate(0, 282, 49)"/>
  <rect fill="#1b9fd8" height="7" stroke-width="0" transform=" rotate(0, 49, 60)" width="7" x="46.285" y="57.0569"/>
  <polygon fill="#1b9fd8" points="56.9513,62.1227 60.4513,55.1227 63.9513,62.1227" stroke-width="0" transform=" rotate(0, 60, 58)"/>
  <ellipse cx="71.1185" cy="62.0611" fill="#1b9fd8" rx="3.5" ry="3.5" stroke-width="0" transform=" rotate(0, 71, 62)"/>
  <rect fill="#1b9fd8" height="7" stroke-width="0" transform=" rotate(0, 78, 60)" width="7" x="75.2144" y="57.3572"/>
  <polygon fill="#1b9fd8" points="87.4685,61.6787 90.9685,54.6787 94.4685,61.6787" stroke-width="0" transform=" rotate(0, 90, 58)"/>
  <ellipse cx="102.6106" cy="61.0457" fill="#1b9fd8" rx="3.5" ry="3.5" stroke-width="0" transform=" rotate(0, 102, 61)"/>
  <rect fill="#1b9fd8" height="7" stroke-width="0" transform=" rotate(0, 107, 61)" width="7" x="103.9822" y="57.7145"/>
  <polygon fill="#1b9fd8" points="115.8683,65.4911 119.3683,58.4911 122.8683,65.4911" stroke-width="0" transform=" rotate(0, 119, 61)"/>
  <ellipse cx="131.0292" cy="58.8953" fill="#1b9fd8" rx="3.5" ry="3.5" stroke-width="0" transform=" rotate(0, 131, 58)"/>
  <rect fill="#1b9fd8" height="7" stroke-width="0" transform=" rotate(0, 139, 58)" width="7" x="136.2911" y="54.9731"/>
  <polygon fill="#1b9fd8" points="149.0927,64.8806 152.5927,57.8806 156.0927,64.8806" stroke-width="0" transform=" rotate(0, 152, 61)"/>
  <ellipse cx="161.1262" cy="58.5282" fill="#1b9fd8" rx="3.5" ry="3.5" stroke-width="0" transform=" rotate(0, 161, 58)"/>
  <rect fill="#1b9fd8" height="7" stroke-width="0" transform=" rotate(0, 169, 61)" width="7" x="166.4967" y="58.2292"/>
  <polygon fill="#1b9fd8" points="178.9411,64.9698 182.4411,57.9698 185.9411,64.9698" stroke-width="0" transform=" rotate(0, 182, 61)"/>
  <ellipse cx="190.907" cy="59.7402" fill="#1b9fd8" rx="3.5" ry="3.5" stroke-width="0" transform=" rotate(0, 190, 59)"/>
  <rect fill="#1b9fd8" height="7" stroke-width="0" transform=" rotate(0, 200, 62)" width="7" x="197.2099" y="59.1099"/>
  <polygon fill="#1b9fd8" points="206.9837,63.3545 210.4837,56.3545 213.9837,63.3545" stroke-width="0" transform=" rotate(0, 210, 59)"/>
  <ellipse cx="220.6698" cy="62.2059" fill="#1b9fd8" rx="3.5" ry="3.5" stroke-width="0" transform=" rotate(0, 220, 62)"/>
  <rect fill="#1b9fd8" height="7" stroke-width="0" transform=" rotate(0, 230, 60)" width="7" x="227.3552" y="56.8035"/>
  <polygon fill="#1b9fd8" points="239.1848,63.1931 242.6848,56.1931 246.1848,63.1931" stroke-width="0" transform=" rotate(0, 242, 59)"/>
  <ellipse cx="249.1003" cy="58.4682" fill="#1b9fd8" rx="3.5" ry="3.5" stroke-width="0" transform=" rotate(0, 249, 58)"/>
  <rect fill="#1b9fd8" height="7" stroke-width="0" transform=" rotate(0, 262, 57)" width="7" x="258.956" y="53.8292"/>
  <polygon fill="#1b9fd8" points="265.7968,62.4165 269.2968,55.4165 272.7968,62.4165" stroke-width="0" transform=" rotate(0, 269, 58)"/>
  <ellipse cx="278.6826" cy="60.2757" fill="#1b9fd8" rx="3.5" ry="3.5" stroke-width="0" transform=" rotate(0, 278, 60)"/>
  <rect fill="#006ca1" height="9" stroke-width="0" transform=" rotate(0, 47, 67)" width="9" x="43.1005" y="62.7025"/>
  <polygon fill="#006ca1" points="57.9758,76.6116 62.4758,67.6116 66.9758,76.6116" stroke-width="0" transform=" rotate(0, 62, 72)"/>
  <ellipse cx="67.9591" cy="70.822" fill="#006ca1" rx="4.5" ry="4.5" stroke-width="0" transform=" rotate(0, 67, 70)"/>
  <rect fill="#006ca1" height="9" stroke-width="0" transform=" rotate(0, 79, 70)" width="9" x="74.8587" y="66.3565"/>
  <polygon fill="#006ca1" points="87.7705,76.2695 92.2705,67.2695 96.7705,76.2695" stroke-width="0" transform=" rotate(0, 92, 71)"/>
  <ellipse cx="101.3644" cy="71.7568" fill="#006ca1" rx="4.5" ry="4.5" stroke-width="0" transform=" rotate(0, 101, 71)"/>
  <rect fill="#006ca1" height="9" stroke-width="0" transform=" rotate(0, 108, 68)" width="9" x="104.1548" y="63.8198"/>
  <polygon fill="#006ca1" points="114.7121,72.0562 119.2121,63.0562 123.7121,72.0562" stroke-width="0" transform=" rotate(0, 119, 67)"/>
  <ellipse cx="129.6567" cy="72.0696" fill="#006ca1" rx="4.5" ry="4.5" stroke-width="0" transform=" rotate(0, 129, 72)"/>
  <rect fill="#006ca1" height="9" stroke-width="0" transform=" rotate(0, 138, 70)" width="9" x="134.4274" y="66.2601"/>
  <polygon fill="#006ca1" points="144.941,71.7042 149.441,62.7042 153.941,71.7042" stroke-width="0" transform=" rotate(0, 149, 67)"/>
  <ellipse cx="158.6699" cy="68.2679" fill="#006ca1" rx="4.5" ry="4.5" stroke-width="0" transform=" rotate(0, 158, 68)"/>
  <rect fill="#006ca1" height="9" stroke-width="0" transform=" rotate(0, 167, 69)" width="9" x="163.1546" y="65.1148"/>
  <polygon fill="#006ca1" points="177.6043,75.8761 182.1043,66.8761 186.6043,75.8761" stroke-width="0" transform=" rotate(0, 182, 71)"/>
  <ellipse cx="187.3556" cy="69.2813" fill="#006ca1" rx="4.5" ry="4.5" stroke-width="0" transform=" rotate(0, 187, 69)"/>
  <rect fill="#006ca1" height="9" stroke-width="0" transform=" rotate(0, 200, 70)" width="9" x="196.3909" y="65.5529"/>
  <polygon fill="#006ca1" points="203.2372,73.7325 207.7372,64.7325 212.2372,73.7325" stroke-width="0" transform=" rotate(0, 207, 69)"/>
  <ellipse cx="219.6359" cy="68.7084" fill="#006ca1" rx="4.5" ry="4.5" stroke-width="0" transform=" rotate(0, 219, 68)"/>
  <rect fill="#006ca1" height="9" stroke-width="0" transform=" rotate(0, 227, 69)" width="9" x="223.1609" y="65.2029"/>
  <polygon fill="#006ca1" points="237.1688,73.4926 241.6688,64.4926 246.1688,73.4926" stroke-width="0" transform=" rotate(0, 241, 68)"/>
  <ellipse cx="250.3392" cy="67.9625" fill="#006ca1" rx="4.5" ry="4.5" stroke-width="0" transform=" rotate(0, 250, 67)"/>
  <rect fill="#006ca1" height="9" stroke-width="0" transform=" rotate(0, 259, 70)" width="9" x="254.6497" y="66.0282"/>
  <polygon fill="#006ca1" points="267.6104,76.7085 272.1104,67.7085 276.6104,76.7085" stroke-width="0" transform=" rotate(0, 272, 72)"/>
  <ellipse cx="279.3274" cy="72.2553" fill="#006ca1" rx="4.5" ry="4.5" stroke-width="0" transform=" rotate(0, 279, 72)"/>
  <rect fill="#6dd6ff" height="5" stroke-width="0" transform=" rotate(0, 48, 81)" width="5" x="45.7404" y="79.0613"/>
  <polygon fill="#6dd6ff" points="57.3951,82.7034 59.8951,77.7034 62.3951,82.7034" stroke-width="0" transform=" rotate(0, 59, 80)"/>
  <ellipse cx="70.8204" cy="80.5929" fill="#6dd6ff" rx="2.5" ry="2.5" stroke-width="0" transform=" rotate(0, 70, 80)"/>
  <rect fill="#6dd6ff" height="5" stroke-width="0" transform=" rotate(0, 78, 79)" width="5" x="75.6686" y="77.4765"/>
  <polygon fill="#6dd6ff" points="86.8724,84.5914 89.3724,79.5914 91.8724,84.5914" stroke-width="0" transform=" rotate(0, 89, 82)"/>
  <ellipse cx="98.2171" cy="77.244" fill="#6dd6ff" rx="2.5" ry="2.5" stroke-width="0" transform=" rotate(0, 98, 77)"/>
  <rect fill="#6dd6ff" height="5" stroke-width="0" transform=" rotate(0, 108, 80)" width="5" x="105.6183" y="77.7773"/>
  <polygon fill="#6dd6ff" points="118.1459,84.9367 120.6459,79.9367 123.1459,84.9367" stroke-width="0" transform=" rotate(0, 120, 82)"/>
  <ellipse cx="131.1255" cy="81.3023" fill="#6dd6ff" rx="2.5" ry="2.5" stroke-width="0" transform=" rotate(0, 131, 81)"/>
  <rect fill="#6dd6ff" height="5" stroke-width="0" transform=" rotate(0, 137, 77)" width="5" x="134.7547" y="75.4963"/>
  <polygon fill="#6dd6ff" points="146.1019,80.9919 148.6019,75.9919 151.1019,80.9919" stroke-width="0" transform=" rotate(0, 148, 78)"/>
  <ellipse cx="157.7937" cy="79.4491" fill="#6dd6ff" rx="2.5" ry="2.5" stroke-width="0" transform=" rotate(0, 157, 79)"/>
  <rect fill="#6dd6ff" height="5" stroke-width="0" transform=" rotate(0, 171, 77)" width="5" x="169.091" y="75.494"/>
  <polygon fill="#6dd6ff" points="180.2618,82.1828 182.7618,77.1828 185.2618,82.1828" stroke-width="0" transform=" rotate(0, 182, 79)"/>
  <ellipse cx="187.9751" cy="81.446" fill="#6dd6ff" rx="2.5" ry="2.5" stroke-width="0" transform=" rotate(0, 187, 81)"/>
  <rect fill="#6dd6ff" height="5" stroke-width="0" transform=" rotate(0, 200, 82)" width="5" x="198.3149" y="79.6155"/>
  <polygon fill="#6dd6ff" points="209.174,79.7406 211.674,74.7406 214.174,79.7406" stroke-width="0" transform=" rotate(0, 211, 77)"/>
  <ellipse cx="217.7275" cy="80.1546" fill="#6dd6ff" rx="2.5" ry="2.5" stroke-width="0" transform=" rotate(0, 217, 80)"/>
  <rect fill="#6dd6ff" height="5" stroke-width="0" transform=" rotate(0, 229, 81)" width="5" x="226.6819" y="79.3582"/>
  <polygon fill="#6dd6ff" points="236.747,79.6693 239.247,74.6693 241.747,79.6693" stroke-width="0" transform=" rotate(0, 239, 77)"/>
  <ellipse cx="247.9354" cy="82.4318" fill="#6dd6ff" rx="2.5" ry="2.5" stroke-width="0" transform=" rotate(0, 247, 82)"/>
  <rect fill="#6dd6ff" height="5" stroke-width="0" transform=" rotate(0, 257, 81)" width="5" x="255.0124" y="79.3048"/>
  <polygon fill="#6dd6ff" points="265.7811,82.5456 268.2811,77.5456 270.7811,82.5456" stroke-width="0" transform=" rotate(0, 268, 80)"/>
  <ellipse cx="279.251" cy="79.427" fill="#6dd6ff" rx="2.5" ry="2.5" stroke-width="0" transform=" rotate(0, 279, 79)"/>
  <rect fill="#1b9fd8" height="7" stroke-width="0" transform=" rotate(0, 49, 87)" width="7" x="45.8378" y="84.3168"/>
  <polygon fill="#1b9fd8" points="54.916,96.2113 58.416,89.2113 61.916,96.2113" stroke-width="0" transform=" rotate(0, 58, 92)"/>
  <ellipse cx="71.0919" cy="89.0675" fill="#1b9fd8" rx="3.5" ry="3.5" stroke-width="0" transform=" rotate(0, 71, 89)"/>
  <rect fill="#1b9fd8" height="7" stroke-width="0" transform=" rotate(0, 79, 89)" width="7" x="75.6923" y="86.2186"/>
  <polygon fill="#1b9fd8" points="89.1135,93.7243 92.6135,86.7243 96.1135,93.7243" stroke-width="0" transform=" rotate(0, 92, 90)"/>
  <ellipse cx="100.4511" cy="89.9241" fill="#1b9fd8" rx="3.5" ry="3.5" stroke-width="0" transform=" rotate(0, 100, 89)"/>
  <rect fill="#1b9fd8" height="7" stroke-width="0" transform=" rotate(0, 112, 92)" width="7" x="108.6155" y="89.0862"/>
  <polygon fill="#1b9fd8" points="114.4109,90.9048 117.9109,83.9048 121.4109,90.9048" stroke-width="0" transform=" rotate(0, 117, 87)"/>
  <ellipse cx="129.2309" cy="88.4077" fill="#1b9fd8" rx="3.5" ry="3.5" stroke-width="0" transform=" rotate(0, 129, 88)"/>
  <rect fill="#1b9fd8" height="7" stroke-width="0" transform=" rotate(0, 142, 92)" width="7" x="138.7502" y="88.8574"/>
  <polygon fill="#1b9fd8" points="145.7545,93.0789 149.2545,86.0789 152.7545,93.0789" stroke-width="0" transform=" rotate(0, 149, 89)"/>
  <ellipse cx="157.7894" cy="91.8218" fill="#1b9fd8" rx="3.5" ry="3.5" stroke-width="0" transform=" rotate(0, 157, 91)"/>
  <rect fill="#1b9fd8" height="7" stroke-width="0" transform=" rotate(0, 169, 89)" width="7" x="165.7398" y="85.6882"/>
  <polygon fill="#1b9fd8" points="177.3326,94.9712 180.8326,87.9712 184.3326,94.9712" stroke-width="0" transform=" rotate(0, 180, 91)"/>
  <ellipse cx="189.3775" cy="89.5977" fill="#1b9fd8" rx="3.5" ry="3.5" stroke-width="0" transform=" rotate(0, 189, 89)"/>
  <rect fill="#1b9fd8" height="7" stroke-width="0" transform=" rotate(0, 202, 88)" width="7" x="198.9353" y="84.896"/>
  <polygon fill="#1b9fd8" points="204.7897,95.9871 208.2897,88.9871 211.7897,95.9871" stroke-width="0" transform=" rotate(0, 208, 92)"/>
  <ellipse cx="218.5499" cy="87.8619" fill="#1b9fd8" rx="3.5" ry="3.5" stroke-width="0" transform=" rotate(0, 218, 87)"/>
  <rect fill="#1b9fd8" height="7" stroke-width="0" transform=" rotate(0, 232, 87)" width="7" x="229.1293" y="84.4232"/>
  <polygon fill="#1b9fd8" points="235.1865,93.564 238.6865,86.564 242.1865,93.564" stroke-width="0" transform=" rotate(0, 238, 90)"/>
  <ellipse cx="251.7462" cy="88.7289" fill="#1b9fd8" rx="3.5" ry="3.5" stroke-width="0" transform=" rotate(0, 251, 88)"/>
  <rect fill="#1b9fd8" height="7" stroke-width="0" transform=" rotate(0, 257, 89)" width="7" x="254.205" y="86.2101"/>
  <polygon fill="#1b9fd8" points="264.2902,93.7663 267.7902,86.7663 271.2902,93.7663" stroke-width="0" transform=" rotate(0, 267, 90)"/>
  <ellipse cx="278.8631" cy="89.6571" fill="#1b9fd8" rx="3.5" ry="3.5" stroke-width="0" transform=" rotate(0, 278, 89)"/>
  <rect fill="#006ca1" height="9" stroke-width="0" transform=" rotate(0, 52, 102)" width="9" x="47.5939" y="97.7821"/>
  <polygon fill="#006ca1" points="57.725,104.0346 62.225,95.0346 66.725,104.0346" stroke-width="0" transform=" rotate(0, 62, 99)"/>
  <ellipse cx="72.0687" cy="100.1894" fill="#006ca1" rx="4.5" ry="4.5" stroke-width="0" transform=" rotate(0, 72, 100)"/>
  <rect fill="#006ca1" height="9" stroke-width="0" transform=" rotate(0, 82, 97)" width="9" x="77.6977" y="92.8696"/>
  <polygon fill="#006ca1" points="83.1524,102.6549 87.6524,93.6549 92.1524,102.6549" stroke-width="0" transform=" rotate(0, 87, 98)"/>
  <ellipse cx="99.2755" cy="101.0113" fill="#006ca1" rx="4.5" ry="4.5" stroke-width="0" transform=" rotate(0, 99, 101)"/>
  <rect fill="#006ca1" height="9" stroke-width="0" transform=" rotate(0, 110, 102)" width="9" x="106.4912" y="97.9244"/>
  <polygon fill="#006ca1" points="117.0138,102.5675 121.5138,93.5675 126.0138,102.5675" stroke-width="0" transform=" rotate(0, 121, 98)"/>
  <ellipse cx="131.4208" cy="100.7071" fill="#006ca1" rx="4.5" ry="4.5" stroke-width="0" transform=" rotate(0, 131, 100)"/>
  <rect fill="#006ca1" height="9" stroke-width="0" transform=" rotate(0, 139, 98)" width="9" x="135.211" y="93.8447"/>
  <polygon fill="#006ca1" points="146.8258,106.7924 151.3258,97.7924 155.8258,106.7924" stroke-width="0" transform=" rotate(0, 151, 102)"/>
  <ellipse cx="161.3324" cy="100.3233" fill="#006ca1" rx="4.5" ry="4.5" stroke-width="0" transform=" rotate(0, 161, 100)"/>
  <rect fill="#006ca1" height="9" stroke-width="0" transform=" rotate(0, 172, 102)" width="9" x="167.873" y="97.5213"/>
  <polygon fill="#006ca1" points="172.838,104.9721 177.338,95.9721 181.838,104.9721" stroke-width="0" transform=" rotate(0, 177, 100)"/>
  <ellipse cx="191.5033" cy="101.0007" fill="#006ca1" rx="4.5" ry="4.5" stroke-width="0" transform=" rotate(0, 191, 101)"/>
  <rect fill="#006ca1" height="9" stroke-width="0" transform=" rotate(0, 201, 98)" width="9" x="196.724" y="94.1955"/>
  <polygon fill="#006ca1" points="206.2829,102.6714 210.7829,93.6714 215.2829,102.6714" stroke-width="0" transform=" rotate(0, 210, 98)"/>
  <ellipse cx="220.5143" cy="98.9687" fill="#006ca1" rx="4.5" ry="4.5" stroke-width="0" transform=" rotate(0, 220, 98)"/>
  <rect fill="#006ca1" height="9" stroke-width="0" transform=" rotate(0, 228, 101)" width="9" x="223.9091" y="97.3892"/>
  <polygon fill="#006ca1" points="237.2668,102.7785 241.7668,93.7785 246.2668,102.7785" stroke-width="0" transform=" rotate(0, 241, 98)"/>
  <ellipse cx="251.3729" cy="100.4166" fill="#006ca1" rx="4.5" ry="4.5" stroke-width="0" transform=" rotate(0, 251, 100)"/>
  <rect fill="#006ca1" height="9" stroke-width="0" transform=" rotate(0, 258, 99)" width="9" x="253.7167" y="94.9347"/>
  <polygon fill="#006ca1" points="263.2749,105.0716 267.7749,96.0716 272.2749,105.0716" stroke-width="0" transform=" rotate(0, 267, 100)"/>
  <ellipse cx="282.3165" cy="98.2222" fill="#006ca1" rx="4.5" ry="4.5" stroke-width="0" transform=" rotate(0, 282, 98)"/>
  <rect fill="#6dd6ff" height="5" stroke-width="0" transform=" rotate(0, 48, 111)" width="5" x="45.9546" y="109.2439"/>
  <polygon fill="#6dd6ff" points="55.196,111.4751 57.696,106.4751 60.196,111.4751" stroke-width="0" transform=" rotate(0, 57, 108)"/>
  <ellipse cx="67.2415" cy="111.3757" fill="#6dd6ff" rx="2.5" ry="2.5" stroke-width="0" transform=" rotate(0, 67, 111)"/>
  <rect fill="#6dd6ff" height="5" stroke-width="0" transform=" rotate(0, 80, 110)" width="5" x="78.3303" y="107.9058"/>
  <polygon fill="#6dd6ff" points="84.9844,111.8783 87.4844,106.8783 89.9844,111.8783" stroke-width="0" transform=" rotate(0, 87, 109)"/>
  <ellipse cx="98.2885" cy="112.07" fill="#6dd6ff" rx="2.5" ry="2.5" stroke-width="0" transform=" rotate(0, 98, 112)"/>
  <rect fill="#6dd6ff" height="5" stroke-width="0" transform=" rotate(0, 111, 111)" width="5" x="108.7773" y="108.8817"/>
  <polygon fill="#6dd6ff" points="118.4459,112.5314 120.9459,107.5314 123.4459,112.5314" stroke-width="0" transform=" rotate(0, 120, 110)"/>
  <ellipse cx="130.8989" cy="108.5815" fill="#6dd6ff" rx="2.5" ry="2.5" stroke-width="0" transform=" rotate(0, 130, 108)"/>
  <rect fill="#6dd6ff" height="5" stroke-width="0" transform=" rotate(0, 142, 107)" width="5" x="140.0298" y="104.979"/>
  <polygon fill="#6dd6ff" points="148.2836,113.4775 150.7836,108.4775 153.2836,113.4775" stroke-width="0" transform=" rotate(0, 150, 110)"/>
  <ellipse cx="161.1621" cy="109.8065" fill="#6dd6ff" rx="2.5" ry="2.5" stroke-width="0" transform=" rotate(0, 161, 109)"/>
  <rect fill="#6dd6ff" height="5" stroke-width="0" transform=" rotate(0, 169, 110)" width="5" x="167.0117" y="107.5242"/>
  <polygon fill="#6dd6ff" points="179.058,115.1449 181.558,110.1449 184.058,115.1449" stroke-width="0" transform=" rotate(0, 181, 112)"/>
  <ellipse cx="188.9046" cy="110.978" fill="#6dd6ff" rx="2.5" ry="2.5" stroke-width="0" transform=" rotate(0, 188, 110)"/>
  <rect fill="#6dd6ff" height="5" stroke-width="0" transform=" rotate(0, 202, 108)" width="5" x="199.9944" y="105.7893"/>
  <polygon fill="#6dd6ff" points="207.569,114.8006 210.069,109.8006 212.569,114.8006" stroke-width="0" transform=" rotate(0, 210, 112)"/>
  <ellipse cx="218.9254" cy="110.1064" fill="#6dd6ff" rx="2.5" ry="2.5" stroke-width="0" transform=" rotate(0, 218, 110)"/>
  <rect fill="#6dd6ff" height="5" stroke-width="0" transform=" rotate(0, 232, 111)" width="5" x="229.8114" y="109.0238"/>
  <polygon fill="#6dd6ff" points="239.9274,109.7469 242.4274,104.7469 244.9274,109.7469" stroke-width="0" transform=" rotate(0, 242, 107)"/>
  <ellipse cx="252.2625" cy="109.2931" fill="#6dd6ff" rx="2.5" ry="2.5" stroke-width="0" transform=" rotate(0, 252, 109)"/>
  <rect fill="#6dd6ff" height="5" stroke-width="0" transform=" rotate(0, 258, 107)" width="5" x="255.5687" y="105.4162"/>
  <polygon fill="#6dd6ff" points="267.0077,111.3749 269.5077,106.3749 272.0077,111.3749" stroke-width="0" transform=" rotate(0, 269, 108)"/>
  <ellipse cx="281.3928" cy="109.6292" fill="#6dd6ff" rx="2.5" ry="2.5" stroke-width="0" transform=" rotate(0, 281, 109)"/>
  <rect fill="#1b9fd8" height="7" stroke-width="0" transform=" rotate(0, 50, 122)" width="7" x="47.2833" y="118.7891"/>
  <polygon fill="#1b9fd8" points="56.4397,125.5038 59.9397,118.5038 63.4397,125.5038" stroke-width="0" transform=" rotate(0, 59, 122)"/>
  <ellipse cx="72.2131" cy="119.6622" fill="#1b9fd8" rx="3.5" ry="3.5" stroke-width="0" transform=" rotate(0, 72, 119)"/>
  <rect fill="#1b9fd8" height="7" stroke-width="0" transform=" rotate(0, 78, 117)" width="7" x="74.8082" y="114.4862"/>
  <polygon fill="#1b9fd8" points="85.7874,125.5727 89.2874,118.5727 92.7874,125.5727" stroke-width="0" transform=" rotate(0, 89, 122)"/>
  <ellipse cx="101.9316" cy="119.6254" fill="#1b9fd8" rx="3.5" ry="3.5" stroke-width="0" transform=" rotate(0, 101, 119)"/>
  <rect fill="#1b9fd8" height="7" stroke-width="0" transform=" rotate(0, 111, 122)" width="7" x="107.5585" y="118.7503"/>
  <polygon fill="#1b9fd8" points="119.1212,122.8828 122.6212,115.8828 126.1212,122.8828" stroke-width="0" transform=" rotate(0, 122, 119)"/>
  <ellipse cx="130.5718" cy="117.6408" fill="#1b9fd8" rx="3.5" ry="3.5" stroke-width="0" transform=" rotate(0, 130, 117)"/>
  <rect fill="#1b9fd8" height="7" stroke-width="0" transform=" rotate(0, 140, 119)" width="7" x="136.9467" y="115.9009"/>
  <polygon fill="#1b9fd8" points="146.3027,123.604 149.8027,116.604 153.3027,123.604" stroke-width="0" transform=" rotate(0, 149, 120)"/>
  <ellipse cx="161.4802" cy="122.2831" fill="#1b9fd8" rx="3.5" ry="3.5" stroke-width="0" transform=" rotate(0, 161, 122)"/>
  <rect fill="#1b9fd8" height="7" stroke-width="0" transform=" rotate(0, 167, 120)" width="7" x="163.7745" y="117.3161"/>
  <polygon fill="#1b9fd8" points="174.7525,120.8651 178.2525,113.8651 181.7525,120.8651" stroke-width="0" transform=" rotate(0, 178, 117)"/>
  <ellipse cx="188.4811" cy="122.6266" fill="#1b9fd8" rx="3.5" ry="3.5" stroke-width="0" transform=" rotate(0, 188, 122)"/>
  <rect fill="#1b9fd8" height="7" stroke-width="0" transform=" rotate(0, 200, 119)" width="7" x="196.6068" y="116.1957"/>
  <polygon fill="#1b9fd8" points="209.1706,121.4527 212.6706,114.4527 216.1706,121.4527" stroke-width="0" transform=" rotate(0, 212, 117)"/>
  <ellipse cx="219.2706" cy="119.0707" fill="#1b9fd8" rx="3.5" ry="3.5" stroke-width="0" transform=" rotate(0, 219, 119)"/>
  <rect fill="#1b9fd8" height="7" stroke-width="0" transform=" rotate(0, 231, 121)" width="7" x="227.8762" y="118.0968"/>
  <polygon fill="#1b9fd8" points="236.9011,125.7461 240.4011,118.7461 243.9011,125.7461" stroke-width="0" transform=" rotate(0, 240, 122)"/>
  <ellipse cx="252.5082" cy="119.6365" fill="#1b9fd8" rx="3.5" ry="3.5" stroke-width="0" transform=" rotate(0, 252, 119)"/>
  <rect fill="#1b9fd8" height="7" stroke-width="0" transform=" rotate(0, 261, 118)" width="7" x="257.7394" y="115.2724"/>
  <polygon fill="#1b9fd8" points="269.0386,125.8743 272.5386,118.8743 276.0386,125.8743" stroke-width="0" transform=" rotate(0, 272, 122)"/>
  <ellipse cx="282.6001" cy="119.281" fill="#1b9fd8" rx="3.5" ry="3.5" stroke-width="0" transform=" rotate(0, 282, 119)"/>
  <rect fill="#006ca1" height="9" stroke-width="0" transform=" rotate(0, 49, 130)" width="9" x="44.8463" y="126.3201"/>
  <polygon fill="#006ca1" points="56.7165,136.0115 61.2165,127.0115 65.7165,136.0115" stroke-width="0" transform=" rotate(0, 61, 131)"/>
  <ellipse cx="70.1088" cy="131.8869" fill="#006ca1" rx="4.5" ry="4.5" stroke-width="0" transform=" rotate(0, 70, 131)"/>
  <rect fill="#006ca1" height="9" stroke-width="0" transform=" rotate(0, 80, 131)" width="9" x="75.7163" y="127.4527"/>
  <polygon fill="#006ca1" points="88.2142,132.7272 92.7142,123.7272 97.2142,132.7272" stroke-width="0" transform=" rotate(0, 92, 128)"/>
  <ellipse cx="100.3626" cy="128.5487" fill="#006ca1" rx="4.5" ry="4.5" stroke-width="0" transform=" rotate(0, 100, 128)"/>
  <rect fill="#006ca1" height="9" stroke-width="0" transform=" rotate(0, 111, 130)" width="9" x="107.0279" y="125.7547"/>
  <polygon fill="#006ca1" points="115.3684,135.4177 119.8684,126.4177 124.3684,135.4177" stroke-width="0" transform=" rotate(0, 119, 130)"/>
  <ellipse cx="130.463" cy="130.0632" fill="#006ca1" rx="4.5" ry="4.5" stroke-width="0" transform=" rotate(0, 130, 130)"/>
  <rect fill="#006ca1" height="9" stroke-width="0" transform=" rotate(0, 139, 131)" width="9" x="134.6709" y="126.7188"/>
  <polygon fill="#006ca1" points="145.4433,135.157 149.9433,126.157 154.4433,135.157" stroke-width="0" transform=" rotate(0, 149, 130)"/>
  <ellipse cx="158.3678" cy="130.6849" fill="#006ca1" rx="4.5" ry="4.5" stroke-width="0" transform=" rotate(0, 158, 130)"/>
  <rect fill="#006ca1" height="9" stroke-width="0" transform=" rotate(0, 169, 130)" width="9" x="164.9866" y="126.2703"/>
  <polygon fill="#006ca1" points="176.8344,134.1078 181.3344,125.1078 185.8344,134.1078" stroke-width="0" transform=" rotate(0, 181, 129)"/>
  <ellipse cx="191.54" cy="130.9325" fill="#006ca1" rx="4.5" ry="4.5" stroke-width="0" transform=" rotate(0, 191, 130)"/>
  <rect fill="#006ca1" height="9" stroke-width="0" transform=" rotate(0, 198, 132)" width="9" x="193.6094" y="128.2282"/>
  <polygon fill="#006ca1" points="204.4546,134.2946 208.9546,125.2946 213.4546,134.2946" stroke-width="0" transform=" rotate(0, 208, 129)"/>
  <ellipse cx="220.8345" cy="131.4509" fill="#006ca1" rx="4.5" ry="4.5" stroke-width="0" transform=" rotate(0, 220, 131)"/>
  <rect fill="#006ca1" height="9" stroke-width="0" transform=" rotate(0, 232, 132)" width="9" x="227.9908" y="127.5378"/>
  <polygon fill="#006ca1" points="233.8795,133.8878 238.3795,124.8878 242.8795,133.8878" stroke-width="0" transform=" rotate(0, 238, 129)"/>
  <ellipse cx="252.1438" cy="127.8339" fill="#006ca1" rx="4.5" ry="4.5" stroke-width="0" transform=" rotate(0, 252, 127)"/>
  <rect fill="#006ca1" height="9" stroke-width="0" transform=" rotate(0, 258, 130)" width="9" x="254.4517" y="125.8505"/>
  <polygon fill="#006ca1" points="266.0749,131.7713 270.5749,122.7713 275.0749,131.7713" stroke-width="0" transform=" rotate(0, 270, 127)"/>
  <ellipse cx="278.0117" cy="131.9435" fill="#006ca1" rx="4.5" ry="4.5" stroke-width="0" transform=" rotate(0, 278, 131)"/>
  <rect fill="#6dd6ff" height="5" stroke-width="0" transform=" rotate(0, 47, 141)" width="5" x="45.4281" y="139.4857"/>
  <polygon fill="#6dd6ff" points="57.8053,143.2571 60.3053,138.2571 62.8053,143.2571" stroke-width="0" transform=" rotate(0, 60, 140)"/>
  <ellipse cx="71.7525" cy="140.0515" fill="#6dd6ff" rx="2.5" ry="2.5" stroke-width="0" transform=" rotate(0, 71, 140)"/>
  <rect fill="#6dd6ff" height="5" stroke-width="0" transform=" rotate(0, 80, 142)" width="5" x="77.8261" y="139.7189"/>
  <polygon fill="#6dd6ff" points="86.0057,140.5403 88.5057,135.5403 91.0057,140.5403" stroke-width="0" transform=" rotate(0, 88, 138)"/>
  <ellipse cx="99.006" cy="141.6498" fill="#6dd6ff" rx="2.5" ry="2.5" stroke-width="0" transform=" rotate(0, 99, 141)"/>
  <rect fill="#6dd6ff" height="5" stroke-width="0" transform=" rotate(0, 108, 142)" width="5" x="106.0652" y="139.5195"/>
  <polygon fill="#6dd6ff" points="116.9696,142.5727 119.4696,137.5727 121.9696,142.5727" stroke-width="0" transform=" rotate(0, 119, 140)"/>
  <ellipse cx="132.3532" cy="142.6877" fill="#6dd6ff" rx="2.5" ry="2.5" stroke-width="0" transform=" rotate(0, 132, 142)"/>
  <rect fill="#6dd6ff" height="5" stroke-width="0" transform=" rotate(0, 139, 142)" width="5" x="136.9201" y="139.5814"/>
  <polygon fill="#6dd6ff" points="148.129,143.1669 150.629,138.1669 153.129,143.1669" stroke-width="0" transform=" rotate(0, 150, 140)"/>
  <ellipse cx="159.6394" cy="139.4435" fill="#6dd6ff" rx="2.5" ry="2.5" stroke-width="0" transform=" rotate(0, 159, 139)"/>
  <rect fill="#6dd6ff" height="5" stroke-width="0" transform=" rotate(0, 168, 138)" width="5" x="166.4294" y="135.7585"/>
  <polygon fill="#6dd6ff" points="174.6929,140.3122 177.1929,135.3122 179.6929,140.3122" stroke-width="0" transform=" rotate(0, 177, 137)"/>
  <ellipse cx="189.4637" cy="141.8164" fill="#6dd6ff" rx="2.5" ry="2.5" stroke-width="0" transform=" rotate(0, 189, 141)"/>
  <rect fill="#6dd6ff" height="5" stroke-width="0" transform=" rotate(0, 201, 142)" width="5" x="199.1566" y="139.6059"/>
  <polygon fill="#6dd6ff" points="204.977,139.7309 207.477,134.7309 209.977,139.7309" stroke-width="0" transform=" rotate(0, 207, 137)"/>
  <ellipse cx="222.3683" cy="142.3831" fill="#6dd6ff" rx="2.5" ry="2.5" stroke-width="0" transform=" rotate(0, 222, 142)"/>
  <rect fill="#6dd6ff" height="5" stroke-width="0" transform=" rotate(0, 229, 138)" width="5" x="227.231" y="136.4611"/>
  <polygon fill="#6dd6ff" points="238.2937,142.6569 240.7937,137.6569 243.2937,142.6569" stroke-width="0" transform=" rotate(0, 240, 140)"/>
  <ellipse cx="250.3402" cy="137.9288" fill="#6dd6ff" rx="2.5" ry="2.5" stroke-width="0" transform=" rotate(0, 250, 137)"/>
  <rect fill="#6dd6ff" height="5" stroke-width="0" transform=" rotate(0, 259, 138)" width="5" x="257.1407" y="136.3975"/>
  <polygon fill="#6dd6ff" points="269.5505,145.0319 272.0505,140.0319 274.5505,145.0319" stroke-width="0" transform=" rotate(0, 272, 142)"/>
  <ellipse cx="277.4557" cy="141.0754" fill="#6dd6ff" rx="2.5" ry="2.5" stroke-width="0" transform=" rotate(0, 277, 141)"/>
  <rect fill="#1b9fd8" height="7" stroke-width="0" transform=" rotate(0, 52, 150)" width="7" x="49.1775" y="146.9133"/>
  <polygon fill="#1b9fd8" points="56.2769,152.3058 59.7769,145.3058 63.2769,152.3058" stroke-width="0" transform=" rotate(0, 59, 148)"/>
  <ellipse cx="69.3317" cy="149.4978" fill="#1b9fd8" rx="3.5" ry="3.5" stroke-width="0" transform=" rotate(0, 69, 149)"/>
  <rect fill="#1b9fd8" height="7" stroke-width="0" transform=" rotate(0, 78, 150)" width="7" x="75.0748" y="146.9276"/>
  <polygon fill="#1b9fd8" points="88.5475,155.2201 92.0475,148.2201 95.5475,155.2201" stroke-width="0" transform=" rotate(0, 92, 151)"/>
  <ellipse cx="98.3926" cy="150.362" fill="#1b9fd8" rx="3.5" ry="3.5" stroke-width="0" transform=" rotate(0, 98, 150)"/>
  <rect fill="#1b9fd8" height="7" stroke-width="0" transform=" rotate(0, 110, 150)" width="7" x="106.837" y="147.1475"/>
  <polygon fill="#1b9fd8" points="118.0278,152.674 121.5278,145.674 125.0278,152.674" stroke-width="0" transform=" rotate(0, 121, 149)"/>
  <ellipse cx="131.7789" cy="148.5532" fill="#1b9fd8" rx="3.5" ry="3.5" stroke-width="0" transform=" rotate(0, 131, 148)"/>
  <rect fill="#1b9fd8" height="7" stroke-width="0" transform=" rotate(0, 139, 148)" width="7" x="136.076" y="144.7176"/>
  <polygon fill="#1b9fd8" points="147.6646,154.1074 151.1646,147.1074 154.6646,154.1074" stroke-width="0" transform=" rotate(0, 151, 150)"/>
  <ellipse cx="159.0443" cy="152.69" fill="#1b9fd8" rx="3.5" ry="3.5" stroke-width="0" transform=" rotate(0, 159, 152)"/>
  <rect fill="#1b9fd8" height="7" stroke-width="0" transform=" rotate(0, 168, 152)" width="7" x="164.9937" y="149.002"/>
  <polygon fill="#1b9fd8" points="175.5837,151.3669 179.0837,144.3669 182.5837,151.3669" stroke-width="0" transform=" rotate(0, 179, 147)"/>
  <ellipse cx="188.111" cy="150.6436" fill="#1b9fd8" rx="3.5" ry="3.5" stroke-width="0" transform=" rotate(0, 188, 150)"/>
  <rect fill="#1b9fd8" height="7" stroke-width="0" transform=" rotate(0, 197, 150)" width="7" x="194.4474" y="146.613"/>
  <polygon fill="#1b9fd8" points="205.8857,152.9467 209.3857,145.9467 212.8857,152.9467" stroke-width="0" transform=" rotate(0, 209, 149)"/>
  <ellipse cx="222.3053" cy="151.6953" fill="#1b9fd8" rx="3.5" ry="3.5" stroke-width="0" transform=" rotate(0, 222, 151)"/>
  <rect fill="#1b9fd8" height="7" stroke-width="0" transform=" rotate(0, 228, 152)" width="7" x="224.6993" y="148.7985"/>
  <polygon fill="#1b9fd8" points="238.2935,154.2884 241.7935,147.2884 245.2935,154.2884" stroke-width="0" transform=" rotate(0, 241, 150)"/>
  <ellipse cx="249.7852" cy="150.1981" fill="#1b9fd8" rx="3.5" ry="3.5" stroke-width="0" transform=" rotate(0, 249, 150)"/>
  <rect fill="#1b9fd8" height="7" stroke-width="0" transform=" rotate(0, 258, 147)" width="7" x="255.0096" y="143.7221"/>
  <polygon fill="#1b9fd8" points="267.4845,155.7088 270.9845,148.7088 274.4845,155.7088" stroke-width="0" transform=" rotate(0, 270, 152)"/>
  <ellipse cx="282.1356" cy="149.9274" fill="#1b9fd8" rx="3.5" ry="3.5" stroke-width="0" transform=" rotate(0, 282, 149)"/>
  <rect fill="#006ca1" height="9" stroke-width="0" transform=" rotate(0, 50, 158)" width="9" x="46.2271" y="154.1179"/>
  <polygon fill="#006ca1" points="54.6863,165.3653 59.1863,156.3653 63.6863,165.3653" stroke-width="0" transform=" rotate(0, 59, 160)"/>
  <ellipse cx="67.4958" cy="160.242" fill="#006ca1" rx="4.5" ry="4.5" stroke-width="0" transform=" rotate(0, 67, 160)"/>
  <rect fill="#006ca1" height="9" stroke-width="0" transform=" rotate(0, 80, 158)" width="9" x="75.7301" y="153.6779"/>
  <polygon fill="#006ca1" points="83.2344,162.4968 87.7344,153.4968 92.2344,162.4968" stroke-width="0" transform=" rotate(0, 87, 157)"/>
  <ellipse cx="100.5069" cy="162.0344" fill="#006ca1" rx="4.5" ry="4.5" stroke-width="0" transform=" rotate(0, 100, 162)"/>
  <rect fill="#006ca1" height="9" stroke-width="0" transform=" rotate(0, 111, 162)" width="9" x="106.7802" y="157.5338"/>
  <polygon fill="#006ca1" points="114.9586,164.9129 119.4586,155.9129 123.9586,164.9129" stroke-width="0" transform=" rotate(0, 119, 160)"/>
  <ellipse cx="131.6553" cy="160.6217" fill="#006ca1" rx="4.5" ry="4.5" stroke-width="0" transform=" rotate(0, 131, 160)"/>
  <rect fill="#006ca1" height="9" stroke-width="0" transform=" rotate(0, 139, 161)" width="9" x="134.5717" y="157.2593"/>
  <polygon fill="#006ca1" points="142.9036,164.4453 147.4036,155.4453 151.9036,164.4453" stroke-width="0" transform=" rotate(0, 147, 159)"/>
  <ellipse cx="157.3555" cy="159.7829" fill="#006ca1" rx="4.5" ry="4.5" stroke-width="0" transform=" rotate(0, 157, 159)"/>
  <rect fill="#006ca1" height="9" stroke-width="0" transform=" rotate(0, 172, 158)" width="9" x="167.5103" y="154.0272"/>
  <polygon fill="#006ca1" points="176.5867,162.5048 181.0867,153.5048 185.5867,162.5048" stroke-width="0" transform=" rotate(0, 181, 158)"/>
  <ellipse cx="187.3248" cy="162.1489" fill="#006ca1" rx="4.5" ry="4.5" stroke-width="0" transform=" rotate(0, 187, 162)"/>
  <rect fill="#006ca1" height="9" stroke-width="0" transform=" rotate(0, 200, 160)" width="9" x="196.1835" y="156.3296"/>
  <polygon fill="#006ca1" points="207.4943,165.3711 211.9943,156.3711 216.4943,165.3711" stroke-width="0" transform=" rotate(0, 211, 160)"/>
  <ellipse cx="218.4434" cy="162.5596" fill="#006ca1" rx="4.5" ry="4.5" stroke-width="0" transform=" rotate(0, 218, 162)"/>
  <rect fill="#006ca1" height="9" stroke-width="0" transform=" rotate(0, 229, 157)" width="9" x="224.5503" y="153.0084"/>
  <polygon fill="#006ca1" points="234.7751,165.1753 239.2751,156.1753 243.7751,165.1753" stroke-width="0" transform=" rotate(0, 239, 160)"/>
  <ellipse cx="247.7148" cy="159.0303" fill="#006ca1" rx="4.5" ry="4.5" stroke-width="0" transform=" rotate(0, 247, 159)"/>
  <rect fill="#006ca1" height="9" stroke-width="0" transform=" rotate(0, 262, 160)" width="9" x="258.1693" y="155.8738"/>
  <polygon fill="#006ca1" points="268.2065,166.9071 272.7065,157.9071 277.2065,166.9071" stroke-width="0" transform=" rotate(0, 272, 162)"/>
  <ellipse cx="277.9584" cy="157.5273" fill="#006ca1" rx="4.5" ry="4.5" stroke-width="0" transform=" rotate(0, 277, 157)"/>
  <rect fill="#006ca1" height="9" stroke-width="0" transform=" rotate(0, 49, 171)" width="9" x="44.8283" y="167.1511"/>
  <polygon fill="#006ca1" points="58.0941,174.8028 62.5941,165.8028 67.0941,174.8028" stroke-width="0" transform=" rotate(0, 62, 170)"/>
  <ellipse cx="72.2587" cy="168.1607" fill="#006ca1" rx="4.5" ry="4.5" stroke-width="0" transform=" rotate(0, 72, 168)"/>
  <rect fill="#006ca1" height="9" stroke-width="0" transform=" rotate(0, 77, 169)" width="9" x="73.4495" y="164.797"/>
  <polygon fill="#006ca1" points="85.3243,174.5389 89.8243,165.5389 94.3243,174.5389" stroke-width="0" transform=" rotate(0, 89, 170)"/>
  <ellipse cx="99.5334" cy="171.3322" fill="#006ca1" rx="4.5" ry="4.5" stroke-width="0" transform=" rotate(0, 99, 171)"/>
  <rect fill="#006ca1" height="9" stroke-width="0" transform=" rotate(0, 110, 167)" width="9" x="106.1129" y="163.117"/>
  <polygon fill="#006ca1" points="115.4336,171.9952 119.9336,162.9952 124.4336,171.9952" stroke-width="0" transform=" rotate(0, 119, 167)"/>
  <ellipse cx="129.2976" cy="167.619" fill="#006ca1" rx="4.5" ry="4.5" stroke-width="0" transform=" rotate(0, 129, 167)"/>
  <rect fill="#006ca1" height="9" stroke-width="0" transform=" rotate(0, 138, 169)" width="9" x="133.702" y="164.7612"/>
  <polygon fill="#006ca1" points="146.7861,174.7053 151.2861,165.7053 155.7861,174.7053" stroke-width="0" transform=" rotate(0, 151, 170)"/>
  <ellipse cx="160.6223" cy="172.2294" fill="#006ca1" rx="4.5" ry="4.5" stroke-width="0" transform=" rotate(0, 160, 172)"/>
  <rect fill="#006ca1" height="9" stroke-width="0" transform=" rotate(0, 167, 172)" width="9" x="162.9854" y="167.5916"/>
  <polygon fill="#006ca1" points="176.3317,173.9246 180.8317,164.9246 185.3317,173.9246" stroke-width="0" transform=" rotate(0, 180, 169)"/>
  <ellipse cx="192.3512" cy="171.7274" fill="#006ca1" rx="4.5" ry="4.5" stroke-width="0" transform=" rotate(0, 192, 171)"/>
  <rect fill="#006ca1" height="9" stroke-width="0" transform=" rotate(0, 200, 172)" width="9" x="195.6137" y="167.7333"/>
  <polygon fill="#006ca1" points="204.9766,174.2979 209.4766,165.2979 213.9766,174.2979" stroke-width="0" transform=" rotate(0, 209, 169)"/>
  <ellipse cx="221.3583" cy="167.9753" fill="#006ca1" rx="4.5" ry="4.5" stroke-width="0" transform=" rotate(0, 221, 167)"/>
  <rect fill="#006ca1" height="9" stroke-width="0" transform=" rotate(0, 231, 169)" width="9" x="226.6129" y="165.2621"/>
  <polygon fill="#006ca1" points="233.7336,173.8994 238.2336,164.8994 242.7336,173.8994" stroke-width="0" transform=" rotate(0, 238, 169)"/>
  <ellipse cx="250.7725" cy="169.5236" fill="#006ca1" rx="4.5" ry="4.5" stroke-width="0" transform=" rotate(0, 250, 169)"/>
  <rect fill="#006ca1" height="9" stroke-width="0" transform=" rotate(0, 261, 167)" width="9" x="257.2035" y="163.3212"/>
  <polygon fill="#006ca1" points="267.756,174.2925 272.256,165.2925 276.756,174.2925" stroke-width="0" transform=" rotate(0, 272, 169)"/>
  <ellipse cx="278.7506" cy="170.4719" fill="#006ca1" rx="4.5" ry="4.5" stroke-width="0" transform=" rotate(0, 278, 170)"/>
  <rect fill="#1b9fd8" height="7" stroke-width="0" transform=" rotate(0, 49, 181)" width="7" x="45.6646" y="178.2446"/>
  <polygon fill="#1b9fd8" points="54.3961,181.9151 57.8961,174.9151 61.3961,181.9151" stroke-width="0" transform=" rotate(0, 57, 178)"/>
  <ellipse cx="67.6087" cy="178.2918" fill="#1b9fd8" rx="3.5" ry="3.5" stroke-width="0" transform=" rotate(0, 67, 178)"/>
  <rect fill="#1b9fd8" height="7" stroke-width="0" transform=" rotate(0, 77, 181)" width="7" x="74.2553" y="177.9543"/>
  <polygon fill="#1b9fd8" points="88.9025,181.5844 92.4025,174.5844 95.9025,181.5844" stroke-width="0" transform=" rotate(0, 92, 178)"/>
  <ellipse cx="102.6528" cy="179.3327" fill="#1b9fd8" rx="3.5" ry="3.5" stroke-width="0" transform=" rotate(0, 102, 179)"/>
  <rect fill="#1b9fd8" height="7" stroke-width="0" transform=" rotate(0, 110, 180)" width="7" x="106.9288" y="176.9119"/>
  <polygon fill="#1b9fd8" points="116.4046,183.1236 119.9046,176.1236 123.4046,183.1236" stroke-width="0" transform=" rotate(0, 119, 179)"/>
  <ellipse cx="132.3868" cy="182.5178" fill="#1b9fd8" rx="3.5" ry="3.5" stroke-width="0" transform=" rotate(0, 132, 182)"/>
  <rect fill="#1b9fd8" height="7" stroke-width="0" transform=" rotate(0, 142, 177)" width="7" x="139.2771" y="174.2879"/>
  <polygon fill="#1b9fd8" points="147.7284,181.1044 151.2284,174.1044 154.7284,181.1044" stroke-width="0" transform=" rotate(0, 151, 177)"/>
  <ellipse cx="159.8641" cy="182.3198" fill="#1b9fd8" rx="3.5" ry="3.5" stroke-width="0" transform=" rotate(0, 159, 182)"/>
  <rect fill="#1b9fd8" height="7" stroke-width="0" transform=" rotate(0, 171, 180)" width="7" x="168.079" y="177.0795"/>
  <polygon fill="#1b9fd8" points="176.1418,185.1711 179.6418,178.1711 183.1418,185.1711" stroke-width="0" transform=" rotate(0, 179, 181)"/>
  <ellipse cx="189.4584" cy="177.2845" fill="#1b9fd8" rx="3.5" ry="3.5" stroke-width="0" transform=" rotate(0, 189, 177)"/>
  <rect fill="#1b9fd8" height="7" stroke-width="0" transform=" rotate(0, 200, 177)" width="7" x="196.9475" y="174.1252"/>
  <polygon fill="#1b9fd8" points="208.9379,185.2453 212.4379,178.2453 215.9379,185.2453" stroke-width="0" transform=" rotate(0, 212, 181)"/>
  <ellipse cx="219.821" cy="178.2951" fill="#1b9fd8" rx="3.5" ry="3.5" stroke-width="0" transform=" rotate(0, 219, 178)"/>
  <rect fill="#1b9fd8" height="7" stroke-width="0" transform=" rotate(0, 230, 181)" width="7" x="226.8873" y="178.235"/>
  <polygon fill="#1b9fd8" points="235.6709,180.9741 239.1709,173.9741 242.6709,180.9741" stroke-width="0" transform=" rotate(0, 239, 177)"/>
  <ellipse cx="247.8983" cy="181.0912" fill="#1b9fd8" rx="3.5" ry="3.5" stroke-width="0" transform=" rotate(0, 247, 181)"/>
  <rect fill="#1b9fd8" height="7" stroke-width="0" transform=" rotate(0, 261, 177)" width="7" x="258.1687" y="174.2095"/>
  <polygon fill="#1b9fd8" points="266.6619,180.9798 270.1619,173.9798 273.6619,180.9798" stroke-width="0" transform=" rotate(0, 270, 177)"/>
  <ellipse cx="277.7313" cy="180.5757" fill="#1b9fd8" rx="3.5" ry="3.5" stroke-width="0" transform=" rotate(0, 277, 180)"/>
  <rect fill="#6dd6ff" height="5" stroke-width="0" transform=" rotate(0, 49, 189)" width="5" x="47.303" y="186.5783"/>
  <polygon fill="#6dd6ff" points="60.2545,194.5284 62.7545,189.5284 65.2545,194.5284" stroke-width="0" transform=" rotate(0, 62, 192)"/>
  <ellipse cx="68.2604" cy="192.0573" fill="#6dd6ff" rx="2.5" ry="2.5" stroke-width="0" transform=" rotate(0, 68, 192)"/>
  <rect fill="#6dd6ff" height="5" stroke-width="0" transform=" rotate(0, 82, 189)" width="5" x="79.6242" y="186.8799"/>
  <polygon fill="#6dd6ff" points="86.6184,194.7264 89.1184,189.7264 91.6184,194.7264" stroke-width="0" transform=" rotate(0, 89, 192)"/>
  <ellipse cx="97.7109" cy="190.3571" fill="#6dd6ff" rx="2.5" ry="2.5" stroke-width="0" transform=" rotate(0, 97, 190)"/>
  <rect fill="#6dd6ff" height="5" stroke-width="0" transform=" rotate(0, 109, 189)" width="5" x="106.5384" y="186.9268"/>
  <polygon fill="#6dd6ff" points="118.4402,189.9956 120.9402,184.9956 123.4402,189.9956" stroke-width="0" transform=" rotate(0, 120, 187)"/>
  <ellipse cx="131.91" cy="192.4568" fill="#6dd6ff" rx="2.5" ry="2.5" stroke-width="0" transform=" rotate(0, 131, 192)"/>
  <rect fill="#6dd6ff" height="5" stroke-width="0" transform=" rotate(0, 138, 188)" width="5" x="135.817" y="185.5947"/>
  <polygon fill="#6dd6ff" points="149.5405,190.9389 152.0405,185.9389 154.5405,190.9389" stroke-width="0" transform=" rotate(0, 152, 188)"/>
  <ellipse cx="158.9483" cy="191.2916" fill="#6dd6ff" rx="2.5" ry="2.5" stroke-width="0" transform=" rotate(0, 158, 191)"/>
  <rect fill="#6dd6ff" height="5" stroke-width="0" transform=" rotate(0, 167, 192)" width="5" x="165.3261" y="189.5168"/>
  <polygon fill="#6dd6ff" points="179.8239,191.4784 182.3239,186.4784 184.8239,191.4784" stroke-width="0" transform=" rotate(0, 182, 188)"/>
  <ellipse cx="187.9947" cy="188.3863" fill="#6dd6ff" rx="2.5" ry="2.5" stroke-width="0" transform=" rotate(0, 187, 188)"/>
  <rect fill="#6dd6ff" height="5" stroke-width="0" transform=" rotate(0, 201, 190)" width="5" x="198.9607" y="187.927"/>
  <polygon fill="#6dd6ff" points="205.642,194.0235 208.142,189.0235 210.642,194.0235" stroke-width="0" transform=" rotate(0, 208, 191)"/>
  <ellipse cx="218.484" cy="189.3578" fill="#6dd6ff" rx="2.5" ry="2.5" stroke-width="0" transform=" rotate(0, 218, 189)"/>
  <rect fill="#6dd6ff" height="5" stroke-width="0" transform=" rotate(0, 229, 187)" width="5" x="226.9152" y="184.7019"/>
  <polygon fill="#6dd6ff" points="238.347,194.4205 240.847,189.4205 243.347,194.4205" stroke-width="0" transform=" rotate(0, 240, 191)"/>
  <ellipse cx="249.5363" cy="187.7986" fill="#6dd6ff" rx="2.5" ry="2.5" stroke-width="0" transform=" rotate(0, 249, 187)"/>
  <rect fill="#6dd6ff" height="5" stroke-width="0" transform=" rotate(0, 261, 187)" width="5" x="258.6217" y="184.7648"/>
  <polygon fill="#6dd6ff" points="267.854,193.6933 270.354,188.6933 272.854,193.6933" stroke-width="0" transform=" rotate(0, 270, 191)"/>
  <ellipse cx="277.7527" cy="189.0752" fill="#6dd6ff" rx="2.5" ry="2.5" stroke-width="0" transform=" rotate(0, 277, 189)"/>
  <rect fill="#006ca1" height="9" stroke-width="0" transform=" rotate(0, 48, 198)" width="9" x="44.1879" y="193.5919"/>
  <polygon fill="#006ca1" points="52.9566,203.5793 57.4566,194.5793 61.9566,203.5793" stroke-width="0" transform=" rotate(0, 57, 199)"/>
  <ellipse cx="71.6164" cy="197.6106" fill="#006ca1" rx="4.5" ry="4.5" stroke-width="0" transform=" rotate(0, 71, 197)"/>
  <rect fill="#006ca1" height="9" stroke-width="0" transform=" rotate(0, 79, 202)" width="9" x="75.3486" y="198.0809"/>
  <polygon fill="#006ca1" points="85.8344,205.1399 90.3344,196.1399 94.8344,205.1399" stroke-width="0" transform=" rotate(0, 90, 200)"/>
  <ellipse cx="102.033" cy="197.1547" fill="#006ca1" rx="4.5" ry="4.5" stroke-width="0" transform=" rotate(0, 102, 197)"/>
  <rect fill="#006ca1" height="9" stroke-width="0" transform=" rotate(0, 107, 199)" width="9" x="102.7389" y="195.3836"/>
  <polygon fill="#006ca1" points="114.5985,206.9138 119.0985,197.9138 123.5985,206.9138" stroke-width="0" transform=" rotate(0, 119, 202)"/>
  <ellipse cx="127.3909" cy="197.6582" fill="#006ca1" rx="4.5" ry="4.5" stroke-width="0" transform=" rotate(0, 127, 197)"/>
  <rect fill="#006ca1" height="9" stroke-width="0" transform=" rotate(0, 138, 198)" width="9" x="133.6236" y="194.3043"/>
  <polygon fill="#006ca1" points="145.677,202.7135 150.177,193.7135 154.677,202.7135" stroke-width="0" transform=" rotate(0, 150, 198)"/>
  <ellipse cx="159.7502" cy="202.1113" fill="#006ca1" rx="4.5" ry="4.5" stroke-width="0" transform=" rotate(0, 159, 202)"/>
  <rect fill="#006ca1" height="9" stroke-width="0" transform=" rotate(0, 167, 202)" width="9" x="162.8679" y="197.9565"/>
  <polygon fill="#006ca1" points="177.8061,203.4947 182.3061,194.4947 186.8061,203.4947" stroke-width="0" transform=" rotate(0, 182, 198)"/>
  <ellipse cx="192.6437" cy="201.4423" fill="#006ca1" rx="4.5" ry="4.5" stroke-width="0" transform=" rotate(0, 192, 201)"/>
  <rect fill="#006ca1" height="9" stroke-width="0" transform=" rotate(0, 197, 197)" width="9" x="192.85" y="192.656"/>
  <polygon fill="#006ca1" points="207.8371,203.1393 212.3371,194.1393 216.8371,203.1393" stroke-width="0" transform=" rotate(0, 212, 198)"/>
  <ellipse cx="220.6827" cy="199.4203" fill="#006ca1" rx="4.5" ry="4.5" stroke-width="0" transform=" rotate(0, 220, 199)"/>
  <rect fill="#006ca1" height="9" stroke-width="0" transform=" rotate(0, 230, 198)" width="9" x="225.6237" y="193.8121"/>
  <polygon fill="#006ca1" points="232.792,204.977 237.292,195.977 241.792,204.977" stroke-width="0" transform=" rotate(0, 237, 200)"/>
  <ellipse cx="249.3244" cy="197.7958" fill="#006ca1" rx="4.5" ry="4.5" stroke-width="0" transform=" rotate(0, 249, 197)"/>
  <rect fill="#006ca1" height="9" stroke-width="0" transform=" rotate(0, 257, 200)" width="9" x="253.2651" y="196.1917"/>
  <polygon fill="#006ca1" points="266.4374,205.9255 270.9374,196.9255 275.4374,205.9255" stroke-width="0" transform=" rotate(0, 270, 201)"/>
  <ellipse cx="280.7173" cy="199.1655" fill="#006ca1" rx="4.5" ry="4.5" stroke-width="0" transform=" rotate(0, 280, 199)"/>
  <rect fill="#1b9fd8" height="7" stroke-width="0" transform=" rotate(0, 47, 208)" width="7" x="44.0163" y="204.5777"/>
  <polygon fill="#1b9fd8" points="55.34,213.6198 58.84,206.6198 62.34,213.6198" stroke-width="0" transform=" rotate(0, 58, 210)"/>
  <ellipse cx="68.2548" cy="208.6688" fill="#1b9fd8" rx="3.5" ry="3.5" stroke-width="0" transform=" rotate(0, 68, 208)"/>
  <rect fill="#1b9fd8" height="7" stroke-width="0" transform=" rotate(0, 79, 209)" width="7" x="76.0677" y="206.009"/>
  <polygon fill="#1b9fd8" points="87.5907,215.4458 91.0907,208.4458 94.5907,215.4458" stroke-width="0" transform=" rotate(0, 91, 211)"/>
  <ellipse cx="101.8597" cy="209.7627" fill="#1b9fd8" rx="3.5" ry="3.5" stroke-width="0" transform=" rotate(0, 101, 209)"/>
  <rect fill="#1b9fd8" height="7" stroke-width="0" transform=" rotate(0, 111, 209)" width="7" x="108.439" y="205.9365"/>
  <polygon fill="#1b9fd8" points="115.1273,211.3255 118.6273,204.3255 122.1273,211.3255" stroke-width="0" transform=" rotate(0, 118, 207)"/>
  <ellipse cx="130.4094" cy="212.0992" fill="#1b9fd8" rx="3.5" ry="3.5" stroke-width="0" transform=" rotate(0, 130, 212)"/>
  <rect fill="#1b9fd8" height="7" stroke-width="0" transform=" rotate(0, 139, 210)" width="7" x="136.08" y="207.4721"/>
  <polygon fill="#1b9fd8" points="146.6514,215.1659 150.1514,208.1659 153.6514,215.1659" stroke-width="0" transform=" rotate(0, 150, 211)"/>
  <ellipse cx="160.799" cy="207.9264" fill="#1b9fd8" rx="3.5" ry="3.5" stroke-width="0" transform=" rotate(0, 160, 207)"/>
  <rect fill="#1b9fd8" height="7" stroke-width="0" transform=" rotate(0, 168, 211)" width="7" x="164.5675" y="208.0595"/>
  <polygon fill="#1b9fd8" points="179.0071,211.4744 182.5071,204.4744 186.0071,211.4744" stroke-width="0" transform=" rotate(0, 182, 207)"/>
  <ellipse cx="191.6769" cy="212.6298" fill="#1b9fd8" rx="3.5" ry="3.5" stroke-width="0" transform=" rotate(0, 191, 212)"/>
  <rect fill="#1b9fd8" height="7" stroke-width="0" transform=" rotate(0, 198, 209)" width="7" x="195.1833" y="206.0784"/>
  <polygon fill="#1b9fd8" points="205.6374,212.8179 209.1374,205.8179 212.6374,212.8179" stroke-width="0" transform=" rotate(0, 209, 209)"/>
  <ellipse cx="221.0069" cy="211.2066" fill="#1b9fd8" rx="3.5" ry="3.5" stroke-width="0" transform=" rotate(0, 221, 211)"/>
  <rect fill="#1b9fd8" height="7" stroke-width="0" transform=" rotate(0, 232, 210)" width="7" x="229.2733" y="207.3605"/>
  <polygon fill="#1b9fd8" points="234.5816,211.037 238.0816,204.037 241.5816,211.037" stroke-width="0" transform=" rotate(0, 238, 207)"/>
  <ellipse cx="252.656" cy="208.3087" fill="#1b9fd8" rx="3.5" ry="3.5" stroke-width="0" transform=" rotate(0, 252, 208)"/>
  <rect fill="#1b9fd8" height="7" stroke-width="0" transform=" rotate(0, 262, 210)" width="7" x="258.6303" y="207.4722"/>
  <polygon fill="#1b9fd8" points="264.2502,214.1043 267.7502,207.1043 271.2502,214.1043" stroke-width="0" transform=" rotate(0, 267, 210)"/>
  <ellipse cx="280.0654" cy="209.637" fill="#1b9fd8" rx="3.5" ry="3.5" stroke-width="0" transform=" rotate(0, 280, 209)"/>
  <rect fill="#6dd6ff" height="5" stroke-width="0" transform=" rotate(0, 50, 220)" width="5" x="48.2824" y="218.3676"/>
  <polygon fill="#6dd6ff" points="59.8855,220.6719 62.3855,215.6719 64.8855,220.6719" stroke-width="0" transform=" rotate(0, 62, 218)"/>
  <ellipse cx="71.4753" cy="219.5613" fill="#6dd6ff" rx="2.5" ry="2.5" stroke-width="0" transform=" rotate(0, 71, 219)"/>
  <rect fill="#6dd6ff" height="5" stroke-width="0" transform=" rotate(0, 80, 221)" width="5" x="77.6119" y="218.7549"/>
  <polygon fill="#6dd6ff" points="86.0613,222.4018 88.5613,217.4018 91.0613,222.4018" stroke-width="0" transform=" rotate(0, 88, 219)"/>
  <ellipse cx="100.807" cy="218.3225" fill="#6dd6ff" rx="2.5" ry="2.5" stroke-width="0" transform=" rotate(0, 100, 218)"/>
  <rect fill="#6dd6ff" height="5" stroke-width="0" transform=" rotate(0, 108, 222)" width="5" x="105.6727" y="219.669"/>
  <polygon fill="#6dd6ff" points="116.4643,220.745 118.9643,215.745 121.4643,220.745" stroke-width="0" transform=" rotate(0, 118, 218)"/>
  <ellipse cx="129.4239" cy="222.4804" fill="#6dd6ff" rx="2.5" ry="2.5" stroke-width="0" transform=" rotate(0, 129, 222)"/>
  <rect fill="#6dd6ff" height="5" stroke-width="0" transform=" rotate(0, 139, 218)" width="5" x="137.3999" y="215.7862"/>
  <polygon fill="#6dd6ff" points="146.1316,220.6382 148.6316,215.6382 151.1316,220.6382" stroke-width="0" transform=" rotate(0, 148, 218)"/>
  <ellipse cx="159.7031" cy="220.0369" fill="#6dd6ff" rx="2.5" ry="2.5" stroke-width="0" transform=" rotate(0, 159, 220)"/>
  <rect fill="#6dd6ff" height="5" stroke-width="0" transform=" rotate(0, 171, 218)" width="5" x="168.9891" y="216.0548"/>
  <polygon fill="#6dd6ff" points="176.0656,224.4213 178.5656,219.4213 181.0656,224.4213" stroke-width="0" transform=" rotate(0, 178, 221)"/>
  <ellipse cx="191.8778" cy="220.6069" fill="#6dd6ff" rx="2.5" ry="2.5" stroke-width="0" transform=" rotate(0, 191, 220)"/>
  <rect fill="#6dd6ff" height="5" stroke-width="0" transform=" rotate(0, 202, 221)" width="5" x="200.0949" y="219.3204"/>
  <polygon fill="#6dd6ff" points="208.8675,221.6508 211.3675,216.6508 213.8675,221.6508" stroke-width="0" transform=" rotate(0, 211, 219)"/>
  <ellipse cx="218.6899" cy="218.4333" fill="#6dd6ff" rx="2.5" ry="2.5" stroke-width="0" transform=" rotate(0, 218, 218)"/>
  <rect fill="#6dd6ff" height="5" stroke-width="0" transform=" rotate(0, 229, 217)" width="5" x="227.4122" y="214.7677"/>
  <polygon fill="#6dd6ff" points="238.7179,224.0309 241.2179,219.0309 243.7179,224.0309" stroke-width="0" transform=" rotate(0, 241, 221)"/>
  <ellipse cx="248.0445" cy="218.912" fill="#6dd6ff" rx="2.5" ry="2.5" stroke-width="0" transform=" rotate(0, 248, 218)"/>
  <rect fill="#6dd6ff" height="5" stroke-width="0" transform=" rotate(0, 261, 217)" width="5" x="259.2829" y="214.8377"/>
  <polygon fill="#6dd6ff" points="265.7519,222.3995 268.2519,217.3995 270.7519,222.3995" stroke-width="0" transform=" rotate(0, 268, 219)"/>
  <ellipse cx="277.6559" cy="221.0946" fill="#6dd6ff" rx="2.5" ry="2.5" stroke-width="0" transform=" rotate(0, 277, 221)"/>
  <rect fill="#006ca1" height="9" stroke-width="0" transform=" rotate(0, 52, 227)" width="9" x="47.9458" y="223.249"/>
  <polygon fill="#006ca1" points="56.4019,232.4516 60.9019,223.4516 65.4019,232.4516" stroke-width="0" transform=" rotate(0, 60, 227)"/>
  <ellipse cx="69.3864" cy="231.431" fill="#006ca1" rx="4.5" ry="4.5" stroke-width="0" transform=" rotate(0, 69, 231)"/>
  <rect fill="#006ca1" height="9" stroke-width="0" transform=" rotate(0, 82, 232)" width="9" x="77.7596" y="227.9909"/>
  <polygon fill="#006ca1" points="87.2317,236.2682 91.7317,227.2682 96.2317,236.2682" stroke-width="0" transform=" rotate(0, 91, 231)"/>
  <ellipse cx="102.6067" cy="229.8858" fill="#006ca1" rx="4.5" ry="4.5" stroke-width="0" transform=" rotate(0, 102, 229)"/>
  <rect fill="#006ca1" height="9" stroke-width="0" transform=" rotate(0, 110, 227)" width="9" x="106.0149" y="222.7025"/>
  <polygon fill="#006ca1" points="117.0048,235.3694 121.5048,226.3694 126.0048,235.3694" stroke-width="0" transform=" rotate(0, 121, 230)"/>
  <ellipse cx="131.2902" cy="228.5821" fill="#006ca1" rx="4.5" ry="4.5" stroke-width="0" transform=" rotate(0, 131, 228)"/>
  <rect fill="#006ca1" height="9" stroke-width="0" transform=" rotate(0, 137, 232)" width="9" x="133.1249" y="227.746"/>
  <polygon fill="#006ca1" points="145.4908,232.6746 149.9908,223.6746 154.4908,232.6746" stroke-width="0" transform=" rotate(0, 149, 228)"/>
  <ellipse cx="161.3965" cy="230.6195" fill="#006ca1" rx="4.5" ry="4.5" stroke-width="0" transform=" rotate(0, 161, 230)"/>
  <rect fill="#006ca1" height="9" stroke-width="0" transform=" rotate(0, 167, 229)" width="9" x="163.1875" y="225.0936"/>
  <polygon fill="#006ca1" points="177.8332,235.357 182.3332,226.357 186.8332,235.357" stroke-width="0" transform=" rotate(0, 182, 230)"/>
  <ellipse cx="189.5366" cy="232.2578" fill="#006ca1" rx="4.5" ry="4.5" stroke-width="0" transform=" rotate(0, 189, 232)"/>
  <rect fill="#006ca1" height="9" stroke-width="0" transform=" rotate(0, 201, 232)" width="9" x="196.8235" y="227.7901"/>
  <polygon fill="#006ca1" points="204.2095,234.879 208.7095,225.879 213.2095,234.879" stroke-width="0" transform=" rotate(0, 208, 230)"/>
  <ellipse cx="220.6255" cy="228.5491" fill="#006ca1" rx="4.5" ry="4.5" stroke-width="0" transform=" rotate(0, 220, 228)"/>
  <rect fill="#006ca1" height="9" stroke-width="0" transform=" rotate(0, 232, 228)" width="9" x="228.028" y="223.706"/>
  <polygon fill="#006ca1" points="235.4817,232.7751 239.9817,223.7751 244.4817,232.7751" stroke-width="0" transform=" rotate(0, 239, 228)"/>
  <ellipse cx="251.6592" cy="229.6817" fill="#006ca1" rx="4.5" ry="4.5" stroke-width="0" transform=" rotate(0, 251, 229)"/>
  <rect fill="#006ca1" height="9" stroke-width="0" transform=" rotate(0, 257, 228)" width="9" x="253.1606" y="224.2513"/>
  <polygon fill="#006ca1" points="267.8891,236.9361 272.3891,227.9361 276.8891,236.9361" stroke-width="0" transform=" rotate(0, 272, 232)"/>
  <ellipse cx="279.059" cy="230.3518" fill="#006ca1" rx="4.5" ry="4.5" stroke-width="0" transform=" rotate(0, 279, 230)"/>
  <rect fill="#1b9fd8" height="7" stroke-width="0" transform=" rotate(0, 48, 237)" width="7" x="45.0465" y="233.8599"/>
  <polygon fill="#1b9fd8" points="54.0398,241.6155 57.5398,234.6155 61.0398,241.6155" stroke-width="0" transform=" rotate(0, 57, 238)"/>
  <ellipse cx="68.5205" cy="240.0385" fill="#1b9fd8" rx="3.5" ry="3.5" stroke-width="0" transform=" rotate(0, 68, 240)"/>
  <rect fill="#1b9fd8" height="7" stroke-width="0" transform=" rotate(0, 77, 237)" width="7" x="74.4161" y="234.1913"/>
  <polygon fill="#1b9fd8" points="84.2141,243.8571 87.7141,236.8571 91.2141,243.8571" stroke-width="0" transform=" rotate(0, 87, 240)"/>
  <ellipse cx="97.4341" cy="238.5094" fill="#1b9fd8" rx="3.5" ry="3.5" stroke-width="0" transform=" rotate(0, 97, 238)"/>
  <rect fill="#1b9fd8" height="7" stroke-width="0" transform=" rotate(0, 107, 240)" width="7" x="103.7251" y="237.0838"/>
  <polygon fill="#1b9fd8" points="116.5569,243.663 120.0569,236.663 123.5569,243.663" stroke-width="0" transform=" rotate(0, 120, 240)"/>
  <ellipse cx="131.7692" cy="240.5167" fill="#1b9fd8" rx="3.5" ry="3.5" stroke-width="0" transform=" rotate(0, 131, 240)"/>
  <rect fill="#1b9fd8" height="7" stroke-width="0" transform=" rotate(0, 141, 237)" width="7" x="138.4786" y="234.3227"/>
  <polygon fill="#1b9fd8" points="145.3223,241.1156 148.8223,234.1156 152.3223,241.1156" stroke-width="0" transform=" rotate(0, 148, 237)"/>
  <ellipse cx="161.6039" cy="241.1912" fill="#1b9fd8" rx="3.5" ry="3.5" stroke-width="0" transform=" rotate(0, 161, 241)"/>
  <rect fill="#1b9fd8" height="7" stroke-width="0" transform=" rotate(0, 170, 238)" width="7" x="166.98" y="235.2141"/>
  <polygon fill="#1b9fd8" points="174.2755,241.6975 177.7755,234.6975 181.2755,241.6975" stroke-width="0" transform=" rotate(0, 177, 238)"/>
  <ellipse cx="188.7882" cy="238.7849" fill="#1b9fd8" rx="3.5" ry="3.5" stroke-width="0" transform=" rotate(0, 188, 238)"/>
  <rect fill="#1b9fd8" height="7" stroke-width="0" transform=" rotate(0, 201, 237)" width="7" x="197.9622" y="234.2585"/>
  <polygon fill="#1b9fd8" points="204.4386,245.2485 207.9386,238.2485 211.4386,245.2485" stroke-width="0" transform=" rotate(0, 207, 241)"/>
  <ellipse cx="220.4936" cy="237.5023" fill="#1b9fd8" rx="3.5" ry="3.5" stroke-width="0" transform=" rotate(0, 220, 237)"/>
  <rect fill="#1b9fd8" height="7" stroke-width="0" transform=" rotate(0, 227, 241)" width="7" x="224.3789" y="238.1141"/>
  <polygon fill="#1b9fd8" points="235.4736,245.678 238.9736,238.678 242.4736,245.678" stroke-width="0" transform=" rotate(0, 238, 242)"/>
  <ellipse cx="250.011" cy="239.1101" fill="#1b9fd8" rx="3.5" ry="3.5" stroke-width="0" transform=" rotate(0, 250, 239)"/>
  <rect fill="#1b9fd8" height="7" stroke-width="0" transform=" rotate(0, 257, 237)" width="7" x="254.1788" y="234.227"/>
  <polygon fill="#1b9fd8" points="269.1857,240.8697 272.6857,233.8697 276.1857,240.8697" stroke-width="0" transform=" rotate(0, 272, 237)"/>
  <ellipse cx="280.8716" cy="241.0405" fill="#1b9fd8" rx="3.5" ry="3.5" stroke-width="0" transform=" rotate(0, 280, 241)"/>
  <rect fill="#6dd6ff" height="5" stroke-width="0" transform=" rotate(0, 48, 250)" width="5" x="45.7032" y="247.7784"/>
  <polygon fill="#6dd6ff" points="55.1879,250.7095 57.6879,245.7095 60.1879,250.7095" stroke-width="0" transform=" rotate(0, 57, 248)"/>
  <ellipse cx="70.2747" cy="252.4548" fill="#6dd6ff" rx="2.5" ry="2.5" stroke-width="0" transform=" rotate(0, 70, 252)"/>
  <rect fill="#6dd6ff" height="5" stroke-width="0" transform=" rotate(0, 79, 252)" width="5" x="77.2729" y="249.8854"/>
  <polygon fill="#6dd6ff" points="86.5517,252.9387 89.0517,247.9387 91.5517,252.9387" stroke-width="0" transform=" rotate(0, 89, 250)"/>
  <ellipse cx="100.8904" cy="248.7569" fill="#6dd6ff" rx="2.5" ry="2.5" stroke-width="0" transform=" rotate(0, 100, 248)"/>
  <rect fill="#6dd6ff" height="5" stroke-width="0" transform=" rotate(0, 112, 250)" width="5" x="109.7849" y="248.3231"/>
  <polygon fill="#6dd6ff" points="116.8929,254.7883 119.3929,249.7883 121.8929,254.7883" stroke-width="0" transform=" rotate(0, 119, 252)"/>
  <ellipse cx="128.2706" cy="251.7858" fill="#6dd6ff" rx="2.5" ry="2.5" stroke-width="0" transform=" rotate(0, 128, 251)"/>
  <rect fill="#6dd6ff" height="5" stroke-width="0" transform=" rotate(0, 140, 252)" width="5" x="138.4395" y="249.7299"/>
  <polygon fill="#6dd6ff" points="146.0195,254.0903 148.5195,249.0903 151.0195,254.0903" stroke-width="0" transform=" rotate(0, 148, 251)"/>
  <ellipse cx="158.7205" cy="250.6625" fill="#6dd6ff" rx="2.5" ry="2.5" stroke-width="0" transform=" rotate(0, 158, 250)"/>
  <rect fill="#6dd6ff" height="5" stroke-width="0" transform=" rotate(0, 170, 252)" width="5" x="168.1935" y="250.1932"/>
  <polygon fill="#6dd6ff" points="180.045,249.8445 182.545,244.8445 185.045,249.8445" stroke-width="0" transform=" rotate(0, 182, 247)"/>
  <ellipse cx="187.1864" cy="248.9214" fill="#6dd6ff" rx="2.5" ry="2.5" stroke-width="0" transform=" rotate(0, 187, 248)"/>
  <rect fill="#6dd6ff" height="5" stroke-width="0" transform=" rotate(0, 201, 249)" width="5" x="198.9334" y="246.9745"/>
  <polygon fill="#6dd6ff" points="210.066,251.8835 212.566,246.8835 215.066,251.8835" stroke-width="0" transform=" rotate(0, 212, 249)"/>
  <ellipse cx="220.6622" cy="249.7803" fill="#6dd6ff" rx="2.5" ry="2.5" stroke-width="0" transform=" rotate(0, 220, 249)"/>
  <rect fill="#6dd6ff" height="5" stroke-width="0" transform=" rotate(0, 231, 250)" width="5" x="229.1875" y="247.9525"/>
  <polygon fill="#6dd6ff" points="237.2953,252.619 239.7953,247.619 242.2953,252.619" stroke-width="0" transform=" rotate(0, 239, 250)"/>
  <ellipse cx="251.9643" cy="251.3092" fill="#6dd6ff" rx="2.5" ry="2.5" stroke-width="0" transform=" rotate(0, 251, 251)"/>
  <rect fill="#6dd6ff" height="5" stroke-width="0" transform=" rotate(0, 261, 247)" width="5" x="258.6053" y="245.0157"/>
  <polygon fill="#6dd6ff" points="268.5295,251.9517 271.0295,246.9517 273.5295,251.9517" stroke-width="0" transform=" rotate(0, 271, 249)"/>
  <ellipse cx="277.3484" cy="251.402" fill="#6dd6ff" rx="2.5" ry="2.5" stroke-width="0" transform=" rotate(0, 277, 251)"/>
  <rect fill="#006ca1" height="9" stroke-width="0" transform=" rotate(0, 52, 262)" width="9" x="47.5596" y="257.6094"/>
  <polygon fill="#006ca1" points="53.9891,263.159 58.4891,254.159 62.9891,263.159" stroke-width="0" transform=" rotate(0, 58, 258)"/>
  <ellipse cx="72.7431" cy="260.2877" fill="#006ca1" rx="4.5" ry="4.5" stroke-width="0" transform=" rotate(0, 72, 260)"/>
  <rect fill="#006ca1" height="9" stroke-width="0" transform=" rotate(0, 78, 258)" width="9" x="73.5251" y="254.0785"/>
  <polygon fill="#006ca1" points="86.87,262.1234 91.37,253.1234 95.87,262.1234" stroke-width="0" transform=" rotate(0, 91, 257)"/>
  <ellipse cx="97.8383" cy="261.3214" fill="#006ca1" rx="4.5" ry="4.5" stroke-width="0" transform=" rotate(0, 97, 261)"/>
  <rect fill="#006ca1" height="9" stroke-width="0" transform=" rotate(0, 109, 257)" width="9" x="105.4076" y="253.1238"/>
  <polygon fill="#006ca1" points="114.2486,263.5956 118.7486,254.5956 123.2486,263.5956" stroke-width="0" transform=" rotate(0, 118, 259)"/>
  <ellipse cx="131.3836" cy="257.9886" fill="#006ca1" rx="4.5" ry="4.5" stroke-width="0" transform=" rotate(0, 131, 257)"/>
  <rect fill="#006ca1" height="9" stroke-width="0" transform=" rotate(0, 138, 258)" width="9" x="133.7716" y="253.5074"/>
  <polygon fill="#006ca1" points="142.8457,262.9991 147.3457,253.9991 151.8457,262.9991" stroke-width="0" transform=" rotate(0, 147, 258)"/>
  <ellipse cx="161.8195" cy="262.4873" fill="#006ca1" rx="4.5" ry="4.5" stroke-width="0" transform=" rotate(0, 161, 262)"/>
  <rect fill="#006ca1" height="9" stroke-width="0" transform=" rotate(0, 170, 258)" width="9" x="165.6356" y="253.8306"/>
  <polygon fill="#006ca1" points="177.506,263.9684 182.006,254.9684 186.506,263.9684" stroke-width="0" transform=" rotate(0, 182, 259)"/>
  <ellipse cx="188.1164" cy="260.8816" fill="#006ca1" rx="4.5" ry="4.5" stroke-width="0" transform=" rotate(0, 188, 260)"/>
  <rect fill="#006ca1" height="9" stroke-width="0" transform=" rotate(0, 200, 262)" width="9" x="195.6507" y="257.8029"/>
  <polygon fill="#006ca1" points="208.018,263.6334 212.518,254.6334 217.018,263.6334" stroke-width="0" transform=" rotate(0, 212, 259)"/>
  <ellipse cx="219.7874" cy="259.4081" fill="#006ca1" rx="4.5" ry="4.5" stroke-width="0" transform=" rotate(0, 219, 259)"/>
  <rect fill="#006ca1" height="9" stroke-width="0" transform=" rotate(0, 229, 259)" width="9" x="224.8084" y="255.4193"/>
  <polygon fill="#006ca1" points="234.1785,265.235 238.6785,256.235 243.1785,265.235" stroke-width="0" transform=" rotate(0, 238, 260)"/>
  <ellipse cx="249.0541" cy="258.156" fill="#006ca1" rx="4.5" ry="4.5" stroke-width="0" transform=" rotate(0, 249, 258)"/>
  <rect fill="#006ca1" height="9" stroke-width="0" transform=" rotate(0, 261, 258)" width="9" x="256.5445" y="254.1789"/>
  <polygon fill="#006ca1" points="263.1368,263.8529 267.6368,254.8529 272.1368,263.8529" stroke-width="0" transform=" rotate(0, 267, 259)"/>
  <ellipse cx="278.9765" cy="259.744" fill="#006ca1" rx="4.5" ry="4.5" stroke-width="0" transform=" rotate(0, 278, 259)"/>
  <rect fill="#1b9fd8" height="7" stroke-width="0" transform=" rotate(0, 49, 269)" width="7" x="45.8698" y="265.8736"/>
  <polygon fill="#1b9fd8" points="57.5794,275.997 61.0794,268.997 64.5794,275.997" stroke-width="0" transform=" rotate(0, 61, 272)"/>
  <ellipse cx="69.8989" cy="267.2251" fill="#1b9fd8" rx="3.5" ry="3.5" stroke-width="0" transform=" rotate(0, 69, 267)"/>
  <rect fill="#1b9fd8" height="7" stroke-width="0" transform=" rotate(0, 81, 268)" width="7" x="77.7614" y="265.1758"/>
  <polygon fill="#1b9fd8" points="88.146,274.7264 91.646,267.7264 95.146,274.7264" stroke-width="0" transform=" rotate(0, 91, 271)"/>
  <ellipse cx="97.5387" cy="271.4832" fill="#1b9fd8" rx="3.5" ry="3.5" stroke-width="0" transform=" rotate(0, 97, 271)"/>
  <rect fill="#1b9fd8" height="7" stroke-width="0" transform=" rotate(0, 108, 269)" width="7" x="104.6916" y="265.5563"/>
  <polygon fill="#1b9fd8" points="115.8276,270.6596 119.3276,263.6596 122.8276,270.6596" stroke-width="0" transform=" rotate(0, 119, 267)"/>
  <ellipse cx="131.4848" cy="271.97" fill="#1b9fd8" rx="3.5" ry="3.5" stroke-width="0" transform=" rotate(0, 131, 271)"/>
  <rect fill="#1b9fd8" height="7" stroke-width="0" transform=" rotate(0, 142, 272)" width="7" x="139.2485" y="268.8395"/>
  <polygon fill="#1b9fd8" points="149.2211,271.7035 152.7211,264.7035 156.2211,271.7035" stroke-width="0" transform=" rotate(0, 152, 268)"/>
  <ellipse cx="161.4708" cy="269.0219" fill="#1b9fd8" rx="3.5" ry="3.5" stroke-width="0" transform=" rotate(0, 161, 269)"/>
  <rect fill="#1b9fd8" height="7" stroke-width="0" transform=" rotate(0, 168, 271)" width="7" x="164.7297" y="268.1134"/>
  <polygon fill="#1b9fd8" points="179.2133,275.8437 182.7133,268.8437 186.2133,275.8437" stroke-width="0" transform=" rotate(0, 182, 272)"/>
  <ellipse cx="187.3716" cy="267.4039" fill="#1b9fd8" rx="3.5" ry="3.5" stroke-width="0" transform=" rotate(0, 187, 267)"/>
  <rect fill="#1b9fd8" height="7" stroke-width="0" transform=" rotate(0, 201, 272)" width="7" x="197.9534" y="268.8738"/>
  <polygon fill="#1b9fd8" points="204.2157,273.7096 207.7157,266.7096 211.2157,273.7096" stroke-width="0" transform=" rotate(0, 207, 270)"/>
  <ellipse cx="219.2585" cy="271.5615" fill="#1b9fd8" rx="3.5" ry="3.5" stroke-width="0" transform=" rotate(0, 219, 271)"/>
  <rect fill="#1b9fd8" height="7" stroke-width="0" transform=" rotate(0, 227, 269)" width="7" x="224.0876" y="265.6345"/>
  <polygon fill="#1b9fd8" points="237.4325,274.8304 240.9325,267.8304 244.4325,274.8304" stroke-width="0" transform=" rotate(0, 240, 271)"/>
  <ellipse cx="247.2301" cy="270.8796" fill="#1b9fd8" rx="3.5" ry="3.5" stroke-width="0" transform=" rotate(0, 247, 270)"/>
  <rect fill="#1b9fd8" height="7" stroke-width="0" transform=" rotate(0, 260, 270)" width="7" x="257.0313" y="266.8625"/>
  <polygon fill="#1b9fd8" points="264.5257,274.7427 268.0257,267.7427 271.5257,274.7427" stroke-width="0" transform=" rotate(0, 268, 271)"/>
  <ellipse cx="282.0531" cy="268.9485" fill="#1b9fd8" rx="3.5" ry="3.5" stroke-width="0" transform=" rotate(0, 282, 268)"/>
  <rect fill="#6dd6ff" height="5" stroke-width="0" transform=" rotate(0, 47, 280)" width="5" x="44.7341" y="278.1112"/>
  <polygon fill="#6dd6ff" points="59.6871,279.9988 62.1871,274.9988 64.6871,279.9988" stroke-width="0" transform=" rotate(0, 62, 277)"/>
  <ellipse cx="69.2156" cy="279.4494" fill="#6dd6ff" rx="2.5" ry="2.5" stroke-width="0" transform=" rotate(0, 69, 279)"/>
  <rect fill="#6dd6ff" height="5" stroke-width="0" transform=" rotate(0, 78, 281)" width="5" x="75.7786" y="279.3232"/>
  <polygon fill="#6dd6ff" points="88.0771,282.7241 90.5771,277.7241 93.0771,282.7241" stroke-width="0" transform=" rotate(0, 90, 280)"/>
  <ellipse cx="99.8512" cy="278.9307" fill="#6dd6ff" rx="2.5" ry="2.5" stroke-width="0" transform=" rotate(0, 99, 278)"/>
  <rect fill="#6dd6ff" height="5" stroke-width="0" transform=" rotate(0, 111, 280)" width="5" x="109.041" y="278.269"/>
  <polygon fill="#6dd6ff" points="115.8015,283.2858 118.3015,278.2858 120.8015,283.2858" stroke-width="0" transform=" rotate(0, 118, 280)"/>
  <ellipse cx="127.265" cy="277.2485" fill="#6dd6ff" rx="2.5" ry="2.5" stroke-width="0" transform=" rotate(0, 127, 277)"/>
  <rect fill="#6dd6ff" height="5" stroke-width="0" transform=" rotate(0, 139, 281)" width="5" x="137.4483" y="278.8613"/>
  <polygon fill="#6dd6ff" points="147.0082,280.7692 149.5082,275.7692 152.0082,280.7692" stroke-width="0" transform=" rotate(0, 149, 278)"/>
  <ellipse cx="160.6528" cy="282.0262" fill="#6dd6ff" rx="2.5" ry="2.5" stroke-width="0" transform=" rotate(0, 160, 282)"/>
  <rect fill="#6dd6ff" height="5" stroke-width="0" transform=" rotate(0, 167, 280)" width="5" x="165.0834" y="277.9202"/>
  <polygon fill="#6dd6ff" points="176.6241,284.9744 179.1241,279.9744 181.6241,284.9744" stroke-width="0" transform=" rotate(0, 179, 282)"/>
  <ellipse cx="189.3792" cy="282.1521" fill="#6dd6ff" rx="2.5" ry="2.5" stroke-width="0" transform=" rotate(0, 189, 282)"/>
  <rect fill="#6dd6ff" height="5" stroke-width="0" transform=" rotate(0, 201, 278)" width="5" x="198.697" y="276.3531"/>
  <polygon fill="#6dd6ff" points="207.5761,285.1369 210.0761,280.1369 212.5761,285.1369" stroke-width="0" transform=" rotate(0, 210, 282)"/>
  <ellipse cx="219.2838" cy="278.3698" fill="#6dd6ff" rx="2.5" ry="2.5" stroke-width="0" transform=" rotate(0, 219, 278)"/>
  <rect fill="#6dd6ff" height="5" stroke-width="0" transform=" rotate(0, 231, 277)" width="5" x="228.8102" y="275.0247"/>
  <polygon fill="#6dd6ff" points="236.0863,284.7446 238.5863,279.7446 241.0863,284.7446" stroke-width="0" transform=" rotate(0, 238, 282)"/>
  <ellipse cx="247.3358" cy="282.0969" fill="#6dd6ff" rx="2.5" ry="2.5" stroke-width="0" transform=" rotate(0, 247, 282)"/>
  <rect fill="#6dd6ff" height="5" stroke-width="0" transform=" rotate(0, 259, 277)" width="5" x="257.3643" y="274.658"/>
  <polygon fill="#6dd6ff" points="270.1128,283.4423 272.6128,278.4423 275.1128,283.4423" stroke-width="0" transform=" rotate(0, 272, 280)"/>
  <ellipse cx="280.9107" cy="280.1392" fill="#6dd6ff" rx="2.5" ry="2.5" stroke-width="0" transform=" rotate(0, 280, 280)"/>
</svg>
