<?xml version="1.0" encoding="utf-8" ?>
<svg baseProfile="tiny" height="330" version="1.2" width="330" xmlns="http://www.w3.org/2000/svg" xmlns:ev="http://www.w3.org/2001/xml-events" xmlns:xlink="http://www.w3.org/1999/xlink">
  <defs/>
  <rect fill="white" height="330" width="330" x="0" y="0"/>
  <rect fill="#6dd6ff" height="5" stroke-width="0" transform=" rotate(0, 47, 51)" width="5" x="45.1312" y="49.0729"/>
  <polygon fill="#6dd6ff" points="57.1917,52.2062 59.6917,47.2062 62.1917,52.2062" stroke-width="0" transform=" rotate(0, 59, 49)"/>
  <ellipse cx="71.3024" cy="49.3769" fill="#6dd6ff" rx="2.5" ry="2.5" stroke-width="0" transform=" rotate(0, 71, 49)"/>
  <rect fill="#6dd6ff" height="5" stroke-width="0" transform=" rotate(0, 77, 52)" width="5" x="74.92" y="50.0072"/>
  <polygon fill="#6dd6ff" points="89.8645,54.4667 92.3645,49.4667 94.8645,54.4667" stroke-width="0" transform=" rotate(0, 92, 51)"/>
  <ellipse cx="101.3004" cy="46.9402" fill="#6dd6ff" rx="2.5" ry="2.5" stroke-width="0" transform=" rotate(0, 101, 46)"/>
  <rect fill="#6dd6ff" height="5" stroke-width="0" transform=" rotate(0, 110, 52)" width="5" x="107.6046" y="49.5395"/>
  <polygon fill="#6dd6ff" points="114.9673,55.1488 117.4673,50.1488 119.9673,55.1488" stroke-width="0" transform=" rotate(0, 117, 52)"/>
  <ellipse cx="132.0537" cy="52.0151" fill="#6dd6ff" rx="2.5" ry="2.5" stroke-width="0" transform=" rotate(0, 132, 52)"/>
  <rect fill="#6dd6ff" height="5" stroke-width="0" transform=" rotate(0, 139, 52)" width="5" x="136.8206" y="50.2221"/>
  <polygon fill="#6dd6ff" points="145.6559,55.1207 148.1559,50.1207 150.6559,55.1207" stroke-width="0" transform=" rotate(0, 148, 52)"/>
  <ellipse cx="160.5988" cy="47.4737" fill="#6dd6ff" rx="2.5" ry="2.5" stroke-width="0" transform=" rotate(0, 160, 47)"/>
  <rect fill="#6dd6ff" height="5" stroke-width="0" transform=" rotate(0, 172, 48)" width="5" x="170.2695" y="46.3575"/>
  <polygon fill="#6dd6ff" points="175.4676,52.1095 177.9676,47.1095 180.4676,52.1095" stroke-width="0" transform=" rotate(0, 177, 49)"/>
  <ellipse cx="190.4151" cy="48.2667" fill="#6dd6ff" rx="2.5" ry="2.5" stroke-width="0" transform=" rotate(0, 190, 48)"/>
  <rect fill="#6dd6ff" height="5" stroke-width="0" transform=" rotate(0, 201, 50)" width="5" x="198.6585" y="48.1668"/>
  <polygon fill="#6dd6ff" points="205.3947,53.0434 207.8947,48.0434 210.3947,53.0434" stroke-width="0" transform=" rotate(0, 207, 50)"/>
  <ellipse cx="220.1192" cy="47.4513" fill="#6dd6ff" rx="2.5" ry="2.5" stroke-width="0" transform=" rotate(0, 220, 47)"/>
  <rect fill="#6dd6ff" height="5" stroke-width="0" transform=" rotate(0, 231, 52)" width="5" x="228.5735" y="50.1645"/>
  <polygon fill="#6dd6ff" points="237.3212,49.5224 239.8212,44.5224 242.3212,49.5224" stroke-width="0" transform=" rotate(0, 239, 47)"/>
  <ellipse cx="247.9726" cy="51.3415" fill="#6dd6ff" rx="2.5" ry="2.5" stroke-width="0" transform=" rotate(0, 247, 51)"/>
  <rect fill="#6dd6ff" height="5" stroke-width="0" transform=" rotate(0, 260, 47)" width="5" x="258.4669" y="45.4916"/>
  <polygon fill="#6dd6ff" points="267.1388,51.3358 269.6388,46.3358 272.1388,51.3358" stroke-width="0" transform=" rotate(0, 269, 48)"/>
  <ellipse cx="282.3644" cy="49.7697" fill="#6dd6ff" rx="2.5" ry="2.5" stroke-width="0" transform=" rotate(0, 282, 49)"/>
  <rect fill="#1b9fd8" height="7" stroke-width="0" transform=" rotate(0, 49, 60)" width="7" x="46.2696" y="57.0967"/>
  <polygon fill="#1b9fd8" points="56.9836,62.0243 60.4836,55.0243 63.9836,62.0243" stroke-width="0" transform=" rotate(0, 60, 58)"/>
  <ellipse cx="71.1984" cy="62.2083" fill="#1b9fd8" rx="3.5" ry="3.5" stroke-width="0" transform=" rotate(0, 71, 62)"/>
  <rect fill="#1b9fd8" height="7" stroke-width="0" transform=" rotate(0, 78, 60)" width="7" x="75.1225" y="57.4184"/>
  <polygon fill="#1b9fd8" points="87.5377,61.5486 91.0377,54.5486 94.5377,61.5486" stroke-width="0" transform=" rotate(0, 91, 58)"/>
  <ellipse cx="102.797" cy="61.1204" fill="#1b9fd8" rx="3.5" ry="3.5" stroke-width="0" transform=" rotate(0, 102, 61)"/>
  <rect fill="#1b9fd8" height="7" stroke-width="0" transform=" rotate(0, 107, 61)" width="7" x="103.8023" y="57.8013"/>
  <polygon fill="#1b9fd8" points="115.8232,65.6333 119.3232,58.6333 122.8232,65.6333" stroke-width="0" transform=" rotate(0, 119, 62)"/>
  <ellipse cx="131.1027" cy="58.8164" fill="#1b9fd8" rx="3.5" ry="3.5" stroke-width="0" transform=" rotate(0, 131, 58)"/>
  <rect fill="#1b9fd8" height="7" stroke-width="0" transform=" rotate(0, 139, 58)" width="7" x="136.2761" y="54.864"/>
  <polygon fill="#1b9fd8" points="149.2779,64.9792 152.7779,57.9792 156.2779,64.9792" stroke-width="0" transform=" rotate(0, 152, 61)"/>
  <ellipse cx="161.2066" cy="58.4231" fill="#1b9fd8" rx="3.5" ry="3.5" stroke-width="0" transform=" rotate(0, 161, 58)"/>
  <rect fill="#1b9fd8" height="7" stroke-width="0" transform=" rotate(0, 169, 61)" width="7" x="166.4965" y="58.3527"/>
  <polygon fill="#1b9fd8" points="179.1154,65.0748 182.6154,58.0748 186.1154,65.0748" stroke-width="0" transform=" rotate(0, 182, 61)"/>
  <ellipse cx="190.9718" cy="59.7217" fill="#1b9fd8" rx="3.5" ry="3.5" stroke-width="0" transform=" rotate(0, 190, 59)"/>
  <rect fill="#1b9fd8" height="7" stroke-width="0" transform=" rotate(0, 200, 62)" width="7" x="197.2606" y="59.2963"/>
  <polygon fill="#1b9fd8" points="207.0183,63.3441 210.5183,56.3441 214.0183,63.3441" stroke-width="0" transform=" rotate(0, 210, 59)"/>
  <ellipse cx="220.7177" cy="62.3634" fill="#1b9fd8" rx="3.5" ry="3.5" stroke-width="0" transform=" rotate(0, 220, 62)"/>
  <rect fill="#1b9fd8" height="7" stroke-width="0" transform=" rotate(0, 230, 60)" width="7" x="227.4162" y="56.8251"/>
  <polygon fill="#1b9fd8" points="239.3766,63.1712 242.8766,56.1712 246.3766,63.1712" stroke-width="0" transform=" rotate(0, 242, 59)"/>
  <ellipse cx="249.036" cy="58.3588" fill="#1b9fd8" rx="3.5" ry="3.5" stroke-width="0" transform=" rotate(0, 249, 58)"/>
  <rect fill="#1b9fd8" height="7" stroke-width="0" transform=" rotate(0, 262, 57)" width="7" x="259.1315" y="53.6384"/>
  <polygon fill="#1b9fd8" points="265.7466,62.3391 269.2466,55.3391 272.7466,62.3391" stroke-width="0" transform=" rotate(0, 269, 58)"/>
  <ellipse cx="278.5885" cy="60.2954" fill="#1b9fd8" rx="3.5" ry="3.5" stroke-width="0" transform=" rotate(0, 278, 60)"/>
  <rect fill="#006ca1" height="9" stroke-width="0" transform=" rotate(0, 47, 67)" width="9" x="42.9291" y="62.5027"/>
  <polygon fill="#006ca1" points="58.1527,76.7624 62.6527,67.7624 67.1527,76.7624" stroke-width="0" transform=" rotate(0, 62, 72)"/>
  <ellipse cx="67.8133" cy="70.8808" fill="#006ca1" rx="4.5" ry="4.5" stroke-width="0" transform=" rotate(0, 67, 70)"/>
  <rect fill="#006ca1" height="9" stroke-width="0" transform=" rotate(0, 79, 70)" width="9" x="74.8129" y="66.4177"/>
  <polygon fill="#006ca1" points="87.9327,76.3959 92.4327,67.3959 96.9327,76.3959" stroke-width="0" transform=" rotate(0, 92, 71)"/>
  <ellipse cx="101.4619" cy="71.8822" fill="#006ca1" rx="4.5" ry="4.5" stroke-width="0" transform=" rotate(0, 101, 71)"/>
  <rect fill="#006ca1" height="9" stroke-width="0" transform=" rotate(0, 108, 68)" width="9" x="104.0587" y="63.6998"/>
  <polygon fill="#006ca1" points="114.6558,71.8816 119.1558,62.8816 123.6558,71.8816" stroke-width="0" transform=" rotate(0, 119, 67)"/>
  <ellipse cx="129.6322" cy="72.2174" fill="#006ca1" rx="4.5" ry="4.5" stroke-width="0" transform=" rotate(0, 129, 72)"/>
  <rect fill="#006ca1" height="9" stroke-width="0" transform=" rotate(0, 138, 70)" width="9" x="134.3508" y="66.3144"/>
  <polygon fill="#006ca1" points="144.9011,71.5045 149.4011,62.5045 153.9011,71.5045" stroke-width="0" transform=" rotate(0, 149, 67)"/>
  <ellipse cx="158.5749" cy="68.1442" fill="#006ca1" rx="4.5" ry="4.5" stroke-width="0" transform=" rotate(0, 158, 68)"/>
  <rect fill="#006ca1" height="9" stroke-width="0" transform=" rotate(0, 167, 69)" width="9" x="162.987" y="65.0873"/>
  <polygon fill="#006ca1" points="177.7546,75.9743 182.2546,66.9743 186.7546,75.9743" stroke-width="0" transform=" rotate(0, 182, 71)"/>
  <ellipse cx="187.1668" cy="69.2299" fill="#006ca1" rx="4.5" ry="4.5" stroke-width="0" transform=" rotate(0, 187, 69)"/>
  <rect fill="#006ca1" height="9" stroke-width="0" transform=" rotate(0, 200, 70)" width="9" x="196.4546" y="65.5567"/>
  <polygon fill="#006ca1" points="203.0756,73.6777 207.5756,64.6777 212.0756,73.6777" stroke-width="0" transform=" rotate(0, 207, 69)"/>
  <ellipse cx="219.6099" cy="68.6161" fill="#006ca1" rx="4.5" ry="4.5" stroke-width="0" transform=" rotate(0, 219, 68)"/>
  <rect fill="#006ca1" height="9" stroke-width="0" transform=" rotate(0, 227, 69)" width="9" x="222.9938" y="65.1817"/>
  <polygon fill="#006ca1" points="237.288,73.4206 241.788,64.4206 246.288,73.4206" stroke-width="0" transform=" rotate(0, 241, 68)"/>
  <ellipse cx="250.3634" cy="67.8169" fill="#006ca1" rx="4.5" ry="4.5" stroke-width="0" transform=" rotate(0, 250, 67)"/>
  <rect fill="#006ca1" height="9" stroke-width="0" transform=" rotate(0, 259, 70)" width="9" x="254.589" y="66.0659"/>
  <polygon fill="#006ca1" points="267.7611,76.8663 272.2611,67.8663 276.7611,76.8663" stroke-width="0" transform=" rotate(0, 272, 72)"/>
  <ellipse cx="279.2793" cy="72.4164" fill="#006ca1" rx="4.5" ry="4.5" stroke-width="0" transform=" rotate(0, 279, 72)"/>
  <rect fill="#6dd6ff" height="5" stroke-width="0" transform=" rotate(0, 48, 81)" width="5" x="45.6147" y="79.1728"/>
  <polygon fill="#6dd6ff" points="57.3876,82.7179 59.8876,77.7179 62.3876,82.7179" stroke-width="0" transform=" rotate(0, 59, 80)"/>
  <ellipse cx="70.879" cy="80.6353" fill="#6dd6ff" rx="2.5" ry="2.5" stroke-width="0" transform=" rotate(0, 70, 80)"/>
  <rect fill="#6dd6ff" height="5" stroke-width="0" transform=" rotate(0, 78, 79)" width="5" x="75.5378" y="77.4748"/>
  <polygon fill="#6dd6ff" points="86.8276,84.7408 89.3276,79.7408 91.8276,84.7408" stroke-width="0" transform=" rotate(0, 89, 82)"/>
  <ellipse cx="98.0898" cy="77.0472" fill="#6dd6ff" rx="2.5" ry="2.5" stroke-width="0" transform=" rotate(0, 98, 77)"/>
  <rect fill="#6dd6ff" height="5" stroke-width="0" transform=" rotate(0, 107, 80)" width="5" x="105.4838" y="77.7971"/>
  <polygon fill="#6dd6ff" points="118.192,85.1108 120.692,80.1108 123.192,85.1108" stroke-width="0" transform=" rotate(0, 120, 82)"/>
  <ellipse cx="131.2059" cy="81.3954" fill="#6dd6ff" rx="2.5" ry="2.5" stroke-width="0" transform=" rotate(0, 131, 81)"/>
  <rect fill="#6dd6ff" height="5" stroke-width="0" transform=" rotate(0, 137, 77)" width="5" x="134.5587" y="75.3532"/>
  <polygon fill="#6dd6ff" points="146.002,80.8842 148.502,75.8842 151.002,80.8842" stroke-width="0" transform=" rotate(0, 148, 78)"/>
  <ellipse cx="157.6361" cy="79.4098" fill="#6dd6ff" rx="2.5" ry="2.5" stroke-width="0" transform=" rotate(0, 157, 79)"/>
  <rect fill="#6dd6ff" height="5" stroke-width="0" transform=" rotate(0, 171, 77)" width="5" x="169.2046" y="75.3507"/>
  <polygon fill="#6dd6ff" points="180.4591,82.1602 182.9591,77.1602 185.4591,82.1602" stroke-width="0" transform=" rotate(0, 182, 79)"/>
  <ellipse cx="187.8305" cy="81.5493" fill="#6dd6ff" rx="2.5" ry="2.5" stroke-width="0" transform=" rotate(0, 187, 81)"/>
  <rect fill="#6dd6ff" height="5" stroke-width="0" transform=" rotate(0, 200, 82)" width="5" x="198.3731" y="79.7666"/>
  <polygon fill="#6dd6ff" points="209.2936,79.5435 211.7936,74.5435 214.2936,79.5435" stroke-width="0" transform=" rotate(0, 211, 77)"/>
  <ellipse cx="217.5651" cy="80.1656" fill="#6dd6ff" rx="2.5" ry="2.5" stroke-width="0" transform=" rotate(0, 217, 80)"/>
  <rect fill="#6dd6ff" height="5" stroke-width="0" transform=" rotate(0, 229, 81)" width="5" x="226.6234" y="79.491"/>
  <polygon fill="#6dd6ff" points="236.6932,79.4671 239.1932,74.4671 241.6932,79.4671" stroke-width="0" transform=" rotate(0, 239, 76)"/>
  <ellipse cx="247.7879" cy="82.6055" fill="#6dd6ff" rx="2.5" ry="2.5" stroke-width="0" transform=" rotate(0, 247, 82)"/>
  <rect fill="#6dd6ff" height="5" stroke-width="0" transform=" rotate(0, 257, 81)" width="5" x="254.8347" y="79.4338"/>
  <polygon fill="#6dd6ff" points="265.6584,82.5489 268.1584,77.5489 270.6584,82.5489" stroke-width="0" transform=" rotate(0, 268, 80)"/>
  <ellipse cx="279.1975" cy="79.3861" fill="#6dd6ff" rx="2.5" ry="2.5" stroke-width="0" transform=" rotate(0, 279, 79)"/>
  <rect fill="#1b9fd8" height="7" stroke-width="0" transform=" rotate(0, 49, 87)" width="7" x="45.7904" y="84.1608"/>
  <polygon fill="#1b9fd8" points="54.8029,96.4049 58.3029,89.4049 61.8029,96.4049" stroke-width="0" transform=" rotate(0, 58, 92)"/>
  <ellipse cx="71.1698" cy="89.0009" fill="#1b9fd8" rx="3.5" ry="3.5" stroke-width="0" transform=" rotate(0, 71, 89)"/>
  <rect fill="#1b9fd8" height="7" stroke-width="0" transform=" rotate(0, 79, 89)" width="7" x="75.6346" y="86.1985"/>
  <polygon fill="#1b9fd8" points="89.3002,93.7404 92.8002,86.7404 96.3002,93.7404" stroke-width="0" transform=" rotate(0, 92, 90)"/>
  <ellipse cx="100.4834" cy="89.9187" fill="#1b9fd8" rx="3.5" ry="3.5" stroke-width="0" transform=" rotate(0, 100, 89)"/>
  <rect fill="#1b9fd8" height="7" stroke-width="0" transform=" rotate(0, 112, 92)" width="7" x="108.7666" y="89.2709"/>
  <polygon fill="#1b9fd8" points="114.2617,90.7194 117.7617,83.7194 121.2617,90.7194" stroke-width="0" transform=" rotate(0, 117, 87)"/>
  <ellipse cx="129.176" cy="88.294" fill="#1b9fd8" rx="3.5" ry="3.5" stroke-width="0" transform=" rotate(0, 129, 88)"/>
  <rect fill="#1b9fd8" height="7" stroke-width="0" transform=" rotate(0, 142, 92)" width="7" x="138.9109" y="89.0258"/>
  <polygon fill="#1b9fd8" points="145.7013,93.0488 149.2013,86.0488 152.7013,93.0488" stroke-width="0" transform=" rotate(0, 149, 89)"/>
  <ellipse cx="157.6315" cy="91.9519" fill="#1b9fd8" rx="3.5" ry="3.5" stroke-width="0" transform=" rotate(0, 157, 91)"/>
  <rect fill="#1b9fd8" height="7" stroke-width="0" transform=" rotate(0, 169, 89)" width="7" x="165.6855" y="85.6302"/>
  <polygon fill="#1b9fd8" points="177.392,95.0763 180.892,88.0763 184.392,95.0763" stroke-width="0" transform=" rotate(0, 180, 91)"/>
  <ellipse cx="189.333" cy="89.569" fill="#1b9fd8" rx="3.5" ry="3.5" stroke-width="0" transform=" rotate(0, 189, 89)"/>
  <rect fill="#1b9fd8" height="7" stroke-width="0" transform=" rotate(0, 202, 88)" width="7" x="199.1092" y="84.7815"/>
  <polygon fill="#1b9fd8" points="204.6676,96.1647 208.1676,89.1647 211.6676,96.1647" stroke-width="0" transform=" rotate(0, 208, 92)"/>
  <ellipse cx="218.4463" cy="87.7092" fill="#1b9fd8" rx="3.5" ry="3.5" stroke-width="0" transform=" rotate(0, 218, 87)"/>
  <rect fill="#1b9fd8" height="7" stroke-width="0" transform=" rotate(0, 232, 87)" width="7" x="229.3172" y="84.2749"/>
  <polygon fill="#1b9fd8" points="235.0926,93.5686 238.5926,86.5686 242.0926,93.5686" stroke-width="0" transform=" rotate(0, 238, 90)"/>
  <ellipse cx="251.871" cy="88.6381" fill="#1b9fd8" rx="3.5" ry="3.5" stroke-width="0" transform=" rotate(0, 251, 88)"/>
  <rect fill="#1b9fd8" height="7" stroke-width="0" transform=" rotate(0, 257, 89)" width="7" x="254.0411" y="86.1894"/>
  <polygon fill="#1b9fd8" points="264.1323,93.7853 267.6323,86.7853 271.1323,93.7853" stroke-width="0" transform=" rotate(0, 267, 90)"/>
  <ellipse cx="278.7819" cy="89.6326" fill="#1b9fd8" rx="3.5" ry="3.5" stroke-width="0" transform=" rotate(0, 278, 89)"/>
  <rect fill="#006ca1" height="9" stroke-width="0" transform=" rotate(0, 52, 102)" width="9" x="47.7434" y="97.9451"/>
  <polygon fill="#006ca1" points="57.8839,104.0013 62.3839,95.0013 66.8839,104.0013" stroke-width="0" transform=" rotate(0, 62, 99)"/>
  <ellipse cx="72.2164" cy="100.2029" fill="#006ca1" rx="4.5" ry="4.5" stroke-width="0" transform=" rotate(0, 72, 100)"/>
  <rect fill="#006ca1" height="9" stroke-width="0" transform=" rotate(0, 82, 97)" width="9" x="77.8547" y="92.6817"/>
  <polygon fill="#006ca1" points="82.9847,102.5231 87.4847,93.5231 91.9847,102.5231" stroke-width="0" transform=" rotate(0, 87, 98)"/>
  <ellipse cx="99.2237" cy="101.0836" fill="#006ca1" rx="4.5" ry="4.5" stroke-width="0" transform=" rotate(0, 99, 101)"/>
  <rect fill="#006ca1" height="9" stroke-width="0" transform=" rotate(0, 111, 102)" width="9" x="106.562" y="98.0976"/>
  <polygon fill="#006ca1" points="117.1219,102.4294 121.6219,93.4294 126.1219,102.4294" stroke-width="0" transform=" rotate(0, 121, 97)"/>
  <ellipse cx="131.5222" cy="100.7576" fill="#006ca1" rx="4.5" ry="4.5" stroke-width="0" transform=" rotate(0, 131, 100)"/>
  <rect fill="#006ca1" height="9" stroke-width="0" transform=" rotate(0, 139, 98)" width="9" x="135.1903" y="93.7264"/>
  <polygon fill="#006ca1" points="146.9205,106.9561 151.4205,97.9561 155.9205,106.9561" stroke-width="0" transform=" rotate(0, 151, 102)"/>
  <ellipse cx="161.4275" cy="100.3464" fill="#006ca1" rx="4.5" ry="4.5" stroke-width="0" transform=" rotate(0, 161, 100)"/>
  <rect fill="#006ca1" height="9" stroke-width="0" transform=" rotate(0, 172, 102)" width="9" x="168.0426" y="97.6657"/>
  <polygon fill="#006ca1" points="172.6479,105.0058 177.1479,96.0058 181.6479,105.0058" stroke-width="0" transform=" rotate(0, 177, 100)"/>
  <ellipse cx="191.6107" cy="101.0722" fill="#006ca1" rx="4.5" ry="4.5" stroke-width="0" transform=" rotate(0, 191, 101)"/>
  <rect fill="#006ca1" height="9" stroke-width="0" transform=" rotate(0, 201, 98)" width="9" x="196.8114" y="94.1024"/>
  <polygon fill="#006ca1" points="206.3388,102.5408 210.8388,93.5408 215.3388,102.5408" stroke-width="0" transform=" rotate(0, 210, 98)"/>
  <ellipse cx="220.5511" cy="98.895" fill="#006ca1" rx="4.5" ry="4.5" stroke-width="0" transform=" rotate(0, 220, 98)"/>
  <rect fill="#006ca1" height="9" stroke-width="0" transform=" rotate(0, 228, 102)" width="9" x="223.7955" y="97.5241"/>
  <polygon fill="#006ca1" points="237.393,102.6556 241.893,93.6556 246.393,102.6556" stroke-width="0" transform=" rotate(0, 241, 98)"/>
  <ellipse cx="251.471" cy="100.4463" fill="#006ca1" rx="4.5" ry="4.5" stroke-width="0" transform=" rotate(0, 251, 100)"/>
  <rect fill="#006ca1" height="9" stroke-width="0" transform=" rotate(0, 258, 99)" width="9" x="253.5893" y="94.8943"/>
  <polygon fill="#006ca1" points="263.1159,105.1125 267.6159,96.1125 272.1159,105.1125" stroke-width="0" transform=" rotate(0, 267, 100)"/>
  <ellipse cx="282.482" cy="98.0952" fill="#006ca1" rx="4.5" ry="4.5" stroke-width="0" transform=" rotate(0, 282, 98)"/>
  <rect fill="#6dd6ff" height="5" stroke-width="0" transform=" rotate(0, 48, 111)" width="5" x="45.8442" y="109.3685"/>
  <polygon fill="#6dd6ff" points="55.0314,111.4019 57.5314,106.4019 60.0314,111.4019" stroke-width="0" transform=" rotate(0, 57, 108)"/>
  <ellipse cx="67.0444" cy="111.474" fill="#6dd6ff" rx="2.5" ry="2.5" stroke-width="0" transform=" rotate(0, 67, 111)"/>
  <rect fill="#6dd6ff" height="5" stroke-width="0" transform=" rotate(0, 80, 110)" width="5" x="78.3896" y="107.9348"/>
  <polygon fill="#6dd6ff" points="84.8047,111.8338 87.3047,106.8338 89.8047,111.8338" stroke-width="0" transform=" rotate(0, 87, 109)"/>
  <ellipse cx="98.1662" cy="112.2178" fill="#6dd6ff" rx="2.5" ry="2.5" stroke-width="0" transform=" rotate(0, 98, 112)"/>
  <rect fill="#6dd6ff" height="5" stroke-width="0" transform=" rotate(0, 111, 111)" width="5" x="108.8686" y="108.9804"/>
  <polygon fill="#6dd6ff" points="118.5134,112.5336 121.0134,107.5336 123.5134,112.5336" stroke-width="0" transform=" rotate(0, 121, 110)"/>
  <ellipse cx="130.9631" cy="108.4802" fill="#6dd6ff" rx="2.5" ry="2.5" stroke-width="0" transform=" rotate(0, 130, 108)"/>
  <rect fill="#6dd6ff" height="5" stroke-width="0" transform=" rotate(0, 142, 107)" width="5" x="140.2105" y="104.799"/>
  <polygon fill="#6dd6ff" points="148.3396,113.5473 150.8396,108.5473 153.3396,113.5473" stroke-width="0" transform=" rotate(0, 150, 111)"/>
  <ellipse cx="161.2451" cy="109.7927" fill="#6dd6ff" rx="2.5" ry="2.5" stroke-width="0" transform=" rotate(0, 161, 109)"/>
  <rect fill="#6dd6ff" height="5" stroke-width="0" transform=" rotate(0, 169, 110)" width="5" x="166.9768" y="107.526"/>
  <polygon fill="#6dd6ff" points="179.1693,115.3338 181.6693,110.3338 184.1693,115.3338" stroke-width="0" transform=" rotate(0, 181, 112)"/>
  <ellipse cx="188.8264" cy="111.0479" fill="#6dd6ff" rx="2.5" ry="2.5" stroke-width="0" transform=" rotate(0, 188, 111)"/>
  <rect fill="#6dd6ff" height="5" stroke-width="0" transform=" rotate(0, 202, 108)" width="5" x="200.1726" y="105.6671"/>
  <polygon fill="#6dd6ff" points="207.5739,114.965 210.0739,109.965 212.5739,114.965" stroke-width="0" transform=" rotate(0, 210, 112)"/>
  <ellipse cx="218.8487" cy="110.114" fill="#6dd6ff" rx="2.5" ry="2.5" stroke-width="0" transform=" rotate(0, 218, 110)"/>
  <rect fill="#6dd6ff" height="5" stroke-width="0" transform=" rotate(0, 232, 111)" width="5" x="229.9765" y="109.1327"/>
  <polygon fill="#6dd6ff" points="240.1008,109.5502 242.6008,104.5502 245.1008,109.5502" stroke-width="0" transform=" rotate(0, 242, 107)"/>
  <ellipse cx="252.4241" cy="109.2426" fill="#6dd6ff" rx="2.5" ry="2.5" stroke-width="0" transform=" rotate(0, 252, 109)"/>
  <rect fill="#6dd6ff" height="5" stroke-width="0" transform=" rotate(0, 257, 107)" width="5" x="255.4308" y="105.2673"/>
  <polygon fill="#6dd6ff" points="266.9725,111.2946 269.4725,106.2946 271.9725,111.2946" stroke-width="0" transform=" rotate(0, 269, 108)"/>
  <ellipse cx="281.4923" cy="109.6027" fill="#6dd6ff" rx="2.5" ry="2.5" stroke-width="0" transform=" rotate(0, 281, 109)"/>
  <rect fill="#1b9fd8" height="7" stroke-width="0" transform=" rotate(0, 50, 122)" width="7" x="47.3393" y="118.9526"/>
  <polygon fill="#1b9fd8" points="56.4354,125.6469 59.9354,118.6469 63.4354,125.6469" stroke-width="0" transform=" rotate(0, 59, 122)"/>
  <ellipse cx="72.3711" cy="119.6381" fill="#1b9fd8" rx="3.5" ry="3.5" stroke-width="0" transform=" rotate(0, 72, 119)"/>
  <rect fill="#1b9fd8" height="7" stroke-width="0" transform=" rotate(0, 78, 117)" width="7" x="74.6873" y="114.3424"/>
  <polygon fill="#1b9fd8" points="85.7365,125.7207 89.2365,118.7207 92.7365,125.7207" stroke-width="0" transform=" rotate(0, 89, 122)"/>
  <ellipse cx="102.0696" cy="119.5986" fill="#1b9fd8" rx="3.5" ry="3.5" stroke-width="0" transform=" rotate(0, 102, 119)"/>
  <rect fill="#1b9fd8" height="7" stroke-width="0" transform=" rotate(0, 111, 122)" width="7" x="107.6341" y="118.9111"/>
  <polygon fill="#1b9fd8" points="119.3084,122.8387 122.8084,115.8387 126.3084,122.8387" stroke-width="0" transform=" rotate(0, 122, 119)"/>
  <ellipse cx="130.6127" cy="117.4723" fill="#1b9fd8" rx="3.5" ry="3.5" stroke-width="0" transform=" rotate(0, 130, 117)"/>
  <rect fill="#1b9fd8" height="7" stroke-width="0" transform=" rotate(0, 140, 119)" width="7" x="136.9786" y="115.8582"/>
  <polygon fill="#1b9fd8" points="146.2886,123.6114 149.7886,116.6114 153.2886,123.6114" stroke-width="0" transform=" rotate(0, 149, 120)"/>
  <ellipse cx="161.5859" cy="122.4462" fill="#1b9fd8" rx="3.5" ry="3.5" stroke-width="0" transform=" rotate(0, 161, 122)"/>
  <rect fill="#1b9fd8" height="7" stroke-width="0" transform=" rotate(0, 167, 120)" width="7" x="163.5799" y="117.3744"/>
  <polygon fill="#1b9fd8" points="174.6277,120.6769 178.1277,113.6769 181.6277,120.6769" stroke-width="0" transform=" rotate(0, 178, 117)"/>
  <ellipse cx="188.3726" cy="122.8142" fill="#1b9fd8" rx="3.5" ry="3.5" stroke-width="0" transform=" rotate(0, 188, 122)"/>
  <rect fill="#1b9fd8" height="7" stroke-width="0" transform=" rotate(0, 200, 119)" width="7" x="196.6145" y="116.1739"/>
  <polygon fill="#1b9fd8" points="209.3613,121.3064 212.8613,114.3064 216.3613,121.3064" stroke-width="0" transform=" rotate(0, 212, 117)"/>
  <ellipse cx="219.2185" cy="119.0043" fill="#1b9fd8" rx="3.5" ry="3.5" stroke-width="0" transform=" rotate(0, 219, 119)"/>
  <rect fill="#1b9fd8" height="7" stroke-width="0" transform=" rotate(0, 231, 121)" width="7" x="227.9745" y="118.2108"/>
  <polygon fill="#1b9fd8" points="236.9297,125.9065 240.4297,118.9065 243.9297,125.9065" stroke-width="0" transform=" rotate(0, 240, 122)"/>
  <ellipse cx="252.6873" cy="119.6106" fill="#1b9fd8" rx="3.5" ry="3.5" stroke-width="0" transform=" rotate(0, 252, 119)"/>
  <rect fill="#1b9fd8" height="7" stroke-width="0" transform=" rotate(0, 261, 118)" width="7" x="257.8279" y="115.1847"/>
  <polygon fill="#1b9fd8" points="269.2199,126.0439 272.7199,119.0439 276.2199,126.0439" stroke-width="0" transform=" rotate(0, 272, 122)"/>
  <ellipse cx="282.7858" cy="119.2296" fill="#1b9fd8" rx="3.5" ry="3.5" stroke-width="0" transform=" rotate(0, 282, 119)"/>
  <rect fill="#006ca1" height="9" stroke-width="0" transform=" rotate(0, 49, 130)" width="9" x="44.7996" y="126.3787"/>
  <polygon fill="#006ca1" points="56.8034,136.1195 61.3034,127.1195 65.8034,136.1195" stroke-width="0" transform=" rotate(0, 61, 131)"/>
  <ellipse cx="70.1166" cy="132.0217" fill="#006ca1" rx="4.5" ry="4.5" stroke-width="0" transform=" rotate(0, 70, 132)"/>
  <rect fill="#006ca1" height="9" stroke-width="0" transform=" rotate(0, 80, 132)" width="9" x="75.7317" y="127.5922"/>
  <polygon fill="#006ca1" points="88.4081,132.6006 92.9081,123.6006 97.4081,132.6006" stroke-width="0" transform=" rotate(0, 92, 128)"/>
  <ellipse cx="100.3885" cy="128.445" fill="#006ca1" rx="4.5" ry="4.5" stroke-width="0" transform=" rotate(0, 100, 128)"/>
  <rect fill="#006ca1" height="9" stroke-width="0" transform=" rotate(0, 111, 130)" width="9" x="107.137" y="125.7729"/>
  <polygon fill="#006ca1" points="115.359,135.4832 119.859,126.4832 124.359,135.4832" stroke-width="0" transform=" rotate(0, 119, 130)"/>
  <ellipse cx="130.496" cy="130.0678" fill="#006ca1" rx="4.5" ry="4.5" stroke-width="0" transform=" rotate(0, 130, 130)"/>
  <rect fill="#006ca1" height="9" stroke-width="0" transform=" rotate(0, 139, 131)" width="9" x="134.6116" y="126.8058"/>
  <polygon fill="#006ca1" points="145.4392,135.2039 149.9392,126.2039 154.4392,135.2039" stroke-width="0" transform=" rotate(0, 149, 130)"/>
  <ellipse cx="158.2513" cy="130.7338" fill="#006ca1" rx="4.5" ry="4.5" stroke-width="0" transform=" rotate(0, 158, 130)"/>
  <rect fill="#006ca1" height="9" stroke-width="0" transform=" rotate(0, 169, 130)" width="9" x="164.9499" y="126.3253"/>
  <polygon fill="#006ca1" points="176.9298,134.0797 181.4298,125.0797 185.9298,134.0797" stroke-width="0" transform=" rotate(0, 181, 129)"/>
  <ellipse cx="191.65" cy="130.9991" fill="#006ca1" rx="4.5" ry="4.5" stroke-width="0" transform=" rotate(0, 191, 130)"/>
  <rect fill="#006ca1" height="9" stroke-width="0" transform=" rotate(0, 197, 132)" width="9" x="193.4743" y="128.4231"/>
  <polygon fill="#006ca1" points="204.3799,134.2799 208.8799,125.2799 213.3799,134.2799" stroke-width="0" transform=" rotate(0, 208, 129)"/>
  <ellipse cx="220.8941" cy="131.5545" fill="#006ca1" rx="4.5" ry="4.5" stroke-width="0" transform=" rotate(0, 220, 131)"/>
  <rect fill="#006ca1" height="9" stroke-width="0" transform=" rotate(0, 232, 132)" width="9" x="228.1687" y="127.6834"/>
  <polygon fill="#006ca1" points="233.7637,133.8441 238.2637,124.8441 242.7637,133.8441" stroke-width="0" transform=" rotate(0, 238, 129)"/>
  <ellipse cx="252.297" cy="127.6792" fill="#006ca1" rx="4.5" ry="4.5" stroke-width="0" transform=" rotate(0, 252, 127)"/>
  <rect fill="#006ca1" height="9" stroke-width="0" transform=" rotate(0, 258, 130)" width="9" x="254.3768" y="125.8756"/>
  <polygon fill="#006ca1" points="266.116,131.5764 270.616,122.5764 275.116,131.5764" stroke-width="0" transform=" rotate(0, 270, 127)"/>
  <ellipse cx="277.8696" cy="132.0823" fill="#006ca1" rx="4.5" ry="4.5" stroke-width="0" transform=" rotate(0, 277, 132)"/>
  <rect fill="#6dd6ff" height="5" stroke-width="0" transform=" rotate(0, 47, 142)" width="5" x="45.2801" y="139.6275"/>
  <polygon fill="#6dd6ff" points="57.8271,143.3112 60.3271,138.3112 62.8271,143.3112" stroke-width="0" transform=" rotate(0, 60, 140)"/>
  <ellipse cx="71.8777" cy="140.0552" fill="#6dd6ff" rx="2.5" ry="2.5" stroke-width="0" transform=" rotate(0, 71, 140)"/>
  <rect fill="#6dd6ff" height="5" stroke-width="0" transform=" rotate(0, 80, 142)" width="5" x="77.8494" y="139.8773"/>
  <polygon fill="#6dd6ff" points="85.899,140.4003 88.399,135.4003 90.899,140.4003" stroke-width="0" transform=" rotate(0, 88, 137)"/>
  <ellipse cx="98.935" cy="141.7676" fill="#6dd6ff" rx="2.5" ry="2.5" stroke-width="0" transform=" rotate(0, 98, 141)"/>
  <rect fill="#6dd6ff" height="5" stroke-width="0" transform=" rotate(0, 108, 142)" width="5" x="105.9627" y="139.6638"/>
  <polygon fill="#6dd6ff" points="116.9317,142.5779 119.4317,137.5779 121.9317,142.5779" stroke-width="0" transform=" rotate(0, 119, 140)"/>
  <ellipse cx="132.5213" cy="142.8797" fill="#6dd6ff" rx="2.5" ry="2.5" stroke-width="0" transform=" rotate(0, 132, 142)"/>
  <rect fill="#6dd6ff" height="5" stroke-width="0" transform=" rotate(0, 139, 142)" width="5" x="136.8786" y="139.73"/>
  <polygon fill="#6dd6ff" points="148.1739,143.2145 150.6739,138.2145 153.1739,143.2145" stroke-width="0" transform=" rotate(0, 150, 140)"/>
  <ellipse cx="159.6136" cy="139.4038" fill="#6dd6ff" rx="2.5" ry="2.5" stroke-width="0" transform=" rotate(0, 159, 139)"/>
  <rect fill="#6dd6ff" height="5" stroke-width="0" transform=" rotate(0, 168, 138)" width="5" x="166.3529" y="135.6341"/>
  <polygon fill="#6dd6ff" points="174.4924,140.156 176.9924,135.156 179.4924,140.156" stroke-width="0" transform=" rotate(0, 176, 137)"/>
  <ellipse cx="189.4254" cy="141.9461" fill="#6dd6ff" rx="2.5" ry="2.5" stroke-width="0" transform=" rotate(0, 189, 141)"/>
  <rect fill="#6dd6ff" height="5" stroke-width="0" transform=" rotate(0, 201, 142)" width="5" x="199.2749" y="139.7563"/>
  <polygon fill="#6dd6ff" points="204.7968,139.5331 207.2968,134.5331 209.7968,139.5331" stroke-width="0" transform=" rotate(0, 207, 137)"/>
  <ellipse cx="222.5375" cy="142.5533" fill="#6dd6ff" rx="2.5" ry="2.5" stroke-width="0" transform=" rotate(0, 222, 142)"/>
  <rect fill="#6dd6ff" height="5" stroke-width="0" transform=" rotate(0, 229, 138)" width="5" x="227.2117" y="136.3868"/>
  <polygon fill="#6dd6ff" points="238.3504,142.6681 240.8504,137.6681 243.3504,142.6681" stroke-width="0" transform=" rotate(0, 240, 140)"/>
  <ellipse cx="250.3645" cy="137.7809" fill="#6dd6ff" rx="2.5" ry="2.5" stroke-width="0" transform=" rotate(0, 250, 137)"/>
  <rect fill="#6dd6ff" height="5" stroke-width="0" transform=" rotate(0, 259, 138)" width="5" x="257.1151" y="136.3187"/>
  <polygon fill="#6dd6ff" points="269.697,145.2128 272.197,140.2128 274.697,145.2128" stroke-width="0" transform=" rotate(0, 272, 142)"/>
  <ellipse cx="277.274" cy="141.1522" fill="#6dd6ff" rx="2.5" ry="2.5" stroke-width="0" transform=" rotate(0, 277, 141)"/>
  <rect fill="#1b9fd8" height="7" stroke-width="0" transform=" rotate(0, 52, 150)" width="7" x="49.3687" y="146.9429"/>
  <polygon fill="#1b9fd8" points="56.261,152.2205 59.761,145.2205 63.261,152.2205" stroke-width="0" transform=" rotate(0, 59, 148)"/>
  <ellipse cx="69.284" cy="149.4619" fill="#1b9fd8" rx="3.5" ry="3.5" stroke-width="0" transform=" rotate(0, 69, 149)"/>
  <rect fill="#1b9fd8" height="7" stroke-width="0" transform=" rotate(0, 78, 150)" width="7" x="74.973" y="146.9582"/>
  <polygon fill="#1b9fd8" points="88.6938,155.343 92.1938,148.343 95.6938,155.343" stroke-width="0" transform=" rotate(0, 92, 151)"/>
  <ellipse cx="98.2778" cy="150.3878" fill="#1b9fd8" rx="3.5" ry="3.5" stroke-width="0" transform=" rotate(0, 98, 150)"/>
  <rect fill="#1b9fd8" height="7" stroke-width="0" transform=" rotate(0, 110, 150)" width="7" x="106.8611" y="147.1938"/>
  <polygon fill="#1b9fd8" points="118.1369,152.615 121.6369,145.615 125.1369,152.615" stroke-width="0" transform=" rotate(0, 121, 149)"/>
  <ellipse cx="131.906" cy="148.4498" fill="#1b9fd8" rx="3.5" ry="3.5" stroke-width="0" transform=" rotate(0, 131, 148)"/>
  <rect fill="#1b9fd8" height="7" stroke-width="0" transform=" rotate(0, 139, 148)" width="7" x="136.0457" y="144.5903"/>
  <polygon fill="#1b9fd8" points="147.7478,154.1508 151.2478,147.1508 154.7478,154.1508" stroke-width="0" transform=" rotate(0, 151, 150)"/>
  <ellipse cx="158.976" cy="152.8821" fill="#1b9fd8" rx="3.5" ry="3.5" stroke-width="0" transform=" rotate(0, 158, 152)"/>
  <rect fill="#1b9fd8" height="7" stroke-width="0" transform=" rotate(0, 168, 152)" width="7" x="164.8861" y="149.1807"/>
  <polygon fill="#1b9fd8" points="175.5183,151.2145 179.0183,144.2145 182.5183,151.2145" stroke-width="0" transform=" rotate(0, 179, 147)"/>
  <ellipse cx="187.976" cy="150.6896" fill="#1b9fd8" rx="3.5" ry="3.5" stroke-width="0" transform=" rotate(0, 187, 150)"/>
  <rect fill="#1b9fd8" height="7" stroke-width="0" transform=" rotate(0, 197, 150)" width="7" x="194.3007" y="146.6211"/>
  <polygon fill="#1b9fd8" points="205.8419,152.9072 209.3419,145.9072 212.8419,152.9072" stroke-width="0" transform=" rotate(0, 209, 149)"/>
  <ellipse cx="222.4699" cy="151.8164" fill="#1b9fd8" rx="3.5" ry="3.5" stroke-width="0" transform=" rotate(0, 222, 151)"/>
  <rect fill="#1b9fd8" height="7" stroke-width="0" transform=" rotate(0, 228, 152)" width="7" x="224.5707" y="148.9627"/>
  <polygon fill="#1b9fd8" points="238.4216,154.3447 241.9216,147.3447 245.4216,154.3447" stroke-width="0" transform=" rotate(0, 241, 150)"/>
  <ellipse cx="249.7699" cy="150.2122" fill="#1b9fd8" rx="3.5" ry="3.5" stroke-width="0" transform=" rotate(0, 249, 150)"/>
  <rect fill="#1b9fd8" height="7" stroke-width="0" transform=" rotate(0, 258, 147)" width="7" x="254.9032" y="143.5237"/>
  <polygon fill="#1b9fd8" points="267.5548,155.8666 271.0548,148.8666 274.5548,155.8666" stroke-width="0" transform=" rotate(0, 271, 152)"/>
  <ellipse cx="282.2882" cy="149.9222" fill="#1b9fd8" rx="3.5" ry="3.5" stroke-width="0" transform=" rotate(0, 282, 149)"/>
  <rect fill="#006ca1" height="9" stroke-width="0" transform=" rotate(0, 50, 158)" width="9" x="46.2791" y="154.0191"/>
  <polygon fill="#006ca1" points="54.6282,165.4271 59.1282,156.4271 63.6282,165.4271" stroke-width="0" transform=" rotate(0, 59, 160)"/>
  <ellipse cx="67.3169" cy="160.2593" fill="#006ca1" rx="4.5" ry="4.5" stroke-width="0" transform=" rotate(0, 67, 160)"/>
  <rect fill="#006ca1" height="9" stroke-width="0" transform=" rotate(0, 80, 158)" width="9" x="75.7466" y="153.5478"/>
  <polygon fill="#006ca1" points="83.0725,162.3538 87.5725,153.3538 92.0725,162.3538" stroke-width="0" transform=" rotate(0, 87, 157)"/>
  <ellipse cx="100.5431" cy="162.1797" fill="#006ca1" rx="4.5" ry="4.5" stroke-width="0" transform=" rotate(0, 100, 162)"/>
  <rect fill="#006ca1" height="9" stroke-width="0" transform=" rotate(0, 111, 162)" width="9" x="106.8716" y="157.6791"/>
  <polygon fill="#006ca1" points="114.9199,164.9424 119.4199,155.9424 123.9199,164.9424" stroke-width="0" transform=" rotate(0, 119, 160)"/>
  <ellipse cx="131.7735" cy="160.6661" fill="#006ca1" rx="4.5" ry="4.5" stroke-width="0" transform=" rotate(0, 131, 160)"/>
  <rect fill="#006ca1" height="9" stroke-width="0" transform=" rotate(0, 139, 161)" width="9" x="134.5054" y="157.3849"/>
  <polygon fill="#006ca1" points="142.7181,164.4414 147.2181,155.4414 151.7181,164.4414" stroke-width="0" transform=" rotate(0, 147, 159)"/>
  <ellipse cx="157.1666" cy="159.7674" fill="#006ca1" rx="4.5" ry="4.5" stroke-width="0" transform=" rotate(0, 157, 159)"/>
  <rect fill="#006ca1" height="9" stroke-width="0" transform=" rotate(0, 172, 158)" width="9" x="167.6539" y="153.922"/>
  <polygon fill="#006ca1" points="176.6643,162.3623 181.1643,153.3623 185.6643,162.3623" stroke-width="0" transform=" rotate(0, 181, 157)"/>
  <ellipse cx="187.1338" cy="162.3024" fill="#006ca1" rx="4.5" ry="4.5" stroke-width="0" transform=" rotate(0, 187, 162)"/>
  <rect fill="#006ca1" height="9" stroke-width="0" transform=" rotate(0, 200, 160)" width="9" x="196.2324" y="156.3888"/>
  <polygon fill="#006ca1" points="207.6368,165.4334 212.1368,156.4334 216.6368,165.4334" stroke-width="0" transform=" rotate(0, 212, 160)"/>
  <ellipse cx="218.3322" cy="162.7424" fill="#006ca1" rx="4.5" ry="4.5" stroke-width="0" transform=" rotate(0, 218, 162)"/>
  <rect fill="#006ca1" height="9" stroke-width="0" transform=" rotate(0, 228, 157)" width="9" x="224.4824" y="152.8304"/>
  <polygon fill="#006ca1" points="234.7233,165.2235 239.2233,156.2235 243.7233,165.2235" stroke-width="0" transform=" rotate(0, 239, 160)"/>
  <ellipse cx="247.5515" cy="158.961" fill="#006ca1" rx="4.5" ry="4.5" stroke-width="0" transform=" rotate(0, 247, 158)"/>
  <rect fill="#006ca1" height="9" stroke-width="0" transform=" rotate(0, 262, 160)" width="9" x="258.3599" y="155.9004"/>
  <polygon fill="#006ca1" points="268.3998,167.079 272.8998,158.079 277.3998,167.079" stroke-width="0" transform=" rotate(0, 272, 162)"/>
  <ellipse cx="277.8126" cy="157.3507" fill="#006ca1" rx="4.5" ry="4.5" stroke-width="0" transform=" rotate(0, 277, 157)"/>
  <rect fill="#006ca1" height="9" stroke-width="0" transform=" rotate(0, 49, 171)" width="9" x="44.7804" y="167.269"/>
  <polygon fill="#006ca1" points="58.2794,174.8244 62.7794,165.8244 67.2794,174.8244" stroke-width="0" transform=" rotate(0, 62, 170)"/>
  <ellipse cx="72.4201" cy="168.0293" fill="#006ca1" rx="4.5" ry="4.5" stroke-width="0" transform=" rotate(0, 72, 168)"/>
  <rect fill="#006ca1" height="9" stroke-width="0" transform=" rotate(0, 77, 169)" width="9" x="73.303" y="164.7467"/>
  <polygon fill="#006ca1" points="85.3117,174.5416 89.8117,165.5416 94.3117,174.5416" stroke-width="0" transform=" rotate(0, 89, 170)"/>
  <ellipse cx="99.5001" cy="171.4273" fill="#006ca1" rx="4.5" ry="4.5" stroke-width="0" transform=" rotate(0, 99, 171)"/>
  <rect fill="#006ca1" height="9" stroke-width="0" transform=" rotate(0, 110, 167)" width="9" x="106.1567" y="162.9468"/>
  <polygon fill="#006ca1" points="115.4288,171.8163 119.9288,162.8163 124.4288,171.8163" stroke-width="0" transform=" rotate(0, 119, 167)"/>
  <ellipse cx="129.2475" cy="167.4489" fill="#006ca1" rx="4.5" ry="4.5" stroke-width="0" transform=" rotate(0, 129, 167)"/>
  <rect fill="#006ca1" height="9" stroke-width="0" transform=" rotate(0, 138, 169)" width="9" x="133.5736" y="164.7084"/>
  <polygon fill="#006ca1" points="146.878,174.72 151.378,165.72 155.878,174.72" stroke-width="0" transform=" rotate(0, 151, 170)"/>
  <ellipse cx="160.6668" cy="172.3887" fill="#006ca1" rx="4.5" ry="4.5" stroke-width="0" transform=" rotate(0, 160, 172)"/>
  <rect fill="#006ca1" height="9" stroke-width="0" transform=" rotate(0, 167, 172)" width="9" x="162.8057" y="167.741"/>
  <polygon fill="#006ca1" points="176.3911,173.8834 180.8911,164.8834 185.3911,173.8834" stroke-width="0" transform=" rotate(0, 180, 169)"/>
  <ellipse cx="192.5192" cy="171.8508" fill="#006ca1" rx="4.5" ry="4.5" stroke-width="0" transform=" rotate(0, 192, 171)"/>
  <rect fill="#006ca1" height="9" stroke-width="0" transform=" rotate(0, 200, 172)" width="9" x="195.6218" y="167.8929"/>
  <polygon fill="#006ca1" points="204.9392,174.2834 209.4392,165.2834 213.9392,174.2834" stroke-width="0" transform=" rotate(0, 209, 169)"/>
  <ellipse cx="221.4553" cy="167.8307" fill="#006ca1" rx="4.5" ry="4.5" stroke-width="0" transform=" rotate(0, 221, 167)"/>
  <rect fill="#006ca1" height="9" stroke-width="0" transform=" rotate(0, 231, 169)" width="9" x="226.6923" y="165.2451"/>
  <polygon fill="#006ca1" points="233.6074,173.8565 238.1074,164.8565 242.6074,173.8565" stroke-width="0" transform=" rotate(0, 238, 169)"/>
  <ellipse cx="250.8277" cy="169.4896" fill="#006ca1" rx="4.5" ry="4.5" stroke-width="0" transform=" rotate(0, 250, 169)"/>
  <rect fill="#006ca1" height="9" stroke-width="0" transform=" rotate(0, 261, 167)" width="9" x="257.3251" y="163.1656"/>
  <polygon fill="#006ca1" points="267.9172,174.2776 272.4172,165.2776 276.9172,174.2776" stroke-width="0" transform=" rotate(0, 272, 169)"/>
  <ellipse cx="278.6613" cy="170.5056" fill="#006ca1" rx="4.5" ry="4.5" stroke-width="0" transform=" rotate(0, 278, 170)"/>
  <rect fill="#1b9fd8" height="7" stroke-width="0" transform=" rotate(0, 49, 181)" width="7" x="45.6049" y="178.3693"/>
  <polygon fill="#1b9fd8" points="54.2458,181.8019 57.7458,174.8019 61.2458,181.8019" stroke-width="0" transform=" rotate(0, 57, 178)"/>
  <ellipse cx="67.4379" cy="178.1698" fill="#1b9fd8" rx="3.5" ry="3.5" stroke-width="0" transform=" rotate(0, 67, 178)"/>
  <rect fill="#1b9fd8" height="7" stroke-width="0" transform=" rotate(0, 77, 181)" width="7" x="74.095" y="178.0582"/>
  <polygon fill="#1b9fd8" points="89.0741,181.4476 92.5741,174.4476 96.0741,181.4476" stroke-width="0" transform=" rotate(0, 92, 177)"/>
  <ellipse cx="102.8422" cy="179.2851" fill="#1b9fd8" rx="3.5" ry="3.5" stroke-width="0" transform=" rotate(0, 102, 179)"/>
  <rect fill="#1b9fd8" height="7" stroke-width="0" transform=" rotate(0, 110, 180)" width="7" x="106.9594" y="176.9413"/>
  <polygon fill="#1b9fd8" points="116.3977,183.0967 119.8977,176.0967 123.3977,183.0967" stroke-width="0" transform=" rotate(0, 119, 179)"/>
  <ellipse cx="132.5573" cy="182.6977" fill="#1b9fd8" rx="3.5" ry="3.5" stroke-width="0" transform=" rotate(0, 132, 182)"/>
  <rect fill="#1b9fd8" height="7" stroke-width="0" transform=" rotate(0, 142, 177)" width="7" x="139.4754" y="174.1299"/>
  <polygon fill="#1b9fd8" points="147.8161,180.9333 151.3161,173.9333 154.8161,180.9333" stroke-width="0" transform=" rotate(0, 151, 177)"/>
  <ellipse cx="159.8544" cy="182.4855" fill="#1b9fd8" rx="3.5" ry="3.5" stroke-width="0" transform=" rotate(0, 159, 182)"/>
  <rect fill="#1b9fd8" height="7" stroke-width="0" transform=" rotate(0, 171, 180)" width="7" x="168.1918" y="177.1209"/>
  <polygon fill="#1b9fd8" points="176.1163,185.2904 179.6163,178.2904 183.1163,185.2904" stroke-width="0" transform=" rotate(0, 179, 181)"/>
  <ellipse cx="189.4197" cy="177.0905" fill="#1b9fd8" rx="3.5" ry="3.5" stroke-width="0" transform=" rotate(0, 189, 177)"/>
  <rect fill="#1b9fd8" height="7" stroke-width="0" transform=" rotate(0, 200, 177)" width="7" x="196.9794" y="173.9555"/>
  <polygon fill="#1b9fd8" points="209.112,185.37 212.612,178.37 216.112,185.37" stroke-width="0" transform=" rotate(0, 212, 181)"/>
  <ellipse cx="219.8082" cy="178.1733" fill="#1b9fd8" rx="3.5" ry="3.5" stroke-width="0" transform=" rotate(0, 219, 178)"/>
  <rect fill="#1b9fd8" height="7" stroke-width="0" transform=" rotate(0, 230, 181)" width="7" x="226.9149" y="178.3589"/>
  <polygon fill="#1b9fd8" points="235.6117,180.7937 239.1117,173.7937 242.6117,180.7937" stroke-width="0" transform=" rotate(0, 239, 177)"/>
  <ellipse cx="247.7482" cy="181.1691" fill="#1b9fd8" rx="3.5" ry="3.5" stroke-width="0" transform=" rotate(0, 247, 181)"/>
  <rect fill="#1b9fd8" height="7" stroke-width="0" transform=" rotate(0, 261, 177)" width="7" x="258.2878" y="174.0459"/>
  <polygon fill="#1b9fd8" points="266.6735,180.7998 270.1735,173.7998 273.6735,180.7998" stroke-width="0" transform=" rotate(0, 270, 177)"/>
  <ellipse cx="277.5693" cy="180.6169" fill="#1b9fd8" rx="3.5" ry="3.5" stroke-width="0" transform=" rotate(0, 277, 180)"/>
  <rect fill="#6dd6ff" height="5" stroke-width="0" transform=" rotate(0, 49, 189)" width="5" x="47.2889" y="186.5125"/>
  <polygon fill="#6dd6ff" points="60.4512,194.6732 62.9512,189.6732 65.4512,194.6732" stroke-width="0" transform=" rotate(0, 62, 192)"/>
  <ellipse cx="68.1361" cy="192.2042" fill="#6dd6ff" rx="2.5" ry="2.5" stroke-width="0" transform=" rotate(0, 68, 192)"/>
  <rect fill="#6dd6ff" height="5" stroke-width="0" transform=" rotate(0, 82, 189)" width="5" x="79.776" y="186.8356"/>
  <polygon fill="#6dd6ff" points="86.5554,194.8854 89.0554,189.8854 91.5554,194.8854" stroke-width="0" transform=" rotate(0, 89, 192)"/>
  <ellipse cx="97.5474" cy="190.3826" fill="#6dd6ff" rx="2.5" ry="2.5" stroke-width="0" transform=" rotate(0, 97, 190)"/>
  <rect fill="#6dd6ff" height="5" stroke-width="0" transform=" rotate(0, 108, 189)" width="5" x="106.4697" y="186.8858"/>
  <polygon fill="#6dd6ff" points="118.5073,189.8168 121.0073,184.8168 123.5073,189.8168" stroke-width="0" transform=" rotate(0, 121, 187)"/>
  <ellipse cx="132.0464" cy="192.6323" fill="#6dd6ff" rx="2.5" ry="2.5" stroke-width="0" transform=" rotate(0, 132, 192)"/>
  <rect fill="#6dd6ff" height="5" stroke-width="0" transform=" rotate(0, 138, 187)" width="5" x="135.6968" y="185.4586"/>
  <polygon fill="#6dd6ff" points="149.6863,190.8274 152.1863,185.8274 154.6863,190.8274" stroke-width="0" transform=" rotate(0, 152, 188)"/>
  <ellipse cx="158.8731" cy="191.3839" fill="#6dd6ff" rx="2.5" ry="2.5" stroke-width="0" transform=" rotate(0, 158, 191)"/>
  <rect fill="#6dd6ff" height="5" stroke-width="0" transform=" rotate(0, 167, 192)" width="5" x="165.1708" y="189.6609"/>
  <polygon fill="#6dd6ff" points="179.9899,191.4055 182.4899,186.4055 184.9899,191.4055" stroke-width="0" transform=" rotate(0, 182, 188)"/>
  <ellipse cx="187.8515" cy="188.271" fill="#6dd6ff" rx="2.5" ry="2.5" stroke-width="0" transform=" rotate(0, 187, 188)"/>
  <rect fill="#6dd6ff" height="5" stroke-width="0" transform=" rotate(0, 201, 190)" width="5" x="199.0651" y="187.9575"/>
  <polygon fill="#6dd6ff" points="205.5093,194.1323 208.0093,189.1323 210.5093,194.1323" stroke-width="0" transform=" rotate(0, 208, 191)"/>
  <ellipse cx="218.3757" cy="189.312" fill="#6dd6ff" rx="2.5" ry="2.5" stroke-width="0" transform=" rotate(0, 218, 189)"/>
  <rect fill="#6dd6ff" height="5" stroke-width="0" transform=" rotate(0, 229, 187)" width="5" x="226.8734" y="184.502"/>
  <polygon fill="#6dd6ff" points="238.4075,194.5577 240.9075,189.5577 243.4075,194.5577" stroke-width="0" transform=" rotate(0, 240, 192)"/>
  <ellipse cx="249.5032" cy="187.6413" fill="#6dd6ff" rx="2.5" ry="2.5" stroke-width="0" transform=" rotate(0, 249, 187)"/>
  <rect fill="#6dd6ff" height="5" stroke-width="0" transform=" rotate(0, 261, 187)" width="5" x="258.7018" y="184.5694"/>
  <polygon fill="#6dd6ff" points="267.8793,193.7785 270.3793,188.7785 272.8793,193.7785" stroke-width="0" transform=" rotate(0, 270, 191)"/>
  <ellipse cx="277.5921" cy="189.0091" fill="#6dd6ff" rx="2.5" ry="2.5" stroke-width="0" transform=" rotate(0, 277, 189)"/>
  <rect fill="#006ca1" height="9" stroke-width="0" transform=" rotate(0, 48, 197)" width="9" x="44.0942" y="193.4556"/>
  <polygon fill="#006ca1" points="52.775,203.5135 57.275,194.5135 61.775,203.5135" stroke-width="0" transform=" rotate(0, 57, 199)"/>
  <ellipse cx="71.7318" cy="197.4399" fill="#006ca1" rx="4.5" ry="4.5" stroke-width="0" transform=" rotate(0, 71, 197)"/>
  <rect fill="#006ca1" height="9" stroke-width="0" transform=" rotate(0, 79, 202)" width="9" x="75.3378" y="198.2652"/>
  <polygon fill="#006ca1" points="85.8583,205.1857 90.3583,196.1857 94.8583,205.1857" stroke-width="0" transform=" rotate(0, 90, 200)"/>
  <ellipse cx="102.1782" cy="196.9515" fill="#006ca1" rx="4.5" ry="4.5" stroke-width="0" transform=" rotate(0, 102, 196)"/>
  <rect fill="#006ca1" height="9" stroke-width="0" transform=" rotate(0, 107, 199)" width="9" x="102.5417" y="195.3753"/>
  <polygon fill="#006ca1" points="114.5341,207.0862 119.0341,198.0862 123.5341,207.0862" stroke-width="0" transform=" rotate(0, 119, 202)"/>
  <ellipse cx="127.2045" cy="197.4909" fill="#006ca1" rx="4.5" ry="4.5" stroke-width="0" transform=" rotate(0, 127, 197)"/>
  <rect fill="#006ca1" height="9" stroke-width="0" transform=" rotate(0, 137, 198)" width="9" x="133.4896" y="194.2189"/>
  <polygon fill="#006ca1" points="145.6897,202.5859 150.1897,193.5859 154.6897,202.5859" stroke-width="0" transform=" rotate(0, 150, 198)"/>
  <ellipse cx="159.7324" cy="202.2621" fill="#006ca1" rx="4.5" ry="4.5" stroke-width="0" transform=" rotate(0, 159, 202)"/>
  <rect fill="#006ca1" height="9" stroke-width="0" transform=" rotate(0, 167, 202)" width="9" x="162.6799" y="198.1319"/>
  <polygon fill="#006ca1" points="177.9708,203.4229 182.4708,194.4229 186.9708,203.4229" stroke-width="0" transform=" rotate(0, 182, 198)"/>
  <ellipse cx="192.8326" cy="201.5453" fill="#006ca1" rx="4.5" ry="4.5" stroke-width="0" transform=" rotate(0, 192, 201)"/>
  <rect fill="#006ca1" height="9" stroke-width="0" transform=" rotate(0, 197, 196)" width="9" x="192.6607" y="192.4528"/>
  <polygon fill="#006ca1" points="208.0041,203.0421 212.5041,194.0421 217.0041,203.0421" stroke-width="0" transform=" rotate(0, 212, 198)"/>
  <ellipse cx="220.7315" cy="199.3789" fill="#006ca1" rx="4.5" ry="4.5" stroke-width="0" transform=" rotate(0, 220, 199)"/>
  <rect fill="#006ca1" height="9" stroke-width="0" transform=" rotate(0, 230, 198)" width="9" x="225.6326" y="193.6915"/>
  <polygon fill="#006ca1" points="232.5986,205.0111 237.0986,196.0111 241.5986,205.0111" stroke-width="0" transform=" rotate(0, 237, 200)"/>
  <ellipse cx="249.2762" cy="197.6383" fill="#006ca1" rx="4.5" ry="4.5" stroke-width="0" transform=" rotate(0, 249, 197)"/>
  <rect fill="#006ca1" height="9" stroke-width="0" transform=" rotate(0, 257, 200)" width="9" x="253.1055" y="196.2411"/>
  <polygon fill="#006ca1" points="266.5044,206.0273 271.0044,197.0273 275.5044,206.0273" stroke-width="0" transform=" rotate(0, 271, 201)"/>
  <ellipse cx="280.7686" cy="199.1059" fill="#006ca1" rx="4.5" ry="4.5" stroke-width="0" transform=" rotate(0, 280, 199)"/>
  <rect fill="#1b9fd8" height="7" stroke-width="0" transform=" rotate(0, 47, 207)" width="7" x="43.8389" y="204.4404"/>
  <polygon fill="#1b9fd8" points="55.2572,213.6283 58.7572,206.6283 62.2572,213.6283" stroke-width="0" transform=" rotate(0, 58, 210)"/>
  <ellipse cx="68.1301" cy="208.5737" fill="#1b9fd8" rx="3.5" ry="3.5" stroke-width="0" transform=" rotate(0, 68, 208)"/>
  <rect fill="#1b9fd8" height="7" stroke-width="0" transform=" rotate(0, 79, 209)" width="7" x="76.0368" y="205.9739"/>
  <polygon fill="#1b9fd8" points="87.6686,215.5848 91.1686,208.5848 94.6686,215.5848" stroke-width="0" transform=" rotate(0, 91, 212)"/>
  <ellipse cx="101.9925" cy="209.7458" fill="#1b9fd8" rx="3.5" ry="3.5" stroke-width="0" transform=" rotate(0, 101, 209)"/>
  <rect fill="#1b9fd8" height="7" stroke-width="0" transform=" rotate(0, 112, 209)" width="7" x="108.5775" y="205.8962"/>
  <polygon fill="#1b9fd8" points="115.0293,211.1702 118.5293,204.1702 122.0293,211.1702" stroke-width="0" transform=" rotate(0, 118, 207)"/>
  <ellipse cx="130.4387" cy="212.2492" fill="#1b9fd8" rx="3.5" ry="3.5" stroke-width="0" transform=" rotate(0, 130, 212)"/>
  <rect fill="#1b9fd8" height="7" stroke-width="0" transform=" rotate(0, 139, 211)" width="7" x="136.05" y="207.5415"/>
  <polygon fill="#1b9fd8" points="146.6622,215.2849 150.1622,208.2849 153.6622,215.2849" stroke-width="0" transform=" rotate(0, 150, 211)"/>
  <ellipse cx="160.8561" cy="207.7783" fill="#1b9fd8" rx="3.5" ry="3.5" stroke-width="0" transform=" rotate(0, 160, 207)"/>
  <rect fill="#1b9fd8" height="7" stroke-width="0" transform=" rotate(0, 167, 211)" width="7" x="164.4295" y="208.1709"/>
  <polygon fill="#1b9fd8" points="179.1862,211.3298 182.6862,204.3298 186.1862,211.3298" stroke-width="0" transform=" rotate(0, 182, 207)"/>
  <ellipse cx="191.7967" cy="212.8176" fill="#1b9fd8" rx="3.5" ry="3.5" stroke-width="0" transform=" rotate(0, 191, 212)"/>
  <rect fill="#1b9fd8" height="7" stroke-width="0" transform=" rotate(0, 198, 209)" width="7" x="195.0892" y="206.0483"/>
  <polygon fill="#1b9fd8" points="205.5758,212.7692 209.0758,205.7692 212.5758,212.7692" stroke-width="0" transform=" rotate(0, 209, 209)"/>
  <ellipse cx="221.0788" cy="211.2928" fill="#1b9fd8" rx="3.5" ry="3.5" stroke-width="0" transform=" rotate(0, 221, 211)"/>
  <rect fill="#1b9fd8" height="7" stroke-width="0" transform=" rotate(0, 232, 210)" width="7" x="229.4714" y="207.422"/>
  <polygon fill="#1b9fd8" points="234.4445,210.8611 237.9445,203.8611 241.4445,210.8611" stroke-width="0" transform=" rotate(0, 237, 207)"/>
  <ellipse cx="252.8457" cy="208.1879" fill="#1b9fd8" rx="3.5" ry="3.5" stroke-width="0" transform=" rotate(0, 252, 208)"/>
  <rect fill="#1b9fd8" height="7" stroke-width="0" transform=" rotate(0, 262, 211)" width="7" x="258.7825" y="207.5417"/>
  <polygon fill="#1b9fd8" points="264.0895,214.1475 267.5895,207.1475 271.0895,214.1475" stroke-width="0" transform=" rotate(0, 267, 210)"/>
  <ellipse cx="280.07" cy="209.6111" fill="#1b9fd8" rx="3.5" ry="3.5" stroke-width="0" transform=" rotate(0, 280, 209)"/>
  <rect fill="#6dd6ff" height="5" stroke-width="0" transform=" rotate(0, 50, 220)" width="5" x="48.3383" y="218.4296"/>
  <polygon fill="#6dd6ff" points="60.0559,220.5413 62.5559,215.5413 65.0559,220.5413" stroke-width="0" transform=" rotate(0, 62, 218)"/>
  <ellipse cx="71.5807" cy="219.5299" fill="#6dd6ff" rx="2.5" ry="2.5" stroke-width="0" transform=" rotate(0, 71, 219)"/>
  <rect fill="#6dd6ff" height="5" stroke-width="0" transform=" rotate(0, 80, 221)" width="5" x="77.6199" y="218.8446"/>
  <polygon fill="#6dd6ff" points="85.9586,222.3948 88.4586,217.3948 90.9586,222.3948" stroke-width="0" transform=" rotate(0, 88, 219)"/>
  <ellipse cx="100.8646" cy="218.2027" fill="#6dd6ff" rx="2.5" ry="2.5" stroke-width="0" transform=" rotate(0, 100, 218)"/>
  <rect fill="#6dd6ff" height="5" stroke-width="0" transform=" rotate(0, 108, 222)" width="5" x="105.5422" y="219.8239"/>
  <polygon fill="#6dd6ff" points="116.3903,220.6197 118.8903,215.6197 121.3903,220.6197" stroke-width="0" transform=" rotate(0, 118, 218)"/>
  <ellipse cx="129.3827" cy="222.6575" fill="#6dd6ff" rx="2.5" ry="2.5" stroke-width="0" transform=" rotate(0, 129, 222)"/>
  <rect fill="#6dd6ff" height="5" stroke-width="0" transform=" rotate(0, 139, 218)" width="5" x="137.3927" y="215.6637"/>
  <polygon fill="#6dd6ff" points="146.0338,220.5052 148.5338,215.5052 151.0338,220.5052" stroke-width="0" transform=" rotate(0, 148, 218)"/>
  <ellipse cx="159.6819" cy="220.0396" fill="#6dd6ff" rx="2.5" ry="2.5" stroke-width="0" transform=" rotate(0, 159, 220)"/>
  <rect fill="#6dd6ff" height="5" stroke-width="0" transform=" rotate(0, 171, 218)" width="5" x="169.0955" y="215.9516"/>
  <polygon fill="#6dd6ff" points="175.9632,224.5586 178.4632,219.5586 180.9632,224.5586" stroke-width="0" transform=" rotate(0, 178, 222)"/>
  <ellipse cx="192.012" cy="220.6503" fill="#6dd6ff" rx="2.5" ry="2.5" stroke-width="0" transform=" rotate(0, 192, 220)"/>
  <rect fill="#6dd6ff" height="5" stroke-width="0" transform=" rotate(0, 202, 221)" width="5" x="200.2802" y="219.4505"/>
  <polygon fill="#6dd6ff" points="208.9651,221.5901 211.4651,216.5901 213.9651,221.5901" stroke-width="0" transform=" rotate(0, 211, 219)"/>
  <ellipse cx="218.5963" cy="218.3214" fill="#6dd6ff" rx="2.5" ry="2.5" stroke-width="0" transform=" rotate(0, 218, 218)"/>
  <rect fill="#6dd6ff" height="5" stroke-width="0" transform=" rotate(0, 229, 217)" width="5" x="227.4059" y="214.5725"/>
  <polygon fill="#6dd6ff" points="238.8049,224.1403 241.3049,219.1403 243.8049,224.1403" stroke-width="0" transform=" rotate(0, 241, 221)"/>
  <ellipse cx="247.9049" cy="218.8342" fill="#6dd6ff" rx="2.5" ry="2.5" stroke-width="0" transform=" rotate(0, 247, 218)"/>
  <rect fill="#6dd6ff" height="5" stroke-width="0" transform=" rotate(0, 261, 217)" width="5" x="259.4103" y="214.6475"/>
  <polygon fill="#6dd6ff" points="265.627,222.3923 268.127,217.3923 270.627,222.3923" stroke-width="0" transform=" rotate(0, 268, 219)"/>
  <ellipse cx="277.4885" cy="221.1728" fill="#6dd6ff" rx="2.5" ry="2.5" stroke-width="0" transform=" rotate(0, 277, 221)"/>
  <rect fill="#006ca1" height="9" stroke-width="0" transform=" rotate(0, 52, 227)" width="9" x="48.1205" y="223.0882"/>
  <polygon fill="#006ca1" points="56.4663,232.3053 60.9663,223.3053 65.4663,232.3053" stroke-width="0" transform=" rotate(0, 60, 227)"/>
  <ellipse cx="69.3426" cy="231.5332" fill="#006ca1" rx="4.5" ry="4.5" stroke-width="0" transform=" rotate(0, 69, 231)"/>
  <rect fill="#006ca1" height="9" stroke-width="0" transform=" rotate(0, 82, 232)" width="9" x="77.9209" y="228.1689"/>
  <polygon fill="#006ca1" points="87.3554,236.3945 91.8554,227.3945 96.3554,236.3945" stroke-width="0" transform=" rotate(0, 91, 231)"/>
  <ellipse cx="102.7929" cy="229.8777" fill="#006ca1" rx="4.5" ry="4.5" stroke-width="0" transform=" rotate(0, 102, 229)"/>
  <rect fill="#006ca1" height="9" stroke-width="0" transform=" rotate(0, 110, 227)" width="9" x="106.0517" y="222.5027"/>
  <polygon fill="#006ca1" points="117.1123,235.4315 121.6123,226.4315 126.1123,235.4315" stroke-width="0" transform=" rotate(0, 121, 230)"/>
  <ellipse cx="131.3824" cy="228.4808" fill="#006ca1" rx="4.5" ry="4.5" stroke-width="0" transform=" rotate(0, 131, 228)"/>
  <rect fill="#006ca1" height="9" stroke-width="0" transform=" rotate(0, 137, 232)" width="9" x="132.9553" y="227.9064"/>
  <polygon fill="#006ca1" points="145.4902,232.5442 149.9902,223.5442 154.4902,232.5442" stroke-width="0" transform=" rotate(0, 149, 228)"/>
  <ellipse cx="161.4962" cy="230.6637" fill="#006ca1" rx="4.5" ry="4.5" stroke-width="0" transform=" rotate(0, 161, 230)"/>
  <rect fill="#006ca1" height="9" stroke-width="0" transform=" rotate(0, 167, 229)" width="9" x="163.0223" y="225.0646"/>
  <polygon fill="#006ca1" points="177.9999,235.4182 182.4999,226.4182 186.9999,235.4182" stroke-width="0" transform=" rotate(0, 182, 230)"/>
  <ellipse cx="189.5035" cy="232.4191" fill="#006ca1" rx="4.5" ry="4.5" stroke-width="0" transform=" rotate(0, 189, 232)"/>
  <rect fill="#006ca1" height="9" stroke-width="0" transform=" rotate(0, 201, 232)" width="9" x="196.918" y="227.9537"/>
  <polygon fill="#006ca1" points="204.1173,234.9061 208.6173,225.9061 213.1173,234.9061" stroke-width="0" transform=" rotate(0, 208, 230)"/>
  <ellipse cx="220.6702" cy="228.4455" fill="#006ca1" rx="4.5" ry="4.5" stroke-width="0" transform=" rotate(0, 220, 228)"/>
  <rect fill="#006ca1" height="9" stroke-width="0" transform=" rotate(0, 232, 228)" width="9" x="228.2086" y="223.5779"/>
  <polygon fill="#006ca1" points="235.4804,232.6519 239.9804,223.6519 244.4804,232.6519" stroke-width="0" transform=" rotate(0, 239, 228)"/>
  <ellipse cx="251.7777" cy="229.659" fill="#006ca1" rx="4.5" ry="4.5" stroke-width="0" transform=" rotate(0, 251, 229)"/>
  <rect fill="#006ca1" height="9" stroke-width="0" transform=" rotate(0, 257, 228)" width="9" x="252.9935" y="224.1621"/>
  <polygon fill="#006ca1" points="268.0597,237.1101 272.5597,228.1101 277.0597,237.1101" stroke-width="0" transform=" rotate(0, 272, 232)"/>
  <ellipse cx="278.9918" cy="230.3769" fill="#006ca1" rx="4.5" ry="4.5" stroke-width="0" transform=" rotate(0, 278, 230)"/>
  <rect fill="#1b9fd8" height="7" stroke-width="0" transform=" rotate(0, 48, 237)" width="7" x="44.9426" y="233.6713"/>
  <polygon fill="#1b9fd8" points="53.8641,241.4809 57.3641,234.4809 60.8641,241.4809" stroke-width="0" transform=" rotate(0, 57, 237)"/>
  <ellipse cx="68.4148" cy="240.0412" fill="#1b9fd8" rx="3.5" ry="3.5" stroke-width="0" transform=" rotate(0, 68, 240)"/>
  <rect fill="#1b9fd8" height="7" stroke-width="0" transform=" rotate(0, 77, 237)" width="7" x="74.2672" y="234.0264"/>
  <polygon fill="#1b9fd8" points="84.0508,243.8827 87.5508,236.8827 91.0508,243.8827" stroke-width="0" transform=" rotate(0, 87, 240)"/>
  <ellipse cx="97.2508" cy="238.4029" fill="#1b9fd8" rx="3.5" ry="3.5" stroke-width="0" transform=" rotate(0, 97, 238)"/>
  <rect fill="#1b9fd8" height="7" stroke-width="0" transform=" rotate(0, 107, 240)" width="7" x="103.5269" y="237.1255"/>
  <polygon fill="#1b9fd8" points="116.5609,243.6746 120.0609,236.6746 123.5609,243.6746" stroke-width="0" transform=" rotate(0, 120, 240)"/>
  <ellipse cx="131.8956" cy="240.5537" fill="#1b9fd8" rx="3.5" ry="3.5" stroke-width="0" transform=" rotate(0, 131, 240)"/>
  <rect fill="#1b9fd8" height="7" stroke-width="0" transform=" rotate(0, 142, 237)" width="7" x="138.6199" y="234.1672"/>
  <polygon fill="#1b9fd8" points="145.2382,240.9453 148.7382,233.9453 152.2382,240.9453" stroke-width="0" transform=" rotate(0, 148, 237)"/>
  <ellipse cx="161.7185" cy="241.2763" fill="#1b9fd8" rx="3.5" ry="3.5" stroke-width="0" transform=" rotate(0, 161, 241)"/>
  <rect fill="#1b9fd8" height="7" stroke-width="0" transform=" rotate(0, 170, 238)" width="7" x="167.0143" y="235.1223"/>
  <polygon fill="#1b9fd8" points="174.1166,241.5688 177.6166,234.5688 181.1166,241.5688" stroke-width="0" transform=" rotate(0, 177, 238)"/>
  <ellipse cx="188.7016" cy="238.6982" fill="#1b9fd8" rx="3.5" ry="3.5" stroke-width="0" transform=" rotate(0, 188, 238)"/>
  <rect fill="#1b9fd8" height="7" stroke-width="0" transform=" rotate(0, 201, 237)" width="7" x="198.0666" y="234.0984"/>
  <polygon fill="#1b9fd8" points="204.2914,245.3734 207.7914,238.3734 211.2914,245.3734" stroke-width="0" transform=" rotate(0, 207, 241)"/>
  <ellipse cx="220.5288" cy="237.3238" fill="#1b9fd8" rx="3.5" ry="3.5" stroke-width="0" transform=" rotate(0, 220, 237)"/>
  <rect fill="#1b9fd8" height="7" stroke-width="0" transform=" rotate(0, 227, 241)" width="7" x="224.2274" y="238.2294"/>
  <polygon fill="#1b9fd8" points="235.4002,245.8335 238.9002,238.8335 242.4002,245.8335" stroke-width="0" transform=" rotate(0, 238, 242)"/>
  <ellipse cx="250.0118" cy="239.0465" fill="#1b9fd8" rx="3.5" ry="3.5" stroke-width="0" transform=" rotate(0, 250, 239)"/>
  <rect fill="#1b9fd8" height="7" stroke-width="0" transform=" rotate(0, 257, 237)" width="7" x="254.013" y="234.0647"/>
  <polygon fill="#1b9fd8" points="269.3776,240.6818 272.8776,233.6818 276.3776,240.6818" stroke-width="0" transform=" rotate(0, 272, 237)"/>
  <ellipse cx="280.9338" cy="241.1148" fill="#1b9fd8" rx="3.5" ry="3.5" stroke-width="0" transform=" rotate(0, 280, 241)"/>
  <rect fill="#6dd6ff" height="5" stroke-width="0" transform=" rotate(0, 48, 250)" width="5" x="45.5748" y="247.7983"/>
  <polygon fill="#6dd6ff" points="55.0227,250.5816 57.5227,245.5816 60.0227,250.5816" stroke-width="0" transform=" rotate(0, 57, 248)"/>
  <ellipse cx="70.2943" cy="252.6301" fill="#6dd6ff" rx="2.5" ry="2.5" stroke-width="0" transform=" rotate(0, 70, 252)"/>
  <rect fill="#6dd6ff" height="5" stroke-width="0" transform=" rotate(0, 79, 252)" width="5" x="77.2566" y="250.0558"/>
  <polygon fill="#6dd6ff" points="86.484,252.9701 88.984,247.9701 91.484,252.9701" stroke-width="0" transform=" rotate(0, 88, 250)"/>
  <ellipse cx="100.954" cy="248.6681" fill="#6dd6ff" rx="2.5" ry="2.5" stroke-width="0" transform=" rotate(0, 100, 248)"/>
  <rect fill="#6dd6ff" height="5" stroke-width="0" transform=" rotate(0, 112, 250)" width="5" x="109.9481" y="248.3819"/>
  <polygon fill="#6dd6ff" points="116.8496,254.9518 119.3496,249.9518 121.8496,254.9518" stroke-width="0" transform=" rotate(0, 119, 252)"/>
  <ellipse cx="128.1471" cy="251.9134" fill="#6dd6ff" rx="2.5" ry="2.5" stroke-width="0" transform=" rotate(0, 128, 251)"/>
  <rect fill="#6dd6ff" height="5" stroke-width="0" transform=" rotate(0, 141, 252)" width="5" x="138.5066" y="249.8891"/>
  <polygon fill="#6dd6ff" points="145.9137,254.2039 148.4137,249.2039 150.9137,254.2039" stroke-width="0" transform=" rotate(0, 148, 251)"/>
  <ellipse cx="158.6291" cy="250.7098" fill="#6dd6ff" rx="2.5" ry="2.5" stroke-width="0" transform=" rotate(0, 158, 250)"/>
  <rect fill="#6dd6ff" height="5" stroke-width="0" transform=" rotate(0, 170, 252)" width="5" x="168.2431" y="250.3856"/>
  <polygon fill="#6dd6ff" points="180.2268,249.6548 182.7268,244.6548 185.2268,249.6548" stroke-width="0" transform=" rotate(0, 182, 247)"/>
  <ellipse cx="186.9854" cy="248.8444" fill="#6dd6ff" rx="2.5" ry="2.5" stroke-width="0" transform=" rotate(0, 186, 248)"/>
  <rect fill="#6dd6ff" height="5" stroke-width="0" transform=" rotate(0, 201, 249)" width="5" x="199.0358" y="246.9369"/>
  <polygon fill="#6dd6ff" points="210.2493,251.8395 212.7493,246.8395 215.2493,251.8395" stroke-width="0" transform=" rotate(0, 212, 249)"/>
  <ellipse cx="220.7095" cy="249.7646" fill="#6dd6ff" rx="2.5" ry="2.5" stroke-width="0" transform=" rotate(0, 220, 249)"/>
  <rect fill="#6dd6ff" height="5" stroke-width="0" transform=" rotate(0, 231, 250)" width="5" x="229.308" y="247.9848"/>
  <polygon fill="#6dd6ff" points="237.2807,252.6275 239.7807,247.6275 242.2807,252.6275" stroke-width="0" transform=" rotate(0, 239, 250)"/>
  <ellipse cx="252.1046" cy="251.4027" fill="#6dd6ff" rx="2.5" ry="2.5" stroke-width="0" transform=" rotate(0, 252, 251)"/>
  <rect fill="#6dd6ff" height="5" stroke-width="0" transform=" rotate(0, 261, 247)" width="5" x="258.6843" y="244.8382"/>
  <polygon fill="#6dd6ff" points="268.6031,251.9125 271.1031,246.9125 273.6031,251.9125" stroke-width="0" transform=" rotate(0, 271, 249)"/>
  <ellipse cx="277.159" cy="251.5021" fill="#6dd6ff" rx="2.5" ry="2.5" stroke-width="0" transform=" rotate(0, 277, 251)"/>
  <rect fill="#006ca1" height="9" stroke-width="0" transform=" rotate(0, 52, 262)" width="9" x="47.7067" y="257.7601"/>
  <polygon fill="#006ca1" points="53.8811,263.0632 58.3811,254.0632 62.8811,263.0632" stroke-width="0" transform=" rotate(0, 58, 258)"/>
  <ellipse cx="72.9391" cy="260.3082" fill="#006ca1" rx="4.5" ry="4.5" stroke-width="0" transform=" rotate(0, 72, 260)"/>
  <rect fill="#006ca1" height="9" stroke-width="0" transform=" rotate(0, 77, 258)" width="9" x="73.384" y="253.9769"/>
  <polygon fill="#006ca1" points="86.9679,261.9537 91.4679,252.9537 95.9679,261.9537" stroke-width="0" transform=" rotate(0, 91, 257)"/>
  <ellipse cx="97.6839" cy="261.4158" fill="#006ca1" rx="4.5" ry="4.5" stroke-width="0" transform=" rotate(0, 97, 261)"/>
  <rect fill="#006ca1" height="9" stroke-width="0" transform=" rotate(0, 109, 257)" width="9" x="105.401" y="252.9541"/>
  <polygon fill="#006ca1" points="114.1592,263.531 118.6592,254.531 123.1592,263.531" stroke-width="0" transform=" rotate(0, 118, 259)"/>
  <ellipse cx="131.4824" cy="257.845" fill="#006ca1" rx="4.5" ry="4.5" stroke-width="0" transform=" rotate(0, 131, 257)"/>
  <rect fill="#006ca1" height="9" stroke-width="0" transform=" rotate(0, 138, 257)" width="9" x="133.6481" y="253.365"/>
  <polygon fill="#006ca1" points="142.6561,262.8919 147.1561,253.8919 151.6561,262.8919" stroke-width="0" transform=" rotate(0, 147, 258)"/>
  <ellipse cx="161.9495" cy="262.665" fill="#006ca1" rx="4.5" ry="4.5" stroke-width="0" transform=" rotate(0, 161, 262)"/>
  <rect fill="#006ca1" height="9" stroke-width="0" transform=" rotate(0, 170, 258)" width="9" x="165.6453" y="253.7113"/>
  <polygon fill="#006ca1" points="177.6493,263.9304 182.1493,254.9304 186.6493,263.9304" stroke-width="0" transform=" rotate(0, 182, 259)"/>
  <ellipse cx="187.9818" cy="260.9446" fill="#006ca1" rx="4.5" ry="4.5" stroke-width="0" transform=" rotate(0, 187, 260)"/>
  <rect fill="#006ca1" height="9" stroke-width="0" transform=" rotate(0, 200, 262)" width="9" x="195.6615" y="257.9674"/>
  <polygon fill="#006ca1" points="208.1979,263.5715 212.6979,254.5715 217.1979,263.5715" stroke-width="0" transform=" rotate(0, 212, 259)"/>
  <ellipse cx="219.7722" cy="259.3658" fill="#006ca1" rx="4.5" ry="4.5" stroke-width="0" transform=" rotate(0, 219, 259)"/>
  <rect fill="#006ca1" height="9" stroke-width="0" transform=" rotate(0, 229, 259)" width="9" x="224.7589" y="255.4136"/>
  <polygon fill="#006ca1" points="234.0841,265.2875 238.5841,256.2875 243.0841,265.2875" stroke-width="0" transform=" rotate(0, 238, 260)"/>
  <ellipse cx="248.9866" cy="258.0243" fill="#006ca1" rx="4.5" ry="4.5" stroke-width="0" transform=" rotate(0, 248, 258)"/>
  <rect fill="#006ca1" height="9" stroke-width="0" transform=" rotate(0, 261, 258)" width="9" x="256.6192" y="254.0845"/>
  <polygon fill="#006ca1" points="262.968,263.8066 267.468,254.8066 271.968,263.8066" stroke-width="0" transform=" rotate(0, 267, 259)"/>
  <ellipse cx="278.9034" cy="259.7257" fill="#006ca1" rx="4.5" ry="4.5" stroke-width="0" transform=" rotate(0, 278, 259)"/>
  <rect fill="#1b9fd8" height="7" stroke-width="0" transform=" rotate(0, 49, 269)" width="7" x="45.8248" y="265.8288"/>
  <polygon fill="#1b9fd8" points="57.6565,276.1753 61.1565,269.1753 64.6565,276.1753" stroke-width="0" transform=" rotate(0, 61, 272)"/>
  <ellipse cx="69.8917" cy="267.0269" fill="#1b9fd8" rx="3.5" ry="3.5" stroke-width="0" transform=" rotate(0, 69, 267)"/>
  <rect fill="#1b9fd8" height="7" stroke-width="0" transform=" rotate(0, 81, 268)" width="7" x="77.8515" y="265.0812"/>
  <polygon fill="#1b9fd8" points="88.2636,274.814 91.7636,267.814 95.2636,274.814" stroke-width="0" transform=" rotate(0, 91, 271)"/>
  <ellipse cx="97.3629" cy="271.5891" fill="#1b9fd8" rx="3.5" ry="3.5" stroke-width="0" transform=" rotate(0, 97, 271)"/>
  <rect fill="#1b9fd8" height="7" stroke-width="0" transform=" rotate(0, 108, 268)" width="7" x="104.5625" y="265.4889"/>
  <polygon fill="#1b9fd8" points="115.7796,270.4567 119.2796,263.4567 122.7796,270.4567" stroke-width="0" transform=" rotate(0, 119, 266)"/>
  <ellipse cx="131.5908" cy="272.1108" fill="#1b9fd8" rx="3.5" ry="3.5" stroke-width="0" transform=" rotate(0, 131, 272)"/>
  <rect fill="#1b9fd8" height="7" stroke-width="0" transform=" rotate(0, 142, 272)" width="7" x="139.4448" y="269.0066"/>
  <polygon fill="#1b9fd8" points="149.4155,271.5752 152.9155,264.5752 156.4155,271.5752" stroke-width="0" transform=" rotate(0, 152, 268)"/>
  <ellipse cx="161.5759" cy="268.9521" fill="#1b9fd8" rx="3.5" ry="3.5" stroke-width="0" transform=" rotate(0, 161, 268)"/>
  <rect fill="#1b9fd8" height="7" stroke-width="0" transform=" rotate(0, 168, 271)" width="7" x="164.6032" y="268.2287"/>
  <polygon fill="#1b9fd8" points="179.4071,276.0111 182.9071,269.0111 186.4071,276.0111" stroke-width="0" transform=" rotate(0, 182, 272)"/>
  <ellipse cx="187.1838" cy="267.2184" fill="#1b9fd8" rx="3.5" ry="3.5" stroke-width="0" transform=" rotate(0, 187, 267)"/>
  <rect fill="#1b9fd8" height="7" stroke-width="0" transform=" rotate(0, 201, 272)" width="7" x="198.0573" y="269.0434"/>
  <polygon fill="#1b9fd8" points="204.0525,273.7246 207.5525,266.7246 211.0525,273.7246" stroke-width="0" transform=" rotate(0, 207, 270)"/>
  <ellipse cx="219.2056" cy="271.6731" fill="#1b9fd8" rx="3.5" ry="3.5" stroke-width="0" transform=" rotate(0, 219, 271)"/>
  <rect fill="#1b9fd8" height="7" stroke-width="0" transform=" rotate(0, 227, 269)" width="7" x="223.9153" y="265.5727"/>
  <polygon fill="#1b9fd8" points="237.4991,274.9255 240.9991,267.9255 244.4991,274.9255" stroke-width="0" transform=" rotate(0, 240, 271)"/>
  <ellipse cx="247.0323" cy="270.9425" fill="#1b9fd8" rx="3.5" ry="3.5" stroke-width="0" transform=" rotate(0, 247, 270)"/>
  <rect fill="#1b9fd8" height="7" stroke-width="0" transform=" rotate(0, 260, 270)" width="7" x="257.0692" y="266.8884"/>
  <polygon fill="#1b9fd8" points="264.3846,274.8314 267.8846,267.8314 271.3846,274.8314" stroke-width="0" transform=" rotate(0, 267, 271)"/>
  <ellipse cx="282.1998" cy="268.8734" fill="#1b9fd8" rx="3.5" ry="3.5" stroke-width="0" transform=" rotate(0, 282, 268)"/>
  <rect fill="#6dd6ff" height="5" stroke-width="0" transform=" rotate(0, 47, 280)" width="5" x="44.5366" y="278.1549"/>
  <polygon fill="#6dd6ff" points="59.8433,279.8202 62.3433,274.8202 64.8433,279.8202" stroke-width="0" transform=" rotate(0, 62, 277)"/>
  <ellipse cx="69.1596" cy="279.41" fill="#6dd6ff" rx="2.5" ry="2.5" stroke-width="0" transform=" rotate(0, 69, 279)"/>
  <rect fill="#6dd6ff" height="5" stroke-width="0" transform=" rotate(0, 78, 281)" width="5" x="75.6556" y="279.4534"/>
  <polygon fill="#6dd6ff" points="88.1183,282.7401 90.6183,277.7401 93.1183,282.7401" stroke-width="0" transform=" rotate(0, 90, 280)"/>
  <ellipse cx="99.8406" cy="278.8543" fill="#6dd6ff" rx="2.5" ry="2.5" stroke-width="0" transform=" rotate(0, 99, 278)"/>
  <rect fill="#6dd6ff" height="5" stroke-width="0" transform=" rotate(0, 111, 280)" width="5" x="109.1511" y="278.3239"/>
  <polygon fill="#6dd6ff" points="115.6801,283.3419 118.1801,278.3419 120.6801,283.3419" stroke-width="0" transform=" rotate(0, 118, 280)"/>
  <ellipse cx="127.0696" cy="277.052" fill="#6dd6ff" rx="2.5" ry="2.5" stroke-width="0" transform=" rotate(0, 127, 277)"/>
  <rect fill="#6dd6ff" height="5" stroke-width="0" transform=" rotate(0, 139, 281)" width="5" x="137.4446" y="278.9586"/>
  <polygon fill="#6dd6ff" points="146.9731,280.6456 149.4731,275.6456 151.9731,280.6456" stroke-width="0" transform=" rotate(0, 149, 278)"/>
  <ellipse cx="160.6995" cy="282.171" fill="#6dd6ff" rx="2.5" ry="2.5" stroke-width="0" transform=" rotate(0, 160, 282)"/>
  <rect fill="#6dd6ff" height="5" stroke-width="0" transform=" rotate(0, 167, 280)" width="5" x="164.9108" y="277.9502"/>
  <polygon fill="#6dd6ff" points="176.5615,285.1512 179.0615,280.1512 181.5615,285.1512" stroke-width="0" transform=" rotate(0, 179, 282)"/>
  <ellipse cx="189.3348" cy="282.3059" fill="#6dd6ff" rx="2.5" ry="2.5" stroke-width="0" transform=" rotate(0, 189, 282)"/>
  <rect fill="#6dd6ff" height="5" stroke-width="0" transform=" rotate(0, 201, 278)" width="5" x="198.7825" y="276.2712"/>
  <polygon fill="#6dd6ff" points="207.5815,285.3252 210.0815,280.3252 212.5815,285.3252" stroke-width="0" transform=" rotate(0, 210, 282)"/>
  <ellipse cx="219.2326" cy="278.2533" fill="#6dd6ff" rx="2.5" ry="2.5" stroke-width="0" transform=" rotate(0, 219, 278)"/>
  <rect fill="#6dd6ff" height="5" stroke-width="0" transform=" rotate(0, 231, 277)" width="5" x="228.9038" y="274.8479"/>
  <polygon fill="#6dd6ff" points="235.9853,284.905 238.4853,279.905 240.9853,284.905" stroke-width="0" transform=" rotate(0, 238, 282)"/>
  <ellipse cx="247.1455" cy="282.2467" fill="#6dd6ff" rx="2.5" ry="2.5" stroke-width="0" transform=" rotate(0, 247, 282)"/>
  <rect fill="#6dd6ff" height="5" stroke-width="0" transform=" rotate(0, 259, 276)" width="5" x="257.3546" y="274.455"/>
  <polygon fill="#6dd6ff" points="270.2994,283.5096 272.7994,278.5096 275.2994,283.5096" stroke-width="0" transform=" rotate(0, 272, 281)"/>
  <ellipse cx="280.9758" cy="280.1492" fill="#6dd6ff" rx="2.5" ry="2.5" stroke-width="0" transform=" rotate(0, 280, 280)"/>
</svg>
