<?xml version="1.0" encoding="utf-8" ?>
<svg baseProfile="tiny" height="330" version="1.2" width="330" xmlns="http://www.w3.org/2000/svg" xmlns:ev="http://www.w3.org/2001/xml-events" xmlns:xlink="http://www.w3.org/1999/xlink">
  <defs/>
  <rect fill="white" height="330" width="330" x="0" y="0"/>
  <rect fill="#6dd6ff" height="10" stroke-width="0" transform=" rotate(0, 53, 53)" width="10" x="48.433" y="48.8302"/>
  <polygon fill="#6dd6ff" points="69.8066,58.2883 74.8066,48.2883 79.8066,58.2883" stroke-width="0" transform=" rotate(0, 74, 53)"/>
  <ellipse cx="95.8804" cy="52.9637" fill="#6dd6ff" rx="5.0" ry="5.0" stroke-width="0" transform=" rotate(0, 95, 52)"/>
  <rect fill="#6dd6ff" height="10" stroke-width="0" transform=" rotate(0, 113, 55)" width="10" x="108.2922" y="50.5271"/>
  <polygon fill="#6dd6ff" points="131.5884,58.1372 136.5884,48.1372 141.5884,58.1372" stroke-width="0" transform=" rotate(0, 136, 53)"/>
  <ellipse cx="155.8791" cy="53.7115" fill="#6dd6ff" rx="5.0" ry="5.0" stroke-width="0" transform=" rotate(0, 155, 53)"/>
  <rect fill="#6dd6ff" height="10" stroke-width="0" transform=" rotate(0, 175, 55)" width="10" x="170.0819" y="50.8464"/>
  <polygon fill="#6dd6ff" points="188.3236,60.6097 193.3236,50.6097 198.3236,60.6097" stroke-width="0" transform=" rotate(0, 193, 55)"/>
  <ellipse cx="216.3813" cy="55.5761" fill="#6dd6ff" rx="5.0" ry="5.0" stroke-width="0" transform=" rotate(0, 216, 55)"/>
  <rect fill="#6dd6ff" height="10" stroke-width="0" transform=" rotate(0, 234, 56)" width="10" x="229.5592" y="51.741"/>
  <polygon fill="#6dd6ff" points="248.7827,60.4938 253.7827,50.4938 258.7827,60.4938" stroke-width="0" transform=" rotate(0, 253, 55)"/>
  <ellipse cx="275.4113" cy="55.7641" fill="#6dd6ff" rx="5.0" ry="5.0" stroke-width="0" transform=" rotate(0, 275, 55)"/>
  <rect fill="#1b9fd8" height="14" stroke-width="0" transform=" rotate(0, 56, 74)" width="14" x="49.8585" y="67.5853"/>
  <polygon fill="#1b9fd8" points="66.6572,83.0469 73.6572,69.0469 80.6572,83.0469" stroke-width="0" transform=" rotate(0, 73, 76)"/>
  <ellipse cx="95.2889" cy="74.1516" fill="#1b9fd8" rx="7.0" ry="7.0" stroke-width="0" transform=" rotate(0, 95, 74)"/>
  <rect fill="#1b9fd8" height="14" stroke-width="0" transform=" rotate(0, 115, 76)" width="14" x="108.7844" y="69.7158"/>
  <polygon fill="#1b9fd8" points="126.6086,81.9833 133.6086,67.9833 140.6086,81.9833" stroke-width="0" transform=" rotate(0, 133, 74)"/>
  <ellipse cx="155.0916" cy="74.1665" fill="#1b9fd8" rx="7.0" ry="7.0" stroke-width="0" transform=" rotate(0, 155, 74)"/>
  <rect fill="#1b9fd8" height="14" stroke-width="0" transform=" rotate(0, 175, 76)" width="14" x="168.7278" y="69.5851"/>
  <polygon fill="#1b9fd8" points="187.8929,83.6679 194.8929,69.6679 201.8929,83.6679" stroke-width="0" transform=" rotate(0, 194, 76)"/>
  <ellipse cx="213.6605" cy="76.5501" fill="#1b9fd8" rx="7.0" ry="7.0" stroke-width="0" transform=" rotate(0, 213, 76)"/>
  <rect fill="#1b9fd8" height="14" stroke-width="0" transform=" rotate(0, 235, 73)" width="14" x="228.6567" y="66.5546"/>
  <polygon fill="#1b9fd8" points="247.7713,81.5824 254.7713,67.5824 261.7713,81.5824" stroke-width="0" transform=" rotate(0, 254, 74)"/>
  <ellipse cx="276.5884" cy="75.9289" fill="#1b9fd8" rx="7.0" ry="7.0" stroke-width="0" transform=" rotate(0, 276, 75)"/>
  <rect fill="#006ca1" height="18" stroke-width="0" transform=" rotate(0, 54, 95)" width="18" x="45.8585" y="86.4936"/>
  <polygon fill="#006ca1" points="66.3345,103.891 75.3345,85.891 84.3345,103.891" stroke-width="0" transform=" rotate(0, 75, 94)"/>
  <ellipse cx="95.811" cy="96.5148" fill="#006ca1" rx="9.0" ry="9.0" stroke-width="0" transform=" rotate(0, 95, 96)"/>
  <rect fill="#006ca1" height="18" stroke-width="0" transform=" rotate(0, 114, 93)" width="18" x="105.0938" y="84.7256"/>
  <polygon fill="#006ca1" points="126.7039,103.4251 135.7039,85.4251 144.7039,103.4251" stroke-width="0" transform=" rotate(0, 135, 94)"/>
  <ellipse cx="156.8768" cy="96.3138" fill="#006ca1" rx="9.0" ry="9.0" stroke-width="0" transform=" rotate(0, 156, 96)"/>
  <rect fill="#006ca1" height="18" stroke-width="0" transform=" rotate(0, 173, 95)" width="18" x="164.2137" y="86.6901"/>
  <polygon fill="#006ca1" points="185.5609,105.8063 194.5609,87.8063 203.5609,105.8063" stroke-width="0" transform=" rotate(0, 194, 96)"/>
  <ellipse cx="215.7473" cy="95.3425" fill="#006ca1" rx="9.0" ry="9.0" stroke-width="0" transform=" rotate(0, 215, 95)"/>
  <rect fill="#006ca1" height="18" stroke-width="0" transform=" rotate(0, 234, 95)" width="18" x="225.8629" y="86.2531"/>
  <polygon fill="#006ca1" points="247.8641,103.7931 256.8641,85.7931 265.8641,103.7931" stroke-width="0" transform=" rotate(0, 256, 94)"/>
  <ellipse cx="275.8165" cy="95.9913" fill="#006ca1" rx="9.0" ry="9.0" stroke-width="0" transform=" rotate(0, 275, 95)"/>
  <rect fill="#6dd6ff" height="10" stroke-width="0" transform=" rotate(0, 55, 112)" width="10" x="50.0098" y="107.9873"/>
  <polygon fill="#6dd6ff" points="71.7557,118.6858 76.7557,108.6858 81.7557,118.6858" stroke-width="0" transform=" rotate(0, 76, 113)"/>
  <ellipse cx="95.66" cy="113.8491" fill="#6dd6ff" rx="5.0" ry="5.0" stroke-width="0" transform=" rotate(0, 95, 113)"/>
  <rect fill="#6dd6ff" height="10" stroke-width="0" transform=" rotate(0, 115, 115)" width="10" x="110.5192" y="110.0104"/>
  <polygon fill="#6dd6ff" points="130.3576,121.8416 135.3576,111.8416 140.3576,121.8416" stroke-width="0" transform=" rotate(0, 135, 116)"/>
  <ellipse cx="155.4906" cy="114.4131" fill="#6dd6ff" rx="5.0" ry="5.0" stroke-width="0" transform=" rotate(0, 155, 114)"/>
  <rect fill="#6dd6ff" height="10" stroke-width="0" transform=" rotate(0, 175, 115)" width="10" x="170.623" y="110.9171"/>
  <polygon fill="#6dd6ff" points="191.9298,120.2205 196.9298,110.2205 201.9298,120.2205" stroke-width="0" transform=" rotate(0, 196, 115)"/>
  <ellipse cx="214.3694" cy="116.7256" fill="#6dd6ff" rx="5.0" ry="5.0" stroke-width="0" transform=" rotate(0, 214, 116)"/>
  <rect fill="#6dd6ff" height="10" stroke-width="0" transform=" rotate(0, 236, 115)" width="10" x="231.7664" y="110.8193"/>
  <polygon fill="#6dd6ff" points="249.5099,121.7473 254.5099,111.7473 259.5099,121.7473" stroke-width="0" transform=" rotate(0, 254, 116)"/>
  <ellipse cx="274.0711" cy="116.7912" fill="#6dd6ff" rx="5.0" ry="5.0" stroke-width="0" transform=" rotate(0, 274, 116)"/>
  <rect fill="#1b9fd8" height="14" stroke-width="0" transform=" rotate(0, 53, 134)" width="14" x="46.2982" y="127.4671"/>
  <polygon fill="#1b9fd8" points="69.7806,142.803 76.7806,128.803 83.7806,142.803" stroke-width="0" transform=" rotate(0, 76, 135)"/>
  <ellipse cx="93.5543" cy="135.0118" fill="#1b9fd8" rx="7.0" ry="7.0" stroke-width="0" transform=" rotate(0, 93, 135)"/>
  <rect fill="#1b9fd8" height="14" stroke-width="0" transform=" rotate(0, 114, 135)" width="14" x="107.554" y="128.0885"/>
  <polygon fill="#1b9fd8" points="129.6339,143.8728 136.6339,129.8728 143.6339,143.8728" stroke-width="0" transform=" rotate(0, 136, 136)"/>
  <ellipse cx="155.9867" cy="135.193" fill="#1b9fd8" rx="7.0" ry="7.0" stroke-width="0" transform=" rotate(0, 155, 135)"/>
  <rect fill="#1b9fd8" height="14" stroke-width="0" transform=" rotate(0, 174, 136)" width="14" x="167.0512" y="129.0254"/>
  <polygon fill="#1b9fd8" points="187.4493,141.8401 194.4493,127.8401 201.4493,141.8401" stroke-width="0" transform=" rotate(0, 194, 134)"/>
  <ellipse cx="214.7669" cy="135.2647" fill="#1b9fd8" rx="7.0" ry="7.0" stroke-width="0" transform=" rotate(0, 214, 135)"/>
  <rect fill="#1b9fd8" height="14" stroke-width="0" transform=" rotate(0, 234, 134)" width="14" x="227.246" y="127.3418"/>
  <polygon fill="#1b9fd8" points="247.6129,141.8935 254.6129,127.8935 261.6129,141.8935" stroke-width="0" transform=" rotate(0, 254, 134)"/>
  <ellipse cx="274.0621" cy="133.7682" fill="#1b9fd8" rx="7.0" ry="7.0" stroke-width="0" transform=" rotate(0, 274, 133)"/>
  <rect fill="#006ca1" height="18" stroke-width="0" transform=" rotate(0, 53, 154)" width="18" x="44.3368" y="145.5673"/>
  <polygon fill="#006ca1" points="67.5152,164.8872 76.5152,146.8872 85.5152,164.8872" stroke-width="0" transform=" rotate(0, 76, 155)"/>
  <ellipse cx="93.1233" cy="156.034" fill="#006ca1" rx="9.0" ry="9.0" stroke-width="0" transform=" rotate(0, 93, 156)"/>
  <rect fill="#006ca1" height="18" stroke-width="0" transform=" rotate(0, 115, 153)" width="18" x="106.6485" y="144.5836"/>
  <polygon fill="#006ca1" points="124.3958,163.1873 133.3958,145.1873 142.3958,163.1873" stroke-width="0" transform=" rotate(0, 133, 154)"/>
  <ellipse cx="154.7521" cy="155.5301" fill="#006ca1" rx="9.0" ry="9.0" stroke-width="0" transform=" rotate(0, 154, 155)"/>
  <rect fill="#006ca1" height="18" stroke-width="0" transform=" rotate(0, 173, 156)" width="18" x="164.3413" y="147.7132"/>
  <polygon fill="#006ca1" points="187.2041,162.7765 196.2041,144.7765 205.2041,162.7765" stroke-width="0" transform=" rotate(0, 196, 153)"/>
  <ellipse cx="215.2544" cy="156.4654" fill="#006ca1" rx="9.0" ry="9.0" stroke-width="0" transform=" rotate(0, 215, 156)"/>
  <rect fill="#006ca1" height="18" stroke-width="0" transform=" rotate(0, 234, 154)" width="18" x="225.4048" y="145.1853"/>
  <polygon fill="#006ca1" points="247.5195,164.3447 256.5195,146.3447 265.5195,164.3447" stroke-width="0" transform=" rotate(0, 256, 155)"/>
  <ellipse cx="274.5317" cy="153.5138" fill="#006ca1" rx="9.0" ry="9.0" stroke-width="0" transform=" rotate(0, 274, 153)"/>
  <rect fill="#006ca1" height="18" stroke-width="0" transform=" rotate(0, 53, 173)" width="18" x="44.7552" y="164.4541"/>
  <polygon fill="#006ca1" points="65.9372,184.1521 74.9372,166.1521 83.9372,184.1521" stroke-width="0" transform=" rotate(0, 74, 175)"/>
  <ellipse cx="95.5981" cy="176.1859" fill="#006ca1" rx="9.0" ry="9.0" stroke-width="0" transform=" rotate(0, 95, 176)"/>
  <rect fill="#006ca1" height="18" stroke-width="0" transform=" rotate(0, 113, 175)" width="18" x="104.704" y="166.167"/>
  <polygon fill="#006ca1" points="125.5639,182.8667 134.5639,164.8667 143.5639,182.8667" stroke-width="0" transform=" rotate(0, 134, 173)"/>
  <ellipse cx="153.7387" cy="174.2241" fill="#006ca1" rx="9.0" ry="9.0" stroke-width="0" transform=" rotate(0, 153, 174)"/>
  <rect fill="#006ca1" height="18" stroke-width="0" transform=" rotate(0, 173, 173)" width="18" x="164.668" y="164.9092"/>
  <polygon fill="#006ca1" points="186.4735,183.5552 195.4735,165.5552 204.4735,183.5552" stroke-width="0" transform=" rotate(0, 195, 174)"/>
  <ellipse cx="215.816" cy="176.6149" fill="#006ca1" rx="9.0" ry="9.0" stroke-width="0" transform=" rotate(0, 215, 176)"/>
  <rect fill="#006ca1" height="18" stroke-width="0" transform=" rotate(0, 233, 174)" width="18" x="224.0512" y="165.5198"/>
  <polygon fill="#006ca1" points="245.0135,184.3833 254.0135,166.3833 263.0135,184.3833" stroke-width="0" transform=" rotate(0, 254, 175)"/>
  <ellipse cx="273.4362" cy="174.6764" fill="#006ca1" rx="9.0" ry="9.0" stroke-width="0" transform=" rotate(0, 273, 174)"/>
  <rect fill="#1b9fd8" height="14" stroke-width="0" transform=" rotate(0, 56, 194)" width="14" x="49.1485" y="187.1693"/>
  <polygon fill="#1b9fd8" points="69.9849,199.929 76.9849,185.929 83.9849,199.929" stroke-width="0" transform=" rotate(0, 76, 192)"/>
  <ellipse cx="93.5658" cy="194.551" fill="#1b9fd8" rx="7.0" ry="7.0" stroke-width="0" transform=" rotate(0, 93, 194)"/>
  <rect fill="#1b9fd8" height="14" stroke-width="0" transform=" rotate(0, 115, 196)" width="14" x="108.5942" y="189.1173"/>
  <polygon fill="#1b9fd8" points="129.2079,200.1319 136.2079,186.1319 143.2079,200.1319" stroke-width="0" transform=" rotate(0, 136, 193)"/>
  <ellipse cx="153.3889" cy="196.6257" fill="#1b9fd8" rx="7.0" ry="7.0" stroke-width="0" transform=" rotate(0, 153, 196)"/>
  <rect fill="#1b9fd8" height="14" stroke-width="0" transform=" rotate(0, 174, 194)" width="14" x="167.4277" y="187.7419"/>
  <polygon fill="#1b9fd8" points="187.4743,202.501 194.4743,188.501 201.4743,202.501" stroke-width="0" transform=" rotate(0, 194, 195)"/>
  <ellipse cx="213.5374" cy="195.177" fill="#1b9fd8" rx="7.0" ry="7.0" stroke-width="0" transform=" rotate(0, 213, 195)"/>
  <rect fill="#1b9fd8" height="14" stroke-width="0" transform=" rotate(0, 233, 194)" width="14" x="226.2353" y="187.6774"/>
  <polygon fill="#1b9fd8" points="246.7844,203.3987 253.7844,189.3987 260.7844,203.3987" stroke-width="0" transform=" rotate(0, 253, 196)"/>
  <ellipse cx="274.4771" cy="193.1167" fill="#1b9fd8" rx="7.0" ry="7.0" stroke-width="0" transform=" rotate(0, 274, 193)"/>
  <rect fill="#6dd6ff" height="10" stroke-width="0" transform=" rotate(0, 54, 216)" width="10" x="49.5391" y="211.8465"/>
  <polygon fill="#6dd6ff" points="68.8807,219.7747 73.8807,209.7747 78.8807,219.7747" stroke-width="0" transform=" rotate(0, 73, 214)"/>
  <ellipse cx="95.792" cy="214.4567" fill="#6dd6ff" rx="5.0" ry="5.0" stroke-width="0" transform=" rotate(0, 95, 214)"/>
  <rect fill="#6dd6ff" height="10" stroke-width="0" transform=" rotate(0, 114, 213)" width="10" x="109.4352" y="208.916"/>
  <polygon fill="#6dd6ff" points="131.8789,221.3966 136.8789,211.3966 141.8789,221.3966" stroke-width="0" transform=" rotate(0, 136, 216)"/>
  <ellipse cx="155.3344" cy="213.7859" fill="#6dd6ff" rx="5.0" ry="5.0" stroke-width="0" transform=" rotate(0, 155, 213)"/>
  <rect fill="#6dd6ff" height="10" stroke-width="0" transform=" rotate(0, 176, 215)" width="10" x="171.5232" y="210.1748"/>
  <polygon fill="#6dd6ff" points="188.5199,221.0253 193.5199,211.0253 198.5199,221.0253" stroke-width="0" transform=" rotate(0, 193, 216)"/>
  <ellipse cx="214.4628" cy="216.2047" fill="#6dd6ff" rx="5.0" ry="5.0" stroke-width="0" transform=" rotate(0, 214, 216)"/>
  <rect fill="#6dd6ff" height="10" stroke-width="0" transform=" rotate(0, 236, 214)" width="10" x="231.6194" y="209.6312"/>
  <polygon fill="#6dd6ff" points="249.4796,220.7659 254.4796,210.7659 259.4796,220.7659" stroke-width="0" transform=" rotate(0, 254, 215)"/>
  <ellipse cx="273.4331" cy="214.2514" fill="#6dd6ff" rx="5.0" ry="5.0" stroke-width="0" transform=" rotate(0, 273, 214)"/>
  <rect fill="#006ca1" height="18" stroke-width="0" transform=" rotate(0, 54, 233)" width="18" x="45.4691" y="224.8581"/>
  <polygon fill="#006ca1" points="66.6068,243.2796 75.6068,225.2796 84.6068,243.2796" stroke-width="0" transform=" rotate(0, 75, 234)"/>
  <ellipse cx="94.5675" cy="233.5847" fill="#006ca1" rx="9.0" ry="9.0" stroke-width="0" transform=" rotate(0, 94, 233)"/>
  <rect fill="#006ca1" height="18" stroke-width="0" transform=" rotate(0, 116, 233)" width="18" x="107.7516" y="224.4679"/>
  <polygon fill="#006ca1" points="124.7905,243.4953 133.7905,225.4953 142.7905,243.4953" stroke-width="0" transform=" rotate(0, 133, 234)"/>
  <ellipse cx="153.9763" cy="236.5807" fill="#006ca1" rx="9.0" ry="9.0" stroke-width="0" transform=" rotate(0, 153, 236)"/>
  <rect fill="#006ca1" height="18" stroke-width="0" transform=" rotate(0, 176, 233)" width="18" x="167.8902" y="224.6479"/>
  <polygon fill="#006ca1" points="185.0739,245.2151 194.0739,227.2151 203.0739,245.2151" stroke-width="0" transform=" rotate(0, 194, 236)"/>
  <ellipse cx="216.2594" cy="234.7806" fill="#006ca1" rx="9.0" ry="9.0" stroke-width="0" transform=" rotate(0, 216, 234)"/>
  <rect fill="#006ca1" height="18" stroke-width="0" transform=" rotate(0, 233, 233)" width="18" x="224.3728" y="224.8695"/>
  <polygon fill="#006ca1" points="244.4337,244.6373 253.4337,226.6373 262.4337,244.6373" stroke-width="0" transform=" rotate(0, 253, 235)"/>
  <ellipse cx="274.2001" cy="236.4595" fill="#006ca1" rx="9.0" ry="9.0" stroke-width="0" transform=" rotate(0, 274, 236)"/>
  <rect fill="#1b9fd8" height="14" stroke-width="0" transform=" rotate(0, 56, 255)" width="14" x="49.5077" y="248.4534"/>
  <polygon fill="#1b9fd8" points="69.6014,261.3528 76.6014,247.3528 83.6014,261.3528" stroke-width="0" transform=" rotate(0, 76, 254)"/>
  <ellipse cx="96.4897" cy="253.1453" fill="#1b9fd8" rx="7.0" ry="7.0" stroke-width="0" transform=" rotate(0, 96, 253)"/>
  <rect fill="#1b9fd8" height="14" stroke-width="0" transform=" rotate(0, 116, 255)" width="14" x="109.5819" y="248.0984"/>
  <polygon fill="#1b9fd8" points="126.3353,260.3157 133.3353,246.3157 140.3353,260.3157" stroke-width="0" transform=" rotate(0, 133, 253)"/>
  <ellipse cx="154.4946" cy="255.2961" fill="#1b9fd8" rx="7.0" ry="7.0" stroke-width="0" transform=" rotate(0, 154, 255)"/>
  <rect fill="#1b9fd8" height="14" stroke-width="0" transform=" rotate(0, 175, 255)" width="14" x="168.7201" y="248.8484"/>
  <polygon fill="#1b9fd8" points="189.0934,261.5473 196.0934,247.5473 203.0934,261.5473" stroke-width="0" transform=" rotate(0, 196, 254)"/>
  <ellipse cx="216.0269" cy="256.1164" fill="#1b9fd8" rx="7.0" ry="7.0" stroke-width="0" transform=" rotate(0, 216, 256)"/>
  <rect fill="#1b9fd8" height="14" stroke-width="0" transform=" rotate(0, 234, 254)" width="14" x="227.8057" y="247.271"/>
  <polygon fill="#1b9fd8" points="248.9591,260.0795 255.9591,246.0795 262.9591,260.0795" stroke-width="0" transform=" rotate(0, 255, 253)"/>
  <ellipse cx="275.9638" cy="253.0451" fill="#1b9fd8" rx="7.0" ry="7.0" stroke-width="0" transform=" rotate(0, 275, 253)"/>
  <rect fill="#6dd6ff" height="10" stroke-width="0" transform=" rotate(0, 56, 276)" width="10" x="51.7072" y="271.37"/>
  <polygon fill="#6dd6ff" points="68.1107,280.7102 73.1107,270.7102 78.1107,280.7102" stroke-width="0" transform=" rotate(0, 73, 275)"/>
  <ellipse cx="96.0859" cy="273.0232" fill="#6dd6ff" rx="5.0" ry="5.0" stroke-width="0" transform=" rotate(0, 96, 273)"/>
  <rect fill="#6dd6ff" height="10" stroke-width="0" transform=" rotate(0, 115, 275)" width="10" x="110.8864" y="270.4223"/>
  <polygon fill="#6dd6ff" points="130.5713,281.3586 135.5713,271.3586 140.5713,281.3586" stroke-width="0" transform=" rotate(0, 135, 276)"/>
  <ellipse cx="155.3795" cy="273.8222" fill="#6dd6ff" rx="5.0" ry="5.0" stroke-width="0" transform=" rotate(0, 155, 273)"/>
  <rect fill="#6dd6ff" height="10" stroke-width="0" transform=" rotate(0, 173, 274)" width="10" x="168.8758" y="269.2557"/>
  <polygon fill="#6dd6ff" points="191.2741,279.4162 196.2741,269.4162 201.2741,279.4162" stroke-width="0" transform=" rotate(0, 196, 274)"/>
  <ellipse cx="215.9928" cy="273.3017" fill="#6dd6ff" rx="5.0" ry="5.0" stroke-width="0" transform=" rotate(0, 215, 273)"/>
  <rect fill="#6dd6ff" height="10" stroke-width="0" transform=" rotate(0, 233, 276)" width="10" x="228.7383" y="271.8407"/>
  <polygon fill="#6dd6ff" points="248.4227,281.8672 253.4227,271.8672 258.4227,281.8672" stroke-width="0" transform=" rotate(0, 253, 276)"/>
  <ellipse cx="276.6668" cy="273.4758" fill="#6dd6ff" rx="5.0" ry="5.0" stroke-width="0" transform=" rotate(0, 276, 273)"/>
</svg>
