<?xml version="1.0" encoding="utf-8" ?>
<svg baseProfile="tiny" height="330" version="1.2" width="330" xmlns="http://www.w3.org/2000/svg" xmlns:ev="http://www.w3.org/2001/xml-events" xmlns:xlink="http://www.w3.org/1999/xlink">
  <defs/>
  <rect fill="white" height="330" width="330" x="0" y="0"/>
  <rect fill="#6dd6ff" height="10" stroke-width="0" transform=" rotate(0, 47, 49)" width="10" x="42.3215" y="44.268"/>
  <polygon fill="#6dd6ff" points="69.0524,51.6129 74.0524,41.6129 79.0524,51.6129" stroke-width="0" transform=" rotate(0, 74, 46)"/>
  <ellipse cx="99.314" cy="45.0219" fill="#6dd6ff" rx="5.0" ry="5.0" stroke-width="0" transform=" rotate(0, 99, 45)"/>
  <rect fill="#6dd6ff" height="10" stroke-width="0" transform=" rotate(0, 106, 57)" width="10" x="101.6315" y="52.583"/>
  <polygon fill="#6dd6ff" points="137.7834,50.8723 142.7834,40.8723 147.7834,50.8723" stroke-width="0" transform=" rotate(0, 142, 45)"/>
  <ellipse cx="159.3074" cy="48.6866" fill="#6dd6ff" rx="5.0" ry="5.0" stroke-width="0" transform=" rotate(0, 159, 48)"/>
  <rect fill="#6dd6ff" height="10" stroke-width="0" transform=" rotate(0, 175, 59)" width="10" x="170.4011" y="54.1475"/>
  <polygon fill="#6dd6ff" points="181.7859,62.9874 186.7859,52.9874 191.7859,62.9874" stroke-width="0" transform=" rotate(0, 186, 57)"/>
  <ellipse cx="221.7682" cy="57.8229" fill="#6dd6ff" rx="5.0" ry="5.0" stroke-width="0" transform=" rotate(0, 221, 57)"/>
  <rect fill="#6dd6ff" height="10" stroke-width="0" transform=" rotate(0, 232, 63)" width="10" x="227.8399" y="58.5311"/>
  <polygon fill="#6dd6ff" points="244.0352,62.4196 249.0352,52.4196 254.0352,62.4196" stroke-width="0" transform=" rotate(0, 249, 57)"/>
  <ellipse cx="277.0156" cy="58.7442" fill="#6dd6ff" rx="5.0" ry="5.0" stroke-width="0" transform=" rotate(0, 277, 58)"/>
  <rect fill="#1b9fd8" height="14" stroke-width="0" transform=" rotate(0, 64, 72)" width="14" x="57.1066" y="65.9678"/>
  <polygon fill="#1b9fd8" points="61.4202,87.1299 68.4202,73.1299 75.4202,87.1299" stroke-width="0" transform=" rotate(0, 68, 80)"/>
  <ellipse cx="96.4155" cy="70.843" fill="#1b9fd8" rx="7.0" ry="7.0" stroke-width="0" transform=" rotate(0, 96, 70)"/>
  <rect fill="#1b9fd8" height="14" stroke-width="0" transform=" rotate(0, 118, 83)" width="14" x="111.8437" y="76.4072"/>
  <polygon fill="#1b9fd8" points="121.182,81.9182 128.182,67.9182 135.182,81.9182" stroke-width="0" transform=" rotate(0, 128, 74)"/>
  <ellipse cx="155.4489" cy="70.9159" fill="#1b9fd8" rx="7.0" ry="7.0" stroke-width="0" transform=" rotate(0, 155, 70)"/>
  <rect fill="#1b9fd8" height="14" stroke-width="0" transform=" rotate(0, 178, 82)" width="14" x="171.5663" y="75.7668"/>
  <polygon fill="#1b9fd8" points="187.4752,90.1727 194.4752,76.1727 201.4752,90.1727" stroke-width="0" transform=" rotate(0, 194, 83)"/>
  <ellipse cx="208.4366" cy="82.5957" fill="#1b9fd8" rx="7.0" ry="7.0" stroke-width="0" transform=" rotate(0, 208, 82)"/>
  <rect fill="#1b9fd8" height="14" stroke-width="0" transform=" rotate(0, 238, 67)" width="14" x="231.2179" y="60.9174"/>
  <polygon fill="#1b9fd8" points="246.8795,79.9538 253.8795,65.9538 260.8795,79.9538" stroke-width="0" transform=" rotate(0, 253, 72)"/>
  <ellipse cx="282.7832" cy="79.5517" fill="#1b9fd8" rx="7.0" ry="7.0" stroke-width="0" transform=" rotate(0, 282, 79)"/>
  <rect fill="#006ca1" height="18" stroke-width="0" transform=" rotate(0, 54, 97)" width="18" x="45.3067" y="88.4185"/>
  <polygon fill="#006ca1" points="67.6391,103.4659 76.6391,85.4659 85.6391,103.4659" stroke-width="0" transform=" rotate(0, 76, 94)"/>
  <ellipse cx="98.9741" cy="102.4226" fill="#006ca1" rx="9.0" ry="9.0" stroke-width="0" transform=" rotate(0, 98, 102)"/>
  <rect fill="#006ca1" height="18" stroke-width="0" transform=" rotate(0, 110, 88)" width="18" x="101.5596" y="79.7555"/>
  <polygon fill="#006ca1" points="129.4491,101.1828 138.4491,83.1828 147.4491,101.1828" stroke-width="0" transform=" rotate(0, 138, 92)"/>
  <ellipse cx="164.1963" cy="101.4376" fill="#006ca1" rx="9.0" ry="9.0" stroke-width="0" transform=" rotate(0, 164, 101)"/>
  <rect fill="#006ca1" height="18" stroke-width="0" transform=" rotate(0, 166, 98)" width="18" x="157.247" y="89.3817"/>
  <polygon fill="#006ca1" points="183.8484,112.8511 192.8484,94.8511 201.8484,112.8511" stroke-width="0" transform=" rotate(0, 192, 103)"/>
  <ellipse cx="218.6616" cy="96.6783" fill="#006ca1" rx="9.0" ry="9.0" stroke-width="0" transform=" rotate(0, 218, 96)"/>
  <rect fill="#006ca1" height="18" stroke-width="0" transform=" rotate(0, 234, 96)" width="18" x="225.3281" y="87.2404"/>
  <polygon fill="#006ca1" points="255.134,102.9862 264.134,84.9862 273.134,102.9862" stroke-width="0" transform=" rotate(0, 264, 93)"/>
  <ellipse cx="279.001" cy="99.8575" fill="#006ca1" rx="9.0" ry="9.0" stroke-width="0" transform=" rotate(0, 279, 99)"/>
  <rect fill="#6dd6ff" height="10" stroke-width="0" transform=" rotate(0, 55, 105)" width="10" x="50.048" y="100.1378"/>
  <polygon fill="#6dd6ff" points="78.6031,113.5606 83.6031,103.5606 88.6031,113.5606" stroke-width="0" transform=" rotate(0, 83, 108)"/>
  <ellipse cx="98.234" cy="109.3607" fill="#6dd6ff" rx="5.0" ry="5.0" stroke-width="0" transform=" rotate(0, 98, 109)"/>
  <rect fill="#6dd6ff" height="10" stroke-width="0" transform=" rotate(0, 117, 115)" width="10" x="112.544" y="110.0508"/>
  <polygon fill="#6dd6ff" points="131.7524,129.0238 136.7524,119.0238 141.7524,129.0238" stroke-width="0" transform=" rotate(0, 136, 124)"/>
  <ellipse cx="157.4039" cy="112.1241" fill="#6dd6ff" rx="5.0" ry="5.0" stroke-width="0" transform=" rotate(0, 157, 112)"/>
  <rect fill="#6dd6ff" height="10" stroke-width="0" transform=" rotate(0, 178, 119)" width="10" x="173.0525" y="114.4936"/>
  <polygon fill="#6dd6ff" points="199.4562,121.0806 204.4562,111.0806 209.4562,121.0806" stroke-width="0" transform=" rotate(0, 204, 116)"/>
  <ellipse cx="211.9103" cy="123.4554" fill="#6dd6ff" rx="5.0" ry="5.0" stroke-width="0" transform=" rotate(0, 211, 123)"/>
  <rect fill="#6dd6ff" height="10" stroke-width="0" transform=" rotate(0, 243, 119)" width="10" x="238.6556" y="114.0146"/>
  <polygon fill="#6dd6ff" points="247.5983,128.5619 252.5983,118.5619 257.5983,128.5619" stroke-width="0" transform=" rotate(0, 252, 123)"/>
  <ellipse cx="270.4484" cy="123.7771" fill="#6dd6ff" rx="5.0" ry="5.0" stroke-width="0" transform=" rotate(0, 270, 123)"/>
  <rect fill="#1b9fd8" height="14" stroke-width="0" transform=" rotate(0, 46, 132)" width="14" x="39.6612" y="125.3889"/>
  <polygon fill="#1b9fd8" points="76.7248,145.9347 83.7248,131.9347 90.7248,145.9347" stroke-width="0" transform=" rotate(0, 83, 138)"/>
  <ellipse cx="87.9161" cy="135.0578" fill="#1b9fd8" rx="7.0" ry="7.0" stroke-width="0" transform=" rotate(0, 87, 135)"/>
  <rect fill="#1b9fd8" height="14" stroke-width="0" transform=" rotate(0, 112, 135)" width="14" x="105.8148" y="128.4338"/>
  <polygon fill="#1b9fd8" points="136.0061,151.1766 143.0061,137.1766 150.0061,151.1766" stroke-width="0" transform=" rotate(0, 143, 144)"/>
  <ellipse cx="159.8349" cy="135.9458" fill="#1b9fd8" rx="7.0" ry="7.0" stroke-width="0" transform=" rotate(0, 159, 135)"/>
  <rect fill="#1b9fd8" height="14" stroke-width="0" transform=" rotate(0, 170, 140)" width="14" x="163.3511" y="133.0244"/>
  <polygon fill="#1b9fd8" points="185.3016,141.2164 192.3016,127.2164 199.3016,141.2164" stroke-width="0" transform=" rotate(0, 192, 134)"/>
  <ellipse cx="213.8579" cy="136.2972" fill="#1b9fd8" rx="7.0" ry="7.0" stroke-width="0" transform=" rotate(0, 213, 136)"/>
  <rect fill="#1b9fd8" height="14" stroke-width="0" transform=" rotate(0, 231, 131)" width="14" x="224.3052" y="124.7749"/>
  <polygon fill="#1b9fd8" points="246.1031,141.4783 253.1031,127.4783 260.1031,141.4783" stroke-width="0" transform=" rotate(0, 253, 134)"/>
  <ellipse cx="270.4041" cy="128.9643" fill="#1b9fd8" rx="7.0" ry="7.0" stroke-width="0" transform=" rotate(0, 270, 128)"/>
  <rect fill="#006ca1" height="18" stroke-width="0" transform=" rotate(0, 46, 152)" width="18" x="37.8504" y="143.88"/>
  <polygon fill="#006ca1" points="73.4245,168.3474 82.4245,150.3474 91.4245,168.3474" stroke-width="0" transform=" rotate(0, 82, 159)"/>
  <ellipse cx="85.8041" cy="160.0668" fill="#006ca1" rx="9.0" ry="9.0" stroke-width="0" transform=" rotate(0, 85, 160)"/>
  <rect fill="#006ca1" height="18" stroke-width="0" transform=" rotate(0, 118, 148)" width="18" x="109.1777" y="139.0596"/>
  <polygon fill="#006ca1" points="118.1397,160.018 127.1397,142.018 136.1397,160.018" stroke-width="0" transform=" rotate(0, 127, 151)"/>
  <ellipse cx="153.7852" cy="157.5976" fill="#006ca1" rx="9.0" ry="9.0" stroke-width="0" transform=" rotate(0, 153, 157)"/>
  <rect fill="#006ca1" height="18" stroke-width="0" transform=" rotate(0, 166, 163)" width="18" x="157.8725" y="154.3946"/>
  <polygon fill="#006ca1" points="191.9003,158.005 200.9003,140.005 209.9003,158.005" stroke-width="0" transform=" rotate(0, 200, 149)"/>
  <ellipse cx="216.2466" cy="162.1803" fill="#006ca1" rx="9.0" ry="9.0" stroke-width="0" transform=" rotate(0, 216, 162)"/>
  <rect fill="#006ca1" height="18" stroke-width="0" transform=" rotate(0, 232, 151)" width="18" x="223.0834" y="142.0078"/>
  <polygon fill="#006ca1" points="253.4457,165.689 262.4457,147.689 271.4457,165.689" stroke-width="0" transform=" rotate(0, 262, 156)"/>
  <ellipse cx="272.7053" cy="147.7177" fill="#006ca1" rx="9.0" ry="9.0" stroke-width="0" transform=" rotate(0, 272, 147)"/>
  <rect fill="#006ca1" height="18" stroke-width="0" transform=" rotate(0, 48, 167)" width="18" x="39.9007" y="158.4253"/>
  <polygon fill="#006ca1" points="65.6921,184.7454 74.6921,166.7454 83.6921,184.7454" stroke-width="0" transform=" rotate(0, 74, 175)"/>
  <ellipse cx="97.9307" cy="180.8107" fill="#006ca1" rx="9.0" ry="9.0" stroke-width="0" transform=" rotate(0, 97, 180)"/>
  <rect fill="#006ca1" height="18" stroke-width="0" transform=" rotate(0, 108, 175)" width="18" x="99.6495" y="166.8183"/>
  <polygon fill="#006ca1" points="123.8629,178.4468 132.8629,160.4468 141.8629,178.4468" stroke-width="0" transform=" rotate(0, 132, 169)"/>
  <ellipse cx="148.8194" cy="171.198" fill="#006ca1" rx="9.0" ry="9.0" stroke-width="0" transform=" rotate(0, 148, 171)"/>
  <rect fill="#006ca1" height="18" stroke-width="0" transform=" rotate(0, 168, 169)" width="18" x="159.4733" y="160.6552"/>
  <polygon fill="#006ca1" points="188.32,181.8205 197.32,163.8205 206.32,181.8205" stroke-width="0" transform=" rotate(0, 197, 172)"/>
  <ellipse cx="218.9986" cy="182.913" fill="#006ca1" rx="9.0" ry="9.0" stroke-width="0" transform=" rotate(0, 218, 182)"/>
  <rect fill="#006ca1" height="18" stroke-width="0" transform=" rotate(0, 225, 172)" width="18" x="216.451" y="163.647"/>
  <polygon fill="#006ca1" points="241.166,185.8784 250.166,167.8784 259.166,185.8784" stroke-width="0" transform=" rotate(0, 250, 176)"/>
  <ellipse cx="267.3374" cy="173.4146" fill="#006ca1" rx="9.0" ry="9.0" stroke-width="0" transform=" rotate(0, 267, 173)"/>
  <rect fill="#1b9fd8" height="14" stroke-width="0" transform=" rotate(0, 60, 190)" width="14" x="53.6278" y="183.9296"/>
  <polygon fill="#1b9fd8" points="77.7259,191.8522 84.7259,177.8522 91.7259,191.8522" stroke-width="0" transform=" rotate(0, 84, 184)"/>
  <ellipse cx="87.9724" cy="192.7999" fill="#1b9fd8" rx="7.0" ry="7.0" stroke-width="0" transform=" rotate(0, 87, 192)"/>
  <rect fill="#1b9fd8" height="14" stroke-width="0" transform=" rotate(0, 117, 200)" width="14" x="110.9115" y="193.4748"/>
  <polygon fill="#1b9fd8" points="133.9186,192.8463 140.9186,178.8463 147.9186,192.8463" stroke-width="0" transform=" rotate(0, 140, 185)"/>
  <ellipse cx="147.1055" cy="202.9659" fill="#1b9fd8" rx="7.0" ry="7.0" stroke-width="0" transform=" rotate(0, 147, 202)"/>
  <rect fill="#1b9fd8" height="14" stroke-width="0" transform=" rotate(0, 172, 193)" width="14" x="165.196" y="186.7352"/>
  <polygon fill="#1b9fd8" points="185.4239,204.4549 192.4239,190.4549 199.4239,204.4549" stroke-width="0" transform=" rotate(0, 192, 197)"/>
  <ellipse cx="207.8334" cy="195.8674" fill="#1b9fd8" rx="7.0" ry="7.0" stroke-width="0" transform=" rotate(0, 207, 195)"/>
  <rect fill="#1b9fd8" height="14" stroke-width="0" transform=" rotate(0, 226, 193)" width="14" x="219.3527" y="186.4194"/>
  <polygon fill="#1b9fd8" points="242.0434,208.8537 249.0434,194.8537 256.0434,208.8537" stroke-width="0" transform=" rotate(0, 249, 201)"/>
  <ellipse cx="272.4379" cy="185.7719" fill="#1b9fd8" rx="7.0" ry="7.0" stroke-width="0" transform=" rotate(0, 272, 185)"/>
  <rect fill="#6dd6ff" height="10" stroke-width="0" transform=" rotate(0, 52, 224)" width="10" x="47.7415" y="219.0481"/>
  <polygon fill="#6dd6ff" points="64.5156,218.8961 69.5156,208.8961 74.5156,218.8961" stroke-width="0" transform=" rotate(0, 69, 213)"/>
  <ellipse cx="98.8809" cy="212.338" fill="#6dd6ff" rx="5.0" ry="5.0" stroke-width="0" transform=" rotate(0, 98, 212)"/>
  <rect fill="#6dd6ff" height="10" stroke-width="0" transform=" rotate(0, 112, 209)" width="10" x="107.2325" y="204.6885"/>
  <polygon fill="#6dd6ff" points="139.2066,226.8431 144.2066,216.8431 149.2066,226.8431" stroke-width="0" transform=" rotate(0, 144, 221)"/>
  <ellipse cx="156.6384" cy="209.0509" fill="#6dd6ff" rx="5.0" ry="5.0" stroke-width="0" transform=" rotate(0, 156, 209)"/>
  <rect fill="#6dd6ff" height="10" stroke-width="0" transform=" rotate(0, 182, 215)" width="10" x="177.4636" y="210.8564"/>
  <polygon fill="#6dd6ff" points="182.7476,225.024 187.7476,215.024 192.7476,225.024" stroke-width="0" transform=" rotate(0, 187, 220)"/>
  <ellipse cx="212.3677" cy="220.9032" fill="#6dd6ff" rx="5.0" ry="5.0" stroke-width="0" transform=" rotate(0, 212, 220)"/>
  <rect fill="#6dd6ff" height="10" stroke-width="0" transform=" rotate(0, 242, 213)" width="10" x="237.9351" y="208.1927"/>
  <polygon fill="#6dd6ff" points="247.4502,223.7531 252.4502,213.7531 257.4502,223.7531" stroke-width="0" transform=" rotate(0, 252, 218)"/>
  <ellipse cx="267.3222" cy="211.3319" fill="#6dd6ff" rx="5.0" ry="5.0" stroke-width="0" transform=" rotate(0, 267, 211)"/>
  <rect fill="#006ca1" height="18" stroke-width="0" transform=" rotate(0, 52, 229)" width="18" x="43.3987" y="220.4048"/>
  <polygon fill="#006ca1" points="68.9734,240.4699 77.9734,222.4699 86.9734,240.4699" stroke-width="0" transform=" rotate(0, 77, 231)"/>
  <ellipse cx="92.8806" cy="228.0652" fill="#006ca1" rx="9.0" ry="9.0" stroke-width="0" transform=" rotate(0, 92, 228)"/>
  <rect fill="#006ca1" height="18" stroke-width="0" transform=" rotate(0, 123, 227)" width="18" x="114.5828" y="218.4926"/>
  <polygon fill="#006ca1" points="120.0734,241.5269 129.0734,223.5269 138.0734,241.5269" stroke-width="0" transform=" rotate(0, 129, 232)"/>
  <ellipse cx="149.9841" cy="242.7452" fill="#006ca1" rx="9.0" ry="9.0" stroke-width="0" transform=" rotate(0, 149, 242)"/>
  <rect fill="#006ca1" height="18" stroke-width="0" transform=" rotate(0, 184, 228)" width="18" x="175.2621" y="219.3745"/>
  <polygon fill="#006ca1" points="181.462,249.9539 190.462,231.9539 199.462,249.9539" stroke-width="0" transform=" rotate(0, 190, 240)"/>
  <ellipse cx="221.1712" cy="233.9251" fill="#006ca1" rx="9.0" ry="9.0" stroke-width="0" transform=" rotate(0, 221, 233)"/>
  <rect fill="#006ca1" height="18" stroke-width="0" transform=" rotate(0, 227, 229)" width="18" x="218.0269" y="220.4605"/>
  <polygon fill="#006ca1" points="238.3251,247.1226 247.3251,229.1226 256.3251,247.1226" stroke-width="0" transform=" rotate(0, 247, 238)"/>
  <ellipse cx="271.0804" cy="242.1515" fill="#006ca1" rx="9.0" ry="9.0" stroke-width="0" transform=" rotate(0, 271, 242)"/>
  <rect fill="#1b9fd8" height="14" stroke-width="0" transform=" rotate(0, 62, 257)" width="14" x="55.3879" y="250.2218"/>
  <polygon fill="#1b9fd8" points="75.8468,258.829 82.8468,244.829 89.8468,258.829" stroke-width="0" transform=" rotate(0, 82, 251)"/>
  <ellipse cx="102.2997" cy="245.9121" fill="#1b9fd8" rx="7.0" ry="7.0" stroke-width="0" transform=" rotate(0, 102, 245)"/>
  <rect fill="#1b9fd8" height="14" stroke-width="0" transform=" rotate(0, 122, 255)" width="14" x="115.7513" y="248.4823"/>
  <polygon fill="#1b9fd8" points="119.8427,253.7471 126.8427,239.7471 133.8427,253.7471" stroke-width="0" transform=" rotate(0, 126, 246)"/>
  <ellipse cx="152.5236" cy="256.451" fill="#1b9fd8" rx="7.0" ry="7.0" stroke-width="0" transform=" rotate(0, 152, 256)"/>
  <rect fill="#1b9fd8" height="14" stroke-width="0" transform=" rotate(0, 178, 259)" width="14" x="171.5286" y="252.1574"/>
  <polygon fill="#1b9fd8" points="193.3576,259.7818 200.3576,245.7818 207.3576,259.7818" stroke-width="0" transform=" rotate(0, 200, 252)"/>
  <ellipse cx="220.032" cy="260.4703" fill="#1b9fd8" rx="7.0" ry="7.0" stroke-width="0" transform=" rotate(0, 220, 260)"/>
  <rect fill="#1b9fd8" height="14" stroke-width="0" transform=" rotate(0, 234, 251)" width="14" x="227.0478" y="244.4278"/>
  <polygon fill="#1b9fd8" points="252.6995,252.5895 259.6995,238.5895 266.6995,252.5895" stroke-width="0" transform=" rotate(0, 259, 245)"/>
  <ellipse cx="279.7227" cy="245.4211" fill="#1b9fd8" rx="7.0" ry="7.0" stroke-width="0" transform=" rotate(0, 279, 245)"/>
  <rect fill="#6dd6ff" height="10" stroke-width="0" transform=" rotate(0, 63, 281)" width="10" x="58.3651" y="276.7128"/>
  <polygon fill="#6dd6ff" points="60.7425,283.4801 65.7425,273.4801 70.7425,283.4801" stroke-width="0" transform=" rotate(0, 65, 278)"/>
  <ellipse cx="100.321" cy="265.3138" fill="#6dd6ff" rx="5.0" ry="5.0" stroke-width="0" transform=" rotate(0, 100, 265)"/>
  <rect fill="#6dd6ff" height="10" stroke-width="0" transform=" rotate(0, 119, 277)" width="10" x="114.3434" y="272.0693"/>
  <polygon fill="#6dd6ff" points="132.7995,286.6571 137.7995,276.6571 142.7995,286.6571" stroke-width="0" transform=" rotate(0, 137, 281)"/>
  <ellipse cx="156.8596" cy="269.2288" fill="#6dd6ff" rx="5.0" ry="5.0" stroke-width="0" transform=" rotate(0, 156, 269)"/>
  <rect fill="#6dd6ff" height="10" stroke-width="0" transform=" rotate(0, 169, 271)" width="10" x="164.4912" y="266.3528"/>
  <polygon fill="#6dd6ff" points="196.2432,277.1396 201.2432,267.1396 206.2432,277.1396" stroke-width="0" transform=" rotate(0, 201, 272)"/>
  <ellipse cx="219.8647" cy="266.6785" fill="#6dd6ff" rx="5.0" ry="5.0" stroke-width="0" transform=" rotate(0, 219, 266)"/>
  <rect fill="#6dd6ff" height="10" stroke-width="0" transform=" rotate(0, 228, 284)" width="10" x="223.8177" y="279.0192"/>
  <polygon fill="#6dd6ff" points="242.2714,289.1495 247.2714,279.1495 252.2714,289.1495" stroke-width="0" transform=" rotate(0, 247, 284)"/>
  <ellipse cx="283.1673" cy="267.5312" fill="#6dd6ff" rx="5.0" ry="5.0" stroke-width="0" transform=" rotate(0, 283, 267)"/>
</svg>
