<?xml version="1.0" encoding="utf-8" ?>
<svg baseProfile="tiny" height="330" version="1.2" width="330" xmlns="http://www.w3.org/2000/svg" xmlns:ev="http://www.w3.org/2001/xml-events" xmlns:xlink="http://www.w3.org/1999/xlink">
  <defs/>
  <rect fill="white" height="330" width="330" x="0" y="0"/>
  <rect fill="#6dd6ff" height="20" stroke-width="0" transform=" rotate(0, 61, 65)" width="20" x="51.6576" y="55.0148"/>
  <polygon fill="#6dd6ff" points="94.4049,78.5067 104.4049,58.5067 114.4049,78.5067" stroke-width="0" transform=" rotate(0, 104, 68)"/>
  <ellipse cx="146.5525" cy="66.3152" fill="#6dd6ff" rx="10.0" ry="10.0" stroke-width="0" transform=" rotate(0, 146, 66)"/>
  <rect fill="#6dd6ff" height="20" stroke-width="0" transform=" rotate(0, 181, 66)" width="20" x="171.3759" y="56.0336"/>
  <polygon fill="#6dd6ff" points="217.9685,75.7105 227.9685,55.7105 237.9685,75.7105" stroke-width="0" transform=" rotate(0, 227, 65)"/>
  <ellipse cx="266.5498" cy="65.9764" fill="#6dd6ff" rx="10.0" ry="10.0" stroke-width="0" transform=" rotate(0, 266, 65)"/>
  <rect fill="#1b9fd8" height="28" stroke-width="0" transform=" rotate(0, 64, 106)" width="28" x="50.9554" y="92.2411"/>
  <polygon fill="#1b9fd8" points="87.4389,122.8549 101.4389,94.8549 115.4389,122.8549" stroke-width="0" transform=" rotate(0, 101, 108)"/>
  <ellipse cx="147.5542" cy="103.7341" fill="#1b9fd8" rx="14.0" ry="14.0" stroke-width="0" transform=" rotate(0, 147, 103)"/>
  <rect fill="#1b9fd8" height="28" stroke-width="0" transform=" rotate(0, 183, 108)" width="28" x="169.91" y="94.5281"/>
  <polygon fill="#1b9fd8" points="208.357,118.0149 222.357,90.0149 236.357,118.0149" stroke-width="0" transform=" rotate(0, 222, 104)"/>
  <ellipse cx="265.6143" cy="103.1374" fill="#1b9fd8" rx="14.0" ry="14.0" stroke-width="0" transform=" rotate(0, 265, 103)"/>
  <rect fill="#006ca1" height="36" stroke-width="0" transform=" rotate(0, 68, 141)" width="36" x="50.5086" y="123.5916"/>
  <polygon fill="#006ca1" points="84.106,166.5563 102.106,130.5563 120.106,166.5563" stroke-width="0" transform=" rotate(0, 102, 148)"/>
  <ellipse cx="145.3694" cy="142.1038" fill="#006ca1" rx="18.0" ry="18.0" stroke-width="0" transform=" rotate(0, 145, 142)"/>
  <rect fill="#006ca1" height="36" stroke-width="0" transform=" rotate(0, 186, 144)" width="36" x="168.3605" y="126.1033"/>
  <polygon fill="#006ca1" points="204.0088,166.263 222.0088,130.263 240.0088,166.263" stroke-width="0" transform=" rotate(0, 222, 148)"/>
  <ellipse cx="264.9749" cy="146.9686" fill="#006ca1" rx="18.0" ry="18.0" stroke-width="0" transform=" rotate(0, 264, 146)"/>
  <rect fill="#006ca1" height="36" stroke-width="0" transform=" rotate(0, 66, 183)" width="36" x="48.2473" y="165.0977"/>
  <polygon fill="#006ca1" points="86.5775,201.8938 104.5775,165.8938 122.5775,201.8938" stroke-width="0" transform=" rotate(0, 104, 183)"/>
  <ellipse cx="142.1127" cy="184.5291" fill="#006ca1" rx="18.0" ry="18.0" stroke-width="0" transform=" rotate(0, 142, 184)"/>
  <rect fill="#006ca1" height="36" stroke-width="0" transform=" rotate(0, 186, 183)" width="36" x="168.1051" y="165.4871"/>
  <polygon fill="#006ca1" points="206.3343,202.2209 224.3343,166.2209 242.3343,202.2209" stroke-width="0" transform=" rotate(0, 224, 184)"/>
  <ellipse cx="267.9684" cy="183.1193" fill="#006ca1" rx="18.0" ry="18.0" stroke-width="0" transform=" rotate(0, 267, 183)"/>
  <rect fill="#1b9fd8" height="28" stroke-width="0" transform=" rotate(0, 64, 221)" width="28" x="50.5087" y="207.6688"/>
  <polygon fill="#1b9fd8" points="91.4607,242.0256 105.4607,214.0256 119.4607,242.0256" stroke-width="0" transform=" rotate(0, 105, 228)"/>
  <ellipse cx="146.4137" cy="221.2418" fill="#1b9fd8" rx="14.0" ry="14.0" stroke-width="0" transform=" rotate(0, 146, 221)"/>
  <rect fill="#1b9fd8" height="28" stroke-width="0" transform=" rotate(0, 182, 226)" width="28" x="168.9793" y="212.2922"/>
  <polygon fill="#1b9fd8" points="212.1995,235.7869 226.1995,207.7869 240.1995,235.7869" stroke-width="0" transform=" rotate(0, 226, 221)"/>
  <ellipse cx="268.5453" cy="224.4994" fill="#1b9fd8" rx="14.0" ry="14.0" stroke-width="0" transform=" rotate(0, 268, 224)"/>
  <rect fill="#6dd6ff" height="20" stroke-width="0" transform=" rotate(0, 61, 261)" width="20" x="51.219" y="251.6778"/>
  <polygon fill="#6dd6ff" points="93.9134,277.4035 103.9134,257.4035 113.9134,277.4035" stroke-width="0" transform=" rotate(0, 103, 267)"/>
  <ellipse cx="146.2862" cy="265.504" fill="#6dd6ff" rx="10.0" ry="10.0" stroke-width="0" transform=" rotate(0, 146, 265)"/>
  <rect fill="#6dd6ff" height="20" stroke-width="0" transform=" rotate(0, 184, 263)" width="20" x="174.5174" y="253.8047"/>
  <polygon fill="#6dd6ff" points="218.5198,278.0343 228.5198,258.0343 238.5198,278.0343" stroke-width="0" transform=" rotate(0, 228, 268)"/>
  <ellipse cx="266.4247" cy="264.0586" fill="#6dd6ff" rx="10.0" ry="10.0" stroke-width="0" transform=" rotate(0, 266, 264)"/>
</svg>
