<?xml version="1.0" encoding="utf-8" ?>
<svg baseProfile="tiny" height="330" version="1.2" width="330" xmlns="http://www.w3.org/2000/svg" xmlns:ev="http://www.w3.org/2001/xml-events" xmlns:xlink="http://www.w3.org/1999/xlink">
  <defs/>
  <rect fill="white" height="330" width="330" x="0" y="0"/>
  <rect fill="#6dd6ff" height="5" stroke-width="0" transform=" rotate(0, 49, 50)" width="5" x="46.6986" y="48.0256"/>
  <polygon fill="#6dd6ff" points="57.3854,52.4033 59.8854,47.4033 62.3854,52.4033" stroke-width="0" transform=" rotate(0, 59, 49)"/>
  <ellipse cx="70.4223" cy="49.7936" fill="#6dd6ff" rx="2.5" ry="2.5" stroke-width="0" transform=" rotate(0, 70, 49)"/>
  <rect fill="#6dd6ff" height="5" stroke-width="0" transform=" rotate(0, 79, 50)" width="5" x="76.6282" y="48.337"/>
  <polygon fill="#6dd6ff" points="88.2763,53.1569 90.7763,48.1569 93.2763,53.1569" stroke-width="0" transform=" rotate(0, 90, 50)"/>
  <ellipse cx="100.4216" cy="48.9814" fill="#6dd6ff" rx="2.5" ry="2.5" stroke-width="0" transform=" rotate(0, 100, 48)"/>
  <rect fill="#6dd6ff" height="5" stroke-width="0" transform=" rotate(0, 110, 50)" width="5" x="107.523" y="48.1811"/>
  <polygon fill="#6dd6ff" points="116.6439,53.3842 119.1439,48.3842 121.6439,53.3842" stroke-width="0" transform=" rotate(0, 119, 50)"/>
  <ellipse cx="130.6727" cy="50.673" fill="#6dd6ff" rx="2.5" ry="2.5" stroke-width="0" transform=" rotate(0, 130, 50)"/>
  <rect fill="#6dd6ff" height="5" stroke-width="0" transform=" rotate(0, 139, 50)" width="5" x="137.2617" y="48.4087"/>
  <polygon fill="#6dd6ff" points="146.8734,53.3749 149.3734,48.3749 151.8734,53.3749" stroke-width="0" transform=" rotate(0, 149, 50)"/>
  <ellipse cx="160.1878" cy="49.1592" fill="#6dd6ff" rx="2.5" ry="2.5" stroke-width="0" transform=" rotate(0, 160, 49)"/>
  <rect fill="#6dd6ff" height="5" stroke-width="0" transform=" rotate(0, 170, 49)" width="5" x="168.4113" y="47.1205"/>
  <polygon fill="#6dd6ff" points="176.8107,52.3711 179.3107,47.3711 181.8107,52.3711" stroke-width="0" transform=" rotate(0, 179, 49)"/>
  <ellipse cx="190.1265" cy="49.4235" fill="#6dd6ff" rx="2.5" ry="2.5" stroke-width="0" transform=" rotate(0, 190, 49)"/>
  <rect fill="#6dd6ff" height="5" stroke-width="0" transform=" rotate(0, 200, 50)" width="5" x="197.8743" y="47.7236"/>
  <polygon fill="#6dd6ff" points="206.7864,52.6824 209.2864,47.6824 211.7864,52.6824" stroke-width="0" transform=" rotate(0, 209, 50)"/>
  <ellipse cx="220.0279" cy="49.1517" fill="#6dd6ff" rx="2.5" ry="2.5" stroke-width="0" transform=" rotate(0, 220, 49)"/>
  <rect fill="#6dd6ff" height="5" stroke-width="0" transform=" rotate(0, 230, 50)" width="5" x="227.846" y="48.3895"/>
  <polygon fill="#6dd6ff" points="237.4285,51.5087 239.9285,46.5087 242.4285,51.5087" stroke-width="0" transform=" rotate(0, 239, 49)"/>
  <ellipse cx="249.3123" cy="50.4485" fill="#6dd6ff" rx="2.5" ry="2.5" stroke-width="0" transform=" rotate(0, 249, 50)"/>
  <rect fill="#6dd6ff" height="5" stroke-width="0" transform=" rotate(0, 260, 49)" width="5" x="257.8104" y="46.8318"/>
  <polygon fill="#6dd6ff" points="267.3677,52.1132 269.8677,47.1132 272.3677,52.1132" stroke-width="0" transform=" rotate(0, 269, 49)"/>
  <ellipse cx="280.7763" cy="49.9245" fill="#6dd6ff" rx="2.5" ry="2.5" stroke-width="0" transform=" rotate(0, 280, 49)"/>
  <rect fill="#1b9fd8" height="7" stroke-width="0" transform=" rotate(0, 49, 60)" width="7" x="46.3829" y="56.788"/>
  <polygon fill="#1b9fd8" points="56.7161,62.8209 60.2161,55.8209 63.7161,62.8209" stroke-width="0" transform=" rotate(0, 60, 59)"/>
  <ellipse cx="70.5497" cy="61.0401" fill="#1b9fd8" rx="3.5" ry="3.5" stroke-width="0" transform=" rotate(0, 70, 61)"/>
  <rect fill="#1b9fd8" height="7" stroke-width="0" transform=" rotate(0, 79, 60)" width="7" x="75.8476" y="56.9382"/>
  <polygon fill="#1b9fd8" points="86.9747,62.5989 90.4747,55.5989 93.9747,62.5989" stroke-width="0" transform=" rotate(0, 90, 59)"/>
  <ellipse cx="101.2957" cy="60.5324" fill="#1b9fd8" rx="3.5" ry="3.5" stroke-width="0" transform=" rotate(0, 101, 60)"/>
  <rect fill="#1b9fd8" height="7" stroke-width="0" transform=" rotate(0, 108, 60)" width="7" x="105.2315" y="57.1169"/>
  <polygon fill="#1b9fd8" points="116.1746,64.5051 119.6746,57.5051 123.1746,64.5051" stroke-width="0" transform=" rotate(0, 119, 61)"/>
  <ellipse cx="130.505" cy="59.4572" fill="#1b9fd8" rx="3.5" ry="3.5" stroke-width="0" transform=" rotate(0, 130, 59)"/>
  <rect fill="#1b9fd8" height="7" stroke-width="0" transform=" rotate(0, 139, 59)" width="7" x="136.386" y="55.7461"/>
  <polygon fill="#1b9fd8" points="147.7868,64.1999 151.2868,57.1999 154.7868,64.1999" stroke-width="0" transform=" rotate(0, 151, 60)"/>
  <ellipse cx="160.5535" cy="59.2737" fill="#1b9fd8" rx="3.5" ry="3.5" stroke-width="0" transform=" rotate(0, 160, 59)"/>
  <rect fill="#1b9fd8" height="7" stroke-width="0" transform=" rotate(0, 169, 60)" width="7" x="166.4888" y="57.3742"/>
  <polygon fill="#1b9fd8" points="177.711,64.2445 181.211,57.2445 184.711,64.2445" stroke-width="0" transform=" rotate(0, 181, 60)"/>
  <ellipse cx="190.444" cy="59.8797" fill="#1b9fd8" rx="3.5" ry="3.5" stroke-width="0" transform=" rotate(0, 190, 59)"/>
  <rect fill="#1b9fd8" height="7" stroke-width="0" transform=" rotate(0, 200, 61)" width="7" x="196.8454" y="57.8145"/>
  <polygon fill="#1b9fd8" points="206.7323,63.4368 210.2323,56.4368 213.7323,63.4368" stroke-width="0" transform=" rotate(0, 210, 59)"/>
  <ellipse cx="220.3254" cy="61.1125" fill="#1b9fd8" rx="3.5" ry="3.5" stroke-width="0" transform=" rotate(0, 220, 61)"/>
  <rect fill="#1b9fd8" height="7" stroke-width="0" transform=" rotate(0, 230, 60)" width="7" x="226.918" y="56.6613"/>
  <polygon fill="#1b9fd8" points="237.8328,63.3561 241.3328,56.3561 244.8328,63.3561" stroke-width="0" transform=" rotate(0, 241, 59)"/>
  <ellipse cx="249.5406" cy="59.2437" fill="#1b9fd8" rx="3.5" ry="3.5" stroke-width="0" transform=" rotate(0, 249, 59)"/>
  <rect fill="#1b9fd8" height="7" stroke-width="0" transform=" rotate(0, 261, 58)" width="7" x="257.7185" y="55.1742"/>
  <polygon fill="#1b9fd8" points="266.1389,62.9678 269.6389,55.9678 273.1389,62.9678" stroke-width="0" transform=" rotate(0, 269, 59)"/>
  <ellipse cx="279.3317" cy="60.1475" fill="#1b9fd8" rx="3.5" ry="3.5" stroke-width="0" transform=" rotate(0, 279, 60)"/>
  <rect fill="#006ca1" height="9" stroke-width="0" transform=" rotate(0, 48, 68)" width="9" x="43.9502" y="63.7195"/>
  <polygon fill="#006ca1" points="57.0843,75.8753 61.5843,66.8753 66.0843,75.8753" stroke-width="0" transform=" rotate(0, 61, 71)"/>
  <ellipse cx="68.6807" cy="70.5463" fill="#006ca1" rx="4.5" ry="4.5" stroke-width="0" transform=" rotate(0, 68, 70)"/>
  <rect fill="#006ca1" height="9" stroke-width="0" transform=" rotate(0, 79, 70)" width="9" x="75.0805" y="66.0685"/>
  <polygon fill="#006ca1" points="86.9523,75.6554 91.4523,66.6554 95.9523,75.6554" stroke-width="0" transform=" rotate(0, 91, 71)"/>
  <ellipse cx="100.8699" cy="71.1472" fill="#006ca1" rx="4.5" ry="4.5" stroke-width="0" transform=" rotate(0, 100, 71)"/>
  <rect fill="#006ca1" height="9" stroke-width="0" transform=" rotate(0, 109, 68)" width="9" x="104.628" y="64.4378"/>
  <polygon fill="#006ca1" points="114.9862,72.9469 119.4862,63.9469 123.9862,72.9469" stroke-width="0" transform=" rotate(0, 119, 68)"/>
  <ellipse cx="129.7721" cy="71.3484" fill="#006ca1" rx="4.5" ry="4.5" stroke-width="0" transform=" rotate(0, 129, 71)"/>
  <rect fill="#006ca1" height="9" stroke-width="0" transform=" rotate(0, 139, 70)" width="9" x="134.8032" y="66.0066"/>
  <polygon fill="#006ca1" points="145.1334,72.7206 149.6334,63.7206 154.1334,72.7206" stroke-width="0" transform=" rotate(0, 149, 68)"/>
  <ellipse cx="159.1377" cy="68.9044" fill="#006ca1" rx="4.5" ry="4.5" stroke-width="0" transform=" rotate(0, 159, 68)"/>
  <rect fill="#006ca1" height="9" stroke-width="0" transform=" rotate(0, 168, 69)" width="9" x="163.985" y="65.2703"/>
  <polygon fill="#006ca1" points="176.8455,75.4025 181.3455,66.4025 185.8455,75.4025" stroke-width="0" transform=" rotate(0, 181, 70)"/>
  <ellipse cx="188.2928" cy="69.5559" fill="#006ca1" rx="4.5" ry="4.5" stroke-width="0" transform=" rotate(0, 188, 69)"/>
  <rect fill="#006ca1" height="9" stroke-width="0" transform=" rotate(0, 200, 70)" width="9" x="196.0655" y="65.5519"/>
  <polygon fill="#006ca1" points="204.0381,74.0245 208.5381,65.0245 213.0381,74.0245" stroke-width="0" transform=" rotate(0, 208, 69)"/>
  <ellipse cx="219.7587" cy="69.1875" fill="#006ca1" rx="4.5" ry="4.5" stroke-width="0" transform=" rotate(0, 219, 69)"/>
  <rect fill="#006ca1" height="9" stroke-width="0" transform=" rotate(0, 228, 69)" width="9" x="223.989" y="65.3269"/>
  <polygon fill="#006ca1" points="236.5656,73.8703 241.0656,64.8703 245.5656,73.8703" stroke-width="0" transform=" rotate(0, 241, 69)"/>
  <ellipse cx="250.2108" cy="68.708" fill="#006ca1" rx="4.5" ry="4.5" stroke-width="0" transform=" rotate(0, 250, 68)"/>
  <rect fill="#006ca1" height="9" stroke-width="0" transform=" rotate(0, 259, 70)" width="9" x="254.9461" y="65.8575"/>
  <polygon fill="#006ca1" points="266.8494,75.9377 271.3494,66.9377 275.8494,75.9377" stroke-width="0" transform=" rotate(0, 271, 71)"/>
  <ellipse cx="279.5603" cy="71.4677" fill="#006ca1" rx="4.5" ry="4.5" stroke-width="0" transform=" rotate(0, 279, 71)"/>
  <rect fill="#6dd6ff" height="5" stroke-width="0" transform=" rotate(0, 49, 80)" width="5" x="46.8597" y="78.0589"/>
  <polygon fill="#6dd6ff" points="57.4507,82.5739 59.9507,77.5739 62.4507,82.5739" stroke-width="0" transform=" rotate(0, 59, 80)"/>
  <ellipse cx="70.2811" cy="80.213" fill="#6dd6ff" rx="2.5" ry="2.5" stroke-width="0" transform=" rotate(0, 70, 80)"/>
  <rect fill="#6dd6ff" height="5" stroke-width="0" transform=" rotate(0, 79, 79)" width="5" x="76.8341" y="77.4929"/>
  <polygon fill="#6dd6ff" points="87.264,83.2482 89.764,78.2482 92.264,83.2482" stroke-width="0" transform=" rotate(0, 89, 80)"/>
  <ellipse cx="99.3514" cy="79.017" fill="#6dd6ff" rx="2.5" ry="2.5" stroke-width="0" transform=" rotate(0, 99, 79)"/>
  <rect fill="#6dd6ff" height="5" stroke-width="0" transform=" rotate(0, 109, 80)" width="5" x="106.8161" y="77.6003"/>
  <polygon fill="#6dd6ff" points="117.7188,83.3715 120.2188,78.3715 122.7188,83.3715" stroke-width="0" transform=" rotate(0, 120, 80)"/>
  <ellipse cx="130.3901" cy="80.4664" fill="#6dd6ff" rx="2.5" ry="2.5" stroke-width="0" transform=" rotate(0, 130, 80)"/>
  <rect fill="#6dd6ff" height="5" stroke-width="0" transform=" rotate(0, 139, 79)" width="5" x="136.5077" y="76.7857"/>
  <polygon fill="#6dd6ff" points="146.9888,81.9627 149.4888,76.9627 151.9888,81.9627" stroke-width="0" transform=" rotate(0, 149, 79)"/>
  <ellipse cx="159.2002" cy="79.8045" fill="#6dd6ff" rx="2.5" ry="2.5" stroke-width="0" transform=" rotate(0, 159, 79)"/>
  <rect fill="#6dd6ff" height="5" stroke-width="0" transform=" rotate(0, 170, 79)" width="5" x="168.0563" y="76.7848"/>
  <polygon fill="#6dd6ff" points="178.4745,82.388 180.9745,77.388 183.4745,82.388" stroke-width="0" transform=" rotate(0, 180, 79)"/>
  <ellipse cx="189.265" cy="80.5177" fill="#6dd6ff" rx="2.5" ry="2.5" stroke-width="0" transform=" rotate(0, 189, 80)"/>
  <rect fill="#6dd6ff" height="5" stroke-width="0" transform=" rotate(0, 200, 80)" width="5" x="197.7792" y="78.2568"/>
  <polygon fill="#6dd6ff" points="208.086,81.5158 210.586,76.5158 213.086,81.5158" stroke-width="0" transform=" rotate(0, 210, 79)"/>
  <ellipse cx="219.1765" cy="80.0565" fill="#6dd6ff" rx="2.5" ry="2.5" stroke-width="0" transform=" rotate(0, 219, 80)"/>
  <rect fill="#6dd6ff" height="5" stroke-width="0" transform=" rotate(0, 229, 80)" width="5" x="227.196" y="78.1649"/>
  <polygon fill="#6dd6ff" points="237.2192,81.4903 239.7192,76.4903 242.2192,81.4903" stroke-width="0" transform=" rotate(0, 239, 78)"/>
  <ellipse cx="249.2508" cy="80.8698" fill="#6dd6ff" rx="2.5" ry="2.5" stroke-width="0" transform=" rotate(0, 249, 80)"/>
  <rect fill="#6dd6ff" height="5" stroke-width="0" transform=" rotate(0, 259, 80)" width="5" x="256.5997" y="78.1459"/>
  <polygon fill="#6dd6ff" points="266.8743,82.5176 269.3743,77.5176 271.8743,82.5176" stroke-width="0" transform=" rotate(0, 269, 80)"/>
  <ellipse cx="279.7206" cy="79.7967" fill="#6dd6ff" rx="2.5" ry="2.5" stroke-width="0" transform=" rotate(0, 279, 79)"/>
  <rect fill="#1b9fd8" height="7" stroke-width="0" transform=" rotate(0, 49, 88)" width="7" x="46.1593" y="85.418"/>
  <polygon fill="#1b9fd8" points="55.6985,94.8652 59.1985,87.8652 62.6985,94.8652" stroke-width="0" transform=" rotate(0, 59, 91)"/>
  <ellipse cx="70.5364" cy="89.5433" fill="#1b9fd8" rx="3.5" ry="3.5" stroke-width="0" transform=" rotate(0, 70, 89)"/>
  <rect fill="#1b9fd8" height="7" stroke-width="0" transform=" rotate(0, 79, 89)" width="7" x="76.0866" y="86.3689"/>
  <polygon fill="#1b9fd8" points="87.7972,93.6218 91.2972,86.6218 94.7972,93.6218" stroke-width="0" transform=" rotate(0, 91, 90)"/>
  <ellipse cx="100.216" cy="89.9717" fill="#1b9fd8" rx="3.5" ry="3.5" stroke-width="0" transform=" rotate(0, 100, 89)"/>
  <rect fill="#1b9fd8" height="7" stroke-width="0" transform=" rotate(0, 111, 91)" width="7" x="107.5482" y="87.8027"/>
  <polygon fill="#1b9fd8" points="115.4459,92.212 118.9459,85.212 122.4459,92.212" stroke-width="0" transform=" rotate(0, 118, 88)"/>
  <ellipse cx="129.6059" cy="89.2135" fill="#1b9fd8" rx="3.5" ry="3.5" stroke-width="0" transform=" rotate(0, 129, 89)"/>
  <rect fill="#1b9fd8" height="7" stroke-width="0" transform=" rotate(0, 141, 91)" width="7" x="137.6155" y="87.6883"/>
  <polygon fill="#1b9fd8" points="146.1177,93.299 149.6177,86.299 153.1177,93.299" stroke-width="0" transform=" rotate(0, 149, 89)"/>
  <ellipse cx="158.8851" cy="90.9205" fill="#1b9fd8" rx="3.5" ry="3.5" stroke-width="0" transform=" rotate(0, 158, 90)"/>
  <rect fill="#1b9fd8" height="7" stroke-width="0" transform=" rotate(0, 169, 89)" width="7" x="166.1103" y="86.1037"/>
  <polygon fill="#1b9fd8" points="176.9067,94.2452 180.4067,87.2452 183.9067,94.2452" stroke-width="0" transform=" rotate(0, 180, 90)"/>
  <ellipse cx="189.6792" cy="89.8084" fill="#1b9fd8" rx="3.5" ry="3.5" stroke-width="0" transform=" rotate(0, 189, 89)"/>
  <rect fill="#1b9fd8" height="7" stroke-width="0" transform=" rotate(0, 201, 89)" width="7" x="197.7081" y="85.7076"/>
  <polygon fill="#1b9fd8" points="205.6353,94.7531 209.1353,87.7531 212.6353,94.7531" stroke-width="0" transform=" rotate(0, 209, 91)"/>
  <ellipse cx="219.2654" cy="88.9405" fill="#1b9fd8" rx="3.5" ry="3.5" stroke-width="0" transform=" rotate(0, 219, 88)"/>
  <rect fill="#1b9fd8" height="7" stroke-width="0" transform=" rotate(0, 231, 88)" width="7" x="227.8051" y="85.4712"/>
  <polygon fill="#1b9fd8" points="235.8337,93.5416 239.3337,86.5416 242.8337,93.5416" stroke-width="0" transform=" rotate(0, 239, 90)"/>
  <ellipse cx="250.8636" cy="89.374" fill="#1b9fd8" rx="3.5" ry="3.5" stroke-width="0" transform=" rotate(0, 250, 89)"/>
  <rect fill="#1b9fd8" height="7" stroke-width="0" transform=" rotate(0, 258, 89)" width="7" x="255.3429" y="86.3646"/>
  <polygon fill="#1b9fd8" points="265.3855,93.6428 268.8855,86.6428 272.3855,93.6428" stroke-width="0" transform=" rotate(0, 268, 90)"/>
  <ellipse cx="279.422" cy="89.8381" fill="#1b9fd8" rx="3.5" ry="3.5" stroke-width="0" transform=" rotate(0, 279, 89)"/>
  <rect fill="#006ca1" height="9" stroke-width="0" transform=" rotate(0, 51, 101)" width="9" x="46.8388" y="96.985"/>
  <polygon fill="#006ca1" points="56.9231,104.2187 61.4231,95.2187 65.9231,104.2187" stroke-width="0" transform=" rotate(0, 61, 99)"/>
  <ellipse cx="71.3226" cy="100.1397" fill="#006ca1" rx="4.5" ry="4.5" stroke-width="0" transform=" rotate(0, 71, 100)"/>
  <rect fill="#006ca1" height="9" stroke-width="0" transform=" rotate(0, 81, 98)" width="9" x="76.9055" y="93.8269"/>
  <polygon fill="#006ca1" points="83.9836,103.3318 88.4836,94.3318 92.9836,103.3318" stroke-width="0" transform=" rotate(0, 88, 98)"/>
  <ellipse cx="99.527" cy="100.668" fill="#006ca1" rx="4.5" ry="4.5" stroke-width="0" transform=" rotate(0, 99, 100)"/>
  <rect fill="#006ca1" height="9" stroke-width="0" transform=" rotate(0, 110, 101)" width="9" x="106.1299" y="97.0764"/>
  <polygon fill="#006ca1" points="116.4659,103.2756 120.9659,94.2756 125.4659,103.2756" stroke-width="0" transform=" rotate(0, 120, 98)"/>
  <ellipse cx="130.9061" cy="100.4725" fill="#006ca1" rx="4.5" ry="4.5" stroke-width="0" transform=" rotate(0, 130, 100)"/>
  <rect fill="#006ca1" height="9" stroke-width="0" transform=" rotate(0, 139, 98)" width="9" x="135.3069" y="94.4538"/>
  <polygon fill="#006ca1" points="146.345,105.9915 150.845,96.9915 155.345,105.9915" stroke-width="0" transform=" rotate(0, 150, 101)"/>
  <ellipse cx="160.8493" cy="100.2257" fill="#006ca1" rx="4.5" ry="4.5" stroke-width="0" transform=" rotate(0, 160, 100)"/>
  <rect fill="#006ca1" height="9" stroke-width="0" transform=" rotate(0, 171, 101)" width="9" x="167.0183" y="96.8173"/>
  <polygon fill="#006ca1" points="173.7815,104.8214 178.2815,95.8214 182.7815,104.8214" stroke-width="0" transform=" rotate(0, 178, 100)"/>
  <ellipse cx="190.9592" cy="100.6612" fill="#006ca1" rx="4.5" ry="4.5" stroke-width="0" transform=" rotate(0, 190, 100)"/>
  <rect fill="#006ca1" height="9" stroke-width="0" transform=" rotate(0, 200, 99)" width="9" x="196.2796" y="94.6793"/>
  <polygon fill="#006ca1" points="205.996,103.3424 210.496,94.3424 214.996,103.3424" stroke-width="0" transform=" rotate(0, 210, 98)"/>
  <ellipse cx="220.3234" cy="99.3549" fill="#006ca1" rx="4.5" ry="4.5" stroke-width="0" transform=" rotate(0, 220, 99)"/>
  <rect fill="#006ca1" height="9" stroke-width="0" transform=" rotate(0, 228, 101)" width="9" x="224.47" y="96.7324"/>
  <polygon fill="#006ca1" points="236.6285,103.4112 241.1285,94.4112 245.6285,103.4112" stroke-width="0" transform=" rotate(0, 241, 98)"/>
  <ellipse cx="250.8754" cy="100.2857" fill="#006ca1" rx="4.5" ry="4.5" stroke-width="0" transform=" rotate(0, 250, 100)"/>
  <rect fill="#006ca1" height="9" stroke-width="0" transform=" rotate(0, 258, 99)" width="9" x="254.3463" y="95.1545"/>
  <polygon fill="#006ca1" points="264.0623,104.8854 268.5623,95.8854 273.0623,104.8854" stroke-width="0" transform=" rotate(0, 268, 100)"/>
  <ellipse cx="281.4819" cy="98.875" fill="#006ca1" rx="4.5" ry="4.5" stroke-width="0" transform=" rotate(0, 281, 98)"/>
  <rect fill="#6dd6ff" height="5" stroke-width="0" transform=" rotate(0, 49, 110)" width="5" x="46.9362" y="108.1241"/>
  <polygon fill="#6dd6ff" points="56.6653,112.1353 59.1653,107.1353 61.6653,112.1353" stroke-width="0" transform=" rotate(0, 59, 109)"/>
  <ellipse cx="69.0029" cy="110.4926" fill="#6dd6ff" rx="2.5" ry="2.5" stroke-width="0" transform=" rotate(0, 69, 110)"/>
  <rect fill="#6dd6ff" height="5" stroke-width="0" transform=" rotate(0, 80, 110)" width="5" x="77.7847" y="107.6462"/>
  <polygon fill="#6dd6ff" points="86.5897,112.2792 89.0897,107.2792 91.5897,112.2792" stroke-width="0" transform=" rotate(0, 89, 109)"/>
  <ellipse cx="99.3769" cy="110.7406" fill="#6dd6ff" rx="2.5" ry="2.5" stroke-width="0" transform=" rotate(0, 99, 110)"/>
  <rect fill="#6dd6ff" height="5" stroke-width="0" transform=" rotate(0, 110, 110)" width="5" x="107.9443" y="107.9948"/>
  <polygon fill="#6dd6ff" points="117.826,112.5125 120.326,107.5125 122.826,112.5125" stroke-width="0" transform=" rotate(0, 120, 110)"/>
  <ellipse cx="130.3092" cy="109.4947" fill="#6dd6ff" rx="2.5" ry="2.5" stroke-width="0" transform=" rotate(0, 130, 109)"/>
  <rect fill="#6dd6ff" height="5" stroke-width="0" transform=" rotate(0, 140, 109)" width="5" x="138.3916" y="106.6009"/>
  <polygon fill="#6dd6ff" points="147.768,112.8504 150.268,107.8504 152.768,112.8504" stroke-width="0" transform=" rotate(0, 150, 110)"/>
  <ellipse cx="160.4032" cy="109.9322" fill="#6dd6ff" rx="2.5" ry="2.5" stroke-width="0" transform=" rotate(0, 160, 109)"/>
  <rect fill="#6dd6ff" height="5" stroke-width="0" transform=" rotate(0, 169, 110)" width="5" x="167.3137" y="107.5099"/>
  <polygon fill="#6dd6ff" points="178.0446,113.4459 180.5446,108.4459 183.0446,113.4459" stroke-width="0" transform=" rotate(0, 180, 110)"/>
  <ellipse cx="189.5969" cy="110.3506" fill="#6dd6ff" rx="2.5" ry="2.5" stroke-width="0" transform=" rotate(0, 189, 110)"/>
  <rect fill="#6dd6ff" height="5" stroke-width="0" transform=" rotate(0, 200, 109)" width="5" x="198.379" y="106.8903"/>
  <polygon fill="#6dd6ff" points="207.5128,113.3229 210.0128,108.3229 212.5128,113.3229" stroke-width="0" transform=" rotate(0, 210, 110)"/>
  <ellipse cx="219.6044" cy="110.0393" fill="#6dd6ff" rx="2.5" ry="2.5" stroke-width="0" transform=" rotate(0, 219, 110)"/>
  <rect fill="#6dd6ff" height="5" stroke-width="0" transform=" rotate(0, 230, 110)" width="5" x="228.3136" y="108.0455"/>
  <polygon fill="#6dd6ff" points="238.3551,111.518 240.8551,106.518 243.3551,111.518" stroke-width="0" transform=" rotate(0, 240, 109)"/>
  <ellipse cx="250.7962" cy="109.7488" fill="#6dd6ff" rx="2.5" ry="2.5" stroke-width="0" transform=" rotate(0, 250, 109)"/>
  <rect fill="#6dd6ff" height="5" stroke-width="0" transform=" rotate(0, 259, 109)" width="5" x="256.7984" y="106.7571"/>
  <polygon fill="#6dd6ff" points="267.3123,112.0995 269.8123,107.0995 272.3123,112.0995" stroke-width="0" transform=" rotate(0, 269, 109)"/>
  <ellipse cx="280.4856" cy="109.8689" fill="#6dd6ff" rx="2.5" ry="2.5" stroke-width="0" transform=" rotate(0, 280, 109)"/>
  <rect fill="#1b9fd8" height="7" stroke-width="0" transform=" rotate(0, 50, 121)" width="7" x="46.8821" y="117.6541"/>
  <polygon fill="#1b9fd8" points="56.4603,124.5115 59.9603,117.5115 63.4603,124.5115" stroke-width="0" transform=" rotate(0, 59, 121)"/>
  <ellipse cx="71.097" cy="119.8407" fill="#1b9fd8" rx="3.5" ry="3.5" stroke-width="0" transform=" rotate(0, 71, 119)"/>
  <rect fill="#1b9fd8" height="7" stroke-width="0" transform=" rotate(0, 79, 119)" width="7" x="75.6445" y="115.5027"/>
  <polygon fill="#1b9fd8" points="86.1341,124.5459 89.6341,117.5459 93.1341,124.5459" stroke-width="0" transform=" rotate(0, 89, 121)"/>
  <ellipse cx="100.9563" cy="119.8223" fill="#1b9fd8" rx="3.5" ry="3.5" stroke-width="0" transform=" rotate(0, 100, 119)"/>
  <rect fill="#1b9fd8" height="7" stroke-width="0" transform=" rotate(0, 110, 121)" width="7" x="107.0197" y="117.6348"/>
  <polygon fill="#1b9fd8" points="117.801,123.201 121.301,116.201 124.801,123.201" stroke-width="0" transform=" rotate(0, 121, 119)"/>
  <ellipse cx="130.2764" cy="118.83" fill="#1b9fd8" rx="3.5" ry="3.5" stroke-width="0" transform=" rotate(0, 130, 118)"/>
  <rect fill="#1b9fd8" height="7" stroke-width="0" transform=" rotate(0, 140, 119)" width="7" x="136.7138" y="116.2101"/>
  <polygon fill="#1b9fd8" points="146.3918,123.5616 149.8918,116.5616 153.3918,123.5616" stroke-width="0" transform=" rotate(0, 149, 120)"/>
  <ellipse cx="160.7305" cy="121.1511" fill="#1b9fd8" rx="3.5" ry="3.5" stroke-width="0" transform=" rotate(0, 160, 121)"/>
  <rect fill="#1b9fd8" height="7" stroke-width="0" transform=" rotate(0, 168, 120)" width="7" x="165.1277" y="116.9176"/>
  <polygon fill="#1b9fd8" points="175.6167,122.1921 179.1167,115.1921 182.6167,122.1921" stroke-width="0" transform=" rotate(0, 179, 118)"/>
  <ellipse cx="189.231" cy="121.3229" fill="#1b9fd8" rx="3.5" ry="3.5" stroke-width="0" transform=" rotate(0, 189, 121)"/>
  <rect fill="#1b9fd8" height="7" stroke-width="0" transform=" rotate(0, 200, 119)" width="7" x="196.5439" y="116.3574"/>
  <polygon fill="#1b9fd8" points="207.8257,122.4859 211.3257,115.4859 214.8257,122.4859" stroke-width="0" transform=" rotate(0, 211, 118)"/>
  <ellipse cx="219.6258" cy="119.5449" fill="#1b9fd8" rx="3.5" ry="3.5" stroke-width="0" transform=" rotate(0, 219, 119)"/>
  <rect fill="#1b9fd8" height="7" stroke-width="0" transform=" rotate(0, 230, 120)" width="7" x="227.1785" y="117.308"/>
  <polygon fill="#1b9fd8" points="236.691,124.6326 240.191,117.6326 243.691,124.6326" stroke-width="0" transform=" rotate(0, 240, 121)"/>
  <ellipse cx="251.2445" cy="119.8279" fill="#1b9fd8" rx="3.5" ry="3.5" stroke-width="0" transform=" rotate(0, 251, 119)"/>
  <rect fill="#1b9fd8" height="7" stroke-width="0" transform=" rotate(0, 260, 119)" width="7" x="257.1101" y="115.8958"/>
  <polygon fill="#1b9fd8" points="267.7597,124.6967 271.2597,117.6967 274.7597,124.6967" stroke-width="0" transform=" rotate(0, 271, 121)"/>
  <ellipse cx="281.2905" cy="119.6501" fill="#1b9fd8" rx="3.5" ry="3.5" stroke-width="0" transform=" rotate(0, 281, 119)"/>
  <rect fill="#006ca1" height="9" stroke-width="0" transform=" rotate(0, 49, 130)" width="9" x="45.0725" y="126.0451"/>
  <polygon fill="#006ca1" points="56.2748,135.4896 60.7748,126.4896 65.2748,135.4896" stroke-width="0" transform=" rotate(0, 60, 130)"/>
  <ellipse cx="70.0627" cy="131.2309" fill="#006ca1" rx="4.5" ry="4.5" stroke-width="0" transform=" rotate(0, 70, 131)"/>
  <rect fill="#006ca1" height="9" stroke-width="0" transform=" rotate(0, 80, 131)" width="9" x="75.6318" y="126.7732"/>
  <polygon fill="#006ca1" points="87.2376,133.3783 91.7376,124.3783 96.2376,133.3783" stroke-width="0" transform=" rotate(0, 91, 128)"/>
  <ellipse cx="100.2258" cy="129.0849" fill="#006ca1" rx="4.5" ry="4.5" stroke-width="0" transform=" rotate(0, 100, 129)"/>
  <rect fill="#006ca1" height="9" stroke-width="0" transform=" rotate(0, 110, 130)" width="9" x="106.4749" y="125.6816"/>
  <polygon fill="#006ca1" points="115.4082,135.1078 119.9082,126.1078 124.4082,135.1078" stroke-width="0" transform=" rotate(0, 119, 130)"/>
  <ellipse cx="130.2904" cy="130.0585" fill="#006ca1" rx="4.5" ry="4.5" stroke-width="0" transform=" rotate(0, 130, 130)"/>
  <rect fill="#006ca1" height="9" stroke-width="0" transform=" rotate(0, 139, 130)" width="9" x="134.9597" y="126.3014"/>
  <polygon fill="#006ca1" points="145.4563,134.9403 149.9563,125.9403 154.4563,134.9403" stroke-width="0" transform=" rotate(0, 149, 130)"/>
  <ellipse cx="158.9435" cy="130.4582" fill="#006ca1" rx="4.5" ry="4.5" stroke-width="0" transform=" rotate(0, 158, 130)"/>
  <rect fill="#006ca1" height="9" stroke-width="0" transform=" rotate(0, 169, 130)" width="9" x="165.1627" y="126.0131"/>
  <polygon fill="#006ca1" points="176.3506,134.2657 180.8506,125.2657 185.3506,134.2657" stroke-width="0" transform=" rotate(0, 180, 129)"/>
  <ellipse cx="190.9827" cy="130.6173" fill="#006ca1" rx="4.5" ry="4.5" stroke-width="0" transform=" rotate(0, 190, 130)"/>
  <rect fill="#006ca1" height="9" stroke-width="0" transform=" rotate(0, 198, 131)" width="9" x="194.2773" y="127.2717"/>
  <polygon fill="#006ca1" points="204.8207,134.3858 209.3207,125.3858 213.8207,134.3858" stroke-width="0" transform=" rotate(0, 209, 129)"/>
  <ellipse cx="220.5292" cy="130.9506" fill="#006ca1" rx="4.5" ry="4.5" stroke-width="0" transform=" rotate(0, 220, 130)"/>
  <rect fill="#006ca1" height="9" stroke-width="0" transform=" rotate(0, 231, 131)" width="9" x="227.094" y="126.8279"/>
  <polygon fill="#006ca1" points="234.451,134.1244 238.951,125.1244 243.451,134.1244" stroke-width="0" transform=" rotate(0, 238, 129)"/>
  <ellipse cx="251.3709" cy="128.6254" fill="#006ca1" rx="4.5" ry="4.5" stroke-width="0" transform=" rotate(0, 251, 128)"/>
  <rect fill="#006ca1" height="9" stroke-width="0" transform=" rotate(0, 259, 130)" width="9" x="254.8188" y="125.7432"/>
  <polygon fill="#006ca1" points="265.8623,132.7637 270.3623,123.7637 274.8623,132.7637" stroke-width="0" transform=" rotate(0, 270, 128)"/>
  <ellipse cx="278.7145" cy="131.2673" fill="#006ca1" rx="4.5" ry="4.5" stroke-width="0" transform=" rotate(0, 278, 131)"/>
  <rect fill="#6dd6ff" height="5" stroke-width="0" transform=" rotate(0, 49, 140)" width="5" x="46.7482" y="138.2105"/>
  <polygon fill="#6dd6ff" points="57.5972,142.7717 60.0972,137.7717 62.5972,142.7717" stroke-width="0" transform=" rotate(0, 60, 140)"/>
  <ellipse cx="70.614" cy="140.0197" fill="#6dd6ff" rx="2.5" ry="2.5" stroke-width="0" transform=" rotate(0, 70, 140)"/>
  <rect fill="#6dd6ff" height="5" stroke-width="0" transform=" rotate(0, 80, 140)" width="5" x="77.6046" y="138.2937"/>
  <polygon fill="#6dd6ff" points="86.9545,141.8014 89.4545,136.8014 91.9545,141.8014" stroke-width="0" transform=" rotate(0, 89, 139)"/>
  <ellipse cx="99.6332" cy="140.5905" fill="#6dd6ff" rx="2.5" ry="2.5" stroke-width="0" transform=" rotate(0, 99, 140)"/>
  <rect fill="#6dd6ff" height="5" stroke-width="0" transform=" rotate(0, 109, 140)" width="5" x="106.9757" y="138.2225"/>
  <polygon fill="#6dd6ff" points="117.2987,142.5273 119.7987,137.5273 122.2987,142.5273" stroke-width="0" transform=" rotate(0, 119, 140)"/>
  <ellipse cx="130.8286" cy="140.9612" fill="#6dd6ff" rx="2.5" ry="2.5" stroke-width="0" transform=" rotate(0, 130, 140)"/>
  <rect fill="#6dd6ff" height="5" stroke-width="0" transform=" rotate(0, 139, 140)" width="5" x="137.281" y="138.2446"/>
  <polygon fill="#6dd6ff" points="147.7128,142.7395 150.2128,137.7395 152.7128,142.7395" stroke-width="0" transform=" rotate(0, 150, 140)"/>
  <ellipse cx="159.8593" cy="139.8025" fill="#6dd6ff" rx="2.5" ry="2.5" stroke-width="0" transform=" rotate(0, 159, 139)"/>
  <rect fill="#6dd6ff" height="5" stroke-width="0" transform=" rotate(0, 169, 139)" width="5" x="167.1058" y="136.8793"/>
  <polygon fill="#6dd6ff" points="176.4856,141.7199 178.9856,136.7199 181.4856,141.7199" stroke-width="0" transform=" rotate(0, 178, 139)"/>
  <ellipse cx="189.7966" cy="140.65" fill="#6dd6ff" rx="2.5" ry="2.5" stroke-width="0" transform=" rotate(0, 189, 140)"/>
  <rect fill="#6dd6ff" height="5" stroke-width="0" transform=" rotate(0, 200, 140)" width="5" x="198.0798" y="138.2534"/>
  <polygon fill="#6dd6ff" points="206.5871,141.5123 209.0871,136.5123 211.5871,141.5123" stroke-width="0" transform=" rotate(0, 209, 139)"/>
  <ellipse cx="220.834" cy="140.8524" fill="#6dd6ff" rx="2.5" ry="2.5" stroke-width="0" transform=" rotate(0, 220, 140)"/>
  <rect fill="#6dd6ff" height="5" stroke-width="0" transform=" rotate(0, 229, 139)" width="5" x="227.3921" y="137.1302"/>
  <polygon fill="#6dd6ff" points="237.7716,142.5573 240.2716,137.5573 242.7716,142.5573" stroke-width="0" transform=" rotate(0, 240, 140)"/>
  <ellipse cx="250.1096" cy="139.2616" fill="#6dd6ff" rx="2.5" ry="2.5" stroke-width="0" transform=" rotate(0, 250, 139)"/>
  <rect fill="#6dd6ff" height="5" stroke-width="0" transform=" rotate(0, 259, 139)" width="5" x="257.3598" y="137.1075"/>
  <polygon fill="#6dd6ff" points="268.2205,143.4055 270.7205,138.4055 273.2205,143.4055" stroke-width="0" transform=" rotate(0, 270, 140)"/>
  <ellipse cx="279.0795" cy="140.3854" fill="#6dd6ff" rx="2.5" ry="2.5" stroke-width="0" transform=" rotate(0, 279, 140)"/>
  <rect fill="#1b9fd8" height="7" stroke-width="0" transform=" rotate(0, 51, 150)" width="7" x="47.8292" y="146.7163"/>
  <polygon fill="#1b9fd8" points="56.3789,152.9125 59.8789,145.9125 63.3789,152.9125" stroke-width="0" transform=" rotate(0, 59, 149)"/>
  <ellipse cx="69.6563" cy="149.7585" fill="#1b9fd8" rx="3.5" ry="3.5" stroke-width="0" transform=" rotate(0, 69, 149)"/>
  <rect fill="#1b9fd8" height="7" stroke-width="0" transform=" rotate(0, 79, 150)" width="7" x="75.7778" y="146.7234"/>
  <polygon fill="#1b9fd8" points="87.5142,154.3697 91.0142,147.3697 94.5142,154.3697" stroke-width="0" transform=" rotate(0, 91, 150)"/>
  <ellipse cx="99.1867" cy="150.1906" fill="#1b9fd8" rx="3.5" ry="3.5" stroke-width="0" transform=" rotate(0, 99, 150)"/>
  <rect fill="#1b9fd8" height="7" stroke-width="0" transform=" rotate(0, 110, 150)" width="7" x="106.6589" y="146.8334"/>
  <polygon fill="#1b9fd8" points="117.2543,153.0966 120.7543,146.0966 124.2543,153.0966" stroke-width="0" transform=" rotate(0, 120, 149)"/>
  <ellipse cx="130.8799" cy="149.2862" fill="#1b9fd8" rx="3.5" ry="3.5" stroke-width="0" transform=" rotate(0, 130, 149)"/>
  <rect fill="#1b9fd8" height="7" stroke-width="0" transform=" rotate(0, 139, 149)" width="7" x="136.2784" y="145.6184"/>
  <polygon fill="#1b9fd8" points="147.0728,153.8133 150.5728,146.8133 154.0728,153.8133" stroke-width="0" transform=" rotate(0, 150, 150)"/>
  <ellipse cx="159.5126" cy="151.3546" fill="#1b9fd8" rx="3.5" ry="3.5" stroke-width="0" transform=" rotate(0, 159, 151)"/>
  <rect fill="#1b9fd8" height="7" stroke-width="0" transform=" rotate(0, 169, 151)" width="7" x="165.7373" y="147.7606"/>
  <polygon fill="#1b9fd8" points="176.0323,152.443 179.5323,145.443 183.0323,152.443" stroke-width="0" transform=" rotate(0, 179, 148)"/>
  <ellipse cx="189.0459" cy="150.3314" fill="#1b9fd8" rx="3.5" ry="3.5" stroke-width="0" transform=" rotate(0, 189, 150)"/>
  <rect fill="#1b9fd8" height="7" stroke-width="0" transform=" rotate(0, 198, 150)" width="7" x="195.4641" y="146.5661"/>
  <polygon fill="#1b9fd8" points="206.1833,153.233 209.6833,146.233 213.1833,153.233" stroke-width="0" transform=" rotate(0, 209, 149)"/>
  <ellipse cx="221.1431" cy="150.8572" fill="#1b9fd8" rx="3.5" ry="3.5" stroke-width="0" transform=" rotate(0, 221, 150)"/>
  <rect fill="#1b9fd8" height="7" stroke-width="0" transform=" rotate(0, 229, 151)" width="7" x="225.5901" y="147.6588"/>
  <polygon fill="#1b9fd8" points="237.3872,153.9038 240.8872,146.9038 244.3872,153.9038" stroke-width="0" transform=" rotate(0, 240, 150)"/>
  <ellipse cx="249.883" cy="150.1086" fill="#1b9fd8" rx="3.5" ry="3.5" stroke-width="0" transform=" rotate(0, 249, 150)"/>
  <rect fill="#1b9fd8" height="7" stroke-width="0" transform=" rotate(0, 259, 148)" width="7" x="255.7452" y="145.1207"/>
  <polygon fill="#1b9fd8" points="266.9827,154.614 270.4827,147.614 273.9827,154.614" stroke-width="0" transform=" rotate(0, 270, 151)"/>
  <ellipse cx="281.0583" cy="149.9733" fill="#1b9fd8" rx="3.5" ry="3.5" stroke-width="0" transform=" rotate(0, 281, 149)"/>
  <rect fill="#006ca1" height="9" stroke-width="0" transform=" rotate(0, 50, 159)" width="9" x="45.9602" y="154.6294"/>
  <polygon fill="#006ca1" points="54.9697,165.0741 59.4697,156.0741 63.9697,165.0741" stroke-width="0" transform=" rotate(0, 59, 160)"/>
  <ellipse cx="68.3829" cy="160.1735" fill="#006ca1" rx="4.5" ry="4.5" stroke-width="0" transform=" rotate(0, 68, 160)"/>
  <rect fill="#006ca1" height="9" stroke-width="0" transform=" rotate(0, 80, 158)" width="9" x="75.6407" y="154.3466"/>
  <polygon fill="#006ca1" points="84.0363,163.2302 88.5363,154.2302 93.0363,163.2302" stroke-width="0" transform=" rotate(0, 88, 158)"/>
  <ellipse cx="100.3186" cy="161.3257" fill="#006ca1" rx="4.5" ry="4.5" stroke-width="0" transform=" rotate(0, 100, 161)"/>
  <rect fill="#006ca1" height="9" stroke-width="0" transform=" rotate(0, 110, 161)" width="9" x="106.3157" y="156.8253"/>
  <polygon fill="#006ca1" points="115.1447,164.7833 119.6447,155.7833 124.1447,164.7833" stroke-width="0" transform=" rotate(0, 119, 160)"/>
  <ellipse cx="131.0568" cy="160.4176" fill="#006ca1" rx="4.5" ry="4.5" stroke-width="0" transform=" rotate(0, 131, 160)"/>
  <rect fill="#006ca1" height="9" stroke-width="0" transform=" rotate(0, 139, 161)" width="9" x="134.896" y="156.6488"/>
  <polygon fill="#006ca1" points="143.8236,164.4827 148.3236,155.4827 152.8236,164.4827" stroke-width="0" transform=" rotate(0, 148, 159)"/>
  <ellipse cx="158.2927" cy="159.8783" fill="#006ca1" rx="4.5" ry="4.5" stroke-width="0" transform=" rotate(0, 158, 159)"/>
  <rect fill="#006ca1" height="9" stroke-width="0" transform=" rotate(0, 171, 159)" width="9" x="166.7851" y="154.5711"/>
  <polygon fill="#006ca1" points="176.1913,163.2352 180.6913,154.2352 185.1913,163.2352" stroke-width="0" transform=" rotate(0, 180, 158)"/>
  <ellipse cx="188.273" cy="161.3993" fill="#006ca1" rx="4.5" ry="4.5" stroke-width="0" transform=" rotate(0, 188, 161)"/>
  <rect fill="#006ca1" height="9" stroke-width="0" transform=" rotate(0, 200, 160)" width="9" x="195.9322" y="156.0512"/>
  <polygon fill="#006ca1" points="206.7748,165.0779 211.2748,156.0779 215.7748,165.0779" stroke-width="0" transform=" rotate(0, 211, 160)"/>
  <ellipse cx="218.9921" cy="161.6634" fill="#006ca1" rx="4.5" ry="4.5" stroke-width="0" transform=" rotate(0, 218, 161)"/>
  <rect fill="#006ca1" height="9" stroke-width="0" transform=" rotate(0, 229, 158)" width="9" x="224.8822" y="153.9162"/>
  <polygon fill="#006ca1" points="235.0267,164.952 239.5267,155.952 244.0267,164.952" stroke-width="0" transform=" rotate(0, 239, 160)"/>
  <ellipse cx="248.5237" cy="159.3945" fill="#006ca1" rx="4.5" ry="4.5" stroke-width="0" transform=" rotate(0, 248, 159)"/>
  <rect fill="#006ca1" height="9" stroke-width="0" transform=" rotate(0, 261, 160)" width="9" x="257.2087" y="155.7582"/>
  <polygon fill="#006ca1" points="267.2326,166.0653 271.7326,157.0653 276.2326,166.0653" stroke-width="0" transform=" rotate(0, 271, 161)"/>
  <ellipse cx="278.6803" cy="158.4283" fill="#006ca1" rx="4.5" ry="4.5" stroke-width="0" transform=" rotate(0, 278, 158)"/>
  <rect fill="#006ca1" height="9" stroke-width="0" transform=" rotate(0, 49, 171)" width="9" x="45.061" y="166.5793"/>
  <polygon fill="#006ca1" points="57.1604,174.7126 61.6604,165.7126 66.1604,174.7126" stroke-width="0" transform=" rotate(0, 61, 170)"/>
  <ellipse cx="71.4448" cy="168.8355" fill="#006ca1" rx="4.5" ry="4.5" stroke-width="0" transform=" rotate(0, 71, 168)"/>
  <rect fill="#006ca1" height="9" stroke-width="0" transform=" rotate(0, 78, 169)" width="9" x="74.1745" y="165.0659"/>
  <polygon fill="#006ca1" points="85.3798,174.5429 89.8798,165.5429 94.3798,174.5429" stroke-width="0" transform=" rotate(0, 89, 170)"/>
  <ellipse cx="99.6928" cy="170.8743" fill="#006ca1" rx="4.5" ry="4.5" stroke-width="0" transform=" rotate(0, 99, 170)"/>
  <rect fill="#006ca1" height="9" stroke-width="0" transform=" rotate(0, 110, 168)" width="9" x="105.8867" y="163.986"/>
  <polygon fill="#006ca1" points="115.45,172.9077 119.95,163.9077 124.45,172.9077" stroke-width="0" transform=" rotate(0, 119, 168)"/>
  <ellipse cx="129.5412" cy="168.4873" fill="#006ca1" rx="4.5" ry="4.5" stroke-width="0" transform=" rotate(0, 129, 168)"/>
  <rect fill="#006ca1" height="9" stroke-width="0" transform=" rotate(0, 138, 169)" width="9" x="134.3369" y="165.043"/>
  <polygon fill="#006ca1" points="146.3195,174.6499 150.8195,165.6499 155.3195,174.6499" stroke-width="0" transform=" rotate(0, 150, 170)"/>
  <ellipse cx="160.3928" cy="171.4511" fill="#006ca1" rx="4.5" ry="4.5" stroke-width="0" transform=" rotate(0, 160, 171)"/>
  <rect fill="#006ca1" height="9" stroke-width="0" transform=" rotate(0, 168, 171)" width="9" x="163.8762" y="166.8625"/>
  <polygon fill="#006ca1" points="176.0274,174.148 180.5274,165.148 185.0274,174.148" stroke-width="0" transform=" rotate(0, 180, 169)"/>
  <ellipse cx="191.5042" cy="171.1284" fill="#006ca1" rx="4.5" ry="4.5" stroke-width="0" transform=" rotate(0, 191, 171)"/>
  <rect fill="#006ca1" height="9" stroke-width="0" transform=" rotate(0, 200, 171)" width="9" x="195.5658" y="166.9536"/>
  <polygon fill="#006ca1" points="205.1562,174.388 209.6562,165.388 214.1562,174.388" stroke-width="0" transform=" rotate(0, 209, 169)"/>
  <ellipse cx="220.8659" cy="168.7163" fill="#006ca1" rx="4.5" ry="4.5" stroke-width="0" transform=" rotate(0, 220, 168)"/>
  <rect fill="#006ca1" height="9" stroke-width="0" transform=" rotate(0, 230, 169)" width="9" x="226.2081" y="165.3649"/>
  <polygon fill="#006ca1" points="234.3572,174.1318 238.8572,165.1318 243.3572,174.1318" stroke-width="0" transform=" rotate(0, 238, 169)"/>
  <ellipse cx="250.4894" cy="169.7116" fill="#006ca1" rx="4.5" ry="4.5" stroke-width="0" transform=" rotate(0, 250, 169)"/>
  <rect fill="#006ca1" height="9" stroke-width="0" transform=" rotate(0, 261, 168)" width="9" x="256.5878" y="164.1172"/>
  <polygon fill="#006ca1" points="266.943,174.3845 271.443,165.3845 275.943,174.3845" stroke-width="0" transform=" rotate(0, 271, 169)"/>
  <ellipse cx="279.1895" cy="170.3212" fill="#006ca1" rx="4.5" ry="4.5" stroke-width="0" transform=" rotate(0, 279, 170)"/>
  <rect fill="#1b9fd8" height="7" stroke-width="0" transform=" rotate(0, 49, 180)" width="7" x="46.0727" y="177.3819"/>
  <polygon fill="#1b9fd8" points="55.4385,182.7172 58.9385,175.7172 62.4385,182.7172" stroke-width="0" transform=" rotate(0, 58, 179)"/>
  <ellipse cx="68.7948" cy="179.1555" fill="#1b9fd8" rx="3.5" ry="3.5" stroke-width="0" transform=" rotate(0, 68, 179)"/>
  <rect fill="#1b9fd8" height="7" stroke-width="0" transform=" rotate(0, 78, 180)" width="7" x="75.3681" y="177.2367"/>
  <polygon fill="#1b9fd8" points="87.6917,182.5518 91.1917,175.5518 94.6917,182.5518" stroke-width="0" transform=" rotate(0, 91, 179)"/>
  <ellipse cx="101.3168" cy="179.676" fill="#1b9fd8" rx="3.5" ry="3.5" stroke-width="0" transform=" rotate(0, 101, 179)"/>
  <rect fill="#1b9fd8" height="7" stroke-width="0" transform=" rotate(0, 110, 180)" width="7" x="106.7048" y="176.7155"/>
  <polygon fill="#1b9fd8" points="116.4427,183.3214 119.9427,176.3214 123.4427,183.3214" stroke-width="0" transform=" rotate(0, 119, 179)"/>
  <ellipse cx="131.1838" cy="181.2685" fill="#1b9fd8" rx="3.5" ry="3.5" stroke-width="0" transform=" rotate(0, 131, 181)"/>
  <rect fill="#1b9fd8" height="7" stroke-width="0" transform=" rotate(0, 141, 178)" width="7" x="137.879" y="175.4035"/>
  <polygon fill="#1b9fd8" points="147.1046,182.3118 150.6046,175.3118 154.1046,182.3118" stroke-width="0" transform=" rotate(0, 150, 178)"/>
  <ellipse cx="159.9225" cy="181.1695" fill="#1b9fd8" rx="3.5" ry="3.5" stroke-width="0" transform=" rotate(0, 159, 181)"/>
  <rect fill="#1b9fd8" height="7" stroke-width="0" transform=" rotate(0, 170, 180)" width="7" x="167.2799" y="176.7993"/>
  <polygon fill="#1b9fd8" points="176.3114,184.3451 179.8114,177.3451 183.3114,184.3451" stroke-width="0" transform=" rotate(0, 179, 180)"/>
  <ellipse cx="189.7196" cy="178.6518" fill="#1b9fd8" rx="3.5" ry="3.5" stroke-width="0" transform=" rotate(0, 189, 178)"/>
  <rect fill="#1b9fd8" height="7" stroke-width="0" transform=" rotate(0, 200, 178)" width="7" x="196.7142" y="175.3222"/>
  <polygon fill="#1b9fd8" points="207.7094,184.3822 211.2094,177.3822 214.7094,184.3822" stroke-width="0" transform=" rotate(0, 211, 180)"/>
  <ellipse cx="219.9009" cy="179.1571" fill="#1b9fd8" rx="3.5" ry="3.5" stroke-width="0" transform=" rotate(0, 219, 179)"/>
  <rect fill="#1b9fd8" height="7" stroke-width="0" transform=" rotate(0, 230, 180)" width="7" x="226.6841" y="177.3771"/>
  <polygon fill="#1b9fd8" points="236.0759,182.2466 239.5759,175.2466 243.0759,182.2466" stroke-width="0" transform=" rotate(0, 239, 178)"/>
  <ellipse cx="248.9396" cy="180.5552" fill="#1b9fd8" rx="3.5" ry="3.5" stroke-width="0" transform=" rotate(0, 248, 180)"/>
  <rect fill="#1b9fd8" height="7" stroke-width="0" transform=" rotate(0, 260, 178)" width="7" x="257.3248" y="175.3643"/>
  <polygon fill="#1b9fd8" points="266.5714,182.2495 270.0714,175.2495 273.5714,182.2495" stroke-width="0" transform=" rotate(0, 270, 178)"/>
  <ellipse cx="278.8561" cy="180.2975" fill="#1b9fd8" rx="3.5" ry="3.5" stroke-width="0" transform=" rotate(0, 278, 180)"/>
  <rect fill="#6dd6ff" height="5" stroke-width="0" transform=" rotate(0, 49, 189)" width="5" x="47.4178" y="187.1721"/>
  <polygon fill="#6dd6ff" points="58.4719,193.2257 60.9719,188.2257 63.4719,193.2257" stroke-width="0" transform=" rotate(0, 60, 190)"/>
  <ellipse cx="69.3669" cy="190.736" fill="#6dd6ff" rx="2.5" ry="2.5" stroke-width="0" transform=" rotate(0, 69, 190)"/>
  <rect fill="#6dd6ff" height="5" stroke-width="0" transform=" rotate(0, 80, 189)" width="5" x="78.2468" y="187.2798"/>
  <polygon fill="#6dd6ff" points="87.1733,193.2964 89.6733,188.2964 92.1733,193.2964" stroke-width="0" transform=" rotate(0, 89, 190)"/>
  <ellipse cx="99.1706" cy="190.1288" fill="#6dd6ff" rx="2.5" ry="2.5" stroke-width="0" transform=" rotate(0, 99, 190)"/>
  <rect fill="#6dd6ff" height="5" stroke-width="0" transform=" rotate(0, 109, 189)" width="5" x="107.1447" y="187.2966"/>
  <polygon fill="#6dd6ff" points="117.8239,191.6069 120.3239,186.6069 122.8239,191.6069" stroke-width="0" transform=" rotate(0, 120, 189)"/>
  <ellipse cx="130.6703" cy="190.8787" fill="#6dd6ff" rx="2.5" ry="2.5" stroke-width="0" transform=" rotate(0, 130, 190)"/>
  <rect fill="#6dd6ff" height="5" stroke-width="0" transform=" rotate(0, 139, 189)" width="5" x="136.8871" y="186.8208"/>
  <polygon fill="#6dd6ff" points="148.2169,191.9438 150.7169,186.9438 153.2169,191.9438" stroke-width="0" transform=" rotate(0, 150, 189)"/>
  <ellipse cx="159.6125" cy="190.4626" fill="#6dd6ff" rx="2.5" ry="2.5" stroke-width="0" transform=" rotate(0, 159, 190)"/>
  <rect fill="#6dd6ff" height="5" stroke-width="0" transform=" rotate(0, 169, 190)" width="5" x="166.7117" y="188.2216"/>
  <polygon fill="#6dd6ff" points="178.3181,192.1364 180.8181,187.1364 183.3181,192.1364" stroke-width="0" transform=" rotate(0, 180, 189)"/>
  <ellipse cx="189.272" cy="189.425" fill="#6dd6ff" rx="2.5" ry="2.5" stroke-width="0" transform=" rotate(0, 189, 189)"/>
  <rect fill="#6dd6ff" height="5" stroke-width="0" transform=" rotate(0, 200, 190)" width="5" x="198.0098" y="187.6538"/>
  <polygon fill="#6dd6ff" points="206.8246,193.0454 209.3246,188.0454 211.8246,193.0454" stroke-width="0" transform=" rotate(0, 209, 190)"/>
  <ellipse cx="219.4467" cy="189.7719" fill="#6dd6ff" rx="2.5" ry="2.5" stroke-width="0" transform=" rotate(0, 219, 189)"/>
  <rect fill="#6dd6ff" height="5" stroke-width="0" transform=" rotate(0, 229, 189)" width="5" x="227.2793" y="186.502"/>
  <polygon fill="#6dd6ff" points="237.7906,193.1872 240.2906,188.1872 242.7906,193.1872" stroke-width="0" transform=" rotate(0, 240, 190)"/>
  <ellipse cx="249.8225" cy="189.2151" fill="#6dd6ff" rx="2.5" ry="2.5" stroke-width="0" transform=" rotate(0, 249, 189)"/>
  <rect fill="#6dd6ff" height="5" stroke-width="0" transform=" rotate(0, 260, 189)" width="5" x="257.8887" y="186.5244"/>
  <polygon fill="#6dd6ff" points="267.6146,192.9275 270.1146,187.9275 272.6146,192.9275" stroke-width="0" transform=" rotate(0, 270, 190)"/>
  <ellipse cx="279.1855" cy="189.671" fill="#6dd6ff" rx="2.5" ry="2.5" stroke-width="0" transform=" rotate(0, 279, 189)"/>
  <rect fill="#006ca1" height="9" stroke-width="0" transform=" rotate(0, 49, 198)" width="9" x="44.6492" y="194.2912"/>
  <polygon fill="#006ca1" points="53.8577,203.926 58.3577,194.926 62.8577,203.926" stroke-width="0" transform=" rotate(0, 58, 199)"/>
  <ellipse cx="71.0318" cy="198.4818" fill="#006ca1" rx="4.5" ry="4.5" stroke-width="0" transform=" rotate(0, 71, 198)"/>
  <rect fill="#006ca1" height="9" stroke-width="0" transform=" rotate(0, 79, 201)" width="9" x="75.3954" y="197.177"/>
  <polygon fill="#006ca1" points="85.7077,204.9293 90.2077,195.9293 94.7077,204.9293" stroke-width="0" transform=" rotate(0, 90, 200)"/>
  <ellipse cx="101.2997" cy="198.1888" fill="#006ca1" rx="4.5" ry="4.5" stroke-width="0" transform=" rotate(0, 101, 198)"/>
  <rect fill="#006ca1" height="9" stroke-width="0" transform=" rotate(0, 108, 199)" width="9" x="103.7178" y="195.443"/>
  <polygon fill="#006ca1" points="114.9132,206.0696 119.4132,197.0696 123.9132,206.0696" stroke-width="0" transform=" rotate(0, 119, 201)"/>
  <ellipse cx="128.3154" cy="198.5124" fill="#006ca1" rx="4.5" ry="4.5" stroke-width="0" transform=" rotate(0, 128, 198)"/>
  <rect fill="#006ca1" height="9" stroke-width="0" transform=" rotate(0, 138, 199)" width="9" x="134.2865" y="194.7492"/>
  <polygon fill="#006ca1" points="145.6065,203.3694 150.1065,194.3694 154.6065,203.3694" stroke-width="0" transform=" rotate(0, 150, 198)"/>
  <ellipse cx="159.8322" cy="201.3751" fill="#006ca1" rx="4.5" ry="4.5" stroke-width="0" transform=" rotate(0, 159, 201)"/>
  <rect fill="#006ca1" height="9" stroke-width="0" transform=" rotate(0, 168, 201)" width="9" x="163.8007" y="197.097"/>
  <polygon fill="#006ca1" points="176.9752,203.8716 181.4752,194.8716 185.9752,203.8716" stroke-width="0" transform=" rotate(0, 181, 199)"/>
  <ellipse cx="191.6923" cy="200.9451" fill="#006ca1" rx="4.5" ry="4.5" stroke-width="0" transform=" rotate(0, 191, 200)"/>
  <rect fill="#006ca1" height="9" stroke-width="0" transform=" rotate(0, 198, 198)" width="9" x="193.7892" y="193.6896"/>
  <polygon fill="#006ca1" points="206.9952,203.6432 211.4952,194.6432 215.9952,203.6432" stroke-width="0" transform=" rotate(0, 211, 199)"/>
  <ellipse cx="220.4316" cy="199.6452" fill="#006ca1" rx="4.5" ry="4.5" stroke-width="0" transform=" rotate(0, 220, 199)"/>
  <rect fill="#006ca1" height="9" stroke-width="0" transform=" rotate(0, 230, 198)" width="9" x="225.5723" y="194.4328"/>
  <polygon fill="#006ca1" points="233.7519,204.8245 238.2519,195.8245 242.7519,204.8245" stroke-width="0" transform=" rotate(0, 238, 200)"/>
  <ellipse cx="249.5584" cy="198.6009" fill="#006ca1" rx="4.5" ry="4.5" stroke-width="0" transform=" rotate(0, 249, 198)"/>
  <rect fill="#006ca1" height="9" stroke-width="0" transform=" rotate(0, 258, 200)" width="9" x="254.0561" y="195.9625"/>
  <polygon fill="#006ca1" points="266.0954,205.4343 270.5954,196.4343 275.0954,205.4343" stroke-width="0" transform=" rotate(0, 270, 200)"/>
  <ellipse cx="280.4539" cy="199.4814" fill="#006ca1" rx="4.5" ry="4.5" stroke-width="0" transform=" rotate(0, 280, 199)"/>
  <rect fill="#1b9fd8" height="7" stroke-width="0" transform=" rotate(0, 48, 209)" width="7" x="45.2486" y="205.5484"/>
  <polygon fill="#1b9fd8" points="55.9105,213.5695 59.4105,206.5695 62.9105,213.5695" stroke-width="0" transform=" rotate(0, 59, 210)"/>
  <ellipse cx="69.1178" cy="209.344" fill="#1b9fd8" rx="3.5" ry="3.5" stroke-width="0" transform=" rotate(0, 69, 209)"/>
  <rect fill="#1b9fd8" height="7" stroke-width="0" transform=" rotate(0, 79, 209)" width="7" x="76.2743" y="206.2641"/>
  <polygon fill="#1b9fd8" points="87.0358,214.4825 90.5358,207.4825 94.0358,214.4825" stroke-width="0" transform=" rotate(0, 90, 210)"/>
  <ellipse cx="100.9203" cy="209.891" fill="#1b9fd8" rx="3.5" ry="3.5" stroke-width="0" transform=" rotate(0, 100, 209)"/>
  <rect fill="#1b9fd8" height="7" stroke-width="0" transform=" rotate(0, 110, 209)" width="7" x="107.46" y="206.2278"/>
  <polygon fill="#1b9fd8" points="115.8041,212.4223 119.3041,205.4223 122.8041,212.4223" stroke-width="0" transform=" rotate(0, 119, 208)"/>
  <ellipse cx="130.1952" cy="211.0592" fill="#1b9fd8" rx="3.5" ry="3.5" stroke-width="0" transform=" rotate(0, 130, 211)"/>
  <rect fill="#1b9fd8" height="7" stroke-width="0" transform=" rotate(0, 139, 210)" width="7" x="136.2804" y="206.9956"/>
  <polygon fill="#1b9fd8" points="146.5661,214.3425 150.0661,207.3425 153.5661,214.3425" stroke-width="0" transform=" rotate(0, 150, 210)"/>
  <ellipse cx="160.3899" cy="208.9728" fill="#1b9fd8" rx="3.5" ry="3.5" stroke-width="0" transform=" rotate(0, 160, 208)"/>
  <rect fill="#1b9fd8" height="7" stroke-width="0" transform=" rotate(0, 169, 210)" width="7" x="165.5242" y="207.2893"/>
  <polygon fill="#1b9fd8" points="177.744,212.4968 181.244,205.4968 184.744,212.4968" stroke-width="0" transform=" rotate(0, 181, 208)"/>
  <ellipse cx="190.8289" cy="211.3245" fill="#1b9fd8" rx="3.5" ry="3.5" stroke-width="0" transform=" rotate(0, 190, 211)"/>
  <rect fill="#1b9fd8" height="7" stroke-width="0" transform=" rotate(0, 199, 209)" width="7" x="195.8321" y="206.2988"/>
  <polygon fill="#1b9fd8" points="206.0591,213.1685 209.5591,206.1685 213.0591,213.1685" stroke-width="0" transform=" rotate(0, 209, 209)"/>
  <ellipse cx="220.4939" cy="210.6129" fill="#1b9fd8" rx="3.5" ry="3.5" stroke-width="0" transform=" rotate(0, 220, 210)"/>
  <rect fill="#1b9fd8" height="7" stroke-width="0" transform=" rotate(0, 231, 210)" width="7" x="227.8771" y="206.9398"/>
  <polygon fill="#1b9fd8" points="235.5312,212.2781 239.0312,205.2781 242.5312,212.2781" stroke-width="0" transform=" rotate(0, 239, 208)"/>
  <ellipse cx="251.3185" cy="209.1639" fill="#1b9fd8" rx="3.5" ry="3.5" stroke-width="0" transform=" rotate(0, 251, 209)"/>
  <rect fill="#1b9fd8" height="7" stroke-width="0" transform=" rotate(0, 261, 210)" width="7" x="257.5556" y="206.9957"/>
  <polygon fill="#1b9fd8" points="265.3655,213.8118 268.8655,206.8118 272.3655,213.8118" stroke-width="0" transform=" rotate(0, 268, 210)"/>
  <ellipse cx="280.0231" cy="209.8281" fill="#1b9fd8" rx="3.5" ry="3.5" stroke-width="0" transform=" rotate(0, 280, 209)"/>
  <rect fill="#6dd6ff" height="5" stroke-width="0" transform=" rotate(0, 50, 220)" width="5" x="47.7676" y="217.8112"/>
  <polygon fill="#6dd6ff" points="58.3401,221.8484 60.8401,216.8484 63.3401,221.8484" stroke-width="0" transform=" rotate(0, 60, 219)"/>
  <ellipse cx="70.515" cy="219.8446" fill="#6dd6ff" rx="2.5" ry="2.5" stroke-width="0" transform=" rotate(0, 70, 219)"/>
  <rect fill="#6dd6ff" height="5" stroke-width="0" transform=" rotate(0, 80, 220)" width="5" x="77.5281" y="217.9495"/>
  <polygon fill="#6dd6ff" points="86.9743,222.4662 89.4743,217.4662 91.9743,222.4662" stroke-width="0" transform=" rotate(0, 89, 219)"/>
  <ellipse cx="100.2764" cy="219.4022" fill="#6dd6ff" rx="2.5" ry="2.5" stroke-width="0" transform=" rotate(0, 100, 219)"/>
  <rect fill="#6dd6ff" height="5" stroke-width="0" transform=" rotate(0, 109, 220)" width="5" x="106.8355" y="218.2759"/>
  <polygon fill="#6dd6ff" points="117.1182,221.8745 119.6182,216.8745 122.1182,221.8745" stroke-width="0" transform=" rotate(0, 119, 219)"/>
  <ellipse cx="129.7824" cy="220.8871" fill="#6dd6ff" rx="2.5" ry="2.5" stroke-width="0" transform=" rotate(0, 129, 220)"/>
  <rect fill="#6dd6ff" height="5" stroke-width="0" transform=" rotate(0, 139, 219)" width="5" x="137.4524" y="216.8892"/>
  <polygon fill="#6dd6ff" points="146.9994,221.8364 149.4994,216.8364 151.9994,221.8364" stroke-width="0" transform=" rotate(0, 149, 219)"/>
  <ellipse cx="159.8821" cy="220.0145" fill="#6dd6ff" rx="2.5" ry="2.5" stroke-width="0" transform=" rotate(0, 159, 220)"/>
  <rect fill="#6dd6ff" height="5" stroke-width="0" transform=" rotate(0, 170, 219)" width="5" x="168.02" y="216.9852"/>
  <polygon fill="#6dd6ff" points="176.9759,223.1875 179.4759,218.1875 181.9759,223.1875" stroke-width="0" transform=" rotate(0, 179, 220)"/>
  <ellipse cx="190.6588" cy="220.2181" fill="#6dd6ff" rx="2.5" ry="2.5" stroke-width="0" transform=" rotate(0, 190, 220)"/>
  <rect fill="#6dd6ff" height="5" stroke-width="0" transform=" rotate(0, 200, 220)" width="5" x="198.4149" y="218.1514"/>
  <polygon fill="#6dd6ff" points="207.9765,222.198 210.4765,217.198 212.9765,222.198" stroke-width="0" transform=" rotate(0, 210, 219)"/>
  <ellipse cx="219.5202" cy="219.4417" fill="#6dd6ff" rx="2.5" ry="2.5" stroke-width="0" transform=" rotate(0, 219, 219)"/>
  <rect fill="#6dd6ff" height="5" stroke-width="0" transform=" rotate(0, 229, 219)" width="5" x="227.4568" y="216.5255"/>
  <polygon fill="#6dd6ff" points="237.9231,223.048 240.4231,218.048 242.9231,223.048" stroke-width="0" transform=" rotate(0, 240, 220)"/>
  <ellipse cx="249.2898" cy="219.6127" fill="#6dd6ff" rx="2.5" ry="2.5" stroke-width="0" transform=" rotate(0, 249, 219)"/>
  <rect fill="#6dd6ff" height="5" stroke-width="0" transform=" rotate(0, 260, 219)" width="5" x="258.1249" y="216.5505"/>
  <polygon fill="#6dd6ff" points="266.8638,222.4654 269.3638,217.4654 271.8638,222.4654" stroke-width="0" transform=" rotate(0, 269, 219)"/>
  <ellipse cx="279.151" cy="220.3922" fill="#6dd6ff" rx="2.5" ry="2.5" stroke-width="0" transform=" rotate(0, 279, 220)"/>
  <rect fill="#006ca1" height="9" stroke-width="0" transform=" rotate(0, 51, 228)" width="9" x="47.065" y="224.0708"/>
  <polygon fill="#006ca1" points="56.0725,233.2011 60.5725,224.2011 65.0725,233.2011" stroke-width="0" transform=" rotate(0, 60, 228)"/>
  <ellipse cx="69.5983" cy="230.9378" fill="#006ca1" rx="4.5" ry="4.5" stroke-width="0" transform=" rotate(0, 69, 230)"/>
  <rect fill="#006ca1" height="9" stroke-width="0" transform=" rotate(0, 81, 231)" width="9" x="76.9453" y="227.1192"/>
  <polygon fill="#006ca1" points="86.606,235.6546 91.106,226.6546 95.606,235.6546" stroke-width="0" transform=" rotate(0, 91, 231)"/>
  <ellipse cx="101.6685" cy="229.9445" fill="#006ca1" rx="4.5" ry="4.5" stroke-width="0" transform=" rotate(0, 101, 229)"/>
  <rect fill="#006ca1" height="9" stroke-width="0" transform=" rotate(0, 110, 228)" width="9" x="105.8238" y="223.7195"/>
  <polygon fill="#006ca1" points="116.4601,235.0768 120.9601,226.0768 125.4601,235.0768" stroke-width="0" transform=" rotate(0, 120, 230)"/>
  <ellipse cx="130.8222" cy="229.1064" fill="#006ca1" rx="4.5" ry="4.5" stroke-width="0" transform=" rotate(0, 130, 229)"/>
  <rect fill="#006ca1" height="9" stroke-width="0" transform=" rotate(0, 138, 231)" width="9" x="133.9659" y="226.9617"/>
  <polygon fill="#006ca1" points="145.4869,233.3444 149.9869,224.3444 154.4869,233.3444" stroke-width="0" transform=" rotate(0, 149, 228)"/>
  <ellipse cx="160.8905" cy="230.4161" fill="#006ca1" rx="4.5" ry="4.5" stroke-width="0" transform=" rotate(0, 160, 230)"/>
  <rect fill="#006ca1" height="9" stroke-width="0" transform=" rotate(0, 168, 229)" width="9" x="164.0061" y="225.2567"/>
  <polygon fill="#006ca1" points="176.9927,235.0688 181.4927,226.0688 185.9927,235.0688" stroke-width="0" transform=" rotate(0, 181, 230)"/>
  <ellipse cx="189.6948" cy="231.4693" fill="#006ca1" rx="4.5" ry="4.5" stroke-width="0" transform=" rotate(0, 189, 231)"/>
  <rect fill="#006ca1" height="9" stroke-width="0" transform=" rotate(0, 200, 231)" width="9" x="196.3435" y="226.9901"/>
  <polygon fill="#006ca1" points="204.6631,234.7615 209.1631,225.7615 213.6631,234.7615" stroke-width="0" transform=" rotate(0, 209, 230)"/>
  <ellipse cx="220.3949" cy="229.0852" fill="#006ca1" rx="4.5" ry="4.5" stroke-width="0" transform=" rotate(0, 220, 229)"/>
  <rect fill="#006ca1" height="9" stroke-width="0" transform=" rotate(0, 231, 228)" width="9" x="227.1179" y="224.3646"/>
  <polygon fill="#006ca1" points="235.481,233.409 239.981,224.409 244.481,233.409" stroke-width="0" transform=" rotate(0, 239, 228)"/>
  <ellipse cx="251.0594" cy="229.8133" fill="#006ca1" rx="4.5" ry="4.5" stroke-width="0" transform=" rotate(0, 251, 229)"/>
  <rect fill="#006ca1" height="9" stroke-width="0" transform=" rotate(0, 258, 229)" width="9" x="253.9889" y="224.7152"/>
  <polygon fill="#006ca1" points="267.0286,236.0839 271.5286,227.0839 276.0286,236.0839" stroke-width="0" transform=" rotate(0, 271, 231)"/>
  <ellipse cx="279.3878" cy="230.2441" fill="#006ca1" rx="4.5" ry="4.5" stroke-width="0" transform=" rotate(0, 279, 230)"/>
  <rect fill="#1b9fd8" height="7" stroke-width="0" transform=" rotate(0, 49, 238)" width="7" x="45.7637" y="235.1895"/>
  <polygon fill="#1b9fd8" points="55.2604,242.5674 58.7604,235.5674 62.2604,242.5674" stroke-width="0" transform=" rotate(0, 58, 239)"/>
  <ellipse cx="69.2507" cy="240.0288" fill="#1b9fd8" rx="3.5" ry="3.5" stroke-width="0" transform=" rotate(0, 69, 240)"/>
  <rect fill="#1b9fd8" height="7" stroke-width="0" transform=" rotate(0, 78, 238)" width="7" x="75.4485" y="235.3552"/>
  <polygon fill="#1b9fd8" points="85.3475,243.6882 88.8475,236.6882 92.3475,243.6882" stroke-width="0" transform=" rotate(0, 88, 240)"/>
  <ellipse cx="98.7075" cy="239.2643" fill="#1b9fd8" rx="3.5" ry="3.5" stroke-width="0" transform=" rotate(0, 98, 239)"/>
  <rect fill="#1b9fd8" height="7" stroke-width="0" transform=" rotate(0, 108, 240)" width="7" x="105.103" y="236.8015"/>
  <polygon fill="#1b9fd8" points="116.5189,243.5911 120.0189,236.5911 123.5189,243.5911" stroke-width="0" transform=" rotate(0, 120, 240)"/>
  <ellipse cx="130.875" cy="240.268" fill="#1b9fd8" rx="3.5" ry="3.5" stroke-width="0" transform=" rotate(0, 130, 240)"/>
  <rect fill="#1b9fd8" height="7" stroke-width="0" transform=" rotate(0, 140, 238)" width="7" x="137.4797" y="235.4209"/>
  <polygon fill="#1b9fd8" points="145.9016,242.3174 149.4016,235.3174 152.9016,242.3174" stroke-width="0" transform=" rotate(0, 149, 238)"/>
  <ellipse cx="160.7924" cy="240.6052" fill="#1b9fd8" rx="3.5" ry="3.5" stroke-width="0" transform=" rotate(0, 160, 240)"/>
  <rect fill="#1b9fd8" height="7" stroke-width="0" transform=" rotate(0, 170, 239)" width="7" x="166.7304" y="235.8667"/>
  <polygon fill="#1b9fd8" points="175.3782,242.6084 178.8782,235.6084 182.3782,242.6084" stroke-width="0" transform=" rotate(0, 178, 239)"/>
  <ellipse cx="189.3845" cy="239.4021" fill="#1b9fd8" rx="3.5" ry="3.5" stroke-width="0" transform=" rotate(0, 189, 239)"/>
  <rect fill="#1b9fd8" height="7" stroke-width="0" transform=" rotate(0, 200, 238)" width="7" x="197.2215" y="235.3888"/>
  <polygon fill="#1b9fd8" points="205.4597,244.3838 208.9597,237.3838 212.4597,244.3838" stroke-width="0" transform=" rotate(0, 208, 240)"/>
  <ellipse cx="220.2372" cy="238.7607" fill="#1b9fd8" rx="3.5" ry="3.5" stroke-width="0" transform=" rotate(0, 220, 238)"/>
  <rect fill="#1b9fd8" height="7" stroke-width="0" transform=" rotate(0, 228, 240)" width="7" x="225.4299" y="237.3167"/>
  <polygon fill="#1b9fd8" points="235.9772,244.5986 239.4772,237.5986 242.9772,244.5986" stroke-width="0" transform=" rotate(0, 239, 241)"/>
  <ellipse cx="249.9959" cy="239.5646" fill="#1b9fd8" rx="3.5" ry="3.5" stroke-width="0" transform=" rotate(0, 249, 239)"/>
  <rect fill="#1b9fd8" height="7" stroke-width="0" transform=" rotate(0, 258, 238)" width="7" x="255.3298" y="235.3731"/>
  <polygon fill="#1b9fd8" points="267.8333,242.1944 271.3333,235.1944 274.8333,242.1944" stroke-width="0" transform=" rotate(0, 271, 238)"/>
  <ellipse cx="280.4262" cy="240.5298" fill="#1b9fd8" rx="3.5" ry="3.5" stroke-width="0" transform=" rotate(0, 280, 240)"/>
  <rect fill="#6dd6ff" height="5" stroke-width="0" transform=" rotate(0, 49, 250)" width="5" x="46.8464" y="247.6007"/>
  <polygon fill="#6dd6ff" points="56.6624,251.8618 59.1624,246.8618 61.6624,251.8618" stroke-width="0" transform=" rotate(0, 59, 249)"/>
  <ellipse cx="70.0862" cy="250.878" fill="#6dd6ff" rx="2.5" ry="2.5" stroke-width="0" transform=" rotate(0, 70, 250)"/>
  <rect fill="#6dd6ff" height="5" stroke-width="0" transform=" rotate(0, 79, 250)" width="5" x="77.407" y="248.3532"/>
  <polygon fill="#6dd6ff" points="87.1495,252.658 89.6495,247.658 92.1495,252.658" stroke-width="0" transform=" rotate(0, 89, 250)"/>
  <ellipse cx="100.3061" cy="249.5573" fill="#6dd6ff" rx="2.5" ry="2.5" stroke-width="0" transform=" rotate(0, 100, 249)"/>
  <rect fill="#6dd6ff" height="5" stroke-width="0" transform=" rotate(0, 110, 250)" width="5" x="108.3042" y="247.7952"/>
  <polygon fill="#6dd6ff" points="117.2713,253.3186 119.7713,248.3186 122.2713,253.3186" stroke-width="0" transform=" rotate(0, 119, 250)"/>
  <ellipse cx="129.3705" cy="250.6391" fill="#6dd6ff" rx="2.5" ry="2.5" stroke-width="0" transform=" rotate(0, 129, 250)"/>
  <rect fill="#6dd6ff" height="5" stroke-width="0" transform=" rotate(0, 140, 250)" width="5" x="137.8237" y="248.2977"/>
  <polygon fill="#6dd6ff" points="146.9594,253.0692 149.4594,248.0692 151.9594,253.0692" stroke-width="0" transform=" rotate(0, 149, 250)"/>
  <ellipse cx="159.5312" cy="250.2379" fill="#6dd6ff" rx="2.5" ry="2.5" stroke-width="0" transform=" rotate(0, 159, 250)"/>
  <rect fill="#6dd6ff" height="5" stroke-width="0" transform=" rotate(0, 170, 250)" width="5" x="167.7358" y="248.4631"/>
  <polygon fill="#6dd6ff" points="178.3971,251.5529 180.8971,246.5529 183.3971,251.5529" stroke-width="0" transform=" rotate(0, 180, 249)"/>
  <ellipse cx="188.9833" cy="249.6161" fill="#6dd6ff" rx="2.5" ry="2.5" stroke-width="0" transform=" rotate(0, 188, 249)"/>
  <rect fill="#6dd6ff" height="5" stroke-width="0" transform=" rotate(0, 200, 249)" width="5" x="198.0001" y="247.3136"/>
  <polygon fill="#6dd6ff" points="208.4046,252.2811 210.9046,247.2811 213.4046,252.2811" stroke-width="0" transform=" rotate(0, 210, 249)"/>
  <ellipse cx="220.2247" cy="249.9228" fill="#6dd6ff" rx="2.5" ry="2.5" stroke-width="0" transform=" rotate(0, 220, 249)"/>
  <rect fill="#6dd6ff" height="5" stroke-width="0" transform=" rotate(0, 230, 250)" width="5" x="228.0908" y="247.6629"/>
  <polygon fill="#6dd6ff" points="237.415,252.5438 239.915,247.5438 242.415,252.5438" stroke-width="0" transform=" rotate(0, 239, 250)"/>
  <ellipse cx="250.6897" cy="250.4688" fill="#6dd6ff" rx="2.5" ry="2.5" stroke-width="0" transform=" rotate(0, 250, 250)"/>
  <rect fill="#6dd6ff" height="5" stroke-width="0" transform=" rotate(0, 260, 249)" width="5" x="257.8829" y="246.614"/>
  <polygon fill="#6dd6ff" points="267.8558,252.3055 270.3558,247.3055 272.8558,252.3055" stroke-width="0" transform=" rotate(0, 270, 249)"/>
  <ellipse cx="279.0411" cy="250.502" fill="#6dd6ff" rx="2.5" ry="2.5" stroke-width="0" transform=" rotate(0, 279, 250)"/>
  <rect fill="#006ca1" height="9" stroke-width="0" transform=" rotate(0, 51, 261)" width="9" x="46.8168" y="256.874"/>
  <polygon fill="#006ca1" points="54.5214,263.6558 59.0214,254.6558 63.5214,263.6558" stroke-width="0" transform=" rotate(0, 59, 259)"/>
  <ellipse cx="71.7562" cy="260.2028" fill="#006ca1" rx="4.5" ry="4.5" stroke-width="0" transform=" rotate(0, 71, 260)"/>
  <rect fill="#006ca1" height="9" stroke-width="0" transform=" rotate(0, 78, 259)" width="9" x="74.2232" y="254.6041"/>
  <polygon fill="#006ca1" points="86.3735,262.9901 90.8735,253.9901 95.3735,262.9901" stroke-width="0" transform=" rotate(0, 90, 258)"/>
  <ellipse cx="98.6031" cy="260.8674" fill="#006ca1" rx="4.5" ry="4.5" stroke-width="0" transform=" rotate(0, 98, 260)"/>
  <rect fill="#006ca1" height="9" stroke-width="0" transform=" rotate(0, 109, 258)" width="9" x="105.4334" y="253.9904"/>
  <polygon fill="#006ca1" points="114.6883,263.9365 119.1883,254.9365 123.6883,263.9365" stroke-width="0" transform=" rotate(0, 119, 259)"/>
  <ellipse cx="130.8822" cy="258.7249" fill="#006ca1" rx="4.5" ry="4.5" stroke-width="0" transform=" rotate(0, 130, 258)"/>
  <rect fill="#006ca1" height="9" stroke-width="0" transform=" rotate(0, 138, 258)" width="9" x="134.3816" y="254.2369"/>
  <polygon fill="#006ca1" points="143.7864,263.553 148.2864,254.553 152.7864,263.553" stroke-width="0" transform=" rotate(0, 148, 259)"/>
  <ellipse cx="161.1624" cy="261.6169" fill="#006ca1" rx="4.5" ry="4.5" stroke-width="0" transform=" rotate(0, 161, 261)"/>
  <rect fill="#006ca1" height="9" stroke-width="0" transform=" rotate(0, 170, 258)" width="9" x="165.5799" y="254.4447"/>
  <polygon fill="#006ca1" points="176.7823,264.1762 181.2823,255.1762 185.7823,264.1762" stroke-width="0" transform=" rotate(0, 181, 259)"/>
  <ellipse cx="188.7818" cy="260.5846" fill="#006ca1" rx="4.5" ry="4.5" stroke-width="0" transform=" rotate(0, 188, 260)"/>
  <rect fill="#006ca1" height="9" stroke-width="0" transform=" rotate(0, 200, 261)" width="9" x="195.5896" y="256.9983"/>
  <polygon fill="#006ca1" points="207.1115,263.9608 211.6115,254.9608 216.1115,263.9608" stroke-width="0" transform=" rotate(0, 211, 259)"/>
  <ellipse cx="219.856" cy="259.6374" fill="#006ca1" rx="4.5" ry="4.5" stroke-width="0" transform=" rotate(0, 219, 259)"/>
  <rect fill="#006ca1" height="9" stroke-width="0" transform=" rotate(0, 229, 259)" width="9" x="225.0481" y="255.466"/>
  <polygon fill="#006ca1" points="234.6432,264.9904 239.1432,255.9904 243.6432,264.9904" stroke-width="0" transform=" rotate(0, 239, 260)"/>
  <ellipse cx="249.3847" cy="258.8325" fill="#006ca1" rx="4.5" ry="4.5" stroke-width="0" transform=" rotate(0, 249, 258)"/>
  <rect fill="#006ca1" height="9" stroke-width="0" transform=" rotate(0, 260, 259)" width="9" x="256.1642" y="254.6686"/>
  <polygon fill="#006ca1" points="263.9736,264.1019 268.4736,255.1019 272.9736,264.1019" stroke-width="0" transform=" rotate(0, 268, 259)"/>
  <ellipse cx="279.3348" cy="259.8533" fill="#006ca1" rx="4.5" ry="4.5" stroke-width="0" transform=" rotate(0, 279, 259)"/>
  <rect fill="#1b9fd8" height="7" stroke-width="0" transform=" rotate(0, 49, 269)" width="7" x="46.1754" y="266.1964"/>
  <polygon fill="#1b9fd8" points="57.0302,274.7581 60.5302,267.7581 64.0302,274.7581" stroke-width="0" transform=" rotate(0, 60, 271)"/>
  <ellipse cx="69.9399" cy="268.6221" fill="#1b9fd8" rx="3.5" ry="3.5" stroke-width="0" transform=" rotate(0, 69, 268)"/>
  <rect fill="#1b9fd8" height="7" stroke-width="0" transform=" rotate(0, 80, 269)" width="7" x="77.1211" y="265.8475"/>
  <polygon fill="#1b9fd8" points="87.3135,274.1228 90.8135,267.1228 94.3135,274.1228" stroke-width="0" transform=" rotate(0, 90, 270)"/>
  <ellipse cx="98.7598" cy="270.7512" fill="#1b9fd8" rx="3.5" ry="3.5" stroke-width="0" transform=" rotate(0, 98, 270)"/>
  <rect fill="#1b9fd8" height="7" stroke-width="0" transform=" rotate(0, 109, 269)" width="7" x="105.5863" y="266.0378"/>
  <polygon fill="#1b9fd8" points="116.1542,272.0894 119.6542,265.0894 123.1542,272.0894" stroke-width="0" transform=" rotate(0, 119, 268)"/>
  <ellipse cx="130.7328" cy="270.9946" fill="#1b9fd8" rx="3.5" ry="3.5" stroke-width="0" transform=" rotate(0, 130, 270)"/>
  <rect fill="#1b9fd8" height="7" stroke-width="0" transform=" rotate(0, 141, 271)" width="7" x="137.8647" y="267.6794"/>
  <polygon fill="#1b9fd8" points="147.851,272.6113 151.351,265.6113 154.851,272.6113" stroke-width="0" transform=" rotate(0, 151, 269)"/>
  <ellipse cx="160.7258" cy="269.5206" fill="#1b9fd8" rx="3.5" ry="3.5" stroke-width="0" transform=" rotate(0, 160, 269)"/>
  <rect fill="#1b9fd8" height="7" stroke-width="0" transform=" rotate(0, 169, 270)" width="7" x="165.6053" y="267.3163"/>
  <polygon fill="#1b9fd8" points="177.8471,274.6815 181.3471,267.6815 184.8471,274.6815" stroke-width="0" transform=" rotate(0, 181, 271)"/>
  <ellipse cx="188.6762" cy="268.7115" fill="#1b9fd8" rx="3.5" ry="3.5" stroke-width="0" transform=" rotate(0, 188, 268)"/>
  <rect fill="#1b9fd8" height="7" stroke-width="0" transform=" rotate(0, 200, 271)" width="7" x="197.2172" y="267.6965"/>
  <polygon fill="#1b9fd8" points="205.3483,273.6144 208.8483,266.6144 212.3483,273.6144" stroke-width="0" transform=" rotate(0, 208, 270)"/>
  <ellipse cx="219.6197" cy="270.7904" fill="#1b9fd8" rx="3.5" ry="3.5" stroke-width="0" transform=" rotate(0, 219, 270)"/>
  <rect fill="#1b9fd8" height="7" stroke-width="0" transform=" rotate(0, 228, 269)" width="7" x="225.2842" y="266.0768"/>
  <polygon fill="#1b9fd8" points="236.9567,274.1748 240.4567,267.1748 243.9567,274.1748" stroke-width="0" transform=" rotate(0, 240, 270)"/>
  <ellipse cx="248.6055" cy="270.4494" fill="#1b9fd8" rx="3.5" ry="3.5" stroke-width="0" transform=" rotate(0, 248, 270)"/>
  <rect fill="#1b9fd8" height="7" stroke-width="0" transform=" rotate(0, 260, 270)" width="7" x="256.7561" y="266.6909"/>
  <polygon fill="#1b9fd8" points="265.5033,274.1309 269.0033,267.1309 272.5033,274.1309" stroke-width="0" transform=" rotate(0, 269, 270)"/>
  <ellipse cx="281.017" cy="269.4839" fill="#1b9fd8" rx="3.5" ry="3.5" stroke-width="0" transform=" rotate(0, 281, 269)"/>
  <rect fill="#6dd6ff" height="5" stroke-width="0" transform=" rotate(0, 49, 280)" width="5" x="46.5003" y="277.7196"/>
  <polygon fill="#6dd6ff" points="58.2692,281.608 60.7692,276.608 63.2692,281.608" stroke-width="0" transform=" rotate(0, 60, 279)"/>
  <ellipse cx="69.708" cy="279.8046" fill="#6dd6ff" rx="2.5" ry="2.5" stroke-width="0" transform=" rotate(0, 69, 279)"/>
  <rect fill="#6dd6ff" height="5" stroke-width="0" transform=" rotate(0, 79, 280)" width="5" x="76.8733" y="278.1524"/>
  <polygon fill="#6dd6ff" points="87.6942,282.5813 90.1942,277.5813 92.6942,282.5813" stroke-width="0" transform=" rotate(0, 90, 280)"/>
  <ellipse cx="99.935" cy="279.6194" fill="#6dd6ff" rx="2.5" ry="2.5" stroke-width="0" transform=" rotate(0, 99, 279)"/>
  <rect fill="#6dd6ff" height="5" stroke-width="0" transform=" rotate(0, 110, 280)" width="5" x="108.0385" y="277.7759"/>
  <polygon fill="#6dd6ff" points="116.8815,282.7819 119.3815,277.7819 121.8815,282.7819" stroke-width="0" transform=" rotate(0, 119, 280)"/>
  <ellipse cx="129.0113" cy="279.0186" fill="#6dd6ff" rx="2.5" ry="2.5" stroke-width="0" transform=" rotate(0, 129, 279)"/>
  <rect fill="#6dd6ff" height="5" stroke-width="0" transform=" rotate(0, 139, 280)" width="5" x="137.4697" y="277.9875"/>
  <polygon fill="#6dd6ff" points="147.3125,281.8832 149.8125,276.8832 152.3125,281.8832" stroke-width="0" transform=" rotate(0, 149, 279)"/>
  <ellipse cx="160.2213" cy="280.7249" fill="#6dd6ff" rx="2.5" ry="2.5" stroke-width="0" transform=" rotate(0, 160, 280)"/>
  <rect fill="#6dd6ff" height="5" stroke-width="0" transform=" rotate(0, 169, 280)" width="5" x="166.6251" y="277.6513"/>
  <polygon fill="#6dd6ff" points="177.1753,283.385 179.6753,278.385 182.1753,283.385" stroke-width="0" transform=" rotate(0, 179, 280)"/>
  <ellipse cx="189.7664" cy="280.7699" fill="#6dd6ff" rx="2.5" ry="2.5" stroke-width="0" transform=" rotate(0, 189, 280)"/>
  <rect fill="#6dd6ff" height="5" stroke-width="0" transform=" rotate(0, 200, 279)" width="5" x="197.9156" y="277.0917"/>
  <polygon fill="#6dd6ff" points="207.5153,283.443 210.0153,278.443 212.5153,283.443" stroke-width="0" transform=" rotate(0, 210, 280)"/>
  <ellipse cx="219.7323" cy="279.4191" fill="#6dd6ff" rx="2.5" ry="2.5" stroke-width="0" transform=" rotate(0, 219, 279)"/>
  <rect fill="#6dd6ff" height="5" stroke-width="0" transform=" rotate(0, 230, 279)" width="5" x="227.9561" y="276.6173"/>
  <polygon fill="#6dd6ff" points="236.9832,283.3029 239.4832,278.3029 241.9832,283.3029" stroke-width="0" transform=" rotate(0, 239, 280)"/>
  <ellipse cx="249.0366" cy="280.7502" fill="#6dd6ff" rx="2.5" ry="2.5" stroke-width="0" transform=" rotate(0, 249, 280)"/>
  <rect fill="#6dd6ff" height="5" stroke-width="0" transform=" rotate(0, 259, 278)" width="5" x="257.4397" y="276.4863"/>
  <polygon fill="#6dd6ff" points="268.4213,282.8378 270.9213,277.8378 273.4213,282.8378" stroke-width="0" transform=" rotate(0, 270, 280)"/>
  <ellipse cx="280.3134" cy="280.051" fill="#6dd6ff" rx="2.5" ry="2.5" stroke-width="0" transform=" rotate(0, 280, 280)"/>
</svg>
