<?xml version="1.0" encoding="utf-8" ?>
<svg baseProfile="tiny" height="330" version="1.2" width="330" xmlns="http://www.w3.org/2000/svg" xmlns:ev="http://www.w3.org/2001/xml-events" xmlns:xlink="http://www.w3.org/1999/xlink">
  <defs/>
  <rect fill="white" height="330" width="330" x="0" y="0"/>
  <rect fill="#6dd6ff" height="7.5" stroke-width="0" transform=" rotate(0, 51, 52)" width="7.5" x="47.5092" y="48.4171"/>
  <polygon fill="#6dd6ff" points="63.5394,57.4811 67.2894,49.9811 71.0394,57.4811" stroke-width="0" transform=" rotate(0, 67, 53)"/>
  <ellipse cx="83.0948" cy="51.5315" fill="#6dd6ff" rx="3.75" ry="3.75" stroke-width="0" transform=" rotate(0, 83, 51)"/>
  <rect fill="#6dd6ff" height="7.5" stroke-width="0" transform=" rotate(0, 96, 53)" width="7.5" x="92.4036" y="49.7069"/>
  <polygon fill="#6dd6ff" points="109.8758,56.1311 113.6258,48.6311 117.3758,56.1311" stroke-width="0" transform=" rotate(0, 113, 52)"/>
  <ellipse cx="128.0938" cy="51.6977" fill="#6dd6ff" rx="3.75" ry="3.75" stroke-width="0" transform=" rotate(0, 128, 51)"/>
  <rect fill="#6dd6ff" height="7.5" stroke-width="0" transform=" rotate(0, 142, 53)" width="7.5" x="138.7458" y="49.2736"/>
  <polygon fill="#6dd6ff" points="152.4272,57.3902 156.1772,49.8902 159.9272,57.3902" stroke-width="0" transform=" rotate(0, 156, 53)"/>
  <ellipse cx="173.4704" cy="52.8857" fill="#6dd6ff" rx="3.75" ry="3.75" stroke-width="0" transform=" rotate(0, 173, 52)"/>
  <rect fill="#6dd6ff" height="7.5" stroke-width="0" transform=" rotate(0, 187, 52)" width="7.5" x="183.3538" y="48.3103"/>
  <polygon fill="#6dd6ff" points="197.7715,54.9046 201.5215,47.4046 205.2715,54.9046" stroke-width="0" transform=" rotate(0, 201, 51)"/>
  <ellipse cx="217.743" cy="52.6194" fill="#6dd6ff" rx="3.75" ry="3.75" stroke-width="0" transform=" rotate(0, 217, 52)"/>
  <rect fill="#6dd6ff" height="7.5" stroke-width="0" transform=" rotate(0, 233, 51)" width="7.5" x="230.0783" y="47.5324"/>
  <polygon fill="#6dd6ff" points="242.6773,56.5177 246.4273,49.0177 250.1773,56.5177" stroke-width="0" transform=" rotate(0, 246, 52)"/>
  <ellipse cx="262.6511" cy="53.182" fill="#6dd6ff" rx="3.75" ry="3.75" stroke-width="0" transform=" rotate(0, 262, 53)"/>
  <rect fill="#6dd6ff" height="7.5" stroke-width="0" transform=" rotate(0, 278, 52)" width="7.5" x="274.2728" y="48.4561"/>
  <rect fill="#1b9fd8" height="10.5" stroke-width="0" transform=" rotate(0, 50, 68)" width="10.5" x="45.7233" y="63.4911"/>
  <polygon fill="#1b9fd8" points="62.2805,72.0534 67.5305,61.5534 72.7805,72.0534" stroke-width="0" transform=" rotate(0, 67, 66)"/>
  <ellipse cx="83.1985" cy="65.5523" fill="#1b9fd8" rx="5.25" ry="5.25" stroke-width="0" transform=" rotate(0, 83, 65)"/>
  <rect fill="#1b9fd8" height="10.5" stroke-width="0" transform=" rotate(0, 97, 65)" width="10.5" x="92.0718" y="60.2662"/>
  <polygon fill="#1b9fd8" points="105.7778,74.2573 111.0278,63.7573 116.2778,74.2573" stroke-width="0" transform=" rotate(0, 111, 69)"/>
  <ellipse cx="128.1238" cy="68.3146" fill="#1b9fd8" rx="5.25" ry="5.25" stroke-width="0" transform=" rotate(0, 128, 68)"/>
  <rect fill="#1b9fd8" height="10.5" stroke-width="0" transform=" rotate(0, 142, 65)" width="10.5" x="136.9442" y="60.2432"/>
  <polygon fill="#1b9fd8" points="153.8521,73.2623 159.1021,62.7623 164.3521,73.2623" stroke-width="0" transform=" rotate(0, 159, 68)"/>
  <ellipse cx="172.2857" cy="68.9954" fill="#1b9fd8" rx="5.25" ry="5.25" stroke-width="0" transform=" rotate(0, 172, 68)"/>
  <rect fill="#1b9fd8" height="10.5" stroke-width="0" transform=" rotate(0, 187, 66)" width="10.5" x="182.5355" y="61.0822"/>
  <polygon fill="#1b9fd8" points="198.0359,72.0373 203.2859,61.5373 208.5359,72.0373" stroke-width="0" transform=" rotate(0, 203, 66)"/>
  <ellipse cx="216.4828" cy="66.9559" fill="#1b9fd8" rx="5.25" ry="5.25" stroke-width="0" transform=" rotate(0, 216, 66)"/>
  <rect fill="#1b9fd8" height="10.5" stroke-width="0" transform=" rotate(0, 233, 65)" width="10.5" x="227.9234" y="60.5357"/>
  <polygon fill="#1b9fd8" points="244.1549,74.7515 249.4049,64.2515 254.6549,74.7515" stroke-width="0" transform=" rotate(0, 249, 69)"/>
  <ellipse cx="260.5586" cy="69.5294" fill="#1b9fd8" rx="5.25" ry="5.25" stroke-width="0" transform=" rotate(0, 260, 69)"/>
  <rect fill="#1b9fd8" height="10.5" stroke-width="0" transform=" rotate(0, 276, 65)" width="10.5" x="271.7232" y="60.7184"/>
  <rect fill="#006ca1" height="13.5" stroke-width="0" transform=" rotate(0, 53, 81)" width="13.5" x="46.6929" y="75.1054"/>
  <polygon fill="#006ca1" points="60.499,91.7545 67.249,78.2545 73.999,91.7545" stroke-width="0" transform=" rotate(0, 67, 85)"/>
  <ellipse cx="84.9506" cy="84.6811" fill="#006ca1" rx="6.75" ry="6.75" stroke-width="0" transform=" rotate(0, 84, 84)"/>
  <rect fill="#006ca1" height="13.5" stroke-width="0" transform=" rotate(0, 98, 80)" width="13.5" x="91.7864" y="73.7758"/>
  <polygon fill="#006ca1" points="105.6973,89.0836 112.4473,75.5836 119.1973,89.0836" stroke-width="0" transform=" rotate(0, 112, 82)"/>
  <ellipse cx="129.8043" cy="82.0532" fill="#006ca1" rx="6.75" ry="6.75" stroke-width="0" transform=" rotate(0, 129, 82)"/>
  <rect fill="#006ca1" height="13.5" stroke-width="0" transform=" rotate(0, 143, 83)" width="13.5" x="136.5751" y="76.344"/>
  <polygon fill="#006ca1" points="151.385,89.189 158.135,75.689 164.885,89.189" stroke-width="0" transform=" rotate(0, 158, 82)"/>
  <ellipse cx="172.9169" cy="81.8258" fill="#006ca1" rx="6.75" ry="6.75" stroke-width="0" transform=" rotate(0, 172, 81)"/>
  <rect fill="#006ca1" height="13.5" stroke-width="0" transform=" rotate(0, 188, 80)" width="13.5" x="181.3464" y="74.0193"/>
  <polygon fill="#006ca1" points="196.5251,90.4932 203.2751,76.9932 210.0251,90.4932" stroke-width="0" transform=" rotate(0, 203, 83)"/>
  <ellipse cx="220.0394" cy="83.1032" fill="#006ca1" rx="6.75" ry="6.75" stroke-width="0" transform=" rotate(0, 220, 83)"/>
  <rect fill="#006ca1" height="13.5" stroke-width="0" transform=" rotate(0, 231, 80)" width="13.5" x="224.8328" y="73.3282"/>
  <polygon fill="#006ca1" points="243.0688,90.0551 249.8188,76.5551 256.5688,90.0551" stroke-width="0" transform=" rotate(0, 249, 83)"/>
  <ellipse cx="261.7724" cy="84.7703" fill="#006ca1" rx="6.75" ry="6.75" stroke-width="0" transform=" rotate(0, 261, 84)"/>
  <rect fill="#006ca1" height="13.5" stroke-width="0" transform=" rotate(0, 276, 82)" width="13.5" x="269.4301" y="75.8627"/>
  <rect fill="#6dd6ff" height="7.5" stroke-width="0" transform=" rotate(0, 51, 97)" width="7.5" x="47.4081" y="93.4657"/>
  <polygon fill="#6dd6ff" points="65.0199,101.9738 68.7699,94.4738 72.5199,101.9738" stroke-width="0" transform=" rotate(0, 68, 98)"/>
  <ellipse cx="81.3502" cy="98.0923" fill="#6dd6ff" rx="3.75" ry="3.75" stroke-width="0" transform=" rotate(0, 81, 98)"/>
  <rect fill="#6dd6ff" height="7.5" stroke-width="0" transform=" rotate(0, 97, 96)" width="7.5" x="93.35" y="92.7999"/>
  <polygon fill="#6dd6ff" points="109.9099,101.66 113.6599,94.16 117.4099,101.66" stroke-width="0" transform=" rotate(0, 113, 97)"/>
  <ellipse cx="128.1745" cy="98.4087" fill="#6dd6ff" rx="3.75" ry="3.75" stroke-width="0" transform=" rotate(0, 128, 98)"/>
  <rect fill="#6dd6ff" height="7.5" stroke-width="0" transform=" rotate(0, 141, 98)" width="7.5" x="137.9729" y="94.9547"/>
  <polygon fill="#6dd6ff" points="153.2714,100.5768 157.0214,93.0768 160.7714,100.5768" stroke-width="0" transform=" rotate(0, 157, 96)"/>
  <ellipse cx="172.2597" cy="97.0486" fill="#6dd6ff" rx="3.75" ry="3.75" stroke-width="0" transform=" rotate(0, 172, 97)"/>
  <rect fill="#6dd6ff" height="7.5" stroke-width="0" transform=" rotate(0, 186, 96)" width="7.5" x="183.1189" y="92.6191"/>
  <polygon fill="#6dd6ff" points="198.3941,99.9651 202.1441,92.4651 205.8941,99.9651" stroke-width="0" transform=" rotate(0, 202, 96)"/>
  <ellipse cx="216.731" cy="96.2937" fill="#6dd6ff" rx="3.75" ry="3.75" stroke-width="0" transform=" rotate(0, 216, 96)"/>
  <rect fill="#6dd6ff" height="7.5" stroke-width="0" transform=" rotate(0, 231, 98)" width="7.5" x="227.4371" y="95.0332"/>
  <polygon fill="#6dd6ff" points="244.8209,102.6673 248.5709,95.1673 252.3209,102.6673" stroke-width="0" transform=" rotate(0, 248, 98)"/>
  <ellipse cx="261.0269" cy="97.7259" fill="#6dd6ff" rx="3.75" ry="3.75" stroke-width="0" transform=" rotate(0, 261, 97)"/>
  <rect fill="#6dd6ff" height="7.5" stroke-width="0" transform=" rotate(0, 277, 97)" width="7.5" x="274.1708" y="93.695"/>
  <rect fill="#1b9fd8" height="10.5" stroke-width="0" transform=" rotate(0, 50, 114)" width="10.5" x="45.4999" y="109.0397"/>
  <polygon fill="#1b9fd8" points="61.924,119.8324 67.174,109.3324 72.424,119.8324" stroke-width="0" transform=" rotate(0, 67, 114)"/>
  <ellipse cx="80.6927" cy="113.4209" fill="#1b9fd8" rx="5.25" ry="5.25" stroke-width="0" transform=" rotate(0, 80, 113)"/>
  <rect fill="#1b9fd8" height="10.5" stroke-width="0" transform=" rotate(0, 98, 112)" width="10.5" x="93.4486" y="107.1477"/>
  <polygon fill="#1b9fd8" points="107.4514,118.9339 112.7014,108.4339 117.9514,118.9339" stroke-width="0" transform=" rotate(0, 112, 113)"/>
  <ellipse cx="126.8093" cy="112.231" fill="#1b9fd8" rx="5.25" ry="5.25" stroke-width="0" transform=" rotate(0, 126, 112)"/>
  <rect fill="#1b9fd8" height="10.5" stroke-width="0" transform=" rotate(0, 144, 112)" width="10.5" x="138.7798" y="106.8434"/>
  <polygon fill="#1b9fd8" points="151.6925,118.0852 156.9425,107.5852 162.1925,118.0852" stroke-width="0" transform=" rotate(0, 156, 112)"/>
  <ellipse cx="171.1273" cy="114.328" fill="#1b9fd8" rx="5.25" ry="5.25" stroke-width="0" transform=" rotate(0, 171, 114)"/>
  <rect fill="#1b9fd8" height="10.5" stroke-width="0" transform=" rotate(0, 187, 112)" width="10.5" x="182.1183" y="107.1154"/>
  <polygon fill="#1b9fd8" points="197.8123,118.0401 203.0623,107.5401 208.3123,118.0401" stroke-width="0" transform=" rotate(0, 203, 112)"/>
  <ellipse cx="216.0734" cy="111.8778" fill="#1b9fd8" rx="5.25" ry="5.25" stroke-width="0" transform=" rotate(0, 216, 111)"/>
  <rect fill="#1b9fd8" height="10.5" stroke-width="0" transform=" rotate(0, 231, 110)" width="10.5" x="226.7263" y="105.6734"/>
  <polygon fill="#1b9fd8" points="240.8599,119.0011 246.1099,108.5011 251.3599,119.0011" stroke-width="0" transform=" rotate(0, 246, 113)"/>
  <ellipse cx="261.0357" cy="112.621" fill="#1b9fd8" rx="5.25" ry="5.25" stroke-width="0" transform=" rotate(0, 261, 112)"/>
  <rect fill="#1b9fd8" height="10.5" stroke-width="0" transform=" rotate(0, 277, 110)" width="10.5" x="272.6814" y="105.5481"/>
  <rect fill="#006ca1" height="13.5" stroke-width="0" transform=" rotate(0, 53, 127)" width="13.5" x="46.7857" y="120.5631"/>
  <polygon fill="#006ca1" points="58.0532,136.9091 64.8032,123.4091 71.5532,136.9091" stroke-width="0" transform=" rotate(0, 64, 130)"/>
  <ellipse cx="81.1023" cy="125.8256" fill="#006ca1" rx="6.75" ry="6.75" stroke-width="0" transform=" rotate(0, 81, 125)"/>
  <rect fill="#006ca1" height="13.5" stroke-width="0" transform=" rotate(0, 95, 129)" width="13.5" x="88.573" y="122.8014"/>
  <polygon fill="#006ca1" points="107.2346,133.403 113.9846,119.903 120.7346,133.403" stroke-width="0" transform=" rotate(0, 113, 126)"/>
  <ellipse cx="130.1137" cy="125.2957" fill="#006ca1" rx="6.75" ry="6.75" stroke-width="0" transform=" rotate(0, 130, 125)"/>
  <rect fill="#006ca1" height="13.5" stroke-width="0" transform=" rotate(0, 140, 126)" width="13.5" x="133.7479" y="119.8258"/>
  <polygon fill="#006ca1" points="151.4862,135.1597 158.2362,121.6597 164.9862,135.1597" stroke-width="0" transform=" rotate(0, 158, 128)"/>
  <ellipse cx="174.0647" cy="129.3448" fill="#006ca1" rx="6.75" ry="6.75" stroke-width="0" transform=" rotate(0, 174, 129)"/>
  <rect fill="#006ca1" height="13.5" stroke-width="0" transform=" rotate(0, 185, 125)" width="13.5" x="178.5091" y="119.1302"/>
  <polygon fill="#006ca1" points="194.9115,136.2207 201.6615,122.7207 208.4115,136.2207" stroke-width="0" transform=" rotate(0, 201, 129)"/>
  <ellipse cx="216.7244" cy="126.4889" fill="#006ca1" rx="6.75" ry="6.75" stroke-width="0" transform=" rotate(0, 216, 126)"/>
  <rect fill="#006ca1" height="13.5" stroke-width="0" transform=" rotate(0, 230, 125)" width="13.5" x="223.7096" y="118.6568"/>
  <polygon fill="#006ca1" points="238.3017,136.4939 245.0517,122.9939 251.8017,136.4939" stroke-width="0" transform=" rotate(0, 245, 129)"/>
  <ellipse cx="260.793" cy="125.5694" fill="#006ca1" rx="6.75" ry="6.75" stroke-width="0" transform=" rotate(0, 260, 125)"/>
  <rect fill="#006ca1" height="13.5" stroke-width="0" transform=" rotate(0, 276, 128)" width="13.5" x="269.9782" y="122.1616"/>
  <rect fill="#6dd6ff" height="7.5" stroke-width="0" transform=" rotate(0, 52, 141)" width="7.5" x="48.3388" y="137.7508"/>
  <polygon fill="#6dd6ff" points="62.845,145.434 66.595,137.934 70.345,145.434" stroke-width="0" transform=" rotate(0, 66, 141)"/>
  <ellipse cx="83.0285" cy="142.1829" fill="#6dd6ff" rx="3.75" ry="3.75" stroke-width="0" transform=" rotate(0, 83, 142)"/>
  <rect fill="#6dd6ff" height="7.5" stroke-width="0" transform=" rotate(0, 97, 142)" width="7.5" x="93.2609" y="139.1999"/>
  <polygon fill="#6dd6ff" points="110.0936,145.9978 113.8436,138.4978 117.5936,145.9978" stroke-width="0" transform=" rotate(0, 113, 142)"/>
  <ellipse cx="127.6852" cy="143.097" fill="#6dd6ff" rx="3.75" ry="3.75" stroke-width="0" transform=" rotate(0, 127, 143)"/>
  <rect fill="#6dd6ff" height="7.5" stroke-width="0" transform=" rotate(0, 143, 142)" width="7.5" x="139.8268" y="138.9358"/>
  <polygon fill="#6dd6ff" points="152.5744,145.0422 156.3244,137.5422 160.0744,145.0422" stroke-width="0" transform=" rotate(0, 156, 141)"/>
  <ellipse cx="172.0316" cy="141.7932" fill="#6dd6ff" rx="3.75" ry="3.75" stroke-width="0" transform=" rotate(0, 172, 141)"/>
  <rect fill="#6dd6ff" height="7.5" stroke-width="0" transform=" rotate(0, 188, 141)" width="7.5" x="184.899" y="137.3836"/>
  <polygon fill="#6dd6ff" points="198.2942,147.1121 202.0442,139.6121 205.7942,147.1121" stroke-width="0" transform=" rotate(0, 202, 143)"/>
  <ellipse cx="216.2593" cy="142.415" fill="#6dd6ff" rx="3.75" ry="3.75" stroke-width="0" transform=" rotate(0, 216, 142)"/>
  <rect fill="#6dd6ff" height="7.5" stroke-width="0" transform=" rotate(0, 232, 142)" width="7.5" x="228.2863" y="138.9253"/>
  <polygon fill="#6dd6ff" points="244.1396,147.3352 247.8896,139.8352 251.6396,147.3352" stroke-width="0" transform=" rotate(0, 247, 143)"/>
  <ellipse cx="262.11" cy="141.017" fill="#6dd6ff" rx="3.75" ry="3.75" stroke-width="0" transform=" rotate(0, 262, 141)"/>
  <rect fill="#6dd6ff" height="7.5" stroke-width="0" transform=" rotate(0, 278, 142)" width="7.5" x="274.9982" y="138.2632"/>
  <rect fill="#1b9fd8" height="10.5" stroke-width="0" transform=" rotate(0, 51, 155)" width="10.5" x="45.9143" y="150.2928"/>
  <polygon fill="#1b9fd8" points="61.1094,161.3423 66.3594,150.8423 71.6094,161.3423" stroke-width="0" transform=" rotate(0, 66, 156)"/>
  <ellipse cx="84.419" cy="157.6324" fill="#1b9fd8" rx="5.25" ry="5.25" stroke-width="0" transform=" rotate(0, 84, 157)"/>
  <rect fill="#1b9fd8" height="10.5" stroke-width="0" transform=" rotate(0, 96, 157)" width="10.5" x="91.2118" y="152.0623"/>
  <polygon fill="#1b9fd8" points="108.5067,160.7755 113.7567,150.2755 119.0067,160.7755" stroke-width="0" transform=" rotate(0, 113, 155)"/>
  <ellipse cx="125.7258" cy="159.2292" fill="#1b9fd8" rx="5.25" ry="5.25" stroke-width="0" transform=" rotate(0, 125, 159)"/>
  <rect fill="#1b9fd8" height="10.5" stroke-width="0" transform=" rotate(0, 140, 159)" width="10.5" x="135.5396" y="154.2324"/>
  <polygon fill="#1b9fd8" points="151.3444,160.7621 156.5944,150.2621 161.8444,160.7621" stroke-width="0" transform=" rotate(0, 156, 155)"/>
  <ellipse cx="174.0174" cy="159.2524" fill="#1b9fd8" rx="5.25" ry="5.25" stroke-width="0" transform=" rotate(0, 174, 159)"/>
  <rect fill="#1b9fd8" height="10.5" stroke-width="0" transform=" rotate(0, 189, 158)" width="10.5" x="183.8657" y="152.7617"/>
  <polygon fill="#1b9fd8" points="198.7485,162.8424 203.9985,152.3424 209.2485,162.8424" stroke-width="0" transform=" rotate(0, 203, 157)"/>
  <ellipse cx="219.0953" cy="155.4686" fill="#1b9fd8" rx="5.25" ry="5.25" stroke-width="0" transform=" rotate(0, 219, 155)"/>
  <rect fill="#1b9fd8" height="10.5" stroke-width="0" transform=" rotate(0, 230, 156)" width="10.5" x="225.4363" y="151.7429"/>
  <polygon fill="#1b9fd8" points="241.6536,161.0735 246.9036,150.5735 252.1536,161.0735" stroke-width="0" transform=" rotate(0, 246, 155)"/>
  <ellipse cx="263.1904" cy="158.2027" fill="#1b9fd8" rx="5.25" ry="5.25" stroke-width="0" transform=" rotate(0, 263, 158)"/>
  <rect fill="#1b9fd8" height="10.5" stroke-width="0" transform=" rotate(0, 278, 158)" width="10.5" x="273.3323" y="152.7876"/>
  <rect fill="#1b9fd8" height="10.5" stroke-width="0" transform=" rotate(0, 53, 170)" width="10.5" x="48.2626" y="165.3869"/>
  <polygon fill="#1b9fd8" points="61.9802,176.8796 67.2302,166.3796 72.4802,176.8796" stroke-width="0" transform=" rotate(0, 67, 171)"/>
  <ellipse cx="83.4413" cy="171.1907" fill="#1b9fd8" rx="5.25" ry="5.25" stroke-width="0" transform=" rotate(0, 83, 171)"/>
  <rect fill="#1b9fd8" height="10.5" stroke-width="0" transform=" rotate(0, 98, 172)" width="10.5" x="93.1963" y="166.9254"/>
  <polygon fill="#1b9fd8" points="108.9768,178.5676 114.2268,168.0676 119.4768,178.5676" stroke-width="0" transform=" rotate(0, 114, 173)"/>
  <ellipse cx="125.4505" cy="173.8944" fill="#1b9fd8" rx="5.25" ry="5.25" stroke-width="0" transform=" rotate(0, 125, 173)"/>
  <rect fill="#1b9fd8" height="10.5" stroke-width="0" transform=" rotate(0, 143, 173)" width="10.5" x="138.3245" y="168.7039"/>
  <polygon fill="#1b9fd8" points="153.115,176.7201 158.365,166.2201 163.615,176.7201" stroke-width="0" transform=" rotate(0, 158, 171)"/>
  <ellipse cx="173.0342" cy="172.8067" fill="#1b9fd8" rx="5.25" ry="5.25" stroke-width="0" transform=" rotate(0, 173, 172)"/>
  <rect fill="#1b9fd8" height="10.5" stroke-width="0" transform=" rotate(0, 187, 172)" width="10.5" x="182.5827" y="166.9346"/>
  <polygon fill="#1b9fd8" points="196.0038,177.8632 201.2538,167.3632 206.5038,177.8632" stroke-width="0" transform=" rotate(0, 201, 172)"/>
  <ellipse cx="218.7721" cy="173.0988" fill="#1b9fd8" rx="5.25" ry="5.25" stroke-width="0" transform=" rotate(0, 218, 173)"/>
  <rect fill="#1b9fd8" height="10.5" stroke-width="0" transform=" rotate(0, 233, 171)" width="10.5" x="228.2267" y="165.8002"/>
  <polygon fill="#1b9fd8" points="240.8595,179.63 246.1095,169.13 251.3595,179.63" stroke-width="0" transform=" rotate(0, 246, 174)"/>
  <ellipse cx="260.7781" cy="173.7573" fill="#1b9fd8" rx="5.25" ry="5.25" stroke-width="0" transform=" rotate(0, 260, 173)"/>
  <rect fill="#1b9fd8" height="10.5" stroke-width="0" transform=" rotate(0, 279, 171)" width="10.5" x="273.9344" y="166.2621"/>
  <rect fill="#6dd6ff" height="7.5" stroke-width="0" transform=" rotate(0, 51, 187)" width="7.5" x="47.8657" y="183.284"/>
  <polygon fill="#6dd6ff" points="62.4593,191.7856 66.2093,184.2856 69.9593,191.7856" stroke-width="0" transform=" rotate(0, 66, 188)"/>
  <ellipse cx="80.9658" cy="188.9818" fill="#6dd6ff" rx="3.75" ry="3.75" stroke-width="0" transform=" rotate(0, 80, 188)"/>
  <rect fill="#6dd6ff" height="7.5" stroke-width="0" transform=" rotate(0, 97, 186)" width="7.5" x="94.1384" y="182.7184"/>
  <polygon fill="#6dd6ff" points="107.3459,192.669 111.0959,185.169 114.8459,192.669" stroke-width="0" transform=" rotate(0, 111, 188)"/>
  <ellipse cx="126.5267" cy="188.6374" fill="#6dd6ff" rx="3.75" ry="3.75" stroke-width="0" transform=" rotate(0, 126, 188)"/>
  <rect fill="#6dd6ff" height="7.5" stroke-width="0" transform=" rotate(0, 143, 186)" width="7.5" x="139.3778" y="182.5409"/>
  <polygon fill="#6dd6ff" points="154.2003,191.2812 157.9503,183.7812 161.7003,191.2812" stroke-width="0" transform=" rotate(0, 157, 187)"/>
  <ellipse cx="172.9251" cy="187.9153" fill="#6dd6ff" rx="3.75" ry="3.75" stroke-width="0" transform=" rotate(0, 172, 187)"/>
  <rect fill="#6dd6ff" height="7.5" stroke-width="0" transform=" rotate(0, 188, 188)" width="7.5" x="185.0488" y="185.0241"/>
  <polygon fill="#6dd6ff" points="199.1133,192.0365 202.8633,184.5365 206.6133,192.0365" stroke-width="0" transform=" rotate(0, 202, 188)"/>
  <ellipse cx="218.0661" cy="187.5561" fill="#6dd6ff" rx="3.75" ry="3.75" stroke-width="0" transform=" rotate(0, 218, 187)"/>
  <rect fill="#6dd6ff" height="7.5" stroke-width="0" transform=" rotate(0, 232, 186)" width="7.5" x="228.432" y="182.9754"/>
  <polygon fill="#6dd6ff" points="244.5282,191.6785 248.2782,184.1785 252.0282,191.6785" stroke-width="0" transform=" rotate(0, 248, 187)"/>
  <ellipse cx="261.8567" cy="186.5173" fill="#6dd6ff" rx="3.75" ry="3.75" stroke-width="0" transform=" rotate(0, 261, 186)"/>
  <rect fill="#6dd6ff" height="7.5" stroke-width="0" transform=" rotate(0, 278, 186)" width="7.5" x="275.0298" y="183.1913"/>
  <rect fill="#006ca1" height="13.5" stroke-width="0" transform=" rotate(0, 52, 201)" width="13.5" x="45.7669" y="195.1975"/>
  <polygon fill="#006ca1" points="59.6643,209.1565 66.4143,195.6565 73.1643,209.1565" stroke-width="0" transform=" rotate(0, 66, 202)"/>
  <ellipse cx="84.6793" cy="201.1835" fill="#006ca1" rx="6.75" ry="6.75" stroke-width="0" transform=" rotate(0, 84, 201)"/>
  <rect fill="#006ca1" height="13.5" stroke-width="0" transform=" rotate(0, 99, 202)" width="13.5" x="93.0411" y="195.4668"/>
  <polygon fill="#006ca1" points="107.8822,210.689 114.6322,197.189 121.3822,210.689" stroke-width="0" transform=" rotate(0, 114, 203)"/>
  <ellipse cx="125.5882" cy="201.1199" fill="#006ca1" rx="6.75" ry="6.75" stroke-width="0" transform=" rotate(0, 125, 201)"/>
  <rect fill="#006ca1" height="13.5" stroke-width="0" transform=" rotate(0, 141, 204)" width="13.5" x="135.2257" y="197.5638"/>
  <polygon fill="#006ca1" points="152.0435,211.7553 158.7935,198.2553 165.5435,211.7553" stroke-width="0" transform=" rotate(0, 158, 205)"/>
  <ellipse cx="173.2058" cy="203.8217" fill="#006ca1" rx="6.75" ry="6.75" stroke-width="0" transform=" rotate(0, 173, 203)"/>
  <rect fill="#006ca1" height="13.5" stroke-width="0" transform=" rotate(0, 187, 201)" width="13.5" x="180.6423" y="194.4897"/>
  <polygon fill="#006ca1" points="197.8345,209.1683 204.5845,195.6683 211.3345,209.1683" stroke-width="0" transform=" rotate(0, 204, 202)"/>
  <ellipse cx="215.8191" cy="203.6775" fill="#006ca1" rx="6.75" ry="6.75" stroke-width="0" transform=" rotate(0, 215, 203)"/>
  <rect fill="#006ca1" height="13.5" stroke-width="0" transform=" rotate(0, 231, 200)" width="13.5" x="225.0133" y="193.8674"/>
  <polygon fill="#006ca1" points="242.5631,210.9723 249.3131,197.4723 256.0631,210.9723" stroke-width="0" transform=" rotate(0, 249, 204)"/>
  <ellipse cx="263.4712" cy="200.8174" fill="#006ca1" rx="6.75" ry="6.75" stroke-width="0" transform=" rotate(0, 263, 200)"/>
  <rect fill="#006ca1" height="13.5" stroke-width="0" transform=" rotate(0, 279, 200)" width="13.5" x="273.228" y="193.4927"/>
  <rect fill="#1b9fd8" height="10.5" stroke-width="0" transform=" rotate(0, 52, 219)" width="10.5" x="47.6259" y="214.0839"/>
  <polygon fill="#1b9fd8" points="62.532,223.426 67.782,212.926 73.032,223.426" stroke-width="0" transform=" rotate(0, 67, 218)"/>
  <ellipse cx="82.299" cy="217.0394" fill="#1b9fd8" rx="5.25" ry="5.25" stroke-width="0" transform=" rotate(0, 82, 217)"/>
  <rect fill="#1b9fd8" height="10.5" stroke-width="0" transform=" rotate(0, 98, 219)" width="10.5" x="93.3071" y="213.9443"/>
  <polygon fill="#1b9fd8" points="105.1529,224.0484 110.4029,213.5484 115.6529,224.0484" stroke-width="0" transform=" rotate(0, 110, 218)"/>
  <ellipse cx="126.1364" cy="219.4547" fill="#1b9fd8" rx="5.25" ry="5.25" stroke-width="0" transform=" rotate(0, 126, 219)"/>
  <rect fill="#1b9fd8" height="10.5" stroke-width="0" transform=" rotate(0, 141, 217)" width="10.5" x="136.0578" y="212.6358"/>
  <polygon fill="#1b9fd8" points="152.2771,223.8782 157.5271,213.3782 162.7771,223.8782" stroke-width="0" transform=" rotate(0, 157, 218)"/>
  <ellipse cx="174.4499" cy="218.4673" fill="#1b9fd8" rx="5.25" ry="5.25" stroke-width="0" transform=" rotate(0, 174, 218)"/>
  <rect fill="#1b9fd8" height="10.5" stroke-width="0" transform=" rotate(0, 186, 215)" width="10.5" x="181.65" y="210.4683"/>
  <polygon fill="#1b9fd8" points="198.2292,222.7427 203.4792,212.2427 208.7292,222.7427" stroke-width="0" transform=" rotate(0, 203, 217)"/>
  <ellipse cx="217.7478" cy="218.547" fill="#1b9fd8" rx="5.25" ry="5.25" stroke-width="0" transform=" rotate(0, 217, 218)"/>
  <rect fill="#1b9fd8" height="10.5" stroke-width="0" transform=" rotate(0, 234, 215)" width="10.5" x="229.0781" y="210.5152"/>
  <polygon fill="#1b9fd8" points="243.1265,224.4995 248.3765,213.9995 253.6265,224.4995" stroke-width="0" transform=" rotate(0, 248, 219)"/>
  <ellipse cx="264.3509" cy="217.1521" fill="#1b9fd8" rx="5.25" ry="5.25" stroke-width="0" transform=" rotate(0, 264, 217)"/>
  <rect fill="#1b9fd8" height="10.5" stroke-width="0" transform=" rotate(0, 279, 218)" width="10.5" x="274.147" y="213.2422"/>
  <rect fill="#6dd6ff" height="7.5" stroke-width="0" transform=" rotate(0, 52, 231)" width="7.5" x="48.3434" y="228.0548"/>
  <polygon fill="#6dd6ff" points="64.3453,236.5813 68.0953,229.0813 71.8453,236.5813" stroke-width="0" transform=" rotate(0, 68, 232)"/>
  <ellipse cx="82.5018" cy="233.8504" fill="#6dd6ff" rx="3.75" ry="3.75" stroke-width="0" transform=" rotate(0, 82, 233)"/>
  <rect fill="#6dd6ff" height="7.5" stroke-width="0" transform=" rotate(0, 97, 232)" width="7.5" x="93.8094" y="228.7364"/>
  <polygon fill="#6dd6ff" points="110.1476,237.135 113.8976,229.635 117.6476,237.135" stroke-width="0" transform=" rotate(0, 113, 233)"/>
  <ellipse cx="127.6378" cy="231.2429" fill="#6dd6ff" rx="3.75" ry="3.75" stroke-width="0" transform=" rotate(0, 127, 231)"/>
  <rect fill="#6dd6ff" height="7.5" stroke-width="0" transform=" rotate(0, 143, 233)" width="7.5" x="139.512" y="230.026"/>
  <polygon fill="#6dd6ff" points="153.6231,235.7421 157.3731,228.2421 161.1231,235.7421" stroke-width="0" transform=" rotate(0, 157, 231)"/>
  <ellipse cx="172.6916" cy="231.7175" fill="#6dd6ff" rx="3.75" ry="3.75" stroke-width="0" transform=" rotate(0, 172, 231)"/>
  <rect fill="#6dd6ff" height="7.5" stroke-width="0" transform=" rotate(0, 186, 231)" width="7.5" x="183.2494" y="227.4282"/>
  <polygon fill="#6dd6ff" points="198.6632,235.4535 202.4132,227.9535 206.1632,235.4535" stroke-width="0" transform=" rotate(0, 202, 231)"/>
  <ellipse cx="216.5692" cy="231.3798" fill="#6dd6ff" rx="3.75" ry="3.75" stroke-width="0" transform=" rotate(0, 216, 231)"/>
  <rect fill="#6dd6ff" height="7.5" stroke-width="0" transform=" rotate(0, 232, 231)" width="7.5" x="228.4185" y="227.5216"/>
  <polygon fill="#6dd6ff" points="244.4084,234.8716 248.1584,227.3716 251.9084,234.8716" stroke-width="0" transform=" rotate(0, 248, 231)"/>
  <ellipse cx="263.2685" cy="231.0096" fill="#6dd6ff" rx="3.75" ry="3.75" stroke-width="0" transform=" rotate(0, 263, 231)"/>
  <rect fill="#6dd6ff" height="7.5" stroke-width="0" transform=" rotate(0, 276, 232)" width="7.5" x="272.6807" y="228.7766"/>
  <rect fill="#006ca1" height="13.5" stroke-width="0" transform=" rotate(0, 51, 249)" width="13.5" x="44.6924" y="242.4591"/>
  <polygon fill="#006ca1" points="61.5051,256.161 68.2551,242.661 75.0051,256.161" stroke-width="0" transform=" rotate(0, 68, 249)"/>
  <ellipse cx="84.8523" cy="246.3674" fill="#006ca1" rx="6.75" ry="6.75" stroke-width="0" transform=" rotate(0, 84, 246)"/>
  <rect fill="#006ca1" height="13.5" stroke-width="0" transform=" rotate(0, 95, 249)" width="13.5" x="89.1378" y="242.2997"/>
  <polygon fill="#006ca1" points="107.7677,254.7159 114.5177,241.2159 121.2677,254.7159" stroke-width="0" transform=" rotate(0, 114, 247)"/>
  <ellipse cx="126.4396" cy="245.358" fill="#006ca1" rx="6.75" ry="6.75" stroke-width="0" transform=" rotate(0, 126, 245)"/>
  <rect fill="#006ca1" height="13.5" stroke-width="0" transform=" rotate(0, 143, 246)" width="13.5" x="136.2548" y="239.5845"/>
  <polygon fill="#006ca1" points="148.7831,255.663 155.5331,242.163 162.2831,255.663" stroke-width="0" transform=" rotate(0, 155, 248)"/>
  <ellipse cx="170.4526" cy="245.5153" fill="#006ca1" rx="6.75" ry="6.75" stroke-width="0" transform=" rotate(0, 170, 245)"/>
  <rect fill="#006ca1" height="13.5" stroke-width="0" transform=" rotate(0, 187, 247)" width="13.5" x="180.9948" y="241.229"/>
  <polygon fill="#006ca1" points="197.3904,252.2077 204.1404,238.7077 210.8904,252.2077" stroke-width="0" transform=" rotate(0, 204, 245)"/>
  <ellipse cx="217.7649" cy="246.5133" fill="#006ca1" rx="6.75" ry="6.75" stroke-width="0" transform=" rotate(0, 217, 246)"/>
  <rect fill="#006ca1" height="13.5" stroke-width="0" transform=" rotate(0, 231, 247)" width="13.5" x="224.2595" y="240.7636"/>
  <polygon fill="#006ca1" points="239.742,252.0148 246.492,238.5148 253.242,252.0148" stroke-width="0" transform=" rotate(0, 246, 245)"/>
  <ellipse cx="261.0669" cy="250.0929" fill="#006ca1" rx="6.75" ry="6.75" stroke-width="0" transform=" rotate(0, 261, 250)"/>
  <rect fill="#006ca1" height="13.5" stroke-width="0" transform=" rotate(0, 276, 248)" width="13.5" x="270.189" y="241.5935"/>
  <rect fill="#1b9fd8" height="10.5" stroke-width="0" transform=" rotate(0, 54, 261)" width="10.5" x="48.9619" y="255.902"/>
  <polygon fill="#1b9fd8" points="61.762,266.0155 67.012,255.5155 72.262,266.0155" stroke-width="0" transform=" rotate(0, 67, 260)"/>
  <ellipse cx="82.9188" cy="262.7056" fill="#1b9fd8" rx="5.25" ry="5.25" stroke-width="0" transform=" rotate(0, 82, 262)"/>
  <rect fill="#1b9fd8" height="10.5" stroke-width="0" transform=" rotate(0, 97, 262)" width="10.5" x="91.9265" y="257.0793"/>
  <polygon fill="#1b9fd8" points="106.394,267.0384 111.644,256.5384 116.894,267.0384" stroke-width="0" transform=" rotate(0, 111, 261)"/>
  <ellipse cx="125.3417" cy="263.1674" fill="#1b9fd8" rx="5.25" ry="5.25" stroke-width="0" transform=" rotate(0, 125, 263)"/>
  <rect fill="#1b9fd8" height="10.5" stroke-width="0" transform=" rotate(0, 142, 264)" width="10.5" x="136.7948" y="258.9633"/>
  <polygon fill="#1b9fd8" points="153.4394,267.2943 158.6894,256.7943 163.9394,267.2943" stroke-width="0" transform=" rotate(0, 158, 262)"/>
  <ellipse cx="170.5547" cy="261.2026" fill="#1b9fd8" rx="5.25" ry="5.25" stroke-width="0" transform=" rotate(0, 170, 261)"/>
  <rect fill="#1b9fd8" height="10.5" stroke-width="0" transform=" rotate(0, 189, 263)" width="10.5" x="183.9732" y="257.9542"/>
  <polygon fill="#1b9fd8" points="196.9952,266.6392 202.2452,256.1392 207.4952,266.6392" stroke-width="0" transform=" rotate(0, 202, 261)"/>
  <ellipse cx="218.0423" cy="261.54" fill="#1b9fd8" rx="5.25" ry="5.25" stroke-width="0" transform=" rotate(0, 218, 261)"/>
  <rect fill="#1b9fd8" height="10.5" stroke-width="0" transform=" rotate(0, 232, 263)" width="10.5" x="227.4521" y="257.7698"/>
  <polygon fill="#1b9fd8" points="241.9275,269.6583 247.1775,259.1583 252.4275,269.6583" stroke-width="0" transform=" rotate(0, 247, 264)"/>
  <ellipse cx="263.9849" cy="260.3894" fill="#1b9fd8" rx="5.25" ry="5.25" stroke-width="0" transform=" rotate(0, 263, 260)"/>
  <rect fill="#1b9fd8" height="10.5" stroke-width="0" transform=" rotate(0, 275, 263)" width="10.5" x="270.2888" y="258.3247"/>
  <rect fill="#6dd6ff" height="7.5" stroke-width="0" transform=" rotate(0, 53, 278)" width="7.5" x="50.1279" y="275.1208"/>
  <polygon fill="#6dd6ff" points="63.5741,281.6009 67.3241,274.1009 71.0741,281.6009" stroke-width="0" transform=" rotate(0, 67, 277)"/>
  <ellipse cx="82.0856" cy="278.4002" fill="#6dd6ff" rx="3.75" ry="3.75" stroke-width="0" transform=" rotate(0, 82, 278)"/>
  <rect fill="#6dd6ff" height="7.5" stroke-width="0" transform=" rotate(0, 96, 277)" width="7.5" x="92.93" y="273.6365"/>
  <polygon fill="#6dd6ff" points="109.7904,282.2985 113.5404,274.7985 117.2904,282.2985" stroke-width="0" transform=" rotate(0, 113, 278)"/>
  <ellipse cx="126.5824" cy="278.0883" fill="#6dd6ff" rx="3.75" ry="3.75" stroke-width="0" transform=" rotate(0, 126, 278)"/>
  <rect fill="#6dd6ff" height="7.5" stroke-width="0" transform=" rotate(0, 142, 278)" width="7.5" x="138.8741" y="274.2977"/>
  <polygon fill="#6dd6ff" points="154.512,279.8256 158.262,272.3256 162.012,279.8256" stroke-width="0" transform=" rotate(0, 158, 276)"/>
  <ellipse cx="173.3966" cy="278.5995" fill="#6dd6ff" rx="3.75" ry="3.75" stroke-width="0" transform=" rotate(0, 173, 278)"/>
  <rect fill="#6dd6ff" height="7.5" stroke-width="0" transform=" rotate(0, 187, 276)" width="7.5" x="183.4664" y="272.9367"/>
  <polygon fill="#6dd6ff" points="199.3175,282.7157 203.0675,275.2157 206.8175,282.7157" stroke-width="0" transform=" rotate(0, 203, 278)"/>
  <ellipse cx="216.9316" cy="276.4382" fill="#6dd6ff" rx="3.75" ry="3.75" stroke-width="0" transform=" rotate(0, 216, 276)"/>
  <rect fill="#6dd6ff" height="7.5" stroke-width="0" transform=" rotate(0, 231, 278)" width="7.5" x="227.8866" y="274.4801"/>
  <polygon fill="#6dd6ff" points="243.2027,280.0881 246.9527,272.5881 250.7027,280.0881" stroke-width="0" transform=" rotate(0, 246, 276)"/>
  <ellipse cx="261.4316" cy="277.4467" fill="#6dd6ff" rx="3.75" ry="3.75" stroke-width="0" transform=" rotate(0, 261, 277)"/>
  <rect fill="#6dd6ff" height="7.5" stroke-width="0" transform=" rotate(0, 276, 276)" width="7.5" x="272.5939" y="273.0758"/>
</svg>
