<?xml version="1.0" encoding="utf-8" ?>
<svg baseProfile="tiny" height="330" version="1.2" width="330" xmlns="http://www.w3.org/2000/svg" xmlns:ev="http://www.w3.org/2001/xml-events" xmlns:xlink="http://www.w3.org/1999/xlink">
  <defs/>
  <rect fill="white" height="330" width="330" x="0" y="0"/>
  <rect fill="#6dd6ff" height="7.5" stroke-width="0" transform=" rotate(0, 47, 51)" width="7.5" x="43.8892" y="47.4557"/>
  <polygon fill="#6dd6ff" points="63.0102,61.2118 66.7602,53.7118 70.5102,61.2118" stroke-width="0" transform=" rotate(0, 66, 57)"/>
  <ellipse cx="84.9816" cy="48.6634" fill="#6dd6ff" rx="3.75" ry="3.75" stroke-width="0" transform=" rotate(0, 84, 48)"/>
  <rect fill="#6dd6ff" height="7.5" stroke-width="0" transform=" rotate(0, 92, 56)" width="7.5" x="88.4668" y="52.6151"/>
  <polygon fill="#6dd6ff" points="113.3557,55.8117 117.1057,48.3117 120.8557,55.8117" stroke-width="0" transform=" rotate(0, 117, 52)"/>
  <ellipse cx="129.9775" cy="49.3283" fill="#6dd6ff" rx="3.75" ry="3.75" stroke-width="0" transform=" rotate(0, 129, 49)"/>
  <rect fill="#6dd6ff" height="7.5" stroke-width="0" transform=" rotate(0, 142, 54)" width="7.5" x="138.8359" y="50.8817"/>
  <polygon fill="#6dd6ff" points="148.5613,60.8483 152.3113,53.3483 156.0613,60.8483" stroke-width="0" transform=" rotate(0, 152, 57)"/>
  <ellipse cx="176.4841" cy="54.0801" fill="#6dd6ff" rx="3.75" ry="3.75" stroke-width="0" transform=" rotate(0, 176, 54)"/>
  <rect fill="#6dd6ff" height="7.5" stroke-width="0" transform=" rotate(0, 186, 50)" width="7.5" x="182.2678" y="47.0284"/>
  <polygon fill="#6dd6ff" points="194.9384,50.9058 198.6884,43.4058 202.4384,50.9058" stroke-width="0" transform=" rotate(0, 198, 47)"/>
  <ellipse cx="218.5744" cy="53.0151" fill="#6dd6ff" rx="3.75" ry="3.75" stroke-width="0" transform=" rotate(0, 218, 53)"/>
  <rect fill="#6dd6ff" height="7.5" stroke-width="0" transform=" rotate(0, 237, 47)" width="7.5" x="234.1658" y="43.9171"/>
  <polygon fill="#6dd6ff" points="239.5619,57.3582 243.3119,49.8582 247.0619,57.3582" stroke-width="0" transform=" rotate(0, 243, 53)"/>
  <ellipse cx="263.207" cy="55.2652" fill="#6dd6ff" rx="3.75" ry="3.75" stroke-width="0" transform=" rotate(0, 263, 55)"/>
  <rect fill="#6dd6ff" height="7.5" stroke-width="0" transform=" rotate(0, 279, 51)" width="7.5" x="275.9436" y="47.6118"/>
  <rect fill="#1b9fd8" height="10.5" stroke-width="0" transform=" rotate(0, 48, 71)" width="10.5" x="42.916" y="65.819"/>
  <polygon fill="#1b9fd8" points="62.3652,70.7828 67.6152,60.2828 72.8652,70.7828" stroke-width="0" transform=" rotate(0, 67, 65)"/>
  <ellipse cx="84.5238" cy="61.9583" fill="#1b9fd8" rx="5.25" ry="5.25" stroke-width="0" transform=" rotate(0, 84, 61)"/>
  <rect fill="#1b9fd8" height="10.5" stroke-width="0" transform=" rotate(0, 97, 61)" width="10.5" x="91.7691" y="56.6052"/>
  <polygon fill="#1b9fd8" points="103.0719,77.0797 108.3219,66.5797 113.5719,77.0797" stroke-width="0" transform=" rotate(0, 108, 71)"/>
  <ellipse cx="129.3105" cy="69.8505" fill="#1b9fd8" rx="5.25" ry="5.25" stroke-width="0" transform=" rotate(0, 129, 69)"/>
  <rect fill="#1b9fd8" height="10.5" stroke-width="0" transform=" rotate(0, 141, 61)" width="10.5" x="136.4043" y="56.5395"/>
  <polygon fill="#1b9fd8" points="156.8555,74.2367 162.1055,63.7367 167.3555,74.2367" stroke-width="0" transform=" rotate(0, 162, 68)"/>
  <ellipse cx="171.9159" cy="71.7956" fill="#1b9fd8" rx="5.25" ry="5.25" stroke-width="0" transform=" rotate(0, 171, 71)"/>
  <rect fill="#1b9fd8" height="10.5" stroke-width="0" transform=" rotate(0, 188, 64)" width="10.5" x="183.0938" y="58.9364"/>
  <polygon fill="#1b9fd8" points="199.5235,70.7369 204.7735,60.2369 210.0235,70.7369" stroke-width="0" transform=" rotate(0, 204, 65)"/>
  <ellipse cx="214.6217" cy="65.9686" fill="#1b9fd8" rx="5.25" ry="5.25" stroke-width="0" transform=" rotate(0, 214, 65)"/>
  <rect fill="#1b9fd8" height="10.5" stroke-width="0" transform=" rotate(0, 234, 62)" width="10.5" x="229.202" y="57.3751"/>
  <polygon fill="#1b9fd8" points="247.7208,78.4918 252.9708,67.9918 258.2208,78.4918" stroke-width="0" transform=" rotate(0, 252, 73)"/>
  <ellipse cx="256.9814" cy="73.3216" fill="#1b9fd8" rx="5.25" ry="5.25" stroke-width="0" transform=" rotate(0, 256, 73)"/>
  <rect fill="#1b9fd8" height="10.5" stroke-width="0" transform=" rotate(0, 276, 63)" width="10.5" x="270.773" y="57.8971"/>
  <rect fill="#006ca1" height="13.5" stroke-width="0" transform=" rotate(0, 54, 81)" width="13.5" x="47.8321" y="74.3327"/>
  <polygon fill="#006ca1" points="60.179,94.8308 66.929,81.3308 73.679,94.8308" stroke-width="0" transform=" rotate(0, 66, 88)"/>
  <ellipse cx="87.9326" cy="87.3621" fill="#006ca1" rx="6.75" ry="6.75" stroke-width="0" transform=" rotate(0, 87, 87)"/>
  <rect fill="#006ca1" height="13.5" stroke-width="0" transform=" rotate(0, 99, 78)" width="13.5" x="93.0399" y="71.378"/>
  <polygon fill="#006ca1" points="105.6197,88.8954 112.3697,75.3954 119.1197,88.8954" stroke-width="0" transform=" rotate(0, 112, 82)"/>
  <ellipse cx="132.6075" cy="81.5222" fill="#006ca1" rx="6.75" ry="6.75" stroke-width="0" transform=" rotate(0, 132, 81)"/>
  <rect fill="#006ca1" height="13.5" stroke-width="0" transform=" rotate(0, 144, 83)" width="13.5" x="137.5703" y="77.0853"/>
  <polygon fill="#006ca1" points="152.1479,89.1296 158.8979,75.6296 165.6479,89.1296" stroke-width="0" transform=" rotate(0, 158, 82)"/>
  <ellipse cx="173.4133" cy="81.017" fill="#006ca1" rx="6.75" ry="6.75" stroke-width="0" transform=" rotate(0, 173, 81)"/>
  <rect fill="#006ca1" height="13.5" stroke-width="0" transform=" rotate(0, 188, 78)" width="13.5" x="182.0621" y="71.9192"/>
  <polygon fill="#006ca1" points="197.4592,92.028 204.2092,78.528 210.9592,92.028" stroke-width="0" transform=" rotate(0, 204, 85)"/>
  <ellipse cx="223.1299" cy="83.8556" fill="#006ca1" rx="6.75" ry="6.75" stroke-width="0" transform=" rotate(0, 223, 83)"/>
  <rect fill="#006ca1" height="13.5" stroke-width="0" transform=" rotate(0, 230, 77)" width="13.5" x="223.6987" y="70.3835"/>
  <polygon fill="#006ca1" points="245.8897,91.0543 252.6397,77.5543 259.3897,91.0543" stroke-width="0" transform=" rotate(0, 252, 84)"/>
  <ellipse cx="260.8699" cy="87.5603" fill="#006ca1" rx="6.75" ry="6.75" stroke-width="0" transform=" rotate(0, 260, 87)"/>
  <rect fill="#006ca1" height="13.5" stroke-width="0" transform=" rotate(0, 274, 82)" width="13.5" x="267.8036" y="76.0157"/>
  <rect fill="#6dd6ff" height="7.5" stroke-width="0" transform=" rotate(0, 47, 96)" width="7.5" x="43.4849" y="92.6503"/>
  <polygon fill="#6dd6ff" points="68.932,104.1826 72.682,96.6826 76.432,104.1826" stroke-width="0" transform=" rotate(0, 72, 100)"/>
  <ellipse cx="78.0033" cy="99.9067" fill="#6dd6ff" rx="3.75" ry="3.75" stroke-width="0" transform=" rotate(0, 78, 99)"/>
  <rect fill="#6dd6ff" height="7.5" stroke-width="0" transform=" rotate(0, 96, 93)" width="7.5" x="92.2525" y="89.9869"/>
  <polygon fill="#6dd6ff" points="113.492,102.9274 117.242,95.4274 120.992,102.9274" stroke-width="0" transform=" rotate(0, 117, 99)"/>
  <ellipse cx="130.3005" cy="101.1723" fill="#6dd6ff" rx="3.75" ry="3.75" stroke-width="0" transform=" rotate(0, 130, 101)"/>
  <rect fill="#6dd6ff" height="7.5" stroke-width="0" transform=" rotate(0, 139, 102)" width="7.5" x="135.7441" y="98.6064"/>
  <polygon fill="#6dd6ff" points="151.9383,98.5947 155.6883,91.0947 159.4383,98.5947" stroke-width="0" transform=" rotate(0, 155, 94)"/>
  <ellipse cx="171.6411" cy="95.7318" fill="#6dd6ff" rx="3.75" ry="3.75" stroke-width="0" transform=" rotate(0, 171, 95)"/>
  <rect fill="#6dd6ff" height="7.5" stroke-width="0" transform=" rotate(0, 185, 93)" width="7.5" x="181.3282" y="89.2636"/>
  <polygon fill="#6dd6ff" points="197.4289,96.1478 201.1789,88.6478 204.9289,96.1478" stroke-width="0" transform=" rotate(0, 201, 92)"/>
  <ellipse cx="214.5265" cy="92.712" fill="#6dd6ff" rx="3.75" ry="3.75" stroke-width="0" transform=" rotate(0, 214, 92)"/>
  <rect fill="#6dd6ff" height="7.5" stroke-width="0" transform=" rotate(0, 227, 102)" width="7.5" x="223.6008" y="98.9202"/>
  <polygon fill="#6dd6ff" points="248.136,106.9565 251.886,99.4565 255.636,106.9565" stroke-width="0" transform=" rotate(0, 251, 103)"/>
  <ellipse cx="256.7102" cy="98.4408" fill="#6dd6ff" rx="3.75" ry="3.75" stroke-width="0" transform=" rotate(0, 256, 98)"/>
  <rect fill="#6dd6ff" height="7.5" stroke-width="0" transform=" rotate(0, 279, 97)" width="7.5" x="275.5359" y="93.5675"/>
  <rect fill="#1b9fd8" height="10.5" stroke-width="0" transform=" rotate(0, 47, 117)" width="10.5" x="42.2779" y="112.3865"/>
  <polygon fill="#1b9fd8" points="61.3466,123.7228 66.5966,113.2228 71.8466,123.7228" stroke-width="0" transform=" rotate(0, 66, 118)"/>
  <ellipse cx="77.3643" cy="115.1543" fill="#1b9fd8" rx="5.25" ry="5.25" stroke-width="0" transform=" rotate(0, 77, 115)"/>
  <rect fill="#1b9fd8" height="10.5" stroke-width="0" transform=" rotate(0, 100, 112)" width="10.5" x="95.7027" y="106.9807"/>
  <polygon fill="#1b9fd8" points="107.8535,121.1556 113.1035,110.6556 118.3535,121.1556" stroke-width="0" transform=" rotate(0, 113, 115)"/>
  <ellipse cx="125.5546" cy="111.7545" fill="#1b9fd8" rx="5.25" ry="5.25" stroke-width="0" transform=" rotate(0, 125, 111)"/>
  <rect fill="#1b9fd8" height="10.5" stroke-width="0" transform=" rotate(0, 146, 111)" width="10.5" x="141.6489" y="106.1114"/>
  <polygon fill="#1b9fd8" points="150.6854,118.7309 155.9354,108.2309 161.1854,118.7309" stroke-width="0" transform=" rotate(0, 155, 113)"/>
  <ellipse cx="168.6061" cy="117.746" fill="#1b9fd8" rx="5.25" ry="5.25" stroke-width="0" transform=" rotate(0, 168, 117)"/>
  <rect fill="#1b9fd8" height="10.5" stroke-width="0" transform=" rotate(0, 187, 112)" width="10.5" x="181.9018" y="106.8884"/>
  <polygon fill="#1b9fd8" points="198.8847,118.6019 204.1347,108.1019 209.3847,118.6019" stroke-width="0" transform=" rotate(0, 204, 113)"/>
  <ellipse cx="213.4523" cy="110.7454" fill="#1b9fd8" rx="5.25" ry="5.25" stroke-width="0" transform=" rotate(0, 213, 110)"/>
  <rect fill="#1b9fd8" height="10.5" stroke-width="0" transform=" rotate(0, 231, 108)" width="10.5" x="225.7819" y="102.7685"/>
  <polygon fill="#1b9fd8" points="238.3063,121.3477 243.5563,110.8477 248.8063,121.3477" stroke-width="0" transform=" rotate(0, 243, 116)"/>
  <ellipse cx="258.3444" cy="112.869" fill="#1b9fd8" rx="5.25" ry="5.25" stroke-width="0" transform=" rotate(0, 258, 112)"/>
  <rect fill="#1b9fd8" height="10.5" stroke-width="0" transform=" rotate(0, 278, 107)" width="10.5" x="273.5107" y="102.4106"/>
  <rect fill="#006ca1" height="13.5" stroke-width="0" transform=" rotate(0, 54, 127)" width="13.5" x="48.0385" y="120.3499"/>
  <polygon fill="#006ca1" points="54.744,140.1744 61.494,126.6744 68.244,140.1744" stroke-width="0" transform=" rotate(0, 61, 133)"/>
  <ellipse cx="79.3807" cy="123.7943" fill="#006ca1" rx="6.75" ry="6.75" stroke-width="0" transform=" rotate(0, 79, 123)"/>
  <rect fill="#006ca1" height="13.5" stroke-width="0" transform=" rotate(0, 92, 132)" width="13.5" x="85.899" y="125.3239"/>
  <polygon fill="#006ca1" points="109.0359,132.3829 115.7859,118.8829 122.5359,132.3829" stroke-width="0" transform=" rotate(0, 115, 125)"/>
  <ellipse cx="133.2949" cy="122.6168" fill="#006ca1" rx="6.75" ry="6.75" stroke-width="0" transform=" rotate(0, 133, 122)"/>
  <rect fill="#006ca1" height="13.5" stroke-width="0" transform=" rotate(0, 138, 125)" width="13.5" x="131.2877" y="118.7115"/>
  <polygon fill="#006ca1" points="152.3729,136.2867 159.1229,122.7867 165.8729,136.2867" stroke-width="0" transform=" rotate(0, 159, 129)"/>
  <ellipse cx="175.964" cy="131.6148" fill="#006ca1" rx="6.75" ry="6.75" stroke-width="0" transform=" rotate(0, 175, 131)"/>
  <rect fill="#006ca1" height="13.5" stroke-width="0" transform=" rotate(0, 182, 123)" width="13.5" x="175.757" y="117.1657"/>
  <polygon fill="#006ca1" points="193.8736,138.6446 200.6236,125.1446 207.3736,138.6446" stroke-width="0" transform=" rotate(0, 200, 131)"/>
  <ellipse cx="215.7632" cy="125.2683" fill="#006ca1" rx="6.75" ry="6.75" stroke-width="0" transform=" rotate(0, 215, 125)"/>
  <rect fill="#006ca1" height="13.5" stroke-width="0" transform=" rotate(0, 227, 122)" width="13.5" x="221.2026" y="116.1136"/>
  <polygon fill="#006ca1" points="235.2961,139.2518 242.0461,125.7518 248.7961,139.2518" stroke-width="0" transform=" rotate(0, 242, 132)"/>
  <ellipse cx="258.6934" cy="123.225" fill="#006ca1" rx="6.75" ry="6.75" stroke-width="0" transform=" rotate(0, 258, 123)"/>
  <rect fill="#006ca1" height="13.5" stroke-width="0" transform=" rotate(0, 275, 130)" width="13.5" x="269.0217" y="123.9022"/>
  <rect fill="#6dd6ff" height="7.5" stroke-width="0" transform=" rotate(0, 50, 138)" width="7.5" x="47.2076" y="134.7907"/>
  <polygon fill="#6dd6ff" points="60.2325,143.0233 63.9825,135.5233 67.7325,143.0233" stroke-width="0" transform=" rotate(0, 63, 139)"/>
  <ellipse cx="84.7164" cy="141.2688" fill="#6dd6ff" rx="3.75" ry="3.75" stroke-width="0" transform=" rotate(0, 84, 141)"/>
  <rect fill="#6dd6ff" height="7.5" stroke-width="0" transform=" rotate(0, 95, 144)" width="7.5" x="91.896" y="140.5869"/>
  <polygon fill="#6dd6ff" points="114.227,145.2785 117.977,137.7785 121.727,145.2785" stroke-width="0" transform=" rotate(0, 117, 141)"/>
  <ellipse cx="128.3434" cy="144.9256" fill="#6dd6ff" rx="3.75" ry="3.75" stroke-width="0" transform=" rotate(0, 128, 144)"/>
  <rect fill="#6dd6ff" height="7.5" stroke-width="0" transform=" rotate(0, 146, 143)" width="7.5" x="143.1599" y="139.5305"/>
  <polygon fill="#6dd6ff" points="149.1501,141.4563 152.9001,133.9563 156.6501,141.4563" stroke-width="0" transform=" rotate(0, 152, 137)"/>
  <ellipse cx="170.7287" cy="139.7104" fill="#6dd6ff" rx="3.75" ry="3.75" stroke-width="0" transform=" rotate(0, 170, 139)"/>
  <rect fill="#6dd6ff" height="7.5" stroke-width="0" transform=" rotate(0, 192, 137)" width="7.5" x="188.4485" y="133.322"/>
  <polygon fill="#6dd6ff" points="197.0292,149.7357 200.7792,142.2357 204.5292,149.7357" stroke-width="0" transform=" rotate(0, 200, 145)"/>
  <ellipse cx="212.6397" cy="142.1975" fill="#6dd6ff" rx="3.75" ry="3.75" stroke-width="0" transform=" rotate(0, 212, 142)"/>
  <rect fill="#6dd6ff" height="7.5" stroke-width="0" transform=" rotate(0, 230, 143)" width="7.5" x="226.9977" y="139.4886"/>
  <polygon fill="#6dd6ff" points="245.4108,150.6284 249.1608,143.1284 252.9108,150.6284" stroke-width="0" transform=" rotate(0, 249, 146)"/>
  <ellipse cx="261.0427" cy="136.6054" fill="#6dd6ff" rx="3.75" ry="3.75" stroke-width="0" transform=" rotate(0, 261, 136)"/>
  <rect fill="#6dd6ff" height="7.5" stroke-width="0" transform=" rotate(0, 282, 140)" width="7.5" x="278.8451" y="136.8402"/>
  <rect fill="#1b9fd8" height="10.5" stroke-width="0" transform=" rotate(0, 48, 151)" width="10.5" x="43.4618" y="146.681"/>
  <polygon fill="#1b9fd8" points="59.0194,158.7512 64.2694,148.2512 69.5194,158.7512" stroke-width="0" transform=" rotate(0, 64, 153)"/>
  <ellipse cx="88.011" cy="157.9013" fill="#1b9fd8" rx="5.25" ry="5.25" stroke-width="0" transform=" rotate(0, 88, 157)"/>
  <rect fill="#1b9fd8" height="10.5" stroke-width="0" transform=" rotate(0, 94, 156)" width="10.5" x="89.312" y="151.7368"/>
  <polygon fill="#1b9fd8" points="110.8686,157.1318 116.1186,146.6318 121.3686,157.1318" stroke-width="0" transform=" rotate(0, 116, 151)"/>
  <ellipse cx="122.4589" cy="162.4637" fill="#1b9fd8" rx="5.25" ry="5.25" stroke-width="0" transform=" rotate(0, 122, 162)"/>
  <rect fill="#1b9fd8" height="10.5" stroke-width="0" transform=" rotate(0, 137, 163)" width="10.5" x="132.3914" y="157.9372"/>
  <polygon fill="#1b9fd8" points="149.6906,157.0934 154.9406,146.5934 160.1906,157.0934" stroke-width="0" transform=" rotate(0, 154, 151)"/>
  <ellipse cx="176.8635" cy="162.5301" fill="#1b9fd8" rx="5.25" ry="5.25" stroke-width="0" transform=" rotate(0, 176, 162)"/>
  <rect fill="#1b9fd8" height="10.5" stroke-width="0" transform=" rotate(0, 192, 158)" width="10.5" x="186.8945" y="153.735"/>
  <polygon fill="#1b9fd8" points="201.5596,163.0372 206.8096,152.5372 212.0596,163.0372" stroke-width="0" transform=" rotate(0, 206, 157)"/>
  <ellipse cx="222.0861" cy="151.7191" fill="#1b9fd8" rx="5.25" ry="5.25" stroke-width="0" transform=" rotate(0, 222, 151)"/>
  <rect fill="#1b9fd8" height="10.5" stroke-width="0" transform=" rotate(0, 227, 156)" width="10.5" x="222.0961" y="150.8244"/>
  <polygon fill="#1b9fd8" points="240.5742,157.983 245.8242,147.483 251.0742,157.983" stroke-width="0" transform=" rotate(0, 245, 152)"/>
  <ellipse cx="264.5007" cy="159.5308" fill="#1b9fd8" rx="5.25" ry="5.25" stroke-width="0" transform=" rotate(0, 264, 159)"/>
  <rect fill="#1b9fd8" height="10.5" stroke-width="0" transform=" rotate(0, 280, 159)" width="10.5" x="275.3705" y="153.8091"/>
  <rect fill="#1b9fd8" height="10.5" stroke-width="0" transform=" rotate(0, 55, 167)" width="10.5" x="50.1712" y="161.9499"/>
  <polygon fill="#1b9fd8" points="61.5073,175.2863 66.7573,164.7863 72.0073,175.2863" stroke-width="0" transform=" rotate(0, 66, 170)"/>
  <ellipse cx="85.2176" cy="168.7822" fill="#1b9fd8" rx="5.25" ry="5.25" stroke-width="0" transform=" rotate(0, 85, 168)"/>
  <rect fill="#1b9fd8" height="10.5" stroke-width="0" transform=" rotate(0, 100, 171)" width="10.5" x="94.9818" y="166.3456"/>
  <polygon fill="#1b9fd8" points="112.2118,180.1093 117.4618,169.6093 122.7118,180.1093" stroke-width="0" transform=" rotate(0, 117, 174)"/>
  <ellipse cx="121.6725" cy="176.507" fill="#1b9fd8" rx="5.25" ry="5.25" stroke-width="0" transform=" rotate(0, 121, 176)"/>
  <rect fill="#1b9fd8" height="10.5" stroke-width="0" transform=" rotate(0, 145, 176)" width="10.5" x="140.3481" y="171.4271"/>
  <polygon fill="#1b9fd8" points="154.7496,174.8306 159.9996,164.3306 165.2496,174.8306" stroke-width="0" transform=" rotate(0, 159, 169)"/>
  <ellipse cx="174.0543" cy="173.3994" fill="#1b9fd8" rx="5.25" ry="5.25" stroke-width="0" transform=" rotate(0, 174, 173)"/>
  <rect fill="#1b9fd8" height="10.5" stroke-width="0" transform=" rotate(0, 188, 171)" width="10.5" x="183.2288" y="166.372"/>
  <polygon fill="#1b9fd8" points="193.7176,178.0964 198.9676,167.5964 204.2176,178.0964" stroke-width="0" transform=" rotate(0, 198, 172)"/>
  <ellipse cx="221.1627" cy="174.2341" fill="#1b9fd8" rx="5.25" ry="5.25" stroke-width="0" transform=" rotate(0, 221, 174)"/>
  <rect fill="#1b9fd8" height="10.5" stroke-width="0" transform=" rotate(0, 235, 168)" width="10.5" x="230.0687" y="163.1309"/>
  <polygon fill="#1b9fd8" points="238.3053,183.1445 243.5553,172.6445 248.8053,183.1445" stroke-width="0" transform=" rotate(0, 243, 177)"/>
  <ellipse cx="257.6085" cy="176.1154" fill="#1b9fd8" rx="5.25" ry="5.25" stroke-width="0" transform=" rotate(0, 257, 176)"/>
  <rect fill="#1b9fd8" height="10.5" stroke-width="0" transform=" rotate(0, 282, 169)" width="10.5" x="277.0907" y="164.4505"/>
  <rect fill="#6dd6ff" height="7.5" stroke-width="0" transform=" rotate(0, 49, 185)" width="7.5" x="45.3152" y="181.9235"/>
  <polygon fill="#6dd6ff" points="58.6896,193.4296 62.4396,185.9296 66.1896,193.4296" stroke-width="0" transform=" rotate(0, 62, 189)"/>
  <ellipse cx="76.4655" cy="193.4647" fill="#6dd6ff" rx="3.75" ry="3.75" stroke-width="0" transform=" rotate(0, 76, 193)"/>
  <rect fill="#6dd6ff" height="7.5" stroke-width="0" transform=" rotate(0, 99, 183)" width="7.5" x="95.406" y="179.6611"/>
  <polygon fill="#6dd6ff" points="103.2362,196.9635 106.9862,189.4635 110.7362,196.9635" stroke-width="0" transform=" rotate(0, 106, 193)"/>
  <ellipse cx="123.7092" cy="192.0869" fill="#6dd6ff" rx="3.75" ry="3.75" stroke-width="0" transform=" rotate(0, 123, 192)"/>
  <rect fill="#6dd6ff" height="7.5" stroke-width="0" transform=" rotate(0, 145, 182)" width="7.5" x="141.3638" y="178.9509"/>
  <polygon fill="#6dd6ff" points="155.6536,191.4121 159.4036,183.9121 163.1536,191.4121" stroke-width="0" transform=" rotate(0, 159, 187)"/>
  <ellipse cx="174.3029" cy="189.1987" fill="#6dd6ff" rx="3.75" ry="3.75" stroke-width="0" transform=" rotate(0, 174, 189)"/>
  <rect fill="#6dd6ff" height="7.5" stroke-width="0" transform=" rotate(0, 192, 192)" width="7.5" x="189.0477" y="188.8839"/>
  <polygon fill="#6dd6ff" points="200.3059,194.4334 204.0559,186.9334 207.8059,194.4334" stroke-width="0" transform=" rotate(0, 204, 190)"/>
  <ellipse cx="219.8669" cy="187.7618" fill="#6dd6ff" rx="3.75" ry="3.75" stroke-width="0" transform=" rotate(0, 219, 187)"/>
  <rect fill="#6dd6ff" height="7.5" stroke-width="0" transform=" rotate(0, 231, 184)" width="7.5" x="227.5804" y="180.6892"/>
  <polygon fill="#6dd6ff" points="246.9653,193.0013 250.7153,185.5013 254.4653,193.0013" stroke-width="0" transform=" rotate(0, 250, 189)"/>
  <ellipse cx="260.0294" cy="183.6064" fill="#6dd6ff" rx="3.75" ry="3.75" stroke-width="0" transform=" rotate(0, 260, 183)"/>
  <rect fill="#6dd6ff" height="7.5" stroke-width="0" transform=" rotate(0, 282, 185)" width="7.5" x="278.9718" y="181.5526"/>
  <rect fill="#006ca1" height="13.5" stroke-width="0" transform=" rotate(0, 52, 201)" width="13.5" x="45.7745" y="194.5375"/>
  <polygon fill="#006ca1" points="58.3241,209.0574 65.0741,195.5574 71.8241,209.0574" stroke-width="0" transform=" rotate(0, 65, 202)"/>
  <ellipse cx="87.3298" cy="199.5897" fill="#006ca1" rx="6.75" ry="6.75" stroke-width="0" transform=" rotate(0, 87, 199)"/>
  <rect fill="#006ca1" height="13.5" stroke-width="0" transform=" rotate(0, 102, 201)" width="13.5" x="95.8282" y="195.1359"/>
  <polygon fill="#006ca1" points="110.475,212.463 117.225,198.963 123.975,212.463" stroke-width="0" transform=" rotate(0, 117, 205)"/>
  <ellipse cx="123.2383" cy="199.4483" fill="#006ca1" rx="6.75" ry="6.75" stroke-width="0" transform=" rotate(0, 123, 199)"/>
  <rect fill="#006ca1" height="13.5" stroke-width="0" transform=" rotate(0, 141, 206)" width="13.5" x="134.5718" y="199.7959"/>
  <polygon fill="#006ca1" points="153.6113,214.8325 160.3613,201.3325 167.1113,214.8325" stroke-width="0" transform=" rotate(0, 160, 208)"/>
  <ellipse cx="174.0553" cy="205.4523" fill="#006ca1" rx="6.75" ry="6.75" stroke-width="0" transform=" rotate(0, 174, 205)"/>
  <rect fill="#006ca1" height="13.5" stroke-width="0" transform=" rotate(0, 187, 199)" width="13.5" x="180.4975" y="192.9646"/>
  <polygon fill="#006ca1" points="200.369,209.0838 207.119,195.5838 213.869,209.0838" stroke-width="0" transform=" rotate(0, 207, 202)"/>
  <ellipse cx="213.7514" cy="205.1318" fill="#006ca1" rx="6.75" ry="6.75" stroke-width="0" transform=" rotate(0, 213, 205)"/>
  <rect fill="#006ca1" height="13.5" stroke-width="0" transform=" rotate(0, 230, 198)" width="13.5" x="224.0997" y="191.5817"/>
  <polygon fill="#006ca1" points="244.7659,213.0925 251.5159,199.5925 258.2659,213.0925" stroke-width="0" transform=" rotate(0, 251, 206)"/>
  <ellipse cx="264.645" cy="198.776" fill="#006ca1" rx="6.75" ry="6.75" stroke-width="0" transform=" rotate(0, 264, 198)"/>
  <rect fill="#006ca1" height="13.5" stroke-width="0" transform=" rotate(0, 282, 197)" width="13.5" x="276.2436" y="190.749"/>
  <rect fill="#1b9fd8" height="10.5" stroke-width="0" transform=" rotate(0, 53, 222)" width="10.5" x="48.3521" y="217.513"/>
  <polygon fill="#1b9fd8" points="63.0839,224.7046 68.3339,214.2046 73.5839,224.7046" stroke-width="0" transform=" rotate(0, 68, 219)"/>
  <ellipse cx="81.9539" cy="216.2072" fill="#1b9fd8" rx="5.25" ry="5.25" stroke-width="0" transform=" rotate(0, 81, 216)"/>
  <rect fill="#1b9fd8" height="10.5" stroke-width="0" transform=" rotate(0, 100, 222)" width="10.5" x="95.2985" y="217.1139"/>
  <polygon fill="#1b9fd8" points="101.2864,226.4828 106.5364,215.9828 111.7864,226.4828" stroke-width="0" transform=" rotate(0, 106, 221)"/>
  <ellipse cx="123.6321" cy="223.1078" fill="#1b9fd8" rx="5.25" ry="5.25" stroke-width="0" transform=" rotate(0, 123, 223)"/>
  <rect fill="#1b9fd8" height="10.5" stroke-width="0" transform=" rotate(0, 139, 218)" width="10.5" x="133.8719" y="213.3754"/>
  <polygon fill="#1b9fd8" points="152.3556,225.9967 157.6056,215.4967 162.8556,225.9967" stroke-width="0" transform=" rotate(0, 157, 220)"/>
  <ellipse cx="178.0993" cy="220.2868" fill="#1b9fd8" rx="5.25" ry="5.25" stroke-width="0" transform=" rotate(0, 178, 220)"/>
  <rect fill="#1b9fd8" height="10.5" stroke-width="0" transform=" rotate(0, 185, 212)" width="10.5" x="180.5638" y="207.1825"/>
  <polygon fill="#1b9fd8" points="200.0757,222.7524 205.3257,212.2524 210.5757,222.7524" stroke-width="0" transform=" rotate(0, 205, 217)"/>
  <ellipse cx="218.2362" cy="220.5145" fill="#1b9fd8" rx="5.25" ry="5.25" stroke-width="0" transform=" rotate(0, 218, 220)"/>
  <rect fill="#1b9fd8" height="10.5" stroke-width="0" transform=" rotate(0, 237, 212)" width="10.5" x="232.5013" y="207.3166"/>
  <polygon fill="#1b9fd8" points="244.7825,227.7718 250.0325,217.2718 255.2825,227.7718" stroke-width="0" transform=" rotate(0, 250, 222)"/>
  <ellipse cx="267.8166" cy="216.529" fill="#1b9fd8" rx="5.25" ry="5.25" stroke-width="0" transform=" rotate(0, 267, 216)"/>
  <rect fill="#1b9fd8" height="10.5" stroke-width="0" transform=" rotate(0, 282, 220)" width="10.5" x="277.6983" y="215.108"/>
  <rect fill="#6dd6ff" height="7.5" stroke-width="0" transform=" rotate(0, 50, 229)" width="7.5" x="47.2259" y="226.0067"/>
  <polygon fill="#6dd6ff" points="66.2336,237.6124 69.9836,230.1124 73.7336,237.6124" stroke-width="0" transform=" rotate(0, 69, 233)"/>
  <ellipse cx="82.6099" cy="237.9392" fill="#6dd6ff" rx="3.75" ry="3.75" stroke-width="0" transform=" rotate(0, 82, 237)"/>
  <rect fill="#6dd6ff" height="7.5" stroke-width="0" transform=" rotate(0, 97, 232)" width="7.5" x="94.0901" y="228.7329"/>
  <polygon fill="#6dd6ff" points="114.4429,239.8274 118.1929,232.3274 121.9429,239.8274" stroke-width="0" transform=" rotate(0, 118, 236)"/>
  <ellipse cx="128.1536" cy="227.5091" fill="#6dd6ff" rx="3.75" ry="3.75" stroke-width="0" transform=" rotate(0, 128, 227)"/>
  <rect fill="#6dd6ff" height="7.5" stroke-width="0" transform=" rotate(0, 145, 237)" width="7.5" x="141.9007" y="233.8914"/>
  <polygon fill="#6dd6ff" points="153.3448,234.2556 157.0948,226.7556 160.8448,234.2556" stroke-width="0" transform=" rotate(0, 157, 230)"/>
  <ellipse cx="173.3688" cy="229.4073" fill="#6dd6ff" rx="3.75" ry="3.75" stroke-width="0" transform=" rotate(0, 173, 229)"/>
  <rect fill="#6dd6ff" height="7.5" stroke-width="0" transform=" rotate(0, 185, 227)" width="7.5" x="181.85" y="223.5002"/>
  <polygon fill="#6dd6ff" points="198.5051,233.1016 202.2551,225.6016 206.0051,233.1016" stroke-width="0" transform=" rotate(0, 202, 229)"/>
  <ellipse cx="213.8792" cy="228.0565" fill="#6dd6ff" rx="3.75" ry="3.75" stroke-width="0" transform=" rotate(0, 213, 228)"/>
  <rect fill="#6dd6ff" height="7.5" stroke-width="0" transform=" rotate(0, 231, 227)" width="7.5" x="227.5266" y="223.8736"/>
  <polygon fill="#6dd6ff" points="246.4862,230.7736 250.2362,223.2736 253.9862,230.7736" stroke-width="0" transform=" rotate(0, 250, 227)"/>
  <ellipse cx="265.6767" cy="226.5759" fill="#6dd6ff" rx="3.75" ry="3.75" stroke-width="0" transform=" rotate(0, 265, 226)"/>
  <rect fill="#6dd6ff" height="7.5" stroke-width="0" transform=" rotate(0, 273, 232)" width="7.5" x="269.5753" y="228.8939"/>
  <rect fill="#006ca1" height="13.5" stroke-width="0" transform=" rotate(0, 50, 251)" width="13.5" x="43.3866" y="244.5631"/>
  <polygon fill="#006ca1" points="62.4149,258.5119 69.1649,245.0119 75.9149,258.5119" stroke-width="0" transform=" rotate(0, 69, 251)"/>
  <ellipse cx="87.7141" cy="244.9983" fill="#006ca1" rx="6.75" ry="6.75" stroke-width="0" transform=" rotate(0, 87, 244)"/>
  <rect fill="#006ca1" height="13.5" stroke-width="0" transform=" rotate(0, 93, 250)" width="13.5" x="87.1541" y="244.209"/>
  <polygon fill="#006ca1" points="110.2206,255.3006 116.9706,241.8006 123.7206,255.3006" stroke-width="0" transform=" rotate(0, 116, 248)"/>
  <ellipse cx="125.1303" cy="242.7552" fill="#006ca1" rx="6.75" ry="6.75" stroke-width="0" transform=" rotate(0, 125, 242)"/>
  <rect fill="#006ca1" height="13.5" stroke-width="0" transform=" rotate(0, 143, 244)" width="13.5" x="136.8586" y="238.1753"/>
  <polygon fill="#006ca1" points="146.366,257.4053 153.116,243.9053 159.866,257.4053" stroke-width="0" transform=" rotate(0, 153, 250)"/>
  <ellipse cx="167.937" cy="243.1047" fill="#006ca1" rx="6.75" ry="6.75" stroke-width="0" transform=" rotate(0, 167, 243)"/>
  <rect fill="#006ca1" height="13.5" stroke-width="0" transform=" rotate(0, 188, 248)" width="13.5" x="181.2809" y="241.8296"/>
  <polygon fill="#006ca1" points="199.3821,249.7269 206.1321,236.2269 212.8821,249.7269" stroke-width="0" transform=" rotate(0, 206, 242)"/>
  <ellipse cx="218.0755" cy="245.3225" fill="#006ca1" rx="6.75" ry="6.75" stroke-width="0" transform=" rotate(0, 218, 245)"/>
  <rect fill="#006ca1" height="13.5" stroke-width="0" transform=" rotate(0, 229, 247)" width="13.5" x="222.4246" y="240.7955"/>
  <polygon fill="#006ca1" points="238.4968,249.298 245.2468,235.798 251.9968,249.298" stroke-width="0" transform=" rotate(0, 245, 242)"/>
  <ellipse cx="259.3022" cy="253.2771" fill="#006ca1" rx="6.75" ry="6.75" stroke-width="0" transform=" rotate(0, 259, 253)"/>
  <rect fill="#006ca1" height="13.5" stroke-width="0" transform=" rotate(0, 276, 249)" width="13.5" x="269.4902" y="242.6396"/>
  <rect fill="#1b9fd8" height="10.5" stroke-width="0" transform=" rotate(0, 57, 258)" width="10.5" x="52.1693" y="253.4216"/>
  <polygon fill="#1b9fd8" points="60.884,262.8174 66.134,252.3174 71.384,262.8174" stroke-width="0" transform=" rotate(0, 66, 257)"/>
  <ellipse cx="83.7246" cy="263.1106" fill="#1b9fd8" rx="5.25" ry="5.25" stroke-width="0" transform=" rotate(0, 83, 263)"/>
  <rect fill="#1b9fd8" height="10.5" stroke-width="0" transform=" rotate(0, 96, 262)" width="10.5" x="91.3539" y="256.7853"/>
  <polygon fill="#1b9fd8" points="104.8325,265.74 110.0825,255.24 115.3325,265.74" stroke-width="0" transform=" rotate(0, 110, 260)"/>
  <ellipse cx="121.3616" cy="264.43" fill="#1b9fd8" rx="5.25" ry="5.25" stroke-width="0" transform=" rotate(0, 121, 264)"/>
  <rect fill="#1b9fd8" height="10.5" stroke-width="0" transform=" rotate(0, 141, 267)" width="10.5" x="135.9776" y="262.1682"/>
  <polygon fill="#1b9fd8" points="155.6765,266.4711 160.9265,255.9711 166.1765,266.4711" stroke-width="0" transform=" rotate(0, 160, 261)"/>
  <ellipse cx="166.9703" cy="258.8162" fill="#1b9fd8" rx="5.25" ry="5.25" stroke-width="0" transform=" rotate(0, 166, 258)"/>
  <rect fill="#1b9fd8" height="10.5" stroke-width="0" transform=" rotate(0, 192, 264)" width="10.5" x="187.2016" y="259.2851"/>
  <polygon fill="#1b9fd8" points="196.5502,264.5995 201.8002,254.0995 207.0502,264.5995" stroke-width="0" transform=" rotate(0, 201, 259)"/>
  <ellipse cx="219.0775" cy="259.7802" fill="#1b9fd8" rx="5.25" ry="5.25" stroke-width="0" transform=" rotate(0, 219, 259)"/>
  <rect fill="#1b9fd8" height="10.5" stroke-width="0" transform=" rotate(0, 233, 264)" width="10.5" x="227.8556" y="258.7582"/>
  <polygon fill="#1b9fd8" points="241.3568,273.2255 246.6068,262.7255 251.8568,273.2255" stroke-width="0" transform=" rotate(0, 246, 267)"/>
  <ellipse cx="266.7707" cy="256.4928" fill="#1b9fd8" rx="5.25" ry="5.25" stroke-width="0" transform=" rotate(0, 266, 256)"/>
  <rect fill="#1b9fd8" height="10.5" stroke-width="0" transform=" rotate(0, 271, 265)" width="10.5" x="266.6747" y="260.3436"/>
  <rect fill="#6dd6ff" height="7.5" stroke-width="0" transform=" rotate(0, 58, 283)" width="7.5" x="54.3642" y="279.2706"/>
  <polygon fill="#6dd6ff" points="63.1487,282.6911 66.8987,275.1911 70.6487,282.6911" stroke-width="0" transform=" rotate(0, 66, 278)"/>
  <ellipse cx="80.9447" cy="281.1381" fill="#6dd6ff" rx="3.75" ry="3.75" stroke-width="0" transform=" rotate(0, 80, 281)"/>
  <rect fill="#6dd6ff" height="7.5" stroke-width="0" transform=" rotate(0, 94, 277)" width="7.5" x="90.5726" y="273.3334"/>
  <polygon fill="#6dd6ff" points="113.0142,285.4812 116.7642,277.9812 120.5142,285.4812" stroke-width="0" transform=" rotate(0, 116, 281)"/>
  <ellipse cx="123.9322" cy="279.8906" fill="#6dd6ff" rx="3.75" ry="3.75" stroke-width="0" transform=" rotate(0, 123, 279)"/>
  <rect fill="#6dd6ff" height="7.5" stroke-width="0" transform=" rotate(0, 143, 279)" width="7.5" x="139.3489" y="275.9782"/>
  <polygon fill="#6dd6ff" points="156.9005,275.5899 160.6505,268.0899 164.4005,275.5899" stroke-width="0" transform=" rotate(0, 160, 271)"/>
  <ellipse cx="176.1887" cy="281.9355" fill="#6dd6ff" rx="3.75" ry="3.75" stroke-width="0" transform=" rotate(0, 176, 281)"/>
  <rect fill="#6dd6ff" height="7.5" stroke-width="0" transform=" rotate(0, 186, 274)" width="7.5" x="182.7181" y="270.5343"/>
  <polygon fill="#6dd6ff" points="201.1224,287.1502 204.8724,279.6502 208.6224,287.1502" stroke-width="0" transform=" rotate(0, 204, 283)"/>
  <ellipse cx="215.3288" cy="273.2901" fill="#6dd6ff" rx="3.75" ry="3.75" stroke-width="0" transform=" rotate(0, 215, 273)"/>
  <rect fill="#6dd6ff" height="7.5" stroke-width="0" transform=" rotate(0, 229, 280)" width="7.5" x="225.3989" y="276.7077"/>
  <polygon fill="#6dd6ff" points="241.6632,276.6398 245.4132,269.1398 249.1632,276.6398" stroke-width="0" transform=" rotate(0, 245, 272)"/>
  <ellipse cx="258.3288" cy="277.324" fill="#6dd6ff" rx="3.75" ry="3.75" stroke-width="0" transform=" rotate(0, 258, 277)"/>
  <rect fill="#6dd6ff" height="7.5" stroke-width="0" transform=" rotate(0, 272, 274)" width="7.5" x="269.2282" y="271.0904"/>
</svg>
