<?xml version="1.0" encoding="utf-8" ?>
<svg baseProfile="tiny" height="330" version="1.2" width="330" xmlns="http://www.w3.org/2000/svg" xmlns:ev="http://www.w3.org/2001/xml-events" xmlns:xlink="http://www.w3.org/1999/xlink">
  <defs/>
  <rect fill="white" height="330" width="330" x="0" y="0"/>
  <rect fill="#6dd6ff" height="20" stroke-width="0" transform=" rotate(0, 58, 65)" width="20" x="48.1209" y="55.3402"/>
  <polygon fill="#6dd6ff" points="93.6155,82.324 103.6155,62.324 113.6155,82.324" stroke-width="0" transform=" rotate(0, 103, 72)"/>
  <ellipse cx="147.9107" cy="67.941" fill="#6dd6ff" rx="10.0" ry="10.0" stroke-width="0" transform=" rotate(0, 147, 67)"/>
  <rect fill="#6dd6ff" height="20" stroke-width="0" transform=" rotate(0, 177, 67)" width="20" x="167.5577" y="57.3777"/>
  <polygon fill="#6dd6ff" points="220.7428,76.7316 230.7428,56.7316 240.7428,76.7316" stroke-width="0" transform=" rotate(0, 230, 66)"/>
  <ellipse cx="267.9053" cy="67.2634" fill="#6dd6ff" rx="10.0" ry="10.0" stroke-width="0" transform=" rotate(0, 267, 67)"/>
  <rect fill="#1b9fd8" height="28" stroke-width="0" transform=" rotate(0, 64, 108)" width="28" x="50.8465" y="94.7886"/>
  <polygon fill="#1b9fd8" points="81.0005,130.1072 95.0005,102.1072 109.0005,130.1072" stroke-width="0" transform=" rotate(0, 95, 116)"/>
  <ellipse cx="152.1232" cy="101.7689" fill="#1b9fd8" rx="14.0" ry="14.0" stroke-width="0" transform=" rotate(0, 152, 101)"/>
  <rect fill="#1b9fd8" height="28" stroke-width="0" transform=" rotate(0, 181, 115)" width="28" x="167.9194" y="101.1921"/>
  <polygon fill="#1b9fd8" points="203.5712,116.5553 217.5712,88.5553 231.5712,116.5553" stroke-width="0" transform=" rotate(0, 217, 102)"/>
  <ellipse cx="266.6916" cy="100.0982" fill="#1b9fd8" rx="14.0" ry="14.0" stroke-width="0" transform=" rotate(0, 266, 100)"/>
  <rect fill="#006ca1" height="36" stroke-width="0" transform=" rotate(0, 77, 133)" width="36" x="59.7682" y="115.0461"/>
  <polygon fill="#006ca1" points="76.7188,176.1191 94.7188,140.1191 112.7188,176.1191" stroke-width="0" transform=" rotate(0, 94, 158)"/>
  <ellipse cx="146.4671" cy="134.89" fill="#006ca1" rx="18.0" ry="18.0" stroke-width="0" transform=" rotate(0, 146, 134)"/>
  <rect fill="#006ca1" height="36" stroke-width="0" transform=" rotate(0, 190, 142)" width="36" x="172.035" y="124.0882"/>
  <polygon fill="#006ca1" points="196.3688,175.0631 214.3688,139.0631 232.3688,175.0631" stroke-width="0" transform=" rotate(0, 214, 157)"/>
  <ellipse cx="265.0467" cy="152.4034" fill="#006ca1" rx="18.0" ry="18.0" stroke-width="0" transform=" rotate(0, 265, 152)"/>
  <rect fill="#006ca1" height="36" stroke-width="0" transform=" rotate(0, 69, 178)" width="36" x="51.6273" y="160.468"/>
  <polygon fill="#006ca1" points="85.616,199.3341 103.616,163.3341 121.616,199.3341" stroke-width="0" transform=" rotate(0, 103, 181)"/>
  <ellipse cx="134.743" cy="183.6209" fill="#006ca1" rx="18.0" ry="18.0" stroke-width="0" transform=" rotate(0, 134, 183)"/>
  <rect fill="#006ca1" height="36" stroke-width="0" transform=" rotate(0, 189, 179)" width="36" x="171.1154" y="161.87"/>
  <polygon fill="#006ca1" points="204.7406,200.5117 222.7406,164.5117 240.7406,200.5117" stroke-width="0" transform=" rotate(0, 222, 182)"/>
  <ellipse cx="275.8236" cy="178.5458" fill="#006ca1" rx="18.0" ry="18.0" stroke-width="0" transform=" rotate(0, 275, 178)"/>
  <rect fill="#1b9fd8" height="28" stroke-width="0" transform=" rotate(0, 63, 215)" width="28" x="49.5958" y="201.9862"/>
  <polygon fill="#1b9fd8" points="92.2613,247.7852 106.2613,219.7852 120.2613,247.7852" stroke-width="0" transform=" rotate(0, 106, 233)"/>
  <ellipse cx="148.9299" cy="214.7905" fill="#1b9fd8" rx="14.0" ry="14.0" stroke-width="0" transform=" rotate(0, 148, 214)"/>
  <rect fill="#1b9fd8" height="28" stroke-width="0" transform=" rotate(0, 179, 228)" width="28" x="165.3134" y="214.9317"/>
  <polygon fill="#1b9fd8" points="214.3299,230.3168 228.3299,202.3168 242.3299,230.3168" stroke-width="0" transform=" rotate(0, 228, 216)"/>
  <ellipse cx="274.8982" cy="223.9117" fill="#1b9fd8" rx="14.0" ry="14.0" stroke-width="0" transform=" rotate(0, 274, 223)"/>
  <rect fill="#6dd6ff" height="20" stroke-width="0" transform=" rotate(0, 57, 258)" width="20" x="47.2438" y="248.6663"/>
  <polygon fill="#6dd6ff" points="92.6326,280.1176 102.6326,260.1176 112.6326,280.1176" stroke-width="0" transform=" rotate(0, 102, 270)"/>
  <ellipse cx="147.3781" cy="266.3186" fill="#6dd6ff" rx="10.0" ry="10.0" stroke-width="0" transform=" rotate(0, 147, 266)"/>
  <rect fill="#6dd6ff" height="20" stroke-width="0" transform=" rotate(0, 183, 262)" width="20" x="173.8406" y="252.9201"/>
  <polygon fill="#6dd6ff" points="221.8454,281.3791 231.8454,261.3791 241.8454,281.3791" stroke-width="0" transform=" rotate(0, 231, 271)"/>
  <ellipse cx="267.6552" cy="263.4278" fill="#6dd6ff" rx="10.0" ry="10.0" stroke-width="0" transform=" rotate(0, 267, 263)"/>
</svg>
