<?xml version="1.0" encoding="utf-8" ?>
<svg baseProfile="tiny" height="330" version="1.2" width="330" xmlns="http://www.w3.org/2000/svg" xmlns:ev="http://www.w3.org/2001/xml-events" xmlns:xlink="http://www.w3.org/1999/xlink">
  <defs/>
  <rect fill="white" height="330" width="330" x="0" y="0"/>
  <rect fill="#6dd6ff" height="20" stroke-width="0" transform=" rotate(0, 58, 65)" width="20" x="48.3151" y="55.0296"/>
  <polygon fill="#6dd6ff" points="93.8097,82.0134 103.8097,62.0134 113.8097,82.0134" stroke-width="0" transform=" rotate(0, 103, 72)"/>
  <ellipse cx="148.1049" cy="67.6304" fill="#6dd6ff" rx="10.0" ry="10.0" stroke-width="0" transform=" rotate(0, 148, 67)"/>
  <rect fill="#6dd6ff" height="20" stroke-width="0" transform=" rotate(0, 177, 67)" width="20" x="167.7519" y="57.0671"/>
  <polygon fill="#6dd6ff" points="220.937,76.421 230.937,56.421 240.937,76.421" stroke-width="0" transform=" rotate(0, 230, 66)"/>
  <ellipse cx="268.0995" cy="66.9528" fill="#6dd6ff" rx="10.0" ry="10.0" stroke-width="0" transform=" rotate(0, 268, 66)"/>
  <rect fill="#1b9fd8" height="28" stroke-width="0" transform=" rotate(0, 64, 107)" width="28" x="50.9107" y="93.4822"/>
  <polygon fill="#1b9fd8" points="83.8779,126.7098 97.8779,98.7098 111.8779,126.7098" stroke-width="0" transform=" rotate(0, 97, 112)"/>
  <ellipse cx="150.1084" cy="102.4682" fill="#1b9fd8" rx="14.0" ry="14.0" stroke-width="0" transform=" rotate(0, 150, 102)"/>
  <rect fill="#1b9fd8" height="28" stroke-width="0" transform=" rotate(0, 182, 112)" width="28" x="168.82" y="98.0562"/>
  <polygon fill="#1b9fd8" points="205.7141,117.0299 219.7141,89.0299 233.7141,117.0299" stroke-width="0" transform=" rotate(0, 219, 103)"/>
  <ellipse cx="266.2287" cy="101.2748" fill="#1b9fd8" rx="14.0" ry="14.0" stroke-width="0" transform=" rotate(0, 266, 101)"/>
  <rect fill="#006ca1" height="36" stroke-width="0" transform=" rotate(0, 72, 138)" width="36" x="54.0172" y="120.1832"/>
  <polygon fill="#006ca1" points="81.212,170.1127 99.212,134.1127 117.212,170.1127" stroke-width="0" transform=" rotate(0, 99, 152)"/>
  <ellipse cx="145.7388" cy="139.2076" fill="#006ca1" rx="18.0" ry="18.0" stroke-width="0" transform=" rotate(0, 145, 139)"/>
  <rect fill="#006ca1" height="36" stroke-width="0" transform=" rotate(0, 187, 143)" width="36" x="169.721" y="125.2066"/>
  <polygon fill="#006ca1" points="201.0176,169.526 219.0176,133.526 237.0176,169.526" stroke-width="0" transform=" rotate(0, 219, 151)"/>
  <ellipse cx="264.9498" cy="148.9373" fill="#006ca1" rx="18.0" ry="18.0" stroke-width="0" transform=" rotate(0, 264, 148)"/>
  <rect fill="#006ca1" height="36" stroke-width="0" transform=" rotate(0, 67, 181)" width="36" x="49.4945" y="163.1954"/>
  <polygon fill="#006ca1" points="86.1549,200.7876 104.1549,164.7876 122.1549,200.7876" stroke-width="0" transform=" rotate(0, 104, 182)"/>
  <ellipse cx="139.2254" cy="184.0581" fill="#006ca1" rx="18.0" ry="18.0" stroke-width="0" transform=" rotate(0, 139, 184)"/>
  <rect fill="#006ca1" height="36" stroke-width="0" transform=" rotate(0, 187, 181)" width="36" x="169.2101" y="163.9743"/>
  <polygon fill="#006ca1" points="205.6686,201.4419 223.6686,165.4419 241.6686,201.4419" stroke-width="0" transform=" rotate(0, 223, 183)"/>
  <ellipse cx="270.9369" cy="181.2386" fill="#006ca1" rx="18.0" ry="18.0" stroke-width="0" transform=" rotate(0, 270, 181)"/>
  <rect fill="#1b9fd8" height="28" stroke-width="0" transform=" rotate(0, 64, 218)" width="28" x="50.0174" y="204.3377"/>
  <polygon fill="#1b9fd8" points="91.9213,245.0512 105.9213,217.0512 119.9213,245.0512" stroke-width="0" transform=" rotate(0, 105, 231)"/>
  <ellipse cx="147.8275" cy="217.4836" fill="#1b9fd8" rx="14.0" ry="14.0" stroke-width="0" transform=" rotate(0, 147, 217)"/>
  <rect fill="#1b9fd8" height="28" stroke-width="0" transform=" rotate(0, 180, 227)" width="28" x="166.9585" y="213.5845"/>
  <polygon fill="#1b9fd8" points="213.3989,232.5738 227.3989,204.5738 241.3989,232.5738" stroke-width="0" transform=" rotate(0, 227, 218)"/>
  <ellipse cx="272.0905" cy="223.9987" fill="#1b9fd8" rx="14.0" ry="14.0" stroke-width="0" transform=" rotate(0, 272, 223)"/>
  <rect fill="#6dd6ff" height="20" stroke-width="0" transform=" rotate(0, 57, 258)" width="20" x="47.438" y="248.3557"/>
  <polygon fill="#6dd6ff" points="92.8269,279.8069 102.8269,259.8069 112.8269,279.8069" stroke-width="0" transform=" rotate(0, 102, 269)"/>
  <ellipse cx="147.5723" cy="266.008" fill="#6dd6ff" rx="10.0" ry="10.0" stroke-width="0" transform=" rotate(0, 147, 266)"/>
  <rect fill="#6dd6ff" height="20" stroke-width="0" transform=" rotate(0, 184, 262)" width="20" x="174.0348" y="252.6095"/>
  <polygon fill="#6dd6ff" points="222.0396,281.0685 232.0396,261.0685 242.0396,281.0685" stroke-width="0" transform=" rotate(0, 232, 271)"/>
  <ellipse cx="267.8494" cy="263.1172" fill="#6dd6ff" rx="10.0" ry="10.0" stroke-width="0" transform=" rotate(0, 267, 263)"/>
</svg>
