<?xml version="1.0" encoding="utf-8" ?>
<svg baseProfile="tiny" height="330" version="1.2" width="330" xmlns="http://www.w3.org/2000/svg" xmlns:ev="http://www.w3.org/2001/xml-events" xmlns:xlink="http://www.w3.org/1999/xlink">
  <defs/>
  <rect fill="white" height="330" width="330" x="0" y="0"/>
  <rect fill="#6dd6ff" height="15" stroke-width="0" transform=" rotate(0, 50, 51)" width="15" x="42.8362" y="44.112"/>
  <polygon fill="#6dd6ff" points="80.8721,67.046 88.3721,52.046 95.8721,67.046" stroke-width="0" transform=" rotate(0, 88, 59)"/>
  <ellipse cx="124.6538" cy="51.293" fill="#6dd6ff" rx="7.5" ry="7.5" stroke-width="0" transform=" rotate(0, 124, 51)"/>
  <rect fill="#6dd6ff" height="15" stroke-width="0" transform=" rotate(0, 139, 68)" width="15" x="132.0125" y="60.5405"/>
  <polygon fill="#6dd6ff" points="181.2958,69.9846 188.7958,54.9846 196.2958,69.9846" stroke-width="0" transform=" rotate(0, 188, 62)"/>
  <ellipse cx="214.6459" cy="57.5142" fill="#6dd6ff" rx="7.5" ry="7.5" stroke-width="0" transform=" rotate(0, 214, 57)"/>
  <rect fill="#6dd6ff" height="15" stroke-width="0" transform=" rotate(0, 239, 69)" width="15" x="232.4823" y="62.3855"/>
  <polygon fill="#6dd6ff" points="252.1967,65.7567 259.6967,50.7567 267.1967,65.7567" stroke-width="0" transform=" rotate(0, 259, 58)"/>
  <rect fill="#1b9fd8" height="21" stroke-width="0" transform=" rotate(0, 67, 83)" width="21" x="57.0838" y="73.2145"/>
  <polygon fill="#1b9fd8" points="76.4245,101.1287 86.9245,80.1287 97.4245,101.1287" stroke-width="0" transform=" rotate(0, 86, 90)"/>
  <ellipse cx="112.3822" cy="94.4953" fill="#1b9fd8" rx="10.5" ry="10.5" stroke-width="0" transform=" rotate(0, 112, 94)"/>
  <rect fill="#1b9fd8" height="21" stroke-width="0" transform=" rotate(0, 151, 83)" width="21" x="141.4098" y="72.9146"/>
  <polygon fill="#1b9fd8" points="179.8755,98.9449 190.3755,77.9449 200.8755,98.9449" stroke-width="0" transform=" rotate(0, 190, 88)"/>
  <ellipse cx="201.6479" cy="83.6174" fill="#1b9fd8" rx="10.5" ry="10.5" stroke-width="0" transform=" rotate(0, 201, 83)"/>
  <rect fill="#1b9fd8" height="21" stroke-width="0" transform=" rotate(0, 241, 83)" width="21" x="230.6934" y="72.7042"/>
  <polygon fill="#1b9fd8" points="263.5923,104.2661 274.0923,83.2661 284.5923,104.2661" stroke-width="0" transform=" rotate(0, 274, 93)"/>
  <rect fill="#006ca1" height="27" stroke-width="0" transform=" rotate(0, 51, 125)" width="27" x="37.8635" y="112.2702"/>
  <polygon fill="#006ca1" points="76.5394,123.096 90.0394,96.096 103.5394,123.096" stroke-width="0" transform=" rotate(0, 90, 109)"/>
  <ellipse cx="123.7611" cy="115.2251" fill="#006ca1" rx="13.5" ry="13.5" stroke-width="0" transform=" rotate(0, 123, 115)"/>
  <rect fill="#006ca1" height="27" stroke-width="0" transform=" rotate(0, 148, 111)" width="27" x="135.3769" y="98.3482"/>
  <polygon fill="#006ca1" points="158.1675,141.2152 171.6675,114.2152 185.1675,141.2152" stroke-width="0" transform=" rotate(0, 171, 127)"/>
  <ellipse cx="213.3451" cy="132.6078" fill="#006ca1" rx="13.5" ry="13.5" stroke-width="0" transform=" rotate(0, 213, 132)"/>
  <rect fill="#006ca1" height="27" stroke-width="0" transform=" rotate(0, 238, 112)" width="27" x="224.6657" y="99.1062"/>
  <polygon fill="#006ca1" points="265.2955,137.9723 278.7955,110.9723 292.2955,137.9723" stroke-width="0" transform=" rotate(0, 278, 124)"/>
  <rect fill="#6dd6ff" height="15" stroke-width="0" transform=" rotate(0, 58, 158)" width="15" x="51.1757" y="150.5624"/>
  <polygon fill="#6dd6ff" points="83.9602,149.0713 91.4602,134.0713 98.9602,149.0713" stroke-width="0" transform=" rotate(0, 91, 141)"/>
  <ellipse cx="124.248" cy="147.6487" fill="#6dd6ff" rx="7.5" ry="7.5" stroke-width="0" transform=" rotate(0, 124, 147)"/>
  <rect fill="#6dd6ff" height="15" stroke-width="0" transform=" rotate(0, 144, 147)" width="15" x="136.7021" y="140.4208"/>
  <polygon fill="#6dd6ff" points="176.1212,149.9402 183.6212,134.9402 191.1212,149.9402" stroke-width="0" transform=" rotate(0, 183, 142)"/>
  <ellipse cx="220.4827" cy="140.6726" fill="#6dd6ff" rx="7.5" ry="7.5" stroke-width="0" transform=" rotate(0, 220, 140)"/>
  <rect fill="#6dd6ff" height="15" stroke-width="0" transform=" rotate(0, 229, 143)" width="15" x="221.5534" y="136.3848"/>
  <polygon fill="#6dd6ff" points="259.4346,155.4375 266.9346,140.4375 274.4346,155.4375" stroke-width="0" transform=" rotate(0, 266, 147)"/>
  <rect fill="#6dd6ff" height="15" stroke-width="0" transform=" rotate(0, 63, 178)" width="15" x="56.3749" y="170.8"/>
  <polygon fill="#6dd6ff" points="81.2013,181.9486 88.7013,166.9486 96.2013,181.9486" stroke-width="0" transform=" rotate(0, 88, 174)"/>
  <ellipse cx="130.4082" cy="185.6296" fill="#6dd6ff" rx="7.5" ry="7.5" stroke-width="0" transform=" rotate(0, 130, 185)"/>
  <rect fill="#6dd6ff" height="15" stroke-width="0" transform=" rotate(0, 154, 177)" width="15" x="146.7801" y="170.1923"/>
  <polygon fill="#6dd6ff" points="172.0607,199.4878 179.5607,184.4878 187.0607,199.4878" stroke-width="0" transform=" rotate(0, 179, 191)"/>
  <ellipse cx="219.7745" cy="182.9523" fill="#6dd6ff" rx="7.5" ry="7.5" stroke-width="0" transform=" rotate(0, 219, 182)"/>
  <rect fill="#6dd6ff" height="15" stroke-width="0" transform=" rotate(0, 243, 189)" width="15" x="235.8644" y="182.4069"/>
  <polygon fill="#6dd6ff" points="265.0406,179.8379 272.5406,164.8379 280.0406,179.8379" stroke-width="0" transform=" rotate(0, 272, 172)"/>
  <rect fill="#006ca1" height="27" stroke-width="0" transform=" rotate(0, 61, 207)" width="27" x="48.0956" y="194.3537"/>
  <polygon fill="#006ca1" points="78.8733,233.9698 92.3733,206.9698 105.8733,233.9698" stroke-width="0" transform=" rotate(0, 92, 220)"/>
  <ellipse cx="123.1477" cy="207.9522" fill="#006ca1" rx="13.5" ry="13.5" stroke-width="0" transform=" rotate(0, 123, 207)"/>
  <rect fill="#006ca1" height="27" stroke-width="0" transform=" rotate(0, 160, 201)" width="27" x="147.293" y="188.33"/>
  <polygon fill="#006ca1" points="162.3147,221.3907 175.8147,194.3907 189.3147,221.3907" stroke-width="0" transform=" rotate(0, 175, 207)"/>
  <ellipse cx="219.8371" cy="214.5461" fill="#006ca1" rx="13.5" ry="13.5" stroke-width="0" transform=" rotate(0, 219, 214)"/>
  <rect fill="#006ca1" height="27" stroke-width="0" transform=" rotate(0, 236, 208)" width="27" x="223.1361" y="194.966"/>
  <polygon fill="#006ca1" points="250.5693,234.7432 264.0693,207.7432 277.5693,234.7432" stroke-width="0" transform=" rotate(0, 264, 221)"/>
  <rect fill="#1b9fd8" height="21" stroke-width="0" transform=" rotate(0, 49, 233)" width="21" x="39.0479" y="223.4207"/>
  <polygon fill="#1b9fd8" points="89.4197,245.508 99.9197,224.508 110.4197,245.508" stroke-width="0" transform=" rotate(0, 99, 235)"/>
  <ellipse cx="111.0461" cy="252.0542" fill="#1b9fd8" rx="10.5" ry="10.5" stroke-width="0" transform=" rotate(0, 111, 252)"/>
  <rect fill="#1b9fd8" height="21" stroke-width="0" transform=" rotate(0, 146, 235)" width="21" x="136.3946" y="225.0785"/>
  <polygon fill="#1b9fd8" points="178.5617,258.864 189.0617,237.864 199.5617,258.864" stroke-width="0" transform=" rotate(0, 189, 248)"/>
  <ellipse cx="215.2757" cy="231.4775" fill="#1b9fd8" rx="10.5" ry="10.5" stroke-width="0" transform=" rotate(0, 215, 231)"/>
  <rect fill="#1b9fd8" height="21" stroke-width="0" transform=" rotate(0, 233, 231)" width="21" x="223.4532" y="221.3334"/>
  <polygon fill="#1b9fd8" points="255.7819,246.8168 266.2819,225.8168 276.7819,246.8168" stroke-width="0" transform=" rotate(0, 266, 236)"/>
  <rect fill="#6dd6ff" height="15" stroke-width="0" transform=" rotate(0, 58, 279)" width="15" x="50.6399" y="272.3166"/>
  <polygon fill="#6dd6ff" points="77.5923,287.8645 85.0923,272.8645 92.5923,287.8645" stroke-width="0" transform=" rotate(0, 85, 280)"/>
  <ellipse cx="117.2387" cy="279.7113" fill="#6dd6ff" rx="7.5" ry="7.5" stroke-width="0" transform=" rotate(0, 117, 279)"/>
  <rect fill="#6dd6ff" height="15" stroke-width="0" transform=" rotate(0, 144, 280)" width="15" x="136.5164" y="272.7505"/>
  <polygon fill="#6dd6ff" points="162.2737,268.7576 169.7737,253.7576 177.2737,268.7576" stroke-width="0" transform=" rotate(0, 169, 261)"/>
  <ellipse cx="218.3674" cy="268.0398" fill="#6dd6ff" rx="7.5" ry="7.5" stroke-width="0" transform=" rotate(0, 218, 268)"/>
  <rect fill="#6dd6ff" height="15" stroke-width="0" transform=" rotate(0, 228, 275)" width="15" x="221.0247" y="267.7091"/>
  <polygon fill="#6dd6ff" points="265.7972,284.8927 273.2972,269.8927 280.7972,284.8927" stroke-width="0" transform=" rotate(0, 273, 277)"/>
</svg>
