<?xml version="1.0" encoding="utf-8" ?>
<svg baseProfile="tiny" height="330" version="1.2" width="330" xmlns="http://www.w3.org/2000/svg" xmlns:ev="http://www.w3.org/2001/xml-events" xmlns:xlink="http://www.w3.org/1999/xlink">
  <defs/>
  <rect fill="white" height="330" width="330" x="0" y="0"/>
  <rect fill="#6dd6ff" height="20" stroke-width="0" transform=" rotate(0, 50, 65)" width="20" x="40.9617" y="55.0621"/>
  <polygon fill="#6dd6ff" points="92.5004,89.7281 102.5004,69.7281 112.5004,89.7281" stroke-width="0" transform=" rotate(0, 102, 79)"/>
  <ellipse cx="151.5203" cy="70.5238" fill="#6dd6ff" rx="10.0" ry="10.0" stroke-width="0" transform=" rotate(0, 151, 70)"/>
  <rect fill="#6dd6ff" height="20" stroke-width="0" transform=" rotate(0, 169, 69)" width="20" x="159.779" y="59.341"/>
  <polygon fill="#6dd6ff" points="227.4678,77.9841 237.4678,57.9841 247.4678,77.9841" stroke-width="0" transform=" rotate(0, 237, 67)"/>
  <ellipse cx="271.509" cy="69.1008" fill="#6dd6ff" rx="10.0" ry="10.0" stroke-width="0" transform=" rotate(0, 271, 69)"/>
  <rect fill="#1b9fd8" height="28" stroke-width="0" transform=" rotate(0, 64, 110)" width="28" x="50.8125" y="96.2127"/>
  <polygon fill="#1b9fd8" points="76.0435,135.1906 90.0435,107.1906 104.0435,135.1906" stroke-width="0" transform=" rotate(0, 90, 121)"/>
  <ellipse cx="155.7275" cy="99.6832" fill="#1b9fd8" rx="14.0" ry="14.0" stroke-width="0" transform=" rotate(0, 155, 99)"/>
  <rect fill="#1b9fd8" height="28" stroke-width="0" transform=" rotate(0, 180, 119)" width="28" x="166.4219" y="105.818"/>
  <polygon fill="#1b9fd8" points="199.8996,114.8627 213.8996,86.8627 227.8996,114.8627" stroke-width="0" transform=" rotate(0, 213, 100)"/>
  <ellipse cx="267.5802" cy="97.1771" fill="#1b9fd8" rx="14.0" ry="14.0" stroke-width="0" transform=" rotate(0, 267, 97)"/>
  <rect fill="#006ca1" height="36" stroke-width="0" transform=" rotate(0, 79, 130)" width="36" x="61.7362" y="112.6848"/>
  <polygon fill="#006ca1" points="74.8452,177.9366 92.8452,141.9366 110.8452,177.9366" stroke-width="0" transform=" rotate(0, 92, 159)"/>
  <ellipse cx="146.5515" cy="132.836" fill="#006ca1" rx="18.0" ry="18.0" stroke-width="0" transform=" rotate(0, 146, 132)"/>
  <rect fill="#006ca1" height="36" stroke-width="0" transform=" rotate(0, 190, 141)" width="36" x="172.7142" y="123.2339"/>
  <polygon fill="#006ca1" points="194.4369,176.7046 212.4369,140.7046 230.4369,176.7046" stroke-width="0" transform=" rotate(0, 212, 158)"/>
  <ellipse cx="264.8945" cy="153.2683" fill="#006ca1" rx="18.0" ry="18.0" stroke-width="0" transform=" rotate(0, 264, 153)"/>
  <rect fill="#006ca1" height="36" stroke-width="0" transform=" rotate(0, 70, 177)" width="36" x="52.2385" y="159.0104"/>
  <polygon fill="#006ca1" points="85.2253,198.3541 103.2253,162.3541 121.2253,198.3541" stroke-width="0" transform=" rotate(0, 103, 180)"/>
  <ellipse cx="132.8734" cy="183.0221" fill="#006ca1" rx="18.0" ry="18.0" stroke-width="0" transform=" rotate(0, 132, 183)"/>
  <rect fill="#006ca1" height="36" stroke-width="0" transform=" rotate(0, 189, 178)" width="36" x="171.6413" y="160.646"/>
  <polygon fill="#006ca1" points="204.204,199.728 222.204,163.728 240.204,199.728" stroke-width="0" transform=" rotate(0, 222, 181)"/>
  <ellipse cx="277.4675" cy="177.1011" fill="#006ca1" rx="18.0" ry="18.0" stroke-width="0" transform=" rotate(0, 277, 177)"/>
  <rect fill="#1b9fd8" height="28" stroke-width="0" transform=" rotate(0, 62, 211)" width="28" x="48.9365" y="197.0091"/>
  <polygon fill="#1b9fd8" points="92.9347,251.7076 106.9347,223.7076 120.9347,251.7076" stroke-width="0" transform=" rotate(0, 106, 237)"/>
  <ellipse cx="150.9377" cy="209.2155" fill="#1b9fd8" rx="14.0" ry="14.0" stroke-width="0" transform=" rotate(0, 150, 209)"/>
  <rect fill="#1b9fd8" height="28" stroke-width="0" transform=" rotate(0, 176, 230)" width="28" x="162.5129" y="216.4274"/>
  <polygon fill="#1b9fd8" points="216.0377,225.505 230.0377,197.505 244.0377,225.505" stroke-width="0" transform=" rotate(0, 230, 211)"/>
  <ellipse cx="279.8901" cy="222.8973" fill="#1b9fd8" rx="14.0" ry="14.0" stroke-width="0" transform=" rotate(0, 279, 222)"/>
  <rect fill="#6dd6ff" height="20" stroke-width="0" transform=" rotate(0, 49, 251)" width="20" x="39.1198" y="241.0469"/>
  <polygon fill="#6dd6ff" points="90.4364,285.0946 100.4364,265.0946 110.4364,285.0946" stroke-width="0" transform=" rotate(0, 100, 275)"/>
  <ellipse cx="150.4019" cy="267.1169" fill="#6dd6ff" rx="10.0" ry="10.0" stroke-width="0" transform=" rotate(0, 150, 267)"/>
  <rect fill="#6dd6ff" height="20" stroke-width="0" transform=" rotate(0, 182, 259)" width="20" x="172.9731" y="249.9799"/>
  <polygon fill="#6dd6ff" points="229.7831,287.7439 239.7831,267.7439 249.7831,287.7439" stroke-width="0" transform=" rotate(0, 239, 277)"/>
  <ellipse cx="270.9838" cy="261.046" fill="#6dd6ff" rx="10.0" ry="10.0" stroke-width="0" transform=" rotate(0, 270, 261)"/>
</svg>
