<?xml version="1.0" encoding="utf-8" ?>
<svg baseProfile="tiny" height="330" version="1.2" width="330" xmlns="http://www.w3.org/2000/svg" xmlns:ev="http://www.w3.org/2001/xml-events" xmlns:xlink="http://www.w3.org/1999/xlink">
  <defs/>
  <rect fill="white" height="330" width="330" x="0" y="0"/>
  <rect fill="#6dd6ff" height="7.5" stroke-width="0" transform=" rotate(0, 50, 51)" width="7.5" x="46.2892" y="48.0948"/>
  <polygon fill="#6dd6ff" points="63.3755,58.7619 67.1255,51.2619 70.8755,58.7619" stroke-width="0" transform=" rotate(0, 67, 55)"/>
  <ellipse cx="83.7563" cy="50.5577" fill="#6dd6ff" rx="3.75" ry="3.75" stroke-width="0" transform=" rotate(0, 83, 50)"/>
  <rect fill="#6dd6ff" height="7.5" stroke-width="0" transform=" rotate(0, 94, 54)" width="7.5" x="91.0754" y="50.7067"/>
  <polygon fill="#6dd6ff" points="111.0816,56.0281 114.8316,48.5281 118.5816,56.0281" stroke-width="0" transform=" rotate(0, 114, 52)"/>
  <ellipse cx="128.7542" cy="50.8943" fill="#6dd6ff" rx="3.75" ry="3.75" stroke-width="0" transform=" rotate(0, 128, 50)"/>
  <rect fill="#6dd6ff" height="7.5" stroke-width="0" transform=" rotate(0, 142, 53)" width="7.5" x="138.7935" y="49.8291"/>
  <polygon fill="#6dd6ff" points="151.1232,58.5779 154.8732,51.0779 158.6232,58.5779" stroke-width="0" transform=" rotate(0, 154, 54)"/>
  <ellipse cx="174.517" cy="53.2999" fill="#6dd6ff" rx="3.75" ry="3.75" stroke-width="0" transform=" rotate(0, 174, 53)"/>
  <rect fill="#6dd6ff" height="7.5" stroke-width="0" transform=" rotate(0, 186, 51)" width="7.5" x="182.9997" y="47.8784"/>
  <polygon fill="#6dd6ff" points="196.8204,53.5445 200.5704,46.0445 204.3204,53.5445" stroke-width="0" transform=" rotate(0, 200, 49)"/>
  <ellipse cx="218.0439" cy="52.7608" fill="#6dd6ff" rx="3.75" ry="3.75" stroke-width="0" transform=" rotate(0, 218, 52)"/>
  <rect fill="#6dd6ff" height="7.5" stroke-width="0" transform=" rotate(0, 235, 50)" width="7.5" x="231.4917" y="46.3033"/>
  <polygon fill="#6dd6ff" points="241.6298,56.811 245.3798,49.311 249.1298,56.811" stroke-width="0" transform=" rotate(0, 245, 53)"/>
  <ellipse cx="262.8579" cy="53.8999" fill="#6dd6ff" rx="3.75" ry="3.75" stroke-width="0" transform=" rotate(0, 262, 53)"/>
  <rect fill="#6dd6ff" height="7.5" stroke-width="0" transform=" rotate(0, 278, 51)" width="7.5" x="274.8605" y="48.1738"/>
  <rect fill="#1b9fd8" height="10.5" stroke-width="0" transform=" rotate(0, 50, 69)" width="10.5" x="45.0559" y="64.0568"/>
  <polygon fill="#1b9fd8" points="62.3083,71.7541 67.5583,61.2541 72.8083,71.7541" stroke-width="0" transform=" rotate(0, 67, 66)"/>
  <ellipse cx="83.5245" cy="64.6945" fill="#1b9fd8" rx="5.25" ry="5.25" stroke-width="0" transform=" rotate(0, 83, 64)"/>
  <rect fill="#1b9fd8" height="10.5" stroke-width="0" transform=" rotate(0, 97, 64)" width="10.5" x="92.0065" y="59.3923"/>
  <polygon fill="#1b9fd8" points="105.1349,74.9419 110.3849,64.4419 115.6349,74.9419" stroke-width="0" transform=" rotate(0, 110, 69)"/>
  <ellipse cx="128.4165" cy="68.69" fill="#1b9fd8" rx="5.25" ry="5.25" stroke-width="0" transform=" rotate(0, 128, 68)"/>
  <rect fill="#1b9fd8" height="10.5" stroke-width="0" transform=" rotate(0, 142, 64)" width="10.5" x="136.8219" y="59.3591"/>
  <polygon fill="#1b9fd8" points="154.5816,73.5027 159.8316,63.0027 165.0816,73.5027" stroke-width="0" transform=" rotate(0, 159, 68)"/>
  <ellipse cx="172.2043" cy="69.6747" fill="#1b9fd8" rx="5.25" ry="5.25" stroke-width="0" transform=" rotate(0, 172, 69)"/>
  <rect fill="#1b9fd8" height="10.5" stroke-width="0" transform=" rotate(0, 187, 65)" width="10.5" x="182.6772" y="60.5725"/>
  <polygon fill="#1b9fd8" points="198.4009,71.7309 203.6509,61.2309 208.9009,71.7309" stroke-width="0" transform=" rotate(0, 203, 66)"/>
  <ellipse cx="216.0429" cy="66.7247" fill="#1b9fd8" rx="5.25" ry="5.25" stroke-width="0" transform=" rotate(0, 216, 66)"/>
  <rect fill="#1b9fd8" height="10.5" stroke-width="0" transform=" rotate(0, 233, 65)" width="10.5" x="228.2382" y="59.7821"/>
  <polygon fill="#1b9fd8" points="245.0196,75.6568 250.2696,65.1568 255.5196,75.6568" stroke-width="0" transform=" rotate(0, 250, 70)"/>
  <ellipse cx="259.7062" cy="70.4472" fill="#1b9fd8" rx="5.25" ry="5.25" stroke-width="0" transform=" rotate(0, 259, 70)"/>
  <rect fill="#1b9fd8" height="10.5" stroke-width="0" transform=" rotate(0, 276, 65)" width="10.5" x="271.5023" y="60.0464"/>
  <rect fill="#006ca1" height="13.5" stroke-width="0" transform=" rotate(0, 53, 81)" width="13.5" x="46.8041" y="75.0325"/>
  <polygon fill="#006ca1" points="60.4609,92.0753 67.2109,78.5753 73.9609,92.0753" stroke-width="0" transform=" rotate(0, 67, 85)"/>
  <ellipse cx="85.2502" cy="84.9614" fill="#006ca1" rx="6.75" ry="6.75" stroke-width="0" transform=" rotate(0, 85, 84)"/>
  <rect fill="#006ca1" height="13.5" stroke-width="0" transform=" rotate(0, 98, 80)" width="13.5" x="91.9093" y="73.5367"/>
  <polygon fill="#006ca1" points="105.684,89.0705 112.434,75.5705 119.184,89.0705" stroke-width="0" transform=" rotate(0, 112, 82)"/>
  <ellipse cx="130.0857" cy="82.005" fill="#006ca1" rx="6.75" ry="6.75" stroke-width="0" transform=" rotate(0, 130, 82)"/>
  <rect fill="#006ca1" height="13.5" stroke-width="0" transform=" rotate(0, 143, 83)" width="13.5" x="136.6715" y="76.426"/>
  <polygon fill="#006ca1" points="151.4577,89.1891 158.2077,75.6891 164.9577,89.1891" stroke-width="0" transform=" rotate(0, 158, 82)"/>
  <ellipse cx="172.9623" cy="81.7492" fill="#006ca1" rx="6.75" ry="6.75" stroke-width="0" transform=" rotate(0, 172, 81)"/>
  <rect fill="#006ca1" height="13.5" stroke-width="0" transform=" rotate(0, 188, 80)" width="13.5" x="181.4142" y="73.8107"/>
  <polygon fill="#006ca1" points="196.6153,90.6563 203.3653,77.1563 210.1153,90.6563" stroke-width="0" transform=" rotate(0, 203, 83)"/>
  <ellipse cx="220.3501" cy="83.1863" fill="#006ca1" rx="6.75" ry="6.75" stroke-width="0" transform=" rotate(0, 220, 83)"/>
  <rect fill="#006ca1" height="13.5" stroke-width="0" transform=" rotate(0, 231, 79)" width="13.5" x="224.7115" y="73.0332"/>
  <polygon fill="#006ca1" points="243.352,90.1634 250.102,76.6634 256.852,90.1634" stroke-width="0" transform=" rotate(0, 250, 83)"/>
  <ellipse cx="261.6748" cy="85.0618" fill="#006ca1" rx="6.75" ry="6.75" stroke-width="0" transform=" rotate(0, 261, 85)"/>
  <rect fill="#006ca1" height="13.5" stroke-width="0" transform=" rotate(0, 276, 82)" width="13.5" x="269.2584" y="75.8845"/>
  <rect fill="#6dd6ff" height="7.5" stroke-width="0" transform=" rotate(0, 49, 96)" width="7.5" x="46.0846" y="93.1933"/>
  <polygon fill="#6dd6ff" points="66.3734,102.7346 70.1234,95.2346 73.8734,102.7346" stroke-width="0" transform=" rotate(0, 70, 98)"/>
  <ellipse cx="80.2235" cy="98.7184" fill="#6dd6ff" rx="3.75" ry="3.75" stroke-width="0" transform=" rotate(0, 80, 98)"/>
  <rect fill="#6dd6ff" height="7.5" stroke-width="0" transform=" rotate(0, 96, 95)" width="7.5" x="92.9919" y="91.8449"/>
  <polygon fill="#6dd6ff" points="111.1506,102.0992 114.9006,94.5992 118.6506,102.0992" stroke-width="0" transform=" rotate(0, 114, 98)"/>
  <ellipse cx="128.9177" cy="99.3591" fill="#6dd6ff" rx="3.75" ry="3.75" stroke-width="0" transform=" rotate(0, 128, 99)"/>
  <rect fill="#6dd6ff" height="7.5" stroke-width="0" transform=" rotate(0, 140, 99)" width="7.5" x="137.2283" y="96.2085"/>
  <polygon fill="#6dd6ff" points="152.8328,99.9058 156.5828,92.4058 160.3328,99.9058" stroke-width="0" transform=" rotate(0, 156, 96)"/>
  <ellipse cx="172.0652" cy="96.6049" fill="#6dd6ff" rx="3.75" ry="3.75" stroke-width="0" transform=" rotate(0, 172, 96)"/>
  <rect fill="#6dd6ff" height="7.5" stroke-width="0" transform=" rotate(0, 186, 95)" width="7.5" x="182.524" y="91.4788"/>
  <polygon fill="#6dd6ff" points="198.0812,98.667 201.8312,91.167 205.5812,98.667" stroke-width="0" transform=" rotate(0, 201, 94)"/>
  <ellipse cx="215.9947" cy="95.0761" fill="#6dd6ff" rx="3.75" ry="3.75" stroke-width="0" transform=" rotate(0, 215, 95)"/>
  <rect fill="#6dd6ff" height="7.5" stroke-width="0" transform=" rotate(0, 229, 100)" width="7.5" x="226.1432" y="96.3674"/>
  <polygon fill="#6dd6ff" points="245.9704,104.1389 249.7204,96.6389 253.4704,104.1389" stroke-width="0" transform=" rotate(0, 249, 100)"/>
  <ellipse cx="259.5689" cy="97.9763" fill="#6dd6ff" rx="3.75" ry="3.75" stroke-width="0" transform=" rotate(0, 259, 97)"/>
  <rect fill="#6dd6ff" height="7.5" stroke-width="0" transform=" rotate(0, 278, 97)" width="7.5" x="274.6541" y="93.6576"/>
  <rect fill="#1b9fd8" height="10.5" stroke-width="0" transform=" rotate(0, 49, 115)" width="10.5" x="44.7329" y="109.8504"/>
  <polygon fill="#1b9fd8" points="61.7926,120.7738 67.0426,110.2738 72.2926,120.7738" stroke-width="0" transform=" rotate(0, 67, 115)"/>
  <ellipse cx="79.9" cy="113.8437" fill="#1b9fd8" rx="5.25" ry="5.25" stroke-width="0" transform=" rotate(0, 79, 113)"/>
  <rect fill="#1b9fd8" height="10.5" stroke-width="0" transform=" rotate(0, 99, 112)" width="10.5" x="93.9979" y="107.1137"/>
  <polygon fill="#1b9fd8" points="107.5555,119.4741 112.8055,108.9741 118.0555,119.4741" stroke-width="0" transform=" rotate(0, 112, 114)"/>
  <ellipse cx="126.5152" cy="112.1226" fill="#1b9fd8" rx="5.25" ry="5.25" stroke-width="0" transform=" rotate(0, 126, 112)"/>
  <rect fill="#1b9fd8" height="10.5" stroke-width="0" transform=" rotate(0, 144, 111)" width="10.5" x="139.4769" y="106.6736"/>
  <polygon fill="#1b9fd8" points="151.4579,118.2466 156.7079,107.7466 161.9579,118.2466" stroke-width="0" transform=" rotate(0, 156, 112)"/>
  <ellipse cx="170.5287" cy="115.1558" fill="#1b9fd8" rx="5.25" ry="5.25" stroke-width="0" transform=" rotate(0, 170, 115)"/>
  <rect fill="#1b9fd8" height="10.5" stroke-width="0" transform=" rotate(0, 187, 112)" width="10.5" x="182.0737" y="107.067"/>
  <polygon fill="#1b9fd8" points="198.0775,118.1813 203.3275,107.6813 208.5775,118.1813" stroke-width="0" transform=" rotate(0, 203, 112)"/>
  <ellipse cx="215.4508" cy="111.6118" fill="#1b9fd8" rx="5.25" ry="5.25" stroke-width="0" transform=" rotate(0, 215, 111)"/>
  <rect fill="#1b9fd8" height="10.5" stroke-width="0" transform=" rotate(0, 231, 110)" width="10.5" x="226.5068" y="104.9812"/>
  <polygon fill="#1b9fd8" points="240.2535,119.5713 245.5035,109.0713 250.7535,119.5713" stroke-width="0" transform=" rotate(0, 245, 114)"/>
  <ellipse cx="260.3962" cy="112.6868" fill="#1b9fd8" rx="5.25" ry="5.25" stroke-width="0" transform=" rotate(0, 260, 112)"/>
  <rect fill="#1b9fd8" height="10.5" stroke-width="0" transform=" rotate(0, 278, 110)" width="10.5" x="272.8882" y="104.8001"/>
  <rect fill="#006ca1" height="13.5" stroke-width="0" transform=" rotate(0, 53, 127)" width="13.5" x="46.9085" y="120.5474"/>
  <polygon fill="#006ca1" points="57.7095,137.2492 64.4595,123.7492 71.2095,137.2492" stroke-width="0" transform=" rotate(0, 64, 130)"/>
  <ellipse cx="80.9209" cy="125.624" fill="#006ca1" rx="6.75" ry="6.75" stroke-width="0" transform=" rotate(0, 80, 125)"/>
  <rect fill="#006ca1" height="13.5" stroke-width="0" transform=" rotate(0, 95, 129)" width="13.5" x="88.2942" y="123.0656"/>
  <polygon fill="#006ca1" points="107.4135,133.3048 114.1635,119.8048 120.9135,133.3048" stroke-width="0" transform=" rotate(0, 114, 126)"/>
  <ellipse cx="130.4337" cy="125.0279" fill="#006ca1" rx="6.75" ry="6.75" stroke-width="0" transform=" rotate(0, 130, 125)"/>
  <rect fill="#006ca1" height="13.5" stroke-width="0" transform=" rotate(0, 140, 126)" width="13.5" x="133.491" y="119.718"/>
  <polygon fill="#006ca1" points="151.5716,135.2811 158.3216,121.7811 165.0716,135.2811" stroke-width="0" transform=" rotate(0, 158, 128)"/>
  <ellipse cx="174.2536" cy="129.5831" fill="#006ca1" rx="6.75" ry="6.75" stroke-width="0" transform=" rotate(0, 174, 129)"/>
  <rect fill="#006ca1" height="13.5" stroke-width="0" transform=" rotate(0, 184, 125)" width="13.5" x="178.2223" y="118.9354"/>
  <polygon fill="#006ca1" points="194.8001,136.4748 201.5501,122.9748 208.3001,136.4748" stroke-width="0" transform=" rotate(0, 201, 129)"/>
  <ellipse cx="216.6207" cy="126.3702" fill="#006ca1" rx="6.75" ry="6.75" stroke-width="0" transform=" rotate(0, 216, 126)"/>
  <rect fill="#006ca1" height="13.5" stroke-width="0" transform=" rotate(0, 230, 125)" width="13.5" x="223.4479" y="118.4028"/>
  <polygon fill="#006ca1" points="237.989,136.7821 244.739,123.2821 251.489,136.7821" stroke-width="0" transform=" rotate(0, 244, 130)"/>
  <ellipse cx="260.5729" cy="125.3358" fill="#006ca1" rx="6.75" ry="6.75" stroke-width="0" transform=" rotate(0, 260, 125)"/>
  <rect fill="#006ca1" height="13.5" stroke-width="0" transform=" rotate(0, 276, 129)" width="13.5" x="269.875" y="122.3458"/>
  <rect fill="#6dd6ff" height="7.5" stroke-width="0" transform=" rotate(0, 51, 140)" width="7.5" x="47.9692" y="136.7456"/>
  <polygon fill="#6dd6ff" points="61.9693,144.6165 65.7193,137.1165 69.4693,144.6165" stroke-width="0" transform=" rotate(0, 65, 140)"/>
  <ellipse cx="83.622" cy="141.8767" fill="#6dd6ff" rx="3.75" ry="3.75" stroke-width="0" transform=" rotate(0, 83, 141)"/>
  <rect fill="#6dd6ff" height="7.5" stroke-width="0" transform=" rotate(0, 96, 143)" width="7.5" x="92.8114" y="139.6799"/>
  <polygon fill="#6dd6ff" points="111.5227,145.7582 115.2727,138.2582 119.0227,145.7582" stroke-width="0" transform=" rotate(0, 115, 142)"/>
  <ellipse cx="127.927" cy="143.7279" fill="#6dd6ff" rx="3.75" ry="3.75" stroke-width="0" transform=" rotate(0, 127, 143)"/>
  <rect fill="#6dd6ff" height="7.5" stroke-width="0" transform=" rotate(0, 144, 142)" width="7.5" x="140.9825" y="139.1451"/>
  <polygon fill="#6dd6ff" points="151.4213,143.8232 155.1713,136.3232 158.9213,143.8232" stroke-width="0" transform=" rotate(0, 155, 140)"/>
  <ellipse cx="171.6033" cy="141.0877" fill="#6dd6ff" rx="3.75" ry="3.75" stroke-width="0" transform=" rotate(0, 171, 141)"/>
  <rect fill="#6dd6ff" height="7.5" stroke-width="0" transform=" rotate(0, 189, 139)" width="7.5" x="186.1286" y="136.0021"/>
  <polygon fill="#6dd6ff" points="197.8789,148.0146 201.6289,140.5146 205.3789,148.0146" stroke-width="0" transform=" rotate(0, 201, 144)"/>
  <ellipse cx="215.0394" cy="142.3469" fill="#6dd6ff" rx="3.75" ry="3.75" stroke-width="0" transform=" rotate(0, 215, 142)"/>
  <rect fill="#6dd6ff" height="7.5" stroke-width="0" transform=" rotate(0, 231, 142)" width="7.5" x="227.8629" y="139.1239"/>
  <polygon fill="#6dd6ff" points="244.5908,148.4666 248.3408,140.9666 252.0908,148.4666" stroke-width="0" transform=" rotate(0, 248, 144)"/>
  <ellipse cx="261.7623" cy="139.5159" fill="#6dd6ff" rx="3.75" ry="3.75" stroke-width="0" transform=" rotate(0, 261, 139)"/>
  <rect fill="#6dd6ff" height="7.5" stroke-width="0" transform=" rotate(0, 280, 141)" width="7.5" x="276.3294" y="137.7832"/>
  <rect fill="#1b9fd8" height="10.5" stroke-width="0" transform=" rotate(0, 50, 154)" width="10.5" x="45.3322" y="149.4307"/>
  <polygon fill="#1b9fd8" points="60.6145,160.7256 65.8645,150.2256 71.1145,160.7256" stroke-width="0" transform=" rotate(0, 65, 155)"/>
  <ellipse cx="85.29" cy="157.7032" fill="#1b9fd8" rx="5.25" ry="5.25" stroke-width="0" transform=" rotate(0, 85, 157)"/>
  <rect fill="#1b9fd8" height="10.5" stroke-width="0" transform=" rotate(0, 96, 157)" width="10.5" x="90.7626" y="151.9902"/>
  <polygon fill="#1b9fd8" points="109.0819,159.9058 114.3319,149.4058 119.5819,159.9058" stroke-width="0" transform=" rotate(0, 114, 154)"/>
  <ellipse cx="124.9479" cy="160.0129" fill="#1b9fd8" rx="5.25" ry="5.25" stroke-width="0" transform=" rotate(0, 124, 160)"/>
  <rect fill="#1b9fd8" height="10.5" stroke-width="0" transform=" rotate(0, 140, 160)" width="10.5" x="134.7903" y="155.1291"/>
  <polygon fill="#1b9fd8" points="150.9543,159.8864 156.2043,149.3864 161.4543,159.8864" stroke-width="0" transform=" rotate(0, 156, 154)"/>
  <ellipse cx="174.709" cy="160.0465" fill="#1b9fd8" rx="5.25" ry="5.25" stroke-width="0" transform=" rotate(0, 174, 160)"/>
  <rect fill="#1b9fd8" height="10.5" stroke-width="0" transform=" rotate(0, 189, 158)" width="10.5" x="184.6013" y="153.0018"/>
  <polygon fill="#1b9fd8" points="199.4317,162.8954 204.6817,152.3954 209.9317,162.8954" stroke-width="0" transform=" rotate(0, 204, 157)"/>
  <ellipse cx="219.8217" cy="154.5734" fill="#1b9fd8" rx="5.25" ry="5.25" stroke-width="0" transform=" rotate(0, 219, 154)"/>
  <rect fill="#1b9fd8" height="10.5" stroke-width="0" transform=" rotate(0, 229, 156)" width="10.5" x="224.6408" y="151.5283"/>
  <polygon fill="#1b9fd8" points="241.4016,160.3367 246.6516,149.8367 251.9016,160.3367" stroke-width="0" transform=" rotate(0, 246, 155)"/>
  <ellipse cx="263.5129" cy="158.5281" fill="#1b9fd8" rx="5.25" ry="5.25" stroke-width="0" transform=" rotate(0, 263, 158)"/>
  <rect fill="#1b9fd8" height="10.5" stroke-width="0" transform=" rotate(0, 279, 158)" width="10.5" x="273.8298" y="153.0393"/>
  <rect fill="#1b9fd8" height="10.5" stroke-width="0" transform=" rotate(0, 53, 169)" width="10.5" x="48.7288" y="164.5668"/>
  <polygon fill="#1b9fd8" points="61.874,176.5028 67.124,166.0028 72.374,176.5028" stroke-width="0" transform=" rotate(0, 67, 171)"/>
  <ellipse cx="83.8758" cy="170.6179" fill="#1b9fd8" rx="5.25" ry="5.25" stroke-width="0" transform=" rotate(0, 83, 170)"/>
  <rect fill="#1b9fd8" height="10.5" stroke-width="0" transform=" rotate(0, 98, 172)" width="10.5" x="93.633" y="166.7921"/>
  <polygon fill="#1b9fd8" points="109.7619,178.9444 115.0119,168.4444 120.2619,178.9444" stroke-width="0" transform=" rotate(0, 115, 173)"/>
  <ellipse cx="124.5498" cy="174.5286" fill="#1b9fd8" rx="5.25" ry="5.25" stroke-width="0" transform=" rotate(0, 124, 174)"/>
  <rect fill="#1b9fd8" height="10.5" stroke-width="0" transform=" rotate(0, 144, 174)" width="10.5" x="138.8184" y="169.3646"/>
  <polygon fill="#1b9fd8" points="153.5154,176.272 158.7654,165.772 164.0154,176.272" stroke-width="0" transform=" rotate(0, 158, 171)"/>
  <ellipse cx="173.2869" cy="172.9553" fill="#1b9fd8" rx="5.25" ry="5.25" stroke-width="0" transform=" rotate(0, 173, 172)"/>
  <rect fill="#1b9fd8" height="10.5" stroke-width="0" transform=" rotate(0, 187, 172)" width="10.5" x="182.7455" y="166.8055"/>
  <polygon fill="#1b9fd8" points="195.4617,177.9254 200.7117,167.4254 205.9617,177.9254" stroke-width="0" transform=" rotate(0, 200, 172)"/>
  <ellipse cx="219.3542" cy="173.3779" fill="#1b9fd8" rx="5.25" ry="5.25" stroke-width="0" transform=" rotate(0, 219, 173)"/>
  <rect fill="#1b9fd8" height="10.5" stroke-width="0" transform=" rotate(0, 233, 170)" width="10.5" x="228.677" y="165.1647"/>
  <polygon fill="#1b9fd8" points="240.253,180.4809 245.503,169.9809 250.753,180.4809" stroke-width="0" transform=" rotate(0, 245, 175)"/>
  <ellipse cx="260.0237" cy="174.3303" fill="#1b9fd8" rx="5.25" ry="5.25" stroke-width="0" transform=" rotate(0, 260, 174)"/>
  <rect fill="#1b9fd8" height="10.5" stroke-width="0" transform=" rotate(0, 279, 171)" width="10.5" x="274.7006" y="165.8327"/>
  <rect fill="#6dd6ff" height="7.5" stroke-width="0" transform=" rotate(0, 50, 186)" width="7.5" x="47.0111" y="182.8253"/>
  <polygon fill="#6dd6ff" points="61.1882,192.3534 64.9382,184.8534 68.6882,192.3534" stroke-width="0" transform=" rotate(0, 64, 188)"/>
  <ellipse cx="79.4451" cy="190.5197" fill="#6dd6ff" rx="3.75" ry="3.75" stroke-width="0" transform=" rotate(0, 79, 190)"/>
  <rect fill="#6dd6ff" height="7.5" stroke-width="0" transform=" rotate(0, 98, 185)" width="7.5" x="94.5883" y="181.68"/>
  <polygon fill="#6dd6ff" points="105.9586,194.1425 109.7086,186.6425 113.4586,194.1425" stroke-width="0" transform=" rotate(0, 109, 190)"/>
  <ellipse cx="125.5809" cy="189.8221" fill="#6dd6ff" rx="3.75" ry="3.75" stroke-width="0" transform=" rotate(0, 125, 189)"/>
  <rect fill="#6dd6ff" height="7.5" stroke-width="0" transform=" rotate(0, 143, 185)" width="7.5" x="140.0732" y="181.3205"/>
  <polygon fill="#6dd6ff" points="154.7137,191.3321 158.4637,183.8321 162.2137,191.3321" stroke-width="0" transform=" rotate(0, 158, 187)"/>
  <ellipse cx="173.4127" cy="188.36" fill="#6dd6ff" rx="3.75" ry="3.75" stroke-width="0" transform=" rotate(0, 173, 188)"/>
  <rect fill="#6dd6ff" height="7.5" stroke-width="0" transform=" rotate(0, 190, 190)" width="7.5" x="186.4319" y="186.349"/>
  <polygon fill="#6dd6ff" points="199.5377,192.8616 203.2877,185.3616 207.0377,192.8616" stroke-width="0" transform=" rotate(0, 203, 189)"/>
  <ellipse cx="218.6983" cy="187.6325" fill="#6dd6ff" rx="3.75" ry="3.75" stroke-width="0" transform=" rotate(0, 218, 187)"/>
  <rect fill="#6dd6ff" height="7.5" stroke-width="0" transform=" rotate(0, 231, 185)" width="7.5" x="228.1579" y="182.2005"/>
  <polygon fill="#6dd6ff" points="245.3778,192.1366 249.1278,184.6366 252.8778,192.1366" stroke-width="0" transform=" rotate(0, 249, 188)"/>
  <ellipse cx="261.2493" cy="185.5289" fill="#6dd6ff" rx="3.75" ry="3.75" stroke-width="0" transform=" rotate(0, 261, 185)"/>
  <rect fill="#6dd6ff" height="7.5" stroke-width="0" transform=" rotate(0, 280, 186)" width="7.5" x="276.3936" y="182.6376"/>
  <rect fill="#006ca1" height="13.5" stroke-width="0" transform=" rotate(0, 52, 201)" width="13.5" x="45.7624" y="195.1361"/>
  <polygon fill="#006ca1" points="59.5219,209.1525 66.2719,195.6525 73.0219,209.1525" stroke-width="0" transform=" rotate(0, 66, 202)"/>
  <ellipse cx="84.9451" cy="201.0266" fill="#006ca1" rx="6.75" ry="6.75" stroke-width="0" transform=" rotate(0, 84, 201)"/>
  <rect fill="#006ca1" height="13.5" stroke-width="0" transform=" rotate(0, 100, 202)" width="13.5" x="93.3208" y="195.4391"/>
  <polygon fill="#006ca1" points="108.142,210.8766 114.892,197.3766 121.642,210.8766" stroke-width="0" transform=" rotate(0, 114, 204)"/>
  <ellipse cx="125.3425" cy="200.9551" fill="#006ca1" rx="6.75" ry="6.75" stroke-width="0" transform=" rotate(0, 125, 200)"/>
  <rect fill="#006ca1" height="13.5" stroke-width="0" transform=" rotate(0, 141, 204)" width="13.5" x="135.1535" y="197.7983"/>
  <polygon fill="#006ca1" points="152.1985,212.0761 158.9485,198.5761 165.6985,212.0761" stroke-width="0" transform=" rotate(0, 158, 205)"/>
  <ellipse cx="173.2874" cy="203.9946" fill="#006ca1" rx="6.75" ry="6.75" stroke-width="0" transform=" rotate(0, 173, 203)"/>
  <rect fill="#006ca1" height="13.5" stroke-width="0" transform=" rotate(0, 187, 201)" width="13.5" x="180.6222" y="194.3399"/>
  <polygon fill="#006ca1" points="198.0884,209.1658 204.8384,195.6658 211.5884,209.1658" stroke-width="0" transform=" rotate(0, 204, 202)"/>
  <ellipse cx="215.6023" cy="203.8324" fill="#006ca1" rx="6.75" ry="6.75" stroke-width="0" transform=" rotate(0, 215, 203)"/>
  <rect fill="#006ca1" height="13.5" stroke-width="0" transform=" rotate(0, 231, 200)" width="13.5" x="224.9145" y="193.6398"/>
  <polygon fill="#006ca1" points="242.7831,211.1953 249.5331,197.6953 256.2831,211.1953" stroke-width="0" transform=" rotate(0, 249, 204)"/>
  <ellipse cx="263.5859" cy="200.6147" fill="#006ca1" rx="6.75" ry="6.75" stroke-width="0" transform=" rotate(0, 263, 200)"/>
  <rect fill="#006ca1" height="13.5" stroke-width="0" transform=" rotate(0, 280, 199)" width="13.5" x="273.5311" y="193.2183"/>
  <rect fill="#1b9fd8" height="10.5" stroke-width="0" transform=" rotate(0, 53, 220)" width="10.5" x="47.8079" y="214.9144"/>
  <polygon fill="#1b9fd8" points="62.6722,223.7395 67.9222,213.2395 73.1722,223.7395" stroke-width="0" transform=" rotate(0, 67, 218)"/>
  <ellipse cx="82.2235" cy="216.8455" fill="#1b9fd8" rx="5.25" ry="5.25" stroke-width="0" transform=" rotate(0, 82, 216)"/>
  <rect fill="#1b9fd8" height="10.5" stroke-width="0" transform=" rotate(0, 99, 219)" width="10.5" x="93.7933" y="214.7123"/>
  <polygon fill="#1b9fd8" points="104.2309,224.6397 109.4809,214.1397 114.7309,224.6397" stroke-width="0" transform=" rotate(0, 109, 219)"/>
  <ellipse cx="125.5419" cy="220.339" fill="#1b9fd8" rx="5.25" ry="5.25" stroke-width="0" transform=" rotate(0, 125, 220)"/>
  <rect fill="#1b9fd8" height="10.5" stroke-width="0" transform=" rotate(0, 140, 218)" width="10.5" x="135.5398" y="212.8197"/>
  <polygon fill="#1b9fd8" points="152.3035,224.3936 157.5535,213.8936 162.8035,224.3936" stroke-width="0" transform=" rotate(0, 157, 219)"/>
  <ellipse cx="175.3347" cy="218.9108" fill="#1b9fd8" rx="5.25" ry="5.25" stroke-width="0" transform=" rotate(0, 175, 218)"/>
  <rect fill="#1b9fd8" height="10.5" stroke-width="0" transform=" rotate(0, 186, 214)" width="10.5" x="181.3964" y="209.6846"/>
  <polygon fill="#1b9fd8" points="198.6805,222.7512 203.9305,212.2512 209.1805,222.7512" stroke-width="0" transform=" rotate(0, 203, 217)"/>
  <ellipse cx="217.8727" cy="219.0261" fill="#1b9fd8" rx="5.25" ry="5.25" stroke-width="0" transform=" rotate(0, 217, 219)"/>
  <rect fill="#1b9fd8" height="10.5" stroke-width="0" transform=" rotate(0, 235, 215)" width="10.5" x="229.9085" y="209.7524"/>
  <polygon fill="#1b9fd8" points="243.5321,225.2923 248.7821,214.7923 254.0321,225.2923" stroke-width="0" transform=" rotate(0, 248, 220)"/>
  <ellipse cx="265.1915" cy="217.0084" fill="#1b9fd8" rx="5.25" ry="5.25" stroke-width="0" transform=" rotate(0, 265, 217)"/>
  <rect fill="#1b9fd8" height="10.5" stroke-width="0" transform=" rotate(0, 280, 218)" width="10.5" x="275.0082" y="213.6969"/>
  <rect fill="#6dd6ff" height="7.5" stroke-width="0" transform=" rotate(0, 51, 231)" width="7.5" x="47.9784" y="227.3612"/>
  <polygon fill="#6dd6ff" points="65.0073,236.9397 68.7573,229.4397 72.5073,236.9397" stroke-width="0" transform=" rotate(0, 68, 233)"/>
  <ellipse cx="82.5556" cy="235.2536" fill="#6dd6ff" rx="3.75" ry="3.75" stroke-width="0" transform=" rotate(0, 82, 235)"/>
  <rect fill="#6dd6ff" height="7.5" stroke-width="0" transform=" rotate(0, 97, 232)" width="7.5" x="93.9222" y="228.7413"/>
  <polygon fill="#6dd6ff" points="111.632,238.0611 115.382,230.5611 119.132,238.0611" stroke-width="0" transform=" rotate(0, 115, 234)"/>
  <ellipse cx="127.8309" cy="229.9734" fill="#6dd6ff" rx="3.75" ry="3.75" stroke-width="0" transform=" rotate(0, 127, 229)"/>
  <rect fill="#6dd6ff" height="7.5" stroke-width="0" transform=" rotate(0, 144, 235)" width="7.5" x="140.345" y="231.3528"/>
  <polygon fill="#6dd6ff" points="153.5449,235.2404 157.2949,227.7404 161.0449,235.2404" stroke-width="0" transform=" rotate(0, 157, 231)"/>
  <ellipse cx="172.9398" cy="230.9343" fill="#6dd6ff" rx="3.75" ry="3.75" stroke-width="0" transform=" rotate(0, 172, 230)"/>
  <rect fill="#6dd6ff" height="7.5" stroke-width="0" transform=" rotate(0, 186, 229)" width="7.5" x="182.7881" y="226.0923"/>
  <polygon fill="#6dd6ff" points="198.626,234.6561 202.376,227.1561 206.126,234.6561" stroke-width="0" transform=" rotate(0, 202, 230)"/>
  <ellipse cx="215.667" cy="230.2505" fill="#6dd6ff" rx="3.75" ry="3.75" stroke-width="0" transform=" rotate(0, 215, 230)"/>
  <rect fill="#6dd6ff" height="7.5" stroke-width="0" transform=" rotate(0, 231, 230)" width="7.5" x="228.1306" y="226.2813"/>
  <polygon fill="#6dd6ff" points="245.1352,233.4776 248.8852,225.9776 252.6352,233.4776" stroke-width="0" transform=" rotate(0, 248, 229)"/>
  <ellipse cx="264.1082" cy="229.5009" fill="#6dd6ff" rx="3.75" ry="3.75" stroke-width="0" transform=" rotate(0, 264, 229)"/>
  <rect fill="#6dd6ff" height="7.5" stroke-width="0" transform=" rotate(0, 275, 232)" width="7.5" x="271.6366" y="228.8228"/>
  <rect fill="#006ca1" height="13.5" stroke-width="0" transform=" rotate(0, 51, 249)" width="13.5" x="44.5535" y="242.6804"/>
  <polygon fill="#006ca1" points="61.5929,256.4076 68.3429,242.9076 75.0929,256.4076" stroke-width="0" transform=" rotate(0, 68, 249)"/>
  <ellipse cx="85.1396" cy="246.2335" fill="#006ca1" rx="6.75" ry="6.75" stroke-width="0" transform=" rotate(0, 85, 246)"/>
  <rect fill="#006ca1" height="13.5" stroke-width="0" transform=" rotate(0, 95, 249)" width="13.5" x="88.9296" y="242.5011"/>
  <polygon fill="#006ca1" points="108.0133,254.7818 114.7633,241.2818 121.5133,254.7818" stroke-width="0" transform=" rotate(0, 114, 248)"/>
  <ellipse cx="126.3004" cy="245.098" fill="#006ca1" rx="6.75" ry="6.75" stroke-width="0" transform=" rotate(0, 126, 245)"/>
  <rect fill="#006ca1" height="13.5" stroke-width="0" transform=" rotate(0, 143, 246)" width="13.5" x="136.3112" y="239.4465"/>
  <polygon fill="#006ca1" points="148.5306,255.8474 155.2806,242.3474 162.0306,255.8474" stroke-width="0" transform=" rotate(0, 155, 249)"/>
  <ellipse cx="170.19" cy="245.2749" fill="#006ca1" rx="6.75" ry="6.75" stroke-width="0" transform=" rotate(0, 170, 245)"/>
  <rect fill="#006ca1" height="13.5" stroke-width="0" transform=" rotate(0, 187, 248)" width="13.5" x="181.0188" y="241.2966"/>
  <polygon fill="#006ca1" points="197.5888,251.9602 204.3388,238.4602 211.0888,251.9602" stroke-width="0" transform=" rotate(0, 204, 245)"/>
  <ellipse cx="217.7914" cy="246.3976" fill="#006ca1" rx="6.75" ry="6.75" stroke-width="0" transform=" rotate(0, 217, 246)"/>
  <rect fill="#006ca1" height="13.5" stroke-width="0" transform=" rotate(0, 230, 247)" width="13.5" x="224.0665" y="240.7731"/>
  <polygon fill="#006ca1" points="239.6093,251.7431 246.3593,238.2431 253.1093,251.7431" stroke-width="0" transform=" rotate(0, 246, 244)"/>
  <ellipse cx="260.8811" cy="250.4247" fill="#006ca1" rx="6.75" ry="6.75" stroke-width="0" transform=" rotate(0, 260, 250)"/>
  <rect fill="#006ca1" height="13.5" stroke-width="0" transform=" rotate(0, 276, 248)" width="13.5" x="270.1122" y="241.7066"/>
  <rect fill="#1b9fd8" height="10.5" stroke-width="0" transform=" rotate(0, 54, 260)" width="10.5" x="49.7404" y="255.3119"/>
  <polygon fill="#1b9fd8" points="61.5584,265.2529 66.8084,254.7529 72.0584,265.2529" stroke-width="0" transform=" rotate(0, 66, 260)"/>
  <ellipse cx="83.1199" cy="262.8091" fill="#1b9fd8" rx="5.25" ry="5.25" stroke-width="0" transform=" rotate(0, 83, 262)"/>
  <rect fill="#1b9fd8" height="10.5" stroke-width="0" transform=" rotate(0, 97, 262)" width="10.5" x="91.7963" y="257.0147"/>
  <polygon fill="#1b9fd8" points="106.0261,266.7324 111.2761,256.2324 116.5261,266.7324" stroke-width="0" transform=" rotate(0, 111, 261)"/>
  <ellipse cx="124.3924" cy="263.4771" fill="#1b9fd8" rx="5.25" ry="5.25" stroke-width="0" transform=" rotate(0, 124, 263)"/>
  <rect fill="#1b9fd8" height="10.5" stroke-width="0" transform=" rotate(0, 141, 264)" width="10.5" x="136.6058" y="259.7398"/>
  <polygon fill="#1b9fd8" points="153.9847,267.1026 159.2347,256.6026 164.4847,267.1026" stroke-width="0" transform=" rotate(0, 159, 261)"/>
  <ellipse cx="169.7006" cy="260.6351" fill="#1b9fd8" rx="5.25" ry="5.25" stroke-width="0" transform=" rotate(0, 169, 260)"/>
  <rect fill="#1b9fd8" height="10.5" stroke-width="0" transform=" rotate(0, 190, 263)" width="10.5" x="184.7568" y="258.2803"/>
  <polygon fill="#1b9fd8" points="196.8957,266.155 202.1457,255.655 207.3957,266.155" stroke-width="0" transform=" rotate(0, 202, 260)"/>
  <ellipse cx="218.2986" cy="261.1231" fill="#1b9fd8" rx="5.25" ry="5.25" stroke-width="0" transform=" rotate(0, 218, 261)"/>
  <rect fill="#1b9fd8" height="10.5" stroke-width="0" transform=" rotate(0, 232, 263)" width="10.5" x="227.5566" y="258.0135"/>
  <polygon fill="#1b9fd8" points="241.7978,270.522 247.0478,260.022 252.2978,270.522" stroke-width="0" transform=" rotate(0, 247, 265)"/>
  <ellipse cx="264.662" cy="259.4589" fill="#1b9fd8" rx="5.25" ry="5.25" stroke-width="0" transform=" rotate(0, 264, 259)"/>
  <rect fill="#1b9fd8" height="10.5" stroke-width="0" transform=" rotate(0, 274, 264)" width="10.5" x="269.4275" y="258.8161"/>
  <rect fill="#6dd6ff" height="7.5" stroke-width="0" transform=" rotate(0, 55, 280)" width="7.5" x="51.5922" y="276.5448"/>
  <polygon fill="#6dd6ff" points="63.4456,281.9795 67.1956,274.4795 70.9456,281.9795" stroke-width="0" transform=" rotate(0, 67, 278)"/>
  <ellipse cx="81.7126" cy="279.3418" fill="#6dd6ff" rx="3.75" ry="3.75" stroke-width="0" transform=" rotate(0, 81, 279)"/>
  <rect fill="#6dd6ff" height="7.5" stroke-width="0" transform=" rotate(0, 95, 277)" width="7.5" x="92.1414" y="273.5391"/>
  <polygon fill="#6dd6ff" points="110.9088,283.3921 114.6588,275.8921 118.4088,283.3921" stroke-width="0" transform=" rotate(0, 114, 279)"/>
  <ellipse cx="125.6938" cy="278.7102" fill="#6dd6ff" rx="3.75" ry="3.75" stroke-width="0" transform=" rotate(0, 125, 278)"/>
  <rect fill="#6dd6ff" height="7.5" stroke-width="0" transform=" rotate(0, 142, 278)" width="7.5" x="139.0532" y="274.878"/>
  <polygon fill="#6dd6ff" points="155.3449,278.3846 159.0949,270.8846 162.8449,278.3846" stroke-width="0" transform=" rotate(0, 159, 274)"/>
  <ellipse cx="174.3674" cy="279.7455" fill="#6dd6ff" rx="3.75" ry="3.75" stroke-width="0" transform=" rotate(0, 174, 279)"/>
  <rect fill="#6dd6ff" height="7.5" stroke-width="0" transform=" rotate(0, 186, 275)" width="7.5" x="183.2276" y="272.122"/>
  <polygon fill="#6dd6ff" points="199.951,284.237 203.701,276.737 207.451,284.237" stroke-width="0" transform=" rotate(0, 203, 280)"/>
  <ellipse cx="216.4008" cy="275.3687" fill="#6dd6ff" rx="3.75" ry="3.75" stroke-width="0" transform=" rotate(0, 216, 275)"/>
  <rect fill="#6dd6ff" height="7.5" stroke-width="0" transform=" rotate(0, 230, 278)" width="7.5" x="227.0535" y="275.2473"/>
  <polygon fill="#6dd6ff" points="242.6936,278.9161 246.4436,271.4161 250.1936,278.9161" stroke-width="0" transform=" rotate(0, 246, 275)"/>
  <ellipse cx="260.3883" cy="277.4109" fill="#6dd6ff" rx="3.75" ry="3.75" stroke-width="0" transform=" rotate(0, 260, 277)"/>
  <rect fill="#6dd6ff" height="7.5" stroke-width="0" transform=" rotate(0, 275, 276)" width="7.5" x="271.4608" y="272.4036"/>
</svg>
