<?xml version="1.0" encoding="utf-8" ?>
<svg baseProfile="tiny" height="330" version="1.2" width="330" xmlns="http://www.w3.org/2000/svg" xmlns:ev="http://www.w3.org/2001/xml-events" xmlns:xlink="http://www.w3.org/1999/xlink">
  <defs/>
  <rect fill="white" height="330" width="330" x="0" y="0"/>
  <rect fill="#6dd6ff" height="10" stroke-width="0" transform=" rotate(0, 45, 47)" width="10" x="40.5977" y="42.9813"/>
  <polygon fill="#6dd6ff" points="68.8397,49.73 73.8397,39.73 78.8397,49.73" stroke-width="0" transform=" rotate(0, 73, 44)"/>
  <ellipse cx="100.2825" cy="42.782" fill="#6dd6ff" rx="5.0" ry="5.0" stroke-width="0" transform=" rotate(0, 100, 42)"/>
  <rect fill="#6dd6ff" height="10" stroke-width="0" transform=" rotate(0, 104, 58)" width="10" x="99.7529" y="53.1628"/>
  <polygon fill="#6dd6ff" points="139.5306,48.8233 144.5306,38.8233 149.5306,48.8233" stroke-width="0" transform=" rotate(0, 144, 43)"/>
  <ellipse cx="160.2744" cy="47.2693" fill="#6dd6ff" rx="5.0" ry="5.0" stroke-width="0" transform=" rotate(0, 160, 47)"/>
  <rect fill="#6dd6ff" height="10" stroke-width="0" transform=" rotate(0, 175, 60)" width="10" x="170.4911" y="55.0785"/>
  <polygon fill="#6dd6ff" points="179.9419,63.6581 184.9419,53.6581 189.9419,63.6581" stroke-width="0" transform=" rotate(0, 184, 58)"/>
  <ellipse cx="223.2876" cy="58.4566" fill="#6dd6ff" rx="5.0" ry="5.0" stroke-width="0" transform=" rotate(0, 223, 58)"/>
  <rect fill="#6dd6ff" height="10" stroke-width="0" transform=" rotate(0, 232, 65)" width="10" x="227.355" y="60.4462"/>
  <polygon fill="#6dd6ff" points="242.6962,62.9627 247.6962,52.9627 252.6962,62.9627" stroke-width="0" transform=" rotate(0, 247, 57)"/>
  <ellipse cx="277.4681" cy="59.5847" fill="#6dd6ff" rx="5.0" ry="5.0" stroke-width="0" transform=" rotate(0, 277, 59)"/>
  <rect fill="#1b9fd8" height="14" stroke-width="0" transform=" rotate(0, 66, 72)" width="14" x="59.1509" y="65.5116"/>
  <polygon fill="#1b9fd8" points="59.9431,88.2815 66.9431,74.2815 73.9431,88.2815" stroke-width="0" transform=" rotate(0, 66, 81)"/>
  <ellipse cx="96.7333" cy="69.9098" fill="#1b9fd8" rx="7.0" ry="7.0" stroke-width="0" transform=" rotate(0, 96, 69)"/>
  <rect fill="#1b9fd8" height="14" stroke-width="0" transform=" rotate(0, 119, 85)" width="14" x="112.7066" y="78.2946"/>
  <polygon fill="#1b9fd8" points="119.6514,81.8998 126.6514,67.8998 133.6514,81.8998" stroke-width="0" transform=" rotate(0, 126, 74)"/>
  <ellipse cx="155.5497" cy="69.999" fill="#1b9fd8" rx="7.0" ry="7.0" stroke-width="0" transform=" rotate(0, 155, 69)"/>
  <rect fill="#1b9fd8" height="14" stroke-width="0" transform=" rotate(0, 179, 84)" width="14" x="172.3669" y="77.5104"/>
  <polygon fill="#1b9fd8" points="187.3574,92.0073 194.3574,78.0073 201.3574,92.0073" stroke-width="0" transform=" rotate(0, 194, 85)"/>
  <ellipse cx="206.9632" cy="84.3008" fill="#1b9fd8" rx="7.0" ry="7.0" stroke-width="0" transform=" rotate(0, 206, 84)"/>
  <rect fill="#1b9fd8" height="14" stroke-width="0" transform=" rotate(0, 238, 66)" width="14" x="231.9403" y="59.3274"/>
  <polygon fill="#1b9fd8" points="246.628,79.4944 253.628,65.4944 260.628,79.4944" stroke-width="0" transform=" rotate(0, 253, 72)"/>
  <ellipse cx="284.5304" cy="80.5735" fill="#1b9fd8" rx="7.0" ry="7.0" stroke-width="0" transform=" rotate(0, 284, 80)"/>
  <rect fill="#006ca1" height="18" stroke-width="0" transform=" rotate(0, 54, 97)" width="18" x="45.1511" y="88.9614"/>
  <polygon fill="#006ca1" points="68.007,103.346 77.007,85.346 86.007,103.346" stroke-width="0" transform=" rotate(0, 77, 94)"/>
  <ellipse cx="99.8663" cy="104.0889" fill="#006ca1" rx="9.0" ry="9.0" stroke-width="0" transform=" rotate(0, 99, 104)"/>
  <rect fill="#006ca1" height="18" stroke-width="0" transform=" rotate(0, 109, 87)" width="18" x="100.5628" y="78.3537"/>
  <polygon fill="#006ca1" points="130.2234,100.5503 139.2234,82.5503 148.2234,100.5503" stroke-width="0" transform=" rotate(0, 139, 91)"/>
  <ellipse cx="166.2608" cy="102.8827" fill="#006ca1" rx="9.0" ry="9.0" stroke-width="0" transform=" rotate(0, 166, 102)"/>
  <rect fill="#006ca1" height="18" stroke-width="0" transform=" rotate(0, 164, 99)" width="18" x="155.2821" y="90.1409"/>
  <polygon fill="#006ca1" points="183.3653,114.838 192.3653,96.838 201.3653,114.838" stroke-width="0" transform=" rotate(0, 192, 105)"/>
  <ellipse cx="219.4835" cy="97.055" fill="#006ca1" rx="9.0" ry="9.0" stroke-width="0" transform=" rotate(0, 219, 97)"/>
  <rect fill="#006ca1" height="18" stroke-width="0" transform=" rotate(0, 234, 96)" width="18" x="225.1773" y="87.5188"/>
  <polygon fill="#006ca1" points="257.1845,102.7586 266.1845,84.7586 275.1845,102.7586" stroke-width="0" transform=" rotate(0, 266, 93)"/>
  <ellipse cx="279.8992" cy="100.9479" fill="#006ca1" rx="9.0" ry="9.0" stroke-width="0" transform=" rotate(0, 279, 100)"/>
  <rect fill="#6dd6ff" height="10" stroke-width="0" transform=" rotate(0, 55, 102)" width="10" x="50.0588" y="97.9238"/>
  <polygon fill="#6dd6ff" points="80.5344,112.1151 85.5344,102.1151 90.5344,112.1151" stroke-width="0" transform=" rotate(0, 85, 107)"/>
  <ellipse cx="98.96" cy="108.0948" fill="#6dd6ff" rx="5.0" ry="5.0" stroke-width="0" transform=" rotate(0, 98, 108)"/>
  <rect fill="#6dd6ff" height="10" stroke-width="0" transform=" rotate(0, 118, 115)" width="10" x="113.1151" y="110.0622"/>
  <polygon fill="#6dd6ff" points="132.1458,131.0495 137.1458,121.0495 142.1458,131.0495" stroke-width="0" transform=" rotate(0, 137, 126)"/>
  <ellipse cx="157.9435" cy="111.4785" fill="#6dd6ff" rx="5.0" ry="5.0" stroke-width="0" transform=" rotate(0, 157, 111)"/>
  <rect fill="#6dd6ff" height="10" stroke-width="0" transform=" rotate(0, 178, 120)" width="10" x="173.7377" y="115.5023"/>
  <polygon fill="#6dd6ff" points="201.5791,121.3232 206.5791,111.3232 211.5791,121.3232" stroke-width="0" transform=" rotate(0, 206, 116)"/>
  <ellipse cx="211.2167" cy="125.3536" fill="#6dd6ff" rx="5.0" ry="5.0" stroke-width="0" transform=" rotate(0, 211, 125)"/>
  <rect fill="#6dd6ff" height="10" stroke-width="0" transform=" rotate(0, 245, 119)" width="10" x="240.5987" y="114.9158"/>
  <polygon fill="#6dd6ff" points="247.0592,130.484 252.0592,120.484 257.0592,130.484" stroke-width="0" transform=" rotate(0, 252, 125)"/>
  <ellipse cx="269.4266" cy="125.7474" fill="#6dd6ff" rx="5.0" ry="5.0" stroke-width="0" transform=" rotate(0, 269, 125)"/>
  <rect fill="#1b9fd8" height="14" stroke-width="0" transform=" rotate(0, 44, 131)" width="14" x="37.7892" y="124.8027"/>
  <polygon fill="#1b9fd8" points="78.6834,146.818 85.6834,132.818 92.6834,146.818" stroke-width="0" transform=" rotate(0, 85, 139)"/>
  <ellipse cx="86.3258" cy="135.0707" fill="#1b9fd8" rx="7.0" ry="7.0" stroke-width="0" transform=" rotate(0, 86, 135)"/>
  <rect fill="#1b9fd8" height="14" stroke-width="0" transform=" rotate(0, 112, 135)" width="14" x="105.3243" y="128.5312"/>
  <polygon fill="#1b9fd8" points="137.8034,153.2366 144.8034,139.2366 151.8034,153.2366" stroke-width="0" transform=" rotate(0, 144, 146)"/>
  <ellipse cx="160.9203" cy="136.1581" fill="#1b9fd8" rx="7.0" ry="7.0" stroke-width="0" transform=" rotate(0, 160, 136)"/>
  <rect fill="#1b9fd8" height="14" stroke-width="0" transform=" rotate(0, 169, 141)" width="14" x="162.3075" y="134.1523"/>
  <polygon fill="#1b9fd8" points="184.6958,141.0405 191.6958,127.0405 198.6958,141.0405" stroke-width="0" transform=" rotate(0, 191, 134)"/>
  <ellipse cx="213.6016" cy="136.5884" fill="#1b9fd8" rx="7.0" ry="7.0" stroke-width="0" transform=" rotate(0, 213, 136)"/>
  <rect fill="#1b9fd8" height="14" stroke-width="0" transform=" rotate(0, 230, 131)" width="14" x="223.4758" y="124.0509"/>
  <polygon fill="#1b9fd8" points="245.6772,141.3612 252.6772,127.3612 259.6772,141.3612" stroke-width="0" transform=" rotate(0, 252, 134)"/>
  <ellipse cx="269.3723" cy="127.6094" fill="#1b9fd8" rx="7.0" ry="7.0" stroke-width="0" transform=" rotate(0, 269, 127)"/>
  <rect fill="#006ca1" height="18" stroke-width="0" transform=" rotate(0, 45, 152)" width="18" x="36.0209" y="143.404"/>
  <polygon fill="#006ca1" points="75.0912,169.3233 84.0912,151.3233 93.0912,169.3233" stroke-width="0" transform=" rotate(0, 84, 160)"/>
  <ellipse cx="83.7398" cy="161.2043" fill="#006ca1" rx="9.0" ry="9.0" stroke-width="0" transform=" rotate(0, 83, 161)"/>
  <rect fill="#006ca1" height="18" stroke-width="0" transform=" rotate(0, 118, 146)" width="18" x="109.8911" y="137.5016"/>
  <polygon fill="#006ca1" points="116.3751,159.124 125.3751,141.124 134.3751,159.124" stroke-width="0" transform=" rotate(0, 125, 150)"/>
  <ellipse cx="153.5125" cy="158.1807" fill="#006ca1" rx="9.0" ry="9.0" stroke-width="0" transform=" rotate(0, 153, 158)"/>
  <rect fill="#006ca1" height="18" stroke-width="0" transform=" rotate(0, 165, 165)" width="18" x="156.0479" y="156.2791"/>
  <polygon fill="#006ca1" points="193.2248,156.6591 202.2248,138.6591 211.2248,156.6591" stroke-width="0" transform=" rotate(0, 202, 147)"/>
  <ellipse cx="216.5264" cy="163.7922" fill="#006ca1" rx="9.0" ry="9.0" stroke-width="0" transform=" rotate(0, 216, 163)"/>
  <rect fill="#006ca1" height="18" stroke-width="0" transform=" rotate(0, 231, 150)" width="18" x="222.4286" y="141.1116"/>
  <polygon fill="#006ca1" points="255.1171,166.0681 264.1171,148.0681 273.1171,166.0681" stroke-width="0" transform=" rotate(0, 264, 157)"/>
  <ellipse cx="272.1901" cy="146.0829" fill="#006ca1" rx="9.0" ry="9.0" stroke-width="0" transform=" rotate(0, 272, 146)"/>
  <rect fill="#006ca1" height="18" stroke-width="0" transform=" rotate(0, 47, 165)" width="18" x="38.5315" y="156.7248"/>
  <polygon fill="#006ca1" points="65.623,184.9127 74.623,166.9127 83.623,184.9127" stroke-width="0" transform=" rotate(0, 74, 175)"/>
  <ellipse cx="98.5887" cy="182.1152" fill="#006ca1" rx="9.0" ry="9.0" stroke-width="0" transform=" rotate(0, 98, 182)"/>
  <rect fill="#006ca1" height="18" stroke-width="0" transform=" rotate(0, 107, 176)" width="18" x="98.2239" y="167.0019"/>
  <polygon fill="#006ca1" points="123.3832,177.2002 132.3832,159.2002 141.3832,177.2002" stroke-width="0" transform=" rotate(0, 132, 168)"/>
  <ellipse cx="147.4319" cy="170.3445" fill="#006ca1" rx="9.0" ry="9.0" stroke-width="0" transform=" rotate(0, 147, 170)"/>
  <rect fill="#006ca1" height="18" stroke-width="0" transform=" rotate(0, 167, 168)" width="18" x="158.0081" y="159.4553"/>
  <polygon fill="#006ca1" points="188.8408,181.3313 197.8408,163.3313 206.8408,181.3313" stroke-width="0" transform=" rotate(0, 197, 172)"/>
  <ellipse cx="219.8963" cy="184.6894" fill="#006ca1" rx="9.0" ry="9.0" stroke-width="0" transform=" rotate(0, 219, 184)"/>
  <rect fill="#006ca1" height="18" stroke-width="0" transform=" rotate(0, 223, 172)" width="18" x="214.3074" y="163.1188"/>
  <polygon fill="#006ca1" points="240.0808,186.3001 249.0808,168.3001 258.0808,186.3001" stroke-width="0" transform=" rotate(0, 249, 177)"/>
  <ellipse cx="265.6173" cy="173.0587" fill="#006ca1" rx="9.0" ry="9.0" stroke-width="0" transform=" rotate(0, 265, 173)"/>
  <rect fill="#1b9fd8" height="14" stroke-width="0" transform=" rotate(0, 61, 190)" width="14" x="54.8912" y="183.0159"/>
  <polygon fill="#1b9fd8" points="79.9092,189.5741 86.9092,175.5741 93.9092,189.5741" stroke-width="0" transform=" rotate(0, 86, 182)"/>
  <ellipse cx="86.3947" cy="192.306" fill="#1b9fd8" rx="7.0" ry="7.0" stroke-width="0" transform=" rotate(0, 86, 192)"/>
  <rect fill="#1b9fd8" height="14" stroke-width="0" transform=" rotate(0, 118, 201)" width="14" x="111.5651" y="194.7038"/>
  <polygon fill="#1b9fd8" points="135.2472,190.7914 142.2472,176.7914 149.2472,190.7914" stroke-width="0" transform=" rotate(0, 142, 183)"/>
  <ellipse cx="145.3333" cy="204.7542" fill="#1b9fd8" rx="7.0" ry="7.0" stroke-width="0" transform=" rotate(0, 145, 204)"/>
  <rect fill="#1b9fd8" height="14" stroke-width="0" transform=" rotate(0, 171, 193)" width="14" x="164.5665" y="186.4513"/>
  <polygon fill="#1b9fd8" points="184.8456,205.006 191.8456,191.006 198.8456,205.006" stroke-width="0" transform=" rotate(0, 191, 198)"/>
  <ellipse cx="206.2245" cy="196.0621" fill="#1b9fd8" rx="7.0" ry="7.0" stroke-width="0" transform=" rotate(0, 206, 196)"/>
  <rect fill="#1b9fd8" height="14" stroke-width="0" transform=" rotate(0, 224, 193)" width="14" x="217.4115" y="186.0645"/>
  <polygon fill="#1b9fd8" points="240.7061,210.3922 247.7061,196.3922 254.7061,210.3922" stroke-width="0" transform=" rotate(0, 247, 203)"/>
  <ellipse cx="271.8627" cy="183.7003" fill="#1b9fd8" rx="7.0" ry="7.0" stroke-width="0" transform=" rotate(0, 271, 183)"/>
  <rect fill="#6dd6ff" height="10" stroke-width="0" transform=" rotate(0, 52, 226)" width="10" x="47.2345" y="221.0793"/>
  <polygon fill="#6dd6ff" points="63.2844,218.6483 68.2844,208.6483 73.2844,218.6483" stroke-width="0" transform=" rotate(0, 68, 213)"/>
  <ellipse cx="99.7521" cy="211.7404" fill="#6dd6ff" rx="5.0" ry="5.0" stroke-width="0" transform=" rotate(0, 99, 211)"/>
  <rect fill="#6dd6ff" height="10" stroke-width="0" transform=" rotate(0, 111, 208)" width="10" x="106.6113" y="203.4961"/>
  <polygon fill="#6dd6ff" points="141.2733,228.3793 146.2733,218.3793 151.2733,228.3793" stroke-width="0" transform=" rotate(0, 146, 223)"/>
  <ellipse cx="157.0062" cy="207.7154" fill="#6dd6ff" rx="5.0" ry="5.0" stroke-width="0" transform=" rotate(0, 157, 207)"/>
  <rect fill="#6dd6ff" height="10" stroke-width="0" transform=" rotate(0, 184, 216)" width="10" x="179.1391" y="211.0486"/>
  <polygon fill="#6dd6ff" points="181.1196,226.1518 186.1196,216.1518 191.1196,226.1518" stroke-width="0" transform=" rotate(0, 186, 221)"/>
  <ellipse cx="211.7768" cy="222.2284" fill="#6dd6ff" rx="5.0" ry="5.0" stroke-width="0" transform=" rotate(0, 211, 222)"/>
  <rect fill="#6dd6ff" height="10" stroke-width="0" transform=" rotate(0, 244, 212)" width="10" x="239.7164" y="207.787"/>
  <polygon fill="#6dd6ff" points="246.8778,224.5956 251.8778,214.5956 256.8778,224.5956" stroke-width="0" transform=" rotate(0, 251, 219)"/>
  <ellipse cx="265.5986" cy="210.5085" fill="#6dd6ff" rx="5.0" ry="5.0" stroke-width="0" transform=" rotate(0, 265, 210)"/>
  <rect fill="#006ca1" height="18" stroke-width="0" transform=" rotate(0, 51, 228)" width="18" x="42.8147" y="219.1488"/>
  <polygon fill="#006ca1" points="69.6408,239.6774 78.6408,221.6774 87.6408,239.6774" stroke-width="0" transform=" rotate(0, 78, 230)"/>
  <ellipse cx="92.4048" cy="226.5084" fill="#006ca1" rx="9.0" ry="9.0" stroke-width="0" transform=" rotate(0, 92, 226)"/>
  <rect fill="#006ca1" height="18" stroke-width="0" transform=" rotate(0, 125, 225)" width="18" x="116.5096" y="216.8073"/>
  <polygon fill="#006ca1" points="118.743,240.9717 127.743,222.9717 136.743,240.9717" stroke-width="0" transform=" rotate(0, 127, 231)"/>
  <ellipse cx="148.8581" cy="244.484" fill="#006ca1" rx="9.0" ry="9.0" stroke-width="0" transform=" rotate(0, 148, 244)"/>
  <rect fill="#006ca1" height="18" stroke-width="0" transform=" rotate(0, 186, 226)" width="18" x="177.3414" y="217.8872"/>
  <polygon fill="#006ca1" points="180.4433,251.2905 189.4433,233.2905 198.4433,251.2905" stroke-width="0" transform=" rotate(0, 189, 242)"/>
  <ellipse cx="222.5566" cy="233.6837" fill="#006ca1" rx="9.0" ry="9.0" stroke-width="0" transform=" rotate(0, 222, 233)"/>
  <rect fill="#006ca1" height="18" stroke-width="0" transform=" rotate(0, 225, 228)" width="18" x="216.2371" y="219.2169"/>
  <polygon fill="#006ca1" points="236.6021,247.8236 245.6021,229.8236 254.6021,247.8236" stroke-width="0" transform=" rotate(0, 245, 238)"/>
  <ellipse cx="270.2005" cy="243.757" fill="#006ca1" rx="9.0" ry="9.0" stroke-width="0" transform=" rotate(0, 270, 243)"/>
  <rect fill="#1b9fd8" height="14" stroke-width="0" transform=" rotate(0, 64, 257)" width="14" x="57.0464" y="250.7205"/>
  <polygon fill="#1b9fd8" points="77.6083,258.1171 84.6083,244.1171 91.6083,258.1171" stroke-width="0" transform=" rotate(0, 84, 251)"/>
  <ellipse cx="103.9385" cy="243.872" fill="#1b9fd8" rx="7.0" ry="7.0" stroke-width="0" transform=" rotate(0, 103, 243)"/>
  <rect fill="#1b9fd8" height="14" stroke-width="0" transform=" rotate(0, 124, 255)" width="14" x="117.4914" y="248.5906"/>
  <polygon fill="#1b9fd8" points="118.0115,251.8944 125.0115,237.8944 132.0115,251.8944" stroke-width="0" transform=" rotate(0, 125, 244)"/>
  <ellipse cx="151.9677" cy="256.7768" fill="#1b9fd8" rx="7.0" ry="7.0" stroke-width="0" transform=" rotate(0, 151, 256)"/>
  <rect fill="#1b9fd8" height="14" stroke-width="0" transform=" rotate(0, 179, 260)" width="14" x="172.3208" y="253.0907"/>
  <polygon fill="#1b9fd8" points="194.5604,259.2838 201.5604,245.2838 208.5604,259.2838" stroke-width="0" transform=" rotate(0, 201, 252)"/>
  <ellipse cx="221.1617" cy="261.6984" fill="#1b9fd8" rx="7.0" ry="7.0" stroke-width="0" transform=" rotate(0, 221, 261)"/>
  <rect fill="#1b9fd8" height="14" stroke-width="0" transform=" rotate(0, 233, 250)" width="14" x="226.834" y="243.6258"/>
  <polygon fill="#1b9fd8" points="253.7545,250.4769 260.7545,236.4769 267.7545,250.4769" stroke-width="0" transform=" rotate(0, 260, 243)"/>
  <ellipse cx="280.7828" cy="243.2707" fill="#1b9fd8" rx="7.0" ry="7.0" stroke-width="0" transform=" rotate(0, 280, 243)"/>
  <rect fill="#6dd6ff" height="10" stroke-width="0" transform=" rotate(0, 65, 283)" width="10" x="60.2429" y="278.2198"/>
  <polygon fill="#6dd6ff" points="58.6643,284.2614 63.6643,274.2614 68.6643,284.2614" stroke-width="0" transform=" rotate(0, 63, 279)"/>
  <ellipse cx="101.5155" cy="263.1393" fill="#6dd6ff" rx="5.0" ry="5.0" stroke-width="0" transform=" rotate(0, 101, 263)"/>
  <rect fill="#6dd6ff" height="10" stroke-width="0" transform=" rotate(0, 120, 277)" width="10" x="115.3185" y="272.5338"/>
  <polygon fill="#6dd6ff" points="133.428,288.1515 138.428,278.1515 143.428,288.1515" stroke-width="0" transform=" rotate(0, 138, 283)"/>
  <ellipse cx="157.277" cy="267.9332" fill="#6dd6ff" rx="5.0" ry="5.0" stroke-width="0" transform=" rotate(0, 157, 267)"/>
  <rect fill="#6dd6ff" height="10" stroke-width="0" transform=" rotate(0, 168, 270)" width="10" x="163.2546" y="265.5341"/>
  <polygon fill="#6dd6ff" points="197.6447,276.4974 202.6447,266.4974 207.6447,276.4974" stroke-width="0" transform=" rotate(0, 202, 271)"/>
  <ellipse cx="220.9568" cy="264.8104" fill="#6dd6ff" rx="5.0" ry="5.0" stroke-width="0" transform=" rotate(0, 220, 264)"/>
  <rect fill="#6dd6ff" height="10" stroke-width="0" transform=" rotate(0, 227, 286)" width="10" x="222.4299" y="281.044"/>
  <polygon fill="#6dd6ff" points="240.5364,291.2034 245.5364,281.2034 250.5364,291.2034" stroke-width="0" transform=" rotate(0, 245, 286)"/>
  <ellipse cx="285.0008" cy="265.8545" fill="#6dd6ff" rx="5.0" ry="5.0" stroke-width="0" transform=" rotate(0, 285, 265)"/>
</svg>
