<?xml version="1.0" encoding="utf-8" ?>
<svg baseProfile="tiny" height="330" version="1.2" width="330" xmlns="http://www.w3.org/2000/svg" xmlns:ev="http://www.w3.org/2001/xml-events" xmlns:xlink="http://www.w3.org/1999/xlink">
  <defs/>
  <rect fill="white" height="330" width="330" x="0" y="0"/>
  <rect fill="#6dd6ff" height="20" stroke-width="0" transform=" rotate(0, 55, 65)" width="20" x="45.6411" y="55.0414"/>
  <polygon fill="#6dd6ff" points="93.3336,84.8187 103.3336,64.8187 113.3336,84.8187" stroke-width="0" transform=" rotate(0, 103, 74)"/>
  <ellipse cx="149.3469" cy="68.6825" fill="#6dd6ff" rx="10.0" ry="10.0" stroke-width="0" transform=" rotate(0, 149, 68)"/>
  <rect fill="#6dd6ff" height="20" stroke-width="0" transform=" rotate(0, 174, 67)" width="20" x="164.8527" y="57.894"/>
  <polygon fill="#6dd6ff" points="223.3119,76.9894 233.3119,56.9894 243.3119,76.9894" stroke-width="0" transform=" rotate(0, 233, 66)"/>
  <ellipse cx="269.3394" cy="67.7339" fill="#6dd6ff" rx="10.0" ry="10.0" stroke-width="0" transform=" rotate(0, 269, 67)"/>
  <rect fill="#1b9fd8" height="28" stroke-width="0" transform=" rotate(0, 64, 108)" width="28" x="50.875" y="94.4751"/>
  <polygon fill="#1b9fd8" points="81.029,129.7937 95.029,101.7937 109.029,129.7937" stroke-width="0" transform=" rotate(0, 95, 115)"/>
  <ellipse cx="152.1517" cy="101.4555" fill="#1b9fd8" rx="14.0" ry="14.0" stroke-width="0" transform=" rotate(0, 152, 101)"/>
  <rect fill="#1b9fd8" height="28" stroke-width="0" transform=" rotate(0, 181, 114)" width="28" x="167.948" y="100.8787"/>
  <polygon fill="#1b9fd8" points="203.5997,116.2418 217.5997,88.2418 231.5997,116.2418" stroke-width="0" transform=" rotate(0, 217, 102)"/>
  <ellipse cx="266.7201" cy="99.7847" fill="#1b9fd8" rx="14.0" ry="14.0" stroke-width="0" transform=" rotate(0, 266, 99)"/>
  <rect fill="#006ca1" height="36" stroke-width="0" transform=" rotate(0, 74, 135)" width="36" x="56.8241" y="117.4565"/>
  <polygon fill="#006ca1" points="78.8968,172.9578 96.8968,136.9578 114.8968,172.9578" stroke-width="0" transform=" rotate(0, 96, 154)"/>
  <ellipse cx="146.0344" cy="136.8907" fill="#006ca1" rx="18.0" ry="18.0" stroke-width="0" transform=" rotate(0, 146, 136)"/>
  <rect fill="#006ca1" height="36" stroke-width="0" transform=" rotate(0, 188, 142)" width="36" x="170.8094" y="124.4893"/>
  <polygon fill="#006ca1" points="198.6246,172.1364 216.6246,136.1364 234.6246,172.1364" stroke-width="0" transform=" rotate(0, 216, 154)"/>
  <ellipse cx="264.9297" cy="150.5122" fill="#006ca1" rx="18.0" ry="18.0" stroke-width="0" transform=" rotate(0, 264, 150)"/>
  <rect fill="#006ca1" height="36" stroke-width="0" transform=" rotate(0, 68, 179)" width="36" x="50.4923" y="161.6736"/>
  <polygon fill="#006ca1" points="85.8169,199.9027 103.8169,163.9027 121.8169,199.9027" stroke-width="0" transform=" rotate(0, 103, 181)"/>
  <ellipse cx="136.9156" cy="183.6814" fill="#006ca1" rx="18.0" ry="18.0" stroke-width="0" transform=" rotate(0, 136, 183)"/>
  <rect fill="#006ca1" height="36" stroke-width="0" transform=" rotate(0, 188, 180)" width="36" x="170.0942" y="162.764"/>
  <polygon fill="#006ca1" points="205.136,200.8187 223.136,164.8187 241.136,200.8187" stroke-width="0" transform=" rotate(0, 223, 182)"/>
  <ellipse cx="273.3116" cy="179.7341" fill="#006ca1" rx="18.0" ry="18.0" stroke-width="0" transform=" rotate(0, 273, 179)"/>
  <rect fill="#1b9fd8" height="28" stroke-width="0" transform=" rotate(0, 63, 215)" width="28" x="49.6243" y="201.6727"/>
  <polygon fill="#1b9fd8" points="92.2898,247.4717 106.2898,219.4717 120.2898,247.4717" stroke-width="0" transform=" rotate(0, 106, 233)"/>
  <ellipse cx="148.9585" cy="214.477" fill="#1b9fd8" rx="14.0" ry="14.0" stroke-width="0" transform=" rotate(0, 148, 214)"/>
  <rect fill="#1b9fd8" height="28" stroke-width="0" transform=" rotate(0, 179, 228)" width="28" x="165.3419" y="214.6183"/>
  <polygon fill="#1b9fd8" points="214.3585,230.0033 228.3585,202.0033 242.3585,230.0033" stroke-width="0" transform=" rotate(0, 228, 216)"/>
  <ellipse cx="274.9267" cy="223.5982" fill="#1b9fd8" rx="14.0" ry="14.0" stroke-width="0" transform=" rotate(0, 274, 223)"/>
  <rect fill="#6dd6ff" height="20" stroke-width="0" transform=" rotate(0, 54, 255)" width="20" x="44.4132" y="245.698"/>
  <polygon fill="#6dd6ff" points="91.9576,281.7297 101.9576,261.7297 111.9576,281.7297" stroke-width="0" transform=" rotate(0, 101, 271)"/>
  <ellipse cx="148.6013" cy="266.4112" fill="#6dd6ff" rx="10.0" ry="10.0" stroke-width="0" transform=" rotate(0, 148, 266)"/>
  <rect fill="#6dd6ff" height="20" stroke-width="0" transform=" rotate(0, 183, 261)" width="20" x="173.6488" y="251.6533"/>
  <polygon fill="#6dd6ff" points="224.8554,283.4959 234.8554,263.4959 244.8554,283.4959" stroke-width="0" transform=" rotate(0, 234, 273)"/>
  <ellipse cx="268.9892" cy="262.364" fill="#6dd6ff" rx="10.0" ry="10.0" stroke-width="0" transform=" rotate(0, 268, 262)"/>
</svg>
