<?xml version="1.0" encoding="utf-8" ?>
<svg baseProfile="tiny" height="330" version="1.2" width="330" xmlns="http://www.w3.org/2000/svg" xmlns:ev="http://www.w3.org/2001/xml-events" xmlns:xlink="http://www.w3.org/1999/xlink">
  <defs/>
  <rect fill="white" height="330" width="330" x="0" y="0"/>
  <rect fill="#6dd6ff" height="20" stroke-width="0" transform=" rotate(0, 44, 65)" width="20" x="34.9453" y="55.0888"/>
  <polygon fill="#6dd6ff" points="91.4292,96.0401 101.4292,76.0401 111.4292,96.0401" stroke-width="0" transform=" rotate(0, 101, 86)"/>
  <ellipse cx="154.3148" cy="72.8912" fill="#6dd6ff" rx="10.0" ry="10.0" stroke-width="0" transform=" rotate(0, 154, 72)"/>
  <rect fill="#6dd6ff" height="20" stroke-width="0" transform=" rotate(0, 163, 71)" width="20" x="153.2557" y="61.2014"/>
  <polygon fill="#6dd6ff" points="232.8111,79.2629 242.8111,59.2629 252.8111,79.2629" stroke-width="0" transform=" rotate(0, 242, 69)"/>
  <ellipse cx="274.2986" cy="70.8583" fill="#6dd6ff" rx="10.0" ry="10.0" stroke-width="0" transform=" rotate(0, 274, 70)"/>
  <rect fill="#1b9fd8" height="28" stroke-width="0" transform=" rotate(0, 64, 112)" width="28" x="50.7321" y="98.4467"/>
  <polygon fill="#1b9fd8" points="69.6336,142.1294 83.6336,114.1294 97.6336,142.1294" stroke-width="0" transform=" rotate(0, 83, 128)"/>
  <ellipse cx="160.3251" cy="97.4046" fill="#1b9fd8" rx="14.0" ry="14.0" stroke-width="0" transform=" rotate(0, 160, 97)"/>
  <rect fill="#1b9fd8" height="28" stroke-width="0" transform=" rotate(0, 178, 126)" width="28" x="164.4599" y="112.1685"/>
  <polygon fill="#1b9fd8" points="195.1423,113.0896 209.1423,85.0896 223.1423,113.0896" stroke-width="0" transform=" rotate(0, 209, 99)"/>
  <ellipse cx="268.686" cy="93.8245" fill="#1b9fd8" rx="14.0" ry="14.0" stroke-width="0" transform=" rotate(0, 268, 93)"/>
  <rect fill="#006ca1" height="36" stroke-width="0" transform=" rotate(0, 86, 124)" width="36" x="68.0517" y="106.5497"/>
  <polygon fill="#006ca1" points="69.636,184.3381 87.636,148.3381 105.636,184.3381" stroke-width="0" transform=" rotate(0, 87, 166)"/>
  <ellipse cx="147.2165" cy="127.6229" fill="#006ca1" rx="18.0" ry="18.0" stroke-width="0" transform=" rotate(0, 147, 127)"/>
  <rect fill="#006ca1" height="36" stroke-width="0" transform=" rotate(0, 193, 139)" width="36" x="175.1631" y="121.6198"/>
  <polygon fill="#006ca1" points="189.0527,182.578 207.0527,146.578 225.0527,182.578" stroke-width="0" transform=" rotate(0, 207, 164)"/>
  <ellipse cx="264.8493" cy="156.8118" fill="#006ca1" rx="18.0" ry="18.0" stroke-width="0" transform=" rotate(0, 264, 156)"/>
  <rect fill="#006ca1" height="36" stroke-width="0" transform=" rotate(0, 72, 173)" width="36" x="54.4836" y="155.5862"/>
  <polygon fill="#006ca1" points="84.4648,196.3629 102.4648,160.3629 120.4648,196.3629" stroke-width="0" transform=" rotate(0, 102, 178)"/>
  <ellipse cx="127.6763" cy="182.1744" fill="#006ca1" rx="18.0" ry="18.0" stroke-width="0" transform=" rotate(0, 127, 182)"/>
  <rect fill="#006ca1" height="36" stroke-width="0" transform=" rotate(0, 191, 175)" width="36" x="173.6304" y="157.9228"/>
  <polygon fill="#006ca1" points="203.0058,198.3257 221.0058,162.3257 239.0058,198.3257" stroke-width="0" transform=" rotate(0, 221, 180)"/>
  <ellipse cx="282.8107" cy="173.7159" fill="#006ca1" rx="18.0" ry="18.0" stroke-width="0" transform=" rotate(0, 282, 173)"/>
  <rect fill="#1b9fd8" height="28" stroke-width="0" transform=" rotate(0, 62, 205)" width="28" x="48.0521" y="191.013"/>
  <polygon fill="#1b9fd8" points="93.7639,257.1537 107.7639,229.1537 121.7639,257.1537" stroke-width="0" transform=" rotate(0, 107, 243)"/>
  <ellipse cx="153.4824" cy="202.4508" fill="#1b9fd8" rx="14.0" ry="14.0" stroke-width="0" transform=" rotate(0, 153, 202)"/>
  <rect fill="#1b9fd8" height="28" stroke-width="0" transform=" rotate(0, 172, 232)" width="28" x="158.8755" y="218.7534"/>
  <polygon fill="#1b9fd8" points="218.1967,219.7214 232.1967,191.7214 246.1967,219.7214" stroke-width="0" transform=" rotate(0, 232, 205)"/>
  <ellipse cx="286.2715" cy="221.9962" fill="#1b9fd8" rx="14.0" ry="14.0" stroke-width="0" transform=" rotate(0, 286, 221)"/>
  <rect fill="#6dd6ff" height="20" stroke-width="0" transform=" rotate(0, 42, 245)" width="20" x="32.314" y="235.0671"/>
  <polygon fill="#6dd6ff" points="88.4806,289.4208 98.4806,269.4208 108.4806,289.4208" stroke-width="0" transform=" rotate(0, 98, 279)"/>
  <ellipse cx="152.717" cy="268.0241" fill="#6dd6ff" rx="10.0" ry="10.0" stroke-width="0" transform=" rotate(0, 152, 268)"/>
  <rect fill="#6dd6ff" height="20" stroke-width="0" transform=" rotate(0, 182, 257)" width="20" x="172.1045" y="247.8285"/>
  <polygon fill="#6dd6ff" points="236.1188,293.2055 246.1188,273.2055 256.1188,293.2055" stroke-width="0" transform=" rotate(0, 246, 283)"/>
  <ellipse cx="273.5483" cy="259.3515" fill="#6dd6ff" rx="10.0" ry="10.0" stroke-width="0" transform=" rotate(0, 273, 259)"/>
</svg>
