<?xml version="1.0" encoding="utf-8" ?>
<svg baseProfile="tiny" height="330" version="1.2" width="330" xmlns="http://www.w3.org/2000/svg" xmlns:ev="http://www.w3.org/2001/xml-events" xmlns:xlink="http://www.w3.org/1999/xlink">
  <defs/>
  <rect fill="white" height="330" width="330" x="0" y="0"/>
  <rect fill="#6dd6ff" height="20" stroke-width="0" transform=" rotate(0, 51, 65)" width="20" x="41.6302" y="55.0592"/>
  <polygon fill="#6dd6ff" points="92.6195,89.0267 102.6195,69.0267 112.6195,89.0267" stroke-width="0" transform=" rotate(0, 102, 79)"/>
  <ellipse cx="151.2099" cy="70.2608" fill="#6dd6ff" rx="10.0" ry="10.0" stroke-width="0" transform=" rotate(0, 151, 70)"/>
  <rect fill="#6dd6ff" height="20" stroke-width="0" transform=" rotate(0, 170, 69)" width="20" x="160.5038" y="59.1343"/>
  <polygon fill="#6dd6ff" points="226.8741,77.842 236.8741,57.842 246.8741,77.842" stroke-width="0" transform=" rotate(0, 236, 67)"/>
  <ellipse cx="271.1991" cy="68.9055" fill="#6dd6ff" rx="10.0" ry="10.0" stroke-width="0" transform=" rotate(0, 271, 68)"/>
  <rect fill="#1b9fd8" height="28" stroke-width="0" transform=" rotate(0, 64, 109)" width="28" x="50.8214" y="95.9645"/>
  <polygon fill="#1b9fd8" points="76.7557,134.4196 90.7557,106.4196 104.7557,134.4196" stroke-width="0" transform=" rotate(0, 90, 120)"/>
  <ellipse cx="155.2167" cy="99.9364" fill="#1b9fd8" rx="14.0" ry="14.0" stroke-width="0" transform=" rotate(0, 155, 99)"/>
  <rect fill="#1b9fd8" height="28" stroke-width="0" transform=" rotate(0, 180, 119)" width="28" x="166.6399" y="105.1124"/>
  <polygon fill="#1b9fd8" points="200.4282,115.0597 214.4282,87.0597 228.4282,115.0597" stroke-width="0" transform=" rotate(0, 214, 101)"/>
  <ellipse cx="267.4574" cy="97.5496" fill="#1b9fd8" rx="14.0" ry="14.0" stroke-width="0" transform=" rotate(0, 267, 97)"/>
  <rect fill="#006ca1" height="36" stroke-width="0" transform=" rotate(0, 79, 131)" width="36" x="61.0345" y="113.3665"/>
  <polygon fill="#006ca1" points="75.424,177.2254 93.424,141.2254 111.424,177.2254" stroke-width="0" transform=" rotate(0, 93, 159)"/>
  <ellipse cx="146.4777" cy="133.4153" fill="#006ca1" rx="18.0" ry="18.0" stroke-width="0" transform=" rotate(0, 146, 133)"/>
  <rect fill="#006ca1" height="36" stroke-width="0" transform=" rotate(0, 190, 141)" width="36" x="172.4421" y="123.4132"/>
  <polygon fill="#006ca1" points="195.0351,176.052 213.0351,140.052 231.0351,176.052" stroke-width="0" transform=" rotate(0, 213, 158)"/>
  <ellipse cx="264.8995" cy="152.8745" fill="#006ca1" rx="18.0" ry="18.0" stroke-width="0" transform=" rotate(0, 264, 152)"/>
  <rect fill="#006ca1" height="36" stroke-width="0" transform=" rotate(0, 69, 177)" width="36" x="51.9891" y="159.3908"/>
  <polygon fill="#006ca1" points="85.3098,198.5753 103.3098,162.5753 121.3098,198.5753" stroke-width="0" transform=" rotate(0, 103, 180)"/>
  <ellipse cx="133.4509" cy="183.1162" fill="#006ca1" rx="18.0" ry="18.0" stroke-width="0" transform=" rotate(0, 133, 183)"/>
  <rect fill="#006ca1" height="36" stroke-width="0" transform=" rotate(0, 189, 178)" width="36" x="171.4203" y="160.9486"/>
  <polygon fill="#006ca1" points="204.3372,199.8838 222.3372,163.8838 240.3372,199.8838" stroke-width="0" transform=" rotate(0, 222, 181)"/>
  <ellipse cx="276.8738" cy="177.4772" fill="#006ca1" rx="18.0" ry="18.0" stroke-width="0" transform=" rotate(0, 276, 177)"/>
  <rect fill="#1b9fd8" height="28" stroke-width="0" transform=" rotate(0, 63, 211)" width="28" x="49.0347" y="197.6753"/>
  <polygon fill="#1b9fd8" points="92.8426,251.1025 106.8426,223.1025 120.8426,251.1025" stroke-width="0" transform=" rotate(0, 106, 237)"/>
  <ellipse cx="150.6549" cy="209.9672" fill="#1b9fd8" rx="14.0" ry="14.0" stroke-width="0" transform=" rotate(0, 150, 209)"/>
  <rect fill="#1b9fd8" height="28" stroke-width="0" transform=" rotate(0, 176, 230)" width="28" x="162.917" y="216.1689"/>
  <polygon fill="#1b9fd8" points="215.7978,226.1476 229.7978,198.1476 243.7978,226.1476" stroke-width="0" transform=" rotate(0, 229, 212)"/>
  <ellipse cx="279.181" cy="222.9975" fill="#1b9fd8" rx="14.0" ry="14.0" stroke-width="0" transform=" rotate(0, 279, 222)"/>
  <rect fill="#6dd6ff" height="20" stroke-width="0" transform=" rotate(0, 49, 251)" width="20" x="39.876" y="241.7114"/>
  <polygon fill="#6dd6ff" points="90.6537,284.6139 100.6537,264.6139 110.6537,284.6139" stroke-width="0" transform=" rotate(0, 100, 274)"/>
  <ellipse cx="150.1446" cy="267.0161" fill="#6dd6ff" rx="10.0" ry="10.0" stroke-width="0" transform=" rotate(0, 150, 267)"/>
  <rect fill="#6dd6ff" height="20" stroke-width="0" transform=" rotate(0, 183, 260)" width="20" x="173.0696" y="250.219"/>
  <polygon fill="#6dd6ff" points="229.0792,287.137 239.0792,267.137 249.0792,287.137" stroke-width="0" transform=" rotate(0, 239, 277)"/>
  <ellipse cx="270.6989" cy="261.2343" fill="#6dd6ff" rx="10.0" ry="10.0" stroke-width="0" transform=" rotate(0, 270, 261)"/>
</svg>
