<?xml version="1.0" encoding="utf-8" ?>
<svg baseProfile="tiny" height="330" version="1.2" width="330" xmlns="http://www.w3.org/2000/svg" xmlns:ev="http://www.w3.org/2001/xml-events" xmlns:xlink="http://www.w3.org/1999/xlink">
  <defs/>
  <rect fill="white" height="330" width="330" x="0" y="0"/>
  <rect fill="#6dd6ff" height="15" stroke-width="0" transform=" rotate(0, 52, 53)" width="15" x="45.0663" y="46.0477"/>
  <polygon fill="#6dd6ff" points="81.2477,67.1508 88.7477,52.1508 96.2477,67.1508" stroke-width="0" transform=" rotate(0, 88, 59)"/>
  <ellipse cx="123.5798" cy="53.3023" fill="#6dd6ff" rx="7.5" ry="7.5" stroke-width="0" transform=" rotate(0, 123, 53)"/>
  <rect fill="#6dd6ff" height="15" stroke-width="0" transform=" rotate(0, 141, 66)" width="15" x="134.4327" y="58.685"/>
  <polygon fill="#6dd6ff" points="179.266,69.4112 186.766,54.4112 194.266,69.4112" stroke-width="0" transform=" rotate(0, 186, 61)"/>
  <ellipse cx="213.5738" cy="58.0879" fill="#6dd6ff" rx="7.5" ry="7.5" stroke-width="0" transform=" rotate(0, 213, 58)"/>
  <rect fill="#6dd6ff" height="15" stroke-width="0" transform=" rotate(0, 239, 67)" width="15" x="232.4863" y="60.1043"/>
  <polygon fill="#6dd6ff" points="254.5744,66.159 262.0744,51.159 269.5744,66.159" stroke-width="0" transform=" rotate(0, 262, 58)"/>
  <rect fill="#1b9fd8" height="21" stroke-width="0" transform=" rotate(0, 65, 85)" width="21" x="55.3337" y="74.665"/>
  <polygon fill="#1b9fd8" points="77.1343,100.9836 87.6343,79.9836 98.1343,100.9836" stroke-width="0" transform=" rotate(0, 87, 90)"/>
  <ellipse cx="114.1401" cy="93.4579" fill="#1b9fd8" rx="10.5" ry="10.5" stroke-width="0" transform=" rotate(0, 114, 93)"/>
  <rect fill="#1b9fd8" height="21" stroke-width="0" transform=" rotate(0, 151, 84)" width="21" x="140.9691" y="74.4343"/>
  <polygon fill="#1b9fd8" points="177.4812,99.3038 187.9812,78.3038 198.4812,99.3038" stroke-width="0" transform=" rotate(0, 187, 88)"/>
  <ellipse cx="203.5753" cy="85.0903" fill="#1b9fd8" rx="10.5" ry="10.5" stroke-width="0" transform=" rotate(0, 203, 85)"/>
  <rect fill="#1b9fd8" height="21" stroke-width="0" transform=" rotate(0, 240, 84)" width="21" x="230.418" y="74.2725"/>
  <polygon fill="#1b9fd8" points="262.6479,103.397 273.1479,82.397 283.6479,103.397" stroke-width="0" transform=" rotate(0, 273, 92)"/>
  <rect fill="#006ca1" height="27" stroke-width="0" transform=" rotate(0, 53, 124)" width="27" x="39.8566" y="110.9386"/>
  <polygon fill="#006ca1" points="76.5303,125.4969 90.0303,98.4969 103.5303,125.4969" stroke-width="0" transform=" rotate(0, 90, 111)"/>
  <ellipse cx="122.8931" cy="116.327" fill="#006ca1" rx="13.5" ry="13.5" stroke-width="0" transform=" rotate(0, 122, 116)"/>
  <rect fill="#006ca1" height="27" stroke-width="0" transform=" rotate(0, 149, 113)" width="27" x="135.6361" y="100.2294"/>
  <polygon fill="#006ca1" points="160.0904,139.4348 173.5904,112.4348 187.0904,139.4348" stroke-width="0" transform=" rotate(0, 173, 125)"/>
  <ellipse cx="212.5732" cy="129.6983" fill="#006ca1" rx="13.5" ry="13.5" stroke-width="0" transform=" rotate(0, 212, 129)"/>
  <rect fill="#006ca1" height="27" stroke-width="0" transform=" rotate(0, 238, 114)" width="27" x="225.089" y="100.8125"/>
  <polygon fill="#006ca1" points="263.2658,136.9403 276.7658,109.9403 290.2658,136.9403" stroke-width="0" transform=" rotate(0, 276, 123)"/>
  <rect fill="#6dd6ff" height="15" stroke-width="0" transform=" rotate(0, 58, 156)" width="15" x="51.4813" y="148.7018"/>
  <polygon fill="#6dd6ff" points="83.6233,151.0164 91.1233,136.0164 98.6233,151.0164" stroke-width="0" transform=" rotate(0, 91, 143)"/>
  <ellipse cx="123.2677" cy="148.1913" fill="#6dd6ff" rx="7.5" ry="7.5" stroke-width="0" transform=" rotate(0, 123, 148)"/>
  <rect fill="#6dd6ff" height="15" stroke-width="0" transform=" rotate(0, 145, 148)" width="15" x="138.0401" y="140.9006"/>
  <polygon fill="#6dd6ff" points="175.2856,151.6848 182.7856,136.6848 190.2856,151.6848" stroke-width="0" transform=" rotate(0, 182, 144)"/>
  <ellipse cx="218.0636" cy="142.8251" fill="#6dd6ff" rx="7.5" ry="7.5" stroke-width="0" transform=" rotate(0, 218, 142)"/>
  <rect fill="#6dd6ff" height="15" stroke-width="0" transform=" rotate(0, 231, 145)" width="15" x="224.0796" y="137.796"/>
  <polygon fill="#6dd6ff" points="260.142,155.9134 267.642,140.9134 275.142,155.9134" stroke-width="0" transform=" rotate(0, 267, 148)"/>
  <rect fill="#6dd6ff" height="15" stroke-width="0" transform=" rotate(0, 62, 178)" width="15" x="55.4807" y="171.1923"/>
  <polygon fill="#6dd6ff" points="81.501,183.2297 89.001,168.2297 96.501,183.2297" stroke-width="0" transform=" rotate(0, 89, 175)"/>
  <ellipse cx="128.0063" cy="184.3305" fill="#6dd6ff" rx="7.5" ry="7.5" stroke-width="0" transform=" rotate(0, 128, 184)"/>
  <rect fill="#6dd6ff" height="15" stroke-width="0" transform=" rotate(0, 153, 178)" width="15" x="145.7924" y="170.7249"/>
  <polygon fill="#6dd6ff" points="172.1621,196.7214 179.6621,181.7214 187.1621,196.7214" stroke-width="0" transform=" rotate(0, 179, 189)"/>
  <ellipse cx="217.5188" cy="182.271" fill="#6dd6ff" rx="7.5" ry="7.5" stroke-width="0" transform=" rotate(0, 217, 182)"/>
  <rect fill="#6dd6ff" height="15" stroke-width="0" transform=" rotate(0, 242, 187)" width="15" x="235.088" y="180.1207"/>
  <polygon fill="#6dd6ff" points="264.4543,181.6061 271.9543,166.6061 279.4543,181.6061" stroke-width="0" transform=" rotate(0, 271, 174)"/>
  <rect fill="#006ca1" height="27" stroke-width="0" transform=" rotate(0, 61, 208)" width="27" x="47.7274" y="194.849"/>
  <polygon fill="#006ca1" points="78.3256,231.5537 91.8256,204.5537 105.3256,231.5537" stroke-width="0" transform=" rotate(0, 91, 218)"/>
  <ellipse cx="122.4213" cy="208.4248" fill="#006ca1" rx="13.5" ry="13.5" stroke-width="0" transform=" rotate(0, 122, 208)"/>
  <rect fill="#006ca1" height="27" stroke-width="0" transform=" rotate(0, 158, 203)" width="27" x="144.8023" y="190.2154"/>
  <polygon fill="#006ca1" points="163.2805,221.8775 176.7805,194.8775 190.2805,221.8775" stroke-width="0" transform=" rotate(0, 176, 208)"/>
  <ellipse cx="217.567" cy="213.497" fill="#006ca1" rx="13.5" ry="13.5" stroke-width="0" transform=" rotate(0, 217, 213)"/>
  <rect fill="#006ca1" height="27" stroke-width="0" transform=" rotate(0, 237, 208)" width="27" x="223.9124" y="195.32"/>
  <polygon fill="#006ca1" points="251.938,232.1486 265.438,205.1486 278.938,232.1486" stroke-width="0" transform=" rotate(0, 265, 218)"/>
  <rect fill="#1b9fd8" height="21" stroke-width="0" transform=" rotate(0, 51, 235)" width="21" x="41.4599" y="224.8237"/>
  <polygon fill="#1b9fd8" points="87.1306,246.66 97.6306,225.66 108.1306,246.66" stroke-width="0" transform=" rotate(0, 97, 236)"/>
  <ellipse cx="113.1124" cy="249.2724" fill="#1b9fd8" rx="10.5" ry="10.5" stroke-width="0" transform=" rotate(0, 113, 249)"/>
  <rect fill="#1b9fd8" height="21" stroke-width="0" transform=" rotate(0, 147, 236)" width="21" x="137.1112" y="226.0989"/>
  <polygon fill="#1b9fd8" points="176.4705,256.9339 186.9705,235.9339 197.4705,256.9339" stroke-width="0" transform=" rotate(0, 186, 246)"/>
  <ellipse cx="214.0582" cy="233.4442" fill="#1b9fd8" rx="10.5" ry="10.5" stroke-width="0" transform=" rotate(0, 214, 233)"/>
  <rect fill="#1b9fd8" height="21" stroke-width="0" transform=" rotate(0, 235, 233)" width="21" x="224.8486" y="223.218"/>
  <polygon fill="#1b9fd8" points="256.6399,247.6668 267.1399,226.6668 277.6399,247.6668" stroke-width="0" transform=" rotate(0, 267, 237)"/>
  <rect fill="#6dd6ff" height="15" stroke-width="0" transform=" rotate(0, 58, 277)" width="15" x="51.0692" y="270.0512"/>
  <polygon fill="#6dd6ff" points="78.7248,285.4727 86.2248,270.4727 93.7248,285.4727" stroke-width="0" transform=" rotate(0, 86, 277)"/>
  <ellipse cx="117.8759" cy="277.4703" fill="#6dd6ff" rx="7.5" ry="7.5" stroke-width="0" transform=" rotate(0, 117, 277)"/>
  <rect fill="#6dd6ff" height="15" stroke-width="0" transform=" rotate(0, 145, 277)" width="15" x="137.8972" y="270.385"/>
  <polygon fill="#6dd6ff" points="164.6337,270.775 172.1337,255.775 179.6337,270.775" stroke-width="0" transform=" rotate(0, 172, 263)"/>
  <ellipse cx="216.4364" cy="268.4921" fill="#6dd6ff" rx="7.5" ry="7.5" stroke-width="0" transform=" rotate(0, 216, 268)"/>
  <rect fill="#6dd6ff" height="15" stroke-width="0" transform=" rotate(0, 231, 274)" width="15" x="223.6728" y="266.507"/>
  <polygon fill="#6dd6ff" points="265.0363,283.1867 272.5363,268.1867 280.0363,283.1867" stroke-width="0" transform=" rotate(0, 272, 275)"/>
</svg>
