<?xml version="1.0" encoding="utf-8" ?>
<svg baseProfile="tiny" height="330" version="1.2" width="330" xmlns="http://www.w3.org/2000/svg" xmlns:ev="http://www.w3.org/2001/xml-events" xmlns:xlink="http://www.w3.org/1999/xlink">
  <defs/>
  <rect fill="white" height="330" width="330" x="0" y="0"/>
  <rect fill="#6dd6ff" height="5" stroke-width="0" transform=" rotate(0, 47, 51)" width="5" x="44.7365" y="49.335"/>
  <polygon fill="#6dd6ff" points="57.1404,52.1572 59.6404,47.1572 62.1404,52.1572" stroke-width="0" transform=" rotate(0, 59, 49)"/>
  <ellipse cx="71.5195" cy="49.2731" fill="#6dd6ff" rx="2.5" ry="2.5" stroke-width="0" transform=" rotate(0, 71, 49)"/>
  <rect fill="#6dd6ff" height="5" stroke-width="0" transform=" rotate(0, 76, 52)" width="5" x="74.49" y="50.4251"/>
  <polygon fill="#6dd6ff" points="90.2586,54.7945 92.7586,49.7945 95.2586,54.7945" stroke-width="0" transform=" rotate(0, 92, 52)"/>
  <ellipse cx="101.5171" cy="46.4303" fill="#6dd6ff" rx="2.5" ry="2.5" stroke-width="0" transform=" rotate(0, 101, 46)"/>
  <rect fill="#6dd6ff" height="5" stroke-width="0" transform=" rotate(0, 110, 52)" width="5" x="107.622" y="49.8795"/>
  <polygon fill="#6dd6ff" points="114.5452,55.5903 117.0452,50.5903 119.5452,55.5903" stroke-width="0" transform=" rotate(0, 117, 53)"/>
  <ellipse cx="132.396" cy="52.3509" fill="#6dd6ff" rx="2.5" ry="2.5" stroke-width="0" transform=" rotate(0, 132, 52)"/>
  <rect fill="#6dd6ff" height="5" stroke-width="0" transform=" rotate(0, 139, 53)" width="5" x="136.7073" y="50.6758"/>
  <polygon fill="#6dd6ff" points="145.3485,55.5575 147.8485,50.5575 150.3485,55.5575" stroke-width="0" transform=" rotate(0, 147, 53)"/>
  <ellipse cx="160.6986" cy="47.0527" fill="#6dd6ff" rx="2.5" ry="2.5" stroke-width="0" transform=" rotate(0, 160, 47)"/>
  <rect fill="#6dd6ff" height="5" stroke-width="0" transform=" rotate(0, 173, 48)" width="5" x="170.7311" y="46.1671"/>
  <polygon fill="#6dd6ff" points="175.1288,52.0444 177.6288,47.0444 180.1288,52.0444" stroke-width="0" transform=" rotate(0, 177, 49)"/>
  <ellipse cx="190.4843" cy="47.9778" fill="#6dd6ff" rx="2.5" ry="2.5" stroke-width="0" transform=" rotate(0, 190, 47)"/>
  <rect fill="#6dd6ff" height="5" stroke-width="0" transform=" rotate(0, 201, 50)" width="5" x="198.8515" y="48.278"/>
  <polygon fill="#6dd6ff" points="205.0438,53.134 207.5438,48.134 210.0438,53.134" stroke-width="0" transform=" rotate(0, 207, 50)"/>
  <ellipse cx="220.1391" cy="47.0265" fill="#6dd6ff" rx="2.5" ry="2.5" stroke-width="0" transform=" rotate(0, 220, 47)"/>
  <rect fill="#6dd6ff" height="5" stroke-width="0" transform=" rotate(0, 231, 53)" width="5" x="228.7525" y="50.6086"/>
  <polygon fill="#6dd6ff" points="237.2914,49.0261 239.7914,44.0261 242.2914,49.0261" stroke-width="0" transform=" rotate(0, 239, 46)"/>
  <ellipse cx="247.6347" cy="51.5651" fill="#6dd6ff" rx="2.5" ry="2.5" stroke-width="0" transform=" rotate(0, 247, 51)"/>
  <rect fill="#6dd6ff" height="5" stroke-width="0" transform=" rotate(0, 261, 47)" width="5" x="258.628" y="45.1569"/>
  <polygon fill="#6dd6ff" points="267.0786,51.1417 269.5786,46.1417 272.0786,51.1417" stroke-width="0" transform=" rotate(0, 269, 48)"/>
  <ellipse cx="282.7585" cy="49.7313" fill="#6dd6ff" rx="2.5" ry="2.5" stroke-width="0" transform=" rotate(0, 282, 49)"/>
  <rect fill="#1b9fd8" height="7" stroke-width="0" transform=" rotate(0, 49, 60)" width="7" x="46.2312" y="57.1961"/>
  <polygon fill="#1b9fd8" points="57.0642,61.7783 60.5642,54.7783 64.0642,61.7783" stroke-width="0" transform=" rotate(0, 60, 58)"/>
  <ellipse cx="71.3981" cy="62.5764" fill="#1b9fd8" rx="3.5" ry="3.5" stroke-width="0" transform=" rotate(0, 71, 62)"/>
  <rect fill="#1b9fd8" height="7" stroke-width="0" transform=" rotate(0, 78, 61)" width="7" x="74.8929" y="57.5714"/>
  <polygon fill="#1b9fd8" points="87.7106,61.2233 91.2106,54.2233 94.7106,61.2233" stroke-width="0" transform=" rotate(0, 91, 57)"/>
  <ellipse cx="103.2632" cy="61.3071" fill="#1b9fd8" rx="3.5" ry="3.5" stroke-width="0" transform=" rotate(0, 103, 61)"/>
  <rect fill="#1b9fd8" height="7" stroke-width="0" transform=" rotate(0, 106, 61)" width="7" x="103.3527" y="58.0182"/>
  <polygon fill="#1b9fd8" points="115.7103,65.9889 119.2103,58.9889 122.7103,65.9889" stroke-width="0" transform=" rotate(0, 119, 62)"/>
  <ellipse cx="131.2865" cy="58.6191" fill="#1b9fd8" rx="3.5" ry="3.5" stroke-width="0" transform=" rotate(0, 131, 58)"/>
  <rect fill="#1b9fd8" height="7" stroke-width="0" transform=" rotate(0, 139, 58)" width="7" x="136.2388" y="54.5913"/>
  <polygon fill="#1b9fd8" points="149.7409,65.2258 153.2409,58.2258 156.7409,65.2258" stroke-width="0" transform=" rotate(0, 153, 61)"/>
  <ellipse cx="161.4077" cy="58.1603" fill="#1b9fd8" rx="3.5" ry="3.5" stroke-width="0" transform=" rotate(0, 161, 58)"/>
  <rect fill="#1b9fd8" height="7" stroke-width="0" transform=" rotate(0, 169, 62)" width="7" x="166.4959" y="58.6614"/>
  <polygon fill="#1b9fd8" points="179.5513,65.3372 183.0513,58.3372 186.5513,65.3372" stroke-width="0" transform=" rotate(0, 183, 61)"/>
  <ellipse cx="191.1338" cy="59.6753" fill="#1b9fd8" rx="3.5" ry="3.5" stroke-width="0" transform=" rotate(0, 191, 59)"/>
  <rect fill="#1b9fd8" height="7" stroke-width="0" transform=" rotate(0, 200, 63)" width="7" x="197.3873" y="59.7624"/>
  <polygon fill="#1b9fd8" points="207.1047,63.3181 210.6047,56.3181 214.1047,63.3181" stroke-width="0" transform=" rotate(0, 210, 59)"/>
  <ellipse cx="220.8373" cy="62.7573" fill="#1b9fd8" rx="3.5" ry="3.5" stroke-width="0" transform=" rotate(0, 220, 62)"/>
  <rect fill="#1b9fd8" height="7" stroke-width="0" transform=" rotate(0, 231, 60)" width="7" x="227.569" y="56.8793"/>
  <polygon fill="#1b9fd8" points="239.856,63.1163 243.356,56.1163 246.856,63.1163" stroke-width="0" transform=" rotate(0, 243, 59)"/>
  <ellipse cx="248.8753" cy="58.0853" fill="#1b9fd8" rx="3.5" ry="3.5" stroke-width="0" transform=" rotate(0, 248, 58)"/>
  <rect fill="#1b9fd8" height="7" stroke-width="0" transform=" rotate(0, 263, 56)" width="7" x="259.5701" y="53.1615"/>
  <polygon fill="#1b9fd8" points="265.621,62.1456 269.121,55.1456 272.621,62.1456" stroke-width="0" transform=" rotate(0, 269, 58)"/>
  <ellipse cx="278.3532" cy="60.3447" fill="#1b9fd8" rx="3.5" ry="3.5" stroke-width="0" transform=" rotate(0, 278, 60)"/>
  <rect fill="#006ca1" height="9" stroke-width="0" transform=" rotate(0, 47, 66)" width="9" x="42.5006" y="62.0031"/>
  <polygon fill="#006ca1" points="58.5948,77.1395 63.0948,68.1395 67.5948,77.1395" stroke-width="0" transform=" rotate(0, 63, 72)"/>
  <ellipse cx="67.4488" cy="71.0276" fill="#006ca1" rx="4.5" ry="4.5" stroke-width="0" transform=" rotate(0, 67, 71)"/>
  <rect fill="#006ca1" height="9" stroke-width="0" transform=" rotate(0, 79, 71)" width="9" x="74.6984" y="66.5707"/>
  <polygon fill="#006ca1" points="88.3381,76.7119 92.8381,67.7119 97.3381,76.7119" stroke-width="0" transform=" rotate(0, 92, 72)"/>
  <ellipse cx="101.7055" cy="72.196" fill="#006ca1" rx="4.5" ry="4.5" stroke-width="0" transform=" rotate(0, 101, 72)"/>
  <rect fill="#006ca1" height="9" stroke-width="0" transform=" rotate(0, 108, 67)" width="9" x="103.8185" y="63.3997"/>
  <polygon fill="#006ca1" points="114.5151,71.4452 119.0151,62.4452 123.5151,71.4452" stroke-width="0" transform=" rotate(0, 119, 66)"/>
  <ellipse cx="129.5709" cy="72.587" fill="#006ca1" rx="4.5" ry="4.5" stroke-width="0" transform=" rotate(0, 129, 72)"/>
  <rect fill="#006ca1" height="9" stroke-width="0" transform=" rotate(0, 138, 70)" width="9" x="134.1592" y="66.4502"/>
  <polygon fill="#006ca1" points="144.8013,71.0052 149.3013,62.0052 153.8013,71.0052" stroke-width="0" transform=" rotate(0, 149, 66)"/>
  <ellipse cx="158.3374" cy="67.8348" fill="#006ca1" rx="4.5" ry="4.5" stroke-width="0" transform=" rotate(0, 158, 67)"/>
  <rect fill="#006ca1" height="9" stroke-width="0" transform=" rotate(0, 167, 69)" width="9" x="162.5682" y="65.0185"/>
  <polygon fill="#006ca1" points="178.1304,76.2201 182.6304,67.2201 187.1304,76.2201" stroke-width="0" transform=" rotate(0, 182, 71)"/>
  <ellipse cx="186.6946" cy="69.1016" fill="#006ca1" rx="4.5" ry="4.5" stroke-width="0" transform=" rotate(0, 186, 69)"/>
  <rect fill="#006ca1" height="9" stroke-width="0" transform=" rotate(0, 201, 70)" width="9" x="196.6137" y="65.5661"/>
  <polygon fill="#006ca1" points="202.6715,73.5407 207.1715,64.5407 211.6715,73.5407" stroke-width="0" transform=" rotate(0, 207, 69)"/>
  <ellipse cx="219.5449" cy="68.3854" fill="#006ca1" rx="4.5" ry="4.5" stroke-width="0" transform=" rotate(0, 219, 68)"/>
  <rect fill="#006ca1" height="9" stroke-width="0" transform=" rotate(0, 227, 69)" width="9" x="222.5761" y="65.1287"/>
  <polygon fill="#006ca1" points="237.586,73.2407 242.086,64.2407 246.586,73.2407" stroke-width="0" transform=" rotate(0, 242, 68)"/>
  <ellipse cx="250.424" cy="67.4531" fill="#006ca1" rx="4.5" ry="4.5" stroke-width="0" transform=" rotate(0, 250, 67)"/>
  <rect fill="#006ca1" height="9" stroke-width="0" transform=" rotate(0, 258, 70)" width="9" x="254.4371" y="66.1603"/>
  <polygon fill="#006ca1" points="268.1379,77.2607 272.6379,68.2607 277.1379,77.2607" stroke-width="0" transform=" rotate(0, 272, 72)"/>
  <ellipse cx="279.1592" cy="72.8191" fill="#006ca1" rx="4.5" ry="4.5" stroke-width="0" transform=" rotate(0, 279, 72)"/>
  <rect fill="#6dd6ff" height="5" stroke-width="0" transform=" rotate(0, 47, 81)" width="5" x="45.3005" y="79.4516"/>
  <polygon fill="#6dd6ff" points="57.3688,82.7542 59.8688,77.7542 62.3688,82.7542" stroke-width="0" transform=" rotate(0, 59, 80)"/>
  <ellipse cx="71.0255" cy="80.7412" fill="#6dd6ff" rx="2.5" ry="2.5" stroke-width="0" transform=" rotate(0, 71, 80)"/>
  <rect fill="#6dd6ff" height="5" stroke-width="0" transform=" rotate(0, 77, 79)" width="5" x="75.2108" y="77.4706"/>
  <polygon fill="#6dd6ff" points="86.7155,85.1143 89.2155,80.1143 91.7155,85.1143" stroke-width="0" transform=" rotate(0, 89, 82)"/>
  <ellipse cx="97.7714" cy="76.555" fill="#6dd6ff" rx="2.5" ry="2.5" stroke-width="0" transform=" rotate(0, 97, 76)"/>
  <rect fill="#6dd6ff" height="5" stroke-width="0" transform=" rotate(0, 107, 80)" width="5" x="105.1478" y="77.8466"/>
  <polygon fill="#6dd6ff" points="118.3073,85.5459 120.8073,80.5459 123.3073,85.5459" stroke-width="0" transform=" rotate(0, 120, 83)"/>
  <ellipse cx="131.4069" cy="81.6279" fill="#6dd6ff" rx="2.5" ry="2.5" stroke-width="0" transform=" rotate(0, 131, 81)"/>
  <rect fill="#6dd6ff" height="5" stroke-width="0" transform=" rotate(0, 136, 77)" width="5" x="134.0684" y="74.9954"/>
  <polygon fill="#6dd6ff" points="145.7523,80.6149 148.2523,75.6149 150.7523,80.6149" stroke-width="0" transform=" rotate(0, 148, 78)"/>
  <ellipse cx="157.2422" cy="79.3114" fill="#6dd6ff" rx="2.5" ry="2.5" stroke-width="0" transform=" rotate(0, 157, 79)"/>
  <rect fill="#6dd6ff" height="5" stroke-width="0" transform=" rotate(0, 171, 77)" width="5" x="169.4887" y="74.9925"/>
  <polygon fill="#6dd6ff" points="180.9523,82.1035 183.4523,77.1035 185.9523,82.1035" stroke-width="0" transform=" rotate(0, 183, 79)"/>
  <ellipse cx="187.4689" cy="81.8075" fill="#6dd6ff" rx="2.5" ry="2.5" stroke-width="0" transform=" rotate(0, 187, 81)"/>
  <rect fill="#6dd6ff" height="5" stroke-width="0" transform=" rotate(0, 201, 82)" width="5" x="198.5186" y="80.1443"/>
  <polygon fill="#6dd6ff" points="209.5926,79.0507 212.0926,74.0507 214.5926,79.0507" stroke-width="0" transform=" rotate(0, 212, 76)"/>
  <ellipse cx="217.1593" cy="80.1932" fill="#6dd6ff" rx="2.5" ry="2.5" stroke-width="0" transform=" rotate(0, 217, 80)"/>
  <rect fill="#6dd6ff" height="5" stroke-width="0" transform=" rotate(0, 228, 82)" width="5" x="226.4773" y="79.8228"/>
  <polygon fill="#6dd6ff" points="236.5588,78.9616 239.0588,73.9616 241.5588,78.9616" stroke-width="0" transform=" rotate(0, 239, 76)"/>
  <ellipse cx="247.4193" cy="83.0398" fill="#6dd6ff" rx="2.5" ry="2.5" stroke-width="0" transform=" rotate(0, 247, 83)"/>
  <rect fill="#6dd6ff" height="5" stroke-width="0" transform=" rotate(0, 256, 82)" width="5" x="254.3905" y="79.7561"/>
  <polygon fill="#6dd6ff" points="265.3514,82.557 267.8514,77.557 270.3514,82.557" stroke-width="0" transform=" rotate(0, 267, 80)"/>
  <ellipse cx="279.0637" cy="79.2838" fill="#6dd6ff" rx="2.5" ry="2.5" stroke-width="0" transform=" rotate(0, 279, 79)"/>
  <rect fill="#1b9fd8" height="7" stroke-width="0" transform=" rotate(0, 49, 87)" width="7" x="45.6722" y="83.771"/>
  <polygon fill="#1b9fd8" points="54.5201,96.8891 58.0201,89.8891 61.5201,96.8891" stroke-width="0" transform=" rotate(0, 58, 93)"/>
  <ellipse cx="71.3648" cy="88.8344" fill="#1b9fd8" rx="3.5" ry="3.5" stroke-width="0" transform=" rotate(0, 71, 88)"/>
  <rect fill="#1b9fd8" height="7" stroke-width="0" transform=" rotate(0, 78, 89)" width="7" x="75.4904" y="86.1483"/>
  <polygon fill="#1b9fd8" points="89.7668,93.7804 93.2668,86.7804 96.7668,93.7804" stroke-width="0" transform=" rotate(0, 93, 90)"/>
  <ellipse cx="100.5639" cy="89.9052" fill="#1b9fd8" rx="3.5" ry="3.5" stroke-width="0" transform=" rotate(0, 100, 89)"/>
  <rect fill="#1b9fd8" height="7" stroke-width="0" transform=" rotate(0, 112, 93)" width="7" x="109.1443" y="89.7328"/>
  <polygon fill="#1b9fd8" points="113.8887,90.256 117.3887,83.256 120.8887,90.256" stroke-width="0" transform=" rotate(0, 117, 86)"/>
  <ellipse cx="129.0387" cy="88.0097" fill="#1b9fd8" rx="3.5" ry="3.5" stroke-width="0" transform=" rotate(0, 129, 88)"/>
  <rect fill="#1b9fd8" height="7" stroke-width="0" transform=" rotate(0, 142, 92)" width="7" x="139.3127" y="89.4468"/>
  <polygon fill="#1b9fd8" points="145.5681,92.9736 149.0681,85.9736 152.5681,92.9736" stroke-width="0" transform=" rotate(0, 149, 89)"/>
  <ellipse cx="157.2367" cy="92.2772" fill="#1b9fd8" rx="3.5" ry="3.5" stroke-width="0" transform=" rotate(0, 157, 92)"/>
  <rect fill="#1b9fd8" height="7" stroke-width="0" transform=" rotate(0, 169, 88)" width="7" x="165.5498" y="85.4852"/>
  <polygon fill="#1b9fd8" points="177.5407,95.339 181.0407,88.339 184.5407,95.339" stroke-width="0" transform=" rotate(0, 181, 91)"/>
  <ellipse cx="189.2218" cy="89.4971" fill="#1b9fd8" rx="3.5" ry="3.5" stroke-width="0" transform=" rotate(0, 189, 89)"/>
  <rect fill="#1b9fd8" height="7" stroke-width="0" transform=" rotate(0, 203, 87)" width="7" x="199.5441" y="84.4951"/>
  <polygon fill="#1b9fd8" points="204.3622,96.6089 207.8622,89.6089 211.3622,96.6089" stroke-width="0" transform=" rotate(0, 207, 93)"/>
  <ellipse cx="218.1874" cy="87.3274" fill="#1b9fd8" rx="3.5" ry="3.5" stroke-width="0" transform=" rotate(0, 218, 87)"/>
  <rect fill="#1b9fd8" height="7" stroke-width="0" transform=" rotate(0, 233, 87)" width="7" x="229.7867" y="83.904"/>
  <polygon fill="#1b9fd8" points="234.8581,93.58 238.3581,86.58 241.8581,93.58" stroke-width="0" transform=" rotate(0, 238, 90)"/>
  <ellipse cx="252.1828" cy="88.4112" fill="#1b9fd8" rx="3.5" ry="3.5" stroke-width="0" transform=" rotate(0, 252, 88)"/>
  <rect fill="#1b9fd8" height="7" stroke-width="0" transform=" rotate(0, 257, 89)" width="7" x="253.6313" y="86.1376"/>
  <polygon fill="#1b9fd8" points="263.7377,93.8329 267.2377,86.8329 270.7377,93.8329" stroke-width="0" transform=" rotate(0, 267, 90)"/>
  <ellipse cx="278.5789" cy="89.5714" fill="#1b9fd8" rx="3.5" ry="3.5" stroke-width="0" transform=" rotate(0, 278, 89)"/>
  <rect fill="#006ca1" height="9" stroke-width="0" transform=" rotate(0, 52, 102)" width="9" x="48.1173" y="98.3526"/>
  <polygon fill="#006ca1" points="58.2812,103.9182 62.7812,94.9182 67.2812,103.9182" stroke-width="0" transform=" rotate(0, 62, 99)"/>
  <ellipse cx="72.5858" cy="100.2368" fill="#006ca1" rx="4.5" ry="4.5" stroke-width="0" transform=" rotate(0, 72, 100)"/>
  <rect fill="#006ca1" height="9" stroke-width="0" transform=" rotate(0, 82, 96)" width="9" x="78.2471" y="92.212"/>
  <polygon fill="#006ca1" points="82.5655,102.1936 87.0655,93.1936 91.5655,102.1936" stroke-width="0" transform=" rotate(0, 87, 97)"/>
  <ellipse cx="99.0944" cy="101.2641" fill="#006ca1" rx="4.5" ry="4.5" stroke-width="0" transform=" rotate(0, 99, 101)"/>
  <rect fill="#006ca1" height="9" stroke-width="0" transform=" rotate(0, 111, 103)" width="9" x="106.739" y="98.5305"/>
  <polygon fill="#006ca1" points="117.3922,102.0843 121.8922,93.0843 126.3922,102.0843" stroke-width="0" transform=" rotate(0, 121, 97)"/>
  <ellipse cx="131.7759" cy="100.8839" fill="#006ca1" rx="4.5" ry="4.5" stroke-width="0" transform=" rotate(0, 131, 100)"/>
  <rect fill="#006ca1" height="9" stroke-width="0" transform=" rotate(0, 139, 97)" width="9" x="135.1387" y="93.4308"/>
  <polygon fill="#006ca1" points="147.1572,107.3654 151.6572,98.3654 156.1572,107.3654" stroke-width="0" transform=" rotate(0, 151, 102)"/>
  <ellipse cx="161.6654" cy="100.4041" fill="#006ca1" rx="4.5" ry="4.5" stroke-width="0" transform=" rotate(0, 161, 100)"/>
  <rect fill="#006ca1" height="9" stroke-width="0" transform=" rotate(0, 172, 102)" width="9" x="168.4663" y="98.0267"/>
  <polygon fill="#006ca1" points="172.1726,105.0901 176.6726,96.0901 181.1726,105.0901" stroke-width="0" transform=" rotate(0, 176, 100)"/>
  <ellipse cx="191.8791" cy="101.2509" fill="#006ca1" rx="4.5" ry="4.5" stroke-width="0" transform=" rotate(0, 191, 101)"/>
  <rect fill="#006ca1" height="9" stroke-width="0" transform=" rotate(0, 201, 98)" width="9" x="197.03" y="93.8694"/>
  <polygon fill="#006ca1" points="206.4786,102.2143 210.9786,93.2143 215.4786,102.2143" stroke-width="0" transform=" rotate(0, 210, 97)"/>
  <ellipse cx="220.6429" cy="98.7108" fill="#006ca1" rx="4.5" ry="4.5" stroke-width="0" transform=" rotate(0, 220, 98)"/>
  <rect fill="#006ca1" height="9" stroke-width="0" transform=" rotate(0, 228, 102)" width="9" x="223.5114" y="97.8615"/>
  <polygon fill="#006ca1" points="237.7085,102.3482 242.2085,93.3482 246.7085,102.3482" stroke-width="0" transform=" rotate(0, 242, 97)"/>
  <ellipse cx="251.7162" cy="100.5207" fill="#006ca1" rx="4.5" ry="4.5" stroke-width="0" transform=" rotate(0, 251, 100)"/>
  <rect fill="#006ca1" height="9" stroke-width="0" transform=" rotate(0, 257, 99)" width="9" x="253.2708" y="94.7934"/>
  <polygon fill="#006ca1" points="262.7186,105.2145 267.2186,96.2145 271.7186,105.2145" stroke-width="0" transform=" rotate(0, 267, 100)"/>
  <ellipse cx="282.8957" cy="97.7777" fill="#006ca1" rx="4.5" ry="4.5" stroke-width="0" transform=" rotate(0, 282, 97)"/>
  <rect fill="#6dd6ff" height="5" stroke-width="0" transform=" rotate(0, 48, 112)" width="5" x="45.5683" y="109.6799"/>
  <polygon fill="#6dd6ff" points="54.62,111.2189 57.12,106.2189 59.62,111.2189" stroke-width="0" transform=" rotate(0, 57, 108)"/>
  <ellipse cx="66.5518" cy="111.7196" fill="#6dd6ff" rx="2.5" ry="2.5" stroke-width="0" transform=" rotate(0, 66, 111)"/>
  <rect fill="#6dd6ff" height="5" stroke-width="0" transform=" rotate(0, 81, 110)" width="5" x="78.5379" y="108.0072"/>
  <polygon fill="#6dd6ff" points="84.3555,111.7228 86.8555,106.7228 89.3555,111.7228" stroke-width="0" transform=" rotate(0, 86, 109)"/>
  <ellipse cx="97.8606" cy="112.5875" fill="#6dd6ff" rx="2.5" ry="2.5" stroke-width="0" transform=" rotate(0, 97, 112)"/>
  <rect fill="#6dd6ff" height="5" stroke-width="0" transform=" rotate(0, 111, 111)" width="5" x="109.0966" y="109.2272"/>
  <polygon fill="#6dd6ff" points="118.6823,112.5392 121.1823,107.5392 123.6823,112.5392" stroke-width="0" transform=" rotate(0, 121, 110)"/>
  <ellipse cx="131.1236" cy="108.2269" fill="#6dd6ff" rx="2.5" ry="2.5" stroke-width="0" transform=" rotate(0, 131, 108)"/>
  <rect fill="#6dd6ff" height="5" stroke-width="0" transform=" rotate(0, 143, 106)" width="5" x="140.6622" y="104.3488"/>
  <polygon fill="#6dd6ff" points="148.4795,113.7218 150.9795,108.7218 153.4795,113.7218" stroke-width="0" transform=" rotate(0, 150, 111)"/>
  <ellipse cx="161.4526" cy="109.7581" fill="#6dd6ff" rx="2.5" ry="2.5" stroke-width="0" transform=" rotate(0, 161, 109)"/>
  <rect fill="#6dd6ff" height="5" stroke-width="0" transform=" rotate(0, 169, 110)" width="5" x="166.8896" y="107.5303"/>
  <polygon fill="#6dd6ff" points="179.4475,115.8061 181.9475,110.8061 184.4475,115.8061" stroke-width="0" transform=" rotate(0, 181, 113)"/>
  <ellipse cx="188.6308" cy="111.2226" fill="#6dd6ff" rx="2.5" ry="2.5" stroke-width="0" transform=" rotate(0, 188, 111)"/>
  <rect fill="#6dd6ff" height="5" stroke-width="0" transform=" rotate(0, 203, 107)" width="5" x="200.618" y="105.3616"/>
  <polygon fill="#6dd6ff" points="207.5862,115.3758 210.0862,110.3758 212.5862,115.3758" stroke-width="0" transform=" rotate(0, 210, 112)"/>
  <ellipse cx="218.6568" cy="110.133" fill="#6dd6ff" rx="2.5" ry="2.5" stroke-width="0" transform=" rotate(0, 218, 110)"/>
  <rect fill="#6dd6ff" height="5" stroke-width="0" transform=" rotate(0, 232, 111)" width="5" x="230.3893" y="109.4048"/>
  <polygon fill="#6dd6ff" points="240.5342,109.0586 243.0342,104.0586 245.5342,109.0586" stroke-width="0" transform=" rotate(0, 243, 106)"/>
  <ellipse cx="252.8282" cy="109.1163" fill="#6dd6ff" rx="2.5" ry="2.5" stroke-width="0" transform=" rotate(0, 252, 109)"/>
  <rect fill="#6dd6ff" height="5" stroke-width="0" transform=" rotate(0, 257, 107)" width="5" x="255.0859" y="104.8952"/>
  <polygon fill="#6dd6ff" points="266.8846,111.0937 269.3846,106.0937 271.8846,111.0937" stroke-width="0" transform=" rotate(0, 269, 108)"/>
  <ellipse cx="281.741" cy="109.5365" fill="#6dd6ff" rx="2.5" ry="2.5" stroke-width="0" transform=" rotate(0, 281, 109)"/>
  <rect fill="#1b9fd8" height="7" stroke-width="0" transform=" rotate(0, 50, 122)" width="7" x="47.4792" y="119.3614"/>
  <polygon fill="#1b9fd8" points="56.4247,126.0047 59.9247,119.0047 63.4247,126.0047" stroke-width="0" transform=" rotate(0, 59, 122)"/>
  <ellipse cx="72.7663" cy="119.5778" fill="#1b9fd8" rx="3.5" ry="3.5" stroke-width="0" transform=" rotate(0, 72, 119)"/>
  <rect fill="#1b9fd8" height="7" stroke-width="0" transform=" rotate(0, 77, 117)" width="7" x="74.3852" y="113.9828"/>
  <polygon fill="#1b9fd8" points="85.6093,126.0909 89.1093,119.0909 92.6093,126.0909" stroke-width="0" transform=" rotate(0, 89, 122)"/>
  <ellipse cx="102.4145" cy="119.5317" fill="#1b9fd8" rx="3.5" ry="3.5" stroke-width="0" transform=" rotate(0, 102, 119)"/>
  <rect fill="#1b9fd8" height="7" stroke-width="0" transform=" rotate(0, 111, 122)" width="7" x="107.8232" y="119.3129"/>
  <polygon fill="#1b9fd8" points="119.7765,122.7285 123.2765,115.7285 126.7765,122.7285" stroke-width="0" transform=" rotate(0, 123, 119)"/>
  <ellipse cx="130.7148" cy="117.051" fill="#1b9fd8" rx="3.5" ry="3.5" stroke-width="0" transform=" rotate(0, 130, 117)"/>
  <rect fill="#1b9fd8" height="7" stroke-width="0" transform=" rotate(0, 140, 119)" width="7" x="137.0584" y="115.7512"/>
  <polygon fill="#1b9fd8" points="146.2533,123.63 149.7533,116.63 153.2533,123.63" stroke-width="0" transform=" rotate(0, 149, 120)"/>
  <ellipse cx="161.8502" cy="122.8539" fill="#1b9fd8" rx="3.5" ry="3.5" stroke-width="0" transform=" rotate(0, 161, 122)"/>
  <rect fill="#1b9fd8" height="7" stroke-width="0" transform=" rotate(0, 166, 121)" width="7" x="163.0932" y="117.5201"/>
  <polygon fill="#1b9fd8" points="174.3156,120.2063 177.8156,113.2063 181.3156,120.2063" stroke-width="0" transform=" rotate(0, 177, 116)"/>
  <ellipse cx="188.1014" cy="123.2833" fill="#1b9fd8" rx="3.5" ry="3.5" stroke-width="0" transform=" rotate(0, 188, 123)"/>
  <rect fill="#1b9fd8" height="7" stroke-width="0" transform=" rotate(0, 200, 119)" width="7" x="196.6336" y="116.1196"/>
  <polygon fill="#1b9fd8" points="209.8382,120.9408 213.3382,113.9408 216.8382,120.9408" stroke-width="0" transform=" rotate(0, 213, 117)"/>
  <ellipse cx="219.0883" cy="118.8383" fill="#1b9fd8" rx="3.5" ry="3.5" stroke-width="0" transform=" rotate(0, 219, 118)"/>
  <rect fill="#1b9fd8" height="7" stroke-width="0" transform=" rotate(0, 231, 121)" width="7" x="228.2203" y="118.496"/>
  <polygon fill="#1b9fd8" points="237.0013,126.3076 240.5013,119.3076 244.0013,126.3076" stroke-width="0" transform=" rotate(0, 240, 122)"/>
  <ellipse cx="253.1352" cy="119.5457" fill="#1b9fd8" rx="3.5" ry="3.5" stroke-width="0" transform=" rotate(0, 253, 119)"/>
  <rect fill="#1b9fd8" height="7" stroke-width="0" transform=" rotate(0, 261, 118)" width="7" x="258.0492" y="114.9655"/>
  <polygon fill="#1b9fd8" points="269.6732,126.4679 273.1732,119.4679 276.6732,126.4679" stroke-width="0" transform=" rotate(0, 273, 122)"/>
  <ellipse cx="283.2501" cy="119.1012" fill="#1b9fd8" rx="3.5" ry="3.5" stroke-width="0" transform=" rotate(0, 283, 119)"/>
  <rect fill="#006ca1" height="9" stroke-width="0" transform=" rotate(0, 49, 131)" width="9" x="44.6829" y="126.5252"/>
  <polygon fill="#006ca1" points="57.0207,136.3894 61.5207,127.3894 66.0207,136.3894" stroke-width="0" transform=" rotate(0, 61, 131)"/>
  <ellipse cx="70.136" cy="132.3586" fill="#006ca1" rx="4.5" ry="4.5" stroke-width="0" transform=" rotate(0, 70, 132)"/>
  <rect fill="#006ca1" height="9" stroke-width="0" transform=" rotate(0, 80, 132)" width="9" x="75.7703" y="127.9409"/>
  <polygon fill="#006ca1" points="88.8928,132.284 93.3928,123.284 97.8928,132.284" stroke-width="0" transform=" rotate(0, 93, 127)"/>
  <ellipse cx="100.4532" cy="128.1858" fill="#006ca1" rx="4.5" ry="4.5" stroke-width="0" transform=" rotate(0, 100, 128)"/>
  <rect fill="#006ca1" height="9" stroke-width="0" transform=" rotate(0, 111, 130)" width="9" x="107.4098" y="125.8183"/>
  <polygon fill="#006ca1" points="115.3355,135.6471 119.8355,126.6471 124.3355,135.6471" stroke-width="0" transform=" rotate(0, 119, 131)"/>
  <ellipse cx="130.5787" cy="130.079" fill="#006ca1" rx="4.5" ry="4.5" stroke-width="0" transform=" rotate(0, 130, 130)"/>
  <rect fill="#006ca1" height="9" stroke-width="0" transform=" rotate(0, 138, 131)" width="9" x="134.4636" y="127.0235"/>
  <polygon fill="#006ca1" points="145.4291,135.3213 149.9291,126.3213 154.4291,135.3213" stroke-width="0" transform=" rotate(0, 149, 130)"/>
  <ellipse cx="157.9598" cy="130.8562" fill="#006ca1" rx="4.5" ry="4.5" stroke-width="0" transform=" rotate(0, 157, 130)"/>
  <rect fill="#006ca1" height="9" stroke-width="0" transform=" rotate(0, 169, 130)" width="9" x="164.8583" y="126.4628"/>
  <polygon fill="#006ca1" points="177.1681,134.0097 181.6681,125.0097 186.1681,134.0097" stroke-width="0" transform=" rotate(0, 181, 129)"/>
  <ellipse cx="191.925" cy="131.1656" fill="#006ca1" rx="4.5" ry="4.5" stroke-width="0" transform=" rotate(0, 191, 131)"/>
  <rect fill="#006ca1" height="9" stroke-width="0" transform=" rotate(0, 197, 133)" width="9" x="193.1367" y="128.9102"/>
  <polygon fill="#006ca1" points="204.1933,134.2432 208.6933,125.2432 213.1933,134.2432" stroke-width="0" transform=" rotate(0, 208, 129)"/>
  <ellipse cx="221.0431" cy="131.8136" fill="#006ca1" rx="4.5" ry="4.5" stroke-width="0" transform=" rotate(0, 221, 131)"/>
  <rect fill="#006ca1" height="9" stroke-width="0" transform=" rotate(0, 233, 132)" width="9" x="228.6135" y="128.0473"/>
  <polygon fill="#006ca1" points="233.4743,133.7348 237.9743,124.7348 242.4743,133.7348" stroke-width="0" transform=" rotate(0, 237, 129)"/>
  <ellipse cx="252.6798" cy="127.2924" fill="#006ca1" rx="4.5" ry="4.5" stroke-width="0" transform=" rotate(0, 252, 127)"/>
  <rect fill="#006ca1" height="9" stroke-width="0" transform=" rotate(0, 258, 130)" width="9" x="254.1896" y="125.9382"/>
  <polygon fill="#006ca1" points="266.2186,131.0892 270.7186,122.0892 275.2186,131.0892" stroke-width="0" transform=" rotate(0, 270, 126)"/>
  <ellipse cx="277.5146" cy="132.4293" fill="#006ca1" rx="4.5" ry="4.5" stroke-width="0" transform=" rotate(0, 277, 132)"/>
  <rect fill="#6dd6ff" height="5" stroke-width="0" transform=" rotate(0, 47, 142)" width="5" x="44.9101" y="139.9821"/>
  <polygon fill="#6dd6ff" points="57.8816,143.4464 60.3816,138.4464 62.8816,143.4464" stroke-width="0" transform=" rotate(0, 60, 140)"/>
  <ellipse cx="72.1907" cy="140.0643" fill="#6dd6ff" rx="2.5" ry="2.5" stroke-width="0" transform=" rotate(0, 72, 140)"/>
  <rect fill="#6dd6ff" height="5" stroke-width="0" transform=" rotate(0, 80, 142)" width="5" x="77.9076" y="140.2736"/>
  <polygon fill="#6dd6ff" points="85.6321,140.0504 88.1321,135.0504 90.6321,140.0504" stroke-width="0" transform=" rotate(0, 88, 137)"/>
  <ellipse cx="98.7575" cy="142.0622" fill="#6dd6ff" rx="2.5" ry="2.5" stroke-width="0" transform=" rotate(0, 98, 142)"/>
  <rect fill="#6dd6ff" height="5" stroke-width="0" transform=" rotate(0, 108, 142)" width="5" x="105.7065" y="140.0244"/>
  <polygon fill="#6dd6ff" points="116.837,142.5909 119.337,137.5909 121.837,142.5909" stroke-width="0" transform=" rotate(0, 119, 140)"/>
  <ellipse cx="132.9415" cy="143.3596" fill="#6dd6ff" rx="2.5" ry="2.5" stroke-width="0" transform=" rotate(0, 132, 143)"/>
  <rect fill="#6dd6ff" height="5" stroke-width="0" transform=" rotate(0, 139, 142)" width="5" x="136.7751" y="140.1017"/>
  <polygon fill="#6dd6ff" points="148.2863,143.3336 150.7863,138.3336 153.2863,143.3336" stroke-width="0" transform=" rotate(0, 150, 140)"/>
  <ellipse cx="159.5492" cy="139.3044" fill="#6dd6ff" rx="2.5" ry="2.5" stroke-width="0" transform=" rotate(0, 159, 139)"/>
  <rect fill="#6dd6ff" height="5" stroke-width="0" transform=" rotate(0, 168, 137)" width="5" x="166.1617" y="135.3231"/>
  <polygon fill="#6dd6ff" points="173.9912,139.7653 176.4912,134.7653 178.9912,139.7653" stroke-width="0" transform=" rotate(0, 176, 137)"/>
  <ellipse cx="189.3297" cy="142.2705" fill="#6dd6ff" rx="2.5" ry="2.5" stroke-width="0" transform=" rotate(0, 189, 142)"/>
  <rect fill="#6dd6ff" height="5" stroke-width="0" transform=" rotate(0, 202, 142)" width="5" x="199.5707" y="140.1323"/>
  <polygon fill="#6dd6ff" points="204.3462,139.0386 206.8462,134.0386 209.3462,139.0386" stroke-width="0" transform=" rotate(0, 206, 136)"/>
  <ellipse cx="222.9604" cy="142.9788" fill="#6dd6ff" rx="2.5" ry="2.5" stroke-width="0" transform=" rotate(0, 222, 142)"/>
  <rect fill="#6dd6ff" height="5" stroke-width="0" transform=" rotate(0, 229, 138)" width="5" x="227.1637" y="136.2013"/>
  <polygon fill="#6dd6ff" points="238.4922,142.6961 240.9922,137.6961 243.4922,142.6961" stroke-width="0" transform=" rotate(0, 240, 140)"/>
  <ellipse cx="250.4252" cy="137.411" fill="#6dd6ff" rx="2.5" ry="2.5" stroke-width="0" transform=" rotate(0, 250, 137)"/>
  <rect fill="#6dd6ff" height="5" stroke-width="0" transform=" rotate(0, 259, 138)" width="5" x="257.0509" y="136.1219"/>
  <polygon fill="#6dd6ff" points="270.0631,145.6649 272.5631,140.6649 275.0631,145.6649" stroke-width="0" transform=" rotate(0, 272, 143)"/>
  <ellipse cx="276.8197" cy="141.3442" fill="#6dd6ff" rx="2.5" ry="2.5" stroke-width="0" transform=" rotate(0, 276, 141)"/>
  <rect fill="#1b9fd8" height="7" stroke-width="0" transform=" rotate(0, 53, 150)" width="7" x="49.8469" y="147.0167"/>
  <polygon fill="#1b9fd8" points="56.2212,152.0073 59.7212,145.0073 63.2212,152.0073" stroke-width="0" transform=" rotate(0, 59, 148)"/>
  <ellipse cx="69.1647" cy="149.3722" fill="#1b9fd8" rx="3.5" ry="3.5" stroke-width="0" transform=" rotate(0, 69, 149)"/>
  <rect fill="#1b9fd8" height="7" stroke-width="0" transform=" rotate(0, 78, 150)" width="7" x="74.7184" y="147.0345"/>
  <polygon fill="#1b9fd8" points="89.0594,155.6502 92.5594,148.6502 96.0594,155.6502" stroke-width="0" transform=" rotate(0, 92, 152)"/>
  <ellipse cx="97.9907" cy="150.4525" fill="#1b9fd8" rx="3.5" ry="3.5" stroke-width="0" transform=" rotate(0, 97, 150)"/>
  <rect fill="#1b9fd8" height="7" stroke-width="0" transform=" rotate(0, 110, 150)" width="7" x="106.9213" y="147.3094"/>
  <polygon fill="#1b9fd8" points="118.4097,152.4675 121.9097,145.4675 125.4097,152.4675" stroke-width="0" transform=" rotate(0, 121, 148)"/>
  <ellipse cx="132.2237" cy="148.1914" fill="#1b9fd8" rx="3.5" ry="3.5" stroke-width="0" transform=" rotate(0, 132, 148)"/>
  <rect fill="#1b9fd8" height="7" stroke-width="0" transform=" rotate(0, 139, 147)" width="7" x="135.97" y="144.272"/>
  <polygon fill="#1b9fd8" points="147.9558,154.2593 151.4558,147.2593 154.9558,154.2593" stroke-width="0" transform=" rotate(0, 151, 150)"/>
  <ellipse cx="158.8054" cy="153.3625" fill="#1b9fd8" rx="3.5" ry="3.5" stroke-width="0" transform=" rotate(0, 158, 153)"/>
  <rect fill="#1b9fd8" height="7" stroke-width="0" transform=" rotate(0, 168, 153)" width="7" x="164.6171" y="149.6274"/>
  <polygon fill="#1b9fd8" points="175.3546,150.8336 178.8546,143.8336 182.3546,150.8336" stroke-width="0" transform=" rotate(0, 178, 147)"/>
  <ellipse cx="187.6387" cy="150.8045" fill="#1b9fd8" rx="3.5" ry="3.5" stroke-width="0" transform=" rotate(0, 187, 150)"/>
  <rect fill="#1b9fd8" height="7" stroke-width="0" transform=" rotate(0, 197, 150)" width="7" x="193.9342" y="146.6413"/>
  <polygon fill="#1b9fd8" points="205.7322,152.8084 209.2322,145.8084 212.7322,152.8084" stroke-width="0" transform=" rotate(0, 209, 149)"/>
  <ellipse cx="222.8816" cy="152.1191" fill="#1b9fd8" rx="3.5" ry="3.5" stroke-width="0" transform=" rotate(0, 222, 152)"/>
  <rect fill="#1b9fd8" height="7" stroke-width="0" transform=" rotate(0, 227, 152)" width="7" x="224.2492" y="149.3731"/>
  <polygon fill="#1b9fd8" points="238.7418,154.4855 242.2418,147.4855 245.7418,154.4855" stroke-width="0" transform=" rotate(0, 242, 150)"/>
  <ellipse cx="249.7315" cy="150.2476" fill="#1b9fd8" rx="3.5" ry="3.5" stroke-width="0" transform=" rotate(0, 249, 150)"/>
  <rect fill="#1b9fd8" height="7" stroke-width="0" transform=" rotate(0, 258, 146)" width="7" x="254.637" y="143.0277"/>
  <polygon fill="#1b9fd8" points="267.7306,156.261 271.2306,149.261 274.7306,156.261" stroke-width="0" transform=" rotate(0, 271, 152)"/>
  <ellipse cx="282.6695" cy="149.9092" fill="#1b9fd8" rx="3.5" ry="3.5" stroke-width="0" transform=" rotate(0, 282, 149)"/>
  <rect fill="#006ca1" height="9" stroke-width="0" transform=" rotate(0, 50, 158)" width="9" x="46.4089" y="153.7723"/>
  <polygon fill="#006ca1" points="54.4829,165.5816 58.9829,156.5816 63.4829,165.5816" stroke-width="0" transform=" rotate(0, 58, 161)"/>
  <ellipse cx="66.8697" cy="160.3025" fill="#006ca1" rx="4.5" ry="4.5" stroke-width="0" transform=" rotate(0, 66, 160)"/>
  <rect fill="#006ca1" height="9" stroke-width="0" transform=" rotate(0, 80, 157)" width="9" x="75.7877" y="153.2224"/>
  <polygon fill="#006ca1" points="82.6679,161.9961 87.1679,152.9961 91.6679,161.9961" stroke-width="0" transform=" rotate(0, 87, 157)"/>
  <ellipse cx="100.6336" cy="162.543" fill="#006ca1" rx="4.5" ry="4.5" stroke-width="0" transform=" rotate(0, 100, 162)"/>
  <rect fill="#006ca1" height="9" stroke-width="0" transform=" rotate(0, 111, 162)" width="9" x="107.1002" y="158.0423"/>
  <polygon fill="#006ca1" points="114.8232,165.0161 119.3232,156.0161 123.8232,165.0161" stroke-width="0" transform=" rotate(0, 119, 160)"/>
  <ellipse cx="132.0691" cy="160.7771" fill="#006ca1" rx="4.5" ry="4.5" stroke-width="0" transform=" rotate(0, 132, 160)"/>
  <rect fill="#006ca1" height="9" stroke-width="0" transform=" rotate(0, 138, 162)" width="9" x="134.3396" y="157.6991"/>
  <polygon fill="#006ca1" points="142.2545,164.4316 146.7545,155.4316 151.2545,164.4316" stroke-width="0" transform=" rotate(0, 146, 159)"/>
  <ellipse cx="156.6944" cy="159.7286" fill="#006ca1" rx="4.5" ry="4.5" stroke-width="0" transform=" rotate(0, 156, 159)"/>
  <rect fill="#006ca1" height="9" stroke-width="0" transform=" rotate(0, 172, 158)" width="9" x="168.0128" y="153.659"/>
  <polygon fill="#006ca1" points="176.8583,162.006 181.3583,153.006 185.8583,162.006" stroke-width="0" transform=" rotate(0, 181, 157)"/>
  <ellipse cx="186.656" cy="162.6861" fill="#006ca1" rx="4.5" ry="4.5" stroke-width="0" transform=" rotate(0, 186, 162)"/>
  <rect fill="#006ca1" height="9" stroke-width="0" transform=" rotate(0, 200, 161)" width="9" x="196.3544" y="156.537"/>
  <polygon fill="#006ca1" points="207.9929,165.5889 212.4929,156.5889 216.9929,165.5889" stroke-width="0" transform=" rotate(0, 212, 161)"/>
  <ellipse cx="218.0542" cy="163.1995" fill="#006ca1" rx="4.5" ry="4.5" stroke-width="0" transform=" rotate(0, 218, 163)"/>
  <rect fill="#006ca1" height="9" stroke-width="0" transform=" rotate(0, 228, 156)" width="9" x="224.3128" y="152.3855"/>
  <polygon fill="#006ca1" points="234.5938,165.3441 239.0938,156.3441 243.5938,165.3441" stroke-width="0" transform=" rotate(0, 239, 160)"/>
  <ellipse cx="247.1435" cy="158.7878" fill="#006ca1" rx="4.5" ry="4.5" stroke-width="0" transform=" rotate(0, 247, 158)"/>
  <rect fill="#006ca1" height="9" stroke-width="0" transform=" rotate(0, 263, 160)" width="9" x="258.8366" y="155.9672"/>
  <polygon fill="#006ca1" points="268.8831,167.5089 273.3831,158.5089 277.8831,167.5089" stroke-width="0" transform=" rotate(0, 273, 163)"/>
  <ellipse cx="277.448" cy="156.9091" fill="#006ca1" rx="4.5" ry="4.5" stroke-width="0" transform=" rotate(0, 277, 156)"/>
  <rect fill="#006ca1" height="9" stroke-width="0" transform=" rotate(0, 49, 172)" width="9" x="44.6604" y="167.5638"/>
  <polygon fill="#006ca1" points="58.7426,174.8785 63.2426,165.8785 67.7426,174.8785" stroke-width="0" transform=" rotate(0, 63, 170)"/>
  <ellipse cx="72.8234" cy="167.7008" fill="#006ca1" rx="4.5" ry="4.5" stroke-width="0" transform=" rotate(0, 72, 167)"/>
  <rect fill="#006ca1" height="9" stroke-width="0" transform=" rotate(0, 77, 169)" width="9" x="72.9368" y="164.6212"/>
  <polygon fill="#006ca1" points="85.2803,174.5486 89.7803,165.5486 94.2803,174.5486" stroke-width="0" transform=" rotate(0, 89, 170)"/>
  <ellipse cx="99.4168" cy="171.6652" fill="#006ca1" rx="4.5" ry="4.5" stroke-width="0" transform=" rotate(0, 99, 171)"/>
  <rect fill="#006ca1" height="9" stroke-width="0" transform=" rotate(0, 110, 167)" width="9" x="106.2661" y="162.5213"/>
  <polygon fill="#006ca1" points="115.4169,171.369 119.9169,162.369 124.4169,171.369" stroke-width="0" transform=" rotate(0, 119, 166)"/>
  <ellipse cx="129.1221" cy="167.0238" fill="#006ca1" rx="4.5" ry="4.5" stroke-width="0" transform=" rotate(0, 129, 167)"/>
  <rect fill="#006ca1" height="9" stroke-width="0" transform=" rotate(0, 137, 169)" width="9" x="133.2525" y="164.5765"/>
  <polygon fill="#006ca1" points="147.1076,174.7566 151.6076,165.7566 156.1076,174.7566" stroke-width="0" transform=" rotate(0, 151, 170)"/>
  <ellipse cx="160.7779" cy="172.7868" fill="#006ca1" rx="4.5" ry="4.5" stroke-width="0" transform=" rotate(0, 160, 172)"/>
  <rect fill="#006ca1" height="9" stroke-width="0" transform=" rotate(0, 166, 172)" width="9" x="162.3567" y="168.1145"/>
  <polygon fill="#006ca1" points="176.5397,173.7807 181.0397,164.7807 185.5397,173.7807" stroke-width="0" transform=" rotate(0, 181, 169)"/>
  <ellipse cx="192.939" cy="172.1593" fill="#006ca1" rx="4.5" ry="4.5" stroke-width="0" transform=" rotate(0, 192, 172)"/>
  <rect fill="#006ca1" height="9" stroke-width="0" transform=" rotate(0, 200, 172)" width="9" x="195.6421" y="168.2917"/>
  <polygon fill="#006ca1" points="204.8457,174.2473 209.3457,165.2473 213.8457,174.2473" stroke-width="0" transform=" rotate(0, 209, 169)"/>
  <ellipse cx="221.6979" cy="167.4691" fill="#006ca1" rx="4.5" ry="4.5" stroke-width="0" transform=" rotate(0, 221, 167)"/>
  <rect fill="#006ca1" height="9" stroke-width="0" transform=" rotate(0, 231, 169)" width="9" x="226.8911" y="165.2026"/>
  <polygon fill="#006ca1" points="233.292,173.7492 237.792,164.7492 242.292,173.7492" stroke-width="0" transform=" rotate(0, 237, 169)"/>
  <ellipse cx="250.9656" cy="169.4045" fill="#006ca1" rx="4.5" ry="4.5" stroke-width="0" transform=" rotate(0, 250, 169)"/>
  <rect fill="#006ca1" height="9" stroke-width="0" transform=" rotate(0, 262, 167)" width="9" x="257.6293" y="162.7765"/>
  <polygon fill="#006ca1" points="268.32,174.2406 272.82,165.2406 277.32,174.2406" stroke-width="0" transform=" rotate(0, 272, 169)"/>
  <ellipse cx="278.4382" cy="170.5899" fill="#006ca1" rx="4.5" ry="4.5" stroke-width="0" transform=" rotate(0, 278, 170)"/>
  <rect fill="#1b9fd8" height="7" stroke-width="0" transform=" rotate(0, 48, 182)" width="7" x="45.4557" y="178.6808"/>
  <polygon fill="#1b9fd8" points="53.8701,181.5189 57.3701,174.5189 60.8701,181.5189" stroke-width="0" transform=" rotate(0, 57, 178)"/>
  <ellipse cx="67.0109" cy="177.8648" fill="#1b9fd8" rx="3.5" ry="3.5" stroke-width="0" transform=" rotate(0, 67, 177)"/>
  <rect fill="#1b9fd8" height="7" stroke-width="0" transform=" rotate(0, 77, 181)" width="7" x="73.6942" y="178.3179"/>
  <polygon fill="#1b9fd8" points="89.5031,181.1055 93.0031,174.1055 96.5031,181.1055" stroke-width="0" transform=" rotate(0, 93, 177)"/>
  <ellipse cx="103.316" cy="179.1659" fill="#1b9fd8" rx="3.5" ry="3.5" stroke-width="0" transform=" rotate(0, 103, 179)"/>
  <rect fill="#1b9fd8" height="7" stroke-width="0" transform=" rotate(0, 110, 180)" width="7" x="107.036" y="177.0149"/>
  <polygon fill="#1b9fd8" points="116.3807,183.0294 119.8807,176.0294 123.3807,183.0294" stroke-width="0" transform=" rotate(0, 119, 179)"/>
  <ellipse cx="132.9835" cy="183.1473" fill="#1b9fd8" rx="3.5" ry="3.5" stroke-width="0" transform=" rotate(0, 132, 183)"/>
  <rect fill="#1b9fd8" height="7" stroke-width="0" transform=" rotate(0, 143, 177)" width="7" x="139.9713" y="173.7348"/>
  <polygon fill="#1b9fd8" points="148.0355,180.5055 151.5355,173.5055 155.0355,180.5055" stroke-width="0" transform=" rotate(0, 151, 177)"/>
  <ellipse cx="159.8301" cy="182.8998" fill="#1b9fd8" rx="3.5" ry="3.5" stroke-width="0" transform=" rotate(0, 159, 182)"/>
  <rect fill="#1b9fd8" height="7" stroke-width="0" transform=" rotate(0, 171, 180)" width="7" x="168.4738" y="177.2243"/>
  <polygon fill="#1b9fd8" points="176.0523,185.5888 179.5523,178.5888 183.0523,185.5888" stroke-width="0" transform=" rotate(0, 179, 182)"/>
  <ellipse cx="189.323" cy="176.6056" fill="#1b9fd8" rx="3.5" ry="3.5" stroke-width="0" transform=" rotate(0, 189, 176)"/>
  <rect fill="#1b9fd8" height="7" stroke-width="0" transform=" rotate(0, 200, 177)" width="7" x="197.0594" y="173.5315"/>
  <polygon fill="#1b9fd8" points="209.5473,185.6816 213.0473,178.6816 216.5473,185.6816" stroke-width="0" transform=" rotate(0, 213, 182)"/>
  <ellipse cx="219.7763" cy="177.8689" fill="#1b9fd8" rx="3.5" ry="3.5" stroke-width="0" transform=" rotate(0, 219, 177)"/>
  <rect fill="#1b9fd8" height="7" stroke-width="0" transform=" rotate(0, 230, 182)" width="7" x="226.9841" y="178.6687"/>
  <polygon fill="#1b9fd8" points="235.4637,180.3426 238.9637,173.3426 242.4637,180.3426" stroke-width="0" transform=" rotate(0, 238, 176)"/>
  <ellipse cx="247.3729" cy="181.364" fill="#1b9fd8" rx="3.5" ry="3.5" stroke-width="0" transform=" rotate(0, 247, 181)"/>
  <rect fill="#1b9fd8" height="7" stroke-width="0" transform=" rotate(0, 262, 177)" width="7" x="258.5858" y="173.6369"/>
  <polygon fill="#1b9fd8" points="266.7024,180.3497 270.2024,173.3497 273.7024,180.3497" stroke-width="0" transform=" rotate(0, 270, 176)"/>
  <ellipse cx="277.1642" cy="180.7197" fill="#1b9fd8" rx="3.5" ry="3.5" stroke-width="0" transform=" rotate(0, 277, 180)"/>
  <rect fill="#6dd6ff" height="5" stroke-width="0" transform=" rotate(0, 49, 188)" width="5" x="47.2538" y="186.3479"/>
  <polygon fill="#6dd6ff" points="60.9431,195.0354 63.4431,190.0354 65.9431,195.0354" stroke-width="0" transform=" rotate(0, 63, 192)"/>
  <ellipse cx="67.8255" cy="192.5716" fill="#6dd6ff" rx="2.5" ry="2.5" stroke-width="0" transform=" rotate(0, 67, 192)"/>
  <rect fill="#6dd6ff" height="5" stroke-width="0" transform=" rotate(0, 82, 189)" width="5" x="80.1553" y="186.7249"/>
  <polygon fill="#6dd6ff" points="86.398,195.283 88.898,190.283 91.398,195.283" stroke-width="0" transform=" rotate(0, 88, 192)"/>
  <ellipse cx="97.1387" cy="190.4464" fill="#6dd6ff" rx="2.5" ry="2.5" stroke-width="0" transform=" rotate(0, 97, 190)"/>
  <rect fill="#6dd6ff" height="5" stroke-width="0" transform=" rotate(0, 108, 189)" width="5" x="106.298" y="186.7835"/>
  <polygon fill="#6dd6ff" points="118.6752,189.3695 121.1752,184.3695 123.6752,189.3695" stroke-width="0" transform=" rotate(0, 121, 186)"/>
  <ellipse cx="132.3875" cy="193.071" fill="#6dd6ff" rx="2.5" ry="2.5" stroke-width="0" transform=" rotate(0, 132, 193)"/>
  <rect fill="#6dd6ff" height="5" stroke-width="0" transform=" rotate(0, 137, 187)" width="5" x="135.3963" y="185.1183"/>
  <polygon fill="#6dd6ff" points="150.0507,190.5487 152.5507,185.5487 155.0507,190.5487" stroke-width="0" transform=" rotate(0, 152, 188)"/>
  <ellipse cx="158.6853" cy="191.6146" fill="#6dd6ff" rx="2.5" ry="2.5" stroke-width="0" transform=" rotate(0, 158, 191)"/>
  <rect fill="#6dd6ff" height="5" stroke-width="0" transform=" rotate(0, 167, 192)" width="5" x="164.7826" y="190.021"/>
  <polygon fill="#6dd6ff" points="180.4049,191.223 182.9049,186.223 185.4049,191.223" stroke-width="0" transform=" rotate(0, 182, 188)"/>
  <ellipse cx="187.4934" cy="187.9828" fill="#6dd6ff" rx="2.5" ry="2.5" stroke-width="0" transform=" rotate(0, 187, 187)"/>
  <rect fill="#6dd6ff" height="5" stroke-width="0" transform=" rotate(0, 201, 190)" width="5" x="199.3259" y="188.0338"/>
  <polygon fill="#6dd6ff" points="205.1776,194.4043 207.6776,189.4043 210.1776,194.4043" stroke-width="0" transform=" rotate(0, 207, 191)"/>
  <ellipse cx="218.1049" cy="189.1973" fill="#6dd6ff" rx="2.5" ry="2.5" stroke-width="0" transform=" rotate(0, 218, 189)"/>
  <rect fill="#6dd6ff" height="5" stroke-width="0" transform=" rotate(0, 229, 186)" width="5" x="226.769" y="184.0024"/>
  <polygon fill="#6dd6ff" points="238.5587,194.9006 241.0587,189.9006 243.5587,194.9006" stroke-width="0" transform=" rotate(0, 241, 192)"/>
  <ellipse cx="249.4204" cy="187.2482" fill="#6dd6ff" rx="2.5" ry="2.5" stroke-width="0" transform=" rotate(0, 249, 187)"/>
  <rect fill="#6dd6ff" height="5" stroke-width="0" transform=" rotate(0, 261, 186)" width="5" x="258.9021" y="184.081"/>
  <polygon fill="#6dd6ff" points="267.9425,193.9916 270.4425,188.9916 272.9425,193.9916" stroke-width="0" transform=" rotate(0, 270, 191)"/>
  <ellipse cx="277.1908" cy="188.844" fill="#6dd6ff" rx="2.5" ry="2.5" stroke-width="0" transform=" rotate(0, 277, 188)"/>
  <rect fill="#006ca1" height="9" stroke-width="0" transform=" rotate(0, 48, 197)" width="9" x="43.8599" y="193.1149"/>
  <polygon fill="#006ca1" points="52.3208,203.3491 56.8208,194.3491 61.3208,203.3491" stroke-width="0" transform=" rotate(0, 56, 198)"/>
  <ellipse cx="72.0205" cy="197.0132" fill="#006ca1" rx="4.5" ry="4.5" stroke-width="0" transform=" rotate(0, 72, 197)"/>
  <rect fill="#006ca1" height="9" stroke-width="0" transform=" rotate(0, 79, 203)" width="9" x="75.3107" y="198.7261"/>
  <polygon fill="#006ca1" points="85.918,205.2999 90.418,196.2999 94.918,205.2999" stroke-width="0" transform=" rotate(0, 90, 200)"/>
  <ellipse cx="102.5412" cy="196.4434" fill="#006ca1" rx="4.5" ry="4.5" stroke-width="0" transform=" rotate(0, 102, 196)"/>
  <rect fill="#006ca1" height="9" stroke-width="0" transform=" rotate(0, 106, 199)" width="9" x="102.0486" y="195.3545"/>
  <polygon fill="#006ca1" points="114.3731,207.5173 118.8731,198.5173 123.3731,207.5173" stroke-width="0" transform=" rotate(0, 118, 203)"/>
  <ellipse cx="126.7386" cy="197.0727" fill="#006ca1" rx="4.5" ry="4.5" stroke-width="0" transform=" rotate(0, 126, 197)"/>
  <rect fill="#006ca1" height="9" stroke-width="0" transform=" rotate(0, 137, 198)" width="9" x="133.1545" y="194.0054"/>
  <polygon fill="#006ca1" points="145.7213,202.2668 150.2213,193.2668 154.7213,202.2668" stroke-width="0" transform=" rotate(0, 150, 197)"/>
  <ellipse cx="159.6878" cy="202.6391" fill="#006ca1" rx="4.5" ry="4.5" stroke-width="0" transform=" rotate(0, 159, 202)"/>
  <rect fill="#006ca1" height="9" stroke-width="0" transform=" rotate(0, 166, 203)" width="9" x="162.2099" y="198.5706"/>
  <polygon fill="#006ca1" points="178.3826,203.2433 182.8826,194.2433 187.3826,203.2433" stroke-width="0" transform=" rotate(0, 182, 198)"/>
  <ellipse cx="193.3047" cy="201.8028" fill="#006ca1" rx="4.5" ry="4.5" stroke-width="0" transform=" rotate(0, 193, 201)"/>
  <rect fill="#006ca1" height="9" stroke-width="0" transform=" rotate(0, 196, 196)" width="9" x="192.1875" y="191.945"/>
  <polygon fill="#006ca1" points="208.4214,202.7991 212.9214,193.7991 217.4214,202.7991" stroke-width="0" transform=" rotate(0, 212, 198)"/>
  <ellipse cx="220.8534" cy="199.2754" fill="#006ca1" rx="4.5" ry="4.5" stroke-width="0" transform=" rotate(0, 220, 199)"/>
  <rect fill="#006ca1" height="9" stroke-width="0" transform=" rotate(0, 230, 197)" width="9" x="225.6547" y="193.3901"/>
  <polygon fill="#006ca1" points="232.115,205.0962 236.615,196.0962 241.115,205.0962" stroke-width="0" transform=" rotate(0, 236, 200)"/>
  <ellipse cx="249.1555" cy="197.2447" fill="#006ca1" rx="4.5" ry="4.5" stroke-width="0" transform=" rotate(0, 249, 197)"/>
  <rect fill="#006ca1" height="9" stroke-width="0" transform=" rotate(0, 257, 200)" width="9" x="252.7064" y="196.3646"/>
  <polygon fill="#006ca1" points="266.6718,206.2819 271.1718,197.2819 275.6718,206.2819" stroke-width="0" transform=" rotate(0, 271, 201)"/>
  <ellipse cx="280.8967" cy="198.9568" fill="#006ca1" rx="4.5" ry="4.5" stroke-width="0" transform=" rotate(0, 280, 198)"/>
  <rect fill="#1b9fd8" height="7" stroke-width="0" transform=" rotate(0, 46, 207)" width="7" x="43.3954" y="204.0971"/>
  <polygon fill="#1b9fd8" points="55.05,213.6497 58.55,206.6497 62.05,213.6497" stroke-width="0" transform=" rotate(0, 58, 210)"/>
  <ellipse cx="67.8184" cy="208.3359" fill="#1b9fd8" rx="3.5" ry="3.5" stroke-width="0" transform=" rotate(0, 67, 208)"/>
  <rect fill="#1b9fd8" height="7" stroke-width="0" transform=" rotate(0, 79, 209)" width="7" x="75.9596" y="205.8862"/>
  <polygon fill="#1b9fd8" points="87.8634,215.9322 91.3634,208.9322 94.8634,215.9322" stroke-width="0" transform=" rotate(0, 91, 212)"/>
  <ellipse cx="102.3246" cy="209.7034" fill="#1b9fd8" rx="3.5" ry="3.5" stroke-width="0" transform=" rotate(0, 102, 209)"/>
  <rect fill="#1b9fd8" height="7" stroke-width="0" transform=" rotate(0, 112, 209)" width="7" x="108.9238" y="205.7956"/>
  <polygon fill="#1b9fd8" points="114.7842,210.7819 118.2842,203.7819 121.7842,210.7819" stroke-width="0" transform=" rotate(0, 118, 207)"/>
  <ellipse cx="130.5118" cy="212.624" fill="#1b9fd8" rx="3.5" ry="3.5" stroke-width="0" transform=" rotate(0, 130, 212)"/>
  <rect fill="#1b9fd8" height="7" stroke-width="0" transform=" rotate(0, 139, 211)" width="7" x="135.975" y="207.7151"/>
  <polygon fill="#1b9fd8" points="146.6892,215.5823 150.1892,208.5823 153.6892,215.5823" stroke-width="0" transform=" rotate(0, 150, 212)"/>
  <ellipse cx="160.9987" cy="207.408" fill="#1b9fd8" rx="3.5" ry="3.5" stroke-width="0" transform=" rotate(0, 160, 207)"/>
  <rect fill="#1b9fd8" height="7" stroke-width="0" transform=" rotate(0, 167, 211)" width="7" x="164.0844" y="208.4494"/>
  <polygon fill="#1b9fd8" points="179.6339,210.9681 183.1339,203.9681 186.6339,210.9681" stroke-width="0" transform=" rotate(0, 183, 207)"/>
  <ellipse cx="192.0961" cy="213.2872" fill="#1b9fd8" rx="3.5" ry="3.5" stroke-width="0" transform=" rotate(0, 192, 213)"/>
  <rect fill="#1b9fd8" height="7" stroke-width="0" transform=" rotate(0, 198, 209)" width="7" x="194.8541" y="205.973"/>
  <polygon fill="#1b9fd8" points="205.4217,212.6474 208.9217,205.6474 212.4217,212.6474" stroke-width="0" transform=" rotate(0, 208, 209)"/>
  <ellipse cx="221.2586" cy="211.5083" fill="#1b9fd8" rx="3.5" ry="3.5" stroke-width="0" transform=" rotate(0, 221, 211)"/>
  <rect fill="#1b9fd8" height="7" stroke-width="0" transform=" rotate(0, 233, 211)" width="7" x="229.9666" y="207.5756"/>
  <polygon fill="#1b9fd8" points="234.102,210.4213 237.602,203.4213 241.102,210.4213" stroke-width="0" transform=" rotate(0, 237, 206)"/>
  <ellipse cx="253.32" cy="207.8858" fill="#1b9fd8" rx="3.5" ry="3.5" stroke-width="0" transform=" rotate(0, 253, 207)"/>
  <rect fill="#1b9fd8" height="7" stroke-width="0" transform=" rotate(0, 262, 211)" width="7" x="259.1629" y="207.7153"/>
  <polygon fill="#1b9fd8" points="263.6877,214.2554 267.1877,207.2554 270.6877,214.2554" stroke-width="0" transform=" rotate(0, 267, 210)"/>
  <ellipse cx="280.0817" cy="209.5463" fill="#1b9fd8" rx="3.5" ry="3.5" stroke-width="0" transform=" rotate(0, 280, 209)"/>
  <rect fill="#6dd6ff" height="5" stroke-width="0" transform=" rotate(0, 50, 221)" width="5" x="48.4781" y="218.5846"/>
  <polygon fill="#6dd6ff" points="60.4819,220.2148 62.9819,215.2148 65.4819,220.2148" stroke-width="0" transform=" rotate(0, 62, 217)"/>
  <ellipse cx="71.8442" cy="219.4516" fill="#6dd6ff" rx="2.5" ry="2.5" stroke-width="0" transform=" rotate(0, 71, 219)"/>
  <rect fill="#6dd6ff" height="5" stroke-width="0" transform=" rotate(0, 80, 221)" width="5" x="77.6399" y="219.0687"/>
  <polygon fill="#6dd6ff" points="85.7017,222.3773 88.2017,217.3773 90.7017,222.3773" stroke-width="0" transform=" rotate(0, 88, 219)"/>
  <ellipse cx="101.0087" cy="217.9031" fill="#6dd6ff" rx="2.5" ry="2.5" stroke-width="0" transform=" rotate(0, 101, 217)"/>
  <rect fill="#6dd6ff" height="5" stroke-width="0" transform=" rotate(0, 107, 222)" width="5" x="105.2159" y="220.2112"/>
  <polygon fill="#6dd6ff" points="116.2054,220.3063 118.7054,215.3063 121.2054,220.3063" stroke-width="0" transform=" rotate(0, 118, 217)"/>
  <ellipse cx="129.2798" cy="223.1005" fill="#6dd6ff" rx="2.5" ry="2.5" stroke-width="0" transform=" rotate(0, 129, 223)"/>
  <rect fill="#6dd6ff" height="5" stroke-width="0" transform=" rotate(0, 139, 217)" width="5" x="137.3748" y="215.3577"/>
  <polygon fill="#6dd6ff" points="145.7895,220.1727 148.2895,215.1727 150.7895,220.1727" stroke-width="0" transform=" rotate(0, 148, 217)"/>
  <ellipse cx="159.6289" cy="220.0461" fill="#6dd6ff" rx="2.5" ry="2.5" stroke-width="0" transform=" rotate(0, 159, 220)"/>
  <rect fill="#6dd6ff" height="5" stroke-width="0" transform=" rotate(0, 171, 218)" width="5" x="169.3614" y="215.6936"/>
  <polygon fill="#6dd6ff" points="175.707,224.9017 178.207,219.9017 180.707,224.9017" stroke-width="0" transform=" rotate(0, 178, 222)"/>
  <ellipse cx="192.3473" cy="220.7587" fill="#6dd6ff" rx="2.5" ry="2.5" stroke-width="0" transform=" rotate(0, 192, 220)"/>
  <rect fill="#6dd6ff" height="5" stroke-width="0" transform=" rotate(0, 203, 222)" width="5" x="200.7436" y="219.7756"/>
  <polygon fill="#6dd6ff" points="209.2093,221.4385 211.7093,216.4385 214.2093,221.4385" stroke-width="0" transform=" rotate(0, 211, 218)"/>
  <ellipse cx="218.3623" cy="218.0416" fill="#6dd6ff" rx="2.5" ry="2.5" stroke-width="0" transform=" rotate(0, 218, 218)"/>
  <rect fill="#6dd6ff" height="5" stroke-width="0" transform=" rotate(0, 229, 216)" width="5" x="227.3902" y="214.0846"/>
  <polygon fill="#6dd6ff" points="239.0224,224.4136 241.5224,219.4136 244.0224,224.4136" stroke-width="0" transform=" rotate(0, 241, 221)"/>
  <ellipse cx="247.5557" cy="218.64" fill="#6dd6ff" rx="2.5" ry="2.5" stroke-width="0" transform=" rotate(0, 247, 218)"/>
  <rect fill="#6dd6ff" height="5" stroke-width="0" transform=" rotate(0, 262, 216)" width="5" x="259.7286" y="214.1721"/>
  <polygon fill="#6dd6ff" points="265.3148,222.3744 267.8148,217.3744 270.3148,222.3744" stroke-width="0" transform=" rotate(0, 267, 219)"/>
  <ellipse cx="277.0699" cy="221.3682" fill="#6dd6ff" rx="2.5" ry="2.5" stroke-width="0" transform=" rotate(0, 277, 221)"/>
  <rect fill="#006ca1" height="9" stroke-width="0" transform=" rotate(0, 53, 227)" width="9" x="48.5572" y="222.6863"/>
  <polygon fill="#006ca1" points="56.6273,231.9395 61.1273,222.9395 65.6273,231.9395" stroke-width="0" transform=" rotate(0, 61, 227)"/>
  <ellipse cx="69.2331" cy="231.7887" fill="#006ca1" rx="4.5" ry="4.5" stroke-width="0" transform=" rotate(0, 69, 231)"/>
  <rect fill="#006ca1" height="9" stroke-width="0" transform=" rotate(0, 82, 233)" width="9" x="78.3244" y="228.6137"/>
  <polygon fill="#006ca1" points="87.6646,236.7103 92.1646,227.7103 96.6646,236.7103" stroke-width="0" transform=" rotate(0, 92, 232)"/>
  <ellipse cx="103.2584" cy="229.8573" fill="#006ca1" rx="4.5" ry="4.5" stroke-width="0" transform=" rotate(0, 103, 229)"/>
  <rect fill="#006ca1" height="9" stroke-width="0" transform=" rotate(0, 110, 226)" width="9" x="106.1436" y="222.0032"/>
  <polygon fill="#006ca1" points="117.3811,235.5868 121.8811,226.5868 126.3811,235.5868" stroke-width="0" transform=" rotate(0, 121, 231)"/>
  <ellipse cx="131.6128" cy="228.2276" fill="#006ca1" rx="4.5" ry="4.5" stroke-width="0" transform=" rotate(0, 131, 228)"/>
  <rect fill="#006ca1" height="9" stroke-width="0" transform=" rotate(0, 137, 232)" width="9" x="132.5311" y="228.3074"/>
  <polygon fill="#006ca1" points="145.4885,232.2182 149.9885,223.2182 154.4885,232.2182" stroke-width="0" transform=" rotate(0, 149, 227)"/>
  <ellipse cx="161.7456" cy="230.7743" fill="#006ca1" rx="4.5" ry="4.5" stroke-width="0" transform=" rotate(0, 161, 230)"/>
  <rect fill="#006ca1" height="9" stroke-width="0" transform=" rotate(0, 167, 229)" width="9" x="162.6093" y="224.992"/>
  <polygon fill="#006ca1" points="178.4165,235.5712 182.9165,226.5712 187.4165,235.5712" stroke-width="0" transform=" rotate(0, 182, 231)"/>
  <ellipse cx="189.4208" cy="232.8223" fill="#006ca1" rx="4.5" ry="4.5" stroke-width="0" transform=" rotate(0, 189, 232)"/>
  <rect fill="#006ca1" height="9" stroke-width="0" transform=" rotate(0, 201, 232)" width="9" x="197.1543" y="228.3626"/>
  <polygon fill="#006ca1" points="203.8869,234.9737 208.3869,225.9737 212.8869,234.9737" stroke-width="0" transform=" rotate(0, 208, 230)"/>
  <ellipse cx="220.7819" cy="228.1864" fill="#006ca1" rx="4.5" ry="4.5" stroke-width="0" transform=" rotate(0, 220, 228)"/>
  <rect fill="#006ca1" height="9" stroke-width="0" transform=" rotate(0, 233, 227)" width="9" x="228.66" y="223.2575"/>
  <polygon fill="#006ca1" points="235.4772,232.3439 239.9772,223.3439 244.4772,232.3439" stroke-width="0" transform=" rotate(0, 239, 227)"/>
  <ellipse cx="252.074" cy="229.6021" fill="#006ca1" rx="4.5" ry="4.5" stroke-width="0" transform=" rotate(0, 252, 229)"/>
  <rect fill="#006ca1" height="9" stroke-width="0" transform=" rotate(0, 257, 228)" width="9" x="252.5758" y="223.9391"/>
  <polygon fill="#006ca1" points="268.4863,237.5451 272.9863,228.5451 277.4863,237.5451" stroke-width="0" transform=" rotate(0, 272, 233)"/>
  <ellipse cx="278.8238" cy="230.4398" fill="#006ca1" rx="4.5" ry="4.5" stroke-width="0" transform=" rotate(0, 278, 230)"/>
  <rect fill="#1b9fd8" height="7" stroke-width="0" transform=" rotate(0, 48, 236)" width="7" x="44.6831" y="233.1998"/>
  <polygon fill="#1b9fd8" points="53.4248,241.1444 56.9248,234.1444 60.4248,241.1444" stroke-width="0" transform=" rotate(0, 56, 237)"/>
  <ellipse cx="68.1506" cy="240.0481" fill="#1b9fd8" rx="3.5" ry="3.5" stroke-width="0" transform=" rotate(0, 68, 240)"/>
  <rect fill="#1b9fd8" height="7" stroke-width="0" transform=" rotate(0, 77, 237)" width="7" x="73.8951" y="233.6141"/>
  <polygon fill="#1b9fd8" points="83.6426,243.9464 87.1426,236.9464 90.6426,243.9464" stroke-width="0" transform=" rotate(0, 87, 240)"/>
  <ellipse cx="96.7926" cy="238.1368" fill="#1b9fd8" rx="3.5" ry="3.5" stroke-width="0" transform=" rotate(0, 96, 238)"/>
  <rect fill="#1b9fd8" height="7" stroke-width="0" transform=" rotate(0, 106, 240)" width="7" x="103.0314" y="237.2297"/>
  <polygon fill="#1b9fd8" points="116.5711,243.7037 120.0711,236.7037 123.5711,243.7037" stroke-width="0" transform=" rotate(0, 120, 240)"/>
  <ellipse cx="132.2115" cy="240.6459" fill="#1b9fd8" rx="3.5" ry="3.5" stroke-width="0" transform=" rotate(0, 132, 240)"/>
  <rect fill="#1b9fd8" height="7" stroke-width="0" transform=" rotate(0, 142, 237)" width="7" x="138.9733" y="233.7784"/>
  <polygon fill="#1b9fd8" points="145.0278,240.5195 148.5278,233.5195 152.0278,240.5195" stroke-width="0" transform=" rotate(0, 148, 237)"/>
  <ellipse cx="162.0049" cy="241.489" fill="#1b9fd8" rx="3.5" ry="3.5" stroke-width="0" transform=" rotate(0, 162, 241)"/>
  <rect fill="#1b9fd8" height="7" stroke-width="0" transform=" rotate(0, 170, 238)" width="7" x="167.1" y="234.8927"/>
  <polygon fill="#1b9fd8" points="173.7194,241.2469 177.2194,234.2469 180.7194,241.2469" stroke-width="0" transform=" rotate(0, 177, 237)"/>
  <ellipse cx="188.4852" cy="238.4812" fill="#1b9fd8" rx="3.5" ry="3.5" stroke-width="0" transform=" rotate(0, 188, 238)"/>
  <rect fill="#1b9fd8" height="7" stroke-width="0" transform=" rotate(0, 201, 237)" width="7" x="198.3277" y="233.6981"/>
  <polygon fill="#1b9fd8" points="203.9233,245.6856 207.4233,238.6856 210.9233,245.6856" stroke-width="0" transform=" rotate(0, 207, 242)"/>
  <ellipse cx="220.617" cy="236.8778" fill="#1b9fd8" rx="3.5" ry="3.5" stroke-width="0" transform=" rotate(0, 220, 236)"/>
  <rect fill="#1b9fd8" height="7" stroke-width="0" transform=" rotate(0, 227, 242)" width="7" x="223.8487" y="238.5177"/>
  <polygon fill="#1b9fd8" points="235.2169,246.2224 238.7169,239.2224 242.2169,246.2224" stroke-width="0" transform=" rotate(0, 238, 242)"/>
  <ellipse cx="250.0137" cy="238.8876" fill="#1b9fd8" rx="3.5" ry="3.5" stroke-width="0" transform=" rotate(0, 250, 238)"/>
  <rect fill="#1b9fd8" height="7" stroke-width="0" transform=" rotate(0, 257, 237)" width="7" x="253.5985" y="233.6588"/>
  <polygon fill="#1b9fd8" points="269.8572,240.2121 273.3572,233.2121 276.8572,240.2121" stroke-width="0" transform=" rotate(0, 273, 236)"/>
  <ellipse cx="281.0895" cy="241.3006" fill="#1b9fd8" rx="3.5" ry="3.5" stroke-width="0" transform=" rotate(0, 281, 241)"/>
  <rect fill="#6dd6ff" height="5" stroke-width="0" transform=" rotate(0, 47, 250)" width="5" x="45.254" y="247.848"/>
  <polygon fill="#6dd6ff" points="54.6098,250.2619 57.1098,245.2619 59.6098,250.2619" stroke-width="0" transform=" rotate(0, 57, 247)"/>
  <ellipse cx="70.3434" cy="253.0685" fill="#6dd6ff" rx="2.5" ry="2.5" stroke-width="0" transform=" rotate(0, 70, 253)"/>
  <rect fill="#6dd6ff" height="5" stroke-width="0" transform=" rotate(0, 79, 252)" width="5" x="77.2161" y="250.4818"/>
  <polygon fill="#6dd6ff" points="86.3147,253.0484 88.8147,248.0484 91.3147,253.0484" stroke-width="0" transform=" rotate(0, 88, 250)"/>
  <ellipse cx="101.113" cy="248.4461" fill="#6dd6ff" rx="2.5" ry="2.5" stroke-width="0" transform=" rotate(0, 101, 248)"/>
  <rect fill="#6dd6ff" height="5" stroke-width="0" transform=" rotate(0, 112, 251)" width="5" x="110.3561" y="248.5288"/>
  <polygon fill="#6dd6ff" points="116.7412,255.3604 119.2412,250.3604 121.7412,255.3604" stroke-width="0" transform=" rotate(0, 119, 252)"/>
  <ellipse cx="127.8383" cy="252.2323" fill="#6dd6ff" rx="2.5" ry="2.5" stroke-width="0" transform=" rotate(0, 127, 252)"/>
  <rect fill="#6dd6ff" height="5" stroke-width="0" transform=" rotate(0, 141, 252)" width="5" x="138.6743" y="250.2873"/>
  <polygon fill="#6dd6ff" points="145.6493,254.4878 148.1493,249.4878 150.6493,254.4878" stroke-width="0" transform=" rotate(0, 148, 251)"/>
  <ellipse cx="158.4006" cy="250.8281" fill="#6dd6ff" rx="2.5" ry="2.5" stroke-width="0" transform=" rotate(0, 158, 250)"/>
  <rect fill="#6dd6ff" height="5" stroke-width="0" transform=" rotate(0, 170, 253)" width="5" x="168.3669" y="250.8665"/>
  <polygon fill="#6dd6ff" points="180.6812,249.1807 183.1812,244.1807 185.6812,249.1807" stroke-width="0" transform=" rotate(0, 183, 246)"/>
  <ellipse cx="186.483" cy="248.6518" fill="#6dd6ff" rx="2.5" ry="2.5" stroke-width="0" transform=" rotate(0, 186, 248)"/>
  <rect fill="#6dd6ff" height="5" stroke-width="0" transform=" rotate(0, 201, 249)" width="5" x="199.2917" y="246.8431"/>
  <polygon fill="#6dd6ff" points="210.7075,251.7294 213.2075,246.7294 215.7075,251.7294" stroke-width="0" transform=" rotate(0, 213, 249)"/>
  <ellipse cx="220.8278" cy="249.7254" fill="#6dd6ff" rx="2.5" ry="2.5" stroke-width="0" transform=" rotate(0, 220, 249)"/>
  <rect fill="#6dd6ff" height="5" stroke-width="0" transform=" rotate(0, 232, 250)" width="5" x="229.6094" y="248.0656"/>
  <polygon fill="#6dd6ff" points="237.2441,252.6487 239.7441,247.6487 242.2441,252.6487" stroke-width="0" transform=" rotate(0, 239, 250)"/>
  <ellipse cx="252.4554" cy="251.6365" fill="#6dd6ff" rx="2.5" ry="2.5" stroke-width="0" transform=" rotate(0, 252, 251)"/>
  <rect fill="#6dd6ff" height="5" stroke-width="0" transform=" rotate(0, 261, 246)" width="5" x="258.8817" y="244.3946"/>
  <polygon fill="#6dd6ff" points="268.7869,251.8146 271.2869,246.8146 273.7869,251.8146" stroke-width="0" transform=" rotate(0, 271, 249)"/>
  <ellipse cx="276.6855" cy="251.7525" fill="#6dd6ff" rx="2.5" ry="2.5" stroke-width="0" transform=" rotate(0, 276, 251)"/>
  <rect fill="#006ca1" height="9" stroke-width="0" transform=" rotate(0, 52, 262)" width="9" x="48.0745" y="258.1368"/>
  <polygon fill="#006ca1" points="53.6113,262.8238 58.1113,253.8238 62.6113,262.8238" stroke-width="0" transform=" rotate(0, 58, 258)"/>
  <ellipse cx="73.4289" cy="260.3596" fill="#006ca1" rx="4.5" ry="4.5" stroke-width="0" transform=" rotate(0, 73, 260)"/>
  <rect fill="#006ca1" height="9" stroke-width="0" transform=" rotate(0, 77, 258)" width="9" x="73.0314" y="253.7231"/>
  <polygon fill="#006ca1" points="87.2125,261.5293 91.7125,252.5293 96.2125,261.5293" stroke-width="0" transform=" rotate(0, 91, 257)"/>
  <ellipse cx="97.2979" cy="261.6518" fill="#006ca1" rx="4.5" ry="4.5" stroke-width="0" transform=" rotate(0, 97, 261)"/>
  <rect fill="#006ca1" height="9" stroke-width="0" transform=" rotate(0, 109, 257)" width="9" x="105.3845" y="252.5298"/>
  <polygon fill="#006ca1" points="113.9357,263.3695 118.4357,254.3695 122.9357,263.3695" stroke-width="0" transform=" rotate(0, 118, 258)"/>
  <ellipse cx="131.7295" cy="257.4858" fill="#006ca1" rx="4.5" ry="4.5" stroke-width="0" transform=" rotate(0, 131, 257)"/>
  <rect fill="#006ca1" height="9" stroke-width="0" transform=" rotate(0, 137, 257)" width="9" x="133.3395" y="253.0092"/>
  <polygon fill="#006ca1" points="142.1821,262.6239 146.6821,253.6239 151.1821,262.6239" stroke-width="0" transform=" rotate(0, 146, 258)"/>
  <ellipse cx="162.2744" cy="263.1092" fill="#006ca1" rx="4.5" ry="4.5" stroke-width="0" transform=" rotate(0, 162, 263)"/>
  <rect fill="#006ca1" height="9" stroke-width="0" transform=" rotate(0, 170, 257)" width="9" x="165.6695" y="253.4132"/>
  <polygon fill="#006ca1" points="178.0076,263.8355 182.5076,254.8355 187.0076,263.8355" stroke-width="0" transform=" rotate(0, 182, 259)"/>
  <ellipse cx="187.6455" cy="261.102" fill="#006ca1" rx="4.5" ry="4.5" stroke-width="0" transform=" rotate(0, 187, 261)"/>
  <rect fill="#006ca1" height="9" stroke-width="0" transform=" rotate(0, 200, 262)" width="9" x="195.6884" y="258.3786"/>
  <polygon fill="#006ca1" points="208.6475,263.4168 213.1475,254.4168 217.6475,263.4168" stroke-width="0" transform=" rotate(0, 213, 258)"/>
  <ellipse cx="219.7342" cy="259.2601" fill="#006ca1" rx="4.5" ry="4.5" stroke-width="0" transform=" rotate(0, 219, 259)"/>
  <rect fill="#006ca1" height="9" stroke-width="0" transform=" rotate(0, 229, 259)" width="9" x="224.6354" y="255.3992"/>
  <polygon fill="#006ca1" points="233.8481,265.4188 238.3481,256.4188 242.8481,265.4188" stroke-width="0" transform=" rotate(0, 238, 260)"/>
  <ellipse cx="248.8177" cy="257.695" fill="#006ca1" rx="4.5" ry="4.5" stroke-width="0" transform=" rotate(0, 248, 257)"/>
  <rect fill="#006ca1" height="9" stroke-width="0" transform=" rotate(0, 261, 258)" width="9" x="256.8057" y="253.8486"/>
  <polygon fill="#006ca1" points="262.5461,263.6911 267.0461,254.6911 271.5461,263.6911" stroke-width="0" transform=" rotate(0, 267, 259)"/>
  <ellipse cx="278.7206" cy="259.68" fill="#006ca1" rx="4.5" ry="4.5" stroke-width="0" transform=" rotate(0, 278, 259)"/>
  <rect fill="#1b9fd8" height="7" stroke-width="0" transform=" rotate(0, 49, 269)" width="7" x="45.7123" y="265.717"/>
  <polygon fill="#1b9fd8" points="57.8493,276.6212 61.3493,269.6212 64.8493,276.6212" stroke-width="0" transform=" rotate(0, 61, 273)"/>
  <ellipse cx="69.8736" cy="266.5314" fill="#1b9fd8" rx="3.5" ry="3.5" stroke-width="0" transform=" rotate(0, 69, 266)"/>
  <rect fill="#1b9fd8" height="7" stroke-width="0" transform=" rotate(0, 81, 268)" width="7" x="78.0767" y="264.8448"/>
  <polygon fill="#1b9fd8" points="88.5575,275.0331 92.0575,268.0331 95.5575,275.0331" stroke-width="0" transform=" rotate(0, 92, 271)"/>
  <ellipse cx="96.9234" cy="271.8539" fill="#1b9fd8" rx="3.5" ry="3.5" stroke-width="0" transform=" rotate(0, 96, 271)"/>
  <rect fill="#1b9fd8" height="7" stroke-width="0" transform=" rotate(0, 107, 268)" width="7" x="104.2395" y="265.3204"/>
  <polygon fill="#1b9fd8" points="115.6595,269.9495 119.1595,262.9495 122.6595,269.9495" stroke-width="0" transform=" rotate(0, 119, 266)"/>
  <ellipse cx="131.856" cy="272.4625" fill="#1b9fd8" rx="3.5" ry="3.5" stroke-width="0" transform=" rotate(0, 131, 272)"/>
  <rect fill="#1b9fd8" height="7" stroke-width="0" transform=" rotate(0, 143, 272)" width="7" x="139.9356" y="269.4244"/>
  <polygon fill="#1b9fd8" points="149.9014,271.2544 153.4014,264.2544 156.9014,271.2544" stroke-width="0" transform=" rotate(0, 153, 267)"/>
  <ellipse cx="161.8385" cy="268.7774" fill="#1b9fd8" rx="3.5" ry="3.5" stroke-width="0" transform=" rotate(0, 161, 268)"/>
  <rect fill="#1b9fd8" height="7" stroke-width="0" transform=" rotate(0, 167, 272)" width="7" x="164.2871" y="268.5168"/>
  <polygon fill="#1b9fd8" points="179.8917,276.4297 183.3917,269.4297 186.8917,276.4297" stroke-width="0" transform=" rotate(0, 183, 272)"/>
  <ellipse cx="186.7145" cy="266.7548" fill="#1b9fd8" rx="3.5" ry="3.5" stroke-width="0" transform=" rotate(0, 186, 266)"/>
  <rect fill="#1b9fd8" height="7" stroke-width="0" transform=" rotate(0, 201, 272)" width="7" x="198.3168" y="269.4673"/>
  <polygon fill="#1b9fd8" points="203.6446,273.762 207.1446,266.762 210.6446,273.762" stroke-width="0" transform=" rotate(0, 207, 270)"/>
  <ellipse cx="219.0732" cy="271.9519" fill="#1b9fd8" rx="3.5" ry="3.5" stroke-width="0" transform=" rotate(0, 219, 271)"/>
  <rect fill="#1b9fd8" height="7" stroke-width="0" transform=" rotate(0, 226, 268)" width="7" x="223.4845" y="265.4181"/>
  <polygon fill="#1b9fd8" points="237.6656,275.163 241.1656,268.163 244.6656,275.163" stroke-width="0" transform=" rotate(0, 241, 271)"/>
  <ellipse cx="246.5377" cy="271.0995" fill="#1b9fd8" rx="3.5" ry="3.5" stroke-width="0" transform=" rotate(0, 246, 271)"/>
  <rect fill="#1b9fd8" height="7" stroke-width="0" transform=" rotate(0, 260, 270)" width="7" x="257.1641" y="266.9532"/>
  <polygon fill="#1b9fd8" points="264.0321,275.0533 267.5321,268.0533 271.0321,275.0533" stroke-width="0" transform=" rotate(0, 267, 271)"/>
  <ellipse cx="282.5664" cy="268.6857" fill="#1b9fd8" rx="3.5" ry="3.5" stroke-width="0" transform=" rotate(0, 282, 268)"/>
  <rect fill="#6dd6ff" height="5" stroke-width="0" transform=" rotate(0, 46, 280)" width="5" x="44.0426" y="278.264"/>
  <polygon fill="#6dd6ff" points="60.2339,279.3736 62.7339,274.3736 65.2339,279.3736" stroke-width="0" transform=" rotate(0, 62, 276)"/>
  <ellipse cx="69.0195" cy="279.3117" fill="#6dd6ff" rx="2.5" ry="2.5" stroke-width="0" transform=" rotate(0, 69, 279)"/>
  <rect fill="#6dd6ff" height="5" stroke-width="0" transform=" rotate(0, 77, 282)" width="5" x="75.3482" y="279.779"/>
  <polygon fill="#6dd6ff" points="88.2213,282.7801 90.7213,277.7801 93.2213,282.7801" stroke-width="0" transform=" rotate(0, 90, 280)"/>
  <ellipse cx="99.814" cy="278.6633" fill="#6dd6ff" rx="2.5" ry="2.5" stroke-width="0" transform=" rotate(0, 99, 278)"/>
  <rect fill="#6dd6ff" height="5" stroke-width="0" transform=" rotate(0, 111, 280)" width="5" x="109.4262" y="278.4613"/>
  <polygon fill="#6dd6ff" points="115.3768,283.4822 117.8768,278.4822 120.3768,283.4822" stroke-width="0" transform=" rotate(0, 117, 280)"/>
  <ellipse cx="126.5812" cy="276.5606" fill="#6dd6ff" rx="2.5" ry="2.5" stroke-width="0" transform=" rotate(0, 126, 276)"/>
  <rect fill="#6dd6ff" height="5" stroke-width="0" transform=" rotate(0, 139, 281)" width="5" x="137.4354" y="279.2017"/>
  <polygon fill="#6dd6ff" points="146.8853,280.3366 149.3853,275.3366 151.8853,280.3366" stroke-width="0" transform=" rotate(0, 149, 277)"/>
  <ellipse cx="160.816" cy="282.5328" fill="#6dd6ff" rx="2.5" ry="2.5" stroke-width="0" transform=" rotate(0, 160, 282)"/>
  <rect fill="#6dd6ff" height="5" stroke-width="0" transform=" rotate(0, 166, 280)" width="5" x="164.4793" y="278.0252"/>
  <polygon fill="#6dd6ff" points="176.4051,285.593 178.9051,280.593 181.4051,285.593" stroke-width="0" transform=" rotate(0, 178, 283)"/>
  <ellipse cx="189.224" cy="282.6902" fill="#6dd6ff" rx="2.5" ry="2.5" stroke-width="0" transform=" rotate(0, 189, 282)"/>
  <rect fill="#6dd6ff" height="5" stroke-width="0" transform=" rotate(0, 201, 278)" width="5" x="198.9963" y="276.0664"/>
  <polygon fill="#6dd6ff" points="207.5951,285.7961 210.0951,280.7961 212.5951,285.7961" stroke-width="0" transform=" rotate(0, 210, 283)"/>
  <ellipse cx="219.1047" cy="277.9622" fill="#6dd6ff" rx="2.5" ry="2.5" stroke-width="0" transform=" rotate(0, 219, 277)"/>
  <rect fill="#6dd6ff" height="5" stroke-width="0" transform=" rotate(0, 231, 276)" width="5" x="229.1378" y="274.4059"/>
  <polygon fill="#6dd6ff" points="235.7329,285.3058 238.2329,280.3058 240.7329,285.3058" stroke-width="0" transform=" rotate(0, 238, 282)"/>
  <ellipse cx="246.6697" cy="282.6211" fill="#6dd6ff" rx="2.5" ry="2.5" stroke-width="0" transform=" rotate(0, 246, 282)"/>
  <rect fill="#6dd6ff" height="5" stroke-width="0" transform=" rotate(0, 259, 276)" width="5" x="257.3304" y="273.9475"/>
  <polygon fill="#6dd6ff" points="270.766,283.6778 273.266,278.6778 275.766,283.6778" stroke-width="0" transform=" rotate(0, 273, 281)"/>
  <ellipse cx="281.1384" cy="280.174" fill="#6dd6ff" rx="2.5" ry="2.5" stroke-width="0" transform=" rotate(0, 281, 280)"/>
</svg>
