<?xml version="1.0" encoding="utf-8" ?>
<svg baseProfile="tiny" height="330" version="1.2" width="330" xmlns="http://www.w3.org/2000/svg" xmlns:ev="http://www.w3.org/2001/xml-events" xmlns:xlink="http://www.w3.org/1999/xlink">
  <defs/>
  <rect fill="white" height="330" width="330" x="0" y="0"/>
  <rect fill="#6dd6ff" height="10" stroke-width="0" transform=" rotate(0, 47, 49)" width="10" x="42.1648" y="44.151"/>
  <polygon fill="#6dd6ff" points="69.0331,51.4417 74.0331,41.4417 79.0331,51.4417" stroke-width="0" transform=" rotate(0, 74, 46)"/>
  <ellipse cx="99.402" cy="44.8183" fill="#6dd6ff" rx="5.0" ry="5.0" stroke-width="0" transform=" rotate(0, 99, 44)"/>
  <rect fill="#6dd6ff" height="10" stroke-width="0" transform=" rotate(0, 106, 57)" width="10" x="101.4608" y="52.6357"/>
  <polygon fill="#6dd6ff" points="137.9422,50.6861 142.9422,40.6861 147.9422,50.6861" stroke-width="0" transform=" rotate(0, 142, 45)"/>
  <ellipse cx="159.3953" cy="48.5577" fill="#6dd6ff" rx="5.0" ry="5.0" stroke-width="0" transform=" rotate(0, 159, 48)"/>
  <rect fill="#6dd6ff" height="10" stroke-width="0" transform=" rotate(0, 175, 59)" width="10" x="170.4093" y="54.2321"/>
  <polygon fill="#6dd6ff" points="181.6182,63.0484 186.6182,53.0484 191.6182,63.0484" stroke-width="0" transform=" rotate(0, 186, 58)"/>
  <ellipse cx="221.9063" cy="57.8805" fill="#6dd6ff" rx="5.0" ry="5.0" stroke-width="0" transform=" rotate(0, 221, 57)"/>
  <rect fill="#6dd6ff" height="10" stroke-width="0" transform=" rotate(0, 232, 63)" width="10" x="227.7959" y="58.7052"/>
  <polygon fill="#6dd6ff" points="243.9135,62.4689 248.9135,52.4689 253.9135,62.4689" stroke-width="0" transform=" rotate(0, 248, 57)"/>
  <ellipse cx="277.0567" cy="58.8206" fill="#6dd6ff" rx="5.0" ry="5.0" stroke-width="0" transform=" rotate(0, 277, 58)"/>
  <rect fill="#1b9fd8" height="14" stroke-width="0" transform=" rotate(0, 64, 72)" width="14" x="57.2924" y="65.9263"/>
  <polygon fill="#1b9fd8" points="61.2859,87.2346 68.2859,73.2346 75.2859,87.2346" stroke-width="0" transform=" rotate(0, 68, 80)"/>
  <ellipse cx="96.4444" cy="70.7582" fill="#1b9fd8" rx="7.0" ry="7.0" stroke-width="0" transform=" rotate(0, 96, 70)"/>
  <rect fill="#1b9fd8" height="14" stroke-width="0" transform=" rotate(0, 118, 83)" width="14" x="111.9222" y="76.5788"/>
  <polygon fill="#1b9fd8" points="121.0429,81.9165 128.0429,67.9165 135.0429,81.9165" stroke-width="0" transform=" rotate(0, 128, 74)"/>
  <ellipse cx="155.4581" cy="70.8325" fill="#1b9fd8" rx="7.0" ry="7.0" stroke-width="0" transform=" rotate(0, 155, 70)"/>
  <rect fill="#1b9fd8" height="14" stroke-width="0" transform=" rotate(0, 178, 82)" width="14" x="171.639" y="75.9253"/>
  <polygon fill="#1b9fd8" points="187.4645,90.3395 194.4645,76.3395 201.4645,90.3395" stroke-width="0" transform=" rotate(0, 194, 83)"/>
  <ellipse cx="208.3027" cy="82.7507" fill="#1b9fd8" rx="7.0" ry="7.0" stroke-width="0" transform=" rotate(0, 208, 82)"/>
  <rect fill="#1b9fd8" height="14" stroke-width="0" transform=" rotate(0, 238, 67)" width="14" x="231.2835" y="60.7729"/>
  <polygon fill="#1b9fd8" points="246.8566,79.912 253.8566,65.912 260.8566,79.912" stroke-width="0" transform=" rotate(0, 253, 72)"/>
  <ellipse cx="282.942" cy="79.6446" fill="#1b9fd8" rx="7.0" ry="7.0" stroke-width="0" transform=" rotate(0, 282, 79)"/>
  <rect fill="#006ca1" height="18" stroke-width="0" transform=" rotate(0, 54, 97)" width="18" x="45.2926" y="88.4679"/>
  <polygon fill="#006ca1" points="67.6725,103.455 76.6725,85.455 85.6725,103.455" stroke-width="0" transform=" rotate(0, 76, 94)"/>
  <ellipse cx="99.0552" cy="102.5741" fill="#006ca1" rx="9.0" ry="9.0" stroke-width="0" transform=" rotate(0, 99, 102)"/>
  <rect fill="#006ca1" height="18" stroke-width="0" transform=" rotate(0, 110, 88)" width="18" x="101.469" y="79.628"/>
  <polygon fill="#006ca1" points="129.5195,101.1253 138.5195,83.1253 147.5195,101.1253" stroke-width="0" transform=" rotate(0, 138, 92)"/>
  <ellipse cx="164.384" cy="101.5689" fill="#006ca1" rx="9.0" ry="9.0" stroke-width="0" transform=" rotate(0, 164, 101)"/>
  <rect fill="#006ca1" height="18" stroke-width="0" transform=" rotate(0, 166, 98)" width="18" x="157.0684" y="89.4507"/>
  <polygon fill="#006ca1" points="183.8045,113.0317 192.8045,95.0317 201.8045,113.0317" stroke-width="0" transform=" rotate(0, 192, 104)"/>
  <ellipse cx="218.7363" cy="96.7125" fill="#006ca1" rx="9.0" ry="9.0" stroke-width="0" transform=" rotate(0, 218, 96)"/>
  <rect fill="#006ca1" height="18" stroke-width="0" transform=" rotate(0, 234, 96)" width="18" x="225.3144" y="87.2657"/>
  <polygon fill="#006ca1" points="255.3204,102.9655 264.3204,84.9655 273.3204,102.9655" stroke-width="0" transform=" rotate(0, 264, 93)"/>
  <ellipse cx="279.0827" cy="99.9566" fill="#006ca1" rx="9.0" ry="9.0" stroke-width="0" transform=" rotate(0, 279, 99)"/>
  <rect fill="#6dd6ff" height="10" stroke-width="0" transform=" rotate(0, 55, 104)" width="10" x="50.049" y="99.9365"/>
  <polygon fill="#6dd6ff" points="78.7787,113.4292 83.7787,103.4292 88.7787,113.4292" stroke-width="0" transform=" rotate(0, 83, 108)"/>
  <ellipse cx="98.3" cy="109.2456" fill="#6dd6ff" rx="5.0" ry="5.0" stroke-width="0" transform=" rotate(0, 98, 109)"/>
  <rect fill="#6dd6ff" height="10" stroke-width="0" transform=" rotate(0, 117, 115)" width="10" x="112.5959" y="110.0518"/>
  <polygon fill="#6dd6ff" points="131.7882,129.2079 136.7882,119.2079 141.7882,129.2079" stroke-width="0" transform=" rotate(0, 136, 124)"/>
  <ellipse cx="157.4529" cy="112.0654" fill="#6dd6ff" rx="5.0" ry="5.0" stroke-width="0" transform=" rotate(0, 157, 112)"/>
  <rect fill="#6dd6ff" height="10" stroke-width="0" transform=" rotate(0, 178, 119)" width="10" x="173.1148" y="114.5853"/>
  <polygon fill="#6dd6ff" points="199.6492,121.1027 204.6492,111.1027 209.6492,121.1027" stroke-width="0" transform=" rotate(0, 204, 116)"/>
  <ellipse cx="211.8472" cy="123.628" fill="#6dd6ff" rx="5.0" ry="5.0" stroke-width="0" transform=" rotate(0, 211, 123)"/>
  <rect fill="#6dd6ff" height="10" stroke-width="0" transform=" rotate(0, 243, 119)" width="10" x="238.8322" y="114.0965"/>
  <polygon fill="#6dd6ff" points="247.5493,128.7367 252.5493,118.7367 257.5493,128.7367" stroke-width="0" transform=" rotate(0, 252, 123)"/>
  <ellipse cx="270.3555" cy="123.9562" fill="#6dd6ff" rx="5.0" ry="5.0" stroke-width="0" transform=" rotate(0, 270, 123)"/>
  <rect fill="#1b9fd8" height="14" stroke-width="0" transform=" rotate(0, 46, 132)" width="14" x="39.491" y="125.3356"/>
  <polygon fill="#1b9fd8" points="76.9028,146.015 83.9028,132.015 90.9028,146.015" stroke-width="0" transform=" rotate(0, 83, 139)"/>
  <ellipse cx="87.7715" cy="135.0589" fill="#1b9fd8" rx="7.0" ry="7.0" stroke-width="0" transform=" rotate(0, 87, 135)"/>
  <rect fill="#1b9fd8" height="14" stroke-width="0" transform=" rotate(0, 112, 135)" width="14" x="105.7702" y="128.4426"/>
  <polygon fill="#1b9fd8" points="136.1695,151.3639 143.1695,137.3639 150.1695,151.3639" stroke-width="0" transform=" rotate(0, 143, 144)"/>
  <ellipse cx="159.9336" cy="135.9651" fill="#1b9fd8" rx="7.0" ry="7.0" stroke-width="0" transform=" rotate(0, 159, 135)"/>
  <rect fill="#1b9fd8" height="14" stroke-width="0" transform=" rotate(0, 170, 140)" width="14" x="163.2562" y="133.1269"/>
  <polygon fill="#1b9fd8" points="185.2465,141.2004 192.2465,127.2004 199.2465,141.2004" stroke-width="0" transform=" rotate(0, 192, 134)"/>
  <ellipse cx="213.8346" cy="136.3237" fill="#1b9fd8" rx="7.0" ry="7.0" stroke-width="0" transform=" rotate(0, 213, 136)"/>
  <rect fill="#1b9fd8" height="14" stroke-width="0" transform=" rotate(0, 231, 131)" width="14" x="224.2298" y="124.7091"/>
  <polygon fill="#1b9fd8" points="246.0644,141.4677 253.0644,127.4677 260.0644,141.4677" stroke-width="0" transform=" rotate(0, 253, 134)"/>
  <ellipse cx="270.3103" cy="128.8411" fill="#1b9fd8" rx="7.0" ry="7.0" stroke-width="0" transform=" rotate(0, 270, 128)"/>
  <rect fill="#006ca1" height="18" stroke-width="0" transform=" rotate(0, 46, 152)" width="18" x="37.6841" y="143.8367"/>
  <polygon fill="#006ca1" points="73.576,168.4361 82.576,150.4361 91.576,168.4361" stroke-width="0" transform=" rotate(0, 82, 159)"/>
  <ellipse cx="85.6165" cy="160.1702" fill="#006ca1" rx="9.0" ry="9.0" stroke-width="0" transform=" rotate(0, 85, 160)"/>
  <rect fill="#006ca1" height="18" stroke-width="0" transform=" rotate(0, 118, 147)" width="18" x="109.2426" y="138.918"/>
  <polygon fill="#006ca1" points="117.9792,159.9367 126.9792,141.9367 135.9792,159.9367" stroke-width="0" transform=" rotate(0, 126, 150)"/>
  <ellipse cx="153.7604" cy="157.6506" fill="#006ca1" rx="9.0" ry="9.0" stroke-width="0" transform=" rotate(0, 153, 157)"/>
  <rect fill="#006ca1" height="18" stroke-width="0" transform=" rotate(0, 166, 163)" width="18" x="157.7066" y="154.5659"/>
  <polygon fill="#006ca1" points="192.0207,157.8826 201.0207,139.8826 210.0207,157.8826" stroke-width="0" transform=" rotate(0, 201, 148)"/>
  <ellipse cx="216.272" cy="162.3268" fill="#006ca1" rx="9.0" ry="9.0" stroke-width="0" transform=" rotate(0, 216, 162)"/>
  <rect fill="#006ca1" height="18" stroke-width="0" transform=" rotate(0, 232, 150)" width="18" x="223.0238" y="141.9263"/>
  <polygon fill="#006ca1" points="253.5976,165.7234 262.5976,147.7234 271.5976,165.7234" stroke-width="0" transform=" rotate(0, 262, 156)"/>
  <ellipse cx="272.6584" cy="147.5691" fill="#006ca1" rx="9.0" ry="9.0" stroke-width="0" transform=" rotate(0, 272, 147)"/>
  <rect fill="#006ca1" height="18" stroke-width="0" transform=" rotate(0, 48, 167)" width="18" x="39.7762" y="158.2707"/>
  <polygon fill="#006ca1" points="65.6858,184.7606 74.6858,166.7606 83.6858,184.7606" stroke-width="0" transform=" rotate(0, 74, 175)"/>
  <ellipse cx="97.9906" cy="180.9293" fill="#006ca1" rx="9.0" ry="9.0" stroke-width="0" transform=" rotate(0, 97, 180)"/>
  <rect fill="#006ca1" height="18" stroke-width="0" transform=" rotate(0, 108, 175)" width="18" x="99.5199" y="166.835"/>
  <polygon fill="#006ca1" points="123.8193,178.3335 132.8193,160.3335 141.8193,178.3335" stroke-width="0" transform=" rotate(0, 132, 169)"/>
  <ellipse cx="148.6933" cy="171.1204" fill="#006ca1" rx="9.0" ry="9.0" stroke-width="0" transform=" rotate(0, 148, 171)"/>
  <rect fill="#006ca1" height="18" stroke-width="0" transform=" rotate(0, 168, 169)" width="18" x="159.3401" y="160.5461"/>
  <polygon fill="#006ca1" points="188.3673,181.776 197.3673,163.776 206.3673,181.776" stroke-width="0" transform=" rotate(0, 197, 172)"/>
  <ellipse cx="219.0802" cy="183.0745" fill="#006ca1" rx="9.0" ry="9.0" stroke-width="0" transform=" rotate(0, 219, 183)"/>
  <rect fill="#006ca1" height="18" stroke-width="0" transform=" rotate(0, 225, 172)" width="18" x="216.2561" y="163.599"/>
  <polygon fill="#006ca1" points="241.0673,185.9167 250.0673,167.9167 259.0673,185.9167" stroke-width="0" transform=" rotate(0, 250, 176)"/>
  <ellipse cx="267.1811" cy="173.3822" fill="#006ca1" rx="9.0" ry="9.0" stroke-width="0" transform=" rotate(0, 267, 173)"/>
  <rect fill="#1b9fd8" height="14" stroke-width="0" transform=" rotate(0, 60, 190)" width="14" x="53.7426" y="183.8465"/>
  <polygon fill="#1b9fd8" points="77.9243,191.6451 84.9243,177.6451 91.9243,191.6451" stroke-width="0" transform=" rotate(0, 84, 184)"/>
  <ellipse cx="87.8289" cy="192.755" fill="#1b9fd8" rx="7.0" ry="7.0" stroke-width="0" transform=" rotate(0, 87, 192)"/>
  <rect fill="#1b9fd8" height="14" stroke-width="0" transform=" rotate(0, 117, 200)" width="14" x="110.971" y="193.5865"/>
  <polygon fill="#1b9fd8" points="134.0394,192.6595 141.0394,178.6595 148.0394,192.6595" stroke-width="0" transform=" rotate(0, 141, 185)"/>
  <ellipse cx="146.9444" cy="203.1285" fill="#1b9fd8" rx="7.0" ry="7.0" stroke-width="0" transform=" rotate(0, 146, 203)"/>
  <rect fill="#1b9fd8" height="14" stroke-width="0" transform=" rotate(0, 172, 193)" width="14" x="165.1387" y="186.7094"/>
  <polygon fill="#1b9fd8" points="185.3714,204.505 192.3714,190.505 199.3714,204.505" stroke-width="0" transform=" rotate(0, 192, 197)"/>
  <ellipse cx="207.6871" cy="195.8851" fill="#1b9fd8" rx="7.0" ry="7.0" stroke-width="0" transform=" rotate(0, 207, 195)"/>
  <rect fill="#1b9fd8" height="14" stroke-width="0" transform=" rotate(0, 226, 193)" width="14" x="219.1763" y="186.3871"/>
  <polygon fill="#1b9fd8" points="241.9218,208.9935 248.9218,194.9935 255.9218,208.9935" stroke-width="0" transform=" rotate(0, 248, 201)"/>
  <ellipse cx="272.3856" cy="185.5836" fill="#1b9fd8" rx="7.0" ry="7.0" stroke-width="0" transform=" rotate(0, 272, 185)"/>
  <rect fill="#6dd6ff" height="10" stroke-width="0" transform=" rotate(0, 52, 224)" width="10" x="47.6954" y="219.2327"/>
  <polygon fill="#6dd6ff" points="64.4036,218.8736 69.4036,208.8736 74.4036,218.8736" stroke-width="0" transform=" rotate(0, 69, 213)"/>
  <ellipse cx="98.9601" cy="212.2836" fill="#6dd6ff" rx="5.0" ry="5.0" stroke-width="0" transform=" rotate(0, 98, 212)"/>
  <rect fill="#6dd6ff" height="10" stroke-width="0" transform=" rotate(0, 112, 209)" width="10" x="107.1761" y="204.5801"/>
  <polygon fill="#6dd6ff" points="139.3945,226.9828 144.3945,216.9828 149.3945,226.9828" stroke-width="0" transform=" rotate(0, 144, 221)"/>
  <ellipse cx="156.6718" cy="208.9295" fill="#6dd6ff" rx="5.0" ry="5.0" stroke-width="0" transform=" rotate(0, 156, 208)"/>
  <rect fill="#6dd6ff" height="10" stroke-width="0" transform=" rotate(0, 182, 215)" width="10" x="177.6159" y="210.8739"/>
  <polygon fill="#6dd6ff" points="182.5996,225.1265 187.5996,215.1265 192.5996,225.1265" stroke-width="0" transform=" rotate(0, 187, 220)"/>
  <ellipse cx="212.314" cy="221.0236" fill="#6dd6ff" rx="5.0" ry="5.0" stroke-width="0" transform=" rotate(0, 212, 221)"/>
  <rect fill="#6dd6ff" height="10" stroke-width="0" transform=" rotate(0, 243, 213)" width="10" x="238.097" y="208.1559"/>
  <polygon fill="#6dd6ff" points="247.3982,223.8297 252.3982,213.8297 257.3982,223.8297" stroke-width="0" transform=" rotate(0, 252, 218)"/>
  <ellipse cx="267.1655" cy="211.2571" fill="#6dd6ff" rx="5.0" ry="5.0" stroke-width="0" transform=" rotate(0, 267, 211)"/>
  <rect fill="#006ca1" height="18" stroke-width="0" transform=" rotate(0, 52, 229)" width="18" x="43.3456" y="220.2906"/>
  <polygon fill="#006ca1" points="69.034,240.3978 78.034,222.3978 87.034,240.3978" stroke-width="0" transform=" rotate(0, 78, 231)"/>
  <ellipse cx="92.8373" cy="227.9237" fill="#006ca1" rx="9.0" ry="9.0" stroke-width="0" transform=" rotate(0, 92, 227)"/>
  <rect fill="#006ca1" height="18" stroke-width="0" transform=" rotate(0, 123, 227)" width="18" x="114.758" y="218.3394"/>
  <polygon fill="#006ca1" points="119.9525,241.4765 128.9525,223.4765 137.9525,241.4765" stroke-width="0" transform=" rotate(0, 128, 232)"/>
  <ellipse cx="149.8817" cy="242.9033" fill="#006ca1" rx="9.0" ry="9.0" stroke-width="0" transform=" rotate(0, 149, 242)"/>
  <rect fill="#006ca1" height="18" stroke-width="0" transform=" rotate(0, 184, 228)" width="18" x="175.4511" y="219.2393"/>
  <polygon fill="#006ca1" points="181.3694,250.0755 190.3694,232.0755 199.3694,250.0755" stroke-width="0" transform=" rotate(0, 190, 241)"/>
  <ellipse cx="221.2972" cy="233.9031" fill="#006ca1" rx="9.0" ry="9.0" stroke-width="0" transform=" rotate(0, 221, 233)"/>
  <rect fill="#006ca1" height="18" stroke-width="0" transform=" rotate(0, 226, 229)" width="18" x="217.8642" y="220.3475"/>
  <polygon fill="#006ca1" points="238.1684,247.1863 247.1684,229.1863 256.1684,247.1863" stroke-width="0" transform=" rotate(0, 247, 238)"/>
  <ellipse cx="271.0004" cy="242.2975" fill="#006ca1" rx="9.0" ry="9.0" stroke-width="0" transform=" rotate(0, 271, 242)"/>
  <rect fill="#1b9fd8" height="14" stroke-width="0" transform=" rotate(0, 62, 257)" width="14" x="55.5387" y="250.2671"/>
  <polygon fill="#1b9fd8" points="76.007,258.7642 83.007,244.7642 90.007,258.7642" stroke-width="0" transform=" rotate(0, 83, 251)"/>
  <ellipse cx="102.4487" cy="245.7267" fill="#1b9fd8" rx="7.0" ry="7.0" stroke-width="0" transform=" rotate(0, 102, 245)"/>
  <rect fill="#1b9fd8" height="14" stroke-width="0" transform=" rotate(0, 122, 255)" width="14" x="115.9095" y="248.4921"/>
  <polygon fill="#1b9fd8" points="119.6763,253.5787 126.6763,239.5787 133.6763,253.5787" stroke-width="0" transform=" rotate(0, 126, 246)"/>
  <ellipse cx="152.473" cy="256.4806" fill="#1b9fd8" rx="7.0" ry="7.0" stroke-width="0" transform=" rotate(0, 152, 256)"/>
  <rect fill="#1b9fd8" height="14" stroke-width="0" transform=" rotate(0, 178, 259)" width="14" x="171.6006" y="252.2422"/>
  <polygon fill="#1b9fd8" points="193.467,259.7365 200.467,245.7365 207.467,259.7365" stroke-width="0" transform=" rotate(0, 200, 252)"/>
  <ellipse cx="220.1347" cy="260.582" fill="#1b9fd8" rx="7.0" ry="7.0" stroke-width="0" transform=" rotate(0, 220, 260)"/>
  <rect fill="#1b9fd8" height="14" stroke-width="0" transform=" rotate(0, 234, 251)" width="14" x="227.0283" y="244.3548"/>
  <polygon fill="#1b9fd8" points="252.7955,252.3974 259.7955,238.3974 266.7955,252.3974" stroke-width="0" transform=" rotate(0, 259, 245)"/>
  <ellipse cx="279.819" cy="245.2256" fill="#1b9fd8" rx="7.0" ry="7.0" stroke-width="0" transform=" rotate(0, 279, 245)"/>
  <rect fill="#6dd6ff" height="10" stroke-width="0" transform=" rotate(0, 63, 281)" width="10" x="58.5358" y="276.8498"/>
  <polygon fill="#6dd6ff" points="60.5536,283.5512 65.5536,273.5512 70.5536,283.5512" stroke-width="0" transform=" rotate(0, 65, 278)"/>
  <ellipse cx="100.4296" cy="265.1161" fill="#6dd6ff" rx="5.0" ry="5.0" stroke-width="0" transform=" rotate(0, 100, 265)"/>
  <rect fill="#6dd6ff" height="10" stroke-width="0" transform=" rotate(0, 119, 277)" width="10" x="114.4321" y="272.1115"/>
  <polygon fill="#6dd6ff" points="132.8566,286.7929 137.8566,276.7929 142.8566,286.7929" stroke-width="0" transform=" rotate(0, 137, 281)"/>
  <ellipse cx="156.8975" cy="269.111" fill="#6dd6ff" rx="5.0" ry="5.0" stroke-width="0" transform=" rotate(0, 156, 269)"/>
  <rect fill="#6dd6ff" height="10" stroke-width="0" transform=" rotate(0, 169, 271)" width="10" x="164.3788" y="266.2784"/>
  <polygon fill="#6dd6ff" points="196.3706,277.0812 201.3706,267.0812 206.3706,277.0812" stroke-width="0" transform=" rotate(0, 201, 272)"/>
  <ellipse cx="219.964" cy="266.5087" fill="#6dd6ff" rx="5.0" ry="5.0" stroke-width="0" transform=" rotate(0, 219, 266)"/>
  <rect fill="#6dd6ff" height="10" stroke-width="0" transform=" rotate(0, 228, 284)" width="10" x="223.6916" y="279.2033"/>
  <polygon fill="#6dd6ff" points="242.1137,289.3362 247.1137,279.3362 252.1137,289.3362" stroke-width="0" transform=" rotate(0, 247, 284)"/>
  <ellipse cx="283.334" cy="267.3788" fill="#6dd6ff" rx="5.0" ry="5.0" stroke-width="0" transform=" rotate(0, 283, 267)"/>
</svg>
