<?xml version="1.0" encoding="utf-8" ?>
<svg baseProfile="tiny" height="330" version="1.2" width="330" xmlns="http://www.w3.org/2000/svg" xmlns:ev="http://www.w3.org/2001/xml-events" xmlns:xlink="http://www.w3.org/1999/xlink">
  <defs/>
  <rect fill="white" height="330" width="330" x="0" y="0"/>
  <rect fill="#6dd6ff" height="20" stroke-width="0" transform=" rotate(0, 56, 65)" width="20" x="46.4011" y="55.4252"/>
  <polygon fill="#6dd6ff" points="93.2694,84.155 103.2694,64.155 113.2694,84.155" stroke-width="0" transform=" rotate(0, 103, 74)"/>
  <ellipse cx="148.6384" cy="68.6762" fill="#6dd6ff" rx="10.0" ry="10.0" stroke-width="0" transform=" rotate(0, 148, 68)"/>
  <rect fill="#6dd6ff" height="20" stroke-width="0" transform=" rotate(0, 175, 67)" width="20" x="165.6971" y="57.9722"/>
  <polygon fill="#6dd6ff" points="222.1785,77.1645 232.1785,57.1645 242.1785,77.1645" stroke-width="0" transform=" rotate(0, 232, 67)"/>
  <ellipse cx="268.6316" cy="67.8292" fill="#6dd6ff" rx="10.0" ry="10.0" stroke-width="0" transform=" rotate(0, 268, 67)"/>
  <rect fill="#1b9fd8" height="28" stroke-width="0" transform=" rotate(0, 64, 109)" width="28" x="50.8081" y="95.7357"/>
  <polygon fill="#1b9fd8" points="78.5006,132.884 92.5006,104.884 106.5006,132.884" stroke-width="0" transform=" rotate(0, 92, 118)"/>
  <ellipse cx="153.904" cy="100.9612" fill="#1b9fd8" rx="14.0" ry="14.0" stroke-width="0" transform=" rotate(0, 153, 100)"/>
  <rect fill="#1b9fd8" height="28" stroke-width="0" transform=" rotate(0, 181, 117)" width="28" x="167.1493" y="103.7401"/>
  <polygon fill="#1b9fd8" points="201.714,115.9441 215.714,87.9441 229.714,115.9441" stroke-width="0" transform=" rotate(0, 215, 101)"/>
  <ellipse cx="267.1145" cy="98.8727" fill="#1b9fd8" rx="14.0" ry="14.0" stroke-width="0" transform=" rotate(0, 267, 98)"/>
  <rect fill="#006ca1" height="36" stroke-width="0" transform=" rotate(0, 80, 130)" width="36" x="62.9602" y="112.0576"/>
  <polygon fill="#006ca1" points="74.1485,179.3989 92.1485,143.3989 110.1485,179.3989" stroke-width="0" transform=" rotate(0, 92, 161)"/>
  <ellipse cx="146.8338" cy="132.3625" fill="#006ca1" rx="18.0" ry="18.0" stroke-width="0" transform=" rotate(0, 146, 132)"/>
  <rect fill="#006ca1" height="36" stroke-width="0" transform=" rotate(0, 191, 141)" width="36" x="173.2938" y="123.3602"/>
  <polygon fill="#006ca1" points="193.711,178.0788 211.711,142.0788 229.711,178.0788" stroke-width="0" transform=" rotate(0, 211, 160)"/>
  <ellipse cx="265.0584" cy="154.2542" fill="#006ca1" rx="18.0" ry="18.0" stroke-width="0" transform=" rotate(0, 265, 154)"/>
  <rect fill="#006ca1" height="36" stroke-width="0" transform=" rotate(0, 70, 176)" width="36" x="52.7841" y="158.835"/>
  <polygon fill="#006ca1" points="85.27,198.4176 103.27,162.4176 121.27,198.4176" stroke-width="0" transform=" rotate(0, 103, 180)"/>
  <ellipse cx="132.1787" cy="183.2762" fill="#006ca1" rx="18.0" ry="18.0" stroke-width="0" transform=" rotate(0, 132, 183)"/>
  <rect fill="#006ca1" height="36" stroke-width="0" transform=" rotate(0, 190, 178)" width="36" x="172.1442" y="160.5875"/>
  <polygon fill="#006ca1" points="204.1758,199.8896 222.1758,163.8896 240.1758,199.8896" stroke-width="0" transform=" rotate(0, 222, 181)"/>
  <ellipse cx="278.5295" cy="176.9323" fill="#006ca1" rx="18.0" ry="18.0" stroke-width="0" transform=" rotate(0, 278, 176)"/>
  <rect fill="#1b9fd8" height="28" stroke-width="0" transform=" rotate(0, 63, 213)" width="28" x="49.2447" y="199.7327"/>
  <polygon fill="#1b9fd8" points="92.5766,249.9815 106.5766,221.9815 120.5766,249.9815" stroke-width="0" transform=" rotate(0, 106, 235)"/>
  <ellipse cx="149.9124" cy="212.2381" fill="#1b9fd8" rx="14.0" ry="14.0" stroke-width="0" transform=" rotate(0, 149, 212)"/>
  <rect fill="#1b9fd8" height="28" stroke-width="0" transform=" rotate(0, 177, 229)" width="28" x="163.8917" y="215.9146"/>
  <polygon fill="#1b9fd8" points="215.1624,228.146 229.1624,200.146 243.1624,228.146" stroke-width="0" transform=" rotate(0, 229, 214)"/>
  <ellipse cx="277.3727" cy="223.6396" fill="#1b9fd8" rx="14.0" ry="14.0" stroke-width="0" transform=" rotate(0, 277, 223)"/>
  <rect fill="#6dd6ff" height="20" stroke-width="0" transform=" rotate(0, 55, 257)" width="20" x="45.3047" y="247.0829"/>
  <polygon fill="#6dd6ff" points="92.0408,281.3969 102.0408,261.3969 112.0408,281.3969" stroke-width="0" transform=" rotate(0, 102, 271)"/>
  <ellipse cx="147.9726" cy="266.6483" fill="#6dd6ff" rx="10.0" ry="10.0" stroke-width="0" transform=" rotate(0, 147, 266)"/>
  <rect fill="#6dd6ff" height="20" stroke-width="0" transform=" rotate(0, 183, 262)" width="20" x="173.5508" y="252.4001"/>
  <polygon fill="#6dd6ff" points="223.5567,282.9739 233.5567,262.9739 243.5567,282.9739" stroke-width="0" transform=" rotate(0, 233, 272)"/>
  <ellipse cx="268.319" cy="263.0347" fill="#6dd6ff" rx="10.0" ry="10.0" stroke-width="0" transform=" rotate(0, 268, 263)"/>
</svg>
