<?xml version="1.0" encoding="utf-8" ?>
<svg baseProfile="tiny" height="330" version="1.2" width="330" xmlns="http://www.w3.org/2000/svg" xmlns:ev="http://www.w3.org/2001/xml-events" xmlns:xlink="http://www.w3.org/1999/xlink">
  <defs/>
  <rect fill="white" height="330" width="330" x="0" y="0"/>
  <rect fill="#6dd6ff" height="15" stroke-width="0" transform=" rotate(0, 51, 52)" width="15" x="43.59" y="45.32"/>
  <polygon fill="#6dd6ff" points="80.8017,67.4402 88.3017,52.4402 95.8017,67.4402" stroke-width="0" transform=" rotate(0, 88, 59)"/>
  <ellipse cx="123.9391" cy="52.5337" fill="#6dd6ff" rx="7.5" ry="7.5" stroke-width="0" transform=" rotate(0, 123, 52)"/>
  <rect fill="#6dd6ff" height="15" stroke-width="0" transform=" rotate(0, 140, 67)" width="15" x="132.8508" y="60.0634"/>
  <polygon fill="#6dd6ff" points="180.1563,70.0774 187.6563,55.0774 195.1563,70.0774" stroke-width="0" transform=" rotate(0, 187, 62)"/>
  <ellipse cx="213.9321" cy="58.1168" fill="#6dd6ff" rx="7.5" ry="7.5" stroke-width="0" transform=" rotate(0, 213, 58)"/>
  <rect fill="#6dd6ff" height="15" stroke-width="0" transform=" rotate(0, 239, 69)" width="15" x="232.2467" y="61.7192"/>
  <polygon fill="#6dd6ff" points="253.0161,66.2831 260.5161,51.2831 268.0161,66.2831" stroke-width="0" transform=" rotate(0, 260, 58)"/>
  <rect fill="#1b9fd8" height="21" stroke-width="0" transform=" rotate(0, 69, 82)" width="21" x="58.968" y="71.5915"/>
  <polygon fill="#1b9fd8" points="75.5756,101.2786 86.0756,80.2786 96.5756,101.2786" stroke-width="0" transform=" rotate(0, 86, 90)"/>
  <ellipse cx="110.3685" cy="95.6366" fill="#1b9fd8" rx="10.5" ry="10.5" stroke-width="0" transform=" rotate(0, 110, 95)"/>
  <rect fill="#1b9fd8" height="21" stroke-width="0" transform=" rotate(0, 152, 81)" width="21" x="141.8391" y="71.2147"/>
  <polygon fill="#1b9fd8" points="182.4756,98.5348 192.9756,77.5348 203.4756,98.5348" stroke-width="0" transform=" rotate(0, 192, 88)"/>
  <ellipse cx="199.4459" cy="81.9695" fill="#1b9fd8" rx="10.5" ry="10.5" stroke-width="0" transform=" rotate(0, 199, 81)"/>
  <rect fill="#1b9fd8" height="21" stroke-width="0" transform=" rotate(0, 241, 81)" width="21" x="230.939" y="70.9504"/>
  <polygon fill="#1b9fd8" points="264.5813,105.2204 275.0813,84.2204 285.5813,105.2204" stroke-width="0" transform=" rotate(0, 275, 94)"/>
  <rect fill="#006ca1" height="27" stroke-width="0" transform=" rotate(0, 46, 128)" width="27" x="32.6654" y="115.4508"/>
  <polygon fill="#006ca1" points="76.6802,116.3233 90.1802,89.3233 103.6802,116.3233" stroke-width="0" transform=" rotate(0, 90, 102)"/>
  <ellipse cx="126.1922" cy="111.9164" fill="#006ca1" rx="13.5" ry="13.5" stroke-width="0" transform=" rotate(0, 126, 111)"/>
  <rect fill="#006ca1" height="27" stroke-width="0" transform=" rotate(0, 148, 106)" width="27" x="134.8024" y="92.9614"/>
  <polygon fill="#006ca1" points="153.1565,145.5927 166.6565,118.5927 180.1565,145.5927" stroke-width="0" transform=" rotate(0, 166, 132)"/>
  <ellipse cx="215.5203" cy="139.9962" fill="#006ca1" rx="13.5" ry="13.5" stroke-width="0" transform=" rotate(0, 215, 139)"/>
  <rect fill="#006ca1" height="27" stroke-width="0" transform=" rotate(0, 237, 107)" width="27" x="223.6534" y="94.1859"/>
  <polygon fill="#006ca1" points="270.8248,140.3543 284.3248,113.3543 297.8248,140.3543" stroke-width="0" transform=" rotate(0, 284, 126)"/>
  <rect fill="#6dd6ff" height="15" stroke-width="0" transform=" rotate(0, 58, 157)" width="15" x="51.0742" y="150.0831"/>
  <polygon fill="#6dd6ff" points="83.5731,150.2834 91.0731,135.2834 98.5731,150.2834" stroke-width="0" transform=" rotate(0, 91, 142)"/>
  <ellipse cx="123.575" cy="148.2374" fill="#6dd6ff" rx="7.5" ry="7.5" stroke-width="0" transform=" rotate(0, 123, 148)"/>
  <rect fill="#6dd6ff" height="15" stroke-width="0" transform=" rotate(0, 144, 148)" width="15" x="137.0594" y="140.9817"/>
  <polygon fill="#6dd6ff" points="175.5125,151.0632 183.0125,136.0632 190.5125,151.0632" stroke-width="0" transform=" rotate(0, 183, 143)"/>
  <ellipse cx="219.1702" cy="141.9768" fill="#6dd6ff" rx="7.5" ry="7.5" stroke-width="0" transform=" rotate(0, 219, 141)"/>
  <rect fill="#6dd6ff" height="15" stroke-width="0" transform=" rotate(0, 229, 144)" width="15" x="222.4388" y="137.3596"/>
  <polygon fill="#6dd6ff" points="259.5117,155.9966 267.0117,140.9966 274.5117,155.9966" stroke-width="0" transform=" rotate(0, 267, 148)"/>
  <rect fill="#6dd6ff" height="15" stroke-width="0" transform=" rotate(0, 63, 178)" width="15" x="55.7401" y="171.322"/>
  <polygon fill="#6dd6ff" points="81.0971,182.8656 88.5971,167.8656 96.0971,182.8656" stroke-width="0" transform=" rotate(0, 88, 175)"/>
  <ellipse cx="129.1034" cy="185.3998" fill="#6dd6ff" rx="7.5" ry="7.5" stroke-width="0" transform=" rotate(0, 129, 185)"/>
  <rect fill="#6dd6ff" height="15" stroke-width="0" transform=" rotate(0, 153, 178)" width="15" x="146.1038" y="170.7766"/>
  <polygon fill="#6dd6ff" points="171.8684,198.6059 179.3684,183.6059 186.8684,198.6059" stroke-width="0" transform=" rotate(0, 179, 191)"/>
  <ellipse cx="218.5346" cy="182.9971" fill="#6dd6ff" rx="7.5" ry="7.5" stroke-width="0" transform=" rotate(0, 218, 182)"/>
  <rect fill="#6dd6ff" height="15" stroke-width="0" transform=" rotate(0, 242, 189)" width="15" x="235.2819" y="181.7384"/>
  <polygon fill="#6dd6ff" points="264.5427,180.9714 272.0427,165.9714 279.5427,180.9714" stroke-width="0" transform=" rotate(0, 272, 173)"/>
  <rect fill="#006ca1" height="27" stroke-width="0" transform=" rotate(0, 62, 206)" width="27" x="49.1941" y="192.6626"/>
  <polygon fill="#006ca1" points="80.4504,240.0425 93.9504,213.0425 107.4504,240.0425" stroke-width="0" transform=" rotate(0, 93, 226)"/>
  <ellipse cx="125.2013" cy="206.3217" fill="#006ca1" rx="13.5" ry="13.5" stroke-width="0" transform=" rotate(0, 125, 206)"/>
  <rect fill="#006ca1" height="27" stroke-width="0" transform=" rotate(0, 167, 196)" width="27" x="154.0514" y="182.932"/>
  <polygon fill="#006ca1" points="159.8557,219.7224 173.3557,192.7224 186.8557,219.7224" stroke-width="0" transform=" rotate(0, 173, 206)"/>
  <ellipse cx="226.0073" cy="216.9735" fill="#006ca1" rx="13.5" ry="13.5" stroke-width="0" transform=" rotate(0, 226, 216)"/>
  <rect fill="#006ca1" height="27" stroke-width="0" transform=" rotate(0, 234, 207)" width="27" x="221.1826" y="193.6517"/>
  <polygon fill="#006ca1" points="247.0363,241.2918 260.5363,214.2918 274.0363,241.2918" stroke-width="0" transform=" rotate(0, 260, 227)"/>
  <rect fill="#1b9fd8" height="21" stroke-width="0" transform=" rotate(0, 46, 232)" width="21" x="36.3075" y="221.8506"/>
  <polygon fill="#1b9fd8" points="91.9029,244.2166 102.4029,223.2166 112.9029,244.2166" stroke-width="0" transform=" rotate(0, 102, 233)"/>
  <ellipse cx="108.6898" cy="255.1336" fill="#1b9fd8" rx="10.5" ry="10.5" stroke-width="0" transform=" rotate(0, 108, 255)"/>
  <rect fill="#1b9fd8" height="21" stroke-width="0" transform=" rotate(0, 146, 234)" width="21" x="135.5379" y="223.9334"/>
  <polygon fill="#1b9fd8" points="180.8248,260.9973 191.3248,239.9973 201.8248,260.9973" stroke-width="0" transform=" rotate(0, 191, 250)"/>
  <ellipse cx="216.568" cy="229.2809" fill="#1b9fd8" rx="10.5" ry="10.5" stroke-width="0" transform=" rotate(0, 216, 229)"/>
  <rect fill="#1b9fd8" height="21" stroke-width="0" transform=" rotate(0, 232, 229)" width="21" x="221.8424" y="219.2281"/>
  <polygon fill="#1b9fd8" points="254.7681,245.8611 265.2681,224.8611 275.7681,245.8611" stroke-width="0" transform=" rotate(0, 265, 235)"/>
  <rect fill="#6dd6ff" height="15" stroke-width="0" transform=" rotate(0, 58, 279)" width="15" x="50.5934" y="271.6574"/>
  <polygon fill="#6dd6ff" points="77.8583,287.149 85.3583,272.149 92.8583,287.149" stroke-width="0" transform=" rotate(0, 85, 279)"/>
  <ellipse cx="117.2845" cy="279.0629" fill="#6dd6ff" rx="7.5" ry="7.5" stroke-width="0" transform=" rotate(0, 117, 279)"/>
  <rect fill="#6dd6ff" height="15" stroke-width="0" transform=" rotate(0, 144, 279)" width="15" x="136.8928" y="272.0468"/>
  <polygon fill="#6dd6ff" points="163.0852,270.0018 170.5852,255.0018 178.0852,270.0018" stroke-width="0" transform=" rotate(0, 170, 262)"/>
  <ellipse cx="217.2718" cy="268.5884" fill="#6dd6ff" rx="7.5" ry="7.5" stroke-width="0" transform=" rotate(0, 217, 268)"/>
  <rect fill="#6dd6ff" height="15" stroke-width="0" transform=" rotate(0, 229, 275)" width="15" x="221.9643" y="267.5224"/>
  <polygon fill="#6dd6ff" points="265.2217,284.4821 272.7217,269.4821 280.2217,284.4821" stroke-width="0" transform=" rotate(0, 272, 276)"/>
</svg>
