<?xml version="1.0" encoding="utf-8" ?>
<svg baseProfile="tiny" height="330" version="1.2" width="330" xmlns="http://www.w3.org/2000/svg" xmlns:ev="http://www.w3.org/2001/xml-events" xmlns:xlink="http://www.w3.org/1999/xlink">
  <defs/>
  <rect fill="white" height="330" width="330" x="0" y="0"/>
  <rect fill="#6dd6ff" height="10" stroke-width="0" transform=" rotate(0, 44, 46)" width="10" x="39.0307" y="41.8115"/>
  <polygon fill="#6dd6ff" points="68.6463,48.0184 73.6463,38.0184 78.6463,48.0184" stroke-width="0" transform=" rotate(0, 73, 43)"/>
  <ellipse cx="101.1629" cy="40.7456" fill="#6dd6ff" rx="5.0" ry="5.0" stroke-width="0" transform=" rotate(0, 101, 40)"/>
  <rect fill="#6dd6ff" height="10" stroke-width="0" transform=" rotate(0, 103, 58)" width="10" x="98.0451" y="53.6899"/>
  <polygon fill="#6dd6ff" points="141.1191,46.9605 146.1191,36.9605 151.1191,46.9605" stroke-width="0" transform=" rotate(0, 146, 41)"/>
  <ellipse cx="161.1534" cy="45.9808" fill="#6dd6ff" rx="5.0" ry="5.0" stroke-width="0" transform=" rotate(0, 161, 45)"/>
  <rect fill="#6dd6ff" height="10" stroke-width="0" transform=" rotate(0, 175, 60)" width="10" x="170.573" y="55.925"/>
  <polygon fill="#6dd6ff" points="178.2655,64.2677 183.2655,54.2677 188.2655,64.2677" stroke-width="0" transform=" rotate(0, 183, 59)"/>
  <ellipse cx="224.6689" cy="59.0327" fill="#6dd6ff" rx="5.0" ry="5.0" stroke-width="0" transform=" rotate(0, 224, 59)"/>
  <rect fill="#6dd6ff" height="10" stroke-width="0" transform=" rotate(0, 231, 67)" width="10" x="226.9142" y="62.1873"/>
  <polygon fill="#6dd6ff" points="241.4789,63.4565 246.4789,53.4565 251.4789,63.4565" stroke-width="0" transform=" rotate(0, 246, 58)"/>
  <ellipse cx="277.8794" cy="60.3489" fill="#6dd6ff" rx="5.0" ry="5.0" stroke-width="0" transform=" rotate(0, 277, 60)"/>
  <rect fill="#1b9fd8" height="14" stroke-width="0" transform=" rotate(0, 68, 72)" width="14" x="61.0094" y="65.0969"/>
  <polygon fill="#1b9fd8" points="58.6002,89.3285 65.6002,75.3285 72.6002,89.3285" stroke-width="0" transform=" rotate(0, 65, 82)"/>
  <ellipse cx="97.0222" cy="69.0614" fill="#1b9fd8" rx="7.0" ry="7.0" stroke-width="0" transform=" rotate(0, 97, 69)"/>
  <rect fill="#1b9fd8" height="14" stroke-width="0" transform=" rotate(0, 120, 87)" width="14" x="113.491" y="80.0103"/>
  <polygon fill="#1b9fd8" points="118.26,81.8831 125.26,67.8831 132.26,81.8831" stroke-width="0" transform=" rotate(0, 125, 74)"/>
  <ellipse cx="155.6413" cy="69.1655" fill="#1b9fd8" rx="7.0" ry="7.0" stroke-width="0" transform=" rotate(0, 155, 69)"/>
  <rect fill="#1b9fd8" height="14" stroke-width="0" transform=" rotate(0, 180, 86)" width="14" x="173.0947" y="79.0955"/>
  <polygon fill="#1b9fd8" points="187.2504,93.6752 194.2504,79.6752 201.2504,93.6752" stroke-width="0" transform=" rotate(0, 194, 86)"/>
  <ellipse cx="205.6238" cy="85.851" fill="#1b9fd8" rx="7.0" ry="7.0" stroke-width="0" transform=" rotate(0, 205, 85)"/>
  <rect fill="#1b9fd8" height="14" stroke-width="0" transform=" rotate(0, 239, 64)" width="14" x="232.597" y="57.882"/>
  <polygon fill="#1b9fd8" points="246.3993,79.0768 253.3993,65.0768 260.3993,79.0768" stroke-width="0" transform=" rotate(0, 253, 72)"/>
  <ellipse cx="286.1188" cy="81.5025" fill="#1b9fd8" rx="7.0" ry="7.0" stroke-width="0" transform=" rotate(0, 286, 81)"/>
  <rect fill="#006ca1" height="18" stroke-width="0" transform=" rotate(0, 54, 98)" width="18" x="45.0096" y="89.455"/>
  <polygon fill="#006ca1" points="68.3415,103.237 77.3415,85.237 86.3415,103.237" stroke-width="0" transform=" rotate(0, 77, 94)"/>
  <ellipse cx="100.6773" cy="105.6037" fill="#006ca1" rx="9.0" ry="9.0" stroke-width="0" transform=" rotate(0, 100, 105)"/>
  <rect fill="#006ca1" height="18" stroke-width="0" transform=" rotate(0, 108, 86)" width="18" x="99.6566" y="77.0793"/>
  <polygon fill="#006ca1" points="130.9273,99.9754 139.9273,81.9754 148.9273,99.9754" stroke-width="0" transform=" rotate(0, 139, 90)"/>
  <ellipse cx="168.1376" cy="104.1965" fill="#006ca1" rx="9.0" ry="9.0" stroke-width="0" transform=" rotate(0, 168, 104)"/>
  <rect fill="#006ca1" height="18" stroke-width="0" transform=" rotate(0, 162, 99)" width="18" x="153.4958" y="90.831"/>
  <polygon fill="#006ca1" points="182.9262,116.6444 191.9262,98.6444 200.9262,116.6444" stroke-width="0" transform=" rotate(0, 191, 107)"/>
  <ellipse cx="220.2308" cy="97.3975" fill="#006ca1" rx="9.0" ry="9.0" stroke-width="0" transform=" rotate(0, 220, 97)"/>
  <rect fill="#006ca1" height="18" stroke-width="0" transform=" rotate(0, 234, 96)" width="18" x="225.0402" y="87.7719"/>
  <polygon fill="#006ca1" points="259.0485,102.5517 268.0485,84.5517 277.0485,102.5517" stroke-width="0" transform=" rotate(0, 268, 93)"/>
  <ellipse cx="280.7158" cy="101.9392" fill="#006ca1" rx="9.0" ry="9.0" stroke-width="0" transform=" rotate(0, 280, 101)"/>
  <rect fill="#6dd6ff" height="10" stroke-width="0" transform=" rotate(0, 55, 100)" width="10" x="50.0686" y="95.9111"/>
  <polygon fill="#6dd6ff" points="82.2902,110.8009 87.2902,100.8009 92.2902,110.8009" stroke-width="0" transform=" rotate(0, 87, 105)"/>
  <ellipse cx="99.62" cy="106.9439" fill="#6dd6ff" rx="5.0" ry="5.0" stroke-width="0" transform=" rotate(0, 99, 106)"/>
  <rect fill="#6dd6ff" height="10" stroke-width="0" transform=" rotate(0, 118, 115)" width="10" x="113.6343" y="110.0726"/>
  <polygon fill="#6dd6ff" points="132.5035,132.8911 137.5035,122.8911 142.5035,132.8911" stroke-width="0" transform=" rotate(0, 137, 127)"/>
  <ellipse cx="158.4341" cy="110.8915" fill="#6dd6ff" rx="5.0" ry="5.0" stroke-width="0" transform=" rotate(0, 158, 110)"/>
  <rect fill="#6dd6ff" height="10" stroke-width="0" transform=" rotate(0, 179, 121)" width="10" x="174.3607" y="116.4194"/>
  <polygon fill="#6dd6ff" points="203.5089,121.5437 208.5089,111.5437 213.5089,121.5437" stroke-width="0" transform=" rotate(0, 208, 116)"/>
  <ellipse cx="210.5861" cy="127.0792" fill="#6dd6ff" rx="5.0" ry="5.0" stroke-width="0" transform=" rotate(0, 210, 127)"/>
  <rect fill="#6dd6ff" height="10" stroke-width="0" transform=" rotate(0, 247, 120)" width="10" x="242.3651" y="115.7351"/>
  <polygon fill="#6dd6ff" points="246.569,132.2314 251.569,122.2314 256.569,132.2314" stroke-width="0" transform=" rotate(0, 251, 127)"/>
  <ellipse cx="268.4977" cy="127.5386" fill="#6dd6ff" rx="5.0" ry="5.0" stroke-width="0" transform=" rotate(0, 268, 127)"/>
  <rect fill="#1b9fd8" height="14" stroke-width="0" transform=" rotate(0, 43, 131)" width="14" x="36.0874" y="124.2699"/>
  <polygon fill="#1b9fd8" points="80.464,147.621 87.464,133.621 94.464,147.621" stroke-width="0" transform=" rotate(0, 87, 140)"/>
  <ellipse cx="84.8801" cy="135.0825" fill="#1b9fd8" rx="7.0" ry="7.0" stroke-width="0" transform=" rotate(0, 84, 135)"/>
  <rect fill="#1b9fd8" height="14" stroke-width="0" transform=" rotate(0, 111, 135)" width="14" x="104.8783" y="128.6197"/>
  <polygon fill="#1b9fd8" points="139.4373,155.1094 146.4373,141.1094 153.4373,155.1094" stroke-width="0" transform=" rotate(0, 146, 148)"/>
  <ellipse cx="161.907" cy="136.3512" fill="#1b9fd8" rx="7.0" ry="7.0" stroke-width="0" transform=" rotate(0, 161, 136)"/>
  <rect fill="#1b9fd8" height="14" stroke-width="0" transform=" rotate(0, 168, 142)" width="14" x="161.3587" y="135.1776"/>
  <polygon fill="#1b9fd8" points="184.1452,140.8805 191.1452,126.8805 198.1452,140.8805" stroke-width="0" transform=" rotate(0, 191, 133)"/>
  <ellipse cx="213.3685" cy="136.8532" fill="#1b9fd8" rx="7.0" ry="7.0" stroke-width="0" transform=" rotate(0, 213, 136)"/>
  <rect fill="#1b9fd8" height="14" stroke-width="0" transform=" rotate(0, 229, 130)" width="14" x="222.7218" y="123.3927"/>
  <polygon fill="#1b9fd8" points="245.2901,141.2547 252.2901,127.2547 259.2901,141.2547" stroke-width="0" transform=" rotate(0, 252, 134)"/>
  <ellipse cx="268.4344" cy="126.3776" fill="#1b9fd8" rx="7.0" ry="7.0" stroke-width="0" transform=" rotate(0, 268, 126)"/>
  <rect fill="#006ca1" height="18" stroke-width="0" transform=" rotate(0, 43, 151)" width="18" x="34.3577" y="142.9714"/>
  <polygon fill="#006ca1" points="76.6064,170.2106 85.6064,152.2106 94.6064,170.2106" stroke-width="0" transform=" rotate(0, 85, 161)"/>
  <ellipse cx="81.8631" cy="162.2383" fill="#006ca1" rx="9.0" ry="9.0" stroke-width="0" transform=" rotate(0, 81, 162)"/>
  <rect fill="#006ca1" height="18" stroke-width="0" transform=" rotate(0, 119, 145)" width="18" x="110.5396" y="136.0852"/>
  <polygon fill="#006ca1" points="114.7709,158.3114 123.7709,140.3114 132.7709,158.3114" stroke-width="0" transform=" rotate(0, 123, 149)"/>
  <ellipse cx="153.2646" cy="158.7109" fill="#006ca1" rx="9.0" ry="9.0" stroke-width="0" transform=" rotate(0, 153, 158)"/>
  <rect fill="#006ca1" height="18" stroke-width="0" transform=" rotate(0, 163, 166)" width="18" x="154.3892" y="157.9923"/>
  <polygon fill="#006ca1" points="194.4289,155.4357 203.4289,137.4357 212.4289,155.4357" stroke-width="0" transform=" rotate(0, 203, 146)"/>
  <ellipse cx="216.7808" cy="165.2575" fill="#006ca1" rx="9.0" ry="9.0" stroke-width="0" transform=" rotate(0, 216, 165)"/>
  <rect fill="#006ca1" height="18" stroke-width="0" transform=" rotate(0, 230, 149)" width="18" x="221.8334" y="140.2969"/>
  <polygon fill="#006ca1" points="256.6367,166.4128 265.6367,148.4128 274.6367,166.4128" stroke-width="0" transform=" rotate(0, 265, 157)"/>
  <ellipse cx="271.7218" cy="144.5967" fill="#006ca1" rx="9.0" ry="9.0" stroke-width="0" transform=" rotate(0, 271, 144)"/>
  <rect fill="#006ca1" height="18" stroke-width="0" transform=" rotate(0, 46, 164)" width="18" x="37.2867" y="155.179"/>
  <polygon fill="#006ca1" points="65.5601,185.0649 74.5601,167.0649 83.5601,185.0649" stroke-width="0" transform=" rotate(0, 74, 176)"/>
  <ellipse cx="99.1868" cy="183.301" fill="#006ca1" rx="9.0" ry="9.0" stroke-width="0" transform=" rotate(0, 99, 183)"/>
  <rect fill="#006ca1" height="18" stroke-width="0" transform=" rotate(0, 105, 176)" width="18" x="96.9279" y="167.1689"/>
  <polygon fill="#006ca1" points="122.947,176.0669 131.947,158.0669 140.947,176.0669" stroke-width="0" transform=" rotate(0, 131, 167)"/>
  <ellipse cx="146.1706" cy="169.5685" fill="#006ca1" rx="9.0" ry="9.0" stroke-width="0" transform=" rotate(0, 146, 169)"/>
  <rect fill="#006ca1" height="18" stroke-width="0" transform=" rotate(0, 165, 167)" width="18" x="156.6761" y="158.3645"/>
  <polygon fill="#006ca1" points="189.3142,180.8865 198.3142,162.8865 207.3142,180.8865" stroke-width="0" transform=" rotate(0, 198, 171)"/>
  <ellipse cx="220.7123" cy="186.3044" fill="#006ca1" rx="9.0" ry="9.0" stroke-width="0" transform=" rotate(0, 220, 186)"/>
  <rect fill="#006ca1" height="18" stroke-width="0" transform=" rotate(0, 221, 171)" width="18" x="212.3586" y="162.6386"/>
  <polygon fill="#006ca1" points="239.0942,186.6834 248.0942,168.6834 257.0942,186.6834" stroke-width="0" transform=" rotate(0, 248, 177)"/>
  <ellipse cx="264.0535" cy="172.7351" fill="#006ca1" rx="9.0" ry="9.0" stroke-width="0" transform=" rotate(0, 264, 172)"/>
  <rect fill="#1b9fd8" height="14" stroke-width="0" transform=" rotate(0, 63, 189)" width="14" x="56.0397" y="182.1852"/>
  <polygon fill="#1b9fd8" points="81.8941,187.5031 88.8941,173.5031 95.8941,187.5031" stroke-width="0" transform=" rotate(0, 88, 180)"/>
  <ellipse cx="84.9605" cy="191.857" fill="#1b9fd8" rx="7.0" ry="7.0" stroke-width="0" transform=" rotate(0, 84, 191)"/>
  <rect fill="#1b9fd8" height="14" stroke-width="0" transform=" rotate(0, 119, 202)" width="14" x="112.1593" y="195.8212"/>
  <polygon fill="#1b9fd8" points="136.4551,188.9233 143.4551,174.9233 150.4551,188.9233" stroke-width="0" transform=" rotate(0, 143, 181)"/>
  <ellipse cx="143.7222" cy="206.3799" fill="#1b9fd8" rx="7.0" ry="7.0" stroke-width="0" transform=" rotate(0, 143, 206)"/>
  <rect fill="#1b9fd8" height="14" stroke-width="0" transform=" rotate(0, 170, 193)" width="14" x="163.9942" y="186.1932"/>
  <polygon fill="#1b9fd8" points="184.3199,205.507 191.3199,191.507 198.3199,205.507" stroke-width="0" transform=" rotate(0, 191, 198)"/>
  <ellipse cx="204.7619" cy="196.2391" fill="#1b9fd8" rx="7.0" ry="7.0" stroke-width="0" transform=" rotate(0, 204, 196)"/>
  <rect fill="#1b9fd8" height="14" stroke-width="0" transform=" rotate(0, 222, 192)" width="14" x="215.6468" y="185.7419"/>
  <polygon fill="#1b9fd8" points="239.4905,211.7909 246.4905,197.7909 253.4905,211.7909" stroke-width="0" transform=" rotate(0, 246, 204)"/>
  <ellipse cx="271.3398" cy="181.817" fill="#1b9fd8" rx="7.0" ry="7.0" stroke-width="0" transform=" rotate(0, 271, 181)"/>
  <rect fill="#6dd6ff" height="10" stroke-width="0" transform=" rotate(0, 51, 227)" width="10" x="46.7736" y="222.9258"/>
  <polygon fill="#6dd6ff" points="62.1651,218.4231 67.1651,208.4231 72.1651,218.4231" stroke-width="0" transform=" rotate(0, 67, 213)"/>
  <ellipse cx="100.5441" cy="211.1971" fill="#6dd6ff" rx="5.0" ry="5.0" stroke-width="0" transform=" rotate(0, 100, 211)"/>
  <rect fill="#6dd6ff" height="10" stroke-width="0" transform=" rotate(0, 111, 207)" width="10" x="106.0465" y="202.4121"/>
  <polygon fill="#6dd6ff" points="143.1522,229.7759 148.1522,219.7759 153.1522,229.7759" stroke-width="0" transform=" rotate(0, 148, 224)"/>
  <ellipse cx="157.3405" cy="206.5013" fill="#6dd6ff" rx="5.0" ry="5.0" stroke-width="0" transform=" rotate(0, 157, 206)"/>
  <rect fill="#6dd6ff" height="10" stroke-width="0" transform=" rotate(0, 185, 216)" width="10" x="180.6622" y="211.2234"/>
  <polygon fill="#6dd6ff" points="179.6395,227.1771 184.6395,217.1771 189.6395,227.1771" stroke-width="0" transform=" rotate(0, 184, 222)"/>
  <ellipse cx="211.2396" cy="223.4331" fill="#6dd6ff" rx="5.0" ry="5.0" stroke-width="0" transform=" rotate(0, 211, 223)"/>
  <rect fill="#6dd6ff" height="10" stroke-width="0" transform=" rotate(0, 246, 212)" width="10" x="241.3358" y="207.4182"/>
  <polygon fill="#6dd6ff" points="246.3574,225.3616 251.3574,215.3616 256.3574,225.3616" stroke-width="0" transform=" rotate(0, 251, 220)"/>
  <ellipse cx="264.0317" cy="209.7599" fill="#6dd6ff" rx="5.0" ry="5.0" stroke-width="0" transform=" rotate(0, 264, 209)"/>
  <rect fill="#006ca1" height="18" stroke-width="0" transform=" rotate(0, 51, 227)" width="18" x="42.2839" y="218.0069"/>
  <polygon fill="#006ca1" points="70.2476,238.9569 79.2476,220.9569 88.2476,238.9569" stroke-width="0" transform=" rotate(0, 79, 229)"/>
  <ellipse cx="91.9722" cy="225.0931" fill="#006ca1" rx="9.0" ry="9.0" stroke-width="0" transform=" rotate(0, 91, 225)"/>
  <rect fill="#006ca1" height="18" stroke-width="0" transform=" rotate(0, 127, 224)" width="18" x="118.2612" y="215.2751"/>
  <polygon fill="#006ca1" points="117.5335,240.467 126.5335,222.467 135.5335,240.467" stroke-width="0" transform=" rotate(0, 126, 231)"/>
  <ellipse cx="147.8344" cy="246.0646" fill="#006ca1" rx="9.0" ry="9.0" stroke-width="0" transform=" rotate(0, 147, 246)"/>
  <rect fill="#006ca1" height="18" stroke-width="0" transform=" rotate(0, 188, 225)" width="18" x="179.2316" y="216.5351"/>
  <polygon fill="#006ca1" points="179.5171,252.5056 188.5171,234.5056 197.5171,252.5056" stroke-width="0" transform=" rotate(0, 188, 243)"/>
  <ellipse cx="223.8161" cy="233.4644" fill="#006ca1" rx="9.0" ry="9.0" stroke-width="0" transform=" rotate(0, 223, 233)"/>
  <rect fill="#006ca1" height="18" stroke-width="0" transform=" rotate(0, 223, 227)" width="18" x="214.6099" y="218.0864"/>
  <polygon fill="#006ca1" points="235.0358,248.4609 244.0358,230.4609 253.0358,248.4609" stroke-width="0" transform=" rotate(0, 244, 239)"/>
  <ellipse cx="269.4006" cy="245.2165" fill="#006ca1" rx="9.0" ry="9.0" stroke-width="0" transform=" rotate(0, 269, 245)"/>
  <rect fill="#1b9fd8" height="14" stroke-width="0" transform=" rotate(0, 65, 258)" width="14" x="58.5541" y="251.1739"/>
  <polygon fill="#1b9fd8" points="79.2097,257.4699 86.2097,243.4699 93.2097,257.4699" stroke-width="0" transform=" rotate(0, 86, 250)"/>
  <ellipse cx="105.4282" cy="242.0173" fill="#1b9fd8" rx="7.0" ry="7.0" stroke-width="0" transform=" rotate(0, 105, 242)"/>
  <rect fill="#1b9fd8" height="14" stroke-width="0" transform=" rotate(0, 126, 255)" width="14" x="119.0734" y="248.689"/>
  <polygon fill="#1b9fd8" points="116.3468,250.2101 123.3468,236.2101 130.3468,250.2101" stroke-width="0" transform=" rotate(0, 123, 243)"/>
  <ellipse cx="151.4623" cy="257.0729" fill="#1b9fd8" rx="7.0" ry="7.0" stroke-width="0" transform=" rotate(0, 151, 257)"/>
  <rect fill="#1b9fd8" height="14" stroke-width="0" transform=" rotate(0, 180, 260)" width="14" x="173.0409" y="253.9391"/>
  <polygon fill="#1b9fd8" points="195.6538,258.8312 202.6538,244.8312 209.6538,258.8312" stroke-width="0" transform=" rotate(0, 202, 251)"/>
  <ellipse cx="222.1886" cy="262.8147" fill="#1b9fd8" rx="7.0" ry="7.0" stroke-width="0" transform=" rotate(0, 222, 262)"/>
  <rect fill="#1b9fd8" height="14" stroke-width="0" transform=" rotate(0, 233, 249)" width="14" x="226.6396" y="242.8968"/>
  <polygon fill="#1b9fd8" points="254.7136,248.5564 261.7136,234.5564 268.7136,248.5564" stroke-width="0" transform=" rotate(0, 261, 241)"/>
  <ellipse cx="281.7467" cy="241.3158" fill="#1b9fd8" rx="7.0" ry="7.0" stroke-width="0" transform=" rotate(0, 281, 241)"/>
  <rect fill="#6dd6ff" height="10" stroke-width="0" transform=" rotate(0, 66, 284)" width="10" x="61.9501" y="279.5898"/>
  <polygon fill="#6dd6ff" points="56.7751,284.9716 61.7751,274.9716 66.7751,284.9716" stroke-width="0" transform=" rotate(0, 61, 279)"/>
  <ellipse cx="102.6015" cy="261.1625" fill="#6dd6ff" rx="5.0" ry="5.0" stroke-width="0" transform=" rotate(0, 102, 261)"/>
  <rect fill="#6dd6ff" height="10" stroke-width="0" transform=" rotate(0, 121, 277)" width="10" x="116.2049" y="272.9561"/>
  <polygon fill="#6dd6ff" points="133.9993,289.5101 138.9993,279.5101 143.9993,289.5101" stroke-width="0" transform=" rotate(0, 138, 284)"/>
  <ellipse cx="157.6565" cy="266.7554" fill="#6dd6ff" rx="5.0" ry="5.0" stroke-width="0" transform=" rotate(0, 157, 266)"/>
  <rect fill="#6dd6ff" height="10" stroke-width="0" transform=" rotate(0, 167, 269)" width="10" x="162.1303" y="264.7897"/>
  <polygon fill="#6dd6ff" points="198.9188,275.9137 203.9188,265.9137 208.9188,275.9137" stroke-width="0" transform=" rotate(0, 203, 270)"/>
  <ellipse cx="221.9496" cy="263.1122" fill="#6dd6ff" rx="5.0" ry="5.0" stroke-width="0" transform=" rotate(0, 221, 263)"/>
  <rect fill="#6dd6ff" height="10" stroke-width="0" transform=" rotate(0, 226, 287)" width="10" x="221.1682" y="282.8846"/>
  <polygon fill="#6dd6ff" points="238.9591,293.0707 243.9591,283.0707 248.9591,293.0707" stroke-width="0" transform=" rotate(0, 243, 288)"/>
  <ellipse cx="286.6676" cy="264.3303" fill="#6dd6ff" rx="5.0" ry="5.0" stroke-width="0" transform=" rotate(0, 286, 264)"/>
</svg>
