<?xml version="1.0" encoding="utf-8" ?>
<svg baseProfile="tiny" height="330" version="1.2" width="330" xmlns="http://www.w3.org/2000/svg" xmlns:ev="http://www.w3.org/2001/xml-events" xmlns:xlink="http://www.w3.org/1999/xlink">
  <defs/>
  <rect fill="white" height="330" width="330" x="0" y="0"/>
  <rect fill="#6dd6ff" height="20" stroke-width="0" transform=" rotate(0, 52, 65)" width="20" x="42.9615" y="55.5953"/>
  <polygon fill="#6dd6ff" points="92.5771,87.8169 102.5771,67.8169 112.5771,87.8169" stroke-width="0" transform=" rotate(0, 102, 77)"/>
  <ellipse cx="150.0937" cy="70.1467" fill="#6dd6ff" rx="10.0" ry="10.0" stroke-width="0" transform=" rotate(0, 150, 70)"/>
  <rect fill="#6dd6ff" height="20" stroke-width="0" transform=" rotate(0, 171, 69)" width="20" x="161.9759" y="59.161"/>
  <polygon fill="#6dd6ff" points="225.0499,78.0303 235.0499,58.0303 245.0499,78.0303" stroke-width="0" transform=" rotate(0, 235, 68)"/>
  <ellipse cx="270.0843" cy="68.9609" fill="#6dd6ff" rx="10.0" ry="10.0" stroke-width="0" transform=" rotate(0, 270, 68)"/>
  <rect fill="#1b9fd8" height="28" stroke-width="0" transform=" rotate(0, 64, 111)" width="28" x="50.7313" y="97.63"/>
  <polygon fill="#1b9fd8" points="73.5009,138.4375 87.5009,110.4375 101.5009,138.4375" stroke-width="0" transform=" rotate(0, 87, 124)"/>
  <ellipse cx="157.4655" cy="99.3456" fill="#1b9fd8" rx="14.0" ry="14.0" stroke-width="0" transform=" rotate(0, 157, 99)"/>
  <rect fill="#1b9fd8" height="28" stroke-width="0" transform=" rotate(0, 179, 122)" width="28" x="165.609" y="108.8362"/>
  <polygon fill="#1b9fd8" points="197.9996,114.7217 211.9996,86.7217 225.9996,114.7217" stroke-width="0" transform=" rotate(0, 211, 100)"/>
  <ellipse cx="267.9603" cy="96.4218" fill="#1b9fd8" rx="14.0" ry="14.0" stroke-width="0" transform=" rotate(0, 267, 96)"/>
  <rect fill="#006ca1" height="36" stroke-width="0" transform=" rotate(0, 87, 124)" width="36" x="69.3443" y="106.0807"/>
  <polygon fill="#006ca1" points="69.0078,185.9585 87.0078,149.9585 105.0078,185.9585" stroke-width="0" transform=" rotate(0, 87, 167)"/>
  <ellipse cx="147.5674" cy="127.3076" fill="#006ca1" rx="18.0" ry="18.0" stroke-width="0" transform=" rotate(0, 147, 127)"/>
  <rect fill="#006ca1" height="36" stroke-width="0" transform=" rotate(0, 193, 139)" width="36" x="175.8113" y="121.9043"/>
  <polygon fill="#006ca1" points="188.3954,184.1104 206.3954,148.1104 224.3954,184.1104" stroke-width="0" transform=" rotate(0, 206, 166)"/>
  <ellipse cx="265.0818" cy="157.9559" fill="#006ca1" rx="18.0" ry="18.0" stroke-width="0" transform=" rotate(0, 265, 157)"/>
  <rect fill="#006ca1" height="36" stroke-width="0" transform=" rotate(0, 73, 173)" width="36" x="55.0978" y="155.5691"/>
  <polygon fill="#006ca1" points="84.5781,196.5846 102.5781,160.5846 120.5781,196.5846" stroke-width="0" transform=" rotate(0, 102, 178)"/>
  <ellipse cx="127.0502" cy="182.5866" fill="#006ca1" rx="18.0" ry="18.0" stroke-width="0" transform=" rotate(0, 127, 182)"/>
  <rect fill="#006ca1" height="36" stroke-width="0" transform=" rotate(0, 192, 176)" width="36" x="174.2019" y="158.0225"/>
  <polygon fill="#006ca1" points="203.0461,198.6455 221.0461,162.6455 239.0461,198.6455" stroke-width="0" transform=" rotate(0, 221, 180)"/>
  <ellipse cx="283.9412" cy="173.7052" fill="#006ca1" rx="18.0" ry="18.0" stroke-width="0" transform=" rotate(0, 283, 173)"/>
  <rect fill="#1b9fd8" height="28" stroke-width="0" transform=" rotate(0, 62, 209)" width="28" x="48.5426" y="195.2258"/>
  <polygon fill="#1b9fd8" points="93.2073,254.3741 107.2073,226.3741 121.2073,254.3741" stroke-width="0" transform=" rotate(0, 107, 240)"/>
  <ellipse cx="151.8774" cy="207.1333" fill="#1b9fd8" rx="14.0" ry="14.0" stroke-width="0" transform=" rotate(0, 151, 207)"/>
  <rect fill="#1b9fd8" height="28" stroke-width="0" transform=" rotate(0, 175, 231)" width="28" x="161.0484" y="217.8805"/>
  <polygon fill="#1b9fd8" points="216.8274,223.8044 230.8274,195.8044 244.8274,223.8044" stroke-width="0" transform=" rotate(0, 230, 209)"/>
  <ellipse cx="282.3218" cy="223.0954" fill="#1b9fd8" rx="14.0" ry="14.0" stroke-width="0" transform=" rotate(0, 282, 223)"/>
  <rect fill="#6dd6ff" height="20" stroke-width="0" transform=" rotate(0, 51, 253)" width="20" x="41.4266" y="243.916"/>
  <polygon fill="#6dd6ff" points="90.8571,283.9557 100.8571,263.9557 110.8571,283.9557" stroke-width="0" transform=" rotate(0, 100, 273)"/>
  <ellipse cx="149.1617" cy="267.3076" fill="#6dd6ff" rx="10.0" ry="10.0" stroke-width="0" transform=" rotate(0, 149, 267)"/>
  <rect fill="#6dd6ff" height="20" stroke-width="0" transform=" rotate(0, 182, 261)" width="20" x="172.9711" y="251.3602"/>
  <polygon fill="#6dd6ff" points="226.9794,286.1634 236.9794,266.1634 246.9794,286.1634" stroke-width="0" transform=" rotate(0, 236, 276)"/>
  <ellipse cx="269.6466" cy="262.2486" fill="#6dd6ff" rx="10.0" ry="10.0" stroke-width="0" transform=" rotate(0, 269, 262)"/>
</svg>
