<?xml version="1.0" encoding="utf-8" ?>
<svg baseProfile="tiny" height="330" version="1.2" width="330" xmlns="http://www.w3.org/2000/svg" xmlns:ev="http://www.w3.org/2001/xml-events" xmlns:xlink="http://www.w3.org/1999/xlink">
  <defs/>
  <rect fill="white" height="330" width="330" x="0" y="0"/>
  <rect fill="#6dd6ff" height="10" stroke-width="0" transform=" rotate(0, 52, 53)" width="10" x="47.7214" y="48.2154"/>
  <polygon fill="#6dd6ff" points="69.7818,57.4026 74.7818,47.4026 79.7818,57.4026" stroke-width="0" transform=" rotate(0, 74, 52)"/>
  <ellipse cx="96.3925" cy="51.9156" fill="#6dd6ff" rx="5.0" ry="5.0" stroke-width="0" transform=" rotate(0, 96, 51)"/>
  <rect fill="#6dd6ff" height="10" stroke-width="0" transform=" rotate(0, 112, 55)" width="10" x="107.5102" y="50.7608"/>
  <polygon fill="#6dd6ff" points="132.4546,57.1759 137.4546,47.1759 142.4546,57.1759" stroke-width="0" transform=" rotate(0, 137, 52)"/>
  <ellipse cx="156.3905" cy="53.0374" fill="#6dd6ff" rx="5.0" ry="5.0" stroke-width="0" transform=" rotate(0, 156, 53)"/>
  <rect fill="#6dd6ff" height="10" stroke-width="0" transform=" rotate(0, 175, 56)" width="10" x="170.1947" y="51.2397"/>
  <polygon fill="#6dd6ff" points="187.5574,60.8846 192.5574,50.8846 197.5574,60.8846" stroke-width="0" transform=" rotate(0, 192, 55)"/>
  <ellipse cx="217.1438" cy="55.8343" fill="#6dd6ff" rx="5.0" ry="5.0" stroke-width="0" transform=" rotate(0, 217, 55)"/>
  <rect fill="#6dd6ff" height="10" stroke-width="0" transform=" rotate(0, 234, 57)" width="10" x="229.4107" y="52.5817"/>
  <polygon fill="#6dd6ff" points="248.246,60.7108 253.246,50.7108 258.246,60.7108" stroke-width="0" transform=" rotate(0, 253, 55)"/>
  <ellipse cx="275.6889" cy="56.1163" fill="#6dd6ff" rx="5.0" ry="5.0" stroke-width="0" transform=" rotate(0, 275, 56)"/>
  <rect fill="#1b9fd8" height="14" stroke-width="0" transform=" rotate(0, 58, 74)" width="14" x="51.9744" y="67.1456"/>
  <polygon fill="#1b9fd8" points="65.2516,84.2151 72.2516,70.2151 79.2516,84.2151" stroke-width="0" transform=" rotate(0, 72, 77)"/>
  <ellipse cx="95.6782" cy="73.235" fill="#1b9fd8" rx="7.0" ry="7.0" stroke-width="0" transform=" rotate(0, 95, 73)"/>
  <rect fill="#1b9fd8" height="14" stroke-width="0" transform=" rotate(0, 116, 78)" width="14" x="109.7189" y="71.6197"/>
  <polygon fill="#1b9fd8" points="125.1496,81.9815 132.1496,67.9815 139.1496,81.9815" stroke-width="0" transform=" rotate(0, 132, 74)"/>
  <ellipse cx="155.264" cy="73.2662" fill="#1b9fd8" rx="7.0" ry="7.0" stroke-width="0" transform=" rotate(0, 155, 73)"/>
  <rect fill="#1b9fd8" height="14" stroke-width="0" transform=" rotate(0, 176, 78)" width="14" x="169.6" y="71.3452"/>
  <polygon fill="#1b9fd8" points="187.8467,85.5191 194.8467,71.5191 201.8467,85.5191" stroke-width="0" transform=" rotate(0, 194, 78)"/>
  <ellipse cx="212.2587" cy="78.2719" fill="#1b9fd8" rx="7.0" ry="7.0" stroke-width="0" transform=" rotate(0, 212, 78)"/>
  <rect fill="#1b9fd8" height="14" stroke-width="0" transform=" rotate(0, 236, 71)" width="14" x="229.4506" y="64.9812"/>
  <polygon fill="#1b9fd8" points="247.5913,81.1396 254.5913,67.1396 261.5913,81.1396" stroke-width="0" transform=" rotate(0, 254, 74)"/>
  <ellipse cx="278.4072" cy="76.9673" fill="#1b9fd8" rx="7.0" ry="7.0" stroke-width="0" transform=" rotate(0, 278, 76)"/>
  <rect fill="#006ca1" height="18" stroke-width="0" transform=" rotate(0, 54, 96)" width="18" x="45.6892" y="87.3957"/>
  <polygon fill="#006ca1" points="66.9743,103.7687 75.9743,85.7687 84.9743,103.7687" stroke-width="0" transform=" rotate(0, 75, 94)"/>
  <ellipse cx="97.261" cy="99.153" fill="#006ca1" rx="9.0" ry="9.0" stroke-width="0" transform=" rotate(0, 97, 99)"/>
  <rect fill="#006ca1" height="18" stroke-width="0" transform=" rotate(0, 112, 91)" width="18" x="103.6245" y="82.6222"/>
  <polygon fill="#006ca1" points="127.9717,102.5107 136.9717,84.5107 145.9717,102.5107" stroke-width="0" transform=" rotate(0, 136, 93)"/>
  <ellipse cx="160.1386" cy="98.6103" fill="#006ca1" rx="9.0" ry="9.0" stroke-width="0" transform=" rotate(0, 160, 98)"/>
  <rect fill="#006ca1" height="18" stroke-width="0" transform=" rotate(0, 170, 96)" width="18" x="161.2481" y="87.9264"/>
  <polygon fill="#006ca1" points="184.8856,108.9402 193.8856,90.9402 202.8856,108.9402" stroke-width="0" transform=" rotate(0, 193, 99)"/>
  <ellipse cx="217.0888" cy="95.9878" fill="#006ca1" rx="9.0" ry="9.0" stroke-width="0" transform=" rotate(0, 217, 95)"/>
  <rect fill="#006ca1" height="18" stroke-width="0" transform=" rotate(0, 234, 95)" width="18" x="225.701" y="86.7465"/>
  <polygon fill="#006ca1" points="251.1042,103.5044 260.1042,85.5044 269.1042,103.5044" stroke-width="0" transform=" rotate(0, 260, 94)"/>
  <ellipse cx="277.2758" cy="97.7396" fill="#006ca1" rx="9.0" ry="9.0" stroke-width="0" transform=" rotate(0, 277, 97)"/>
  <rect fill="#6dd6ff" height="10" stroke-width="0" transform=" rotate(0, 55, 111)" width="10" x="50.0866" y="106.951"/>
  <polygon fill="#6dd6ff" points="72.7055,117.9989 77.7055,107.9989 82.7055,117.9989" stroke-width="0" transform=" rotate(0, 77, 112)"/>
  <ellipse cx="96.0619" cy="113.2438" fill="#6dd6ff" rx="5.0" ry="5.0" stroke-width="0" transform=" rotate(0, 96, 113)"/>
  <rect fill="#6dd6ff" height="10" stroke-width="0" transform=" rotate(0, 115, 114)" width="10" x="110.8507" y="109.9856"/>
  <polygon fill="#6dd6ff" points="130.6084,122.7325 135.6084,112.7325 140.6084,122.7325" stroke-width="0" transform=" rotate(0, 135, 117)"/>
  <ellipse cx="155.8078" cy="114.0897" fill="#6dd6ff" rx="5.0" ry="5.0" stroke-width="0" transform=" rotate(0, 155, 114)"/>
  <rect fill="#6dd6ff" height="10" stroke-width="0" transform=" rotate(0, 176, 116)" width="10" x="171.0064" y="111.3457"/>
  <polygon fill="#6dd6ff" points="192.9667,120.3009 197.9667,110.3009 202.9667,120.3009" stroke-width="0" transform=" rotate(0, 197, 115)"/>
  <ellipse cx="214.1261" cy="117.5585" fill="#6dd6ff" rx="5.0" ry="5.0" stroke-width="0" transform=" rotate(0, 214, 117)"/>
  <rect fill="#6dd6ff" height="10" stroke-width="0" transform=" rotate(0, 237, 116)" width="10" x="232.7216" y="111.1991"/>
  <polygon fill="#6dd6ff" points="249.3367,122.5911 254.3367,112.5911 259.3367,122.5911" stroke-width="0" transform=" rotate(0, 254, 117)"/>
  <ellipse cx="273.6786" cy="117.657" fill="#6dd6ff" rx="5.0" ry="5.0" stroke-width="0" transform=" rotate(0, 273, 117)"/>
  <rect fill="#1b9fd8" height="14" stroke-width="0" transform=" rotate(0, 51, 133)" width="14" x="44.4978" y="126.8975"/>
  <polygon fill="#1b9fd8" points="71.8107,143.7029 78.8107,129.7029 85.8107,143.7029" stroke-width="0" transform=" rotate(0, 78, 136)"/>
  <ellipse cx="92.0356" cy="135.0413" fill="#1b9fd8" rx="7.0" ry="7.0" stroke-width="0" transform=" rotate(0, 92, 135)"/>
  <rect fill="#1b9fd8" height="14" stroke-width="0" transform=" rotate(0, 114, 135)" width="14" x="107.1351" y="128.2025"/>
  <polygon fill="#1b9fd8" points="131.5027,145.9494 138.5027,131.9494 145.5027,145.9494" stroke-width="0" transform=" rotate(0, 138, 138)"/>
  <ellipse cx="157.1437" cy="135.4219" fill="#1b9fd8" rx="7.0" ry="7.0" stroke-width="0" transform=" rotate(0, 157, 135)"/>
  <rect fill="#1b9fd8" height="14" stroke-width="0" transform=" rotate(0, 173, 137)" width="14" x="166.0792" y="130.1699"/>
  <polygon fill="#1b9fd8" points="186.9151,141.6807 193.9151,127.6807 200.9151,141.6807" stroke-width="0" transform=" rotate(0, 193, 134)"/>
  <ellipse cx="214.5821" cy="135.5725" fill="#1b9fd8" rx="7.0" ry="7.0" stroke-width="0" transform=" rotate(0, 214, 135)"/>
  <rect fill="#1b9fd8" height="14" stroke-width="0" transform=" rotate(0, 233, 133)" width="14" x="226.4881" y="126.6344"/>
  <polygon fill="#1b9fd8" points="247.2586,141.793 254.2586,127.793 261.2586,141.793" stroke-width="0" transform=" rotate(0, 254, 134)"/>
  <ellipse cx="273.1019" cy="132.4298" fill="#1b9fd8" rx="7.0" ry="7.0" stroke-width="0" transform=" rotate(0, 273, 132)"/>
  <rect fill="#006ca1" height="18" stroke-width="0" transform=" rotate(0, 50, 153)" width="18" x="41.5806" y="144.8949"/>
  <polygon fill="#006ca1" points="70.1622,166.4585 79.1622,148.4585 88.1622,166.4585" stroke-width="0" transform=" rotate(0, 79, 157)"/>
  <ellipse cx="90.0041" cy="157.855" fill="#006ca1" rx="9.0" ry="9.0" stroke-width="0" transform=" rotate(0, 90, 157)"/>
  <rect fill="#006ca1" height="18" stroke-width="0" transform=" rotate(0, 116, 151)" width="18" x="107.8222" y="142.2388"/>
  <polygon fill="#006ca1" points="121.74,161.8689 130.74,143.8689 139.74,161.8689" stroke-width="0" transform=" rotate(0, 130, 152)"/>
  <ellipse cx="154.4018" cy="156.4944" fill="#006ca1" rx="9.0" ry="9.0" stroke-width="0" transform=" rotate(0, 154, 156)"/>
  <rect fill="#006ca1" height="18" stroke-width="0" transform=" rotate(0, 170, 159)" width="18" x="161.5927" y="150.6887"/>
  <polygon fill="#006ca1" points="189.3223,160.7597 198.3223,142.7597 207.3223,160.7597" stroke-width="0" transform=" rotate(0, 198, 151)"/>
  <ellipse cx="215.7581" cy="159.0195" fill="#006ca1" rx="9.0" ry="9.0" stroke-width="0" transform=" rotate(0, 215, 159)"/>
  <rect fill="#006ca1" height="18" stroke-width="0" transform=" rotate(0, 233, 152)" width="18" x="224.4641" y="143.8633"/>
  <polygon fill="#006ca1" points="250.1739,164.9937 259.1739,146.9937 268.1739,164.9937" stroke-width="0" transform=" rotate(0, 259, 155)"/>
  <ellipse cx="273.8067" cy="151.0504" fill="#006ca1" rx="9.0" ry="9.0" stroke-width="0" transform=" rotate(0, 273, 151)"/>
  <rect fill="#006ca1" height="18" stroke-width="0" transform=" rotate(0, 51, 170)" width="18" x="42.7104" y="161.8892"/>
  <polygon fill="#006ca1" points="65.9015,184.4738 74.9015,166.4738 83.9015,184.4738" stroke-width="0" transform=" rotate(0, 74, 175)"/>
  <ellipse cx="96.6861" cy="178.2649" fill="#006ca1" rx="9.0" ry="9.0" stroke-width="0" transform=" rotate(0, 96, 178)"/>
  <rect fill="#006ca1" height="18" stroke-width="0" transform=" rotate(0, 111, 175)" width="18" x="102.5719" y="166.5139"/>
  <polygon fill="#006ca1" points="124.8936,181.0031 133.8936,163.0031 142.8936,181.0031" stroke-width="0" transform=" rotate(0, 133, 172)"/>
  <ellipse cx="151.6655" cy="172.9681" fill="#006ca1" rx="9.0" ry="9.0" stroke-width="0" transform=" rotate(0, 151, 172)"/>
  <rect fill="#006ca1" height="18" stroke-width="0" transform=" rotate(0, 171, 172)" width="18" x="162.4748" y="163.1179"/>
  <polygon fill="#006ca1" points="187.3495,182.8621 196.3495,164.8621 205.3495,182.8621" stroke-width="0" transform=" rotate(0, 196, 173)"/>
  <ellipse cx="217.2745" cy="179.4233" fill="#006ca1" rx="9.0" ry="9.0" stroke-width="0" transform=" rotate(0, 217, 179)"/>
  <rect fill="#006ca1" height="18" stroke-width="0" transform=" rotate(0, 229, 173)" width="18" x="220.8095" y="164.7665"/>
  <polygon fill="#006ca1" points="243.4075,185.0981 252.4075,167.0981 261.4075,185.0981" stroke-width="0" transform=" rotate(0, 252, 176)"/>
  <ellipse cx="270.849" cy="174.1895" fill="#006ca1" rx="9.0" ry="9.0" stroke-width="0" transform=" rotate(0, 270, 174)"/>
  <rect fill="#1b9fd8" height="14" stroke-width="0" transform=" rotate(0, 57, 193)" width="14" x="50.4835" y="186.2721"/>
  <polygon fill="#1b9fd8" points="72.2398,197.6675 79.2398,183.6675 86.2398,197.6675" stroke-width="0" transform=" rotate(0, 79, 190)"/>
  <ellipse cx="92.0597" cy="194.0737" fill="#1b9fd8" rx="7.0" ry="7.0" stroke-width="0" transform=" rotate(0, 92, 194)"/>
  <rect fill="#1b9fd8" height="14" stroke-width="0" transform=" rotate(0, 116, 197)" width="14" x="109.3194" y="190.3629"/>
  <polygon fill="#1b9fd8" points="130.6081,198.0936 137.6081,184.0936 144.6081,198.0936" stroke-width="0" transform=" rotate(0, 137, 191)"/>
  <ellipse cx="151.6882" cy="198.4305" fill="#1b9fd8" rx="7.0" ry="7.0" stroke-width="0" transform=" rotate(0, 151, 198)"/>
  <rect fill="#1b9fd8" height="14" stroke-width="0" transform=" rotate(0, 173, 194)" width="14" x="166.8698" y="187.4745"/>
  <polygon fill="#1b9fd8" points="186.9675,203.0687 193.9675,189.0687 200.9675,203.0687" stroke-width="0" transform=" rotate(0, 193, 196)"/>
  <ellipse cx="212.0001" cy="195.3883" fill="#1b9fd8" rx="7.0" ry="7.0" stroke-width="0" transform=" rotate(0, 212, 195)"/>
  <rect fill="#1b9fd8" height="14" stroke-width="0" transform=" rotate(0, 231, 194)" width="14" x="224.3656" y="187.3392"/>
  <polygon fill="#1b9fd8" points="245.5187,204.9539 252.5187,190.9539 259.5187,204.9539" stroke-width="0" transform=" rotate(0, 252, 197)"/>
  <ellipse cx="273.9735" cy="191.0617" fill="#1b9fd8" rx="7.0" ry="7.0" stroke-width="0" transform=" rotate(0, 273, 191)"/>
  <rect fill="#6dd6ff" height="10" stroke-width="0" transform=" rotate(0, 54, 217)" width="10" x="49.3806" y="212.7399"/>
  <polygon fill="#6dd6ff" points="68.393,219.6322 73.393,209.6322 78.393,219.6322" stroke-width="0" transform=" rotate(0, 73, 214)"/>
  <ellipse cx="96.26" cy="214.1552" fill="#6dd6ff" rx="5.0" ry="5.0" stroke-width="0" transform=" rotate(0, 96, 214)"/>
  <rect fill="#6dd6ff" height="10" stroke-width="0" transform=" rotate(0, 114, 213)" width="10" x="109.2247" y="208.3441"/>
  <polygon fill="#6dd6ff" points="132.8903,222.0649 137.8903,212.0649 142.8903,222.0649" stroke-width="0" transform=" rotate(0, 137, 217)"/>
  <ellipse cx="155.5735" cy="213.1489" fill="#6dd6ff" rx="5.0" ry="5.0" stroke-width="0" transform=" rotate(0, 155, 213)"/>
  <rect fill="#6dd6ff" height="10" stroke-width="0" transform=" rotate(0, 177, 215)" width="10" x="172.3567" y="210.2323"/>
  <polygon fill="#6dd6ff" points="187.8518,221.5081 192.8518,211.5081 197.8518,221.5081" stroke-width="0" transform=" rotate(0, 192, 216)"/>
  <ellipse cx="214.2661" cy="216.7772" fill="#6dd6ff" rx="5.0" ry="5.0" stroke-width="0" transform=" rotate(0, 214, 216)"/>
  <rect fill="#6dd6ff" height="10" stroke-width="0" transform=" rotate(0, 237, 214)" width="10" x="232.501" y="209.4169"/>
  <polygon fill="#6dd6ff" points="249.2914,221.119 254.2914,211.119 259.2914,221.119" stroke-width="0" transform=" rotate(0, 254, 216)"/>
  <ellipse cx="272.7216" cy="213.8472" fill="#6dd6ff" rx="5.0" ry="5.0" stroke-width="0" transform=" rotate(0, 272, 213)"/>
  <rect fill="#006ca1" height="18" stroke-width="0" transform=" rotate(0, 53, 231)" width="18" x="44.6378" y="222.98"/>
  <polygon fill="#006ca1" points="67.7096,242.1179 76.7096,224.1179 85.7096,242.1179" stroke-width="0" transform=" rotate(0, 76, 233)"/>
  <ellipse cx="93.9033" cy="231.2418" fill="#006ca1" rx="9.0" ry="9.0" stroke-width="0" transform=" rotate(0, 93, 231)"/>
  <rect fill="#006ca1" height="18" stroke-width="0" transform=" rotate(0, 119, 230)" width="18" x="110.8005" y="221.9263"/>
  <polygon fill="#006ca1" points="122.8055,242.7003 131.8055,224.7003 140.8055,242.7003" stroke-width="0" transform=" rotate(0, 131, 233)"/>
  <ellipse cx="152.3073" cy="239.3308" fill="#006ca1" rx="9.0" ry="9.0" stroke-width="0" transform=" rotate(0, 152, 239)"/>
  <rect fill="#006ca1" height="18" stroke-width="0" transform=" rotate(0, 180, 231)" width="18" x="171.1748" y="222.4123"/>
  <polygon fill="#006ca1" points="183.5707,247.3438 192.5707,229.3438 201.5707,247.3438" stroke-width="0" transform=" rotate(0, 192, 238)"/>
  <ellipse cx="218.4717" cy="234.4707" fill="#006ca1" rx="9.0" ry="9.0" stroke-width="0" transform=" rotate(0, 218, 234)"/>
  <rect fill="#006ca1" height="18" stroke-width="0" transform=" rotate(0, 230, 232)" width="18" x="221.6779" y="223.0107"/>
  <polygon fill="#006ca1" points="241.8421,245.7837 250.8421,227.7837 259.8421,245.7837" stroke-width="0" transform=" rotate(0, 250, 236)"/>
  <ellipse cx="272.9114" cy="239.0037" fill="#006ca1" rx="9.0" ry="9.0" stroke-width="0" transform=" rotate(0, 272, 239)"/>
  <rect fill="#1b9fd8" height="14" stroke-width="0" transform=" rotate(0, 58, 255)" width="14" x="51.2378" y="248.9688"/>
  <polygon fill="#1b9fd8" points="71.4345,260.6576 78.4345,246.6576 85.4345,260.6576" stroke-width="0" transform=" rotate(0, 78, 253)"/>
  <ellipse cx="98.2" cy="251.1218" fill="#1b9fd8" rx="7.0" ry="7.0" stroke-width="0" transform=" rotate(0, 98, 251)"/>
  <rect fill="#1b9fd8" height="14" stroke-width="0" transform=" rotate(0, 118, 255)" width="14" x="111.3936" y="248.2233"/>
  <polygon fill="#1b9fd8" points="124.5756,258.4796 131.5756,244.4796 138.5756,258.4796" stroke-width="0" transform=" rotate(0, 131, 251)"/>
  <ellipse cx="154.0102" cy="255.6384" fill="#1b9fd8" rx="7.0" ry="7.0" stroke-width="0" transform=" rotate(0, 154, 255)"/>
  <rect fill="#1b9fd8" height="14" stroke-width="0" transform=" rotate(0, 176, 256)" width="14" x="169.5838" y="249.7983"/>
  <polygon fill="#1b9fd8" points="190.3677,261.0659 197.3677,247.0659 204.3677,261.0659" stroke-width="0" transform=" rotate(0, 197, 254)"/>
  <ellipse cx="217.2281" cy="257.361" fill="#1b9fd8" rx="7.0" ry="7.0" stroke-width="0" transform=" rotate(0, 217, 257)"/>
  <rect fill="#1b9fd8" height="14" stroke-width="0" transform=" rotate(0, 234, 253)" width="14" x="227.6634" y="246.4856"/>
  <polygon fill="#1b9fd8" points="250.0856,257.9835 257.0856,243.9835 264.0856,257.9835" stroke-width="0" transform=" rotate(0, 257, 250)"/>
  <ellipse cx="277.0956" cy="250.9113" fill="#1b9fd8" rx="7.0" ry="7.0" stroke-width="0" transform=" rotate(0, 277, 250)"/>
  <rect fill="#6dd6ff" height="10" stroke-width="0" transform=" rotate(0, 57, 277)" width="10" x="52.6327" y="272.025"/>
  <polygon fill="#6dd6ff" points="67.238,281.0354 72.238,271.0354 77.238,281.0354" stroke-width="0" transform=" rotate(0, 72, 276)"/>
  <ellipse cx="96.7008" cy="272.0049" fill="#6dd6ff" rx="5.0" ry="5.0" stroke-width="0" transform=" rotate(0, 96, 272)"/>
  <rect fill="#6dd6ff" height="10" stroke-width="0" transform=" rotate(0, 116, 275)" width="10" x="111.4015" y="270.6035"/>
  <polygon fill="#6dd6ff" points="130.9289,282.008 135.9289,272.008 140.9289,282.008" stroke-width="0" transform=" rotate(0, 135, 277)"/>
  <ellipse cx="155.6412" cy="273.2034" fill="#6dd6ff" rx="5.0" ry="5.0" stroke-width="0" transform=" rotate(0, 155, 273)"/>
  <rect fill="#6dd6ff" height="10" stroke-width="0" transform=" rotate(0, 173, 273)" width="10" x="168.3856" y="268.8536"/>
  <polygon fill="#6dd6ff" points="191.9831,279.0945 196.9831,269.0945 201.9831,279.0945" stroke-width="0" transform=" rotate(0, 196, 274)"/>
  <ellipse cx="216.5611" cy="272.4227" fill="#6dd6ff" rx="5.0" ry="5.0" stroke-width="0" transform=" rotate(0, 216, 272)"/>
  <rect fill="#6dd6ff" height="10" stroke-width="0" transform=" rotate(0, 233, 277)" width="10" x="228.1794" y="272.7311"/>
  <polygon fill="#6dd6ff" points="247.706,282.771 252.706,272.771 257.706,282.771" stroke-width="0" transform=" rotate(0, 252, 277)"/>
  <ellipse cx="277.5721" cy="272.6837" fill="#6dd6ff" rx="5.0" ry="5.0" stroke-width="0" transform=" rotate(0, 277, 272)"/>
</svg>
