<?xml version="1.0" encoding="utf-8" ?>
<svg baseProfile="tiny" height="330" version="1.2" width="330" xmlns="http://www.w3.org/2000/svg" xmlns:ev="http://www.w3.org/2001/xml-events" xmlns:xlink="http://www.w3.org/1999/xlink">
  <defs/>
  <rect fill="white" height="330" width="330" x="0" y="0"/>
  <rect fill="#6dd6ff" height="5" stroke-width="0" transform=" rotate(0, 46, 52)" width="5" x="44.3417" y="49.5972"/>
  <polygon fill="#6dd6ff" points="57.089,52.1082 59.589,47.1082 62.089,52.1082" stroke-width="0" transform=" rotate(0, 59, 49)"/>
  <ellipse cx="71.7366" cy="49.1692" fill="#6dd6ff" rx="2.5" ry="2.5" stroke-width="0" transform=" rotate(0, 71, 49)"/>
  <rect fill="#6dd6ff" height="5" stroke-width="0" transform=" rotate(0, 76, 53)" width="5" x="74.0601" y="50.843"/>
  <polygon fill="#6dd6ff" points="90.6526,55.1223 93.1526,50.1223 95.6526,55.1223" stroke-width="0" transform=" rotate(0, 93, 52)"/>
  <ellipse cx="101.7339" cy="45.9203" fill="#6dd6ff" rx="2.5" ry="2.5" stroke-width="0" transform=" rotate(0, 101, 45)"/>
  <rect fill="#6dd6ff" height="5" stroke-width="0" transform=" rotate(0, 110, 52)" width="5" x="107.6395" y="50.2194"/>
  <polygon fill="#6dd6ff" points="114.123,56.0317 116.623,51.0317 119.123,56.0317" stroke-width="0" transform=" rotate(0, 116, 53)"/>
  <ellipse cx="132.7383" cy="52.6868" fill="#6dd6ff" rx="2.5" ry="2.5" stroke-width="0" transform=" rotate(0, 132, 52)"/>
  <rect fill="#6dd6ff" height="5" stroke-width="0" transform=" rotate(0, 139, 53)" width="5" x="136.5941" y="51.1295"/>
  <polygon fill="#6dd6ff" points="145.0412,55.9943 147.5412,50.9943 150.0412,55.9943" stroke-width="0" transform=" rotate(0, 147, 53)"/>
  <ellipse cx="160.7984" cy="46.6316" fill="#6dd6ff" rx="2.5" ry="2.5" stroke-width="0" transform=" rotate(0, 160, 46)"/>
  <rect fill="#6dd6ff" height="5" stroke-width="0" transform=" rotate(0, 173, 48)" width="5" x="171.1927" y="45.9767"/>
  <polygon fill="#6dd6ff" points="174.7901,51.9793 177.2901,46.9793 179.7901,51.9793" stroke-width="0" transform=" rotate(0, 177, 49)"/>
  <ellipse cx="190.5535" cy="47.6889" fill="#6dd6ff" rx="2.5" ry="2.5" stroke-width="0" transform=" rotate(0, 190, 47)"/>
  <rect fill="#6dd6ff" height="5" stroke-width="0" transform=" rotate(0, 201, 50)" width="5" x="199.0446" y="48.3891"/>
  <polygon fill="#6dd6ff" points="204.6929,53.2246 207.1929,48.2246 209.6929,53.2246" stroke-width="0" transform=" rotate(0, 207, 50)"/>
  <ellipse cx="220.159" cy="46.6017" fill="#6dd6ff" rx="2.5" ry="2.5" stroke-width="0" transform=" rotate(0, 220, 46)"/>
  <rect fill="#6dd6ff" height="5" stroke-width="0" transform=" rotate(0, 231, 53)" width="5" x="228.9314" y="51.0527"/>
  <polygon fill="#6dd6ff" points="237.2616,48.5298 239.7616,43.5298 242.2616,48.5298" stroke-width="0" transform=" rotate(0, 239, 46)"/>
  <ellipse cx="247.2968" cy="51.7887" fill="#6dd6ff" rx="2.5" ry="2.5" stroke-width="0" transform=" rotate(0, 247, 51)"/>
  <rect fill="#6dd6ff" height="5" stroke-width="0" transform=" rotate(0, 261, 47)" width="5" x="258.7892" y="44.8222"/>
  <polygon fill="#6dd6ff" points="267.0184,50.9477 269.5184,45.9477 272.0184,50.9477" stroke-width="0" transform=" rotate(0, 269, 48)"/>
  <ellipse cx="283.1526" cy="49.6929" fill="#6dd6ff" rx="2.5" ry="2.5" stroke-width="0" transform=" rotate(0, 283, 49)"/>
  <rect fill="#1b9fd8" height="7" stroke-width="0" transform=" rotate(0, 49, 60)" width="7" x="46.1928" y="57.2956"/>
  <polygon fill="#1b9fd8" points="57.1448,61.5324 60.6448,54.5324 64.1448,61.5324" stroke-width="0" transform=" rotate(0, 60, 58)"/>
  <ellipse cx="71.5978" cy="62.9444" fill="#1b9fd8" rx="3.5" ry="3.5" stroke-width="0" transform=" rotate(0, 71, 62)"/>
  <rect fill="#1b9fd8" height="7" stroke-width="0" transform=" rotate(0, 78, 61)" width="7" x="74.6634" y="57.7245"/>
  <polygon fill="#1b9fd8" points="87.8836,60.8981 91.3836,53.8981 94.8836,60.8981" stroke-width="0" transform=" rotate(0, 91, 57)"/>
  <ellipse cx="103.7294" cy="61.4938" fill="#1b9fd8" rx="3.5" ry="3.5" stroke-width="0" transform=" rotate(0, 103, 61)"/>
  <rect fill="#1b9fd8" height="7" stroke-width="0" transform=" rotate(0, 106, 61)" width="7" x="102.9031" y="58.2351"/>
  <polygon fill="#1b9fd8" points="115.5975,66.3445 119.0975,59.3445 122.5975,66.3445" stroke-width="0" transform=" rotate(0, 119, 62)"/>
  <ellipse cx="131.4703" cy="58.4219" fill="#1b9fd8" rx="3.5" ry="3.5" stroke-width="0" transform=" rotate(0, 131, 58)"/>
  <rect fill="#1b9fd8" height="7" stroke-width="0" transform=" rotate(0, 139, 57)" width="7" x="136.2015" y="54.3187"/>
  <polygon fill="#1b9fd8" points="150.2039,65.4723 153.7039,58.4723 157.2039,65.4723" stroke-width="0" transform=" rotate(0, 153, 61)"/>
  <ellipse cx="161.6088" cy="57.8975" fill="#1b9fd8" rx="3.5" ry="3.5" stroke-width="0" transform=" rotate(0, 161, 57)"/>
  <rect fill="#1b9fd8" height="7" stroke-width="0" transform=" rotate(0, 169, 62)" width="7" x="166.4953" y="58.9702"/>
  <polygon fill="#1b9fd8" points="179.9872,65.5997 183.4872,58.5997 186.9872,65.5997" stroke-width="0" transform=" rotate(0, 183, 62)"/>
  <ellipse cx="191.2957" cy="59.6289" fill="#1b9fd8" rx="3.5" ry="3.5" stroke-width="0" transform=" rotate(0, 191, 59)"/>
  <rect fill="#1b9fd8" height="7" stroke-width="0" transform=" rotate(0, 201, 63)" width="7" x="197.5141" y="60.2284"/>
  <polygon fill="#1b9fd8" points="207.191,63.2921 210.691,56.2921 214.191,63.2921" stroke-width="0" transform=" rotate(0, 210, 59)"/>
  <ellipse cx="220.9569" cy="63.1512" fill="#1b9fd8" rx="3.5" ry="3.5" stroke-width="0" transform=" rotate(0, 220, 63)"/>
  <rect fill="#1b9fd8" height="7" stroke-width="0" transform=" rotate(0, 231, 60)" width="7" x="227.7217" y="56.9335"/>
  <polygon fill="#1b9fd8" points="240.3354,63.0615 243.8354,56.0615 247.3354,63.0615" stroke-width="0" transform=" rotate(0, 243, 59)"/>
  <ellipse cx="248.7147" cy="57.8117" fill="#1b9fd8" rx="3.5" ry="3.5" stroke-width="0" transform=" rotate(0, 248, 57)"/>
  <rect fill="#1b9fd8" height="7" stroke-width="0" transform=" rotate(0, 263, 56)" width="7" x="260.0086" y="52.6846"/>
  <polygon fill="#1b9fd8" points="265.4955,61.9521 268.9955,54.9521 272.4955,61.9521" stroke-width="0" transform=" rotate(0, 268, 58)"/>
  <ellipse cx="278.118" cy="60.3939" fill="#1b9fd8" rx="3.5" ry="3.5" stroke-width="0" transform=" rotate(0, 278, 60)"/>
  <rect fill="#006ca1" height="9" stroke-width="0" transform=" rotate(0, 46, 66)" width="9" x="42.0722" y="61.5036"/>
  <polygon fill="#006ca1" points="59.0369,77.5165 63.5369,68.5165 68.0369,77.5165" stroke-width="0" transform=" rotate(0, 63, 73)"/>
  <ellipse cx="67.0844" cy="71.1743" fill="#006ca1" rx="4.5" ry="4.5" stroke-width="0" transform=" rotate(0, 67, 71)"/>
  <rect fill="#006ca1" height="9" stroke-width="0" transform=" rotate(0, 79, 71)" width="9" x="74.5839" y="66.7236"/>
  <polygon fill="#006ca1" points="88.7435,77.0278 93.2435,68.0278 97.7435,77.0278" stroke-width="0" transform=" rotate(0, 93, 72)"/>
  <ellipse cx="101.9492" cy="72.5097" fill="#006ca1" rx="4.5" ry="4.5" stroke-width="0" transform=" rotate(0, 101, 72)"/>
  <rect fill="#006ca1" height="9" stroke-width="0" transform=" rotate(0, 108, 67)" width="9" x="103.5783" y="63.0997"/>
  <polygon fill="#006ca1" points="114.3744,71.0088 118.8744,62.0088 123.3744,71.0088" stroke-width="0" transform=" rotate(0, 118, 66)"/>
  <ellipse cx="129.5096" cy="72.9566" fill="#006ca1" rx="4.5" ry="4.5" stroke-width="0" transform=" rotate(0, 129, 72)"/>
  <rect fill="#006ca1" height="9" stroke-width="0" transform=" rotate(0, 138, 71)" width="9" x="133.9677" y="66.5859"/>
  <polygon fill="#006ca1" points="144.7015,70.506 149.2015,61.506 153.7015,70.506" stroke-width="0" transform=" rotate(0, 149, 66)"/>
  <ellipse cx="158.0999" cy="67.5255" fill="#006ca1" rx="4.5" ry="4.5" stroke-width="0" transform=" rotate(0, 158, 67)"/>
  <rect fill="#006ca1" height="9" stroke-width="0" transform=" rotate(0, 166, 69)" width="9" x="162.1494" y="64.9497"/>
  <polygon fill="#006ca1" points="178.5062,76.4658 183.0062,67.4658 187.5062,76.4658" stroke-width="0" transform=" rotate(0, 183, 71)"/>
  <ellipse cx="186.2223" cy="68.9732" fill="#006ca1" rx="4.5" ry="4.5" stroke-width="0" transform=" rotate(0, 186, 68)"/>
  <rect fill="#006ca1" height="9" stroke-width="0" transform=" rotate(0, 201, 70)" width="9" x="196.7728" y="65.5756"/>
  <polygon fill="#006ca1" points="202.2675,73.4036 206.7675,64.4036 211.2675,73.4036" stroke-width="0" transform=" rotate(0, 206, 68)"/>
  <ellipse cx="219.4799" cy="68.1548" fill="#006ca1" rx="4.5" ry="4.5" stroke-width="0" transform=" rotate(0, 219, 68)"/>
  <rect fill="#006ca1" height="9" stroke-width="0" transform=" rotate(0, 226, 69)" width="9" x="222.1584" y="65.0756"/>
  <polygon fill="#006ca1" points="237.884,73.0608 242.384,64.0608 246.884,73.0608" stroke-width="0" transform=" rotate(0, 242, 68)"/>
  <ellipse cx="250.4846" cy="67.0892" fill="#006ca1" rx="4.5" ry="4.5" stroke-width="0" transform=" rotate(0, 250, 67)"/>
  <rect fill="#006ca1" height="9" stroke-width="0" transform=" rotate(0, 258, 70)" width="9" x="254.2853" y="66.2546"/>
  <polygon fill="#006ca1" points="268.5148,77.655 273.0148,68.655 277.5148,77.655" stroke-width="0" transform=" rotate(0, 273, 73)"/>
  <ellipse cx="279.0391" cy="73.2219" fill="#006ca1" rx="4.5" ry="4.5" stroke-width="0" transform=" rotate(0, 279, 73)"/>
  <rect fill="#6dd6ff" height="5" stroke-width="0" transform=" rotate(0, 47, 82)" width="5" x="44.9862" y="79.7304"/>
  <polygon fill="#6dd6ff" points="57.3501,82.7906 59.8501,77.7906 62.3501,82.7906" stroke-width="0" transform=" rotate(0, 59, 80)"/>
  <ellipse cx="71.172" cy="80.847" fill="#6dd6ff" rx="2.5" ry="2.5" stroke-width="0" transform=" rotate(0, 71, 80)"/>
  <rect fill="#6dd6ff" height="5" stroke-width="0" transform=" rotate(0, 77, 79)" width="5" x="74.8837" y="77.4664"/>
  <polygon fill="#6dd6ff" points="86.6035,85.4878 89.1035,80.4878 91.6035,85.4878" stroke-width="0" transform=" rotate(0, 89, 82)"/>
  <ellipse cx="97.4531" cy="76.0629" fill="#6dd6ff" rx="2.5" ry="2.5" stroke-width="0" transform=" rotate(0, 97, 76)"/>
  <rect fill="#6dd6ff" height="5" stroke-width="0" transform=" rotate(0, 107, 80)" width="5" x="104.8118" y="77.8961"/>
  <polygon fill="#6dd6ff" points="118.4227,85.981 120.9227,80.981 123.4227,85.981" stroke-width="0" transform=" rotate(0, 120, 83)"/>
  <ellipse cx="131.6078" cy="81.8605" fill="#6dd6ff" rx="2.5" ry="2.5" stroke-width="0" transform=" rotate(0, 131, 81)"/>
  <rect fill="#6dd6ff" height="5" stroke-width="0" transform=" rotate(0, 136, 77)" width="5" x="133.5782" y="74.6376"/>
  <polygon fill="#6dd6ff" points="145.5027,80.3456 148.0027,75.3456 150.5027,80.3456" stroke-width="0" transform=" rotate(0, 148, 77)"/>
  <ellipse cx="156.8482" cy="79.213" fill="#6dd6ff" rx="2.5" ry="2.5" stroke-width="0" transform=" rotate(0, 156, 79)"/>
  <rect fill="#6dd6ff" height="5" stroke-width="0" transform=" rotate(0, 172, 77)" width="5" x="169.7728" y="74.6342"/>
  <polygon fill="#6dd6ff" points="181.4455,82.0469 183.9455,77.0469 186.4455,82.0469" stroke-width="0" transform=" rotate(0, 183, 79)"/>
  <ellipse cx="187.1073" cy="82.0657" fill="#6dd6ff" rx="2.5" ry="2.5" stroke-width="0" transform=" rotate(0, 187, 82)"/>
  <rect fill="#6dd6ff" height="5" stroke-width="0" transform=" rotate(0, 201, 83)" width="5" x="198.6641" y="80.5221"/>
  <polygon fill="#6dd6ff" points="209.8915,78.558 212.3915,73.558 214.8915,78.558" stroke-width="0" transform=" rotate(0, 212, 76)"/>
  <ellipse cx="216.7535" cy="80.2208" fill="#6dd6ff" rx="2.5" ry="2.5" stroke-width="0" transform=" rotate(0, 216, 80)"/>
  <rect fill="#6dd6ff" height="5" stroke-width="0" transform=" rotate(0, 228, 82)" width="5" x="226.3313" y="80.1546"/>
  <polygon fill="#6dd6ff" points="236.4243,78.4562 238.9243,73.4562 241.4243,78.4562" stroke-width="0" transform=" rotate(0, 238, 75)"/>
  <ellipse cx="247.0506" cy="83.474" fill="#6dd6ff" rx="2.5" ry="2.5" stroke-width="0" transform=" rotate(0, 247, 83)"/>
  <rect fill="#6dd6ff" height="5" stroke-width="0" transform=" rotate(0, 256, 82)" width="5" x="253.9463" y="80.0784"/>
  <polygon fill="#6dd6ff" points="265.0445,82.5652 267.5445,77.5652 270.0445,82.5652" stroke-width="0" transform=" rotate(0, 267, 80)"/>
  <ellipse cx="278.93" cy="79.1815" fill="#6dd6ff" rx="2.5" ry="2.5" stroke-width="0" transform=" rotate(0, 278, 79)"/>
  <rect fill="#1b9fd8" height="7" stroke-width="0" transform=" rotate(0, 49, 86)" width="7" x="45.5539" y="83.3811"/>
  <polygon fill="#1b9fd8" points="54.2372,97.3732 57.7372,90.3732 61.2372,97.3732" stroke-width="0" transform=" rotate(0, 57, 93)"/>
  <ellipse cx="71.5598" cy="88.6678" fill="#1b9fd8" rx="3.5" ry="3.5" stroke-width="0" transform=" rotate(0, 71, 88)"/>
  <rect fill="#1b9fd8" height="7" stroke-width="0" transform=" rotate(0, 78, 89)" width="7" x="75.3462" y="86.098"/>
  <polygon fill="#1b9fd8" points="90.2335,93.8205 93.7335,86.8205 97.2335,93.8205" stroke-width="0" transform=" rotate(0, 93, 90)"/>
  <ellipse cx="100.6445" cy="89.8916" fill="#1b9fd8" rx="3.5" ry="3.5" stroke-width="0" transform=" rotate(0, 100, 89)"/>
  <rect fill="#1b9fd8" height="7" stroke-width="0" transform=" rotate(0, 113, 93)" width="7" x="109.5221" y="90.1946"/>
  <polygon fill="#1b9fd8" points="113.5156,89.7925 117.0156,82.7925 120.5156,89.7925" stroke-width="0" transform=" rotate(0, 117, 86)"/>
  <ellipse cx="128.9014" cy="87.7253" fill="#1b9fd8" rx="3.5" ry="3.5" stroke-width="0" transform=" rotate(0, 128, 87)"/>
  <rect fill="#1b9fd8" height="7" stroke-width="0" transform=" rotate(0, 143, 93)" width="7" x="139.7146" y="89.8678"/>
  <polygon fill="#1b9fd8" points="145.435,92.8985 148.935,85.8985 152.435,92.8985" stroke-width="0" transform=" rotate(0, 148, 89)"/>
  <ellipse cx="156.842" cy="92.6026" fill="#1b9fd8" rx="3.5" ry="3.5" stroke-width="0" transform=" rotate(0, 156, 92)"/>
  <rect fill="#1b9fd8" height="7" stroke-width="0" transform=" rotate(0, 168, 88)" width="7" x="165.414" y="85.3402"/>
  <polygon fill="#1b9fd8" points="177.6894,95.6017 181.1894,88.6017 184.6894,95.6017" stroke-width="0" transform=" rotate(0, 181, 92)"/>
  <ellipse cx="189.1107" cy="89.4253" fill="#1b9fd8" rx="3.5" ry="3.5" stroke-width="0" transform=" rotate(0, 189, 89)"/>
  <rect fill="#1b9fd8" height="7" stroke-width="0" transform=" rotate(0, 203, 87)" width="7" x="199.979" y="84.2086"/>
  <polygon fill="#1b9fd8" points="204.0568,97.053 207.5568,90.053 211.0568,97.053" stroke-width="0" transform=" rotate(0, 207, 93)"/>
  <ellipse cx="217.9285" cy="86.9456" fill="#1b9fd8" rx="3.5" ry="3.5" stroke-width="0" transform=" rotate(0, 217, 86)"/>
  <rect fill="#1b9fd8" height="7" stroke-width="0" transform=" rotate(0, 233, 87)" width="7" x="230.2562" y="83.5332"/>
  <polygon fill="#1b9fd8" points="234.6235,93.5915 238.1235,86.5915 241.6235,93.5915" stroke-width="0" transform=" rotate(0, 238, 90)"/>
  <ellipse cx="252.4946" cy="88.1842" fill="#1b9fd8" rx="3.5" ry="3.5" stroke-width="0" transform=" rotate(0, 252, 88)"/>
  <rect fill="#1b9fd8" height="7" stroke-width="0" transform=" rotate(0, 256, 89)" width="7" x="253.2214" y="86.0858"/>
  <polygon fill="#1b9fd8" points="263.3431,93.8805 266.8431,86.8805 270.3431,93.8805" stroke-width="0" transform=" rotate(0, 266, 90)"/>
  <ellipse cx="278.3759" cy="89.5102" fill="#1b9fd8" rx="3.5" ry="3.5" stroke-width="0" transform=" rotate(0, 278, 89)"/>
  <rect fill="#006ca1" height="9" stroke-width="0" transform=" rotate(0, 52, 103)" width="9" x="48.4912" y="98.7602"/>
  <polygon fill="#006ca1" points="58.6785,103.8351 63.1785,94.8351 67.6785,103.8351" stroke-width="0" transform=" rotate(0, 63, 99)"/>
  <ellipse cx="72.9552" cy="100.2706" fill="#006ca1" rx="4.5" ry="4.5" stroke-width="0" transform=" rotate(0, 72, 100)"/>
  <rect fill="#006ca1" height="9" stroke-width="0" transform=" rotate(0, 83, 96)" width="9" x="78.6396" y="91.7423"/>
  <polygon fill="#006ca1" points="82.1463,101.8642 86.6463,92.8642 91.1463,101.8642" stroke-width="0" transform=" rotate(0, 86, 97)"/>
  <ellipse cx="98.965" cy="101.4447" fill="#006ca1" rx="4.5" ry="4.5" stroke-width="0" transform=" rotate(0, 98, 101)"/>
  <rect fill="#006ca1" height="9" stroke-width="0" transform=" rotate(0, 111, 103)" width="9" x="106.916" y="98.9634"/>
  <polygon fill="#006ca1" points="117.6625,101.7392 122.1625,92.7392 126.6625,101.7392" stroke-width="0" transform=" rotate(0, 122, 97)"/>
  <ellipse cx="132.0296" cy="101.0102" fill="#006ca1" rx="4.5" ry="4.5" stroke-width="0" transform=" rotate(0, 132, 101)"/>
  <rect fill="#006ca1" height="9" stroke-width="0" transform=" rotate(0, 139, 97)" width="9" x="135.0871" y="93.1352"/>
  <polygon fill="#006ca1" points="147.3939,107.7748 151.8939,98.7748 156.3939,107.7748" stroke-width="0" transform=" rotate(0, 151, 103)"/>
  <ellipse cx="161.9034" cy="100.4618" fill="#006ca1" rx="4.5" ry="4.5" stroke-width="0" transform=" rotate(0, 161, 100)"/>
  <rect fill="#006ca1" height="9" stroke-width="0" transform=" rotate(0, 173, 102)" width="9" x="168.8901" y="98.3876"/>
  <polygon fill="#006ca1" points="171.6972,105.1744 176.1972,96.1744 180.6972,105.1744" stroke-width="0" transform=" rotate(0, 176, 100)"/>
  <ellipse cx="192.1476" cy="101.4296" fill="#006ca1" rx="4.5" ry="4.5" stroke-width="0" transform=" rotate(0, 192, 101)"/>
  <rect fill="#006ca1" height="9" stroke-width="0" transform=" rotate(0, 201, 98)" width="9" x="197.2486" y="93.6365"/>
  <polygon fill="#006ca1" points="206.6184,101.8877 211.1184,92.8877 215.6184,101.8877" stroke-width="0" transform=" rotate(0, 211, 97)"/>
  <ellipse cx="220.7348" cy="98.5267" fill="#006ca1" rx="4.5" ry="4.5" stroke-width="0" transform=" rotate(0, 220, 98)"/>
  <rect fill="#006ca1" height="9" stroke-width="0" transform=" rotate(0, 227, 102)" width="9" x="223.2273" y="98.1988"/>
  <polygon fill="#006ca1" points="238.024,102.0408 242.524,93.0408 247.024,102.0408" stroke-width="0" transform=" rotate(0, 242, 97)"/>
  <ellipse cx="251.9614" cy="100.5951" fill="#006ca1" rx="4.5" ry="4.5" stroke-width="0" transform=" rotate(0, 251, 100)"/>
  <rect fill="#006ca1" height="9" stroke-width="0" transform=" rotate(0, 257, 99)" width="9" x="252.9524" y="94.6924"/>
  <polygon fill="#006ca1" points="262.3212,105.3166 266.8212,96.3166 271.3212,105.3166" stroke-width="0" transform=" rotate(0, 266, 100)"/>
  <ellipse cx="283.3093" cy="97.4602" fill="#006ca1" rx="4.5" ry="4.5" stroke-width="0" transform=" rotate(0, 283, 97)"/>
  <rect fill="#6dd6ff" height="5" stroke-width="0" transform=" rotate(0, 47, 112)" width="5" x="45.2923" y="109.9913"/>
  <polygon fill="#6dd6ff" points="54.2086,111.0359 56.7086,106.0359 59.2086,111.0359" stroke-width="0" transform=" rotate(0, 56, 108)"/>
  <ellipse cx="66.0592" cy="111.9653" fill="#6dd6ff" rx="2.5" ry="2.5" stroke-width="0" transform=" rotate(0, 66, 111)"/>
  <rect fill="#6dd6ff" height="5" stroke-width="0" transform=" rotate(0, 81, 110)" width="5" x="78.6862" y="108.0797"/>
  <polygon fill="#6dd6ff" points="83.9063,111.6118 86.4063,106.6118 88.9063,111.6118" stroke-width="0" transform=" rotate(0, 86, 109)"/>
  <ellipse cx="97.555" cy="112.9571" fill="#6dd6ff" rx="2.5" ry="2.5" stroke-width="0" transform=" rotate(0, 97, 112)"/>
  <rect fill="#6dd6ff" height="5" stroke-width="0" transform=" rotate(0, 111, 111)" width="5" x="109.3247" y="109.4739"/>
  <polygon fill="#6dd6ff" points="118.8512,112.5448 121.3512,107.5448 123.8512,112.5448" stroke-width="0" transform=" rotate(0, 121, 110)"/>
  <ellipse cx="131.2841" cy="107.9736" fill="#6dd6ff" rx="2.5" ry="2.5" stroke-width="0" transform=" rotate(0, 131, 107)"/>
  <rect fill="#6dd6ff" height="5" stroke-width="0" transform=" rotate(0, 143, 106)" width="5" x="141.114" y="103.8986"/>
  <polygon fill="#6dd6ff" points="148.6195,113.8964 151.1195,108.8964 153.6195,113.8964" stroke-width="0" transform=" rotate(0, 151, 111)"/>
  <ellipse cx="161.6601" cy="109.7235" fill="#6dd6ff" rx="2.5" ry="2.5" stroke-width="0" transform=" rotate(0, 161, 109)"/>
  <rect fill="#6dd6ff" height="5" stroke-width="0" transform=" rotate(0, 169, 110)" width="5" x="166.8024" y="107.5346"/>
  <polygon fill="#6dd6ff" points="179.7257,116.2784 182.2257,111.2784 184.7257,116.2784" stroke-width="0" transform=" rotate(0, 182, 113)"/>
  <ellipse cx="188.4352" cy="111.3972" fill="#6dd6ff" rx="2.5" ry="2.5" stroke-width="0" transform=" rotate(0, 188, 111)"/>
  <rect fill="#6dd6ff" height="5" stroke-width="0" transform=" rotate(0, 203, 107)" width="5" x="201.0634" y="105.0561"/>
  <polygon fill="#6dd6ff" points="207.5985,115.7866 210.0985,110.7866 212.5985,115.7866" stroke-width="0" transform=" rotate(0, 210, 113)"/>
  <ellipse cx="218.4649" cy="110.152" fill="#6dd6ff" rx="2.5" ry="2.5" stroke-width="0" transform=" rotate(0, 218, 110)"/>
  <rect fill="#6dd6ff" height="5" stroke-width="0" transform=" rotate(0, 233, 112)" width="5" x="230.802" y="109.6769"/>
  <polygon fill="#6dd6ff" points="240.9677,108.567 243.4677,103.567 245.9677,108.567" stroke-width="0" transform=" rotate(0, 243, 106)"/>
  <ellipse cx="253.2322" cy="108.9901" fill="#6dd6ff" rx="2.5" ry="2.5" stroke-width="0" transform=" rotate(0, 253, 108)"/>
  <rect fill="#6dd6ff" height="5" stroke-width="0" transform=" rotate(0, 257, 107)" width="5" x="254.741" y="104.5231"/>
  <polygon fill="#6dd6ff" points="266.7967,110.8928 269.2967,105.8928 271.7967,110.8928" stroke-width="0" transform=" rotate(0, 269, 108)"/>
  <ellipse cx="281.9897" cy="109.4703" fill="#6dd6ff" rx="2.5" ry="2.5" stroke-width="0" transform=" rotate(0, 281, 109)"/>
  <rect fill="#1b9fd8" height="7" stroke-width="0" transform=" rotate(0, 51, 123)" width="7" x="47.619" y="119.7701"/>
  <polygon fill="#1b9fd8" points="56.4139,126.3626 59.9139,119.3626 63.4139,126.3626" stroke-width="0" transform=" rotate(0, 59, 122)"/>
  <ellipse cx="73.1615" cy="119.5175" fill="#1b9fd8" rx="3.5" ry="3.5" stroke-width="0" transform=" rotate(0, 73, 119)"/>
  <rect fill="#1b9fd8" height="7" stroke-width="0" transform=" rotate(0, 77, 117)" width="7" x="74.0831" y="113.6232"/>
  <polygon fill="#1b9fd8" points="85.482,126.461 88.982,119.461 92.482,126.461" stroke-width="0" transform=" rotate(0, 88, 122)"/>
  <ellipse cx="102.7595" cy="119.4648" fill="#1b9fd8" rx="3.5" ry="3.5" stroke-width="0" transform=" rotate(0, 102, 119)"/>
  <rect fill="#1b9fd8" height="7" stroke-width="0" transform=" rotate(0, 111, 123)" width="7" x="108.0122" y="119.7148"/>
  <polygon fill="#1b9fd8" points="120.2446,122.6183 123.7446,115.6183 127.2446,122.6183" stroke-width="0" transform=" rotate(0, 123, 119)"/>
  <ellipse cx="130.8169" cy="116.6297" fill="#1b9fd8" rx="3.5" ry="3.5" stroke-width="0" transform=" rotate(0, 130, 116)"/>
  <rect fill="#1b9fd8" height="7" stroke-width="0" transform=" rotate(0, 140, 119)" width="7" x="137.1382" y="115.6442"/>
  <polygon fill="#1b9fd8" points="146.2181,123.6486 149.7181,116.6486 153.2181,123.6486" stroke-width="0" transform=" rotate(0, 149, 120)"/>
  <ellipse cx="162.1145" cy="123.2616" fill="#1b9fd8" rx="3.5" ry="3.5" stroke-width="0" transform=" rotate(0, 162, 123)"/>
  <rect fill="#1b9fd8" height="7" stroke-width="0" transform=" rotate(0, 166, 121)" width="7" x="162.6065" y="117.6658"/>
  <polygon fill="#1b9fd8" points="174.0036,119.7358 177.5036,112.7358 181.0036,119.7358" stroke-width="0" transform=" rotate(0, 177, 116)"/>
  <ellipse cx="187.8301" cy="123.7523" fill="#1b9fd8" rx="3.5" ry="3.5" stroke-width="0" transform=" rotate(0, 187, 123)"/>
  <rect fill="#1b9fd8" height="7" stroke-width="0" transform=" rotate(0, 200, 119)" width="7" x="196.6526" y="116.0652"/>
  <polygon fill="#1b9fd8" points="210.3151,120.5752 213.8151,113.5752 217.3151,120.5752" stroke-width="0" transform=" rotate(0, 213, 117)"/>
  <ellipse cx="218.9581" cy="118.6724" fill="#1b9fd8" rx="3.5" ry="3.5" stroke-width="0" transform=" rotate(0, 218, 118)"/>
  <rect fill="#1b9fd8" height="7" stroke-width="0" transform=" rotate(0, 231, 122)" width="7" x="228.466" y="118.7811"/>
  <polygon fill="#1b9fd8" points="237.073,126.7087 240.573,119.7087 244.073,126.7087" stroke-width="0" transform=" rotate(0, 240, 123)"/>
  <ellipse cx="253.5831" cy="119.4808" fill="#1b9fd8" rx="3.5" ry="3.5" stroke-width="0" transform=" rotate(0, 253, 119)"/>
  <rect fill="#1b9fd8" height="7" stroke-width="0" transform=" rotate(0, 261, 118)" width="7" x="258.2705" y="114.7463"/>
  <polygon fill="#1b9fd8" points="270.1266,126.8919 273.6266,119.8919 277.1266,126.8919" stroke-width="0" transform=" rotate(0, 273, 123)"/>
  <ellipse cx="283.7144" cy="118.9728" fill="#1b9fd8" rx="3.5" ry="3.5" stroke-width="0" transform=" rotate(0, 283, 118)"/>
  <rect fill="#006ca1" height="9" stroke-width="0" transform=" rotate(0, 49, 131)" width="9" x="44.5661" y="126.6716"/>
  <polygon fill="#006ca1" points="57.2379,136.6593 61.7379,127.6593 66.2379,136.6593" stroke-width="0" transform=" rotate(0, 61, 132)"/>
  <ellipse cx="70.1555" cy="132.6955" fill="#006ca1" rx="4.5" ry="4.5" stroke-width="0" transform=" rotate(0, 70, 132)"/>
  <rect fill="#006ca1" height="9" stroke-width="0" transform=" rotate(0, 80, 132)" width="9" x="75.809" y="128.2896"/>
  <polygon fill="#006ca1" points="89.3774,131.9675 93.8774,122.9675 98.3774,131.9675" stroke-width="0" transform=" rotate(0, 93, 127)"/>
  <ellipse cx="100.5179" cy="127.9267" fill="#006ca1" rx="4.5" ry="4.5" stroke-width="0" transform=" rotate(0, 100, 127)"/>
  <rect fill="#006ca1" height="9" stroke-width="0" transform=" rotate(0, 112, 130)" width="9" x="107.6827" y="125.8638"/>
  <polygon fill="#006ca1" points="115.312,135.8109 119.812,126.8109 124.312,135.8109" stroke-width="0" transform=" rotate(0, 119, 131)"/>
  <ellipse cx="130.6614" cy="130.0903" fill="#006ca1" rx="4.5" ry="4.5" stroke-width="0" transform=" rotate(0, 130, 130)"/>
  <rect fill="#006ca1" height="9" stroke-width="0" transform=" rotate(0, 138, 131)" width="9" x="134.3155" y="127.2411"/>
  <polygon fill="#006ca1" points="145.419,135.4386 149.919,126.4386 154.419,135.4386" stroke-width="0" transform=" rotate(0, 149, 130)"/>
  <ellipse cx="157.6684" cy="130.9785" fill="#006ca1" rx="4.5" ry="4.5" stroke-width="0" transform=" rotate(0, 157, 130)"/>
  <rect fill="#006ca1" height="9" stroke-width="0" transform=" rotate(0, 169, 131)" width="9" x="164.7666" y="126.6004"/>
  <polygon fill="#006ca1" points="177.4063,133.9397 181.9063,124.9397 186.4063,133.9397" stroke-width="0" transform=" rotate(0, 181, 129)"/>
  <ellipse cx="192.2" cy="131.3321" fill="#006ca1" rx="4.5" ry="4.5" stroke-width="0" transform=" rotate(0, 192, 131)"/>
  <rect fill="#006ca1" height="9" stroke-width="0" transform=" rotate(0, 197, 133)" width="9" x="192.7991" y="129.3974"/>
  <polygon fill="#006ca1" points="204.0066,134.2066 208.5066,125.2066 213.0066,134.2066" stroke-width="0" transform=" rotate(0, 208, 129)"/>
  <ellipse cx="221.1921" cy="132.0727" fill="#006ca1" rx="4.5" ry="4.5" stroke-width="0" transform=" rotate(0, 221, 132)"/>
  <rect fill="#006ca1" height="9" stroke-width="0" transform=" rotate(0, 233, 132)" width="9" x="229.0583" y="128.4112"/>
  <polygon fill="#006ca1" points="233.1849,133.6255 237.6849,124.6255 242.1849,133.6255" stroke-width="0" transform=" rotate(0, 237, 129)"/>
  <ellipse cx="253.0626" cy="126.9056" fill="#006ca1" rx="4.5" ry="4.5" stroke-width="0" transform=" rotate(0, 253, 126)"/>
  <rect fill="#006ca1" height="9" stroke-width="0" transform=" rotate(0, 258, 130)" width="9" x="254.0024" y="126.0008"/>
  <polygon fill="#006ca1" points="266.3213,130.6019 270.8213,121.6019 275.3213,130.6019" stroke-width="0" transform=" rotate(0, 270, 126)"/>
  <ellipse cx="277.1595" cy="132.7764" fill="#006ca1" rx="4.5" ry="4.5" stroke-width="0" transform=" rotate(0, 277, 132)"/>
  <rect fill="#6dd6ff" height="5" stroke-width="0" transform=" rotate(0, 47, 142)" width="5" x="44.5402" y="140.3367"/>
  <polygon fill="#6dd6ff" points="57.9361,143.5816 60.4361,138.5816 62.9361,143.5816" stroke-width="0" transform=" rotate(0, 60, 141)"/>
  <ellipse cx="72.5036" cy="140.0735" fill="#6dd6ff" rx="2.5" ry="2.5" stroke-width="0" transform=" rotate(0, 72, 140)"/>
  <rect fill="#6dd6ff" height="5" stroke-width="0" transform=" rotate(0, 80, 143)" width="5" x="77.9659" y="140.6698"/>
  <polygon fill="#6dd6ff" points="85.3653,139.7004 87.8653,134.7004 90.3653,139.7004" stroke-width="0" transform=" rotate(0, 87, 137)"/>
  <ellipse cx="98.5801" cy="142.3568" fill="#6dd6ff" rx="2.5" ry="2.5" stroke-width="0" transform=" rotate(0, 98, 142)"/>
  <rect fill="#6dd6ff" height="5" stroke-width="0" transform=" rotate(0, 107, 142)" width="5" x="105.4503" y="140.385"/>
  <polygon fill="#6dd6ff" points="116.7423,142.6039 119.2423,137.6039 121.7423,142.6039" stroke-width="0" transform=" rotate(0, 119, 140)"/>
  <ellipse cx="133.3617" cy="143.8396" fill="#6dd6ff" rx="2.5" ry="2.5" stroke-width="0" transform=" rotate(0, 133, 143)"/>
  <rect fill="#6dd6ff" height="5" stroke-width="0" transform=" rotate(0, 139, 142)" width="5" x="136.6715" y="140.4734"/>
  <polygon fill="#6dd6ff" points="148.3986,143.4527 150.8986,138.4527 153.3986,143.4527" stroke-width="0" transform=" rotate(0, 150, 140)"/>
  <ellipse cx="159.4848" cy="139.205" fill="#6dd6ff" rx="2.5" ry="2.5" stroke-width="0" transform=" rotate(0, 159, 139)"/>
  <rect fill="#6dd6ff" height="5" stroke-width="0" transform=" rotate(0, 168, 137)" width="5" x="165.9705" y="135.0121"/>
  <polygon fill="#6dd6ff" points="173.4899,139.3746 175.9899,134.3746 178.4899,139.3746" stroke-width="0" transform=" rotate(0, 175, 136)"/>
  <ellipse cx="189.2339" cy="142.5948" fill="#6dd6ff" rx="2.5" ry="2.5" stroke-width="0" transform=" rotate(0, 189, 142)"/>
  <rect fill="#6dd6ff" height="5" stroke-width="0" transform=" rotate(0, 202, 143)" width="5" x="199.8665" y="140.5084"/>
  <polygon fill="#6dd6ff" points="203.8957,138.5441 206.3957,133.5441 208.8957,138.5441" stroke-width="0" transform=" rotate(0, 206, 136)"/>
  <ellipse cx="223.3833" cy="143.4044" fill="#6dd6ff" rx="2.5" ry="2.5" stroke-width="0" transform=" rotate(0, 223, 143)"/>
  <rect fill="#6dd6ff" height="5" stroke-width="0" transform=" rotate(0, 229, 138)" width="5" x="227.1157" y="136.0158"/>
  <polygon fill="#6dd6ff" points="238.6339,142.7241 241.1339,137.7241 243.6339,142.7241" stroke-width="0" transform=" rotate(0, 241, 140)"/>
  <ellipse cx="250.4859" cy="137.0412" fill="#6dd6ff" rx="2.5" ry="2.5" stroke-width="0" transform=" rotate(0, 250, 137)"/>
  <rect fill="#6dd6ff" height="5" stroke-width="0" transform=" rotate(0, 259, 138)" width="5" x="256.9867" y="135.925"/>
  <polygon fill="#6dd6ff" points="270.4293,146.117 272.9293,141.117 275.4293,146.117" stroke-width="0" transform=" rotate(0, 272, 143)"/>
  <ellipse cx="276.3653" cy="141.5363" fill="#6dd6ff" rx="2.5" ry="2.5" stroke-width="0" transform=" rotate(0, 276, 141)"/>
  <rect fill="#1b9fd8" height="7" stroke-width="0" transform=" rotate(0, 53, 150)" width="7" x="50.325" y="147.0905"/>
  <polygon fill="#1b9fd8" points="56.1813,151.794 59.6813,144.794 63.1813,151.794" stroke-width="0" transform=" rotate(0, 59, 148)"/>
  <ellipse cx="69.0453" cy="149.2825" fill="#1b9fd8" rx="3.5" ry="3.5" stroke-width="0" transform=" rotate(0, 69, 149)"/>
  <rect fill="#1b9fd8" height="7" stroke-width="0" transform=" rotate(0, 77, 150)" width="7" x="74.4639" y="147.1109"/>
  <polygon fill="#1b9fd8" points="89.425,155.9574 92.925,148.9574 96.425,155.9574" stroke-width="0" transform=" rotate(0, 92, 152)"/>
  <ellipse cx="97.7037" cy="150.5171" fill="#1b9fd8" rx="3.5" ry="3.5" stroke-width="0" transform=" rotate(0, 97, 150)"/>
  <rect fill="#1b9fd8" height="7" stroke-width="0" transform=" rotate(0, 110, 150)" width="7" x="106.9814" y="147.4251"/>
  <polygon fill="#1b9fd8" points="118.6825,152.32 122.1825,145.32 125.6825,152.32" stroke-width="0" transform=" rotate(0, 122, 148)"/>
  <ellipse cx="132.5413" cy="147.9331" fill="#1b9fd8" rx="3.5" ry="3.5" stroke-width="0" transform=" rotate(0, 132, 147)"/>
  <rect fill="#1b9fd8" height="7" stroke-width="0" transform=" rotate(0, 139, 147)" width="7" x="135.8942" y="143.9538"/>
  <polygon fill="#1b9fd8" points="148.1638,154.3677 151.6638,147.3677 155.1638,154.3677" stroke-width="0" transform=" rotate(0, 151, 150)"/>
  <ellipse cx="158.6347" cy="153.8428" fill="#1b9fd8" rx="3.5" ry="3.5" stroke-width="0" transform=" rotate(0, 158, 153)"/>
  <rect fill="#1b9fd8" height="7" stroke-width="0" transform=" rotate(0, 167, 153)" width="7" x="164.3482" y="150.0742"/>
  <polygon fill="#1b9fd8" points="175.191,150.4527 178.691,143.4527 182.191,150.4527" stroke-width="0" transform=" rotate(0, 178, 146)"/>
  <ellipse cx="187.3014" cy="150.9195" fill="#1b9fd8" rx="3.5" ry="3.5" stroke-width="0" transform=" rotate(0, 187, 150)"/>
  <rect fill="#1b9fd8" height="7" stroke-width="0" transform=" rotate(0, 197, 150)" width="7" x="193.5677" y="146.6614"/>
  <polygon fill="#1b9fd8" points="205.6225,152.7096 209.1225,145.7096 212.6225,152.7096" stroke-width="0" transform=" rotate(0, 209, 149)"/>
  <ellipse cx="223.2932" cy="152.4218" fill="#1b9fd8" rx="3.5" ry="3.5" stroke-width="0" transform=" rotate(0, 223, 152)"/>
  <rect fill="#1b9fd8" height="7" stroke-width="0" transform=" rotate(0, 227, 153)" width="7" x="223.9276" y="149.7836"/>
  <polygon fill="#1b9fd8" points="239.0621,154.6263 242.5621,147.6263 246.0621,154.6263" stroke-width="0" transform=" rotate(0, 242, 151)"/>
  <ellipse cx="249.6931" cy="150.283" fill="#1b9fd8" rx="3.5" ry="3.5" stroke-width="0" transform=" rotate(0, 249, 150)"/>
  <rect fill="#1b9fd8" height="7" stroke-width="0" transform=" rotate(0, 257, 146)" width="7" x="254.3709" y="142.5316"/>
  <polygon fill="#1b9fd8" points="267.9064,156.6554 271.4064,149.6554 274.9064,156.6554" stroke-width="0" transform=" rotate(0, 271, 153)"/>
  <ellipse cx="283.0509" cy="149.8962" fill="#1b9fd8" rx="3.5" ry="3.5" stroke-width="0" transform=" rotate(0, 283, 149)"/>
  <rect fill="#006ca1" height="9" stroke-width="0" transform=" rotate(0, 51, 158)" width="9" x="46.5387" y="153.5255"/>
  <polygon fill="#006ca1" points="54.3376,165.7361 58.8376,156.7361 63.3376,165.7361" stroke-width="0" transform=" rotate(0, 58, 161)"/>
  <ellipse cx="66.4226" cy="160.3458" fill="#006ca1" rx="4.5" ry="4.5" stroke-width="0" transform=" rotate(0, 66, 160)"/>
  <rect fill="#006ca1" height="9" stroke-width="0" transform=" rotate(0, 80, 157)" width="9" x="75.8288" y="152.897"/>
  <polygon fill="#006ca1" points="82.2634,161.6384 86.7634,152.6384 91.2634,161.6384" stroke-width="0" transform=" rotate(0, 86, 157)"/>
  <ellipse cx="100.7241" cy="162.9063" fill="#006ca1" rx="4.5" ry="4.5" stroke-width="0" transform=" rotate(0, 100, 162)"/>
  <rect fill="#006ca1" height="9" stroke-width="0" transform=" rotate(0, 111, 162)" width="9" x="107.3288" y="158.4055"/>
  <polygon fill="#006ca1" points="114.7265,165.0898 119.2265,156.0898 123.7265,165.0898" stroke-width="0" transform=" rotate(0, 119, 160)"/>
  <ellipse cx="132.3647" cy="160.8881" fill="#006ca1" rx="4.5" ry="4.5" stroke-width="0" transform=" rotate(0, 132, 160)"/>
  <rect fill="#006ca1" height="9" stroke-width="0" transform=" rotate(0, 138, 162)" width="9" x="134.1738" y="158.0132"/>
  <polygon fill="#006ca1" points="141.7909,164.4219 146.2909,155.4219 150.7909,164.4219" stroke-width="0" transform=" rotate(0, 146, 159)"/>
  <ellipse cx="156.2221" cy="159.6898" fill="#006ca1" rx="4.5" ry="4.5" stroke-width="0" transform=" rotate(0, 156, 159)"/>
  <rect fill="#006ca1" height="9" stroke-width="0" transform=" rotate(0, 172, 157)" width="9" x="168.3718" y="153.396"/>
  <polygon fill="#006ca1" points="177.0524,161.6497 181.5524,152.6497 186.0524,161.6497" stroke-width="0" transform=" rotate(0, 181, 157)"/>
  <ellipse cx="186.1783" cy="163.0699" fill="#006ca1" rx="4.5" ry="4.5" stroke-width="0" transform=" rotate(0, 186, 163)"/>
  <rect fill="#006ca1" height="9" stroke-width="0" transform=" rotate(0, 200, 161)" width="9" x="196.4765" y="156.6851"/>
  <polygon fill="#006ca1" points="208.3491,165.7445 212.8491,156.7445 217.3491,165.7445" stroke-width="0" transform=" rotate(0, 212, 161)"/>
  <ellipse cx="217.7763" cy="163.6566" fill="#006ca1" rx="4.5" ry="4.5" stroke-width="0" transform=" rotate(0, 217, 163)"/>
  <rect fill="#006ca1" height="9" stroke-width="0" transform=" rotate(0, 228, 156)" width="9" x="224.1432" y="151.9406"/>
  <polygon fill="#006ca1" points="234.4644,165.4647 238.9644,156.4647 243.4644,165.4647" stroke-width="0" transform=" rotate(0, 238, 160)"/>
  <ellipse cx="246.7354" cy="158.6147" fill="#006ca1" rx="4.5" ry="4.5" stroke-width="0" transform=" rotate(0, 246, 158)"/>
  <rect fill="#006ca1" height="9" stroke-width="0" transform=" rotate(0, 263, 160)" width="9" x="259.3132" y="156.0339"/>
  <polygon fill="#006ca1" points="269.3664,167.9387 273.8664,158.9387 278.3664,167.9387" stroke-width="0" transform=" rotate(0, 273, 163)"/>
  <ellipse cx="277.0834" cy="156.4676" fill="#006ca1" rx="4.5" ry="4.5" stroke-width="0" transform=" rotate(0, 277, 156)"/>
  <rect fill="#006ca1" height="9" stroke-width="0" transform=" rotate(0, 49, 172)" width="9" x="44.5405" y="167.8587"/>
  <polygon fill="#006ca1" points="59.2059,174.9326 63.7059,165.9326 68.2059,174.9326" stroke-width="0" transform=" rotate(0, 63, 170)"/>
  <ellipse cx="73.2267" cy="167.3724" fill="#006ca1" rx="4.5" ry="4.5" stroke-width="0" transform=" rotate(0, 73, 167)"/>
  <rect fill="#006ca1" height="9" stroke-width="0" transform=" rotate(0, 77, 168)" width="9" x="72.5707" y="164.4957"/>
  <polygon fill="#006ca1" points="85.249,174.5555 89.749,165.5555 94.249,174.5555" stroke-width="0" transform=" rotate(0, 89, 170)"/>
  <ellipse cx="99.3335" cy="171.9031" fill="#006ca1" rx="4.5" ry="4.5" stroke-width="0" transform=" rotate(0, 99, 171)"/>
  <rect fill="#006ca1" height="9" stroke-width="0" transform=" rotate(0, 110, 166)" width="9" x="106.3755" y="162.0958"/>
  <polygon fill="#006ca1" points="115.4051,170.9217 119.9051,161.9217 124.4051,170.9217" stroke-width="0" transform=" rotate(0, 119, 166)"/>
  <ellipse cx="128.9966" cy="166.5986" fill="#006ca1" rx="4.5" ry="4.5" stroke-width="0" transform=" rotate(0, 128, 166)"/>
  <rect fill="#006ca1" height="9" stroke-width="0" transform=" rotate(0, 137, 168)" width="9" x="132.9315" y="164.4446"/>
  <polygon fill="#006ca1" points="147.3373,174.7933 151.8373,165.7933 156.3373,174.7933" stroke-width="0" transform=" rotate(0, 151, 170)"/>
  <ellipse cx="160.8891" cy="173.1849" fill="#006ca1" rx="4.5" ry="4.5" stroke-width="0" transform=" rotate(0, 160, 173)"/>
  <rect fill="#006ca1" height="9" stroke-width="0" transform=" rotate(0, 166, 172)" width="9" x="161.9077" y="168.488"/>
  <polygon fill="#006ca1" points="176.6882,173.6779 181.1882,164.6779 185.6882,173.6779" stroke-width="0" transform=" rotate(0, 181, 169)"/>
  <ellipse cx="193.3589" cy="172.4678" fill="#006ca1" rx="4.5" ry="4.5" stroke-width="0" transform=" rotate(0, 193, 172)"/>
  <rect fill="#006ca1" height="9" stroke-width="0" transform=" rotate(0, 200, 173)" width="9" x="195.6625" y="168.6905"/>
  <polygon fill="#006ca1" points="204.7522,174.2113 209.2522,165.2113 213.7522,174.2113" stroke-width="0" transform=" rotate(0, 209, 169)"/>
  <ellipse cx="221.9404" cy="167.1076" fill="#006ca1" rx="4.5" ry="4.5" stroke-width="0" transform=" rotate(0, 221, 167)"/>
  <rect fill="#006ca1" height="9" stroke-width="0" transform=" rotate(0, 231, 169)" width="9" x="227.0898" y="165.1601"/>
  <polygon fill="#006ca1" points="232.9766,173.642 237.4766,164.642 241.9766,173.642" stroke-width="0" transform=" rotate(0, 237, 169)"/>
  <ellipse cx="251.1036" cy="169.3194" fill="#006ca1" rx="4.5" ry="4.5" stroke-width="0" transform=" rotate(0, 251, 169)"/>
  <rect fill="#006ca1" height="9" stroke-width="0" transform=" rotate(0, 262, 166)" width="9" x="257.9335" y="162.3874"/>
  <polygon fill="#006ca1" points="268.7229,174.2035 273.2229,165.2035 277.7229,174.2035" stroke-width="0" transform=" rotate(0, 273, 169)"/>
  <ellipse cx="278.2151" cy="170.6741" fill="#006ca1" rx="4.5" ry="4.5" stroke-width="0" transform=" rotate(0, 278, 170)"/>
  <rect fill="#1b9fd8" height="7" stroke-width="0" transform=" rotate(0, 48, 182)" width="7" x="45.3065" y="178.9923"/>
  <polygon fill="#1b9fd8" points="53.4944,181.2359 56.9944,174.2359 60.4944,181.2359" stroke-width="0" transform=" rotate(0, 56, 177)"/>
  <ellipse cx="66.5839" cy="177.5597" fill="#1b9fd8" rx="3.5" ry="3.5" stroke-width="0" transform=" rotate(0, 66, 177)"/>
  <rect fill="#1b9fd8" height="7" stroke-width="0" transform=" rotate(0, 76, 182)" width="7" x="73.2934" y="178.5775"/>
  <polygon fill="#1b9fd8" points="89.9321,180.7634 93.4321,173.7634 96.9321,180.7634" stroke-width="0" transform=" rotate(0, 93, 177)"/>
  <ellipse cx="103.7897" cy="179.0468" fill="#1b9fd8" rx="3.5" ry="3.5" stroke-width="0" transform=" rotate(0, 103, 179)"/>
  <rect fill="#1b9fd8" height="7" stroke-width="0" transform=" rotate(0, 110, 180)" width="7" x="107.1125" y="177.0885"/>
  <polygon fill="#1b9fd8" points="116.3637,182.9622 119.8637,175.9622 123.3637,182.9622" stroke-width="0" transform=" rotate(0, 119, 179)"/>
  <ellipse cx="133.4097" cy="183.5969" fill="#1b9fd8" rx="3.5" ry="3.5" stroke-width="0" transform=" rotate(0, 133, 183)"/>
  <rect fill="#1b9fd8" height="7" stroke-width="0" transform=" rotate(0, 143, 176)" width="7" x="140.4672" y="173.3398"/>
  <polygon fill="#1b9fd8" points="148.2549,180.0777 151.7549,173.0777 155.2549,180.0777" stroke-width="0" transform=" rotate(0, 151, 176)"/>
  <ellipse cx="159.8058" cy="183.3141" fill="#1b9fd8" rx="3.5" ry="3.5" stroke-width="0" transform=" rotate(0, 159, 183)"/>
  <rect fill="#1b9fd8" height="7" stroke-width="0" transform=" rotate(0, 172, 180)" width="7" x="168.7557" y="177.3278"/>
  <polygon fill="#1b9fd8" points="175.9883,185.8872 179.4883,178.8872 182.9883,185.8872" stroke-width="0" transform=" rotate(0, 179, 182)"/>
  <ellipse cx="189.2262" cy="176.1207" fill="#1b9fd8" rx="3.5" ry="3.5" stroke-width="0" transform=" rotate(0, 189, 176)"/>
  <rect fill="#1b9fd8" height="7" stroke-width="0" transform=" rotate(0, 200, 176)" width="7" x="197.1393" y="173.1074"/>
  <polygon fill="#1b9fd8" points="209.9827,185.9933 213.4827,178.9933 216.9827,185.9933" stroke-width="0" transform=" rotate(0, 213, 182)"/>
  <ellipse cx="219.7443" cy="177.5644" fill="#1b9fd8" rx="3.5" ry="3.5" stroke-width="0" transform=" rotate(0, 219, 177)"/>
  <rect fill="#1b9fd8" height="7" stroke-width="0" transform=" rotate(0, 230, 182)" width="7" x="227.0532" y="178.9785"/>
  <polygon fill="#1b9fd8" points="235.3156,179.8916 238.8156,172.8916 242.3156,179.8916" stroke-width="0" transform=" rotate(0, 238, 176)"/>
  <ellipse cx="246.9976" cy="181.5588" fill="#1b9fd8" rx="3.5" ry="3.5" stroke-width="0" transform=" rotate(0, 246, 181)"/>
  <rect fill="#1b9fd8" height="7" stroke-width="0" transform=" rotate(0, 262, 176)" width="7" x="258.8838" y="173.2279"/>
  <polygon fill="#1b9fd8" points="266.7313,179.8997 270.2313,172.8997 273.7313,179.8997" stroke-width="0" transform=" rotate(0, 270, 176)"/>
  <ellipse cx="276.7591" cy="180.8225" fill="#1b9fd8" rx="3.5" ry="3.5" stroke-width="0" transform=" rotate(0, 276, 180)"/>
  <rect fill="#6dd6ff" height="5" stroke-width="0" transform=" rotate(0, 49, 188)" width="5" x="47.2186" y="186.1833"/>
  <polygon fill="#6dd6ff" points="61.435,195.3977 63.935,190.3977 66.435,195.3977" stroke-width="0" transform=" rotate(0, 63, 192)"/>
  <ellipse cx="67.5149" cy="192.939" fill="#6dd6ff" rx="2.5" ry="2.5" stroke-width="0" transform=" rotate(0, 67, 192)"/>
  <rect fill="#6dd6ff" height="5" stroke-width="0" transform=" rotate(0, 83, 189)" width="5" x="80.5346" y="186.6142"/>
  <polygon fill="#6dd6ff" points="86.2406,195.6805 88.7406,190.6805 91.2406,195.6805" stroke-width="0" transform=" rotate(0, 88, 193)"/>
  <ellipse cx="96.7299" cy="190.5101" fill="#6dd6ff" rx="2.5" ry="2.5" stroke-width="0" transform=" rotate(0, 96, 190)"/>
  <rect fill="#6dd6ff" height="5" stroke-width="0" transform=" rotate(0, 108, 189)" width="5" x="106.1263" y="186.6811"/>
  <polygon fill="#6dd6ff" points="118.8431,188.9223 121.3431,183.9223 123.8431,188.9223" stroke-width="0" transform=" rotate(0, 121, 186)"/>
  <ellipse cx="132.7285" cy="193.5097" fill="#6dd6ff" rx="2.5" ry="2.5" stroke-width="0" transform=" rotate(0, 132, 193)"/>
  <rect fill="#6dd6ff" height="5" stroke-width="0" transform=" rotate(0, 137, 187)" width="5" x="135.0958" y="184.7781"/>
  <polygon fill="#6dd6ff" points="150.4151,190.2699 152.9151,185.2699 155.4151,190.2699" stroke-width="0" transform=" rotate(0, 152, 187)"/>
  <ellipse cx="158.4975" cy="191.8452" fill="#6dd6ff" rx="2.5" ry="2.5" stroke-width="0" transform=" rotate(0, 158, 191)"/>
  <rect fill="#6dd6ff" height="5" stroke-width="0" transform=" rotate(0, 166, 192)" width="5" x="164.3944" y="190.3812"/>
  <polygon fill="#6dd6ff" points="180.8198,191.0406 183.3198,186.0406 185.8198,191.0406" stroke-width="0" transform=" rotate(0, 183, 188)"/>
  <ellipse cx="187.1353" cy="187.6947" fill="#6dd6ff" rx="2.5" ry="2.5" stroke-width="0" transform=" rotate(0, 187, 187)"/>
  <rect fill="#6dd6ff" height="5" stroke-width="0" transform=" rotate(0, 202, 190)" width="5" x="199.5868" y="188.11"/>
  <polygon fill="#6dd6ff" points="204.8458,194.6764 207.3458,189.6764 209.8458,194.6764" stroke-width="0" transform=" rotate(0, 207, 192)"/>
  <ellipse cx="217.8342" cy="189.0826" fill="#6dd6ff" rx="2.5" ry="2.5" stroke-width="0" transform=" rotate(0, 217, 189)"/>
  <rect fill="#6dd6ff" height="5" stroke-width="0" transform=" rotate(0, 229, 186)" width="5" x="226.6645" y="183.5027"/>
  <polygon fill="#6dd6ff" points="238.7099,195.2436 241.2099,190.2436 243.7099,195.2436" stroke-width="0" transform=" rotate(0, 241, 192)"/>
  <ellipse cx="249.3376" cy="186.8551" fill="#6dd6ff" rx="2.5" ry="2.5" stroke-width="0" transform=" rotate(0, 249, 186)"/>
  <rect fill="#6dd6ff" height="5" stroke-width="0" transform=" rotate(0, 261, 186)" width="5" x="259.1024" y="183.5925"/>
  <polygon fill="#6dd6ff" points="268.0057,194.2047 270.5057,189.2047 273.0057,194.2047" stroke-width="0" transform=" rotate(0, 270, 191)"/>
  <ellipse cx="276.7895" cy="188.6788" fill="#6dd6ff" rx="2.5" ry="2.5" stroke-width="0" transform=" rotate(0, 276, 188)"/>
  <rect fill="#006ca1" height="9" stroke-width="0" transform=" rotate(0, 48, 197)" width="9" x="43.6256" y="192.7741"/>
  <polygon fill="#006ca1" points="51.8666,203.1847 56.3666,194.1847 60.8666,203.1847" stroke-width="0" transform=" rotate(0, 56, 198)"/>
  <ellipse cx="72.3091" cy="196.5865" fill="#006ca1" rx="4.5" ry="4.5" stroke-width="0" transform=" rotate(0, 72, 196)"/>
  <rect fill="#006ca1" height="9" stroke-width="0" transform=" rotate(0, 79, 203)" width="9" x="75.2837" y="199.1869"/>
  <polygon fill="#006ca1" points="85.9777,205.4142 90.4777,196.4142 94.9777,205.4142" stroke-width="0" transform=" rotate(0, 90, 200)"/>
  <ellipse cx="102.9043" cy="195.9353" fill="#006ca1" rx="4.5" ry="4.5" stroke-width="0" transform=" rotate(0, 102, 195)"/>
  <rect fill="#006ca1" height="9" stroke-width="0" transform=" rotate(0, 106, 199)" width="9" x="101.5556" y="195.3337"/>
  <polygon fill="#006ca1" points="114.2121,207.9483 118.7121,198.9483 123.2121,207.9483" stroke-width="0" transform=" rotate(0, 118, 203)"/>
  <ellipse cx="126.2727" cy="196.6546" fill="#006ca1" rx="4.5" ry="4.5" stroke-width="0" transform=" rotate(0, 126, 196)"/>
  <rect fill="#006ca1" height="9" stroke-width="0" transform=" rotate(0, 137, 198)" width="9" x="132.8195" y="193.7918"/>
  <polygon fill="#006ca1" points="145.7529,201.9478 150.2529,192.9478 154.7529,201.9478" stroke-width="0" transform=" rotate(0, 150, 197)"/>
  <ellipse cx="159.6432" cy="203.0161" fill="#006ca1" rx="4.5" ry="4.5" stroke-width="0" transform=" rotate(0, 159, 203)"/>
  <rect fill="#006ca1" height="9" stroke-width="0" transform=" rotate(0, 166, 203)" width="9" x="161.7399" y="199.0092"/>
  <polygon fill="#006ca1" points="178.7944,203.0638 183.2944,194.0638 187.7944,203.0638" stroke-width="0" transform=" rotate(0, 183, 198)"/>
  <ellipse cx="193.7768" cy="202.0604" fill="#006ca1" rx="4.5" ry="4.5" stroke-width="0" transform=" rotate(0, 193, 202)"/>
  <rect fill="#006ca1" height="9" stroke-width="0" transform=" rotate(0, 196, 195)" width="9" x="191.7143" y="191.4371"/>
  <polygon fill="#006ca1" points="208.8387,202.5561 213.3387,193.5561 217.8387,202.5561" stroke-width="0" transform=" rotate(0, 213, 198)"/>
  <ellipse cx="220.9753" cy="199.1719" fill="#006ca1" rx="4.5" ry="4.5" stroke-width="0" transform=" rotate(0, 220, 199)"/>
  <rect fill="#006ca1" height="9" stroke-width="0" transform=" rotate(0, 230, 197)" width="9" x="225.6768" y="193.0887"/>
  <polygon fill="#006ca1" points="231.6314,205.1814 236.1314,196.1814 240.6314,205.1814" stroke-width="0" transform=" rotate(0, 236, 200)"/>
  <ellipse cx="249.0349" cy="196.8511" fill="#006ca1" rx="4.5" ry="4.5" stroke-width="0" transform=" rotate(0, 249, 196)"/>
  <rect fill="#006ca1" height="9" stroke-width="0" transform=" rotate(0, 256, 200)" width="9" x="252.3074" y="196.4881"/>
  <polygon fill="#006ca1" points="266.8392,206.5364 271.3392,197.5364 275.8392,206.5364" stroke-width="0" transform=" rotate(0, 271, 202)"/>
  <ellipse cx="281.0247" cy="198.8078" fill="#006ca1" rx="4.5" ry="4.5" stroke-width="0" transform=" rotate(0, 281, 198)"/>
  <rect fill="#1b9fd8" height="7" stroke-width="0" transform=" rotate(0, 46, 207)" width="7" x="42.9519" y="203.7538"/>
  <polygon fill="#1b9fd8" points="54.8429,213.6711 58.3429,206.6711 61.8429,213.6711" stroke-width="0" transform=" rotate(0, 58, 210)"/>
  <ellipse cx="67.5068" cy="208.0982" fill="#1b9fd8" rx="3.5" ry="3.5" stroke-width="0" transform=" rotate(0, 67, 208)"/>
  <rect fill="#1b9fd8" height="7" stroke-width="0" transform=" rotate(0, 79, 209)" width="7" x="75.8824" y="205.7986"/>
  <polygon fill="#1b9fd8" points="88.0582,216.2797 91.5582,209.2797 95.0582,216.2797" stroke-width="0" transform=" rotate(0, 91, 212)"/>
  <ellipse cx="102.6567" cy="209.6611" fill="#1b9fd8" rx="3.5" ry="3.5" stroke-width="0" transform=" rotate(0, 102, 209)"/>
  <rect fill="#1b9fd8" height="7" stroke-width="0" transform=" rotate(0, 112, 209)" width="7" x="109.27" y="205.695"/>
  <polygon fill="#1b9fd8" points="114.539,210.3936 118.039,203.3936 121.539,210.3936" stroke-width="0" transform=" rotate(0, 118, 206)"/>
  <ellipse cx="130.5849" cy="212.9989" fill="#1b9fd8" rx="3.5" ry="3.5" stroke-width="0" transform=" rotate(0, 130, 212)"/>
  <rect fill="#1b9fd8" height="7" stroke-width="0" transform=" rotate(0, 139, 211)" width="7" x="135.9" y="207.8887"/>
  <polygon fill="#1b9fd8" points="146.7163,215.8798 150.2163,208.8798 153.7163,215.8798" stroke-width="0" transform=" rotate(0, 150, 212)"/>
  <ellipse cx="161.1414" cy="207.0377" fill="#1b9fd8" rx="3.5" ry="3.5" stroke-width="0" transform=" rotate(0, 161, 207)"/>
  <rect fill="#1b9fd8" height="7" stroke-width="0" transform=" rotate(0, 167, 212)" width="7" x="163.7393" y="208.7279"/>
  <polygon fill="#1b9fd8" points="180.0816,210.6063 183.5816,203.6063 187.0816,210.6063" stroke-width="0" transform=" rotate(0, 183, 207)"/>
  <ellipse cx="192.3956" cy="213.7568" fill="#1b9fd8" rx="3.5" ry="3.5" stroke-width="0" transform=" rotate(0, 192, 213)"/>
  <rect fill="#1b9fd8" height="7" stroke-width="0" transform=" rotate(0, 198, 209)" width="7" x="194.619" y="205.8977"/>
  <polygon fill="#1b9fd8" points="205.2677,212.5256 208.7677,205.5256 212.2677,212.5256" stroke-width="0" transform=" rotate(0, 208, 209)"/>
  <ellipse cx="221.4384" cy="211.7238" fill="#1b9fd8" rx="3.5" ry="3.5" stroke-width="0" transform=" rotate(0, 221, 211)"/>
  <rect fill="#1b9fd8" height="7" stroke-width="0" transform=" rotate(0, 233, 211)" width="7" x="230.4618" y="207.7293"/>
  <polygon fill="#1b9fd8" points="233.7594,209.9815 237.2594,202.9815 240.7594,209.9815" stroke-width="0" transform=" rotate(0, 237, 206)"/>
  <ellipse cx="253.7943" cy="207.5838" fill="#1b9fd8" rx="3.5" ry="3.5" stroke-width="0" transform=" rotate(0, 253, 207)"/>
  <rect fill="#1b9fd8" height="7" stroke-width="0" transform=" rotate(0, 263, 211)" width="7" x="259.5433" y="207.8889"/>
  <polygon fill="#1b9fd8" points="263.2859,214.3633 266.7859,207.3633 270.2859,214.3633" stroke-width="0" transform=" rotate(0, 266, 210)"/>
  <ellipse cx="280.0934" cy="209.4815" fill="#1b9fd8" rx="3.5" ry="3.5" stroke-width="0" transform=" rotate(0, 280, 209)"/>
  <rect fill="#6dd6ff" height="5" stroke-width="0" transform=" rotate(0, 51, 221)" width="5" x="48.6178" y="218.7395"/>
  <polygon fill="#6dd6ff" points="60.9079,219.8884 63.4079,214.8884 65.9079,219.8884" stroke-width="0" transform=" rotate(0, 63, 217)"/>
  <ellipse cx="72.1076" cy="219.3733" fill="#6dd6ff" rx="2.5" ry="2.5" stroke-width="0" transform=" rotate(0, 72, 219)"/>
  <rect fill="#6dd6ff" height="5" stroke-width="0" transform=" rotate(0, 80, 221)" width="5" x="77.6598" y="219.2928"/>
  <polygon fill="#6dd6ff" points="85.4448,222.3597 87.9448,217.3597 90.4448,222.3597" stroke-width="0" transform=" rotate(0, 87, 219)"/>
  <ellipse cx="101.1528" cy="217.6035" fill="#6dd6ff" rx="2.5" ry="2.5" stroke-width="0" transform=" rotate(0, 101, 217)"/>
  <rect fill="#6dd6ff" height="5" stroke-width="0" transform=" rotate(0, 107, 223)" width="5" x="104.8896" y="220.5985"/>
  <polygon fill="#6dd6ff" points="116.0204,219.9929 118.5204,214.9929 121.0204,219.9929" stroke-width="0" transform=" rotate(0, 118, 217)"/>
  <ellipse cx="129.177" cy="223.5434" fill="#6dd6ff" rx="2.5" ry="2.5" stroke-width="0" transform=" rotate(0, 129, 223)"/>
  <rect fill="#6dd6ff" height="5" stroke-width="0" transform=" rotate(0, 139, 217)" width="5" x="137.3569" y="215.0517"/>
  <polygon fill="#6dd6ff" points="145.5451,219.8403 148.0451,214.8403 150.5451,219.8403" stroke-width="0" transform=" rotate(0, 148, 217)"/>
  <ellipse cx="159.5759" cy="220.0527" fill="#6dd6ff" rx="2.5" ry="2.5" stroke-width="0" transform=" rotate(0, 159, 220)"/>
  <rect fill="#6dd6ff" height="5" stroke-width="0" transform=" rotate(0, 172, 217)" width="5" x="169.6273" y="215.4355"/>
  <polygon fill="#6dd6ff" points="175.4509,225.2448 177.9509,220.2448 180.4509,225.2448" stroke-width="0" transform=" rotate(0, 177, 222)"/>
  <ellipse cx="192.6826" cy="220.8671" fill="#6dd6ff" rx="2.5" ry="2.5" stroke-width="0" transform=" rotate(0, 192, 220)"/>
  <rect fill="#6dd6ff" height="5" stroke-width="0" transform=" rotate(0, 203, 222)" width="5" x="201.207" y="220.1006"/>
  <polygon fill="#6dd6ff" points="209.4535,221.2869 211.9535,216.2869 214.4535,221.2869" stroke-width="0" transform=" rotate(0, 211, 218)"/>
  <ellipse cx="218.1284" cy="217.7618" fill="#6dd6ff" rx="2.5" ry="2.5" stroke-width="0" transform=" rotate(0, 218, 217)"/>
  <rect fill="#6dd6ff" height="5" stroke-width="0" transform=" rotate(0, 229, 216)" width="5" x="227.3745" y="213.5967"/>
  <polygon fill="#6dd6ff" points="239.2399,224.687 241.7399,219.687 244.2399,224.687" stroke-width="0" transform=" rotate(0, 241, 222)"/>
  <ellipse cx="247.2065" cy="218.4457" fill="#6dd6ff" rx="2.5" ry="2.5" stroke-width="0" transform=" rotate(0, 247, 218)"/>
  <rect fill="#6dd6ff" height="5" stroke-width="0" transform=" rotate(0, 262, 216)" width="5" x="260.047" y="213.6967"/>
  <polygon fill="#6dd6ff" points="265.0027,222.3564 267.5027,217.3564 270.0027,222.3564" stroke-width="0" transform=" rotate(0, 267, 219)"/>
  <ellipse cx="276.6514" cy="221.5637" fill="#6dd6ff" rx="2.5" ry="2.5" stroke-width="0" transform=" rotate(0, 276, 221)"/>
  <rect fill="#006ca1" height="9" stroke-width="0" transform=" rotate(0, 53, 226)" width="9" x="48.994" y="222.2843"/>
  <polygon fill="#006ca1" points="56.7884,231.5737 61.2884,222.5737 65.7884,231.5737" stroke-width="0" transform=" rotate(0, 61, 227)"/>
  <ellipse cx="69.1235" cy="232.0443" fill="#006ca1" rx="4.5" ry="4.5" stroke-width="0" transform=" rotate(0, 69, 232)"/>
  <rect fill="#006ca1" height="9" stroke-width="0" transform=" rotate(0, 83, 233)" width="9" x="78.7279" y="229.0585"/>
  <polygon fill="#006ca1" points="87.9739,237.026 92.4739,228.026 96.9739,237.026" stroke-width="0" transform=" rotate(0, 92, 232)"/>
  <ellipse cx="103.7239" cy="229.8369" fill="#006ca1" rx="4.5" ry="4.5" stroke-width="0" transform=" rotate(0, 103, 229)"/>
  <rect fill="#006ca1" height="9" stroke-width="0" transform=" rotate(0, 110, 226)" width="9" x="106.2356" y="221.5036"/>
  <polygon fill="#006ca1" points="117.6498,235.7421 122.1498,226.7421 126.6498,235.7421" stroke-width="0" transform=" rotate(0, 122, 231)"/>
  <ellipse cx="131.8432" cy="227.9744" fill="#006ca1" rx="4.5" ry="4.5" stroke-width="0" transform=" rotate(0, 131, 227)"/>
  <rect fill="#006ca1" height="9" stroke-width="0" transform=" rotate(0, 136, 233)" width="9" x="132.107" y="228.7085"/>
  <polygon fill="#006ca1" points="145.4869,231.8923 149.9869,222.8923 154.4869,231.8923" stroke-width="0" transform=" rotate(0, 149, 227)"/>
  <ellipse cx="161.995" cy="230.8849" fill="#006ca1" rx="4.5" ry="4.5" stroke-width="0" transform=" rotate(0, 161, 230)"/>
  <rect fill="#006ca1" height="9" stroke-width="0" transform=" rotate(0, 166, 229)" width="9" x="162.1964" y="224.9195"/>
  <polygon fill="#006ca1" points="178.8332,235.7242 183.3332,226.7242 187.8332,235.7242" stroke-width="0" transform=" rotate(0, 183, 231)"/>
  <ellipse cx="189.338" cy="233.2254" fill="#006ca1" rx="4.5" ry="4.5" stroke-width="0" transform=" rotate(0, 189, 233)"/>
  <rect fill="#006ca1" height="9" stroke-width="0" transform=" rotate(0, 201, 233)" width="9" x="197.3907" y="228.7716"/>
  <polygon fill="#006ca1" points="203.6564,235.0414 208.1564,226.0414 212.6564,235.0414" stroke-width="0" transform=" rotate(0, 208, 230)"/>
  <ellipse cx="220.8936" cy="227.9273" fill="#006ca1" rx="4.5" ry="4.5" stroke-width="0" transform=" rotate(0, 220, 227)"/>
  <rect fill="#006ca1" height="9" stroke-width="0" transform=" rotate(0, 233, 227)" width="9" x="229.1114" y="222.9372"/>
  <polygon fill="#006ca1" points="235.4739,232.0358 239.9739,223.0358 244.4739,232.0358" stroke-width="0" transform=" rotate(0, 239, 227)"/>
  <ellipse cx="252.3703" cy="229.5453" fill="#006ca1" rx="4.5" ry="4.5" stroke-width="0" transform=" rotate(0, 252, 229)"/>
  <rect fill="#006ca1" height="9" stroke-width="0" transform=" rotate(0, 256, 228)" width="9" x="252.1581" y="223.7162"/>
  <polygon fill="#006ca1" points="268.9129,237.9801 273.4129,228.9801 277.9129,237.9801" stroke-width="0" transform=" rotate(0, 273, 233)"/>
  <ellipse cx="278.6558" cy="230.5026" fill="#006ca1" rx="4.5" ry="4.5" stroke-width="0" transform=" rotate(0, 278, 230)"/>
  <rect fill="#1b9fd8" height="7" stroke-width="0" transform=" rotate(0, 47, 236)" width="7" x="44.4235" y="232.7284"/>
  <polygon fill="#1b9fd8" points="52.9855,240.8079 56.4855,233.8079 59.9855,240.8079" stroke-width="0" transform=" rotate(0, 56, 237)"/>
  <ellipse cx="67.8864" cy="240.055" fill="#1b9fd8" rx="3.5" ry="3.5" stroke-width="0" transform=" rotate(0, 67, 240)"/>
  <rect fill="#1b9fd8" height="7" stroke-width="0" transform=" rotate(0, 77, 236)" width="7" x="73.523" y="233.2018"/>
  <polygon fill="#1b9fd8" points="83.2344,244.0102 86.7344,237.0102 90.2344,244.0102" stroke-width="0" transform=" rotate(0, 86, 240)"/>
  <ellipse cx="96.3344" cy="237.8706" fill="#1b9fd8" rx="3.5" ry="3.5" stroke-width="0" transform=" rotate(0, 96, 237)"/>
  <rect fill="#1b9fd8" height="7" stroke-width="0" transform=" rotate(0, 106, 240)" width="7" x="102.5359" y="237.3339"/>
  <polygon fill="#1b9fd8" points="116.5812,243.7328 120.0812,236.7328 123.5812,243.7328" stroke-width="0" transform=" rotate(0, 120, 240)"/>
  <ellipse cx="132.5274" cy="240.7382" fill="#1b9fd8" rx="3.5" ry="3.5" stroke-width="0" transform=" rotate(0, 132, 240)"/>
  <rect fill="#1b9fd8" height="7" stroke-width="0" transform=" rotate(0, 142, 236)" width="7" x="139.3266" y="233.3896"/>
  <polygon fill="#1b9fd8" points="144.8175,240.0937 148.3175,233.0937 151.8175,240.0937" stroke-width="0" transform=" rotate(0, 148, 236)"/>
  <ellipse cx="162.2914" cy="241.7017" fill="#1b9fd8" rx="3.5" ry="3.5" stroke-width="0" transform=" rotate(0, 162, 241)"/>
  <rect fill="#1b9fd8" height="7" stroke-width="0" transform=" rotate(0, 170, 238)" width="7" x="167.1857" y="234.6631"/>
  <polygon fill="#1b9fd8" points="173.3221,240.9251 176.8221,233.9251 180.3221,240.9251" stroke-width="0" transform=" rotate(0, 176, 237)"/>
  <ellipse cx="188.2688" cy="238.2642" fill="#1b9fd8" rx="3.5" ry="3.5" stroke-width="0" transform=" rotate(0, 188, 238)"/>
  <rect fill="#1b9fd8" height="7" stroke-width="0" transform=" rotate(0, 202, 236)" width="7" x="198.5888" y="233.2978"/>
  <polygon fill="#1b9fd8" points="203.5552,245.9979 207.0552,238.9979 210.5552,245.9979" stroke-width="0" transform=" rotate(0, 207, 242)"/>
  <ellipse cx="220.7051" cy="236.4318" fill="#1b9fd8" rx="3.5" ry="3.5" stroke-width="0" transform=" rotate(0, 220, 236)"/>
  <rect fill="#1b9fd8" height="7" stroke-width="0" transform=" rotate(0, 226, 242)" width="7" x="223.4699" y="238.8059"/>
  <polygon fill="#1b9fd8" points="235.0337,246.6114 238.5337,239.6114 242.0337,246.6114" stroke-width="0" transform=" rotate(0, 238, 243)"/>
  <ellipse cx="250.0157" cy="238.7287" fill="#1b9fd8" rx="3.5" ry="3.5" stroke-width="0" transform=" rotate(0, 250, 238)"/>
  <rect fill="#1b9fd8" height="7" stroke-width="0" transform=" rotate(0, 256, 236)" width="7" x="253.184" y="233.2529"/>
  <polygon fill="#1b9fd8" points="270.3368,239.7424 273.8368,232.7424 277.3368,239.7424" stroke-width="0" transform=" rotate(0, 273, 236)"/>
  <ellipse cx="281.2451" cy="241.4864" fill="#1b9fd8" rx="3.5" ry="3.5" stroke-width="0" transform=" rotate(0, 281, 241)"/>
  <rect fill="#6dd6ff" height="5" stroke-width="0" transform=" rotate(0, 47, 250)" width="5" x="44.9331" y="247.8977"/>
  <polygon fill="#6dd6ff" points="54.1969,249.9422 56.6969,244.9422 59.1969,249.9422" stroke-width="0" transform=" rotate(0, 56, 247)"/>
  <ellipse cx="70.3924" cy="253.5068" fill="#6dd6ff" rx="2.5" ry="2.5" stroke-width="0" transform=" rotate(0, 70, 253)"/>
  <rect fill="#6dd6ff" height="5" stroke-width="0" transform=" rotate(0, 79, 253)" width="5" x="77.1755" y="250.9077"/>
  <polygon fill="#6dd6ff" points="86.1453,253.1268 88.6453,248.1268 91.1453,253.1268" stroke-width="0" transform=" rotate(0, 88, 250)"/>
  <ellipse cx="101.272" cy="248.2241" fill="#6dd6ff" rx="2.5" ry="2.5" stroke-width="0" transform=" rotate(0, 101, 248)"/>
  <rect fill="#6dd6ff" height="5" stroke-width="0" transform=" rotate(0, 113, 251)" width="5" x="110.7641" y="248.6758"/>
  <polygon fill="#6dd6ff" points="116.6328,255.7691 119.1328,250.7691 121.6328,255.7691" stroke-width="0" transform=" rotate(0, 119, 253)"/>
  <ellipse cx="127.5295" cy="252.5512" fill="#6dd6ff" rx="2.5" ry="2.5" stroke-width="0" transform=" rotate(0, 127, 252)"/>
  <rect fill="#6dd6ff" height="5" stroke-width="0" transform=" rotate(0, 141, 253)" width="5" x="138.8421" y="250.6855"/>
  <polygon fill="#6dd6ff" points="145.385,254.7718 147.885,249.7718 150.385,254.7718" stroke-width="0" transform=" rotate(0, 147, 252)"/>
  <ellipse cx="158.1721" cy="250.9464" fill="#6dd6ff" rx="2.5" ry="2.5" stroke-width="0" transform=" rotate(0, 158, 250)"/>
  <rect fill="#6dd6ff" height="5" stroke-width="0" transform=" rotate(0, 170, 253)" width="5" x="168.4908" y="251.3474"/>
  <polygon fill="#6dd6ff" points="181.1357,248.7065 183.6357,243.7065 186.1357,248.7065" stroke-width="0" transform=" rotate(0, 183, 246)"/>
  <ellipse cx="185.9805" cy="248.4592" fill="#6dd6ff" rx="2.5" ry="2.5" stroke-width="0" transform=" rotate(0, 185, 248)"/>
  <rect fill="#6dd6ff" height="5" stroke-width="0" transform=" rotate(0, 202, 249)" width="5" x="199.5477" y="246.7492"/>
  <polygon fill="#6dd6ff" points="211.1657,251.6193 213.6657,246.6193 216.1657,251.6193" stroke-width="0" transform=" rotate(0, 213, 249)"/>
  <ellipse cx="220.946" cy="249.6862" fill="#6dd6ff" rx="2.5" ry="2.5" stroke-width="0" transform=" rotate(0, 220, 249)"/>
  <rect fill="#6dd6ff" height="5" stroke-width="0" transform=" rotate(0, 232, 250)" width="5" x="229.9107" y="248.1464"/>
  <polygon fill="#6dd6ff" points="237.2076,252.67 239.7076,247.67 242.2076,252.67" stroke-width="0" transform=" rotate(0, 239, 250)"/>
  <ellipse cx="252.8061" cy="251.8702" fill="#6dd6ff" rx="2.5" ry="2.5" stroke-width="0" transform=" rotate(0, 252, 251)"/>
  <rect fill="#6dd6ff" height="5" stroke-width="0" transform=" rotate(0, 261, 246)" width="5" x="259.079" y="243.951"/>
  <polygon fill="#6dd6ff" points="268.9708,251.7167 271.4708,246.7167 273.9708,251.7167" stroke-width="0" transform=" rotate(0, 271, 249)"/>
  <ellipse cx="276.212" cy="252.0028" fill="#6dd6ff" rx="2.5" ry="2.5" stroke-width="0" transform=" rotate(0, 276, 252)"/>
  <rect fill="#006ca1" height="9" stroke-width="0" transform=" rotate(0, 52, 263)" width="9" x="48.4423" y="258.5135"/>
  <polygon fill="#006ca1" points="53.3415,262.5843 57.8415,253.5843 62.3415,262.5843" stroke-width="0" transform=" rotate(0, 57, 258)"/>
  <ellipse cx="73.9188" cy="260.411" fill="#006ca1" rx="4.5" ry="4.5" stroke-width="0" transform=" rotate(0, 73, 260)"/>
  <rect fill="#006ca1" height="9" stroke-width="0" transform=" rotate(0, 77, 257)" width="9" x="72.6787" y="253.4693"/>
  <polygon fill="#006ca1" points="87.4571,261.1049 91.9571,252.1049 96.4571,261.1049" stroke-width="0" transform=" rotate(0, 91, 256)"/>
  <ellipse cx="96.9119" cy="261.8878" fill="#006ca1" rx="4.5" ry="4.5" stroke-width="0" transform=" rotate(0, 96, 261)"/>
  <rect fill="#006ca1" height="9" stroke-width="0" transform=" rotate(0, 109, 256)" width="9" x="105.368" y="252.1055"/>
  <polygon fill="#006ca1" points="113.7123,263.208 118.2123,254.208 122.7123,263.208" stroke-width="0" transform=" rotate(0, 118, 258)"/>
  <ellipse cx="131.9766" cy="257.1266" fill="#006ca1" rx="4.5" ry="4.5" stroke-width="0" transform=" rotate(0, 131, 257)"/>
  <rect fill="#006ca1" height="9" stroke-width="0" transform=" rotate(0, 137, 257)" width="9" x="133.0308" y="252.6534"/>
  <polygon fill="#006ca1" points="141.7082,262.3559 146.2082,253.3559 150.7082,262.3559" stroke-width="0" transform=" rotate(0, 146, 257)"/>
  <ellipse cx="162.5993" cy="263.5533" fill="#006ca1" rx="4.5" ry="4.5" stroke-width="0" transform=" rotate(0, 162, 263)"/>
  <rect fill="#006ca1" height="9" stroke-width="0" transform=" rotate(0, 170, 257)" width="9" x="165.6937" y="253.1151"/>
  <polygon fill="#006ca1" points="178.3658,263.7406 182.8658,254.7406 187.3658,263.7406" stroke-width="0" transform=" rotate(0, 182, 259)"/>
  <ellipse cx="187.3091" cy="261.2595" fill="#006ca1" rx="4.5" ry="4.5" stroke-width="0" transform=" rotate(0, 187, 261)"/>
  <rect fill="#006ca1" height="9" stroke-width="0" transform=" rotate(0, 200, 263)" width="9" x="195.7153" y="258.7898"/>
  <polygon fill="#006ca1" points="209.0972,263.262 213.5972,254.262 218.0972,263.262" stroke-width="0" transform=" rotate(0, 213, 258)"/>
  <ellipse cx="219.6962" cy="259.1544" fill="#006ca1" rx="4.5" ry="4.5" stroke-width="0" transform=" rotate(0, 219, 259)"/>
  <rect fill="#006ca1" height="9" stroke-width="0" transform=" rotate(0, 229, 259)" width="9" x="224.5119" y="255.3848"/>
  <polygon fill="#006ca1" points="233.6122,265.55 238.1122,256.55 242.6122,265.55" stroke-width="0" transform=" rotate(0, 238, 261)"/>
  <ellipse cx="248.6487" cy="257.3657" fill="#006ca1" rx="4.5" ry="4.5" stroke-width="0" transform=" rotate(0, 248, 257)"/>
  <rect fill="#006ca1" height="9" stroke-width="0" transform=" rotate(0, 261, 258)" width="9" x="256.9922" y="253.6127"/>
  <polygon fill="#006ca1" points="262.1241,263.5755 266.6241,254.5755 271.1241,263.5755" stroke-width="0" transform=" rotate(0, 266, 259)"/>
  <ellipse cx="278.5379" cy="259.6343" fill="#006ca1" rx="4.5" ry="4.5" stroke-width="0" transform=" rotate(0, 278, 259)"/>
  <rect fill="#1b9fd8" height="7" stroke-width="0" transform=" rotate(0, 49, 269)" width="7" x="45.5998" y="265.6051"/>
  <polygon fill="#1b9fd8" points="58.0421,277.0671 61.5421,270.0671 65.0421,277.0671" stroke-width="0" transform=" rotate(0, 61, 273)"/>
  <ellipse cx="69.8556" cy="266.0359" fill="#1b9fd8" rx="3.5" ry="3.5" stroke-width="0" transform=" rotate(0, 69, 266)"/>
  <rect fill="#1b9fd8" height="7" stroke-width="0" transform=" rotate(0, 81, 268)" width="7" x="78.3019" y="264.6083"/>
  <polygon fill="#1b9fd8" points="88.8515,275.2521 92.3515,268.2521 95.8515,275.2521" stroke-width="0" transform=" rotate(0, 92, 271)"/>
  <ellipse cx="96.4839" cy="272.1188" fill="#1b9fd8" rx="3.5" ry="3.5" stroke-width="0" transform=" rotate(0, 96, 272)"/>
  <rect fill="#1b9fd8" height="7" stroke-width="0" transform=" rotate(0, 107, 268)" width="7" x="103.9166" y="265.1519"/>
  <polygon fill="#1b9fd8" points="115.5395,269.4423 119.0395,262.4423 122.5395,269.4423" stroke-width="0" transform=" rotate(0, 119, 265)"/>
  <ellipse cx="132.1211" cy="272.8143" fill="#1b9fd8" rx="3.5" ry="3.5" stroke-width="0" transform=" rotate(0, 132, 272)"/>
  <rect fill="#1b9fd8" height="7" stroke-width="0" transform=" rotate(0, 143, 273)" width="7" x="140.4265" y="269.8422"/>
  <polygon fill="#1b9fd8" points="150.3873,270.9336 153.8873,263.9336 157.3873,270.9336" stroke-width="0" transform=" rotate(0, 153, 267)"/>
  <ellipse cx="162.1011" cy="268.6028" fill="#1b9fd8" rx="3.5" ry="3.5" stroke-width="0" transform=" rotate(0, 162, 268)"/>
  <rect fill="#1b9fd8" height="7" stroke-width="0" transform=" rotate(0, 167, 272)" width="7" x="163.971" y="268.8049"/>
  <polygon fill="#1b9fd8" points="180.3762,276.8482 183.8762,269.8482 187.3762,276.8482" stroke-width="0" transform=" rotate(0, 183, 273)"/>
  <ellipse cx="186.2451" cy="266.2912" fill="#1b9fd8" rx="3.5" ry="3.5" stroke-width="0" transform=" rotate(0, 186, 266)"/>
  <rect fill="#1b9fd8" height="7" stroke-width="0" transform=" rotate(0, 202, 273)" width="7" x="198.5764" y="269.8912"/>
  <polygon fill="#1b9fd8" points="203.2366,273.7995 206.7366,266.7995 210.2366,273.7995" stroke-width="0" transform=" rotate(0, 206, 270)"/>
  <ellipse cx="218.9408" cy="272.2308" fill="#1b9fd8" rx="3.5" ry="3.5" stroke-width="0" transform=" rotate(0, 218, 272)"/>
  <rect fill="#1b9fd8" height="7" stroke-width="0" transform=" rotate(0, 226, 268)" width="7" x="223.0537" y="265.2635"/>
  <polygon fill="#1b9fd8" points="237.8322,275.4006 241.3322,268.4006 244.8322,275.4006" stroke-width="0" transform=" rotate(0, 241, 271)"/>
  <ellipse cx="246.0431" cy="271.2566" fill="#1b9fd8" rx="3.5" ry="3.5" stroke-width="0" transform=" rotate(0, 246, 271)"/>
  <rect fill="#1b9fd8" height="7" stroke-width="0" transform=" rotate(0, 260, 270)" width="7" x="257.259" y="267.0179"/>
  <polygon fill="#1b9fd8" points="263.6795,275.2753 267.1795,268.2753 270.6795,275.2753" stroke-width="0" transform=" rotate(0, 267, 271)"/>
  <ellipse cx="282.933" cy="268.4979" fill="#1b9fd8" rx="3.5" ry="3.5" stroke-width="0" transform=" rotate(0, 282, 268)"/>
  <rect fill="#6dd6ff" height="5" stroke-width="0" transform=" rotate(0, 46, 280)" width="5" x="43.5487" y="278.3732"/>
  <polygon fill="#6dd6ff" points="60.6244,278.9269 63.1244,273.9269 65.6244,278.9269" stroke-width="0" transform=" rotate(0, 63, 276)"/>
  <ellipse cx="68.8794" cy="279.2134" fill="#6dd6ff" rx="2.5" ry="2.5" stroke-width="0" transform=" rotate(0, 68, 279)"/>
  <rect fill="#6dd6ff" height="5" stroke-width="0" transform=" rotate(0, 77, 282)" width="5" x="75.0408" y="280.1045"/>
  <polygon fill="#6dd6ff" points="88.3244,282.8201 90.8244,277.8201 93.3244,282.8201" stroke-width="0" transform=" rotate(0, 90, 280)"/>
  <ellipse cx="99.7874" cy="278.4724" fill="#6dd6ff" rx="2.5" ry="2.5" stroke-width="0" transform=" rotate(0, 99, 278)"/>
  <rect fill="#6dd6ff" height="5" stroke-width="0" transform=" rotate(0, 112, 281)" width="5" x="109.7014" y="278.5986"/>
  <polygon fill="#6dd6ff" points="115.0735,283.6225 117.5735,278.6225 120.0735,283.6225" stroke-width="0" transform=" rotate(0, 117, 281)"/>
  <ellipse cx="126.0928" cy="276.0693" fill="#6dd6ff" rx="2.5" ry="2.5" stroke-width="0" transform=" rotate(0, 126, 276)"/>
  <rect fill="#6dd6ff" height="5" stroke-width="0" transform=" rotate(0, 139, 281)" width="5" x="137.4261" y="279.4447"/>
  <polygon fill="#6dd6ff" points="146.7975,280.0275 149.2975,275.0275 151.7975,280.0275" stroke-width="0" transform=" rotate(0, 149, 277)"/>
  <ellipse cx="160.9326" cy="282.8946" fill="#6dd6ff" rx="2.5" ry="2.5" stroke-width="0" transform=" rotate(0, 160, 282)"/>
  <rect fill="#6dd6ff" height="5" stroke-width="0" transform=" rotate(0, 166, 280)" width="5" x="164.0477" y="278.1002"/>
  <polygon fill="#6dd6ff" points="176.2487,286.0349 178.7487,281.0349 181.2487,286.0349" stroke-width="0" transform=" rotate(0, 178, 283)"/>
  <ellipse cx="189.1131" cy="283.0745" fill="#6dd6ff" rx="2.5" ry="2.5" stroke-width="0" transform=" rotate(0, 189, 283)"/>
  <rect fill="#6dd6ff" height="5" stroke-width="0" transform=" rotate(0, 201, 278)" width="5" x="199.21" y="275.8616"/>
  <polygon fill="#6dd6ff" points="207.6087,286.267 210.1087,281.267 212.6087,286.267" stroke-width="0" transform=" rotate(0, 210, 283)"/>
  <ellipse cx="218.9768" cy="277.6711" fill="#6dd6ff" rx="2.5" ry="2.5" stroke-width="0" transform=" rotate(0, 218, 277)"/>
  <rect fill="#6dd6ff" height="5" stroke-width="0" transform=" rotate(0, 231, 276)" width="5" x="229.3718" y="273.9639"/>
  <polygon fill="#6dd6ff" points="235.4804,285.7066 237.9804,280.7066 240.4804,285.7066" stroke-width="0" transform=" rotate(0, 237, 283)"/>
  <ellipse cx="246.194" cy="282.9956" fill="#6dd6ff" rx="2.5" ry="2.5" stroke-width="0" transform=" rotate(0, 246, 282)"/>
  <rect fill="#6dd6ff" height="5" stroke-width="0" transform=" rotate(0, 259, 275)" width="5" x="257.3061" y="273.44"/>
  <polygon fill="#6dd6ff" points="271.2326,283.8461 273.7326,278.8461 276.2326,283.8461" stroke-width="0" transform=" rotate(0, 273, 281)"/>
  <ellipse cx="281.301" cy="280.1989" fill="#6dd6ff" rx="2.5" ry="2.5" stroke-width="0" transform=" rotate(0, 281, 280)"/>
</svg>
