<?xml version="1.0" encoding="utf-8" ?>
<svg baseProfile="tiny" height="330" version="1.2" width="330" xmlns="http://www.w3.org/2000/svg" xmlns:ev="http://www.w3.org/2001/xml-events" xmlns:xlink="http://www.w3.org/1999/xlink">
  <defs/>
  <rect fill="white" height="330" width="330" x="0" y="0"/>
  <rect fill="#6dd6ff" height="10" stroke-width="0" transform=" rotate(0, 51, 52)" width="10" x="46.7092" y="47.5434"/>
  <polygon fill="#6dd6ff" points="69.5939,56.4055 74.5939,46.4055 79.5939,56.4055" stroke-width="0" transform=" rotate(0, 74, 51)"/>
  <ellipse cx="96.8489" cy="50.7237" fill="#6dd6ff" rx="5.0" ry="5.0" stroke-width="0" transform=" rotate(0, 96, 50)"/>
  <rect fill="#6dd6ff" height="10" stroke-width="0" transform=" rotate(0, 111, 56)" width="10" x="106.4135" y="51.107"/>
  <polygon fill="#6dd6ff" points="133.3357,56.0881 138.3357,46.0881 143.3357,56.0881" stroke-width="0" transform=" rotate(0, 138, 51)"/>
  <ellipse cx="156.846" cy="52.2943" fill="#6dd6ff" rx="5.0" ry="5.0" stroke-width="0" transform=" rotate(0, 156, 52)"/>
  <rect fill="#6dd6ff" height="10" stroke-width="0" transform=" rotate(0, 175, 56)" width="10" x="170.1719" y="51.7775"/>
  <polygon fill="#6dd6ff" points="186.4797,61.2803 191.4797,51.2803 196.4797,61.2803" stroke-width="0" transform=" rotate(0, 191, 56)"/>
  <ellipse cx="217.9007" cy="56.2098" fill="#6dd6ff" rx="5.0" ry="5.0" stroke-width="0" transform=" rotate(0, 217, 56)"/>
  <rect fill="#6dd6ff" height="10" stroke-width="0" transform=" rotate(0, 234, 58)" width="10" x="229.0743" y="53.6562"/>
  <polygon fill="#6dd6ff" points="247.4437,61.037 252.4437,51.037 257.4437,61.037" stroke-width="0" transform=" rotate(0, 252, 56)"/>
  <ellipse cx="275.8638" cy="56.6047" fill="#6dd6ff" rx="5.0" ry="5.0" stroke-width="0" transform=" rotate(0, 275, 56)"/>
  <rect fill="#1b9fd8" height="14" stroke-width="0" transform=" rotate(0, 58, 74)" width="14" x="51.9028" y="67.1291"/>
  <polygon fill="#1b9fd8" points="65.1801,84.1985 72.1801,70.1985 79.1801,84.1985" stroke-width="0" transform=" rotate(0, 72, 77)"/>
  <ellipse cx="95.6067" cy="73.2184" fill="#1b9fd8" rx="7.0" ry="7.0" stroke-width="0" transform=" rotate(0, 95, 73)"/>
  <rect fill="#1b9fd8" height="14" stroke-width="0" transform=" rotate(0, 116, 78)" width="14" x="109.6473" y="71.6031"/>
  <polygon fill="#1b9fd8" points="125.078,81.9649 132.078,67.9649 139.078,81.9649" stroke-width="0" transform=" rotate(0, 132, 74)"/>
  <ellipse cx="155.1924" cy="73.2497" fill="#1b9fd8" rx="7.0" ry="7.0" stroke-width="0" transform=" rotate(0, 155, 73)"/>
  <rect fill="#1b9fd8" height="14" stroke-width="0" transform=" rotate(0, 176, 78)" width="14" x="169.5284" y="71.3286"/>
  <polygon fill="#1b9fd8" points="187.7751,85.5026 194.7751,71.5026 201.7751,85.5026" stroke-width="0" transform=" rotate(0, 194, 78)"/>
  <ellipse cx="212.1871" cy="78.2553" fill="#1b9fd8" rx="7.0" ry="7.0" stroke-width="0" transform=" rotate(0, 212, 78)"/>
  <rect fill="#1b9fd8" height="14" stroke-width="0" transform=" rotate(0, 236, 71)" width="14" x="229.3791" y="64.9646"/>
  <polygon fill="#1b9fd8" points="247.5198,81.123 254.5198,67.123 261.5198,81.123" stroke-width="0" transform=" rotate(0, 254, 74)"/>
  <ellipse cx="278.3356" cy="76.9507" fill="#1b9fd8" rx="7.0" ry="7.0" stroke-width="0" transform=" rotate(0, 278, 76)"/>
  <rect fill="#006ca1" height="18" stroke-width="0" transform=" rotate(0, 54, 96)" width="18" x="45.7029" y="87.0365"/>
  <polygon fill="#006ca1" points="66.7025,103.7711 75.7025,85.7711 84.7025,103.7711" stroke-width="0" transform=" rotate(0, 75, 94)"/>
  <ellipse cx="96.7032" cy="98.1811" fill="#006ca1" rx="9.0" ry="9.0" stroke-width="0" transform=" rotate(0, 96, 98)"/>
  <rect fill="#006ca1" height="18" stroke-width="0" transform=" rotate(0, 113, 92)" width="18" x="104.097" y="83.3238"/>
  <polygon fill="#006ca1" points="127.4782,102.7926 136.4782,84.7926 145.4782,102.7926" stroke-width="0" transform=" rotate(0, 136, 93)"/>
  <ellipse cx="158.9413" cy="97.759" fill="#006ca1" rx="9.0" ry="9.0" stroke-width="0" transform=" rotate(0, 158, 97)"/>
  <rect fill="#006ca1" height="18" stroke-width="0" transform=" rotate(0, 171, 96)" width="18" x="162.2487" y="87.4493"/>
  <polygon fill="#006ca1" points="185.0779,107.7933 194.0779,89.7933 203.0779,107.7933" stroke-width="0" transform=" rotate(0, 194, 98)"/>
  <ellipse cx="216.5692" cy="95.7193" fill="#006ca1" rx="9.0" ry="9.0" stroke-width="0" transform=" rotate(0, 216, 95)"/>
  <rect fill="#006ca1" height="18" stroke-width="0" transform=" rotate(0, 234, 95)" width="18" x="225.7121" y="86.5316"/>
  <polygon fill="#006ca1" points="249.9146,103.5655 258.9146,85.5655 267.9146,103.5655" stroke-width="0" transform=" rotate(0, 258, 94)"/>
  <ellipse cx="276.7147" cy="97.0818" fill="#006ca1" rx="9.0" ry="9.0" stroke-width="0" transform=" rotate(0, 276, 97)"/>
  <rect fill="#6dd6ff" height="10" stroke-width="0" transform=" rotate(0, 55, 110)" width="10" x="50.0206" y="105.7733"/>
  <polygon fill="#6dd6ff" points="73.687,117.2403 78.687,107.2403 83.687,117.2403" stroke-width="0" transform=" rotate(0, 78, 112)"/>
  <ellipse cx="96.386" cy="112.5832" fill="#6dd6ff" rx="5.0" ry="5.0" stroke-width="0" transform=" rotate(0, 96, 112)"/>
  <rect fill="#6dd6ff" height="10" stroke-width="0" transform=" rotate(0, 116, 115)" width="10" x="111.0903" y="110.0218"/>
  <polygon fill="#6dd6ff" points="130.751,123.8673 135.751,113.8673 140.751,123.8673" stroke-width="0" transform=" rotate(0, 135, 118)"/>
  <ellipse cx="156.0302" cy="113.7675" fill="#6dd6ff" rx="5.0" ry="5.0" stroke-width="0" transform=" rotate(0, 156, 113)"/>
  <rect fill="#6dd6ff" height="10" stroke-width="0" transform=" rotate(0, 176, 116)" width="10" x="171.3082" y="111.9258"/>
  <polygon fill="#6dd6ff" points="194.0527,120.4631 199.0527,110.4631 204.0527,120.4631" stroke-width="0" transform=" rotate(0, 199, 115)"/>
  <ellipse cx="213.6758" cy="118.6238" fill="#6dd6ff" rx="5.0" ry="5.0" stroke-width="0" transform=" rotate(0, 213, 118)"/>
  <rect fill="#6dd6ff" height="10" stroke-width="0" transform=" rotate(0, 238, 116)" width="10" x="233.7095" y="111.7205"/>
  <polygon fill="#6dd6ff" points="248.9707,123.6694 253.9707,113.6694 258.9707,123.6694" stroke-width="0" transform=" rotate(0, 253, 118)"/>
  <ellipse cx="273.0493" cy="118.7616" fill="#6dd6ff" rx="5.0" ry="5.0" stroke-width="0" transform=" rotate(0, 273, 118)"/>
  <rect fill="#1b9fd8" height="14" stroke-width="0" transform=" rotate(0, 51, 133)" width="14" x="44.4262" y="126.881"/>
  <polygon fill="#1b9fd8" points="71.7392,143.6863 78.7392,129.6863 85.7392,143.6863" stroke-width="0" transform=" rotate(0, 78, 136)"/>
  <ellipse cx="91.964" cy="135.0248" fill="#1b9fd8" rx="7.0" ry="7.0" stroke-width="0" transform=" rotate(0, 91, 135)"/>
  <rect fill="#1b9fd8" height="14" stroke-width="0" transform=" rotate(0, 114, 135)" width="14" x="107.0635" y="128.1859"/>
  <polygon fill="#1b9fd8" points="131.4312,145.9328 138.4312,131.9328 145.4312,145.9328" stroke-width="0" transform=" rotate(0, 138, 138)"/>
  <ellipse cx="157.0721" cy="135.4053" fill="#1b9fd8" rx="7.0" ry="7.0" stroke-width="0" transform=" rotate(0, 157, 135)"/>
  <rect fill="#1b9fd8" height="14" stroke-width="0" transform=" rotate(0, 173, 137)" width="14" x="166.0076" y="130.1533"/>
  <polygon fill="#1b9fd8" points="186.8435,141.6642 193.8435,127.6642 200.8435,141.6642" stroke-width="0" transform=" rotate(0, 193, 134)"/>
  <ellipse cx="214.5105" cy="135.5559" fill="#1b9fd8" rx="7.0" ry="7.0" stroke-width="0" transform=" rotate(0, 214, 135)"/>
  <rect fill="#1b9fd8" height="14" stroke-width="0" transform=" rotate(0, 233, 133)" width="14" x="226.4165" y="126.6178"/>
  <polygon fill="#1b9fd8" points="247.187,141.7764 254.187,127.7764 261.187,141.7764" stroke-width="0" transform=" rotate(0, 254, 134)"/>
  <ellipse cx="273.0303" cy="132.4133" fill="#1b9fd8" rx="7.0" ry="7.0" stroke-width="0" transform=" rotate(0, 273, 132)"/>
  <rect fill="#006ca1" height="18" stroke-width="0" transform=" rotate(0, 51, 154)" width="18" x="42.5073" y="145.0914"/>
  <polygon fill="#006ca1" points="69.1819,165.8632 78.1819,147.8632 87.1819,165.8632" stroke-width="0" transform=" rotate(0, 78, 156)"/>
  <ellipse cx="91.0589" cy="157.1715" fill="#006ca1" rx="9.0" ry="9.0" stroke-width="0" transform=" rotate(0, 91, 157)"/>
  <rect fill="#006ca1" height="18" stroke-width="0" transform=" rotate(0, 116, 152)" width="18" x="107.3619" y="143.0256"/>
  <polygon fill="#006ca1" points="122.6313,162.2934 131.6313,144.2934 140.6313,162.2934" stroke-width="0" transform=" rotate(0, 131, 153)"/>
  <ellipse cx="154.4794" cy="156.1133" fill="#006ca1" rx="9.0" ry="9.0" stroke-width="0" transform=" rotate(0, 154, 156)"/>
  <rect fill="#006ca1" height="18" stroke-width="0" transform=" rotate(0, 171, 158)" width="18" x="162.5168" y="149.5977"/>
  <polygon fill="#006ca1" points="188.5287,161.4307 197.5287,143.4307 206.5287,161.4307" stroke-width="0" transform=" rotate(0, 197, 152)"/>
  <ellipse cx="215.5342" cy="158.0773" fill="#006ca1" rx="9.0" ry="9.0" stroke-width="0" transform=" rotate(0, 215, 158)"/>
  <rect fill="#006ca1" height="18" stroke-width="0" transform=" rotate(0, 233, 153)" width="18" x="224.75" y="144.2891"/>
  <polygon fill="#006ca1" points="249.191,164.7238 258.191,146.7238 267.191,164.7238" stroke-width="0" transform=" rotate(0, 258, 155)"/>
  <ellipse cx="274.0165" cy="151.879" fill="#006ca1" rx="9.0" ry="9.0" stroke-width="0" transform=" rotate(0, 274, 151)"/>
  <rect fill="#006ca1" height="18" stroke-width="0" transform=" rotate(0, 52, 171)" width="18" x="43.386" y="162.7537"/>
  <polygon fill="#006ca1" points="65.868,184.3195 74.868,166.3195 83.868,184.3195" stroke-width="0" transform=" rotate(0, 74, 175)"/>
  <ellipse cx="96.256" cy="177.4903" fill="#006ca1" rx="9.0" ry="9.0" stroke-width="0" transform=" rotate(0, 96, 177)"/>
  <rect fill="#006ca1" height="18" stroke-width="0" transform=" rotate(0, 112, 175)" width="18" x="103.2784" y="166.3507"/>
  <polygon fill="#006ca1" points="125.0841,181.6201 134.0841,163.6201 143.0841,181.6201" stroke-width="0" transform=" rotate(0, 134, 172)"/>
  <ellipse cx="152.3512" cy="173.3706" fill="#006ca1" rx="9.0" ry="9.0" stroke-width="0" transform=" rotate(0, 152, 173)"/>
  <rect fill="#006ca1" height="18" stroke-width="0" transform=" rotate(0, 172, 172)" width="18" x="163.2028" y="163.7094"/>
  <polygon fill="#006ca1" points="186.9943,183.0659 195.9943,165.0659 204.9943,183.0659" stroke-width="0" transform=" rotate(0, 195, 174)"/>
  <ellipse cx="216.7137" cy="178.3913" fill="#006ca1" rx="9.0" ry="9.0" stroke-width="0" transform=" rotate(0, 216, 178)"/>
  <rect fill="#006ca1" height="18" stroke-width="0" transform=" rotate(0, 230, 173)" width="18" x="221.9076" y="164.9916"/>
  <polygon fill="#006ca1" points="243.9283,184.805 252.9283,166.805 261.9283,184.805" stroke-width="0" transform=" rotate(0, 252, 175)"/>
  <ellipse cx="271.716" cy="174.3205" fill="#006ca1" rx="9.0" ry="9.0" stroke-width="0" transform=" rotate(0, 271, 174)"/>
  <rect fill="#1b9fd8" height="14" stroke-width="0" transform=" rotate(0, 57, 193)" width="14" x="50.4119" y="186.2556"/>
  <polygon fill="#1b9fd8" points="72.1682,197.6509 79.1682,183.6509 86.1682,197.6509" stroke-width="0" transform=" rotate(0, 79, 190)"/>
  <ellipse cx="91.9882" cy="194.0571" fill="#1b9fd8" rx="7.0" ry="7.0" stroke-width="0" transform=" rotate(0, 91, 194)"/>
  <rect fill="#1b9fd8" height="14" stroke-width="0" transform=" rotate(0, 116, 197)" width="14" x="109.2478" y="190.3463"/>
  <polygon fill="#1b9fd8" points="130.5365,198.077 137.5365,184.077 144.5365,198.077" stroke-width="0" transform=" rotate(0, 137, 191)"/>
  <ellipse cx="151.6167" cy="198.414" fill="#1b9fd8" rx="7.0" ry="7.0" stroke-width="0" transform=" rotate(0, 151, 198)"/>
  <rect fill="#1b9fd8" height="14" stroke-width="0" transform=" rotate(0, 173, 194)" width="14" x="166.7983" y="187.4579"/>
  <polygon fill="#1b9fd8" points="186.896,203.0521 193.896,189.0521 200.896,203.0521" stroke-width="0" transform=" rotate(0, 193, 196)"/>
  <ellipse cx="211.9286" cy="195.3717" fill="#1b9fd8" rx="7.0" ry="7.0" stroke-width="0" transform=" rotate(0, 211, 195)"/>
  <rect fill="#1b9fd8" height="14" stroke-width="0" transform=" rotate(0, 231, 194)" width="14" x="224.294" y="187.3226"/>
  <polygon fill="#1b9fd8" points="245.4472,204.9373 252.4472,190.9373 259.4472,204.9373" stroke-width="0" transform=" rotate(0, 252, 197)"/>
  <ellipse cx="273.9019" cy="191.0451" fill="#1b9fd8" rx="7.0" ry="7.0" stroke-width="0" transform=" rotate(0, 273, 191)"/>
  <rect fill="#6dd6ff" height="10" stroke-width="0" transform=" rotate(0, 54, 218)" width="10" x="49.0321" y="213.8777"/>
  <polygon fill="#6dd6ff" points="67.6495,219.5269 72.6495,209.5269 77.6495,219.5269" stroke-width="0" transform=" rotate(0, 72, 214)"/>
  <ellipse cx="96.6632" cy="213.8591" fill="#6dd6ff" rx="5.0" ry="5.0" stroke-width="0" transform=" rotate(0, 96, 213)"/>
  <rect fill="#6dd6ff" height="10" stroke-width="0" transform=" rotate(0, 113, 212)" width="10" x="108.8139" y="207.7236"/>
  <polygon fill="#6dd6ff" points="133.9457,222.9328 138.9457,212.9328 143.9457,222.9328" stroke-width="0" transform=" rotate(0, 138, 217)"/>
  <ellipse cx="155.7022" cy="212.4504" fill="#6dd6ff" rx="5.0" ry="5.0" stroke-width="0" transform=" rotate(0, 155, 212)"/>
  <rect fill="#6dd6ff" height="10" stroke-width="0" transform=" rotate(0, 178, 215)" width="10" x="173.1987" y="210.367"/>
  <polygon fill="#6dd6ff" points="186.8918,222.1531 191.8918,212.1531 196.8918,222.1531" stroke-width="0" transform=" rotate(0, 191, 217)"/>
  <ellipse cx="213.8719" cy="217.5299" fill="#6dd6ff" rx="5.0" ry="5.0" stroke-width="0" transform=" rotate(0, 213, 217)"/>
  <rect fill="#6dd6ff" height="10" stroke-width="0" transform=" rotate(0, 238, 214)" width="10" x="233.4007" y="209.2255"/>
  <polygon fill="#6dd6ff" points="248.9072,221.6085 253.9072,211.6085 258.9072,221.6085" stroke-width="0" transform=" rotate(0, 253, 216)"/>
  <ellipse cx="271.7095" cy="213.428" fill="#6dd6ff" rx="5.0" ry="5.0" stroke-width="0" transform=" rotate(0, 271, 213)"/>
  <rect fill="#006ca1" height="18" stroke-width="0" transform=" rotate(0, 53, 232)" width="18" x="44.8852" y="223.6021"/>
  <polygon fill="#006ca1" points="67.2743,242.4871 76.2743,224.4871 85.2743,242.4871" stroke-width="0" transform=" rotate(0, 76, 233)"/>
  <ellipse cx="94.0917" cy="232.0279" fill="#006ca1" rx="9.0" ry="9.0" stroke-width="0" transform=" rotate(0, 94, 232)"/>
  <rect fill="#006ca1" height="18" stroke-width="0" transform=" rotate(0, 118, 231)" width="18" x="109.6784" y="222.7825"/>
  <polygon fill="#006ca1" points="123.46,242.9401 132.46,224.9401 141.46,242.9401" stroke-width="0" transform=" rotate(0, 132, 233)"/>
  <ellipse cx="152.8503" cy="238.3194" fill="#006ca1" rx="9.0" ry="9.0" stroke-width="0" transform=" rotate(0, 152, 238)"/>
  <rect fill="#006ca1" height="18" stroke-width="0" transform=" rotate(0, 178, 232)" width="18" x="169.9695" y="223.1605"/>
  <polygon fill="#006ca1" points="184.0551,246.5517 193.0551,228.5517 202.0551,246.5517" stroke-width="0" transform=" rotate(0, 193, 237)"/>
  <ellipse cx="217.6448" cy="234.5393" fill="#006ca1" rx="9.0" ry="9.0" stroke-width="0" transform=" rotate(0, 217, 234)"/>
  <rect fill="#006ca1" height="18" stroke-width="0" transform=" rotate(0, 231, 232)" width="18" x="222.583" y="223.6259"/>
  <polygon fill="#006ca1" points="242.7107,245.3383 251.7107,227.3383 260.7107,245.3383" stroke-width="0" transform=" rotate(0, 251, 236)"/>
  <ellipse cx="273.3202" cy="238.0649" fill="#006ca1" rx="9.0" ry="9.0" stroke-width="0" transform=" rotate(0, 273, 238)"/>
  <rect fill="#1b9fd8" height="14" stroke-width="0" transform=" rotate(0, 58, 255)" width="14" x="51.1662" y="248.9522"/>
  <polygon fill="#1b9fd8" points="71.3629,260.641 78.3629,246.641 85.3629,260.641" stroke-width="0" transform=" rotate(0, 78, 253)"/>
  <ellipse cx="98.1285" cy="251.1052" fill="#1b9fd8" rx="7.0" ry="7.0" stroke-width="0" transform=" rotate(0, 98, 251)"/>
  <rect fill="#1b9fd8" height="14" stroke-width="0" transform=" rotate(0, 118, 255)" width="14" x="111.322" y="248.2067"/>
  <polygon fill="#1b9fd8" points="124.504,258.463 131.504,244.463 138.504,258.463" stroke-width="0" transform=" rotate(0, 131, 251)"/>
  <ellipse cx="153.9387" cy="255.6219" fill="#1b9fd8" rx="7.0" ry="7.0" stroke-width="0" transform=" rotate(0, 153, 255)"/>
  <rect fill="#1b9fd8" height="14" stroke-width="0" transform=" rotate(0, 176, 256)" width="14" x="169.5123" y="249.7817"/>
  <polygon fill="#1b9fd8" points="190.2961,261.0493 197.2961,247.0493 204.2961,261.0493" stroke-width="0" transform=" rotate(0, 197, 254)"/>
  <ellipse cx="217.1566" cy="257.3444" fill="#1b9fd8" rx="7.0" ry="7.0" stroke-width="0" transform=" rotate(0, 217, 257)"/>
  <rect fill="#1b9fd8" height="14" stroke-width="0" transform=" rotate(0, 234, 253)" width="14" x="227.5919" y="246.469"/>
  <polygon fill="#1b9fd8" points="250.0141,257.9669 257.0141,243.9669 264.0141,257.9669" stroke-width="0" transform=" rotate(0, 257, 250)"/>
  <ellipse cx="277.024" cy="250.8948" fill="#1b9fd8" rx="7.0" ry="7.0" stroke-width="0" transform=" rotate(0, 277, 250)"/>
  <rect fill="#6dd6ff" height="10" stroke-width="0" transform=" rotate(0, 58, 277)" width="10" x="53.585" y="272.8769"/>
  <polygon fill="#6dd6ff" points="66.0325,281.4915 71.0325,271.4915 76.0325,281.4915" stroke-width="0" transform=" rotate(0, 71, 276)"/>
  <ellipse cx="97.2804" cy="270.8488" fill="#6dd6ff" rx="5.0" ry="5.0" stroke-width="0" transform=" rotate(0, 97, 270)"/>
  <rect fill="#6dd6ff" height="10" stroke-width="0" transform=" rotate(0, 116, 275)" width="10" x="111.8615" y="270.8868"/>
  <polygon fill="#6dd6ff" points="131.1998,282.853 136.1998,272.853 141.1998,282.853" stroke-width="0" transform=" rotate(0, 136, 277)"/>
  <ellipse cx="155.797" cy="272.5266" fill="#6dd6ff" rx="5.0" ry="5.0" stroke-width="0" transform=" rotate(0, 155, 272)"/>
  <rect fill="#6dd6ff" height="10" stroke-width="0" transform=" rotate(0, 172, 273)" width="10" x="167.6391" y="268.4369"/>
  <polygon fill="#6dd6ff" points="192.6756,278.7741 197.6756,268.7741 202.6756,278.7741" stroke-width="0" transform=" rotate(0, 197, 273)"/>
  <ellipse cx="217.0849" cy="271.4337" fill="#6dd6ff" rx="5.0" ry="5.0" stroke-width="0" transform=" rotate(0, 217, 271)"/>
  <rect fill="#6dd6ff" height="10" stroke-width="0" transform=" rotate(0, 232, 278)" width="10" x="227.3505" y="273.8654"/>
  <polygon fill="#6dd6ff" points="246.6877,283.9212 251.6877,273.9212 256.6877,283.9212" stroke-width="0" transform=" rotate(0, 251, 278)"/>
  <ellipse cx="278.5003" cy="271.7991" fill="#6dd6ff" rx="5.0" ry="5.0" stroke-width="0" transform=" rotate(0, 278, 271)"/>
</svg>
