<?xml version="1.0" encoding="utf-8" ?>
<svg baseProfile="tiny" height="330" version="1.2" width="330" xmlns="http://www.w3.org/2000/svg" xmlns:ev="http://www.w3.org/2001/xml-events" xmlns:xlink="http://www.w3.org/1999/xlink">
  <defs/>
  <rect fill="white" height="330" width="330" x="0" y="0"/>
  <rect fill="#6dd6ff" height="15" stroke-width="0" transform=" rotate(0, 53, 54)" width="15" x="46.1357" y="47.3714"/>
  <polygon fill="#6dd6ff" points="81.2869,67.4573 88.7869,52.4573 96.2869,67.4573" stroke-width="0" transform=" rotate(0, 88, 59)"/>
  <ellipse cx="122.8137" cy="54.6669" fill="#6dd6ff" rx="7.5" ry="7.5" stroke-width="0" transform=" rotate(0, 122, 54)"/>
  <rect fill="#6dd6ff" height="15" stroke-width="0" transform=" rotate(0, 143, 65)" width="15" x="135.6077" y="57.9025"/>
  <polygon fill="#6dd6ff" points="177.9688,69.341 185.4688,54.341 192.9688,69.341" stroke-width="0" transform=" rotate(0, 185, 61)"/>
  <ellipse cx="212.8086" cy="58.6548" fill="#6dd6ff" rx="7.5" ry="7.5" stroke-width="0" transform=" rotate(0, 212, 58)"/>
  <rect fill="#6dd6ff" height="15" stroke-width="0" transform=" rotate(0, 239, 66)" width="15" x="232.3191" y="59.0852"/>
  <polygon fill="#6dd6ff" points="255.7258,66.6308 263.2258,51.6308 270.7258,66.6308" stroke-width="0" transform=" rotate(0, 263, 59)"/>
  <rect fill="#1b9fd8" height="21" stroke-width="0" transform=" rotate(0, 66, 84)" width="21" x="56.2628" y="73.8511"/>
  <polygon fill="#1b9fd8" points="76.6968,101.0561 87.1968,80.0561 97.6968,101.0561" stroke-width="0" transform=" rotate(0, 87, 90)"/>
  <ellipse cx="113.1204" cy="94.0261" fill="#1b9fd8" rx="10.5" ry="10.5" stroke-width="0" transform=" rotate(0, 113, 94)"/>
  <rect fill="#1b9fd8" height="21" stroke-width="0" transform=" rotate(0, 151, 84)" width="21" x="141.1708" y="73.5819"/>
  <polygon fill="#1b9fd8" points="178.7683,99.0963 189.2683,78.0963 199.7683,99.0963" stroke-width="0" transform=" rotate(0, 189, 88)"/>
  <ellipse cx="202.4614" cy="84.264" fill="#1b9fd8" rx="10.5" ry="10.5" stroke-width="0" transform=" rotate(0, 202, 84)"/>
  <rect fill="#1b9fd8" height="21" stroke-width="0" transform=" rotate(0, 241, 83)" width="21" x="230.5278" y="73.3931"/>
  <polygon fill="#1b9fd8" points="263.1295,103.8717 273.6295,82.8717 284.1295,103.8717" stroke-width="0" transform=" rotate(0, 273, 93)"/>
  <rect fill="#006ca1" height="27" stroke-width="0" transform=" rotate(0, 50, 126)" width="27" x="36.6181" y="112.8934"/>
  <polygon fill="#006ca1" points="76.6287,121.2309 90.1287,94.2309 103.6287,121.2309" stroke-width="0" transform=" rotate(0, 90, 107)"/>
  <ellipse cx="124.423" cy="114.226" fill="#006ca1" rx="13.5" ry="13.5" stroke-width="0" transform=" rotate(0, 124, 114)"/>
  <rect fill="#006ca1" height="27" stroke-width="0" transform=" rotate(0, 148, 110)" width="27" x="135.2874" y="96.8295"/>
  <polygon fill="#006ca1" points="156.9689,142.1377 170.4689,115.1377 183.9689,142.1377" stroke-width="0" transform=" rotate(0, 170, 128)"/>
  <ellipse cx="213.9431" cy="134.283" fill="#006ca1" rx="13.5" ry="13.5" stroke-width="0" transform=" rotate(0, 213, 134)"/>
  <rect fill="#006ca1" height="27" stroke-width="0" transform=" rotate(0, 237, 111)" width="27" x="224.4667" y="97.7042"/>
  <polygon fill="#006ca1" points="266.732,138.3959 280.232,111.3959 293.732,138.3959" stroke-width="0" transform=" rotate(0, 280, 124)"/>
  <rect fill="#6dd6ff" height="15" stroke-width="0" transform=" rotate(0, 58, 155)" width="15" x="51.4816" y="147.9165"/>
  <polygon fill="#6dd6ff" points="83.2665,152.3453 90.7665,137.3453 98.2665,152.3453" stroke-width="0" transform=" rotate(0, 90, 144)"/>
  <ellipse cx="122.5535" cy="148.741" fill="#6dd6ff" rx="7.5" ry="7.5" stroke-width="0" transform=" rotate(0, 122, 148)"/>
  <rect fill="#6dd6ff" height="15" stroke-width="0" transform=" rotate(0, 146, 148)" width="15" x="138.6139" y="141.4155"/>
  <polygon fill="#6dd6ff" points="174.6518,152.9023 182.1518,137.9023 189.6518,152.9023" stroke-width="0" transform=" rotate(0, 182, 145)"/>
  <ellipse cx="216.5501" cy="144.2692" fill="#6dd6ff" rx="7.5" ry="7.5" stroke-width="0" transform=" rotate(0, 216, 144)"/>
  <rect fill="#6dd6ff" height="15" stroke-width="0" transform=" rotate(0, 232, 146)" width="15" x="225.3134" y="138.8283"/>
  <polygon fill="#6dd6ff" points="260.3655,156.4261 267.8655,141.4261 275.3655,156.4261" stroke-width="0" transform=" rotate(0, 267, 148)"/>
  <rect fill="#6dd6ff" height="15" stroke-width="0" transform=" rotate(0, 62, 179)" width="15" x="54.8143" y="171.6585"/>
  <polygon fill="#6dd6ff" points="81.4979,184.1897 88.9979,169.1897 96.4979,184.1897" stroke-width="0" transform=" rotate(0, 88, 176)"/>
  <ellipse cx="126.5024" cy="183.857" fill="#6dd6ff" rx="7.5" ry="7.5" stroke-width="0" transform=" rotate(0, 126, 183)"/>
  <rect fill="#6dd6ff" height="15" stroke-width="0" transform=" rotate(0, 152, 178)" width="15" x="145.0741" y="171.269"/>
  <polygon fill="#6dd6ff" points="172.0489,195.4328 179.5489,180.4328 187.0489,195.4328" stroke-width="0" transform=" rotate(0, 179, 187)"/>
  <ellipse cx="216.0961" cy="182.1408" fill="#6dd6ff" rx="7.5" ry="7.5" stroke-width="0" transform=" rotate(0, 216, 182)"/>
  <rect fill="#6dd6ff" height="15" stroke-width="0" transform=" rotate(0, 241, 186)" width="15" x="234.4871" y="179.0989"/>
  <polygon fill="#6dd6ff" points="263.9591,182.8367 271.4591,167.8367 278.9591,182.8367" stroke-width="0" transform=" rotate(0, 271, 175)"/>
  <rect fill="#006ca1" height="27" stroke-width="0" transform=" rotate(0, 61, 207)" width="27" x="48.4244" y="193.759"/>
  <polygon fill="#006ca1" points="79.3217,235.3161 92.8217,208.3161 106.3217,235.3161" stroke-width="0" transform=" rotate(0, 92, 221)"/>
  <ellipse cx="123.7152" cy="207.3726" fill="#006ca1" rx="13.5" ry="13.5" stroke-width="0" transform=" rotate(0, 123, 207)"/>
  <rect fill="#006ca1" height="27" stroke-width="0" transform=" rotate(0, 162, 200)" width="27" x="149.0367" y="186.8086"/>
  <polygon fill="#006ca1" points="161.754,220.8017 175.254,193.8017 188.754,220.8017" stroke-width="0" transform=" rotate(0, 175, 207)"/>
  <ellipse cx="221.4338" cy="214.9811" fill="#006ca1" rx="13.5" ry="13.5" stroke-width="0" transform=" rotate(0, 221, 214)"/>
  <rect fill="#006ca1" height="27" stroke-width="0" transform=" rotate(0, 236, 207)" width="27" x="222.7019" y="194.4655"/>
  <polygon fill="#006ca1" points="249.7402,236.2084 263.2402,209.2084 276.7402,236.2084" stroke-width="0" transform=" rotate(0, 263, 222)"/>
  <rect fill="#1b9fd8" height="21" stroke-width="0" transform=" rotate(0, 50, 234)" width="21" x="40.0768" y="224.0362"/>
  <polygon fill="#1b9fd8" points="88.3592,246.0119 98.8592,225.0119 109.3592,246.0119" stroke-width="0" transform=" rotate(0, 98, 235)"/>
  <ellipse cx="111.9213" cy="250.8097" fill="#1b9fd8" rx="10.5" ry="10.5" stroke-width="0" transform=" rotate(0, 111, 250)"/>
  <rect fill="#1b9fd8" height="21" stroke-width="0" transform=" rotate(0, 147, 236)" width="21" x="136.67" y="225.5239"/>
  <polygon fill="#1b9fd8" points="177.5891,257.9981 188.0891,236.9981 198.5891,257.9981" stroke-width="0" transform=" rotate(0, 188, 247)"/>
  <ellipse cx="214.6914" cy="232.3435" fill="#1b9fd8" rx="10.5" ry="10.5" stroke-width="0" transform=" rotate(0, 214, 232)"/>
  <rect fill="#1b9fd8" height="21" stroke-width="0" transform=" rotate(0, 234, 232)" width="21" x="224.0303" y="222.1629"/>
  <polygon fill="#1b9fd8" points="256.1201,247.1865 266.6201,226.1865 277.1201,247.1865" stroke-width="0" transform=" rotate(0, 266, 236)"/>
  <rect fill="#6dd6ff" height="15" stroke-width="0" transform=" rotate(0, 58, 276)" width="15" x="51.1381" y="269.041"/>
  <polygon fill="#6dd6ff" points="79.1845,284.3922 86.6845,269.3922 94.1845,284.3922" stroke-width="0" transform=" rotate(0, 86, 276)"/>
  <ellipse cx="118.0604" cy="276.4735" fill="#6dd6ff" rx="7.5" ry="7.5" stroke-width="0" transform=" rotate(0, 118, 276)"/>
  <rect fill="#6dd6ff" height="15" stroke-width="0" transform=" rotate(0, 145, 276)" width="15" x="138.4948" y="269.3191"/>
  <polygon fill="#6dd6ff" points="165.7752,272.1442 173.2752,257.1442 180.7752,272.1442" stroke-width="0" transform=" rotate(0, 173, 264)"/>
  <ellipse cx="215.1942" cy="268.9917" fill="#6dd6ff" rx="7.5" ry="7.5" stroke-width="0" transform=" rotate(0, 215, 268)"/>
  <rect fill="#6dd6ff" height="15" stroke-width="0" transform=" rotate(0, 232, 273)" width="15" x="224.9745" y="266.0874"/>
  <polygon fill="#6dd6ff" points="264.4441,282.4872 271.9441,267.4872 279.4441,282.4872" stroke-width="0" transform=" rotate(0, 271, 274)"/>
</svg>
