<?xml version="1.0" encoding="utf-8" ?>
<svg baseProfile="tiny" height="330" version="1.2" width="330" xmlns="http://www.w3.org/2000/svg" xmlns:ev="http://www.w3.org/2001/xml-events" xmlns:xlink="http://www.w3.org/1999/xlink">
  <defs/>
  <rect fill="white" height="330" width="330" x="0" y="0"/>
  <rect fill="#6dd6ff" height="5" stroke-width="0" transform=" rotate(0, 49, 50)" width="5" x="46.9473" y="47.867"/>
  <polygon fill="#6dd6ff" points="57.4281,52.4314 59.9281,47.4314 62.4281,52.4314" stroke-width="0" transform=" rotate(0, 59, 49)"/>
  <ellipse cx="70.3039" cy="49.8546" fill="#6dd6ff" rx="2.5" ry="2.5" stroke-width="0" transform=" rotate(0, 70, 49)"/>
  <rect fill="#6dd6ff" height="5" stroke-width="0" transform=" rotate(0, 79, 50)" width="5" x="76.898" y="48.085"/>
  <polygon fill="#6dd6ff" points="88.0517,52.9589 90.5517,47.9589 93.0517,52.9589" stroke-width="0" transform=" rotate(0, 90, 50)"/>
  <ellipse cx="100.3034" cy="49.2861" fill="#6dd6ff" rx="2.5" ry="2.5" stroke-width="0" transform=" rotate(0, 100, 49)"/>
  <rect fill="#6dd6ff" height="5" stroke-width="0" transform=" rotate(0, 110, 50)" width="5" x="107.5244" y="47.9759"/>
  <polygon fill="#6dd6ff" points="116.909,53.1181 119.409,48.1181 121.909,53.1181" stroke-width="0" transform=" rotate(0, 119, 50)"/>
  <ellipse cx="130.4792" cy="50.4702" fill="#6dd6ff" rx="2.5" ry="2.5" stroke-width="0" transform=" rotate(0, 130, 50)"/>
  <rect fill="#6dd6ff" height="5" stroke-width="0" transform=" rotate(0, 139, 50)" width="5" x="137.3415" y="48.1352"/>
  <polygon fill="#6dd6ff" points="147.0697,53.1115 149.5697,48.1115 152.0697,53.1115" stroke-width="0" transform=" rotate(0, 149, 50)"/>
  <ellipse cx="160.1397" cy="49.4105" fill="#6dd6ff" rx="2.5" ry="2.5" stroke-width="0" transform=" rotate(0, 160, 49)"/>
  <rect fill="#6dd6ff" height="5" stroke-width="0" transform=" rotate(0, 170, 49)" width="5" x="168.1462" y="47.2334"/>
  <polygon fill="#6dd6ff" points="177.0258,52.4089 179.5258,47.4089 182.0258,52.4089" stroke-width="0" transform=" rotate(0, 179, 49)"/>
  <ellipse cx="190.0969" cy="49.5956" fill="#6dd6ff" rx="2.5" ry="2.5" stroke-width="0" transform=" rotate(0, 190, 49)"/>
  <rect fill="#6dd6ff" height="5" stroke-width="0" transform=" rotate(0, 200, 50)" width="5" x="197.7703" y="47.6556"/>
  <polygon fill="#6dd6ff" points="207.0088,52.6268 209.5088,47.6268 212.0088,52.6268" stroke-width="0" transform=" rotate(0, 209, 50)"/>
  <ellipse cx="220.0278" cy="49.4053" fill="#6dd6ff" rx="2.5" ry="2.5" stroke-width="0" transform=" rotate(0, 220, 49)"/>
  <rect fill="#6dd6ff" height="5" stroke-width="0" transform=" rotate(0, 230, 50)" width="5" x="227.7505" y="48.1217"/>
  <polygon fill="#6dd6ff" points="237.4583,51.8052 239.9583,46.8052 242.4583,51.8052" stroke-width="0" transform=" rotate(0, 239, 49)"/>
  <ellipse cx="249.5269" cy="50.313" fill="#6dd6ff" rx="2.5" ry="2.5" stroke-width="0" transform=" rotate(0, 249, 50)"/>
  <rect fill="#6dd6ff" height="5" stroke-width="0" transform=" rotate(0, 260, 49)" width="5" x="257.7256" y="47.0314"/>
  <polygon fill="#6dd6ff" points="267.4157,52.2283 269.9157,47.2283 272.4157,52.2283" stroke-width="0" transform=" rotate(0, 269, 49)"/>
  <ellipse cx="280.5517" cy="49.9463" fill="#6dd6ff" rx="2.5" ry="2.5" stroke-width="0" transform=" rotate(0, 280, 49)"/>
  <rect fill="#1b9fd8" height="7" stroke-width="0" transform=" rotate(0, 49, 60)" width="7" x="46.4462" y="56.6392"/>
  <polygon fill="#1b9fd8" points="56.6128,63.1557 60.1128,56.1557 63.6128,63.1557" stroke-width="0" transform=" rotate(0, 60, 59)"/>
  <ellipse cx="70.2796" cy="60.5153" fill="#1b9fd8" rx="3.5" ry="3.5" stroke-width="0" transform=" rotate(0, 70, 60)"/>
  <rect fill="#1b9fd8" height="7" stroke-width="0" transform=" rotate(0, 79, 60)" width="7" x="76.1786" y="56.7143"/>
  <polygon fill="#1b9fd8" points="86.7421,63.0447 90.2421,56.0447 93.7421,63.0447" stroke-width="0" transform=" rotate(0, 90, 59)"/>
  <ellipse cx="100.6526" cy="60.2614" fill="#1b9fd8" rx="3.5" ry="3.5" stroke-width="0" transform=" rotate(0, 100, 60)"/>
  <rect fill="#1b9fd8" height="7" stroke-width="0" transform=" rotate(0, 109, 60)" width="7" x="105.8705" y="56.8036"/>
  <polygon fill="#1b9fd8" points="116.3421,63.9978 119.8421,56.9978 123.3421,63.9978" stroke-width="0" transform=" rotate(0, 119, 60)"/>
  <ellipse cx="130.2573" cy="59.7238" fill="#1b9fd8" rx="3.5" ry="3.5" stroke-width="0" transform=" rotate(0, 130, 59)"/>
  <rect fill="#1b9fd8" height="7" stroke-width="0" transform=" rotate(0, 139, 59)" width="7" x="136.4478" y="56.1183"/>
  <polygon fill="#1b9fd8" points="147.1482,63.8452 150.6482,56.8452 154.1482,63.8452" stroke-width="0" transform=" rotate(0, 150, 60)"/>
  <ellipse cx="160.2815" cy="59.6321" fill="#1b9fd8" rx="3.5" ry="3.5" stroke-width="0" transform=" rotate(0, 160, 59)"/>
  <rect fill="#1b9fd8" height="7" stroke-width="0" transform=" rotate(0, 169, 60)" width="7" x="166.4992" y="56.9323"/>
  <polygon fill="#1b9fd8" points="177.1103,63.8674 180.6103,56.8674 184.1103,63.8674" stroke-width="0" transform=" rotate(0, 180, 60)"/>
  <ellipse cx="190.2268" cy="59.9351" fill="#1b9fd8" rx="3.5" ry="3.5" stroke-width="0" transform=" rotate(0, 190, 59)"/>
  <rect fill="#1b9fd8" height="7" stroke-width="0" transform=" rotate(0, 200, 60)" width="7" x="196.6775" y="57.1525"/>
  <polygon fill="#1b9fd8" points="206.6209,63.4636 210.1209,56.4636 213.6209,63.4636" stroke-width="0" transform=" rotate(0, 210, 59)"/>
  <ellipse cx="220.1675" cy="60.5515" fill="#1b9fd8" rx="3.5" ry="3.5" stroke-width="0" transform=" rotate(0, 220, 60)"/>
  <rect fill="#1b9fd8" height="7" stroke-width="0" transform=" rotate(0, 230, 60)" width="7" x="226.7138" y="56.5759"/>
  <polygon fill="#1b9fd8" points="237.1712,63.4233 240.6712,56.4233 244.1712,63.4233" stroke-width="0" transform=" rotate(0, 240, 59)"/>
  <ellipse cx="249.7751" cy="59.6171" fill="#1b9fd8" rx="3.5" ry="3.5" stroke-width="0" transform=" rotate(0, 249, 59)"/>
  <rect fill="#1b9fd8" height="7" stroke-width="0" transform=" rotate(0, 260, 59)" width="7" x="257.114" y="55.8323"/>
  <polygon fill="#1b9fd8" points="266.3242,63.2291 269.8242,56.2291 273.3242,63.2291" stroke-width="0" transform=" rotate(0, 269, 59)"/>
  <ellipse cx="279.6706" cy="60.0689" fill="#1b9fd8" rx="3.5" ry="3.5" stroke-width="0" transform=" rotate(0, 279, 60)"/>
  <rect fill="#006ca1" height="9" stroke-width="0" transform=" rotate(0, 49, 69)" width="9" x="44.9001" y="64.8006"/>
  <polygon fill="#006ca1" points="56.119,75.0279 60.619,66.0279 65.119,75.0279" stroke-width="0" transform=" rotate(0, 60, 70)"/>
  <ellipse cx="69.4898" cy="70.2055" fill="#006ca1" rx="4.5" ry="4.5" stroke-width="0" transform=" rotate(0, 69, 70)"/>
  <rect fill="#006ca1" height="9" stroke-width="0" transform=" rotate(0, 79, 70)" width="9" x="75.3397" y="65.7141"/>
  <polygon fill="#006ca1" points="86.0676,74.9424 90.5676,65.9424 95.0676,74.9424" stroke-width="0" transform=" rotate(0, 90, 70)"/>
  <ellipse cx="100.3411" cy="70.4392" fill="#006ca1" rx="4.5" ry="4.5" stroke-width="0" transform=" rotate(0, 100, 70)"/>
  <rect fill="#006ca1" height="9" stroke-width="0" transform=" rotate(0, 109, 69)" width="9" x="105.1637" y="65.0799"/>
  <polygon fill="#006ca1" points="115.303,73.889 119.803,64.889 124.303,73.889" stroke-width="0" transform=" rotate(0, 119, 69)"/>
  <ellipse cx="129.9142" cy="70.5174" fill="#006ca1" rx="4.5" ry="4.5" stroke-width="0" transform=" rotate(0, 129, 70)"/>
  <rect fill="#006ca1" height="9" stroke-width="0" transform=" rotate(0, 139, 70)" width="9" x="135.2318" y="65.69"/>
  <polygon fill="#006ca1" points="145.3603,73.801 149.8603,64.801 154.3603,73.801" stroke-width="0" transform=" rotate(0, 149, 69)"/>
  <ellipse cx="159.6675" cy="69.567" fill="#006ca1" rx="4.5" ry="4.5" stroke-width="0" transform=" rotate(0, 159, 69)"/>
  <rect fill="#006ca1" height="9" stroke-width="0" transform=" rotate(0, 169, 69)" width="9" x="164.9136" y="65.4037"/>
  <polygon fill="#006ca1" points="176.0261,74.844 180.5261,65.844 185.0261,74.844" stroke-width="0" transform=" rotate(0, 180, 70)"/>
  <ellipse cx="189.3389" cy="69.8203" fill="#006ca1" rx="4.5" ry="4.5" stroke-width="0" transform=" rotate(0, 189, 69)"/>
  <rect fill="#006ca1" height="9" stroke-width="0" transform=" rotate(0, 200, 70)" width="9" x="195.7227" y="65.5132"/>
  <polygon fill="#006ca1" points="204.9343,74.3081 209.4343,65.3081 213.9343,74.3081" stroke-width="0" transform=" rotate(0, 209, 69)"/>
  <ellipse cx="219.909" cy="69.6771" fill="#006ca1" rx="4.5" ry="4.5" stroke-width="0" transform=" rotate(0, 219, 69)"/>
  <rect fill="#006ca1" height="9" stroke-width="0" transform=" rotate(0, 229, 69)" width="9" x="224.9152" y="65.4257"/>
  <polygon fill="#006ca1" points="235.9172,74.2481 240.4172,65.2481 244.9172,74.2481" stroke-width="0" transform=" rotate(0, 240, 69)"/>
  <ellipse cx="250.0848" cy="69.4906" fill="#006ca1" rx="4.5" ry="4.5" stroke-width="0" transform=" rotate(0, 250, 69)"/>
  <rect fill="#006ca1" height="9" stroke-width="0" transform=" rotate(0, 259, 70)" width="9" x="255.2874" y="65.6321"/>
  <polygon fill="#006ca1" points="266.0276,75.0521 270.5276,66.0521 275.0276,75.0521" stroke-width="0" transform=" rotate(0, 270, 70)"/>
  <ellipse cx="279.8318" cy="70.5638" fill="#006ca1" rx="4.5" ry="4.5" stroke-width="0" transform=" rotate(0, 279, 70)"/>
  <rect fill="#6dd6ff" height="5" stroke-width="0" transform=" rotate(0, 49, 80)" width="5" x="47.0601" y="77.8903"/>
  <polygon fill="#6dd6ff" points="57.4738,82.5508 59.9738,77.5508 62.4738,82.5508" stroke-width="0" transform=" rotate(0, 59, 80)"/>
  <ellipse cx="70.2051" cy="80.1482" fill="#6dd6ff" rx="2.5" ry="2.5" stroke-width="0" transform=" rotate(0, 70, 80)"/>
  <rect fill="#6dd6ff" height="5" stroke-width="0" transform=" rotate(0, 79, 79)" width="5" x="77.0422" y="77.4941"/>
  <polygon fill="#6dd6ff" points="87.3431,83.0229 89.8431,78.0229 92.3431,83.0229" stroke-width="0" transform=" rotate(0, 89, 80)"/>
  <ellipse cx="99.5543" cy="79.311" fill="#6dd6ff" rx="2.5" ry="2.5" stroke-width="0" transform=" rotate(0, 99, 79)"/>
  <rect fill="#6dd6ff" height="5" stroke-width="0" transform=" rotate(0, 109, 80)" width="5" x="107.0296" y="77.5693"/>
  <polygon fill="#6dd6ff" points="117.6615,83.1092 120.1615,78.1092 122.6615,83.1092" stroke-width="0" transform=" rotate(0, 120, 80)"/>
  <ellipse cx="130.2814" cy="80.3256" fill="#6dd6ff" rx="2.5" ry="2.5" stroke-width="0" transform=" rotate(0, 130, 80)"/>
  <rect fill="#6dd6ff" height="5" stroke-width="0" transform=" rotate(0, 139, 79)" width="5" x="136.8137" y="76.9991"/>
  <polygon fill="#6dd6ff" points="147.1505,82.123 149.6505,77.123 152.1505,82.123" stroke-width="0" transform=" rotate(0, 149, 79)"/>
  <ellipse cx="159.4484" cy="79.8623" fill="#6dd6ff" rx="2.5" ry="2.5" stroke-width="0" transform=" rotate(0, 159, 79)"/>
  <rect fill="#6dd6ff" height="5" stroke-width="0" transform=" rotate(0, 170, 79)" width="5" x="167.8977" y="76.9985"/>
  <polygon fill="#6dd6ff" points="178.1905,82.4207 180.6905,77.4207 183.1905,82.4207" stroke-width="0" transform=" rotate(0, 180, 79)"/>
  <ellipse cx="189.4938" cy="80.3615" fill="#6dd6ff" rx="2.5" ry="2.5" stroke-width="0" transform=" rotate(0, 189, 80)"/>
  <rect fill="#6dd6ff" height="5" stroke-width="0" transform=" rotate(0, 200, 80)" width="5" x="197.7037" y="78.0289"/>
  <polygon fill="#6dd6ff" points="207.9185,81.8101 210.4185,76.8101 212.9185,81.8101" stroke-width="0" transform=" rotate(0, 210, 79)"/>
  <ellipse cx="219.4319" cy="80.0386" fill="#6dd6ff" rx="2.5" ry="2.5" stroke-width="0" transform=" rotate(0, 219, 80)"/>
  <rect fill="#6dd6ff" height="5" stroke-width="0" transform=" rotate(0, 229, 80)" width="5" x="227.2955" y="77.9646"/>
  <polygon fill="#6dd6ff" points="237.3118,81.7923 239.8118,76.7923 242.3118,81.7923" stroke-width="0" transform=" rotate(0, 239, 79)"/>
  <ellipse cx="249.4839" cy="80.608" fill="#6dd6ff" rx="2.5" ry="2.5" stroke-width="0" transform=" rotate(0, 249, 80)"/>
  <rect fill="#6dd6ff" height="5" stroke-width="0" transform=" rotate(0, 259, 80)" width="5" x="256.8781" y="77.9512"/>
  <polygon fill="#6dd6ff" points="267.0703,82.5114 269.5703,77.5114 272.0703,82.5114" stroke-width="0" transform=" rotate(0, 269, 80)"/>
  <ellipse cx="279.8127" cy="79.8568" fill="#6dd6ff" rx="2.5" ry="2.5" stroke-width="0" transform=" rotate(0, 279, 79)"/>
  <rect fill="#1b9fd8" height="7" stroke-width="0" transform=" rotate(0, 49, 89)" width="7" x="46.3344" y="85.9542"/>
  <polygon fill="#1b9fd8" points="56.104,94.1778 59.604,87.1778 63.104,94.1778" stroke-width="0" transform=" rotate(0, 59, 90)"/>
  <ellipse cx="70.273" cy="89.7669" fill="#1b9fd8" rx="3.5" ry="3.5" stroke-width="0" transform=" rotate(0, 70, 89)"/>
  <rect fill="#1b9fd8" height="7" stroke-width="0" transform=" rotate(0, 79, 89)" width="7" x="76.2981" y="86.4297"/>
  <polygon fill="#1b9fd8" points="87.1534,93.5561 90.6534,86.5561 94.1534,93.5561" stroke-width="0" transform=" rotate(0, 90, 90)"/>
  <ellipse cx="100.1128" cy="89.981" fill="#1b9fd8" rx="3.5" ry="3.5" stroke-width="0" transform=" rotate(0, 100, 89)"/>
  <rect fill="#1b9fd8" height="7" stroke-width="0" transform=" rotate(0, 110, 90)" width="7" x="107.0289" y="87.1466"/>
  <polygon fill="#1b9fd8" points="115.9777,92.8512 119.4777,85.8512 122.9777,92.8512" stroke-width="0" transform=" rotate(0, 119, 89)"/>
  <ellipse cx="129.8077" cy="89.6019" fill="#1b9fd8" rx="3.5" ry="3.5" stroke-width="0" transform=" rotate(0, 129, 89)"/>
  <rect fill="#1b9fd8" height="7" stroke-width="0" transform=" rotate(0, 140, 90)" width="7" x="137.0625" y="87.0894"/>
  <polygon fill="#1b9fd8" points="146.3136,93.3947 149.8136,86.3947 153.3136,93.3947" stroke-width="0" transform=" rotate(0, 149, 89)"/>
  <ellipse cx="159.4473" cy="90.4554" fill="#1b9fd8" rx="3.5" ry="3.5" stroke-width="0" transform=" rotate(0, 159, 90)"/>
  <rect fill="#1b9fd8" height="7" stroke-width="0" transform=" rotate(0, 169, 89)" width="7" x="166.31" y="86.297"/>
  <polygon fill="#1b9fd8" points="176.7081,93.8678 180.2081,86.8678 183.7081,93.8678" stroke-width="0" transform=" rotate(0, 180, 90)"/>
  <ellipse cx="189.8444" cy="89.8994" fill="#1b9fd8" rx="3.5" ry="3.5" stroke-width="0" transform=" rotate(0, 189, 89)"/>
  <rect fill="#1b9fd8" height="7" stroke-width="0" transform=" rotate(0, 200, 89)" width="7" x="197.1088" y="86.099"/>
  <polygon fill="#1b9fd8" points="206.0724,94.1218 209.5724,87.1218 213.0724,94.1218" stroke-width="0" transform=" rotate(0, 209, 90)"/>
  <ellipse cx="219.6375" cy="89.4655" fill="#1b9fd8" rx="3.5" ry="3.5" stroke-width="0" transform=" rotate(0, 219, 89)"/>
  <rect fill="#1b9fd8" height="7" stroke-width="0" transform=" rotate(0, 230, 89)" width="7" x="227.1573" y="85.9808"/>
  <polygon fill="#1b9fd8" points="236.1716,93.516 239.6716,86.516 243.1716,93.516" stroke-width="0" transform=" rotate(0, 239, 90)"/>
  <ellipse cx="250.4366" cy="89.6822" fill="#1b9fd8" rx="3.5" ry="3.5" stroke-width="0" transform=" rotate(0, 250, 89)"/>
  <rect fill="#1b9fd8" height="7" stroke-width="0" transform=" rotate(0, 259, 89)" width="7" x="255.9263" y="86.4275"/>
  <polygon fill="#1b9fd8" points="265.9475,93.5666 269.4475,86.5666 272.9475,93.5666" stroke-width="0" transform=" rotate(0, 269, 90)"/>
  <ellipse cx="279.7158" cy="89.9143" fill="#1b9fd8" rx="3.5" ry="3.5" stroke-width="0" transform=" rotate(0, 279, 89)"/>
  <rect fill="#006ca1" height="9" stroke-width="0" transform=" rotate(0, 50, 100)" width="9" x="46.0235" y="96.0705"/>
  <polygon fill="#006ca1" points="56.0562,104.3836 60.5562,95.3836 65.0562,104.3836" stroke-width="0" transform=" rotate(0, 60, 99)"/>
  <ellipse cx="70.5172" cy="100.0474" fill="#006ca1" rx="4.5" ry="4.5" stroke-width="0" transform=" rotate(0, 70, 100)"/>
  <rect fill="#006ca1" height="9" stroke-width="0" transform=" rotate(0, 80, 99)" width="9" x="76.0494" y="94.8424"/>
  <polygon fill="#006ca1" points="84.9131,104.0387 89.4131,95.0387 93.9131,104.0387" stroke-width="0" transform=" rotate(0, 89, 99)"/>
  <ellipse cx="99.8189" cy="100.2528" fill="#006ca1" rx="4.5" ry="4.5" stroke-width="0" transform=" rotate(0, 99, 100)"/>
  <rect fill="#006ca1" height="9" stroke-width="0" transform=" rotate(0, 110, 100)" width="9" x="105.7478" y="96.1061"/>
  <polygon fill="#006ca1" points="115.8784,104.0169 120.3784,95.0169 124.8784,104.0169" stroke-width="0" transform=" rotate(0, 120, 99)"/>
  <ellipse cx="130.3552" cy="100.1768" fill="#006ca1" rx="4.5" ry="4.5" stroke-width="0" transform=" rotate(0, 130, 100)"/>
  <rect fill="#006ca1" height="9" stroke-width="0" transform=" rotate(0, 139, 99)" width="9" x="135.4277" y="95.0862"/>
  <polygon fill="#006ca1" points="145.8314,105.0731 150.3314,96.0731 154.8314,105.0731" stroke-width="0" transform=" rotate(0, 150, 100)"/>
  <ellipse cx="160.3331" cy="100.0808" fill="#006ca1" rx="4.5" ry="4.5" stroke-width="0" transform=" rotate(0, 160, 100)"/>
  <rect fill="#006ca1" height="9" stroke-width="0" transform=" rotate(0, 170, 100)" width="9" x="166.0933" y="96.0053"/>
  <polygon fill="#006ca1" points="174.8345,104.618 179.3345,95.618 183.8345,104.618" stroke-width="0" transform=" rotate(0, 179, 100)"/>
  <ellipse cx="190.3758" cy="100.2502" fill="#006ca1" rx="4.5" ry="4.5" stroke-width="0" transform=" rotate(0, 190, 100)"/>
  <rect fill="#006ca1" height="9" stroke-width="0" transform=" rotate(0, 200, 99)" width="9" x="195.806" y="95.1739"/>
  <polygon fill="#006ca1" points="205.6957,104.0429 210.1957,95.0429 214.6957,104.0429" stroke-width="0" transform=" rotate(0, 210, 99)"/>
  <ellipse cx="220.1286" cy="99.7422" fill="#006ca1" rx="4.5" ry="4.5" stroke-width="0" transform=" rotate(0, 220, 99)"/>
  <rect fill="#006ca1" height="9" stroke-width="0" transform=" rotate(0, 229, 100)" width="9" x="225.1023" y="95.9723"/>
  <polygon fill="#006ca1" points="235.9417,104.0696 240.4417,95.0696 244.9417,104.0696" stroke-width="0" transform=" rotate(0, 240, 99)"/>
  <ellipse cx="250.3432" cy="100.1041" fill="#006ca1" rx="4.5" ry="4.5" stroke-width="0" transform=" rotate(0, 250, 100)"/>
  <rect fill="#006ca1" height="9" stroke-width="0" transform=" rotate(0, 259, 99)" width="9" x="255.0542" y="95.3587"/>
  <polygon fill="#006ca1" points="264.9437,104.6429 269.4437,95.6429 273.9437,104.6429" stroke-width="0" transform=" rotate(0, 269, 100)"/>
  <ellipse cx="280.5791" cy="99.5555" fill="#006ca1" rx="4.5" ry="4.5" stroke-width="0" transform=" rotate(0, 280, 99)"/>
  <rect fill="#6dd6ff" height="5" stroke-width="0" transform=" rotate(0, 49, 110)" width="5" x="47.1137" y="107.936"/>
  <polygon fill="#6dd6ff" points="56.924,112.2438 59.424,107.2438 61.924,112.2438" stroke-width="0" transform=" rotate(0, 59, 109)"/>
  <ellipse cx="69.3104" cy="110.3439" fill="#6dd6ff" rx="2.5" ry="2.5" stroke-width="0" transform=" rotate(0, 69, 110)"/>
  <rect fill="#6dd6ff" height="5" stroke-width="0" transform=" rotate(0, 80, 110)" width="5" x="77.7076" y="107.6014"/>
  <polygon fill="#6dd6ff" points="86.8711,112.3446 89.3711,107.3446 91.8711,112.3446" stroke-width="0" transform=" rotate(0, 89, 109)"/>
  <ellipse cx="99.5721" cy="110.5175" fill="#6dd6ff" rx="2.5" ry="2.5" stroke-width="0" transform=" rotate(0, 99, 110)"/>
  <rect fill="#6dd6ff" height="5" stroke-width="0" transform=" rotate(0, 110, 110)" width="5" x="107.8193" y="107.8454"/>
  <polygon fill="#6dd6ff" points="117.7365,112.5078 120.2365,107.5078 122.7365,112.5078" stroke-width="0" transform=" rotate(0, 120, 110)"/>
  <ellipse cx="130.2247" cy="109.6454" fill="#6dd6ff" rx="2.5" ry="2.5" stroke-width="0" transform=" rotate(0, 130, 109)"/>
  <rect fill="#6dd6ff" height="5" stroke-width="0" transform=" rotate(0, 140, 109)" width="5" x="138.1324" y="106.8698"/>
  <polygon fill="#6dd6ff" points="147.6959,112.7444 150.1959,107.7444 152.6959,112.7444" stroke-width="0" transform=" rotate(0, 150, 110)"/>
  <ellipse cx="160.2905" cy="109.9516" fill="#6dd6ff" rx="2.5" ry="2.5" stroke-width="0" transform=" rotate(0, 160, 109)"/>
  <rect fill="#6dd6ff" height="5" stroke-width="0" transform=" rotate(0, 169, 110)" width="5" x="167.3779" y="107.5061"/>
  <polygon fill="#6dd6ff" points="177.8895,113.1612 180.3895,108.1612 182.8895,113.1612" stroke-width="0" transform=" rotate(0, 180, 110)"/>
  <ellipse cx="189.7262" cy="110.2445" fill="#6dd6ff" rx="2.5" ry="2.5" stroke-width="0" transform=" rotate(0, 189, 110)"/>
  <rect fill="#6dd6ff" height="5" stroke-width="0" transform=" rotate(0, 200, 109)" width="5" x="198.1236" y="107.0723"/>
  <polygon fill="#6dd6ff" points="207.5172,113.0752 210.0172,108.0752 212.5172,113.0752" stroke-width="0" transform=" rotate(0, 210, 110)"/>
  <ellipse cx="219.7314" cy="110.0266" fill="#6dd6ff" rx="2.5" ry="2.5" stroke-width="0" transform=" rotate(0, 219, 110)"/>
  <rect fill="#6dd6ff" height="5" stroke-width="0" transform=" rotate(0, 230, 110)" width="5" x="228.0779" y="107.881"/>
  <polygon fill="#6dd6ff" points="238.1068,111.8117 240.6068,106.8117 243.1068,111.8117" stroke-width="0" transform=" rotate(0, 240, 109)"/>
  <ellipse cx="250.5656" cy="109.8233" fill="#6dd6ff" rx="2.5" ry="2.5" stroke-width="0" transform=" rotate(0, 250, 109)"/>
  <rect fill="#6dd6ff" height="5" stroke-width="0" transform=" rotate(0, 259, 109)" width="5" x="257.0172" y="106.979"/>
  <polygon fill="#6dd6ff" points="267.3769,112.2187 269.8769,107.2187 272.3769,112.2187" stroke-width="0" transform=" rotate(0, 269, 109)"/>
  <ellipse cx="280.3482" cy="109.9073" fill="#6dd6ff" rx="2.5" ry="2.5" stroke-width="0" transform=" rotate(0, 280, 109)"/>
  <rect fill="#1b9fd8" height="7" stroke-width="0" transform=" rotate(0, 50, 120)" width="7" x="46.6958" y="117.0723"/>
  <polygon fill="#1b9fd8" points="56.4849,124.0009 59.9849,117.0009 63.4849,124.0009" stroke-width="0" transform=" rotate(0, 59, 120)"/>
  <ellipse cx="70.5533" cy="119.9156" fill="#1b9fd8" rx="3.5" ry="3.5" stroke-width="0" transform=" rotate(0, 70, 119)"/>
  <rect fill="#1b9fd8" height="7" stroke-width="0" transform=" rotate(0, 79, 119)" width="7" x="76.077" y="115.9966"/>
  <polygon fill="#1b9fd8" points="86.3219,124.0182 89.8219,117.0182 93.3219,124.0182" stroke-width="0" transform=" rotate(0, 89, 120)"/>
  <ellipse cx="100.4829" cy="119.9063" fill="#1b9fd8" rx="3.5" ry="3.5" stroke-width="0" transform=" rotate(0, 100, 119)"/>
  <rect fill="#1b9fd8" height="7" stroke-width="0" transform=" rotate(0, 110, 120)" width="7" x="106.7646" y="117.0626"/>
  <polygon fill="#1b9fd8" points="117.1553,123.3457 120.6553,116.3457 124.1553,123.3457" stroke-width="0" transform=" rotate(0, 120, 119)"/>
  <ellipse cx="130.143" cy="119.4102" fill="#1b9fd8" rx="3.5" ry="3.5" stroke-width="0" transform=" rotate(0, 130, 119)"/>
  <rect fill="#1b9fd8" height="7" stroke-width="0" transform=" rotate(0, 140, 119)" width="7" x="136.6117" y="116.3502"/>
  <polygon fill="#1b9fd8" points="146.4507,123.526 149.9507,116.526 153.4507,123.526" stroke-width="0" transform=" rotate(0, 149, 120)"/>
  <ellipse cx="160.37" cy="120.5708" fill="#1b9fd8" rx="3.5" ry="3.5" stroke-width="0" transform=" rotate(0, 160, 120)"/>
  <rect fill="#1b9fd8" height="7" stroke-width="0" transform=" rotate(0, 169, 120)" width="7" x="165.8186" y="116.704"/>
  <polygon fill="#1b9fd8" points="176.0631,122.8413 179.5631,115.8413 183.0631,122.8413" stroke-width="0" transform=" rotate(0, 179, 119)"/>
  <ellipse cx="189.6203" cy="120.6567" fill="#1b9fd8" rx="3.5" ry="3.5" stroke-width="0" transform=" rotate(0, 189, 120)"/>
  <rect fill="#1b9fd8" height="7" stroke-width="0" transform=" rotate(0, 200, 119)" width="7" x="196.5267" y="116.4239"/>
  <polygon fill="#1b9fd8" points="207.1676,122.9882 210.6676,115.9882 214.1676,122.9882" stroke-width="0" transform=" rotate(0, 210, 119)"/>
  <ellipse cx="219.8177" cy="119.7677" fill="#1b9fd8" rx="3.5" ry="3.5" stroke-width="0" transform=" rotate(0, 219, 119)"/>
  <rect fill="#1b9fd8" height="7" stroke-width="0" transform=" rotate(0, 230, 120)" width="7" x="226.8441" y="116.8992"/>
  <polygon fill="#1b9fd8" points="236.6003,124.0615 240.1003,117.0615 243.6003,124.0615" stroke-width="0" transform=" rotate(0, 240, 120)"/>
  <ellipse cx="250.627" cy="119.9091" fill="#1b9fd8" rx="3.5" ry="3.5" stroke-width="0" transform=" rotate(0, 250, 119)"/>
  <rect fill="#1b9fd8" height="7" stroke-width="0" transform=" rotate(0, 260, 119)" width="7" x="256.8098" y="116.1931"/>
  <polygon fill="#1b9fd8" points="267.1346,124.0936 270.6346,117.0936 274.1346,124.0936" stroke-width="0" transform=" rotate(0, 270, 120)"/>
  <ellipse cx="280.65" cy="119.8202" fill="#1b9fd8" rx="3.5" ry="3.5" stroke-width="0" transform=" rotate(0, 280, 119)"/>
  <rect fill="#006ca1" height="9" stroke-width="0" transform=" rotate(0, 49, 130)" width="9" x="45.3366" y="125.705"/>
  <polygon fill="#006ca1" points="55.8041,134.8779 60.3041,125.8779 64.8041,134.8779" stroke-width="0" transform=" rotate(0, 60, 130)"/>
  <ellipse cx="70.0272" cy="130.4717" fill="#006ca1" rx="4.5" ry="4.5" stroke-width="0" transform=" rotate(0, 70, 130)"/>
  <rect fill="#006ca1" height="9" stroke-width="0" transform=" rotate(0, 80, 130)" width="9" x="75.5541" y="125.9882"/>
  <polygon fill="#006ca1" points="86.1786,134.0568 90.6786,125.0568 95.1786,134.0568" stroke-width="0" transform=" rotate(0, 90, 129)"/>
  <ellipse cx="100.0906" cy="129.6372" fill="#006ca1" rx="4.5" ry="4.5" stroke-width="0" transform=" rotate(0, 100, 129)"/>
  <rect fill="#006ca1" height="9" stroke-width="0" transform=" rotate(0, 110, 130)" width="9" x="105.882" y="125.5637"/>
  <polygon fill="#006ca1" points="115.4671,134.7294 119.9671,125.7294 124.4671,134.7294" stroke-width="0" transform=" rotate(0, 119, 130)"/>
  <ellipse cx="130.1157" cy="130.0158" fill="#006ca1" rx="4.5" ry="4.5" stroke-width="0" transform=" rotate(0, 130, 130)"/>
  <rect fill="#006ca1" height="9" stroke-width="0" transform=" rotate(0, 139, 130)" width="9" x="135.2927" y="125.8047"/>
  <polygon fill="#006ca1" points="145.4858,134.6643 149.9858,125.6643 154.4858,134.6643" stroke-width="0" transform=" rotate(0, 149, 130)"/>
  <ellipse cx="159.592" cy="130.1712" fill="#006ca1" rx="4.5" ry="4.5" stroke-width="0" transform=" rotate(0, 159, 130)"/>
  <rect fill="#006ca1" height="9" stroke-width="0" transform=" rotate(0, 169, 130)" width="9" x="165.3717" y="125.6926"/>
  <polygon fill="#006ca1" points="175.8336,134.4019 180.3336,125.4019 184.8336,134.4019" stroke-width="0" transform=" rotate(0, 180, 129)"/>
  <ellipse cx="190.385" cy="130.2331" fill="#006ca1" rx="4.5" ry="4.5" stroke-width="0" transform=" rotate(0, 190, 130)"/>
  <rect fill="#006ca1" height="9" stroke-width="0" transform=" rotate(0, 199, 130)" width="9" x="195.0273" y="126.182"/>
  <polygon fill="#006ca1" points="205.2387,134.4486 209.7387,125.4486 214.2387,134.4486" stroke-width="0" transform=" rotate(0, 209, 129)"/>
  <ellipse cx="220.2086" cy="130.3627" fill="#006ca1" rx="4.5" ry="4.5" stroke-width="0" transform=" rotate(0, 220, 130)"/>
  <rect fill="#006ca1" height="9" stroke-width="0" transform=" rotate(0, 230, 130)" width="9" x="226.1227" y="126.0095"/>
  <polygon fill="#006ca1" points="235.0949,134.347 239.5949,125.347 244.0949,134.347" stroke-width="0" transform=" rotate(0, 239, 129)"/>
  <ellipse cx="250.536" cy="129.4585" fill="#006ca1" rx="4.5" ry="4.5" stroke-width="0" transform=" rotate(0, 250, 129)"/>
  <rect fill="#006ca1" height="9" stroke-width="0" transform=" rotate(0, 259, 130)" width="9" x="255.2379" y="125.5876"/>
  <polygon fill="#006ca1" points="265.6437,133.8178 270.1437,124.8178 274.6437,133.8178" stroke-width="0" transform=" rotate(0, 270, 129)"/>
  <ellipse cx="279.5029" cy="130.4859" fill="#006ca1" rx="4.5" ry="4.5" stroke-width="0" transform=" rotate(0, 279, 130)"/>
  <rect fill="#6dd6ff" height="5" stroke-width="0" transform=" rotate(0, 49, 140)" width="5" x="46.982" y="137.9964"/>
  <polygon fill="#6dd6ff" points="57.5763,142.6893 60.0763,137.6893 62.5763,142.6893" stroke-width="0" transform=" rotate(0, 60, 140)"/>
  <ellipse cx="70.4381" cy="140.0129" fill="#6dd6ff" rx="2.5" ry="2.5" stroke-width="0" transform=" rotate(0, 70, 140)"/>
  <rect fill="#6dd6ff" height="5" stroke-width="0" transform=" rotate(0, 80, 140)" width="5" x="77.5815" y="138.0547"/>
  <polygon fill="#6dd6ff" points="87.1264,142.0101 89.6264,137.0101 92.1264,142.0101" stroke-width="0" transform=" rotate(0, 89, 139)"/>
  <ellipse cx="99.7515" cy="140.4124" fill="#6dd6ff" rx="2.5" ry="2.5" stroke-width="0" transform=" rotate(0, 99, 140)"/>
  <rect fill="#6dd6ff" height="5" stroke-width="0" transform=" rotate(0, 109, 140)" width="5" x="107.1413" y="138.0049"/>
  <polygon fill="#6dd6ff" points="117.3674,142.5182 119.8674,137.5182 122.3674,142.5182" stroke-width="0" transform=" rotate(0, 119, 140)"/>
  <ellipse cx="130.5883" cy="140.6719" fill="#6dd6ff" rx="2.5" ry="2.5" stroke-width="0" transform=" rotate(0, 130, 140)"/>
  <rect fill="#6dd6ff" height="5" stroke-width="0" transform=" rotate(0, 139, 140)" width="5" x="137.355" y="138.0203"/>
  <polygon fill="#6dd6ff" points="147.6573,142.6667 150.1573,137.6667 152.6573,142.6667" stroke-width="0" transform=" rotate(0, 150, 140)"/>
  <ellipse cx="159.9098" cy="139.8609" fill="#6dd6ff" rx="2.5" ry="2.5" stroke-width="0" transform=" rotate(0, 159, 139)"/>
  <rect fill="#6dd6ff" height="5" stroke-width="0" transform=" rotate(0, 169, 139)" width="5" x="167.2323" y="137.0646"/>
  <polygon fill="#6dd6ff" points="176.7982,141.9531 179.2982,136.9531 181.7982,141.9531" stroke-width="0" transform=" rotate(0, 179, 139)"/>
  <ellipse cx="189.8659" cy="140.4541" fill="#6dd6ff" rx="2.5" ry="2.5" stroke-width="0" transform=" rotate(0, 189, 140)"/>
  <rect fill="#6dd6ff" height="5" stroke-width="0" transform=" rotate(0, 200, 140)" width="5" x="197.9141" y="138.0265"/>
  <polygon fill="#6dd6ff" points="206.8692,141.8077 209.3692,136.8077 211.8692,141.8077" stroke-width="0" transform=" rotate(0, 209, 139)"/>
  <ellipse cx="220.5921" cy="140.5958" fill="#6dd6ff" rx="2.5" ry="2.5" stroke-width="0" transform=" rotate(0, 220, 140)"/>
  <rect fill="#6dd6ff" height="5" stroke-width="0" transform=" rotate(0, 229, 139)" width="5" x="227.4327" y="137.2403"/>
  <polygon fill="#6dd6ff" points="237.6984,142.5392 240.1984,137.5392 242.6984,142.5392" stroke-width="0" transform=" rotate(0, 240, 140)"/>
  <ellipse cx="250.085" cy="139.4822" fill="#6dd6ff" rx="2.5" ry="2.5" stroke-width="0" transform=" rotate(0, 250, 139)"/>
  <rect fill="#6dd6ff" height="5" stroke-width="0" transform=" rotate(0, 259, 139)" width="5" x="257.4102" y="137.2244"/>
  <polygon fill="#6dd6ff" points="268.0126,143.133 270.5126,138.133 273.0126,143.133" stroke-width="0" transform=" rotate(0, 270, 140)"/>
  <ellipse cx="279.3639" cy="140.2688" fill="#6dd6ff" rx="2.5" ry="2.5" stroke-width="0" transform=" rotate(0, 279, 140)"/>
  <rect fill="#1b9fd8" height="7" stroke-width="0" transform=" rotate(0, 50, 150)" width="7" x="47.1694" y="146.6033"/>
  <polygon fill="#1b9fd8" points="56.4442,153.2015 59.9442,146.2015 63.4442,153.2015" stroke-width="0" transform=" rotate(0, 59, 149)"/>
  <ellipse cx="69.8329" cy="149.8744" fill="#1b9fd8" rx="3.5" ry="3.5" stroke-width="0" transform=" rotate(0, 69, 149)"/>
  <rect fill="#1b9fd8" height="7" stroke-width="0" transform=" rotate(0, 79, 150)" width="7" x="76.1437" y="146.6069"/>
  <polygon fill="#1b9fd8" points="87.0119,153.93 90.5119,146.93 94.0119,153.93" stroke-width="0" transform=" rotate(0, 90, 150)"/>
  <ellipse cx="99.5981" cy="150.0905" fill="#1b9fd8" rx="3.5" ry="3.5" stroke-width="0" transform=" rotate(0, 99, 150)"/>
  <rect fill="#1b9fd8" height="7" stroke-width="0" transform=" rotate(0, 110, 150)" width="7" x="106.5843" y="146.6619"/>
  <polygon fill="#1b9fd8" points="116.8819,153.2935 120.3819,146.2935 123.8819,153.2935" stroke-width="0" transform=" rotate(0, 120, 149)"/>
  <ellipse cx="130.4447" cy="149.6383" fill="#1b9fd8" rx="3.5" ry="3.5" stroke-width="0" transform=" rotate(0, 130, 149)"/>
  <rect fill="#1b9fd8" height="7" stroke-width="0" transform=" rotate(0, 139, 149)" width="7" x="136.394" y="146.0544"/>
  <polygon fill="#1b9fd8" points="146.7912,153.6519 150.2912,146.6519 153.7912,153.6519" stroke-width="0" transform=" rotate(0, 150, 150)"/>
  <ellipse cx="159.7611" cy="150.6725" fill="#1b9fd8" rx="3.5" ry="3.5" stroke-width="0" transform=" rotate(0, 159, 150)"/>
  <rect fill="#1b9fd8" height="7" stroke-width="0" transform=" rotate(0, 169, 150)" width="7" x="166.1234" y="147.1255"/>
  <polygon fill="#1b9fd8" points="176.2709,152.9667 179.7709,145.9667 183.2709,152.9667" stroke-width="0" transform=" rotate(0, 179, 149)"/>
  <ellipse cx="189.5277" cy="150.1609" fill="#1b9fd8" rx="3.5" ry="3.5" stroke-width="0" transform=" rotate(0, 189, 150)"/>
  <rect fill="#1b9fd8" height="7" stroke-width="0" transform=" rotate(0, 199, 150)" width="7" x="195.9868" y="146.5283"/>
  <polygon fill="#1b9fd8" points="206.3464,153.3617 209.8464,146.3617 213.3464,153.3617" stroke-width="0" transform=" rotate(0, 209, 149)"/>
  <ellipse cx="220.5763" cy="150.4238" fill="#1b9fd8" rx="3.5" ry="3.5" stroke-width="0" transform=" rotate(0, 220, 150)"/>
  <rect fill="#1b9fd8" height="7" stroke-width="0" transform=" rotate(0, 229, 150)" width="7" x="226.0498" y="147.0746"/>
  <polygon fill="#1b9fd8" points="236.9484,153.6971 240.4484,146.6971 243.9484,153.6971" stroke-width="0" transform=" rotate(0, 240, 150)"/>
  <ellipse cx="249.9463" cy="150.0495" fill="#1b9fd8" rx="3.5" ry="3.5" stroke-width="0" transform=" rotate(0, 249, 150)"/>
  <rect fill="#1b9fd8" height="7" stroke-width="0" transform=" rotate(0, 259, 149)" width="7" x="256.1274" y="145.8055"/>
  <polygon fill="#1b9fd8" points="266.7461,154.0522 270.2461,147.0522 273.7461,154.0522" stroke-width="0" transform=" rotate(0, 270, 150)"/>
  <ellipse cx="280.5339" cy="149.9818" fill="#1b9fd8" rx="3.5" ry="3.5" stroke-width="0" transform=" rotate(0, 280, 149)"/>
  <rect fill="#006ca1" height="9" stroke-width="0" transform=" rotate(0, 50, 159)" width="9" x="45.6818" y="155.1545"/>
  <polygon fill="#006ca1" points="55.2966,164.7163 59.7966,155.7163 64.2966,164.7163" stroke-width="0" transform=" rotate(0, 59, 160)"/>
  <ellipse cx="69.3739" cy="160.0605" fill="#006ca1" rx="4.5" ry="4.5" stroke-width="0" transform=" rotate(0, 69, 160)"/>
  <rect fill="#006ca1" height="9" stroke-width="0" transform=" rotate(0, 80, 159)" width="9" x="75.5575" y="155.0445"/>
  <polygon fill="#006ca1" points="84.9336,163.9992 89.4336,154.9992 93.9336,163.9992" stroke-width="0" transform=" rotate(0, 89, 159)"/>
  <ellipse cx="100.1267" cy="160.5086" fill="#006ca1" rx="4.5" ry="4.5" stroke-width="0" transform=" rotate(0, 100, 160)"/>
  <rect fill="#006ca1" height="9" stroke-width="0" transform=" rotate(0, 110, 160)" width="9" x="105.82" y="156.0085"/>
  <polygon fill="#006ca1" points="115.3646,164.6032 119.8646,155.6032 124.3646,164.6032" stroke-width="0" transform=" rotate(0, 119, 160)"/>
  <ellipse cx="130.4138" cy="160.1554" fill="#006ca1" rx="4.5" ry="4.5" stroke-width="0" transform=" rotate(0, 130, 160)"/>
  <rect fill="#006ca1" height="9" stroke-width="0" transform=" rotate(0, 139, 160)" width="9" x="135.2679" y="155.9398"/>
  <polygon fill="#006ca1" points="144.8509,164.4863 149.3509,155.4863 153.8509,164.4863" stroke-width="0" transform=" rotate(0, 149, 159)"/>
  <ellipse cx="159.3389" cy="159.9457" fill="#006ca1" rx="4.5" ry="4.5" stroke-width="0" transform=" rotate(0, 159, 159)"/>
  <rect fill="#006ca1" height="9" stroke-width="0" transform=" rotate(0, 170, 159)" width="9" x="166.0026" y="155.1318"/>
  <polygon fill="#006ca1" points="175.7717,164.0012 180.2717,155.0012 184.7717,164.0012" stroke-width="0" transform=" rotate(0, 180, 159)"/>
  <ellipse cx="189.3312" cy="160.5372" fill="#006ca1" rx="4.5" ry="4.5" stroke-width="0" transform=" rotate(0, 189, 160)"/>
  <rect fill="#006ca1" height="9" stroke-width="0" transform=" rotate(0, 200, 160)" width="9" x="195.6709" y="155.7074"/>
  <polygon fill="#006ca1" points="205.9986,164.7178 210.4986,155.7178 214.9986,164.7178" stroke-width="0" transform=" rotate(0, 210, 160)"/>
  <ellipse cx="219.6108" cy="160.6399" fill="#006ca1" rx="4.5" ry="4.5" stroke-width="0" transform=" rotate(0, 219, 160)"/>
  <rect fill="#006ca1" height="9" stroke-width="0" transform=" rotate(0, 229, 159)" width="9" x="225.2626" y="154.8771"/>
  <polygon fill="#006ca1" points="235.3188,164.6688 239.8188,155.6688 244.3188,164.6688" stroke-width="0" transform=" rotate(0, 239, 160)"/>
  <ellipse cx="249.4287" cy="159.7576" fill="#006ca1" rx="4.5" ry="4.5" stroke-width="0" transform=" rotate(0, 249, 159)"/>
  <rect fill="#006ca1" height="9" stroke-width="0" transform=" rotate(0, 260, 160)" width="9" x="256.1673" y="155.5934"/>
  <polygon fill="#006ca1" points="266.1766,165.1018 270.6766,156.1018 275.1766,165.1018" stroke-width="0" transform=" rotate(0, 270, 160)"/>
  <ellipse cx="279.4896" cy="159.3818" fill="#006ca1" rx="4.5" ry="4.5" stroke-width="0" transform=" rotate(0, 279, 159)"/>
  <rect fill="#006ca1" height="9" stroke-width="0" transform=" rotate(0, 49, 170)" width="9" x="45.3321" y="165.9128"/>
  <polygon fill="#006ca1" points="56.1485,174.5757 60.6485,165.5757 65.1485,174.5757" stroke-width="0" transform=" rotate(0, 60, 170)"/>
  <ellipse cx="70.5647" cy="169.5402" fill="#006ca1" rx="4.5" ry="4.5" stroke-width="0" transform=" rotate(0, 70, 169)"/>
  <rect fill="#006ca1" height="9" stroke-width="0" transform=" rotate(0, 79, 169)" width="9" x="74.9874" y="165.3242"/>
  <polygon fill="#006ca1" points="85.4561,174.5097 89.9561,165.5097 94.4561,174.5097" stroke-width="0" transform=" rotate(0, 89, 170)"/>
  <ellipse cx="99.8834" cy="170.333" fill="#006ca1" rx="4.5" ry="4.5" stroke-width="0" transform=" rotate(0, 99, 170)"/>
  <rect fill="#006ca1" height="9" stroke-width="0" transform=" rotate(0, 110, 169)" width="9" x="105.6532" y="164.9043"/>
  <polygon fill="#006ca1" points="115.4834,173.8738 119.9834,164.8738 124.4834,173.8738" stroke-width="0" transform=" rotate(0, 119, 169)"/>
  <ellipse cx="129.8244" cy="169.4048" fill="#006ca1" rx="4.5" ry="4.5" stroke-width="0" transform=" rotate(0, 129, 169)"/>
  <rect fill="#006ca1" height="9" stroke-width="0" transform=" rotate(0, 139, 169)" width="9" x="135.0505" y="165.3153"/>
  <polygon fill="#006ca1" points="145.8215,174.5513 150.3215,165.5513 154.8215,174.5513" stroke-width="0" transform=" rotate(0, 150, 170)"/>
  <ellipse cx="160.1556" cy="170.5574" fill="#006ca1" rx="4.5" ry="4.5" stroke-width="0" transform=" rotate(0, 160, 170)"/>
  <rect fill="#006ca1" height="9" stroke-width="0" transform=" rotate(0, 169, 170)" width="9" x="164.8713" y="166.0229"/>
  <polygon fill="#006ca1" points="175.7079,174.3561 180.2079,165.3561 184.7079,174.3561" stroke-width="0" transform=" rotate(0, 180, 169)"/>
  <ellipse cx="190.5878" cy="170.4319" fill="#006ca1" rx="4.5" ry="4.5" stroke-width="0" transform=" rotate(0, 190, 170)"/>
  <rect fill="#006ca1" height="9" stroke-width="0" transform=" rotate(0, 200, 170)" width="9" x="195.5284" y="166.0583"/>
  <polygon fill="#006ca1" points="205.3691,174.4495 209.8691,165.4495 214.3691,174.4495" stroke-width="0" transform=" rotate(0, 209, 169)"/>
  <ellipse cx="220.3396" cy="169.4938" fill="#006ca1" rx="4.5" ry="4.5" stroke-width="0" transform=" rotate(0, 220, 169)"/>
  <rect fill="#006ca1" height="9" stroke-width="0" transform=" rotate(0, 230, 169)" width="9" x="225.7782" y="165.4405"/>
  <polygon fill="#006ca1" points="235.0584,174.3498 239.5584,165.3498 244.0584,174.3498" stroke-width="0" transform=" rotate(0, 239, 169)"/>
  <ellipse cx="250.1931" cy="169.8809" fill="#006ca1" rx="4.5" ry="4.5" stroke-width="0" transform=" rotate(0, 250, 169)"/>
  <rect fill="#006ca1" height="9" stroke-width="0" transform=" rotate(0, 260, 169)" width="9" x="255.9259" y="164.9553"/>
  <polygon fill="#006ca1" points="266.064,174.4481 270.564,165.4481 275.064,174.4481" stroke-width="0" transform=" rotate(0, 270, 169)"/>
  <ellipse cx="279.6876" cy="170.118" fill="#006ca1" rx="4.5" ry="4.5" stroke-width="0" transform=" rotate(0, 279, 170)"/>
  <rect fill="#1b9fd8" height="7" stroke-width="0" transform=" rotate(0, 49, 180)" width="7" x="46.2911" y="176.9362"/>
  <polygon fill="#1b9fd8" points="55.974,183.1038 59.474,176.1038 62.974,183.1038" stroke-width="0" transform=" rotate(0, 59, 179)"/>
  <ellipse cx="69.4022" cy="179.573" fill="#1b9fd8" rx="3.5" ry="3.5" stroke-width="0" transform=" rotate(0, 69, 179)"/>
  <rect fill="#1b9fd8" height="7" stroke-width="0" transform=" rotate(0, 79, 180)" width="7" x="75.9388" y="176.8636"/>
  <polygon fill="#1b9fd8" points="87.1006,183.0211 90.6006,176.0211 94.1006,183.0211" stroke-width="0" transform=" rotate(0, 90, 179)"/>
  <ellipse cx="100.6632" cy="179.8332" fill="#1b9fd8" rx="3.5" ry="3.5" stroke-width="0" transform=" rotate(0, 100, 179)"/>
  <rect fill="#1b9fd8" height="7" stroke-width="0" transform=" rotate(0, 110, 180)" width="7" x="106.6072" y="176.603"/>
  <polygon fill="#1b9fd8" points="116.4761,183.4059 119.9761,176.4059 123.4761,183.4059" stroke-width="0" transform=" rotate(0, 119, 179)"/>
  <ellipse cx="130.5967" cy="180.6295" fill="#1b9fd8" rx="3.5" ry="3.5" stroke-width="0" transform=" rotate(0, 130, 180)"/>
  <rect fill="#1b9fd8" height="7" stroke-width="0" transform=" rotate(0, 140, 179)" width="7" x="137.1943" y="175.947"/>
  <polygon fill="#1b9fd8" points="146.8071,182.9011 150.3071,175.9011 153.8071,182.9011" stroke-width="0" transform=" rotate(0, 150, 179)"/>
  <ellipse cx="159.966" cy="180.58" fill="#1b9fd8" rx="3.5" ry="3.5" stroke-width="0" transform=" rotate(0, 159, 180)"/>
  <rect fill="#1b9fd8" height="7" stroke-width="0" transform=" rotate(0, 170, 180)" width="7" x="166.8948" y="176.6449"/>
  <polygon fill="#1b9fd8" points="176.4105,183.9178 179.9105,176.9178 183.4105,183.9178" stroke-width="0" transform=" rotate(0, 179, 180)"/>
  <ellipse cx="189.8646" cy="179.3211" fill="#1b9fd8" rx="3.5" ry="3.5" stroke-width="0" transform=" rotate(0, 189, 179)"/>
  <rect fill="#1b9fd8" height="7" stroke-width="0" transform=" rotate(0, 200, 179)" width="7" x="196.6119" y="175.9063"/>
  <polygon fill="#1b9fd8" points="207.1095,183.9363 210.6095,176.9363 214.1095,183.9363" stroke-width="0" transform=" rotate(0, 210, 180)"/>
  <ellipse cx="219.9553" cy="179.5738" fill="#1b9fd8" rx="3.5" ry="3.5" stroke-width="0" transform=" rotate(0, 219, 179)"/>
  <rect fill="#1b9fd8" height="7" stroke-width="0" transform=" rotate(0, 230, 180)" width="7" x="226.5968" y="176.9337"/>
  <polygon fill="#1b9fd8" points="236.2927,182.8685 239.7927,175.8685 243.2927,182.8685" stroke-width="0" transform=" rotate(0, 239, 179)"/>
  <ellipse cx="249.4746" cy="180.2728" fill="#1b9fd8" rx="3.5" ry="3.5" stroke-width="0" transform=" rotate(0, 249, 180)"/>
  <rect fill="#1b9fd8" height="7" stroke-width="0" transform=" rotate(0, 260, 179)" width="7" x="256.9172" y="175.9274"/>
  <polygon fill="#1b9fd8" points="266.5405,182.8699 270.0405,175.8699 273.5405,182.8699" stroke-width="0" transform=" rotate(0, 270, 179)"/>
  <ellipse cx="279.4328" cy="180.1439" fill="#1b9fd8" rx="3.5" ry="3.5" stroke-width="0" transform=" rotate(0, 279, 180)"/>
  <rect fill="#6dd6ff" height="5" stroke-width="0" transform=" rotate(0, 49, 189)" width="5" x="47.4508" y="187.2696"/>
  <polygon fill="#6dd6ff" points="58.1886,193.0071 60.6886,188.0071 63.1886,193.0071" stroke-width="0" transform=" rotate(0, 60, 190)"/>
  <ellipse cx="69.5651" cy="190.5143" fill="#6dd6ff" rx="2.5" ry="2.5" stroke-width="0" transform=" rotate(0, 69, 190)"/>
  <rect fill="#6dd6ff" height="5" stroke-width="0" transform=" rotate(0, 80, 189)" width="5" x="78.0311" y="187.345"/>
  <polygon fill="#6dd6ff" points="87.2796,193.0566 89.7796,188.0566 92.2796,193.0566" stroke-width="0" transform=" rotate(0, 89, 190)"/>
  <ellipse cx="99.4277" cy="190.0893" fill="#6dd6ff" rx="2.5" ry="2.5" stroke-width="0" transform=" rotate(0, 99, 190)"/>
  <rect fill="#6dd6ff" height="5" stroke-width="0" transform=" rotate(0, 109, 189)" width="5" x="107.2596" y="187.3567"/>
  <polygon fill="#6dd6ff" points="117.735,191.8739 120.235,186.8739 122.735,191.8739" stroke-width="0" transform=" rotate(0, 120, 189)"/>
  <ellipse cx="130.4775" cy="190.6142" fill="#6dd6ff" rx="2.5" ry="2.5" stroke-width="0" transform=" rotate(0, 130, 190)"/>
  <rect fill="#6dd6ff" height="5" stroke-width="0" transform=" rotate(0, 139, 189)" width="5" x="137.0793" y="187.0237"/>
  <polygon fill="#6dd6ff" points="148.0101,192.1097 150.5101,187.1097 153.0101,192.1097" stroke-width="0" transform=" rotate(0, 150, 189)"/>
  <ellipse cx="159.7371" cy="190.3229" fill="#6dd6ff" rx="2.5" ry="2.5" stroke-width="0" transform=" rotate(0, 159, 190)"/>
  <rect fill="#6dd6ff" height="5" stroke-width="0" transform=" rotate(0, 169, 190)" width="5" x="166.9565" y="188.0042"/>
  <polygon fill="#6dd6ff" points="178.081,192.2446 180.581,187.2446 183.081,192.2446" stroke-width="0" transform=" rotate(0, 180, 189)"/>
  <ellipse cx="189.4987" cy="189.5966" fill="#6dd6ff" rx="2.5" ry="2.5" stroke-width="0" transform=" rotate(0, 189, 189)"/>
  <rect fill="#6dd6ff" height="5" stroke-width="0" transform=" rotate(0, 200, 190)" width="5" x="197.8652" y="187.6068"/>
  <polygon fill="#6dd6ff" points="207.0355,192.8809 209.5355,187.8809 212.0355,192.8809" stroke-width="0" transform=" rotate(0, 209, 190)"/>
  <ellipse cx="219.621" cy="189.8395" fill="#6dd6ff" rx="2.5" ry="2.5" stroke-width="0" transform=" rotate(0, 219, 189)"/>
  <rect fill="#6dd6ff" height="5" stroke-width="0" transform=" rotate(0, 229, 189)" width="5" x="227.3538" y="186.8005"/>
  <polygon fill="#6dd6ff" points="237.7117,192.9801 240.2117,187.9801 242.7117,192.9801" stroke-width="0" transform=" rotate(0, 240, 190)"/>
  <ellipse cx="249.8841" cy="189.4496" fill="#6dd6ff" rx="2.5" ry="2.5" stroke-width="0" transform=" rotate(0, 249, 189)"/>
  <rect fill="#6dd6ff" height="5" stroke-width="0" transform=" rotate(0, 260, 189)" width="5" x="257.7804" y="186.8162"/>
  <polygon fill="#6dd6ff" points="267.5885,192.7983 270.0885,187.7983 272.5885,192.7983" stroke-width="0" transform=" rotate(0, 270, 190)"/>
  <ellipse cx="279.4382" cy="189.7688" fill="#6dd6ff" rx="2.5" ry="2.5" stroke-width="0" transform=" rotate(0, 279, 189)"/>
  <rect fill="#006ca1" height="9" stroke-width="0" transform=" rotate(0, 49, 199)" width="9" x="45.172" y="195.023"/>
  <polygon fill="#006ca1" points="54.8642,204.2698 59.3642,195.2698 63.8642,204.2698" stroke-width="0" transform=" rotate(0, 59, 199)"/>
  <ellipse cx="70.4041" cy="199.4026" fill="#006ca1" rx="4.5" ry="4.5" stroke-width="0" transform=" rotate(0, 70, 199)"/>
  <rect fill="#006ca1" height="9" stroke-width="0" transform=" rotate(0, 79, 200)" width="9" x="75.4621" y="196.1452"/>
  <polygon fill="#006ca1" points="85.5836,204.66 90.0836,195.66 94.5836,204.66" stroke-width="0" transform=" rotate(0, 90, 200)"/>
  <ellipse cx="100.5082" cy="199.2887" fill="#006ca1" rx="4.5" ry="4.5" stroke-width="0" transform=" rotate(0, 100, 199)"/>
  <rect fill="#006ca1" height="9" stroke-width="0" transform=" rotate(0, 109, 199)" width="9" x="104.8097" y="195.4709"/>
  <polygon fill="#006ca1" points="115.2746,205.1035 119.7746,196.1035 124.2746,205.1035" stroke-width="0" transform=" rotate(0, 119, 200)"/>
  <ellipse cx="129.3477" cy="199.4145" fill="#006ca1" rx="4.5" ry="4.5" stroke-width="0" transform=" rotate(0, 129, 199)"/>
  <rect fill="#006ca1" height="9" stroke-width="0" transform=" rotate(0, 139, 199)" width="9" x="135.0309" y="195.2011"/>
  <polygon fill="#006ca1" points="145.5443,204.0534 150.0443,195.0534 154.5443,204.0534" stroke-width="0" transform=" rotate(0, 150, 199)"/>
  <ellipse cx="159.9376" cy="200.5278" fill="#006ca1" rx="4.5" ry="4.5" stroke-width="0" transform=" rotate(0, 159, 200)"/>
  <rect fill="#006ca1" height="9" stroke-width="0" transform=" rotate(0, 169, 200)" width="9" x="164.842" y="196.1141"/>
  <polygon fill="#006ca1" points="176.0765,204.2487 180.5765,195.2487 185.0765,204.2487" stroke-width="0" transform=" rotate(0, 180, 199)"/>
  <ellipse cx="190.6609" cy="200.3606" fill="#006ca1" rx="4.5" ry="4.5" stroke-width="0" transform=" rotate(0, 190, 200)"/>
  <rect fill="#006ca1" height="9" stroke-width="0" transform=" rotate(0, 199, 199)" width="9" x="194.8375" y="194.789"/>
  <polygon fill="#006ca1" points="206.0843,204.1598 210.5843,195.1598 215.0843,204.1598" stroke-width="0" transform=" rotate(0, 210, 199)"/>
  <ellipse cx="220.1707" cy="199.8551" fill="#006ca1" rx="4.5" ry="4.5" stroke-width="0" transform=" rotate(0, 220, 199)"/>
  <rect fill="#006ca1" height="9" stroke-width="0" transform=" rotate(0, 230, 199)" width="9" x="225.5309" y="195.078"/>
  <polygon fill="#006ca1" points="234.823,204.6192 239.323,195.6192 243.823,204.6192" stroke-width="0" transform=" rotate(0, 239, 200)"/>
  <ellipse cx="249.8311" cy="199.4489" fill="#006ca1" rx="4.5" ry="4.5" stroke-width="0" transform=" rotate(0, 249, 199)"/>
  <rect fill="#006ca1" height="9" stroke-width="0" transform=" rotate(0, 259, 200)" width="9" x="254.9413" y="195.6729"/>
  <polygon fill="#006ca1" points="265.7344,204.8564 270.2344,195.8564 274.7344,204.8564" stroke-width="0" transform=" rotate(0, 270, 200)"/>
  <ellipse cx="280.1793" cy="199.7914" fill="#006ca1" rx="4.5" ry="4.5" stroke-width="0" transform=" rotate(0, 280, 199)"/>
  <rect fill="#1b9fd8" height="7" stroke-width="0" transform=" rotate(0, 49, 209)" width="7" x="45.8791" y="206.0194"/>
  <polygon fill="#1b9fd8" points="56.21,213.5299 59.71,206.5299 63.21,213.5299" stroke-width="0" transform=" rotate(0, 59, 210)"/>
  <ellipse cx="69.5637" cy="209.6672" fill="#1b9fd8" rx="3.5" ry="3.5" stroke-width="0" transform=" rotate(0, 69, 209)"/>
  <rect fill="#1b9fd8" height="7" stroke-width="0" transform=" rotate(0, 79, 209)" width="7" x="76.3919" y="206.3772"/>
  <polygon fill="#1b9fd8" points="86.7727,213.9864 90.2727,206.9864 93.7727,213.9864" stroke-width="0" transform=" rotate(0, 90, 210)"/>
  <ellipse cx="100.4649" cy="209.9407" fill="#1b9fd8" rx="3.5" ry="3.5" stroke-width="0" transform=" rotate(0, 100, 209)"/>
  <rect fill="#1b9fd8" height="7" stroke-width="0" transform=" rotate(0, 110, 209)" width="7" x="106.9848" y="206.3591"/>
  <polygon fill="#1b9fd8" points="116.1568,212.9564 119.6568,205.9564 123.1568,212.9564" stroke-width="0" transform=" rotate(0, 119, 209)"/>
  <ellipse cx="130.1024" cy="210.5248" fill="#1b9fd8" rx="3.5" ry="3.5" stroke-width="0" transform=" rotate(0, 130, 210)"/>
  <rect fill="#1b9fd8" height="7" stroke-width="0" transform=" rotate(0, 139, 210)" width="7" x="136.395" y="206.743"/>
  <polygon fill="#1b9fd8" points="146.5378,213.9165 150.0378,206.9165 153.5378,213.9165" stroke-width="0" transform=" rotate(0, 150, 210)"/>
  <ellipse cx="160.1997" cy="209.4816" fill="#1b9fd8" rx="3.5" ry="3.5" stroke-width="0" transform=" rotate(0, 160, 209)"/>
  <rect fill="#1b9fd8" height="7" stroke-width="0" transform=" rotate(0, 169, 210)" width="7" x="166.0169" y="206.8899"/>
  <polygon fill="#1b9fd8" points="177.1268,212.9936 180.6268,205.9936 184.1268,212.9936" stroke-width="0" transform=" rotate(0, 180, 209)"/>
  <ellipse cx="190.4192" cy="210.6574" fill="#1b9fd8" rx="3.5" ry="3.5" stroke-width="0" transform=" rotate(0, 190, 210)"/>
  <rect fill="#1b9fd8" height="7" stroke-width="0" transform=" rotate(0, 199, 209)" width="7" x="196.1708" y="206.3946"/>
  <polygon fill="#1b9fd8" points="206.2843,213.3295 209.7843,206.3295 213.2843,213.3295" stroke-width="0" transform=" rotate(0, 209, 209)"/>
  <ellipse cx="220.2517" cy="210.3017" fill="#1b9fd8" rx="3.5" ry="3.5" stroke-width="0" transform=" rotate(0, 220, 210)"/>
  <rect fill="#1b9fd8" height="7" stroke-width="0" transform=" rotate(0, 230, 210)" width="7" x="227.1933" y="206.7151"/>
  <polygon fill="#1b9fd8" points="236.0204,212.8843 239.5204,205.8843 243.0204,212.8843" stroke-width="0" transform=" rotate(0, 239, 209)"/>
  <ellipse cx="250.664" cy="209.5772" fill="#1b9fd8" rx="3.5" ry="3.5" stroke-width="0" transform=" rotate(0, 250, 209)"/>
  <rect fill="#1b9fd8" height="7" stroke-width="0" transform=" rotate(0, 260, 210)" width="7" x="257.0326" y="206.7431"/>
  <polygon fill="#1b9fd8" points="265.9375,213.6511 269.4375,206.6511 272.9375,213.6511" stroke-width="0" transform=" rotate(0, 269, 210)"/>
  <ellipse cx="280.0163" cy="209.9093" fill="#1b9fd8" rx="3.5" ry="3.5" stroke-width="0" transform=" rotate(0, 280, 209)"/>
  <rect fill="#6dd6ff" height="5" stroke-width="0" transform=" rotate(0, 50, 220)" width="5" x="47.6956" y="217.7169"/>
  <polygon fill="#6dd6ff" points="58.0964,222.043 60.5964,217.043 63.0964,222.043" stroke-width="0" transform=" rotate(0, 60, 219)"/>
  <ellipse cx="70.3688" cy="219.8903" fill="#6dd6ff" rx="2.5" ry="2.5" stroke-width="0" transform=" rotate(0, 70, 219)"/>
  <rect fill="#6dd6ff" height="5" stroke-width="0" transform=" rotate(0, 80, 220)" width="5" x="77.528" y="217.8137"/>
  <polygon fill="#6dd6ff" points="87.1403,222.4755 89.6403,217.4755 92.1403,222.4755" stroke-width="0" transform=" rotate(0, 89, 219)"/>
  <ellipse cx="100.2017" cy="219.5806" fill="#6dd6ff" rx="2.5" ry="2.5" stroke-width="0" transform=" rotate(0, 100, 219)"/>
  <rect fill="#6dd6ff" height="5" stroke-width="0" transform=" rotate(0, 109, 220)" width="5" x="107.0432" y="218.0422"/>
  <polygon fill="#6dd6ff" points="117.2411,222.0613 119.7411,217.0613 122.2411,222.0613" stroke-width="0" transform=" rotate(0, 119, 219)"/>
  <ellipse cx="129.856" cy="220.6201" fill="#6dd6ff" rx="2.5" ry="2.5" stroke-width="0" transform=" rotate(0, 129, 220)"/>
  <rect fill="#6dd6ff" height="5" stroke-width="0" transform=" rotate(0, 139, 219)" width="5" x="137.475" y="217.0715"/>
  <polygon fill="#6dd6ff" points="147.1579,222.0345 149.6579,217.0345 152.1579,222.0345" stroke-width="0" transform=" rotate(0, 149, 219)"/>
  <ellipse cx="159.9258" cy="220.0092" fill="#6dd6ff" rx="2.5" ry="2.5" stroke-width="0" transform=" rotate(0, 159, 220)"/>
  <rect fill="#6dd6ff" height="5" stroke-width="0" transform=" rotate(0, 170, 219)" width="5" x="167.8723" y="217.1387"/>
  <polygon fill="#6dd6ff" points="177.1414,222.9803 179.6414,217.9803 182.1414,222.9803" stroke-width="0" transform=" rotate(0, 179, 220)"/>
  <ellipse cx="190.4695" cy="220.1517" fill="#6dd6ff" rx="2.5" ry="2.5" stroke-width="0" transform=" rotate(0, 190, 220)"/>
  <rect fill="#6dd6ff" height="5" stroke-width="0" transform=" rotate(0, 200, 220)" width="5" x="198.1487" y="217.9551"/>
  <polygon fill="#6dd6ff" points="207.8419,222.2877 210.3419,217.2877 212.8419,222.2877" stroke-width="0" transform=" rotate(0, 210, 219)"/>
  <ellipse cx="219.6725" cy="219.6083" fill="#6dd6ff" rx="2.5" ry="2.5" stroke-width="0" transform=" rotate(0, 219, 219)"/>
  <rect fill="#6dd6ff" height="5" stroke-width="0" transform=" rotate(0, 229, 219)" width="5" x="227.478" y="216.8169"/>
  <polygon fill="#6dd6ff" points="237.8045,222.8827 240.3045,217.8827 242.8045,222.8827" stroke-width="0" transform=" rotate(0, 240, 220)"/>
  <ellipse cx="249.5111" cy="219.728" fill="#6dd6ff" rx="2.5" ry="2.5" stroke-width="0" transform=" rotate(0, 249, 219)"/>
  <rect fill="#6dd6ff" height="5" stroke-width="0" transform=" rotate(0, 260, 219)" width="5" x="257.9457" y="216.8344"/>
  <polygon fill="#6dd6ff" points="267.063,222.4749 269.563,217.4749 272.063,222.4749" stroke-width="0" transform=" rotate(0, 269, 219)"/>
  <ellipse cx="279.414" cy="220.2736" fill="#6dd6ff" rx="2.5" ry="2.5" stroke-width="0" transform=" rotate(0, 279, 220)"/>
  <rect fill="#006ca1" height="9" stroke-width="0" transform=" rotate(0, 50, 229)" width="9" x="46.1114" y="224.9373"/>
  <polygon fill="#006ca1" points="55.7255,233.9879 60.2255,224.9879 64.7255,233.9879" stroke-width="0" transform=" rotate(0, 60, 229)"/>
  <ellipse cx="69.8466" cy="230.3577" fill="#006ca1" rx="4.5" ry="4.5" stroke-width="0" transform=" rotate(0, 69, 230)"/>
  <rect fill="#006ca1" height="9" stroke-width="0" transform=" rotate(0, 80, 230)" width="9" x="76.0649" y="226.1227"/>
  <polygon fill="#006ca1" points="85.9329,234.9421 90.4329,225.9421 94.9329,234.9421" stroke-width="0" transform=" rotate(0, 90, 230)"/>
  <ellipse cx="100.6517" cy="229.9715" fill="#006ca1" rx="4.5" ry="4.5" stroke-width="0" transform=" rotate(0, 100, 229)"/>
  <rect fill="#006ca1" height="9" stroke-width="0" transform=" rotate(0, 110, 229)" width="9" x="105.6287" y="224.8006"/>
  <polygon fill="#006ca1" points="115.8762,234.7174 120.3762,225.7174 124.8762,234.7174" stroke-width="0" transform=" rotate(0, 120, 230)"/>
  <ellipse cx="130.3226" cy="229.6455" fill="#006ca1" rx="4.5" ry="4.5" stroke-width="0" transform=" rotate(0, 130, 229)"/>
  <rect fill="#006ca1" height="9" stroke-width="0" transform=" rotate(0, 139, 230)" width="9" x="134.9062" y="226.0615"/>
  <polygon fill="#006ca1" points="145.4977,234.0436 149.9977,225.0436 154.4977,234.0436" stroke-width="0" transform=" rotate(0, 149, 229)"/>
  <ellipse cx="160.3491" cy="230.1549" fill="#006ca1" rx="4.5" ry="4.5" stroke-width="0" transform=" rotate(0, 160, 230)"/>
  <rect fill="#006ca1" height="9" stroke-width="0" transform=" rotate(0, 169, 229)" width="9" x="164.9219" y="225.3984"/>
  <polygon fill="#006ca1" points="176.0833,234.7142 180.5833,225.7142 185.0833,234.7142" stroke-width="0" transform=" rotate(0, 180, 230)"/>
  <ellipse cx="189.8842" cy="230.5645" fill="#006ca1" rx="4.5" ry="4.5" stroke-width="0" transform=" rotate(0, 189, 230)"/>
  <rect fill="#006ca1" height="9" stroke-width="0" transform=" rotate(0, 200, 230)" width="9" x="195.8309" y="226.0725"/>
  <polygon fill="#006ca1" points="205.1774,234.5947 209.6774,225.5947 214.1774,234.5947" stroke-width="0" transform=" rotate(0, 209, 230)"/>
  <ellipse cx="220.1564" cy="229.6373" fill="#006ca1" rx="4.5" ry="4.5" stroke-width="0" transform=" rotate(0, 220, 229)"/>
  <rect fill="#006ca1" height="9" stroke-width="0" transform=" rotate(0, 230, 229)" width="9" x="226.132" y="225.0515"/>
  <polygon fill="#006ca1" points="235.4954,234.0688 239.9954,225.0688 244.4954,234.0688" stroke-width="0" transform=" rotate(0, 239, 229)"/>
  <ellipse cx="250.4148" cy="229.9204" fill="#006ca1" rx="4.5" ry="4.5" stroke-width="0" transform=" rotate(0, 250, 229)"/>
  <rect fill="#006ca1" height="9" stroke-width="0" transform=" rotate(0, 259, 229)" width="9" x="254.9152" y="225.1878"/>
  <polygon fill="#006ca1" points="266.0973,235.109 270.5973,226.109 275.0973,235.109" stroke-width="0" transform=" rotate(0, 270, 230)"/>
  <ellipse cx="279.7648" cy="230.088" fill="#006ca1" rx="4.5" ry="4.5" stroke-width="0" transform=" rotate(0, 279, 230)"/>
  <rect fill="#1b9fd8" height="7" stroke-width="0" transform=" rotate(0, 49, 239)" width="7" x="46.1366" y="235.84"/>
  <polygon fill="#1b9fd8" points="55.885,243.0289 59.385,236.0289 62.885,243.0289" stroke-width="0" transform=" rotate(0, 59, 239)"/>
  <ellipse cx="69.6301" cy="240.0096" fill="#1b9fd8" rx="3.5" ry="3.5" stroke-width="0" transform=" rotate(0, 69, 240)"/>
  <rect fill="#1b9fd8" height="7" stroke-width="0" transform=" rotate(0, 79, 239)" width="7" x="75.979" y="235.9228"/>
  <polygon fill="#1b9fd8" points="85.9285,243.5893 89.4285,236.5893 92.9285,243.5893" stroke-width="0" transform=" rotate(0, 89, 240)"/>
  <ellipse cx="99.3585" cy="239.6274" fill="#1b9fd8" rx="3.5" ry="3.5" stroke-width="0" transform=" rotate(0, 99, 239)"/>
  <rect fill="#1b9fd8" height="7" stroke-width="0" transform=" rotate(0, 109, 240)" width="7" x="105.8063" y="236.6459"/>
  <polygon fill="#1b9fd8" points="116.5142,243.5407 120.0142,236.5407 123.5142,243.5407" stroke-width="0" transform=" rotate(0, 120, 240)"/>
  <ellipse cx="130.4423" cy="240.1292" fill="#1b9fd8" rx="3.5" ry="3.5" stroke-width="0" transform=" rotate(0, 130, 240)"/>
  <rect fill="#1b9fd8" height="7" stroke-width="0" transform=" rotate(0, 140, 239)" width="7" x="136.9947" y="235.9557"/>
  <polygon fill="#1b9fd8" points="146.2056,242.9039 149.7056,235.9039 153.2056,242.9039" stroke-width="0" transform=" rotate(0, 149, 239)"/>
  <ellipse cx="160.401" cy="240.2978" fill="#1b9fd8" rx="3.5" ry="3.5" stroke-width="0" transform=" rotate(0, 160, 240)"/>
  <rect fill="#1b9fd8" height="7" stroke-width="0" transform=" rotate(0, 170, 239)" width="7" x="166.62" y="236.1785"/>
  <polygon fill="#1b9fd8" points="175.9439,243.0494 179.4439,236.0494 182.9439,243.0494" stroke-width="0" transform=" rotate(0, 179, 239)"/>
  <ellipse cx="189.697" cy="239.6962" fill="#1b9fd8" rx="3.5" ry="3.5" stroke-width="0" transform=" rotate(0, 189, 239)"/>
  <rect fill="#1b9fd8" height="7" stroke-width="0" transform=" rotate(0, 200, 239)" width="7" x="196.8655" y="235.9396"/>
  <polygon fill="#1b9fd8" points="205.9847,243.9371 209.4847,236.9371 212.9847,243.9371" stroke-width="0" transform=" rotate(0, 209, 240)"/>
  <ellipse cx="220.1234" cy="239.3756" fill="#1b9fd8" rx="3.5" ry="3.5" stroke-width="0" transform=" rotate(0, 220, 239)"/>
  <rect fill="#1b9fd8" height="7" stroke-width="0" transform=" rotate(0, 229, 240)" width="7" x="225.9697" y="236.9035"/>
  <polygon fill="#1b9fd8" points="236.2434,244.0445 239.7434,237.0445 243.2434,244.0445" stroke-width="0" transform=" rotate(0, 239, 240)"/>
  <ellipse cx="250.0027" cy="239.7775" fill="#1b9fd8" rx="3.5" ry="3.5" stroke-width="0" transform=" rotate(0, 250, 239)"/>
  <rect fill="#1b9fd8" height="7" stroke-width="0" transform=" rotate(0, 259, 239)" width="7" x="255.9197" y="235.9318"/>
  <polygon fill="#1b9fd8" points="267.1714,242.8424 270.6714,235.8424 274.1714,242.8424" stroke-width="0" transform=" rotate(0, 270, 239)"/>
  <ellipse cx="280.2179" cy="240.2601" fill="#1b9fd8" rx="3.5" ry="3.5" stroke-width="0" transform=" rotate(0, 280, 240)"/>
  <rect fill="#6dd6ff" height="5" stroke-width="0" transform=" rotate(0, 49, 250)" width="5" x="47.0508" y="247.5696"/>
  <polygon fill="#6dd6ff" points="56.922,252.0524 59.422,247.0524 61.922,252.0524" stroke-width="0" transform=" rotate(0, 59, 249)"/>
  <ellipse cx="70.0687" cy="250.6137" fill="#6dd6ff" rx="2.5" ry="2.5" stroke-width="0" transform=" rotate(0, 70, 250)"/>
  <rect fill="#6dd6ff" height="5" stroke-width="0" transform=" rotate(0, 79, 250)" width="5" x="77.4432" y="248.0964"/>
  <polygon fill="#6dd6ff" points="87.2629,252.6097 89.7629,247.6097 92.2629,252.6097" stroke-width="0" transform=" rotate(0, 89, 250)"/>
  <ellipse cx="100.2226" cy="249.6892" fill="#6dd6ff" rx="2.5" ry="2.5" stroke-width="0" transform=" rotate(0, 100, 249)"/>
  <rect fill="#6dd6ff" height="5" stroke-width="0" transform=" rotate(0, 110, 250)" width="5" x="108.0712" y="247.7058"/>
  <polygon fill="#6dd6ff" points="117.3482,253.0721 119.8482,248.0721 122.3482,253.0721" stroke-width="0" transform=" rotate(0, 119, 250)"/>
  <ellipse cx="129.5677" cy="250.4465" fill="#6dd6ff" rx="2.5" ry="2.5" stroke-width="0" transform=" rotate(0, 129, 250)"/>
  <rect fill="#6dd6ff" height="5" stroke-width="0" transform=" rotate(0, 140, 250)" width="5" x="137.7349" y="248.0575"/>
  <polygon fill="#6dd6ff" points="147.1299,252.8976 149.6299,247.8976 152.1299,252.8976" stroke-width="0" transform=" rotate(0, 149, 250)"/>
  <ellipse cx="159.6801" cy="250.1656" fill="#6dd6ff" rx="2.5" ry="2.5" stroke-width="0" transform=" rotate(0, 159, 250)"/>
  <rect fill="#6dd6ff" height="5" stroke-width="0" transform=" rotate(0, 170, 250)" width="5" x="167.6734" y="248.1733"/>
  <polygon fill="#6dd6ff" points="178.1362,251.8361 180.6362,246.8361 183.1362,251.8361" stroke-width="0" transform=" rotate(0, 180, 249)"/>
  <ellipse cx="189.2966" cy="249.7304" fill="#6dd6ff" rx="2.5" ry="2.5" stroke-width="0" transform=" rotate(0, 189, 249)"/>
  <rect fill="#6dd6ff" height="5" stroke-width="0" transform=" rotate(0, 200, 249)" width="5" x="197.8583" y="247.3686"/>
  <polygon fill="#6dd6ff" points="208.1415,252.3459 210.6415,247.3459 213.1415,252.3459" stroke-width="0" transform=" rotate(0, 210, 249)"/>
  <ellipse cx="220.1656" cy="249.9451" fill="#6dd6ff" rx="2.5" ry="2.5" stroke-width="0" transform=" rotate(0, 220, 249)"/>
  <rect fill="#6dd6ff" height="5" stroke-width="0" transform=" rotate(0, 230, 250)" width="5" x="227.9219" y="247.6131"/>
  <polygon fill="#6dd6ff" points="237.4488,252.5297 239.9488,247.5297 242.4488,252.5297" stroke-width="0" transform=" rotate(0, 239, 250)"/>
  <ellipse cx="250.4911" cy="250.3273" fill="#6dd6ff" rx="2.5" ry="2.5" stroke-width="0" transform=" rotate(0, 250, 250)"/>
  <rect fill="#6dd6ff" height="5" stroke-width="0" transform=" rotate(0, 260, 249)" width="5" x="257.7763" y="246.8789"/>
  <polygon fill="#6dd6ff" points="267.7574,252.3629 270.2574,247.3629 272.7574,252.3629" stroke-width="0" transform=" rotate(0, 270, 249)"/>
  <ellipse cx="279.3371" cy="250.3505" fill="#6dd6ff" rx="2.5" ry="2.5" stroke-width="0" transform=" rotate(0, 279, 250)"/>
  <rect fill="#006ca1" height="9" stroke-width="0" transform=" rotate(0, 50, 260)" width="9" x="46.0149" y="256.0274"/>
  <polygon fill="#006ca1" points="55.1223,264.1648 59.6223,255.1648 64.1223,264.1648" stroke-width="0" transform=" rotate(0, 59, 259)"/>
  <ellipse cx="70.6858" cy="260.0719" fill="#006ca1" rx="4.5" ry="4.5" stroke-width="0" transform=" rotate(0, 70, 260)"/>
  <rect fill="#006ca1" height="9" stroke-width="0" transform=" rotate(0, 79, 259)" width="9" x="75.0063" y="255.1446"/>
  <polygon fill="#006ca1" points="85.8425,263.9059 90.3425,254.9059 94.8425,263.9059" stroke-width="0" transform=" rotate(0, 90, 259)"/>
  <ellipse cx="99.4596" cy="260.3304" fill="#006ca1" rx="4.5" ry="4.5" stroke-width="0" transform=" rotate(0, 99, 260)"/>
  <rect fill="#006ca1" height="9" stroke-width="0" transform=" rotate(0, 109, 259)" width="9" x="105.4769" y="254.906"/>
  <polygon fill="#006ca1" points="115.1871,264.2739 119.6871,255.2739 124.1871,264.2739" stroke-width="0" transform=" rotate(0, 119, 259)"/>
  <ellipse cx="130.3459" cy="259.4972" fill="#006ca1" rx="4.5" ry="4.5" stroke-width="0" transform=" rotate(0, 130, 259)"/>
  <rect fill="#006ca1" height="9" stroke-width="0" transform=" rotate(0, 139, 259)" width="9" x="135.0679" y="255.0018"/>
  <polygon fill="#006ca1" points="144.8364,264.1248 149.3364,255.1248 153.8364,264.1248" stroke-width="0" transform=" rotate(0, 149, 259)"/>
  <ellipse cx="160.4549" cy="260.6218" fill="#006ca1" rx="4.5" ry="4.5" stroke-width="0" transform=" rotate(0, 160, 260)"/>
  <rect fill="#006ca1" height="9" stroke-width="0" transform=" rotate(0, 170, 259)" width="9" x="165.5339" y="255.0826"/>
  <polygon fill="#006ca1" points="176.0015,264.3671 180.5015,255.3671 185.0015,264.3671" stroke-width="0" transform=" rotate(0, 180, 259)"/>
  <ellipse cx="189.5291" cy="260.2204" fill="#006ca1" rx="4.5" ry="4.5" stroke-width="0" transform=" rotate(0, 189, 260)"/>
  <rect fill="#006ca1" height="9" stroke-width="0" transform=" rotate(0, 200, 260)" width="9" x="195.5377" y="256.0757"/>
  <polygon fill="#006ca1" points="206.1295,264.2834 210.6295,255.2834 215.1295,264.2834" stroke-width="0" transform=" rotate(0, 210, 259)"/>
  <ellipse cx="219.9468" cy="259.852" fill="#006ca1" rx="4.5" ry="4.5" stroke-width="0" transform=" rotate(0, 219, 259)"/>
  <rect fill="#006ca1" height="9" stroke-width="0" transform=" rotate(0, 229, 259)" width="9" x="225.3271" y="255.4798"/>
  <polygon fill="#006ca1" points="235.1696,264.6838 239.6696,255.6838 244.1696,264.6838" stroke-width="0" transform=" rotate(0, 239, 260)"/>
  <ellipse cx="249.7635" cy="259.539" fill="#006ca1" rx="4.5" ry="4.5" stroke-width="0" transform=" rotate(0, 249, 259)"/>
  <rect fill="#006ca1" height="9" stroke-width="0" transform=" rotate(0, 260, 259)" width="9" x="255.7611" y="255.1697"/>
  <polygon fill="#006ca1" points="264.9092,264.3382 269.4092,255.3382 273.9092,264.3382" stroke-width="0" transform=" rotate(0, 269, 259)"/>
  <ellipse cx="279.7441" cy="259.936" fill="#006ca1" rx="4.5" ry="4.5" stroke-width="0" transform=" rotate(0, 279, 259)"/>
  <rect fill="#1b9fd8" height="7" stroke-width="0" transform=" rotate(0, 49, 269)" width="7" x="46.3425" y="266.3434"/>
  <polygon fill="#1b9fd8" points="56.7699,274.1242 60.2699,267.1242 63.7699,274.1242" stroke-width="0" transform=" rotate(0, 60, 270)"/>
  <ellipse cx="69.9747" cy="269.3063" fill="#1b9fd8" rx="3.5" ry="3.5" stroke-width="0" transform=" rotate(0, 69, 269)"/>
  <rect fill="#1b9fd8" height="7" stroke-width="0" transform=" rotate(0, 80, 269)" width="7" x="76.8153" y="266.169"/>
  <polygon fill="#1b9fd8" points="86.9115,273.8066 90.4115,266.8066 93.9115,273.8066" stroke-width="0" transform=" rotate(0, 90, 270)"/>
  <ellipse cx="99.3847" cy="270.3708" fill="#1b9fd8" rx="3.5" ry="3.5" stroke-width="0" transform=" rotate(0, 99, 270)"/>
  <rect fill="#1b9fd8" height="7" stroke-width="0" transform=" rotate(0, 109, 269)" width="7" x="106.0479" y="266.2641"/>
  <polygon fill="#1b9fd8" points="116.3319,272.7899 119.8319,265.7899 123.3319,272.7899" stroke-width="0" transform=" rotate(0, 119, 269)"/>
  <ellipse cx="130.3712" cy="270.4925" fill="#1b9fd8" rx="3.5" ry="3.5" stroke-width="0" transform=" rotate(0, 130, 270)"/>
  <rect fill="#1b9fd8" height="7" stroke-width="0" transform=" rotate(0, 140, 270)" width="7" x="137.1871" y="267.0849"/>
  <polygon fill="#1b9fd8" points="147.1803,273.0509 150.6803,266.0509 154.1803,273.0509" stroke-width="0" transform=" rotate(0, 150, 269)"/>
  <ellipse cx="160.3677" cy="269.7555" fill="#1b9fd8" rx="3.5" ry="3.5" stroke-width="0" transform=" rotate(0, 160, 269)"/>
  <rect fill="#1b9fd8" height="7" stroke-width="0" transform=" rotate(0, 169, 270)" width="7" x="166.0574" y="266.9034"/>
  <polygon fill="#1b9fd8" points="177.1783,274.0859 180.6783,267.0859 184.1783,274.0859" stroke-width="0" transform=" rotate(0, 180, 270)"/>
  <ellipse cx="189.3429" cy="269.351" fill="#1b9fd8" rx="3.5" ry="3.5" stroke-width="0" transform=" rotate(0, 189, 269)"/>
  <rect fill="#1b9fd8" height="7" stroke-width="0" transform=" rotate(0, 200, 270)" width="7" x="196.8634" y="267.0935"/>
  <polygon fill="#1b9fd8" points="205.9289,273.5524 209.4289,266.5524 212.9289,273.5524" stroke-width="0" transform=" rotate(0, 209, 270)"/>
  <ellipse cx="219.8146" cy="270.3904" fill="#1b9fd8" rx="3.5" ry="3.5" stroke-width="0" transform=" rotate(0, 219, 270)"/>
  <rect fill="#1b9fd8" height="7" stroke-width="0" transform=" rotate(0, 229, 269)" width="7" x="225.8969" y="266.2836"/>
  <polygon fill="#1b9fd8" points="236.7331,273.8326 240.2331,266.8326 243.7331,273.8326" stroke-width="0" transform=" rotate(0, 240, 270)"/>
  <ellipse cx="249.3075" cy="270.2199" fill="#1b9fd8" rx="3.5" ry="3.5" stroke-width="0" transform=" rotate(0, 249, 270)"/>
  <rect fill="#1b9fd8" height="7" stroke-width="0" transform=" rotate(0, 260, 270)" width="7" x="256.6328" y="266.5906"/>
  <polygon fill="#1b9fd8" points="266.0064,273.8107 269.5064,266.8107 273.0064,273.8107" stroke-width="0" transform=" rotate(0, 269, 270)"/>
  <ellipse cx="280.5133" cy="269.7371" fill="#1b9fd8" rx="3.5" ry="3.5" stroke-width="0" transform=" rotate(0, 280, 269)"/>
  <rect fill="#6dd6ff" height="5" stroke-width="0" transform=" rotate(0, 49, 280)" width="5" x="46.8085" y="277.6528"/>
  <polygon fill="#6dd6ff" points="58.0468,281.8747 60.5468,276.8747 63.0468,281.8747" stroke-width="0" transform=" rotate(0, 60, 279)"/>
  <ellipse cx="69.8039" cy="279.8623" fill="#6dd6ff" rx="2.5" ry="2.5" stroke-width="0" transform=" rotate(0, 69, 279)"/>
  <rect fill="#6dd6ff" height="5" stroke-width="0" transform=" rotate(0, 79, 280)" width="5" x="77.0696" y="277.9558"/>
  <polygon fill="#6dd6ff" points="87.6443,282.556 90.1443,277.556 92.6443,282.556" stroke-width="0" transform=" rotate(0, 90, 280)"/>
  <ellipse cx="99.9628" cy="279.7327" fill="#6dd6ff" rx="2.5" ry="2.5" stroke-width="0" transform=" rotate(0, 99, 279)"/>
  <rect fill="#6dd6ff" height="5" stroke-width="0" transform=" rotate(0, 110, 280)" width="5" x="107.8852" y="277.6923"/>
  <polygon fill="#6dd6ff" points="117.0754,282.6964 119.5754,277.6964 122.0754,282.6964" stroke-width="0" transform=" rotate(0, 119, 280)"/>
  <ellipse cx="129.3162" cy="279.3121" fill="#6dd6ff" rx="2.5" ry="2.5" stroke-width="0" transform=" rotate(0, 129, 279)"/>
  <rect fill="#6dd6ff" height="5" stroke-width="0" transform=" rotate(0, 139, 280)" width="5" x="137.4871" y="277.8403"/>
  <polygon fill="#6dd6ff" points="147.3771,282.0673 149.8771,277.0673 152.3771,282.0673" stroke-width="0" transform=" rotate(0, 149, 279)"/>
  <ellipse cx="160.1632" cy="280.5066" fill="#6dd6ff" rx="2.5" ry="2.5" stroke-width="0" transform=" rotate(0, 160, 280)"/>
  <rect fill="#6dd6ff" height="5" stroke-width="0" transform=" rotate(0, 169, 280)" width="5" x="166.8959" y="277.605"/>
  <polygon fill="#6dd6ff" points="177.281,283.1186 179.781,278.1186 182.281,283.1186" stroke-width="0" transform=" rotate(0, 179, 280)"/>
  <ellipse cx="189.8448" cy="280.538" fill="#6dd6ff" rx="2.5" ry="2.5" stroke-width="0" transform=" rotate(0, 189, 280)"/>
  <rect fill="#6dd6ff" height="5" stroke-width="0" transform=" rotate(0, 200, 279)" width="5" x="197.7993" y="277.2133"/>
  <polygon fill="#6dd6ff" points="207.519,283.1592 210.019,278.1592 212.519,283.1592" stroke-width="0" transform=" rotate(0, 210, 280)"/>
  <ellipse cx="219.8209" cy="279.5924" fill="#6dd6ff" rx="2.5" ry="2.5" stroke-width="0" transform=" rotate(0, 219, 279)"/>
  <rect fill="#6dd6ff" height="5" stroke-width="0" transform=" rotate(0, 230, 279)" width="5" x="227.8276" y="276.8812"/>
  <polygon fill="#6dd6ff" points="237.1466,283.0612 239.6466,278.0612 242.1466,283.0612" stroke-width="0" transform=" rotate(0, 239, 280)"/>
  <ellipse cx="249.3339" cy="280.5242" fill="#6dd6ff" rx="2.5" ry="2.5" stroke-width="0" transform=" rotate(0, 249, 280)"/>
  <rect fill="#6dd6ff" height="5" stroke-width="0" transform=" rotate(0, 259, 279)" width="5" x="257.4661" y="276.7895"/>
  <polygon fill="#6dd6ff" points="268.1532,282.7356 270.6532,277.7356 273.1532,282.7356" stroke-width="0" transform=" rotate(0, 270, 280)"/>
  <ellipse cx="280.2277" cy="280.0348" fill="#6dd6ff" rx="2.5" ry="2.5" stroke-width="0" transform=" rotate(0, 280, 280)"/>
</svg>
