<?xml version="1.0" encoding="utf-8" ?>
<svg baseProfile="tiny" height="330" version="1.2" width="330" xmlns="http://www.w3.org/2000/svg" xmlns:ev="http://www.w3.org/2001/xml-events" xmlns:xlink="http://www.w3.org/1999/xlink">
  <defs/>
  <rect fill="white" height="330" width="330" x="0" y="0"/>
  <rect fill="#6dd6ff" height="10" stroke-width="0" transform=" rotate(0, 50, 51)" width="10" x="45.4427" y="46.4308"/>
  <polygon fill="#6dd6ff" points="69.5637,54.8052 74.5637,44.8052 79.5637,54.8052" stroke-width="0" transform=" rotate(0, 74, 49)"/>
  <ellipse cx="97.7851" cy="48.8312" fill="#6dd6ff" rx="5.0" ry="5.0" stroke-width="0" transform=" rotate(0, 97, 48)"/>
  <rect fill="#6dd6ff" height="10" stroke-width="0" transform=" rotate(0, 110, 56)" width="10" x="105.0203" y="51.5216"/>
  <polygon fill="#6dd6ff" points="134.9092,54.3518 139.9092,44.3518 144.9092,54.3518" stroke-width="0" transform=" rotate(0, 139, 49)"/>
  <ellipse cx="157.781" cy="51.0748" fill="#6dd6ff" rx="5.0" ry="5.0" stroke-width="0" transform=" rotate(0, 157, 51)"/>
  <rect fill="#6dd6ff" height="10" stroke-width="0" transform=" rotate(0, 175, 57)" width="10" x="170.3894" y="52.4795"/>
  <polygon fill="#6dd6ff" points="185.1148,61.7692 190.1148,51.7692 195.1148,61.7692" stroke-width="0" transform=" rotate(0, 190, 56)"/>
  <ellipse cx="219.2876" cy="56.6685" fill="#6dd6ff" rx="5.0" ry="5.0" stroke-width="0" transform=" rotate(0, 219, 56)"/>
  <rect fill="#6dd6ff" height="10" stroke-width="0" transform=" rotate(0, 233, 60)" width="10" x="228.8214" y="55.1633"/>
  <polygon fill="#6dd6ff" points="246.4919,61.4216 251.4919,51.4216 256.4919,61.4216" stroke-width="0" transform=" rotate(0, 251, 56)"/>
  <ellipse cx="276.3779" cy="57.2326" fill="#6dd6ff" rx="5.0" ry="5.0" stroke-width="0" transform=" rotate(0, 276, 57)"/>
  <rect fill="#1b9fd8" height="14" stroke-width="0" transform=" rotate(0, 62, 73)" width="14" x="55.9488" y="66.2913"/>
  <polygon fill="#1b9fd8" points="62.5033,86.4302 69.5033,72.4302 76.5033,86.4302" stroke-width="0" transform=" rotate(0, 69, 79)"/>
  <ellipse cx="96.3564" cy="71.47" fill="#1b9fd8" rx="7.0" ry="7.0" stroke-width="0" transform=" rotate(0, 96, 71)"/>
  <rect fill="#1b9fd8" height="14" stroke-width="0" transform=" rotate(0, 118, 82)" width="14" x="111.4377" y="75.2393"/>
  <polygon fill="#1b9fd8" points="122.2991,81.963 129.2991,67.963 136.2991,81.963" stroke-width="0" transform=" rotate(0, 129, 74)"/>
  <ellipse cx="155.5279" cy="71.5325" fill="#1b9fd8" rx="7.0" ry="7.0" stroke-width="0" transform=" rotate(0, 155, 71)"/>
  <rect fill="#1b9fd8" height="14" stroke-width="0" transform=" rotate(0, 178, 81)" width="14" x="171.1999" y="74.6904"/>
  <polygon fill="#1b9fd8" points="187.6933,89.0383 194.6933,75.0383 201.6933,89.0383" stroke-width="0" transform=" rotate(0, 194, 82)"/>
  <ellipse cx="209.5174" cy="81.5437" fill="#1b9fd8" rx="7.0" ry="7.0" stroke-width="0" transform=" rotate(0, 209, 81)"/>
  <rect fill="#1b9fd8" height="14" stroke-width="0" transform=" rotate(0, 237, 68)" width="14" x="230.9013" y="61.9623"/>
  <polygon fill="#1b9fd8" points="247.1827,80.2792 254.1827,66.2792 261.1827,80.2792" stroke-width="0" transform=" rotate(0, 254, 73)"/>
  <ellipse cx="281.8144" cy="78.9346" fill="#1b9fd8" rx="7.0" ry="7.0" stroke-width="0" transform=" rotate(0, 281, 78)"/>
  <rect fill="#006ca1" height="18" stroke-width="0" transform=" rotate(0, 54, 97)" width="18" x="45.3784" y="88.7914"/>
  <polygon fill="#006ca1" points="67.9487,103.5375 76.9487,85.5375 85.9487,103.5375" stroke-width="0" transform=" rotate(0, 76, 94)"/>
  <ellipse cx="99.522" cy="103.3061" fill="#006ca1" rx="9.0" ry="9.0" stroke-width="0" transform=" rotate(0, 99, 103)"/>
  <rect fill="#006ca1" height="18" stroke-width="0" transform=" rotate(0, 110, 88)" width="18" x="101.2489" y="79.2444"/>
  <polygon fill="#006ca1" points="129.9435,101.0214 138.9435,83.0214 147.9435,101.0214" stroke-width="0" transform=" rotate(0, 138, 92)"/>
  <ellipse cx="165.2771" cy="102.2205" fill="#006ca1" rx="9.0" ry="9.0" stroke-width="0" transform=" rotate(0, 165, 102)"/>
  <rect fill="#006ca1" height="18" stroke-width="0" transform=" rotate(0, 165, 98)" width="18" x="156.4962" y="89.8529"/>
  <polygon fill="#006ca1" points="183.7712,113.8803 192.7712,95.8803 201.7712,113.8803" stroke-width="0" transform=" rotate(0, 192, 104)"/>
  <ellipse cx="219.1776" cy="96.9756" fill="#006ca1" rx="9.0" ry="9.0" stroke-width="0" transform=" rotate(0, 219, 96)"/>
  <rect fill="#006ca1" height="18" stroke-width="0" transform=" rotate(0, 234, 96)" width="18" x="225.4019" y="87.493"/>
  <polygon fill="#006ca1" points="256.2084,103.0089 265.2084,85.0089 274.2084,103.0089" stroke-width="0" transform=" rotate(0, 265, 94)"/>
  <ellipse cx="279.5517" cy="100.4792" fill="#006ca1" rx="9.0" ry="9.0" stroke-width="0" transform=" rotate(0, 279, 100)"/>
  <rect fill="#6dd6ff" height="10" stroke-width="0" transform=" rotate(0, 55, 108)" width="10" x="50.1732" y="103.9021"/>
  <polygon fill="#6dd6ff" points="75.4111,115.9977 80.4111,105.9977 85.4111,115.9977" stroke-width="0" transform=" rotate(0, 80, 110)"/>
  <ellipse cx="97.1238" cy="111.4876" fill="#6dd6ff" rx="5.0" ry="5.0" stroke-width="0" transform=" rotate(0, 97, 111)"/>
  <rect fill="#6dd6ff" height="10" stroke-width="0" transform=" rotate(0, 116, 114)" width="10" x="111.7014" y="109.9713"/>
  <polygon fill="#6dd6ff" points="131.2168,125.465 136.2168,115.465 141.2168,125.465" stroke-width="0" transform=" rotate(0, 136, 120)"/>
  <ellipse cx="156.6156" cy="113.1794" fill="#6dd6ff" rx="5.0" ry="5.0" stroke-width="0" transform=" rotate(0, 156, 113)"/>
  <rect fill="#6dd6ff" height="10" stroke-width="0" transform=" rotate(0, 177, 117)" width="10" x="172.0127" y="112.6914"/>
  <polygon fill="#6dd6ff" points="195.9334,120.6018 200.9334,110.6018 205.9334,120.6018" stroke-width="0" transform=" rotate(0, 200, 115)"/>
  <ellipse cx="213.2522" cy="120.117" fill="#6dd6ff" rx="5.0" ry="5.0" stroke-width="0" transform=" rotate(0, 213, 120)"/>
  <rect fill="#6dd6ff" height="10" stroke-width="0" transform=" rotate(0, 240, 117)" width="10" x="235.4432" y="112.3981"/>
  <polygon fill="#6dd6ff" points="248.6734,125.1822 253.6734,115.1822 258.6734,125.1822" stroke-width="0" transform=" rotate(0, 253, 120)"/>
  <ellipse cx="272.3572" cy="120.3139" fill="#6dd6ff" rx="5.0" ry="5.0" stroke-width="0" transform=" rotate(0, 272, 120)"/>
  <rect fill="#1b9fd8" height="14" stroke-width="0" transform=" rotate(0, 47, 132)" width="14" x="40.9956" y="125.7951"/>
  <polygon fill="#1b9fd8" points="75.6215,145.4058 82.6215,131.4058 89.6215,145.4058" stroke-width="0" transform=" rotate(0, 82, 138)"/>
  <ellipse cx="89.0712" cy="135.0826" fill="#1b9fd8" rx="7.0" ry="7.0" stroke-width="0" transform=" rotate(0, 89, 135)"/>
  <rect fill="#1b9fd8" height="14" stroke-width="0" transform=" rotate(0, 113, 135)" width="14" x="106.2701" y="128.405"/>
  <polygon fill="#1b9fd8" points="135.0055,149.8988 142.0055,135.8988 149.0055,149.8988" stroke-width="0" transform=" rotate(0, 142, 142)"/>
  <ellipse cx="159.2873" cy="135.8438" fill="#1b9fd8" rx="7.0" ry="7.0" stroke-width="0" transform=" rotate(0, 159, 135)"/>
  <rect fill="#1b9fd8" height="14" stroke-width="0" transform=" rotate(0, 171, 139)" width="14" x="164.1584" y="132.3397"/>
  <polygon fill="#1b9fd8" points="185.8302,141.3615 192.8302,127.3615 199.8302,141.3615" stroke-width="0" transform=" rotate(0, 192, 134)"/>
  <ellipse cx="214.1642" cy="136.145" fill="#1b9fd8" rx="7.0" ry="7.0" stroke-width="0" transform=" rotate(0, 214, 136)"/>
  <rect fill="#1b9fd8" height="14" stroke-width="0" transform=" rotate(0, 231, 132)" width="14" x="224.9762" y="125.2688"/>
  <polygon fill="#1b9fd8" points="246.5172,141.586 253.5172,127.586 260.5172,141.586" stroke-width="0" transform=" rotate(0, 253, 134)"/>
  <ellipse cx="271.2037" cy="129.8597" fill="#1b9fd8" rx="7.0" ry="7.0" stroke-width="0" transform=" rotate(0, 271, 129)"/>
  <rect fill="#006ca1" height="18" stroke-width="0" transform=" rotate(0, 46, 152)" width="18" x="37.1612" y="143.7897"/>
  <polygon fill="#006ca1" points="74.3245,168.9171 83.3245,150.9171 92.3245,168.9171" stroke-width="0" transform=" rotate(0, 83, 159)"/>
  <ellipse cx="85.0082" cy="160.7099" fill="#006ca1" rx="9.0" ry="9.0" stroke-width="0" transform=" rotate(0, 85, 160)"/>
  <rect fill="#006ca1" height="18" stroke-width="0" transform=" rotate(0, 118, 147)" width="18" x="109.6443" y="138.4775"/>
  <polygon fill="#006ca1" points="117.48,159.7377 126.48,141.7377 135.48,159.7377" stroke-width="0" transform=" rotate(0, 126, 150)"/>
  <ellipse cx="153.8036" cy="157.9888" fill="#006ca1" rx="9.0" ry="9.0" stroke-width="0" transform=" rotate(0, 153, 157)"/>
  <rect fill="#006ca1" height="18" stroke-width="0" transform=" rotate(0, 166, 164)" width="18" x="157.1855" y="155.3773"/>
  <polygon fill="#006ca1" points="192.6447,157.5193 201.6447,139.5193 210.6447,157.5193" stroke-width="0" transform=" rotate(0, 201, 148)"/>
  <ellipse cx="216.5162" cy="163.039" fill="#006ca1" rx="9.0" ry="9.0" stroke-width="0" transform=" rotate(0, 216, 163)"/>
  <rect fill="#006ca1" height="18" stroke-width="0" transform=" rotate(0, 231, 150)" width="18" x="222.9281" y="141.7265"/>
  <polygon fill="#006ca1" points="254.3478,165.9874 263.3478,147.9874 272.3478,165.9874" stroke-width="0" transform=" rotate(0, 263, 156)"/>
  <ellipse cx="272.6135" cy="147.1007" fill="#006ca1" rx="9.0" ry="9.0" stroke-width="0" transform=" rotate(0, 272, 147)"/>
  <rect fill="#006ca1" height="18" stroke-width="0" transform=" rotate(0, 48, 166)" width="18" x="39.4207" y="157.7784"/>
  <polygon fill="#006ca1" points="65.8031,184.9475 74.8031,166.9475 83.8031,184.9475" stroke-width="0" transform=" rotate(0, 74, 175)"/>
  <ellipse cx="98.3722" cy="181.5297" fill="#006ca1" rx="9.0" ry="9.0" stroke-width="0" transform=" rotate(0, 98, 181)"/>
  <rect fill="#006ca1" height="18" stroke-width="0" transform=" rotate(0, 108, 176)" width="18" x="99.1439" y="167.0278"/>
  <polygon fill="#006ca1" points="123.7872,178.0063 132.7872,160.0063 141.7872,178.0063" stroke-width="0" transform=" rotate(0, 132, 169)"/>
  <ellipse cx="148.3311" cy="170.9361" fill="#006ca1" rx="9.0" ry="9.0" stroke-width="0" transform=" rotate(0, 148, 170)"/>
  <rect fill="#006ca1" height="18" stroke-width="0" transform=" rotate(0, 167, 169)" width="18" x="158.9497" y="160.2358"/>
  <polygon fill="#006ca1" points="188.6991,181.7242 197.6991,163.7242 206.6991,181.7242" stroke-width="0" transform=" rotate(0, 197, 172)"/>
  <ellipse cx="219.549" cy="183.8466" fill="#006ca1" rx="9.0" ry="9.0" stroke-width="0" transform=" rotate(0, 219, 183)"/>
  <rect fill="#006ca1" height="18" stroke-width="0" transform=" rotate(0, 224, 172)" width="18" x="215.619" y="163.533"/>
  <polygon fill="#006ca1" points="240.8151,186.1961 249.8151,168.1961 258.8151,186.1961" stroke-width="0" transform=" rotate(0, 249, 177)"/>
  <ellipse cx="266.6979" cy="173.3789" fill="#006ca1" rx="9.0" ry="9.0" stroke-width="0" transform=" rotate(0, 266, 173)"/>
  <rect fill="#1b9fd8" height="14" stroke-width="0" transform=" rotate(0, 59, 191)" width="14" x="52.9669" y="184.5442"/>
  <polygon fill="#1b9fd8" points="76.4796,193.335 83.4796,179.335 90.4796,193.335" stroke-width="0" transform=" rotate(0, 83, 186)"/>
  <ellipse cx="89.1194" cy="193.1473" fill="#1b9fd8" rx="7.0" ry="7.0" stroke-width="0" transform=" rotate(0, 89, 193)"/>
  <rect fill="#1b9fd8" height="14" stroke-width="0" transform=" rotate(0, 117, 199)" width="14" x="110.6387" y="192.7258"/>
  <polygon fill="#1b9fd8" points="133.2162,194.1871 140.2162,180.1871 147.2162,194.1871" stroke-width="0" transform=" rotate(0, 140, 187)"/>
  <ellipse cx="148.3764" cy="201.8611" fill="#1b9fd8" rx="7.0" ry="7.0" stroke-width="0" transform=" rotate(0, 148, 201)"/>
  <rect fill="#1b9fd8" height="14" stroke-width="0" transform=" rotate(0, 172, 193)" width="14" x="165.7397" y="186.949"/>
  <polygon fill="#1b9fd8" points="185.9351,204.1373 192.9351,190.1373 199.9351,204.1373" stroke-width="0" transform=" rotate(0, 192, 197)"/>
  <ellipse cx="209.0003" cy="195.7766" fill="#1b9fd8" rx="7.0" ry="7.0" stroke-width="0" transform=" rotate(0, 209, 195)"/>
  <rect fill="#1b9fd8" height="14" stroke-width="0" transform=" rotate(0, 227, 193)" width="14" x="220.7312" y="186.6783"/>
  <polygon fill="#1b9fd8" points="243.0374,207.9077 250.0374,193.9077 257.0374,207.9077" stroke-width="0" transform=" rotate(0, 250, 200)"/>
  <ellipse cx="272.947" cy="187.1234" fill="#1b9fd8" rx="7.0" ry="7.0" stroke-width="0" transform=" rotate(0, 272, 187)"/>
  <rect fill="#6dd6ff" height="10" stroke-width="0" transform=" rotate(0, 53, 220)" width="10" x="48.7611" y="215.4798"/>
  <polygon fill="#6dd6ff" points="66.786,219.2644 71.786,209.2644 76.786,219.2644" stroke-width="0" transform=" rotate(0, 71, 214)"/>
  <ellipse cx="97.5199" cy="213.3104" fill="#6dd6ff" rx="5.0" ry="5.0" stroke-width="0" transform=" rotate(0, 97, 213)"/>
  <rect fill="#6dd6ff" height="10" stroke-width="0" transform=" rotate(0, 113, 211)" width="10" x="108.4495" y="206.6883"/>
  <polygon fill="#6dd6ff" points="135.7805,224.1299 140.7805,214.1299 145.7805,224.1299" stroke-width="0" transform=" rotate(0, 140, 219)"/>
  <ellipse cx="156.1469" cy="211.2979" fill="#6dd6ff" rx="5.0" ry="5.0" stroke-width="0" transform=" rotate(0, 156, 211)"/>
  <rect fill="#6dd6ff" height="10" stroke-width="0" transform=" rotate(0, 179, 215)" width="10" x="174.7134" y="210.4645"/>
  <polygon fill="#6dd6ff" points="185.7036,223.0161 190.7036,213.0161 195.7036,223.0161" stroke-width="0" transform=" rotate(0, 190, 218)"/>
  <ellipse cx="213.5322" cy="218.5544" fill="#6dd6ff" rx="5.0" ry="5.0" stroke-width="0" transform=" rotate(0, 213, 218)"/>
  <rect fill="#6dd6ff" height="10" stroke-width="0" transform=" rotate(0, 240, 213)" width="10" x="235.0021" y="208.8337"/>
  <polygon fill="#6dd6ff" points="248.5828,222.238 253.5828,212.238 258.5828,222.238" stroke-width="0" transform=" rotate(0, 253, 217)"/>
  <ellipse cx="270.4432" cy="212.6944" fill="#6dd6ff" rx="5.0" ry="5.0" stroke-width="0" transform=" rotate(0, 270, 212)"/>
  <rect fill="#006ca1" height="18" stroke-width="0" transform=" rotate(0, 52, 228)" width="18" x="43.2756" y="219.96"/>
  <polygon fill="#006ca1" points="69.4191,240.2357 78.4191,222.2357 87.4191,240.2357" stroke-width="0" transform=" rotate(0, 78, 231)"/>
  <ellipse cx="92.8067" cy="227.4837" fill="#006ca1" rx="9.0" ry="9.0" stroke-width="0" transform=" rotate(0, 92, 227)"/>
  <rect fill="#006ca1" height="18" stroke-width="0" transform=" rotate(0, 124, 226)" width="18" x="115.601" y="217.8526"/>
  <polygon fill="#006ca1" points="119.6111,241.4007 128.6111,223.4007 137.6111,241.4007" stroke-width="0" transform=" rotate(0, 128, 232)"/>
  <ellipse cx="149.6147" cy="243.6617" fill="#006ca1" rx="9.0" ry="9.0" stroke-width="0" transform=" rotate(0, 149, 243)"/>
  <rect fill="#006ca1" height="18" stroke-width="0" transform=" rotate(0, 185, 227)" width="18" x="176.3496" y="218.8246"/>
  <polygon fill="#006ca1" points="181.1413,250.6876 190.1413,232.6876 199.1413,250.6876" stroke-width="0" transform=" rotate(0, 190, 241)"/>
  <ellipse cx="221.9433" cy="233.9415" fill="#006ca1" rx="9.0" ry="9.0" stroke-width="0" transform=" rotate(0, 221, 233)"/>
  <rect fill="#006ca1" height="18" stroke-width="0" transform=" rotate(0, 226, 229)" width="18" x="217.3557" y="220.0213"/>
  <polygon fill="#006ca1" points="237.6843,247.5673 246.6843,229.5673 255.6843,247.5673" stroke-width="0" transform=" rotate(0, 246, 238)"/>
  <ellipse cx="270.8228" cy="243.0074" fill="#006ca1" rx="9.0" ry="9.0" stroke-width="0" transform=" rotate(0, 270, 243)"/>
  <rect fill="#1b9fd8" height="14" stroke-width="0" transform=" rotate(0, 61, 256)" width="14" x="54.4756" y="249.9375"/>
  <polygon fill="#1b9fd8" points="74.869,259.3151 81.869,245.3151 88.869,259.3151" stroke-width="0" transform=" rotate(0, 81, 252)"/>
  <ellipse cx="101.4" cy="247.2435" fill="#1b9fd8" rx="7.0" ry="7.0" stroke-width="0" transform=" rotate(0, 101, 247)"/>
  <rect fill="#1b9fd8" height="14" stroke-width="0" transform=" rotate(0, 121, 255)" width="14" x="114.7871" y="248.4465"/>
  <polygon fill="#1b9fd8" points="121.1512,254.9592 128.1512,240.9592 135.1512,254.9592" stroke-width="0" transform=" rotate(0, 128, 247)"/>
  <ellipse cx="153.0205" cy="256.2769" fill="#1b9fd8" rx="7.0" ry="7.0" stroke-width="0" transform=" rotate(0, 153, 256)"/>
  <rect fill="#1b9fd8" height="14" stroke-width="0" transform=" rotate(0, 178, 258)" width="14" x="171.1676" y="251.5966"/>
  <polygon fill="#1b9fd8" points="192.7354,260.1318 199.7354,246.1318 206.7354,260.1318" stroke-width="0" transform=" rotate(0, 199, 253)"/>
  <ellipse cx="219.4563" cy="259.722" fill="#1b9fd8" rx="7.0" ry="7.0" stroke-width="0" transform=" rotate(0, 219, 259)"/>
  <rect fill="#1b9fd8" height="14" stroke-width="0" transform=" rotate(0, 234, 251)" width="14" x="227.3269" y="244.9712"/>
  <polygon fill="#1b9fd8" points="252.1713,253.967 259.1713,239.967 266.1713,253.967" stroke-width="0" transform=" rotate(0, 259, 246)"/>
  <ellipse cx="279.1911" cy="246.8227" fill="#1b9fd8" rx="7.0" ry="7.0" stroke-width="0" transform=" rotate(0, 279, 246)"/>
  <rect fill="#6dd6ff" height="10" stroke-width="0" transform=" rotate(0, 60, 279)" width="10" x="55.2653" y="274.0501"/>
  <polygon fill="#6dd6ff" points="64.476,282.0709 69.476,272.0709 74.476,282.0709" stroke-width="0" transform=" rotate(0, 69, 277)"/>
  <ellipse cx="98.4016" cy="269.0099" fill="#6dd6ff" rx="5.0" ry="5.0" stroke-width="0" transform=" rotate(0, 98, 269)"/>
  <rect fill="#6dd6ff" height="10" stroke-width="0" transform=" rotate(0, 117, 276)" width="10" x="112.8031" y="271.2071"/>
  <polygon fill="#6dd6ff" points="131.8578,284.016 136.8578,274.016 141.8578,284.016" stroke-width="0" transform=" rotate(0, 136, 279)"/>
  <ellipse cx="156.2824" cy="271.4068" fill="#6dd6ff" rx="5.0" ry="5.0" stroke-width="0" transform=" rotate(0, 156, 271)"/>
  <rect fill="#6dd6ff" height="10" stroke-width="0" transform=" rotate(0, 171, 272)" width="10" x="166.7711" y="267.7072"/>
  <polygon fill="#6dd6ff" points="193.9662,278.1889 198.9662,268.1889 203.9662,278.1889" stroke-width="0" transform=" rotate(0, 198, 273)"/>
  <ellipse cx="218.1223" cy="269.8454" fill="#6dd6ff" rx="5.0" ry="5.0" stroke-width="0" transform=" rotate(0, 218, 269)"/>
  <rect fill="#6dd6ff" height="10" stroke-width="0" transform=" rotate(0, 231, 280)" width="10" x="226.3588" y="275.4622"/>
  <polygon fill="#6dd6ff" points="245.4121,285.5419 250.4121,275.5419 255.4121,285.5419" stroke-width="0" transform=" rotate(0, 250, 280)"/>
  <ellipse cx="280.1442" cy="270.3675" fill="#6dd6ff" rx="5.0" ry="5.0" stroke-width="0" transform=" rotate(0, 280, 270)"/>
</svg>
