<?xml version="1.0" encoding="utf-8" ?>
<svg baseProfile="tiny" height="330" version="1.2" width="330" xmlns="http://www.w3.org/2000/svg" xmlns:ev="http://www.w3.org/2001/xml-events" xmlns:xlink="http://www.w3.org/1999/xlink">
  <defs/>
  <rect fill="white" height="330" width="330" x="0" y="0"/>
  <rect fill="#6dd6ff" height="20" stroke-width="0" transform=" rotate(0, 60, 65)" width="20" x="50.3206" y="55.0207"/>
  <polygon fill="#6dd6ff" points="94.1668,79.9094 104.1668,59.9094 114.1668,79.9094" stroke-width="0" transform=" rotate(0, 104, 69)"/>
  <ellipse cx="147.1734" cy="66.8413" fill="#6dd6ff" rx="10.0" ry="10.0" stroke-width="0" transform=" rotate(0, 147, 66)"/>
  <rect fill="#6dd6ff" height="20" stroke-width="0" transform=" rotate(0, 179, 66)" width="20" x="169.9263" y="56.447"/>
  <polygon fill="#6dd6ff" points="219.1559,75.9947 229.1559,55.9947 239.1559,75.9947" stroke-width="0" transform=" rotate(0, 229, 65)"/>
  <ellipse cx="267.1697" cy="66.3669" fill="#6dd6ff" rx="10.0" ry="10.0" stroke-width="0" transform=" rotate(0, 267, 66)"/>
  <rect fill="#1b9fd8" height="28" stroke-width="0" transform=" rotate(0, 64, 106)" width="28" x="50.9375" y="92.7376"/>
  <polygon fill="#1b9fd8" points="86.0145,124.3969 100.0145,96.3969 114.0145,124.3969" stroke-width="0" transform=" rotate(0, 100, 110)"/>
  <ellipse cx="148.5758" cy="103.2277" fill="#1b9fd8" rx="14.0" ry="14.0" stroke-width="0" transform=" rotate(0, 148, 103)"/>
  <rect fill="#1b9fd8" height="28" stroke-width="0" transform=" rotate(0, 183, 109)" width="28" x="169.474" y="95.9393"/>
  <polygon fill="#1b9fd8" points="207.2999,117.6209 221.2999,89.6209 235.2999,117.6209" stroke-width="0" transform=" rotate(0, 221, 103)"/>
  <ellipse cx="265.8601" cy="102.3924" fill="#1b9fd8" rx="14.0" ry="14.0" stroke-width="0" transform=" rotate(0, 265, 102)"/>
  <rect fill="#006ca1" height="36" stroke-width="0" transform=" rotate(0, 69, 140)" width="36" x="51.9121" y="122.2283"/>
  <polygon fill="#006ca1" points="82.9484,167.9789 100.9484,131.9789 118.9484,167.9789" stroke-width="0" transform=" rotate(0, 100, 149)"/>
  <ellipse cx="145.5172" cy="140.9453" fill="#006ca1" rx="18.0" ry="18.0" stroke-width="0" transform=" rotate(0, 145, 140)"/>
  <rect fill="#006ca1" height="36" stroke-width="0" transform=" rotate(0, 186, 143)" width="36" x="168.9047" y="125.7446"/>
  <polygon fill="#006ca1" points="202.8123,167.5682 220.8123,131.5682 238.8123,167.5682" stroke-width="0" transform=" rotate(0, 220, 149)"/>
  <ellipse cx="264.9648" cy="147.7561" fill="#006ca1" rx="18.0" ry="18.0" stroke-width="0" transform=" rotate(0, 264, 147)"/>
  <rect fill="#006ca1" height="36" stroke-width="0" transform=" rotate(0, 66, 182)" width="36" x="48.7462" y="164.3368"/>
  <polygon fill="#006ca1" points="86.4084,201.4514 104.4084,165.4514 122.4084,201.4514" stroke-width="0" transform=" rotate(0, 104, 183)"/>
  <ellipse cx="140.9578" cy="184.3407" fill="#006ca1" rx="18.0" ry="18.0" stroke-width="0" transform=" rotate(0, 140, 184)"/>
  <rect fill="#006ca1" height="36" stroke-width="0" transform=" rotate(0, 186, 182)" width="36" x="168.5471" y="164.882"/>
  <polygon fill="#006ca1" points="206.068,201.9093 224.068,165.9093 242.068,201.9093" stroke-width="0" transform=" rotate(0, 224, 183)"/>
  <ellipse cx="269.1558" cy="182.367" fill="#006ca1" rx="18.0" ry="18.0" stroke-width="0" transform=" rotate(0, 269, 182)"/>
  <rect fill="#1b9fd8" height="28" stroke-width="0" transform=" rotate(0, 64, 220)" width="28" x="50.3122" y="206.3364"/>
  <polygon fill="#1b9fd8" points="91.6449,243.2359 105.6449,215.2359 119.6449,243.2359" stroke-width="0" transform=" rotate(0, 105, 229)"/>
  <ellipse cx="146.9792" cy="219.7385" fill="#1b9fd8" rx="14.0" ry="14.0" stroke-width="0" transform=" rotate(0, 146, 219)"/>
  <rect fill="#1b9fd8" height="28" stroke-width="0" transform=" rotate(0, 182, 226)" width="28" x="168.171" y="212.8091"/>
  <polygon fill="#1b9fd8" points="212.6792,234.5017 226.6792,206.5017 240.6792,234.5017" stroke-width="0" transform=" rotate(0, 226, 220)"/>
  <ellipse cx="269.9634" cy="224.2991" fill="#1b9fd8" rx="14.0" ry="14.0" stroke-width="0" transform=" rotate(0, 269, 224)"/>
  <rect fill="#6dd6ff" height="20" stroke-width="0" transform=" rotate(0, 59, 260)" width="20" x="49.7066" y="250.349"/>
  <polygon fill="#6dd6ff" points="93.4788,278.3649 103.4788,258.3649 113.4788,278.3649" stroke-width="0" transform=" rotate(0, 103, 268)"/>
  <ellipse cx="146.8006" cy="265.7056" fill="#6dd6ff" rx="10.0" ry="10.0" stroke-width="0" transform=" rotate(0, 146, 265)"/>
  <rect fill="#6dd6ff" height="20" stroke-width="0" transform=" rotate(0, 184, 263)" width="20" x="174.3244" y="253.3266"/>
  <polygon fill="#6dd6ff" points="219.9277,279.248 229.9277,259.248 239.9277,279.248" stroke-width="0" transform=" rotate(0, 229, 269)"/>
  <ellipse cx="266.9946" cy="263.682" fill="#6dd6ff" rx="10.0" ry="10.0" stroke-width="0" transform=" rotate(0, 266, 263)"/>
</svg>
