<?xml version="1.0" encoding="utf-8" ?>
<svg baseProfile="tiny" height="330" version="1.2" width="330" xmlns="http://www.w3.org/2000/svg" xmlns:ev="http://www.w3.org/2001/xml-events" xmlns:xlink="http://www.w3.org/1999/xlink">
  <defs/>
  <rect fill="white" height="330" width="330" x="0" y="0"/>
  <rect fill="#6dd6ff" height="10" stroke-width="0" transform=" rotate(0, 49, 50)" width="10" x="44.5153" y="45.9057"/>
  <polygon fill="#6dd6ff" points="69.3231,54.0092 74.3231,44.0092 79.3231,54.0092" stroke-width="0" transform=" rotate(0, 74, 49)"/>
  <ellipse cx="98.0814" cy="47.8728" fill="#6dd6ff" rx="5.0" ry="5.0" stroke-width="0" transform=" rotate(0, 98, 47)"/>
  <rect fill="#6dd6ff" height="10" stroke-width="0" transform=" rotate(0, 109, 56)" width="10" x="104.0225" y="51.845"/>
  <polygon fill="#6dd6ff" points="135.5595,53.4802 140.5595,43.4802 145.5595,53.4802" stroke-width="0" transform=" rotate(0, 140, 48)"/>
  <ellipse cx="158.0767" cy="50.4904" fill="#6dd6ff" rx="5.0" ry="5.0" stroke-width="0" transform=" rotate(0, 158, 50)"/>
  <rect fill="#6dd6ff" height="10" stroke-width="0" transform=" rotate(0, 175, 57)" width="10" x="170.2865" y="52.9625"/>
  <polygon fill="#6dd6ff" points="184.1328,62.1339 189.1328,52.1339 194.1328,62.1339" stroke-width="0" transform=" rotate(0, 189, 57)"/>
  <ellipse cx="219.8344" cy="57.0164" fill="#6dd6ff" rx="5.0" ry="5.0" stroke-width="0" transform=" rotate(0, 219, 57)"/>
  <rect fill="#6dd6ff" height="10" stroke-width="0" transform=" rotate(0, 233, 61)" width="10" x="228.4571" y="56.0936"/>
  <polygon fill="#6dd6ff" points="245.7394,61.7283 250.7394,51.7283 255.7394,61.7283" stroke-width="0" transform=" rotate(0, 250, 56)"/>
  <ellipse cx="276.4397" cy="57.6744" fill="#6dd6ff" rx="5.0" ry="5.0" stroke-width="0" transform=" rotate(0, 276, 57)"/>
  <rect fill="#1b9fd8" height="14" stroke-width="0" transform=" rotate(0, 61, 73)" width="14" x="54.5047" y="66.5484"/>
  <polygon fill="#1b9fd8" points="63.3001,85.6642 70.3001,71.6642 77.3001,85.6642" stroke-width="0" transform=" rotate(0, 70, 78)"/>
  <ellipse cx="96.0111" cy="72.0307" fill="#1b9fd8" rx="7.0" ry="7.0" stroke-width="0" transform=" rotate(0, 96, 72)"/>
  <rect fill="#1b9fd8" height="14" stroke-width="0" transform=" rotate(0, 117, 81)" width="14" x="110.7455" y="74.0052"/>
  <polygon fill="#1b9fd8" points="123.13,81.9416 130.13,67.9416 137.13,81.9416" stroke-width="0" transform=" rotate(0, 130, 74)"/>
  <ellipse cx="155.3207" cy="72.0828" fill="#1b9fd8" rx="7.0" ry="7.0" stroke-width="0" transform=" rotate(0, 155, 72)"/>
  <rect fill="#1b9fd8" height="14" stroke-width="0" transform=" rotate(0, 177, 80)" width="14" x="170.5473" y="73.5477"/>
  <polygon fill="#1b9fd8" points="187.6252,87.8376 194.6252,73.8376 201.6252,87.8376" stroke-width="0" transform=" rotate(0, 194, 80)"/>
  <ellipse cx="210.3119" cy="80.4255" fill="#1b9fd8" rx="7.0" ry="7.0" stroke-width="0" transform=" rotate(0, 210, 80)"/>
  <rect fill="#1b9fd8" height="14" stroke-width="0" transform=" rotate(0, 237, 69)" width="14" x="230.2985" y="62.941"/>
  <polygon fill="#1b9fd8" points="247.1996,80.5384 254.1996,66.5384 261.1996,80.5384" stroke-width="0" transform=" rotate(0, 254, 73)"/>
  <ellipse cx="280.5594" cy="78.2512" fill="#1b9fd8" rx="7.0" ry="7.0" stroke-width="0" transform=" rotate(0, 280, 78)"/>
  <rect fill="#006ca1" height="18" stroke-width="0" transform=" rotate(0, 54, 96)" width="18" x="45.5048" y="87.7275"/>
  <polygon fill="#006ca1" points="67.1708,103.6185 76.1708,85.6185 85.1708,103.6185" stroke-width="0" transform=" rotate(0, 76, 94)"/>
  <ellipse cx="97.8387" cy="100.3018" fill="#006ca1" rx="9.0" ry="9.0" stroke-width="0" transform=" rotate(0, 97, 100)"/>
  <rect fill="#006ca1" height="18" stroke-width="0" transform=" rotate(0, 111, 90)" width="18" x="102.8283" y="81.5396"/>
  <polygon fill="#006ca1" points="128.4637,101.9877 137.4637,83.9877 146.4637,101.9877" stroke-width="0" transform=" rotate(0, 137, 92)"/>
  <ellipse cx="161.5688" cy="99.5983" fill="#006ca1" rx="9.0" ry="9.0" stroke-width="0" transform=" rotate(0, 161, 99)"/>
  <rect fill="#006ca1" height="18" stroke-width="0" transform=" rotate(0, 168, 97)" width="18" x="159.7479" y="88.4155"/>
  <polygon fill="#006ca1" points="184.4631,110.3222 193.4631,92.3222 202.4631,110.3222" stroke-width="0" transform=" rotate(0, 193, 101)"/>
  <ellipse cx="217.6154" cy="96.1988" fill="#006ca1" rx="9.0" ry="9.0" stroke-width="0" transform=" rotate(0, 217, 96)"/>
  <rect fill="#006ca1" height="18" stroke-width="0" transform=" rotate(0, 234, 95)" width="18" x="225.5201" y="86.886"/>
  <polygon fill="#006ca1" points="252.5243,103.2759 261.5243,85.2759 270.5243,103.2759" stroke-width="0" transform=" rotate(0, 261, 94)"/>
  <ellipse cx="277.8579" cy="98.4696" fill="#006ca1" rx="9.0" ry="9.0" stroke-width="0" transform=" rotate(0, 277, 98)"/>
  <rect fill="#6dd6ff" height="10" stroke-width="0" transform=" rotate(0, 55, 107)" width="10" x="50.0343" y="102.9555"/>
  <polygon fill="#6dd6ff" points="76.1451,115.4005 81.1451,105.4005 86.1451,115.4005" stroke-width="0" transform=" rotate(0, 81, 110)"/>
  <ellipse cx="97.31" cy="110.9719" fill="#6dd6ff" rx="5.0" ry="5.0" stroke-width="0" transform=" rotate(0, 97, 110)"/>
  <rect fill="#6dd6ff" height="10" stroke-width="0" transform=" rotate(0, 116, 115)" width="10" x="111.8171" y="110.0363"/>
  <polygon fill="#6dd6ff" points="131.2517,126.4456 136.2517,116.4456 141.2517,126.4456" stroke-width="0" transform=" rotate(0, 136, 121)"/>
  <ellipse cx="156.7171" cy="112.9458" fill="#6dd6ff" rx="5.0" ry="5.0" stroke-width="0" transform=" rotate(0, 156, 112)"/>
  <rect fill="#6dd6ff" height="10" stroke-width="0" transform=" rotate(0, 177, 118)" width="10" x="172.1803" y="113.2097"/>
  <polygon fill="#6dd6ff" points="196.7545,120.7719 201.7545,110.7719 206.7545,120.7719" stroke-width="0" transform=" rotate(0, 201, 115)"/>
  <ellipse cx="212.7931" cy="121.0396" fill="#6dd6ff" rx="5.0" ry="5.0" stroke-width="0" transform=" rotate(0, 212, 121)"/>
  <rect fill="#6dd6ff" height="10" stroke-width="0" transform=" rotate(0, 241, 117)" width="10" x="236.1825" y="112.8676"/>
  <polygon fill="#6dd6ff" points="248.2845,126.1157 253.2845,116.1157 258.2845,126.1157" stroke-width="0" transform=" rotate(0, 253, 121)"/>
  <ellipse cx="271.7489" cy="121.2693" fill="#6dd6ff" rx="5.0" ry="5.0" stroke-width="0" transform=" rotate(0, 271, 121)"/>
  <rect fill="#1b9fd8" height="14" stroke-width="0" transform=" rotate(0, 49, 133)" width="14" x="42.0437" y="126.1349"/>
  <polygon fill="#1b9fd8" points="74.232,144.8105 81.232,130.8105 88.232,144.8105" stroke-width="0" transform=" rotate(0, 81, 137)"/>
  <ellipse cx="89.9401" cy="135.0413" fill="#1b9fd8" rx="7.0" ry="7.0" stroke-width="0" transform=" rotate(0, 89, 135)"/>
  <rect fill="#1b9fd8" height="14" stroke-width="0" transform=" rotate(0, 113, 135)" width="14" x="106.4392" y="128.3098"/>
  <polygon fill="#1b9fd8" points="133.7186,148.5547 140.7186,134.5547 147.7186,148.5547" stroke-width="0" transform=" rotate(0, 140, 141)"/>
  <ellipse cx="158.4535" cy="135.6756" fill="#1b9fd8" rx="7.0" ry="7.0" stroke-width="0" transform=" rotate(0, 158, 135)"/>
  <rect fill="#1b9fd8" height="14" stroke-width="0" transform=" rotate(0, 171, 138)" width="14" x="164.6794" y="131.5888"/>
  <polygon fill="#1b9fd8" points="186.0726,141.4403 193.0726,127.4403 200.0726,141.4403" stroke-width="0" transform=" rotate(0, 193, 134)"/>
  <ellipse cx="214.1842" cy="135.9266" fill="#1b9fd8" rx="7.0" ry="7.0" stroke-width="0" transform=" rotate(0, 214, 135)"/>
  <rect fill="#1b9fd8" height="14" stroke-width="0" transform=" rotate(0, 232, 132)" width="14" x="225.3609" y="125.6963"/>
  <polygon fill="#1b9fd8" points="246.645,141.6274 253.645,127.6274 260.645,141.6274" stroke-width="0" transform=" rotate(0, 253, 134)"/>
  <ellipse cx="271.7172" cy="130.6888" fill="#1b9fd8" rx="7.0" ry="7.0" stroke-width="0" transform=" rotate(0, 271, 130)"/>
  <rect fill="#006ca1" height="18" stroke-width="0" transform=" rotate(0, 49, 153)" width="18" x="40.1788" y="144.4857"/>
  <polygon fill="#006ca1" points="71.3032,167.1053 80.3032,149.1053 89.3032,167.1053" stroke-width="0" transform=" rotate(0, 80, 158)"/>
  <ellipse cx="88.4315" cy="158.6192" fill="#006ca1" rx="9.0" ry="9.0" stroke-width="0" transform=" rotate(0, 88, 158)"/>
  <rect fill="#006ca1" height="18" stroke-width="0" transform=" rotate(0, 117, 150)" width="18" x="108.2698" y="141.0426"/>
  <polygon fill="#006ca1" points="120.3855,161.1557 129.3855,143.1557 138.3855,161.1557" stroke-width="0" transform=" rotate(0, 129, 152)"/>
  <ellipse cx="154.1323" cy="156.8554" fill="#006ca1" rx="9.0" ry="9.0" stroke-width="0" transform=" rotate(0, 154, 156)"/>
  <rect fill="#006ca1" height="18" stroke-width="0" transform=" rotate(0, 169, 160)" width="18" x="160.1946" y="151.9962"/>
  <polygon fill="#006ca1" points="190.2145,159.7178 199.2145,141.7178 208.2145,159.7178" stroke-width="0" transform=" rotate(0, 199, 150)"/>
  <ellipse cx="215.8904" cy="160.1288" fill="#006ca1" rx="9.0" ry="9.0" stroke-width="0" transform=" rotate(0, 215, 160)"/>
  <rect fill="#006ca1" height="18" stroke-width="0" transform=" rotate(0, 232, 152)" width="18" x="223.9167" y="143.1484"/>
  <polygon fill="#006ca1" points="251.3183,165.2064 260.3183,147.2064 269.3183,165.2064" stroke-width="0" transform=" rotate(0, 260, 156)"/>
  <ellipse cx="273.3609" cy="149.7984" fill="#006ca1" rx="9.0" ry="9.0" stroke-width="0" transform=" rotate(0, 273, 149)"/>
  <rect fill="#006ca1" height="18" stroke-width="0" transform=" rotate(0, 50, 169)" width="18" x="41.6434" y="160.5895"/>
  <polygon fill="#006ca1" points="65.7801,184.5324 74.7801,166.5324 83.7801,184.5324" stroke-width="0" transform=" rotate(0, 74, 175)"/>
  <ellipse cx="97.0934" cy="179.1505" fill="#006ca1" rx="9.0" ry="9.0" stroke-width="0" transform=" rotate(0, 97, 179)"/>
  <rect fill="#006ca1" height="18" stroke-width="0" transform=" rotate(0, 110, 175)" width="18" x="101.4639" y="166.5845"/>
  <polygon fill="#006ca1" points="124.4735,180.0334 133.4735,162.0334 142.4735,180.0334" stroke-width="0" transform=" rotate(0, 133, 171)"/>
  <ellipse cx="150.5853" cy="172.2843" fill="#006ca1" rx="9.0" ry="9.0" stroke-width="0" transform=" rotate(0, 150, 172)"/>
  <rect fill="#006ca1" height="18" stroke-width="0" transform=" rotate(0, 170, 171)" width="18" x="161.3381" y="162.1823"/>
  <polygon fill="#006ca1" points="187.6571,182.4432 196.6571,164.4432 205.6571,182.4432" stroke-width="0" transform=" rotate(0, 196, 173)"/>
  <ellipse cx="217.8562" cy="180.6522" fill="#006ca1" rx="9.0" ry="9.0" stroke-width="0" transform=" rotate(0, 217, 180)"/>
  <rect fill="#006ca1" height="18" stroke-width="0" transform=" rotate(0, 228, 173)" width="18" x="219.1793" y="164.3193"/>
  <polygon fill="#006ca1" points="242.5471,185.3417 251.5471,167.3417 260.5471,185.3417" stroke-width="0" transform=" rotate(0, 251, 176)"/>
  <ellipse cx="269.5267" cy="173.8676" fill="#006ca1" rx="9.0" ry="9.0" stroke-width="0" transform=" rotate(0, 269, 173)"/>
  <rect fill="#1b9fd8" height="14" stroke-width="0" transform=" rotate(0, 59, 192)" width="14" x="52.0198" y="185.0926"/>
  <polygon fill="#1b9fd8" points="74.947,194.7516 81.947,180.7516 88.947,194.7516" stroke-width="0" transform=" rotate(0, 81, 187)"/>
  <ellipse cx="89.9803" cy="193.4285" fill="#1b9fd8" rx="7.0" ry="7.0" stroke-width="0" transform=" rotate(0, 89, 193)"/>
  <rect fill="#1b9fd8" height="14" stroke-width="0" transform=" rotate(0, 117, 198)" width="14" x="110.0797" y="191.9106"/>
  <polygon fill="#1b9fd8" points="132.2276,195.4617 139.2276,181.4617 146.2276,195.4617" stroke-width="0" transform=" rotate(0, 139, 188)"/>
  <ellipse cx="149.3611" cy="200.6899" fill="#1b9fd8" rx="7.0" ry="7.0" stroke-width="0" transform=" rotate(0, 149, 200)"/>
  <rect fill="#1b9fd8" height="14" stroke-width="0" transform=" rotate(0, 172, 194)" width="14" x="165.9971" y="187.0966"/>
  <polygon fill="#1b9fd8" points="186.16,203.7535 193.16,189.7535 200.16,203.7535" stroke-width="0" transform=" rotate(0, 193, 196)"/>
  <ellipse cx="209.881" cy="195.6196" fill="#1b9fd8" rx="7.0" ry="7.0" stroke-width="0" transform=" rotate(0, 209, 195)"/>
  <rect fill="#1b9fd8" height="14" stroke-width="0" transform=" rotate(0, 228, 193)" width="14" x="221.8234" y="186.871"/>
  <polygon fill="#1b9fd8" points="243.7453,206.8955 250.7453,192.8955 257.7453,206.8955" stroke-width="0" transform=" rotate(0, 250, 199)"/>
  <ellipse cx="273.1699" cy="188.4085" fill="#1b9fd8" rx="7.0" ry="7.0" stroke-width="0" transform=" rotate(0, 273, 188)"/>
  <rect fill="#6dd6ff" height="10" stroke-width="0" transform=" rotate(0, 53, 221)" width="10" x="48.3868" y="216.4629"/>
  <polygon fill="#6dd6ff" points="66.0825,219.2115 71.0825,209.2115 76.0825,219.2115" stroke-width="0" transform=" rotate(0, 71, 214)"/>
  <ellipse cx="97.7721" cy="213.0985" fill="#6dd6ff" rx="5.0" ry="5.0" stroke-width="0" transform=" rotate(0, 97, 213)"/>
  <rect fill="#6dd6ff" height="10" stroke-width="0" transform=" rotate(0, 113, 211)" width="10" x="108.0232" y="206.2061"/>
  <polygon fill="#6dd6ff" points="136.5761,224.888 141.5761,214.888 146.5761,224.888" stroke-width="0" transform=" rotate(0, 141, 219)"/>
  <ellipse cx="156.1703" cy="210.7506" fill="#6dd6ff" rx="5.0" ry="5.0" stroke-width="0" transform=" rotate(0, 156, 210)"/>
  <rect fill="#6dd6ff" height="10" stroke-width="0" transform=" rotate(0, 180, 215)" width="10" x="175.3311" y="210.6117"/>
  <polygon fill="#6dd6ff" points="184.8197,223.5886 189.8197,213.5886 194.8197,223.5886" stroke-width="0" transform=" rotate(0, 189, 218)"/>
  <ellipse cx="213.1198" cy="219.2165" fill="#6dd6ff" rx="5.0" ry="5.0" stroke-width="0" transform=" rotate(0, 213, 219)"/>
  <rect fill="#6dd6ff" height="10" stroke-width="0" transform=" rotate(0, 240, 213)" width="10" x="235.6679" y="208.7091"/>
  <polygon fill="#6dd6ff" points="248.1787,222.6808 253.1787,212.6808 258.1787,222.6808" stroke-width="0" transform=" rotate(0, 253, 217)"/>
  <ellipse cx="269.5159" cy="212.38" fill="#6dd6ff" rx="5.0" ry="5.0" stroke-width="0" transform=" rotate(0, 269, 212)"/>
  <rect fill="#006ca1" height="18" stroke-width="0" transform=" rotate(0, 53, 231)" width="18" x="44.1419" y="222.0034"/>
  <polygon fill="#006ca1" points="68.1238,241.4785 77.1238,223.4785 86.1238,241.4785" stroke-width="0" transform=" rotate(0, 77, 232)"/>
  <ellipse cx="93.4861" cy="230.0466" fill="#006ca1" rx="9.0" ry="9.0" stroke-width="0" transform=" rotate(0, 93, 230)"/>
  <rect fill="#006ca1" height="18" stroke-width="0" transform=" rotate(0, 121, 229)" width="18" x="112.1306" y="220.6376"/>
  <polygon fill="#006ca1" points="121.7667,242.2335 130.7667,224.2335 139.7667,242.2335" stroke-width="0" transform=" rotate(0, 130, 233)"/>
  <ellipse cx="151.4172" cy="240.5323" fill="#006ca1" rx="9.0" ry="9.0" stroke-width="0" transform=" rotate(0, 151, 240)"/>
  <rect fill="#006ca1" height="18" stroke-width="0" transform=" rotate(0, 181, 230)" width="18" x="172.6158" y="221.2675"/>
  <polygon fill="#006ca1" points="182.7586,248.2528 191.7586,230.2528 200.7586,248.2528" stroke-width="0" transform=" rotate(0, 191, 239)"/>
  <ellipse cx="219.408" cy="234.2322" fill="#006ca1" rx="9.0" ry="9.0" stroke-width="0" transform=" rotate(0, 219, 234)"/>
  <rect fill="#006ca1" height="18" stroke-width="0" transform=" rotate(0, 229, 231)" width="18" x="220.305" y="222.0432"/>
  <polygon fill="#006ca1" points="240.5179,246.2304 249.5179,228.2304 258.5179,246.2304" stroke-width="0" transform=" rotate(0, 249, 237)"/>
  <ellipse cx="272.2003" cy="240.1082" fill="#006ca1" rx="9.0" ry="9.0" stroke-width="0" transform=" rotate(0, 272, 240)"/>
  <rect fill="#1b9fd8" height="14" stroke-width="0" transform=" rotate(0, 60, 256)" width="14" x="53.2771" y="249.587"/>
  <polygon fill="#1b9fd8" points="73.6049,259.735 80.6049,245.735 87.6049,259.735" stroke-width="0" transform=" rotate(0, 80, 252)"/>
  <ellipse cx="100.2141" cy="248.5087" fill="#1b9fd8" rx="7.0" ry="7.0" stroke-width="0" transform=" rotate(0, 100, 248)"/>
  <rect fill="#1b9fd8" height="14" stroke-width="0" transform=" rotate(0, 120, 255)" width="14" x="113.5367" y="248.3445"/>
  <polygon fill="#1b9fd8" points="122.1734,256.1051 129.1734,242.1051 136.1734,256.1051" stroke-width="0" transform=" rotate(0, 129, 249)"/>
  <ellipse cx="153.2311" cy="256.0364" fill="#1b9fd8" rx="7.0" ry="7.0" stroke-width="0" transform=" rotate(0, 153, 256)"/>
  <rect fill="#1b9fd8" height="14" stroke-width="0" transform=" rotate(0, 177, 257)" width="14" x="170.5204" y="250.9696"/>
  <polygon fill="#1b9fd8" points="191.8269,260.4156 198.8269,246.4156 205.8269,260.4156" stroke-width="0" transform=" rotate(0, 198, 253)"/>
  <ellipse cx="218.5943" cy="258.9074" fill="#1b9fd8" rx="7.0" ry="7.0" stroke-width="0" transform=" rotate(0, 218, 258)"/>
  <rect fill="#1b9fd8" height="14" stroke-width="0" transform=" rotate(0, 234, 252)" width="14" x="227.3198" y="245.4484"/>
  <polygon fill="#1b9fd8" points="251.3568,255.2782 258.3568,241.2782 265.3568,255.2782" stroke-width="0" transform=" rotate(0, 258, 248)"/>
  <ellipse cx="278.3733" cy="248.1579" fill="#1b9fd8" rx="7.0" ry="7.0" stroke-width="0" transform=" rotate(0, 278, 248)"/>
  <rect fill="#6dd6ff" height="10" stroke-width="0" transform=" rotate(0, 60, 279)" width="10" x="55.9751" y="274.7949"/>
  <polygon fill="#6dd6ff" points="63.3875,282.4858 68.3875,272.4858 73.3875,282.4858" stroke-width="0" transform=" rotate(0, 68, 277)"/>
  <ellipse cx="98.8007" cy="268.0813" fill="#6dd6ff" rx="5.0" ry="5.0" stroke-width="0" transform=" rotate(0, 98, 268)"/>
  <rect fill="#6dd6ff" height="10" stroke-width="0" transform=" rotate(0, 118, 276)" width="10" x="113.1024" y="271.478"/>
  <polygon fill="#6dd6ff" points="131.9996,284.7551 136.9996,274.7551 141.9996,284.7551" stroke-width="0" transform=" rotate(0, 136, 279)"/>
  <ellipse cx="156.3283" cy="270.8777" fill="#6dd6ff" rx="5.0" ry="5.0" stroke-width="0" transform=" rotate(0, 156, 270)"/>
  <rect fill="#6dd6ff" height="10" stroke-width="0" transform=" rotate(0, 171, 272)" width="10" x="166.0652" y="267.3949"/>
  <polygon fill="#6dd6ff" points="194.4594,277.9568 199.4594,267.9568 204.4594,277.9568" stroke-width="0" transform=" rotate(0, 199, 272)"/>
  <ellipse cx="218.4748" cy="269.0561" fill="#6dd6ff" rx="5.0" ry="5.0" stroke-width="0" transform=" rotate(0, 218, 269)"/>
  <rect fill="#6dd6ff" height="10" stroke-width="0" transform=" rotate(0, 230, 281)" width="10" x="225.5841" y="276.4423"/>
  <polygon fill="#6dd6ff" points="244.4796,286.5353 249.4796,276.5353 254.4796,286.5353" stroke-width="0" transform=" rotate(0, 249, 281)"/>
  <ellipse cx="280.8338" cy="269.6651" fill="#6dd6ff" rx="5.0" ry="5.0" stroke-width="0" transform=" rotate(0, 280, 269)"/>
</svg>
