<?xml version="1.0" encoding="utf-8" ?>
<svg baseProfile="tiny" height="330" version="1.2" width="330" xmlns="http://www.w3.org/2000/svg" xmlns:ev="http://www.w3.org/2001/xml-events" xmlns:xlink="http://www.w3.org/1999/xlink">
  <defs/>
  <rect fill="white" height="330" width="330" x="0" y="0"/>
  <rect fill="#6dd6ff" height="10" stroke-width="0" transform=" rotate(0, 51, 52)" width="10" x="46.8659" y="47.6604"/>
  <polygon fill="#6dd6ff" points="69.6132,56.5767 74.6132,46.5767 79.6132,56.5767" stroke-width="0" transform=" rotate(0, 74, 51)"/>
  <ellipse cx="96.7608" cy="50.9273" fill="#6dd6ff" rx="5.0" ry="5.0" stroke-width="0" transform=" rotate(0, 96, 50)"/>
  <rect fill="#6dd6ff" height="10" stroke-width="0" transform=" rotate(0, 111, 56)" width="10" x="106.5843" y="51.0543"/>
  <polygon fill="#6dd6ff" points="133.1769,56.2744 138.1769,46.2744 143.1769,56.2744" stroke-width="0" transform=" rotate(0, 138, 51)"/>
  <ellipse cx="156.7581" cy="52.4231" fill="#6dd6ff" rx="5.0" ry="5.0" stroke-width="0" transform=" rotate(0, 156, 52)"/>
  <rect fill="#6dd6ff" height="10" stroke-width="0" transform=" rotate(0, 175, 56)" width="10" x="170.1637" y="51.6928"/>
  <polygon fill="#6dd6ff" points="186.6473,61.2194 191.6473,51.2194 196.6473,61.2194" stroke-width="0" transform=" rotate(0, 191, 56)"/>
  <ellipse cx="217.7625" cy="56.1522" fill="#6dd6ff" rx="5.0" ry="5.0" stroke-width="0" transform=" rotate(0, 217, 56)"/>
  <rect fill="#6dd6ff" height="10" stroke-width="0" transform=" rotate(0, 234, 58)" width="10" x="229.1183" y="53.4821"/>
  <polygon fill="#6dd6ff" points="247.5654,60.9876 252.5654,50.9876 257.5654,60.9876" stroke-width="0" transform=" rotate(0, 252, 55)"/>
  <ellipse cx="275.8227" cy="56.5282" fill="#6dd6ff" rx="5.0" ry="5.0" stroke-width="0" transform=" rotate(0, 275, 56)"/>
  <rect fill="#1b9fd8" height="14" stroke-width="0" transform=" rotate(0, 58, 74)" width="14" x="51.717" y="67.1705"/>
  <polygon fill="#1b9fd8" points="65.3144,84.0938 72.3144,70.0938 79.3144,84.0938" stroke-width="0" transform=" rotate(0, 72, 77)"/>
  <ellipse cx="95.5778" cy="73.3033" fill="#1b9fd8" rx="7.0" ry="7.0" stroke-width="0" transform=" rotate(0, 95, 73)"/>
  <rect fill="#1b9fd8" height="14" stroke-width="0" transform=" rotate(0, 116, 78)" width="14" x="109.5689" y="71.4315"/>
  <polygon fill="#1b9fd8" points="125.2171,81.9666 132.2171,67.9666 139.2171,81.9666" stroke-width="0" transform=" rotate(0, 132, 74)"/>
  <ellipse cx="155.1832" cy="73.333" fill="#1b9fd8" rx="7.0" ry="7.0" stroke-width="0" transform=" rotate(0, 155, 73)"/>
  <rect fill="#1b9fd8" height="14" stroke-width="0" transform=" rotate(0, 176, 78)" width="14" x="169.4556" y="71.1701"/>
  <polygon fill="#1b9fd8" points="187.7858,85.3358 194.7858,71.3358 201.7858,85.3358" stroke-width="0" transform=" rotate(0, 194, 78)"/>
  <ellipse cx="212.3211" cy="78.1003" fill="#1b9fd8" rx="7.0" ry="7.0" stroke-width="0" transform=" rotate(0, 212, 78)"/>
  <rect fill="#1b9fd8" height="14" stroke-width="0" transform=" rotate(0, 236, 72)" width="14" x="229.3134" y="65.1091"/>
  <polygon fill="#1b9fd8" points="247.5427,81.1648 254.5427,67.1648 261.5427,81.1648" stroke-width="0" transform=" rotate(0, 254, 74)"/>
  <ellipse cx="278.1768" cy="76.8578" fill="#1b9fd8" rx="7.0" ry="7.0" stroke-width="0" transform=" rotate(0, 278, 76)"/>
  <rect fill="#006ca1" height="18" stroke-width="0" transform=" rotate(0, 54, 95)" width="18" x="45.717" y="86.9871"/>
  <polygon fill="#006ca1" points="66.669,103.782 75.669,85.782 84.669,103.782" stroke-width="0" transform=" rotate(0, 75, 94)"/>
  <ellipse cx="96.6221" cy="98.0296" fill="#006ca1" rx="9.0" ry="9.0" stroke-width="0" transform=" rotate(0, 96, 98)"/>
  <rect fill="#006ca1" height="18" stroke-width="0" transform=" rotate(0, 113, 92)" width="18" x="104.1876" y="83.4512"/>
  <polygon fill="#006ca1" points="127.4078,102.8501 136.4078,84.8501 145.4078,102.8501" stroke-width="0" transform=" rotate(0, 136, 93)"/>
  <ellipse cx="158.7536" cy="97.6276" fill="#006ca1" rx="9.0" ry="9.0" stroke-width="0" transform=" rotate(0, 158, 97)"/>
  <rect fill="#006ca1" height="18" stroke-width="0" transform=" rotate(0, 171, 96)" width="18" x="162.4274" y="87.3803"/>
  <polygon fill="#006ca1" points="185.1218,107.6127 194.1218,89.6127 203.1218,107.6127" stroke-width="0" transform=" rotate(0, 194, 98)"/>
  <ellipse cx="216.4945" cy="95.685" fill="#006ca1" rx="9.0" ry="9.0" stroke-width="0" transform=" rotate(0, 216, 95)"/>
  <rect fill="#006ca1" height="18" stroke-width="0" transform=" rotate(0, 234, 95)" width="18" x="225.7258" y="86.5063"/>
  <polygon fill="#006ca1" points="249.7282,103.5862 258.7282,85.5862 267.7282,103.5862" stroke-width="0" transform=" rotate(0, 258, 94)"/>
  <ellipse cx="276.6331" cy="96.9826" fill="#006ca1" rx="9.0" ry="9.0" stroke-width="0" transform=" rotate(0, 276, 96)"/>
  <rect fill="#6dd6ff" height="10" stroke-width="0" transform=" rotate(0, 55, 110)" width="10" x="50.0196" y="105.9746"/>
  <polygon fill="#6dd6ff" points="73.5115,117.3717 78.5115,107.3717 83.5115,117.3717" stroke-width="0" transform=" rotate(0, 78, 112)"/>
  <ellipse cx="96.32" cy="112.6983" fill="#6dd6ff" rx="5.0" ry="5.0" stroke-width="0" transform=" rotate(0, 96, 112)"/>
  <rect fill="#6dd6ff" height="10" stroke-width="0" transform=" rotate(0, 116, 115)" width="10" x="111.0384" y="110.0207"/>
  <polygon fill="#6dd6ff" points="130.7153,123.6832 135.7153,113.6832 140.7153,123.6832" stroke-width="0" transform=" rotate(0, 135, 118)"/>
  <ellipse cx="155.9812" cy="113.8262" fill="#6dd6ff" rx="5.0" ry="5.0" stroke-width="0" transform=" rotate(0, 155, 113)"/>
  <rect fill="#6dd6ff" height="10" stroke-width="0" transform=" rotate(0, 176, 116)" width="10" x="171.2459" y="111.8341"/>
  <polygon fill="#6dd6ff" points="193.8597,120.4411 198.8597,110.4411 203.8597,120.4411" stroke-width="0" transform=" rotate(0, 198, 115)"/>
  <ellipse cx="213.7389" cy="118.4512" fill="#6dd6ff" rx="5.0" ry="5.0" stroke-width="0" transform=" rotate(0, 213, 118)"/>
  <rect fill="#6dd6ff" height="10" stroke-width="0" transform=" rotate(0, 238, 116)" width="10" x="233.5329" y="111.6386"/>
  <polygon fill="#6dd6ff" points="249.0197,123.4947 254.0197,113.4947 259.0197,123.4947" stroke-width="0" transform=" rotate(0, 254, 118)"/>
  <ellipse cx="273.1422" cy="118.5825" fill="#6dd6ff" rx="5.0" ry="5.0" stroke-width="0" transform=" rotate(0, 273, 118)"/>
  <rect fill="#1b9fd8" height="14" stroke-width="0" transform=" rotate(0, 51, 133)" width="14" x="44.5964" y="126.9342"/>
  <polygon fill="#1b9fd8" points="71.5611,143.606 78.5611,129.606 85.5611,143.606" stroke-width="0" transform=" rotate(0, 78, 136)"/>
  <ellipse cx="92.1086" cy="135.0236" fill="#1b9fd8" rx="7.0" ry="7.0" stroke-width="0" transform=" rotate(0, 92, 135)"/>
  <rect fill="#1b9fd8" height="14" stroke-width="0" transform=" rotate(0, 114, 135)" width="14" x="107.1081" y="128.1771"/>
  <polygon fill="#1b9fd8" points="131.2678,145.7455 138.2678,131.7455 145.2678,145.7455" stroke-width="0" transform=" rotate(0, 138, 138)"/>
  <ellipse cx="156.9734" cy="135.386" fill="#1b9fd8" rx="7.0" ry="7.0" stroke-width="0" transform=" rotate(0, 156, 135)"/>
  <rect fill="#1b9fd8" height="14" stroke-width="0" transform=" rotate(0, 173, 137)" width="14" x="166.1025" y="130.0508"/>
  <polygon fill="#1b9fd8" points="186.8986,141.6802 193.8986,127.6802 200.8986,141.6802" stroke-width="0" transform=" rotate(0, 193, 134)"/>
  <ellipse cx="214.5339" cy="135.5295" fill="#1b9fd8" rx="7.0" ry="7.0" stroke-width="0" transform=" rotate(0, 214, 135)"/>
  <rect fill="#1b9fd8" height="14" stroke-width="0" transform=" rotate(0, 233, 133)" width="14" x="226.4919" y="126.6836"/>
  <polygon fill="#1b9fd8" points="247.2257,141.7871 254.2257,127.7871 261.2257,141.7871" stroke-width="0" transform=" rotate(0, 254, 134)"/>
  <ellipse cx="273.1241" cy="132.5365" fill="#1b9fd8" rx="7.0" ry="7.0" stroke-width="0" transform=" rotate(0, 273, 132)"/>
  <rect fill="#006ca1" height="18" stroke-width="0" transform=" rotate(0, 51, 154)" width="18" x="42.6736" y="145.1347"/>
  <polygon fill="#006ca1" points="69.0304,165.7744 78.0304,147.7744 87.0304,165.7744" stroke-width="0" transform=" rotate(0, 78, 156)"/>
  <ellipse cx="91.2466" cy="157.0681" fill="#006ca1" rx="9.0" ry="9.0" stroke-width="0" transform=" rotate(0, 91, 157)"/>
  <rect fill="#006ca1" height="18" stroke-width="0" transform=" rotate(0, 116, 152)" width="18" x="107.297" y="143.1672"/>
  <polygon fill="#006ca1" points="122.7917,162.3747 131.7917,144.3747 140.7917,162.3747" stroke-width="0" transform=" rotate(0, 131, 153)"/>
  <ellipse cx="154.5042" cy="156.0602" fill="#006ca1" rx="9.0" ry="9.0" stroke-width="0" transform=" rotate(0, 154, 156)"/>
  <rect fill="#006ca1" height="18" stroke-width="0" transform=" rotate(0, 171, 158)" width="18" x="162.6826" y="149.4264"/>
  <polygon fill="#006ca1" points="188.4083,161.553 197.4083,143.553 206.4083,161.553" stroke-width="0" transform=" rotate(0, 197, 152)"/>
  <ellipse cx="215.5088" cy="157.9307" fill="#006ca1" rx="9.0" ry="9.0" stroke-width="0" transform=" rotate(0, 215, 157)"/>
  <rect fill="#006ca1" height="18" stroke-width="0" transform=" rotate(0, 233, 153)" width="18" x="224.8095" y="144.3705"/>
  <polygon fill="#006ca1" points="249.039,164.6894 258.039,146.6894 267.039,164.6894" stroke-width="0" transform=" rotate(0, 258, 155)"/>
  <ellipse cx="274.0634" cy="152.0276" fill="#006ca1" rx="9.0" ry="9.0" stroke-width="0" transform=" rotate(0, 274, 152)"/>
  <rect fill="#006ca1" height="18" stroke-width="0" transform=" rotate(0, 52, 171)" width="18" x="43.5105" y="162.9083"/>
  <polygon fill="#006ca1" points="65.8743,184.3042 74.8743,166.3042 83.8743,184.3042" stroke-width="0" transform=" rotate(0, 74, 175)"/>
  <ellipse cx="96.1962" cy="177.3717" fill="#006ca1" rx="9.0" ry="9.0" stroke-width="0" transform=" rotate(0, 96, 177)"/>
  <rect fill="#006ca1" height="18" stroke-width="0" transform=" rotate(0, 112, 175)" width="18" x="103.408" y="166.334"/>
  <polygon fill="#006ca1" points="125.1277,181.7334 134.1277,163.7334 143.1277,181.7334" stroke-width="0" transform=" rotate(0, 134, 172)"/>
  <ellipse cx="152.4773" cy="173.4482" fill="#006ca1" rx="9.0" ry="9.0" stroke-width="0" transform=" rotate(0, 152, 173)"/>
  <rect fill="#006ca1" height="18" stroke-width="0" transform=" rotate(0, 172, 172)" width="18" x="163.336" y="163.8184"/>
  <polygon fill="#006ca1" points="186.9469,183.1104 195.9469,165.1104 204.9469,183.1104" stroke-width="0" transform=" rotate(0, 195, 174)"/>
  <ellipse cx="216.6321" cy="178.2298" fill="#006ca1" rx="9.0" ry="9.0" stroke-width="0" transform=" rotate(0, 216, 178)"/>
  <rect fill="#006ca1" height="18" stroke-width="0" transform=" rotate(0, 231, 174)" width="18" x="222.1025" y="165.0396"/>
  <polygon fill="#006ca1" points="244.0269,184.7667 253.0269,166.7667 262.0269,184.7667" stroke-width="0" transform=" rotate(0, 253, 175)"/>
  <ellipse cx="271.8724" cy="174.3529" fill="#006ca1" rx="9.0" ry="9.0" stroke-width="0" transform=" rotate(0, 271, 174)"/>
  <rect fill="#1b9fd8" height="14" stroke-width="0" transform=" rotate(0, 57, 193)" width="14" x="50.2971" y="186.3386"/>
  <polygon fill="#1b9fd8" points="71.9697,197.858 78.9697,183.858 85.9697,197.858" stroke-width="0" transform=" rotate(0, 78, 190)"/>
  <ellipse cx="92.1316" cy="194.102" fill="#1b9fd8" rx="7.0" ry="7.0" stroke-width="0" transform=" rotate(0, 92, 194)"/>
  <rect fill="#1b9fd8" height="14" stroke-width="0" transform=" rotate(0, 116, 197)" width="14" x="109.1884" y="190.2346"/>
  <polygon fill="#1b9fd8" points="130.4157,198.2638 137.4157,184.2638 144.4157,198.2638" stroke-width="0" transform=" rotate(0, 137, 191)"/>
  <ellipse cx="151.7778" cy="198.2514" fill="#1b9fd8" rx="7.0" ry="7.0" stroke-width="0" transform=" rotate(0, 151, 198)"/>
  <rect fill="#1b9fd8" height="14" stroke-width="0" transform=" rotate(0, 173, 194)" width="14" x="166.8555" y="187.4838"/>
  <polygon fill="#1b9fd8" points="186.9485,203.002 193.9485,189.002 200.9485,203.002" stroke-width="0" transform=" rotate(0, 193, 196)"/>
  <ellipse cx="212.0748" cy="195.354" fill="#1b9fd8" rx="7.0" ry="7.0" stroke-width="0" transform=" rotate(0, 212, 195)"/>
  <rect fill="#1b9fd8" height="14" stroke-width="0" transform=" rotate(0, 231, 194)" width="14" x="224.4705" y="187.3548"/>
  <polygon fill="#1b9fd8" points="245.5687,204.7974 252.5687,190.7974 259.5687,204.7974" stroke-width="0" transform=" rotate(0, 252, 197)"/>
  <ellipse cx="273.9542" cy="191.2334" fill="#1b9fd8" rx="7.0" ry="7.0" stroke-width="0" transform=" rotate(0, 273, 191)"/>
  <rect fill="#6dd6ff" height="10" stroke-width="0" transform=" rotate(0, 54, 218)" width="10" x="49.0782" y="213.6931"/>
  <polygon fill="#6dd6ff" points="67.7615,219.5494 72.7615,209.5494 77.7615,219.5494" stroke-width="0" transform=" rotate(0, 72, 214)"/>
  <ellipse cx="96.584" cy="213.9135" fill="#6dd6ff" rx="5.0" ry="5.0" stroke-width="0" transform=" rotate(0, 96, 213)"/>
  <rect fill="#6dd6ff" height="10" stroke-width="0" transform=" rotate(0, 113, 212)" width="10" x="108.8704" y="207.832"/>
  <polygon fill="#6dd6ff" points="133.7578,222.7931 138.7578,212.7931 143.7578,222.7931" stroke-width="0" transform=" rotate(0, 138, 217)"/>
  <ellipse cx="155.6687" cy="212.5718" fill="#6dd6ff" rx="5.0" ry="5.0" stroke-width="0" transform=" rotate(0, 155, 212)"/>
  <rect fill="#6dd6ff" height="10" stroke-width="0" transform=" rotate(0, 178, 215)" width="10" x="173.0464" y="210.3495"/>
  <polygon fill="#6dd6ff" points="187.0399,222.0506 192.0399,212.0506 197.0399,222.0506" stroke-width="0" transform=" rotate(0, 192, 217)"/>
  <ellipse cx="213.9256" cy="217.4095" fill="#6dd6ff" rx="5.0" ry="5.0" stroke-width="0" transform=" rotate(0, 213, 217)"/>
  <rect fill="#6dd6ff" height="10" stroke-width="0" transform=" rotate(0, 238, 214)" width="10" x="233.2388" y="209.2623"/>
  <polygon fill="#6dd6ff" points="248.9593,221.5319 253.9593,211.5319 258.9593,221.5319" stroke-width="0" transform=" rotate(0, 253, 216)"/>
  <ellipse cx="271.8662" cy="213.5028" fill="#6dd6ff" rx="5.0" ry="5.0" stroke-width="0" transform=" rotate(0, 271, 213)"/>
  <rect fill="#006ca1" height="18" stroke-width="0" transform=" rotate(0, 53, 232)" width="18" x="44.9382" y="223.7163"/>
  <polygon fill="#006ca1" points="67.2136,242.5591 76.2136,224.5591 85.2136,242.5591" stroke-width="0" transform=" rotate(0, 76, 233)"/>
  <ellipse cx="94.1349" cy="232.1695" fill="#006ca1" rx="9.0" ry="9.0" stroke-width="0" transform=" rotate(0, 94, 232)"/>
  <rect fill="#006ca1" height="18" stroke-width="0" transform=" rotate(0, 118, 231)" width="18" x="109.5032" y="222.9358"/>
  <polygon fill="#006ca1" points="123.581,242.9906 132.581,224.9906 141.581,242.9906" stroke-width="0" transform=" rotate(0, 132, 233)"/>
  <ellipse cx="152.9527" cy="238.1613" fill="#006ca1" rx="9.0" ry="9.0" stroke-width="0" transform=" rotate(0, 152, 238)"/>
  <rect fill="#006ca1" height="18" stroke-width="0" transform=" rotate(0, 178, 232)" width="18" x="169.7805" y="223.2957"/>
  <polygon fill="#006ca1" points="184.1478,246.4302 193.1478,228.4302 202.1478,246.4302" stroke-width="0" transform=" rotate(0, 193, 237)"/>
  <ellipse cx="217.5189" cy="234.5612" fill="#006ca1" rx="9.0" ry="9.0" stroke-width="0" transform=" rotate(0, 217, 234)"/>
  <rect fill="#006ca1" height="18" stroke-width="0" transform=" rotate(0, 231, 232)" width="18" x="222.7457" y="223.739"/>
  <polygon fill="#006ca1" points="242.8674,245.2745 251.8674,227.2745 260.8674,245.2745" stroke-width="0" transform=" rotate(0, 251, 236)"/>
  <ellipse cx="273.4002" cy="237.919" fill="#006ca1" rx="9.0" ry="9.0" stroke-width="0" transform=" rotate(0, 273, 237)"/>
  <rect fill="#1b9fd8" height="14" stroke-width="0" transform=" rotate(0, 58, 255)" width="14" x="51.0155" y="248.9068"/>
  <polygon fill="#1b9fd8" points="71.2028,260.7057 78.2028,246.7057 85.2028,260.7057" stroke-width="0" transform=" rotate(0, 78, 253)"/>
  <ellipse cx="97.9795" cy="251.2907" fill="#1b9fd8" rx="7.0" ry="7.0" stroke-width="0" transform=" rotate(0, 97, 251)"/>
  <rect fill="#1b9fd8" height="14" stroke-width="0" transform=" rotate(0, 118, 255)" width="14" x="111.1638" y="248.1969"/>
  <polygon fill="#1b9fd8" points="124.6705,258.6315 131.6705,244.6315 138.6705,258.6315" stroke-width="0" transform=" rotate(0, 131, 251)"/>
  <ellipse cx="153.9892" cy="255.5923" fill="#1b9fd8" rx="7.0" ry="7.0" stroke-width="0" transform=" rotate(0, 153, 255)"/>
  <rect fill="#1b9fd8" height="14" stroke-width="0" transform=" rotate(0, 176, 256)" width="14" x="169.4403" y="249.6969"/>
  <polygon fill="#1b9fd8" points="190.1868,261.0946 197.1868,247.0946 204.1868,261.0946" stroke-width="0" transform=" rotate(0, 197, 254)"/>
  <ellipse cx="217.0539" cy="257.2328" fill="#1b9fd8" rx="7.0" ry="7.0" stroke-width="0" transform=" rotate(0, 217, 257)"/>
  <rect fill="#1b9fd8" height="14" stroke-width="0" transform=" rotate(0, 234, 253)" width="14" x="227.6113" y="246.5419"/>
  <polygon fill="#1b9fd8" points="249.9182,258.159 256.9182,244.159 263.9182,258.159" stroke-width="0" transform=" rotate(0, 256, 251)"/>
  <ellipse cx="276.9276" cy="251.0902" fill="#1b9fd8" rx="7.0" ry="7.0" stroke-width="0" transform=" rotate(0, 276, 251)"/>
  <rect fill="#6dd6ff" height="10" stroke-width="0" transform=" rotate(0, 58, 277)" width="10" x="53.4143" y="272.7399"/>
  <polygon fill="#6dd6ff" points="66.2214,281.4205 71.2214,271.4205 76.2214,281.4205" stroke-width="0" transform=" rotate(0, 71, 276)"/>
  <ellipse cx="97.1718" cy="271.0464" fill="#6dd6ff" rx="5.0" ry="5.0" stroke-width="0" transform=" rotate(0, 97, 271)"/>
  <rect fill="#6dd6ff" height="10" stroke-width="0" transform=" rotate(0, 116, 275)" width="10" x="111.7728" y="270.8446"/>
  <polygon fill="#6dd6ff" points="131.1427,282.7172 136.1427,272.7172 141.1427,282.7172" stroke-width="0" transform=" rotate(0, 136, 277)"/>
  <ellipse cx="155.759" cy="272.6444" fill="#6dd6ff" rx="5.0" ry="5.0" stroke-width="0" transform=" rotate(0, 155, 272)"/>
  <rect fill="#6dd6ff" height="10" stroke-width="0" transform=" rotate(0, 172, 273)" width="10" x="167.7515" y="268.5114"/>
  <polygon fill="#6dd6ff" points="192.5482,278.8325 197.5482,268.8325 202.5482,278.8325" stroke-width="0" transform=" rotate(0, 197, 273)"/>
  <ellipse cx="216.9856" cy="271.6035" fill="#6dd6ff" rx="5.0" ry="5.0" stroke-width="0" transform=" rotate(0, 216, 271)"/>
  <rect fill="#6dd6ff" height="10" stroke-width="0" transform=" rotate(0, 232, 278)" width="10" x="227.4766" y="273.6813"/>
  <polygon fill="#6dd6ff" points="246.8455,283.7345 251.8455,273.7345 256.8455,283.7345" stroke-width="0" transform=" rotate(0, 251, 278)"/>
  <ellipse cx="278.3336" cy="271.9515" fill="#6dd6ff" rx="5.0" ry="5.0" stroke-width="0" transform=" rotate(0, 278, 271)"/>
</svg>
