<?xml version="1.0" encoding="utf-8" ?>
<svg baseProfile="tiny" height="330" version="1.2" width="330" xmlns="http://www.w3.org/2000/svg" xmlns:ev="http://www.w3.org/2001/xml-events" xmlns:xlink="http://www.w3.org/1999/xlink">
  <defs/>
  <rect fill="white" height="330" width="330" x="0" y="0"/>
  <rect fill="#6dd6ff" height="15" stroke-width="0" transform=" rotate(0, 56, 56)" width="15" x="48.6814" y="49.4228"/>
  <polygon fill="#6dd6ff" points="81.7721,67.4744 89.2721,52.4744 96.7721,67.4744" stroke-width="0" transform=" rotate(0, 89, 59)"/>
  <ellipse cx="121.6882" cy="56.8001" fill="#6dd6ff" rx="7.5" ry="7.5" stroke-width="0" transform=" rotate(0, 121, 56)"/>
  <rect fill="#6dd6ff" height="15" stroke-width="0" transform=" rotate(0, 145, 63)" width="15" x="138.3646" y="55.7415"/>
  <polygon fill="#6dd6ff" points="175.7813,68.6046 183.2813,53.6046 190.7813,68.6046" stroke-width="0" transform=" rotate(0, 183, 61)"/>
  <ellipse cx="211.6852" cy="59.1929" fill="#6dd6ff" rx="7.5" ry="7.5" stroke-width="0" transform=" rotate(0, 211, 59)"/>
  <rect fill="#6dd6ff" height="15" stroke-width="0" transform=" rotate(0, 239, 63)" width="15" x="232.3915" y="56.4511"/>
  <polygon fill="#6dd6ff" points="258.4355,66.9785 265.9355,51.9785 273.4355,66.9785" stroke-width="0" transform=" rotate(0, 265, 59)"/>
  <rect fill="#1b9fd8" height="21" stroke-width="0" transform=" rotate(0, 64, 86)" width="21" x="53.5577" y="76.1107"/>
  <polygon fill="#1b9fd8" points="77.8181,100.8337 88.3181,79.8337 98.8181,100.8337" stroke-width="0" transform=" rotate(0, 88, 90)"/>
  <ellipse cx="115.8722" cy="92.4157" fill="#1b9fd8" rx="10.5" ry="10.5" stroke-width="0" transform=" rotate(0, 115, 92)"/>
  <rect fill="#1b9fd8" height="21" stroke-width="0" transform=" rotate(0, 151, 86)" width="21" x="140.5025" y="75.9492"/>
  <polygon fill="#1b9fd8" points="175.061,99.6578 185.561,78.6578 196.061,99.6578" stroke-width="0" transform=" rotate(0, 185, 89)"/>
  <ellipse cx="205.4768" cy="86.5584" fill="#1b9fd8" rx="10.5" ry="10.5" stroke-width="0" transform=" rotate(0, 205, 86)"/>
  <rect fill="#1b9fd8" height="21" stroke-width="0" transform=" rotate(0, 240, 86)" width="21" x="230.1167" y="75.8359"/>
  <polygon fill="#1b9fd8" points="261.6777,102.523 272.1777,81.523 282.6777,102.523" stroke-width="0" transform=" rotate(0, 272, 92)"/>
  <rect fill="#006ca1" height="27" stroke-width="0" transform=" rotate(0, 54, 123)" width="27" x="40.5709" y="110.336"/>
  <polygon fill="#006ca1" points="76.5772,126.1385 90.0772,99.1385 103.5772,126.1385" stroke-width="0" transform=" rotate(0, 90, 112)"/>
  <ellipse cx="122.6538" cy="116.5356" fill="#006ca1" rx="13.5" ry="13.5" stroke-width="0" transform=" rotate(0, 122, 116)"/>
  <rect fill="#006ca1" height="27" stroke-width="0" transform=" rotate(0, 149, 114)" width="27" x="135.7724" y="100.6977"/>
  <polygon fill="#006ca1" points="160.7813,138.6826 174.2813,111.6826 187.7813,138.6826" stroke-width="0" transform=" rotate(0, 174, 125)"/>
  <ellipse cx="212.3658" cy="128.5698" fill="#006ca1" rx="13.5" ry="13.5" stroke-width="0" transform=" rotate(0, 212, 128)"/>
  <rect fill="#006ca1" height="27" stroke-width="0" transform=" rotate(0, 238, 114)" width="27" x="225.28" y="101.2225"/>
  <polygon fill="#006ca1" points="262.6392,136.4375 276.1392,109.4375 289.6392,136.4375" stroke-width="0" transform=" rotate(0, 276, 122)"/>
  <rect fill="#6dd6ff" height="15" stroke-width="0" transform=" rotate(0, 59, 153)" width="15" x="51.8889" y="145.7499"/>
  <polygon fill="#6dd6ff" points="82.9599,154.4072 90.4599,139.4072 97.9599,154.4072" stroke-width="0" transform=" rotate(0, 90, 146)"/>
  <ellipse cx="121.5321" cy="149.2446" fill="#6dd6ff" rx="7.5" ry="7.5" stroke-width="0" transform=" rotate(0, 121, 149)"/>
  <rect fill="#6dd6ff" height="15" stroke-width="0" transform=" rotate(0, 147, 149)" width="15" x="140.1683" y="141.8493"/>
  <polygon fill="#6dd6ff" points="173.7911,154.7414 181.2911,139.7414 188.7911,154.7414" stroke-width="0" transform=" rotate(0, 181, 147)"/>
  <ellipse cx="213.9301" cy="146.5615" fill="#6dd6ff" rx="7.5" ry="7.5" stroke-width="0" transform=" rotate(0, 213, 146)"/>
  <rect fill="#6dd6ff" height="15" stroke-width="0" transform=" rotate(0, 235, 147)" width="15" x="228.1881" y="140.297"/>
  <polygon fill="#6dd6ff" points="261.2193,156.8557 268.7193,141.8557 276.2193,156.8557" stroke-width="0" transform=" rotate(0, 268, 149)"/>
  <rect fill="#6dd6ff" height="15" stroke-width="0" transform=" rotate(0, 61, 179)" width="15" x="53.8886" y="171.9951"/>
  <polygon fill="#6dd6ff" points="81.8988,185.5138 89.3988,170.5138 96.8988,185.5138" stroke-width="0" transform=" rotate(0, 89, 178)"/>
  <ellipse cx="123.9014" cy="182.3142" fill="#6dd6ff" rx="7.5" ry="7.5" stroke-width="0" transform=" rotate(0, 123, 182)"/>
  <rect fill="#6dd6ff" height="15" stroke-width="0" transform=" rotate(0, 151, 179)" width="15" x="144.0445" y="171.7614"/>
  <polygon fill="#6dd6ff" points="172.2293,192.2597 179.7293,177.2597 187.2293,192.2597" stroke-width="0" transform=" rotate(0, 179, 184)"/>
  <ellipse cx="213.6577" cy="181.2845" fill="#6dd6ff" rx="7.5" ry="7.5" stroke-width="0" transform=" rotate(0, 213, 181)"/>
  <rect fill="#6dd6ff" height="15" stroke-width="0" transform=" rotate(0, 241, 183)" width="15" x="233.6923" y="176.4593"/>
  <polygon fill="#6dd6ff" points="263.3754,184.702 270.8754,169.702 278.3754,184.702" stroke-width="0" transform=" rotate(0, 270, 177)"/>
  <rect fill="#006ca1" height="27" stroke-width="0" transform=" rotate(0, 61, 208)" width="27" x="47.6546" y="194.8554"/>
  <polygon fill="#006ca1" points="78.193,230.5896 91.693,203.5896 105.193,230.5896" stroke-width="0" transform=" rotate(0, 91, 217)"/>
  <ellipse cx="122.2291" cy="208.4236" fill="#006ca1" rx="13.5" ry="13.5" stroke-width="0" transform=" rotate(0, 122, 208)"/>
  <rect fill="#006ca1" height="27" stroke-width="0" transform=" rotate(0, 157, 204)" width="27" x="144.022" y="190.6851"/>
  <polygon fill="#006ca1" points="163.6524,221.881 177.1524,194.881 190.6524,221.881" stroke-width="0" transform=" rotate(0, 177, 208)"/>
  <ellipse cx="216.8603" cy="212.9886" fill="#006ca1" rx="13.5" ry="13.5" stroke-width="0" transform=" rotate(0, 216, 212)"/>
  <rect fill="#006ca1" height="27" stroke-width="0" transform=" rotate(0, 237, 208)" width="27" x="224.2211" y="195.2793"/>
  <polygon fill="#006ca1" points="252.4441,231.125 265.9441,204.125 279.4441,231.125" stroke-width="0" transform=" rotate(0, 265, 217)"/>
  <rect fill="#1b9fd8" height="21" stroke-width="0" transform=" rotate(0, 54, 236)" width="21" x="43.8461" y="226.2217"/>
  <polygon fill="#1b9fd8" points="84.8155,247.8071 95.3155,226.8071 105.8155,247.8071" stroke-width="0" transform=" rotate(0, 95, 237)"/>
  <ellipse cx="115.1528" cy="246.4858" fill="#1b9fd8" rx="10.5" ry="10.5" stroke-width="0" transform=" rotate(0, 115, 246)"/>
  <rect fill="#1b9fd8" height="21" stroke-width="0" transform=" rotate(0, 148, 237)" width="21" x="137.802" y="227.1143"/>
  <polygon fill="#1b9fd8" points="174.3535,254.9988 184.8535,233.9988 195.3535,254.9988" stroke-width="0" transform=" rotate(0, 184, 244)"/>
  <ellipse cx="212.8149" cy="235.4061" fill="#1b9fd8" rx="10.5" ry="10.5" stroke-width="0" transform=" rotate(0, 212, 235)"/>
  <rect fill="#1b9fd8" height="21" stroke-width="0" transform=" rotate(0, 236, 235)" width="21" x="226.2182" y="225.0977"/>
  <polygon fill="#1b9fd8" points="257.472,248.5119 267.972,227.5119 278.472,248.5119" stroke-width="0" transform=" rotate(0, 267, 238)"/>
  <rect fill="#6dd6ff" height="15" stroke-width="0" transform=" rotate(0, 59, 273)" width="15" x="51.6829" y="266.4246"/>
  <polygon fill="#6dd6ff" points="80.5107,281.6353 88.0107,266.6353 95.5107,281.6353" stroke-width="0" transform=" rotate(0, 88, 274)"/>
  <ellipse cx="118.8362" cy="273.8841" fill="#6dd6ff" rx="7.5" ry="7.5" stroke-width="0" transform=" rotate(0, 118, 273)"/>
  <rect fill="#6dd6ff" height="15" stroke-width="0" transform=" rotate(0, 147, 274)" width="15" x="140.0969" y="266.5915"/>
  <polygon fill="#6dd6ff" points="168.4651,274.2865 175.9651,259.2865 183.4651,274.2865" stroke-width="0" transform=" rotate(0, 175, 266)"/>
  <ellipse cx="213.1165" cy="269.395" fill="#6dd6ff" rx="7.5" ry="7.5" stroke-width="0" transform=" rotate(0, 213, 269)"/>
  <rect fill="#6dd6ff" height="15" stroke-width="0" transform=" rotate(0, 235, 272)" width="15" x="227.9847" y="264.6525"/>
  <polygon fill="#6dd6ff" points="263.6664,280.4923 271.1664,265.4923 278.6664,280.4923" stroke-width="0" transform=" rotate(0, 271, 272)"/>
</svg>
