<?xml version="1.0" encoding="utf-8" ?>
<svg baseProfile="tiny" height="330" version="1.2" width="330" xmlns="http://www.w3.org/2000/svg" xmlns:ev="http://www.w3.org/2001/xml-events" xmlns:xlink="http://www.w3.org/1999/xlink">
  <defs/>
  <rect fill="white" height="330" width="330" x="0" y="0"/>
  <rect fill="#6dd6ff" height="20" stroke-width="0" transform=" rotate(0, 48, 65)" width="20" x="38.2878" y="55.074"/>
  <polygon fill="#6dd6ff" points="92.0243,92.5334 102.0243,72.5334 112.0243,92.5334" stroke-width="0" transform=" rotate(0, 102, 82)"/>
  <ellipse cx="152.7623" cy="71.576" fill="#6dd6ff" rx="10.0" ry="10.0" stroke-width="0" transform=" rotate(0, 152, 71)"/>
  <rect fill="#6dd6ff" height="20" stroke-width="0" transform=" rotate(0, 166, 70)" width="20" x="156.8797" y="60.1678"/>
  <polygon fill="#6dd6ff" points="229.8426,78.5524 239.8426,58.5524 249.8426,78.5524" stroke-width="0" transform=" rotate(0, 239, 68)"/>
  <ellipse cx="272.7489" cy="69.8819" fill="#6dd6ff" rx="10.0" ry="10.0" stroke-width="0" transform=" rotate(0, 272, 69)"/>
  <rect fill="#1b9fd8" height="28" stroke-width="0" transform=" rotate(0, 64, 111)" width="28" x="50.7768" y="97.2056"/>
  <polygon fill="#1b9fd8" points="73.1947,138.2745 87.1947,110.2745 101.1947,138.2745" stroke-width="0" transform=" rotate(0, 87, 124)"/>
  <ellipse cx="157.7709" cy="98.6705" fill="#1b9fd8" rx="14.0" ry="14.0" stroke-width="0" transform=" rotate(0, 157, 98)"/>
  <rect fill="#1b9fd8" height="28" stroke-width="0" transform=" rotate(0, 179, 122)" width="28" x="165.5499" y="108.6405"/>
  <polygon fill="#1b9fd8" points="197.7852,114.0747 211.7852,86.0747 225.7852,114.0747" stroke-width="0" transform=" rotate(0, 211, 100)"/>
  <ellipse cx="268.0717" cy="95.687" fill="#1b9fd8" rx="14.0" ry="14.0" stroke-width="0" transform=" rotate(0, 268, 95)"/>
  <rect fill="#006ca1" height="36" stroke-width="0" transform=" rotate(0, 82, 127)" width="36" x="64.5431" y="109.9581"/>
  <polygon fill="#006ca1" points="72.53,180.7817 90.53,144.7817 108.53,180.7817" stroke-width="0" transform=" rotate(0, 90, 162)"/>
  <ellipse cx="146.8471" cy="130.5191" fill="#006ca1" rx="18.0" ry="18.0" stroke-width="0" transform=" rotate(0, 146, 130)"/>
  <rect fill="#006ca1" height="36" stroke-width="0" transform=" rotate(0, 191, 140)" width="36" x="173.8026" y="122.5165"/>
  <polygon fill="#006ca1" points="192.0439,179.315 210.0439,143.315 228.0439,179.315" stroke-width="0" transform=" rotate(0, 210, 161)"/>
  <ellipse cx="264.8744" cy="154.8432" fill="#006ca1" rx="18.0" ry="18.0" stroke-width="0" transform=" rotate(0, 264, 154)"/>
  <rect fill="#006ca1" height="36" stroke-width="0" transform=" rotate(0, 71, 175)" width="36" x="53.2363" y="157.4885"/>
  <polygon fill="#006ca1" points="84.8873,197.4691 102.8873,161.4691 120.8873,197.4691" stroke-width="0" transform=" rotate(0, 102, 179)"/>
  <ellipse cx="130.5636" cy="182.6453" fill="#006ca1" rx="18.0" ry="18.0" stroke-width="0" transform=" rotate(0, 130, 182)"/>
  <rect fill="#006ca1" height="36" stroke-width="0" transform=" rotate(0, 190, 177)" width="36" x="172.5253" y="159.4357"/>
  <polygon fill="#006ca1" points="203.6715,199.1047 221.6715,163.1047 239.6715,199.1047" stroke-width="0" transform=" rotate(0, 221, 181)"/>
  <ellipse cx="279.8422" cy="175.5966" fill="#006ca1" rx="18.0" ry="18.0" stroke-width="0" transform=" rotate(0, 279, 175)"/>
  <rect fill="#1b9fd8" height="28" stroke-width="0" transform=" rotate(0, 62, 208)" width="28" x="48.5434" y="194.3441"/>
  <polygon fill="#1b9fd8" points="93.3033,254.1281 107.3033,226.1281 121.3033,254.1281" stroke-width="0" transform=" rotate(0, 107, 240)"/>
  <ellipse cx="152.0687" cy="206.209" fill="#1b9fd8" rx="14.0" ry="14.0" stroke-width="0" transform=" rotate(0, 152, 206)"/>
  <rect fill="#1b9fd8" height="28" stroke-width="0" transform=" rotate(0, 174, 231)" width="28" x="160.8963" y="217.4612"/>
  <polygon fill="#1b9fd8" points="216.9973,222.9345 230.9973,194.9345 244.9973,222.9345" stroke-width="0" transform=" rotate(0, 230, 208)"/>
  <ellipse cx="282.7263" cy="222.4968" fill="#1b9fd8" rx="14.0" ry="14.0" stroke-width="0" transform=" rotate(0, 282, 222)"/>
  <rect fill="#6dd6ff" height="20" stroke-width="0" transform=" rotate(0, 46, 248)" width="20" x="36.095" y="238.3892"/>
  <polygon fill="#6dd6ff" points="89.5671,287.0174 99.5671,267.0174 109.5671,287.0174" stroke-width="0" transform=" rotate(0, 99, 277)"/>
  <ellipse cx="151.4308" cy="267.5201" fill="#6dd6ff" rx="10.0" ry="10.0" stroke-width="0" transform=" rotate(0, 151, 267)"/>
  <rect fill="#6dd6ff" height="20" stroke-width="0" transform=" rotate(0, 182, 259)" width="20" x="172.5871" y="249.0237"/>
  <polygon fill="#6dd6ff" points="232.599,290.1713 242.599,270.1713 252.599,290.1713" stroke-width="0" transform=" rotate(0, 242, 280)"/>
  <ellipse cx="272.1236" cy="260.2929" fill="#6dd6ff" rx="10.0" ry="10.0" stroke-width="0" transform=" rotate(0, 272, 260)"/>
</svg>
