<?xml version="1.0" encoding="utf-8" ?>
<svg baseProfile="tiny" height="330" version="1.2" width="330" xmlns="http://www.w3.org/2000/svg" xmlns:ev="http://www.w3.org/2001/xml-events" xmlns:xlink="http://www.w3.org/1999/xlink">
  <defs/>
  <rect fill="white" height="330" width="330" x="0" y="0"/>
  <rect fill="#6dd6ff" height="7.5" stroke-width="0" transform=" rotate(0, 48, 51)" width="7.5" x="45.1044" y="47.7793"/>
  <polygon fill="#6dd6ff" points="63.1951,59.9714 66.9451,52.4714 70.6951,59.9714" stroke-width="0" transform=" rotate(0, 66, 56)"/>
  <ellipse cx="84.3612" cy="49.6226" fill="#6dd6ff" rx="3.75" ry="3.75" stroke-width="0" transform=" rotate(0, 84, 49)"/>
  <rect fill="#6dd6ff" height="7.5" stroke-width="0" transform=" rotate(0, 93, 55)" width="7.5" x="89.7876" y="51.6488"/>
  <polygon fill="#6dd6ff" points="112.2042,55.9213 115.9542,48.4213 119.7042,55.9213" stroke-width="0" transform=" rotate(0, 115, 52)"/>
  <ellipse cx="129.3581" cy="50.1212" fill="#6dd6ff" rx="3.75" ry="3.75" stroke-width="0" transform=" rotate(0, 129, 50)"/>
  <rect fill="#6dd6ff" height="7.5" stroke-width="0" transform=" rotate(0, 142, 54)" width="7.5" x="138.8144" y="50.3487"/>
  <polygon fill="#6dd6ff" points="149.8585,59.6988 153.6085,52.1988 157.3585,59.6988" stroke-width="0" transform=" rotate(0, 153, 55)"/>
  <ellipse cx="175.4881" cy="53.6851" fill="#6dd6ff" rx="3.75" ry="3.75" stroke-width="0" transform=" rotate(0, 175, 53)"/>
  <rect fill="#6dd6ff" height="7.5" stroke-width="0" transform=" rotate(0, 186, 51)" width="7.5" x="182.6384" y="47.4588"/>
  <polygon fill="#6dd6ff" points="195.8913,52.2419 199.6413,44.7419 203.3913,52.2419" stroke-width="0" transform=" rotate(0, 199, 48)"/>
  <ellipse cx="218.3058" cy="52.8863" fill="#6dd6ff" rx="3.75" ry="3.75" stroke-width="0" transform=" rotate(0, 218, 52)"/>
  <rect fill="#6dd6ff" height="7.5" stroke-width="0" transform=" rotate(0, 236, 48)" width="7.5" x="232.8118" y="45.1253"/>
  <polygon fill="#6dd6ff" points="240.6089,57.0812 244.3589,49.5812 248.1089,57.0812" stroke-width="0" transform=" rotate(0, 244, 53)"/>
  <ellipse cx="263.0302" cy="54.5739" fill="#6dd6ff" rx="3.75" ry="3.75" stroke-width="0" transform=" rotate(0, 263, 54)"/>
  <rect fill="#6dd6ff" height="7.5" stroke-width="0" transform=" rotate(0, 279, 51)" width="7.5" x="275.3952" y="47.8963"/>
  <rect fill="#1b9fd8" height="10.5" stroke-width="0" transform=" rotate(0, 49, 70)" width="10.5" x="43.9995" y="64.9268"/>
  <polygon fill="#1b9fd8" points="62.3364,71.2746 67.5864,60.7746 72.8364,71.2746" stroke-width="0" transform=" rotate(0, 67, 66)"/>
  <ellipse cx="84.0178" cy="63.3437" fill="#1b9fd8" rx="5.25" ry="5.25" stroke-width="0" transform=" rotate(0, 84, 63)"/>
  <rect fill="#1b9fd8" height="10.5" stroke-width="0" transform=" rotate(0, 97, 63)" width="10.5" x="91.8893" y="58.0164"/>
  <polygon fill="#1b9fd8" points="104.1165,75.9973 109.3665,65.4973 114.6165,75.9973" stroke-width="0" transform=" rotate(0, 109, 70)"/>
  <ellipse cx="128.8578" cy="69.2629" fill="#1b9fd8" rx="5.25" ry="5.25" stroke-width="0" transform=" rotate(0, 128, 69)"/>
  <rect fill="#1b9fd8" height="10.5" stroke-width="0" transform=" rotate(0, 141, 63)" width="10.5" x="136.6157" y="57.9671"/>
  <polygon fill="#1b9fd8" points="155.7042,73.8651 160.9542,63.3651 166.2042,73.8651" stroke-width="0" transform=" rotate(0, 160, 68)"/>
  <ellipse cx="172.0619" cy="70.7217" fill="#1b9fd8" rx="5.25" ry="5.25" stroke-width="0" transform=" rotate(0, 172, 70)"/>
  <rect fill="#1b9fd8" height="10.5" stroke-width="0" transform=" rotate(0, 188, 65)" width="10.5" x="182.8829" y="59.7648"/>
  <polygon fill="#1b9fd8" points="198.9551,71.2402 204.2051,60.7402 209.4551,71.2402" stroke-width="0" transform=" rotate(0, 204, 65)"/>
  <ellipse cx="215.3413" cy="66.3514" fill="#1b9fd8" rx="5.25" ry="5.25" stroke-width="0" transform=" rotate(0, 215, 66)"/>
  <rect fill="#1b9fd8" height="10.5" stroke-width="0" transform=" rotate(0, 233, 63)" width="10.5" x="228.714" y="58.5938"/>
  <polygon fill="#1b9fd8" points="246.3531,77.0564 251.6031,66.5564 256.8531,77.0564" stroke-width="0" transform=" rotate(0, 251, 71)"/>
  <ellipse cx="258.361" cy="71.8662" fill="#1b9fd8" rx="5.25" ry="5.25" stroke-width="0" transform=" rotate(0, 258, 71)"/>
  <rect fill="#1b9fd8" height="10.5" stroke-width="0" transform=" rotate(0, 276, 64)" width="10.5" x="271.1423" y="58.9853"/>
  <rect fill="#006ca1" height="13.5" stroke-width="0" transform=" rotate(0, 54, 81)" width="13.5" x="47.3116" y="74.687"/>
  <polygon fill="#006ca1" points="60.3217,93.4356 67.0717,79.9356 73.8217,93.4356" stroke-width="0" transform=" rotate(0, 67, 86)"/>
  <ellipse cx="86.5744" cy="86.1466" fill="#006ca1" rx="6.75" ry="6.75" stroke-width="0" transform=" rotate(0, 86, 86)"/>
  <rect fill="#006ca1" height="13.5" stroke-width="0" transform=" rotate(0, 99, 79)" width="13.5" x="92.4675" y="72.471"/>
  <polygon fill="#006ca1" points="105.6523,88.9841 112.4023,75.4841 119.1523,88.9841" stroke-width="0" transform=" rotate(0, 112, 82)"/>
  <ellipse cx="131.3307" cy="81.7667" fill="#006ca1" rx="6.75" ry="6.75" stroke-width="0" transform=" rotate(0, 131, 81)"/>
  <rect fill="#006ca1" height="13.5" stroke-width="0" transform=" rotate(0, 143, 83)" width="13.5" x="137.1152" y="76.7515"/>
  <polygon fill="#006ca1" points="151.7984,89.1597 158.5484,75.6597 165.2984,89.1597" stroke-width="0" transform=" rotate(0, 158, 82)"/>
  <ellipse cx="173.1849" cy="81.3877" fill="#006ca1" rx="6.75" ry="6.75" stroke-width="0" transform=" rotate(0, 173, 81)"/>
  <rect fill="#006ca1" height="13.5" stroke-width="0" transform=" rotate(0, 188, 79)" width="13.5" x="181.7341" y="72.8769"/>
  <polygon fill="#006ca1" points="197.0319,91.3335 203.7819,77.8335 210.5319,91.3335" stroke-width="0" transform=" rotate(0, 203, 84)"/>
  <ellipse cx="221.7224" cy="83.5167" fill="#006ca1" rx="6.75" ry="6.75" stroke-width="0" transform=" rotate(0, 221, 83)"/>
  <rect fill="#006ca1" height="13.5" stroke-width="0" transform=" rotate(0, 230, 78)" width="13.5" x="224.2115" y="71.7251"/>
  <polygon fill="#006ca1" points="244.6047,90.6032 251.3547,77.1032 258.1047,90.6032" stroke-width="0" transform=" rotate(0, 251, 83)"/>
  <ellipse cx="261.2774" cy="86.2953" fill="#006ca1" rx="6.75" ry="6.75" stroke-width="0" transform=" rotate(0, 261, 86)"/>
  <rect fill="#006ca1" height="13.5" stroke-width="0" transform=" rotate(0, 275, 82)" width="13.5" x="268.5402" y="75.9493"/>
  <rect fill="#6dd6ff" height="7.5" stroke-width="0" transform=" rotate(0, 48, 96)" width="7.5" x="44.8012" y="92.9253"/>
  <polygon fill="#6dd6ff" points="67.6365,103.4495 71.3865,95.9495 75.1365,103.4495" stroke-width="0" transform=" rotate(0, 71, 99)"/>
  <ellipse cx="79.1274" cy="99.305" fill="#6dd6ff" rx="3.75" ry="3.75" stroke-width="0" transform=" rotate(0, 79, 99)"/>
  <rect fill="#6dd6ff" height="7.5" stroke-width="0" transform=" rotate(0, 96, 94)" width="7.5" x="92.6269" y="90.9276"/>
  <polygon fill="#6dd6ff" points="112.3065,102.508 116.0565,95.008 119.8065,102.508" stroke-width="0" transform=" rotate(0, 116, 98)"/>
  <ellipse cx="129.6004" cy="100.2542" fill="#6dd6ff" rx="3.75" ry="3.75" stroke-width="0" transform=" rotate(0, 129, 100)"/>
  <rect fill="#6dd6ff" height="7.5" stroke-width="0" transform=" rotate(0, 140, 101)" width="7.5" x="136.4956" y="97.3923"/>
  <polygon fill="#6dd6ff" points="152.3912,99.2585 156.1412,91.7585 159.8912,99.2585" stroke-width="0" transform=" rotate(0, 156, 95)"/>
  <ellipse cx="171.8558" cy="96.1739" fill="#6dd6ff" rx="3.75" ry="3.75" stroke-width="0" transform=" rotate(0, 171, 96)"/>
  <rect fill="#6dd6ff" height="7.5" stroke-width="0" transform=" rotate(0, 185, 94)" width="7.5" x="181.9337" y="90.3852"/>
  <polygon fill="#6dd6ff" points="197.7592,97.4234 201.5092,89.9234 205.2592,97.4234" stroke-width="0" transform=" rotate(0, 201, 93)"/>
  <ellipse cx="215.2699" cy="93.909" fill="#6dd6ff" rx="3.75" ry="3.75" stroke-width="0" transform=" rotate(0, 215, 93)"/>
  <rect fill="#6dd6ff" height="7.5" stroke-width="0" transform=" rotate(0, 228, 101)" width="7.5" x="224.8881" y="97.6276"/>
  <polygon fill="#6dd6ff" points="247.0395,105.5299 250.7895,98.0299 254.5395,105.5299" stroke-width="0" transform=" rotate(0, 250, 101)"/>
  <ellipse cx="258.1577" cy="98.2056" fill="#6dd6ff" rx="3.75" ry="3.75" stroke-width="0" transform=" rotate(0, 258, 98)"/>
  <rect fill="#6dd6ff" height="7.5" stroke-width="0" transform=" rotate(0, 278, 97)" width="7.5" x="275.0894" y="93.6131"/>
  <rect fill="#1b9fd8" height="10.5" stroke-width="0" transform=" rotate(0, 48, 116)" width="10.5" x="43.5209" y="111.1024"/>
  <polygon fill="#1b9fd8" points="61.5724,122.2296 66.8224,111.7296 72.0724,122.2296" stroke-width="0" transform=" rotate(0, 66, 116)"/>
  <ellipse cx="78.6482" cy="114.4907" fill="#1b9fd8" rx="5.25" ry="5.25" stroke-width="0" transform=" rotate(0, 78, 114)"/>
  <rect fill="#1b9fd8" height="10.5" stroke-width="0" transform=" rotate(0, 100, 112)" width="10.5" x="94.8396" y="107.048"/>
  <polygon fill="#1b9fd8" points="107.7027,120.3042 112.9527,109.8042 118.2027,120.3042" stroke-width="0" transform=" rotate(0, 112, 115)"/>
  <ellipse cx="126.041" cy="111.9409" fill="#1b9fd8" rx="5.25" ry="5.25" stroke-width="0" transform=" rotate(0, 126, 111)"/>
  <rect fill="#1b9fd8" height="10.5" stroke-width="0" transform=" rotate(0, 145, 111)" width="10.5" x="140.5492" y="106.396"/>
  <polygon fill="#1b9fd8" points="151.0765,118.4857 156.3265,107.9857 161.5765,118.4857" stroke-width="0" transform=" rotate(0, 156, 113)"/>
  <ellipse cx="169.5796" cy="116.4345" fill="#1b9fd8" rx="5.25" ry="5.25" stroke-width="0" transform=" rotate(0, 169, 116)"/>
  <rect fill="#1b9fd8" height="10.5" stroke-width="0" transform=" rotate(0, 187, 112)" width="10.5" x="181.9889" y="106.9788"/>
  <polygon fill="#1b9fd8" points="198.476,118.3889 203.726,107.8889 208.976,118.3889" stroke-width="0" transform=" rotate(0, 203, 113)"/>
  <ellipse cx="214.4642" cy="111.1841" fill="#1b9fd8" rx="5.25" ry="5.25" stroke-width="0" transform=" rotate(0, 214, 111)"/>
  <rect fill="#1b9fd8" height="10.5" stroke-width="0" transform=" rotate(0, 231, 109)" width="10.5" x="226.1489" y="103.8889"/>
  <polygon fill="#1b9fd8" points="239.2922,120.4483 244.5422,109.9483 249.7922,120.4483" stroke-width="0" transform=" rotate(0, 244, 115)"/>
  <ellipse cx="259.3833" cy="112.7767" fill="#1b9fd8" rx="5.25" ry="5.25" stroke-width="0" transform=" rotate(0, 259, 112)"/>
  <rect fill="#1b9fd8" height="10.5" stroke-width="0" transform=" rotate(0, 278, 108)" width="10.5" x="273.1955" y="103.6205"/>
  <rect fill="#006ca1" height="13.5" stroke-width="0" transform=" rotate(0, 54, 127)" width="13.5" x="47.4663" y="120.4499"/>
  <polygon fill="#006ca1" points="56.2455,138.6933 62.9955,125.1933 69.7455,138.6933" stroke-width="0" transform=" rotate(0, 62, 131)"/>
  <ellipse cx="80.1605" cy="124.7207" fill="#006ca1" rx="6.75" ry="6.75" stroke-width="0" transform=" rotate(0, 80, 124)"/>
  <rect fill="#006ca1" height="13.5" stroke-width="0" transform=" rotate(0, 93, 130)" width="13.5" x="87.1117" y="124.1805"/>
  <polygon fill="#006ca1" points="108.2144,132.8497 114.9644,119.3497 121.7144,132.8497" stroke-width="0" transform=" rotate(0, 114, 126)"/>
  <ellipse cx="131.8462" cy="123.8376" fill="#006ca1" rx="6.75" ry="6.75" stroke-width="0" transform=" rotate(0, 131, 123)"/>
  <rect fill="#006ca1" height="13.5" stroke-width="0" transform=" rotate(0, 139, 125)" width="13.5" x="132.4033" y="119.2211"/>
  <polygon fill="#006ca1" points="151.9672,135.7775 158.7172,122.2775 165.4672,135.7775" stroke-width="0" transform=" rotate(0, 158, 129)"/>
  <ellipse cx="175.098" cy="130.5861" fill="#006ca1" rx="6.75" ry="6.75" stroke-width="0" transform=" rotate(0, 175, 130)"/>
  <rect fill="#006ca1" height="13.5" stroke-width="0" transform=" rotate(0, 183, 124)" width="13.5" x="177.0052" y="118.0617"/>
  <polygon fill="#006ca1" points="194.3427,137.546 201.0927,124.046 207.8427,137.546" stroke-width="0" transform=" rotate(0, 201, 130)"/>
  <ellipse cx="216.1974" cy="125.8262" fill="#006ca1" rx="6.75" ry="6.75" stroke-width="0" transform=" rotate(0, 216, 125)"/>
  <rect fill="#006ca1" height="13.5" stroke-width="0" transform=" rotate(0, 229, 124)" width="13.5" x="222.3394" y="117.2727"/>
  <polygon fill="#006ca1" points="236.6596,138.0013 243.4096,124.5013 250.1596,138.0013" stroke-width="0" transform=" rotate(0, 243, 131)"/>
  <ellipse cx="259.6451" cy="124.2937" fill="#006ca1" rx="6.75" ry="6.75" stroke-width="0" transform=" rotate(0, 259, 124)"/>
  <rect fill="#006ca1" height="13.5" stroke-width="0" transform=" rotate(0, 276, 129)" width="13.5" x="269.4538" y="123.1141"/>
  <rect fill="#6dd6ff" height="7.5" stroke-width="0" transform=" rotate(0, 51, 139)" width="7.5" x="47.5932" y="135.7805"/>
  <polygon fill="#6dd6ff" points="61.1119,143.83 64.8619,136.33 68.6119,143.83" stroke-width="0" transform=" rotate(0, 64, 140)"/>
  <ellipse cx="84.1623" cy="141.5766" fill="#6dd6ff" rx="3.75" ry="3.75" stroke-width="0" transform=" rotate(0, 84, 141)"/>
  <rect fill="#6dd6ff" height="7.5" stroke-width="0" transform=" rotate(0, 96, 143)" width="7.5" x="92.3595" y="140.1277"/>
  <polygon fill="#6dd6ff" points="112.8578,145.5213 116.6078,138.0213 120.3578,145.5213" stroke-width="0" transform=" rotate(0, 116, 141)"/>
  <ellipse cx="128.1326" cy="144.3192" fill="#6dd6ff" rx="3.75" ry="3.75" stroke-width="0" transform=" rotate(0, 128, 144)"/>
  <rect fill="#6dd6ff" height="7.5" stroke-width="0" transform=" rotate(0, 145, 143)" width="7.5" x="142.0574" y="139.3354"/>
  <polygon fill="#6dd6ff" points="150.3001,142.6547 154.0501,135.1547 157.8001,142.6547" stroke-width="0" transform=" rotate(0, 154, 138)"/>
  <ellipse cx="171.1715" cy="140.4078" fill="#6dd6ff" rx="3.75" ry="3.75" stroke-width="0" transform=" rotate(0, 171, 140)"/>
  <rect fill="#6dd6ff" height="7.5" stroke-width="0" transform=" rotate(0, 191, 138)" width="7.5" x="187.2739" y="134.679"/>
  <polygon fill="#6dd6ff" points="197.4594,148.8643 201.2094,141.3643 204.9594,148.8643" stroke-width="0" transform=" rotate(0, 201, 145)"/>
  <ellipse cx="213.8547" cy="142.2732" fill="#6dd6ff" rx="3.75" ry="3.75" stroke-width="0" transform=" rotate(0, 213, 142)"/>
  <rect fill="#6dd6ff" height="7.5" stroke-width="0" transform=" rotate(0, 231, 143)" width="7.5" x="227.4358" y="139.3039"/>
  <polygon fill="#6dd6ff" points="244.9956,149.5338 248.7456,142.0338 252.4956,149.5338" stroke-width="0" transform=" rotate(0, 248, 145)"/>
  <ellipse cx="261.407" cy="138.079" fill="#6dd6ff" rx="3.75" ry="3.75" stroke-width="0" transform=" rotate(0, 261, 138)"/>
  <rect fill="#6dd6ff" height="7.5" stroke-width="0" transform=" rotate(0, 281, 141)" width="7.5" x="277.5714" y="137.3177"/>
  <rect fill="#1b9fd8" height="10.5" stroke-width="0" transform=" rotate(0, 49, 153)" width="10.5" x="44.4089" y="148.0732"/>
  <polygon fill="#1b9fd8" points="59.827,159.7509 65.077,149.2509 70.327,159.7509" stroke-width="0" transform=" rotate(0, 65, 154)"/>
  <ellipse cx="86.6333" cy="157.801" fill="#1b9fd8" rx="5.25" ry="5.25" stroke-width="0" transform=" rotate(0, 86, 157)"/>
  <rect fill="#1b9fd8" height="10.5" stroke-width="0" transform=" rotate(0, 95, 157)" width="10.5" x="90.0465" y="151.8651"/>
  <polygon fill="#1b9fd8" points="109.964,158.5364 115.214,148.0364 120.464,158.5364" stroke-width="0" transform=" rotate(0, 115, 153)"/>
  <ellipse cx="123.7192" cy="161.2228" fill="#1b9fd8" rx="5.25" ry="5.25" stroke-width="0" transform=" rotate(0, 123, 161)"/>
  <rect fill="#1b9fd8" height="10.5" stroke-width="0" transform=" rotate(0, 138, 161)" width="10.5" x="133.6061" y="156.5154"/>
  <polygon fill="#1b9fd8" points="150.3304,158.5076 155.5804,148.0076 160.8304,158.5076" stroke-width="0" transform=" rotate(0, 155, 153)"/>
  <ellipse cx="175.7727" cy="161.2726" fill="#1b9fd8" rx="5.25" ry="5.25" stroke-width="0" transform=" rotate(0, 175, 161)"/>
  <rect fill="#1b9fd8" height="10.5" stroke-width="0" transform=" rotate(0, 190, 158)" width="10.5" x="185.7334" y="153.3638"/>
  <polygon fill="#1b9fd8" points="200.4822,162.9654 205.7322,152.4654 210.9822,162.9654" stroke-width="0" transform=" rotate(0, 205, 157)"/>
  <ellipse cx="220.9395" cy="153.1643" fill="#1b9fd8" rx="5.25" ry="5.25" stroke-width="0" transform=" rotate(0, 220, 153)"/>
  <rect fill="#1b9fd8" height="10.5" stroke-width="0" transform=" rotate(0, 228, 156)" width="10.5" x="223.3846" y="151.1808"/>
  <polygon fill="#1b9fd8" points="240.9931,159.1748 246.2431,148.6748 251.4931,159.1748" stroke-width="0" transform=" rotate(0, 246, 153)"/>
  <ellipse cx="264.0005" cy="159.0231" fill="#1b9fd8" rx="5.25" ry="5.25" stroke-width="0" transform=" rotate(0, 264, 159)"/>
  <rect fill="#1b9fd8" height="10.5" stroke-width="0" transform=" rotate(0, 279, 158)" width="10.5" x="274.5904" y="153.4193"/>
  <rect fill="#1b9fd8" height="10.5" stroke-width="0" transform=" rotate(0, 54, 168)" width="10.5" x="49.4409" y="163.2749"/>
  <polygon fill="#1b9fd8" points="61.693,175.9023 66.943,165.4023 72.193,175.9023" stroke-width="0" transform=" rotate(0, 66, 170)"/>
  <ellipse cx="84.5382" cy="169.7116" fill="#1b9fd8" rx="5.25" ry="5.25" stroke-width="0" transform=" rotate(0, 84, 169)"/>
  <rect fill="#1b9fd8" height="10.5" stroke-width="0" transform=" rotate(0, 99, 171)" width="10.5" x="94.2988" y="166.5717"/>
  <polygon fill="#1b9fd8" points="110.9714,179.5194 116.2214,169.0194 121.4714,179.5194" stroke-width="0" transform=" rotate(0, 116, 174)"/>
  <ellipse cx="123.1294" cy="175.5053" fill="#1b9fd8" rx="5.25" ry="5.25" stroke-width="0" transform=" rotate(0, 123, 175)"/>
  <rect fill="#1b9fd8" height="10.5" stroke-width="0" transform=" rotate(0, 144, 175)" width="10.5" x="139.5736" y="170.3828"/>
  <polygon fill="#1b9fd8" points="154.1247,175.5604 159.3747,165.0604 164.6247,175.5604" stroke-width="0" transform=" rotate(0, 159, 170)"/>
  <ellipse cx="173.6657" cy="173.1745" fill="#1b9fd8" rx="5.25" ry="5.25" stroke-width="0" transform=" rotate(0, 173, 173)"/>
  <rect fill="#1b9fd8" height="10.5" stroke-width="0" transform=" rotate(0, 188, 171)" width="10.5" x="182.9841" y="166.5915"/>
  <polygon fill="#1b9fd8" points="194.6007,178.0098 199.8507,167.5098 205.1007,178.0098" stroke-width="0" transform=" rotate(0, 199, 172)"/>
  <ellipse cx="220.247" cy="173.8006" fill="#1b9fd8" rx="5.25" ry="5.25" stroke-width="0" transform=" rotate(0, 220, 173)"/>
  <rect fill="#1b9fd8" height="10.5" stroke-width="0" transform=" rotate(0, 234, 169)" width="10.5" x="229.3641" y="164.1607"/>
  <polygon fill="#1b9fd8" points="239.2915,181.7958 244.5415,171.2958 249.7915,181.7958" stroke-width="0" transform=" rotate(0, 244, 176)"/>
  <ellipse cx="258.8314" cy="175.2115" fill="#1b9fd8" rx="5.25" ry="5.25" stroke-width="0" transform=" rotate(0, 258, 175)"/>
  <rect fill="#1b9fd8" height="10.5" stroke-width="0" transform=" rotate(0, 281, 170)" width="10.5" x="275.8805" y="165.1503"/>
  <rect fill="#6dd6ff" height="7.5" stroke-width="0" transform=" rotate(0, 49, 186)" width="7.5" x="46.1739" y="182.3801"/>
  <polygon fill="#6dd6ff" points="59.9547,192.8847 63.7047,185.3847 67.4547,192.8847" stroke-width="0" transform=" rotate(0, 63, 189)"/>
  <ellipse cx="77.9741" cy="191.9736" fill="#6dd6ff" rx="3.75" ry="3.75" stroke-width="0" transform=" rotate(0, 77, 191)"/>
  <rect fill="#6dd6ff" height="7.5" stroke-width="0" transform=" rotate(0, 98, 184)" width="7.5" x="94.992" y="180.6833"/>
  <polygon fill="#6dd6ff" points="104.6146,195.5351 108.3646,188.0351 112.1146,195.5351" stroke-width="0" transform=" rotate(0, 108, 191)"/>
  <ellipse cx="124.6569" cy="190.9402" fill="#6dd6ff" rx="3.75" ry="3.75" stroke-width="0" transform=" rotate(0, 124, 190)"/>
  <rect fill="#6dd6ff" height="7.5" stroke-width="0" transform=" rotate(0, 144, 183)" width="7.5" x="140.7104" y="180.1507"/>
  <polygon fill="#6dd6ff" points="155.1777,191.3716 158.9277,183.8716 162.6777,191.3716" stroke-width="0" transform=" rotate(0, 158, 187)"/>
  <ellipse cx="173.8521" cy="188.774" fill="#6dd6ff" rx="3.75" ry="3.75" stroke-width="0" transform=" rotate(0, 173, 188)"/>
  <rect fill="#6dd6ff" height="7.5" stroke-width="0" transform=" rotate(0, 191, 191)" width="7.5" x="187.7233" y="187.6004"/>
  <polygon fill="#6dd6ff" points="199.9169,193.6376 203.6669,186.1376 207.4169,193.6376" stroke-width="0" transform=" rotate(0, 203, 189)"/>
  <ellipse cx="219.2752" cy="187.6963" fill="#6dd6ff" rx="3.75" ry="3.75" stroke-width="0" transform=" rotate(0, 219, 187)"/>
  <rect fill="#6dd6ff" height="7.5" stroke-width="0" transform=" rotate(0, 231, 185)" width="7.5" x="227.8728" y="181.4544"/>
  <polygon fill="#6dd6ff" points="246.1615,192.5635 249.9115,185.0635 253.6615,192.5635" stroke-width="0" transform=" rotate(0, 249, 188)"/>
  <ellipse cx="260.6471" cy="184.5798" fill="#6dd6ff" rx="3.75" ry="3.75" stroke-width="0" transform=" rotate(0, 260, 184)"/>
  <rect fill="#6dd6ff" height="7.5" stroke-width="0" transform=" rotate(0, 281, 185)" width="7.5" x="277.6664" y="182.102"/>
  <rect fill="#006ca1" height="13.5" stroke-width="0" transform=" rotate(0, 52, 201)" width="13.5" x="45.7684" y="194.8406"/>
  <polygon fill="#006ca1" points="58.9305,209.1056 65.6805,195.6056 72.4305,209.1056" stroke-width="0" transform=" rotate(0, 65, 202)"/>
  <ellipse cx="86.1223" cy="200.3173" fill="#006ca1" rx="6.75" ry="6.75" stroke-width="0" transform=" rotate(0, 86, 200)"/>
  <rect fill="#006ca1" height="13.5" stroke-width="0" transform=" rotate(0, 101, 202)" width="13.5" x="94.5587" y="195.2894"/>
  <polygon fill="#006ca1" points="109.2937,211.6598 116.0437,198.1598 122.7937,211.6598" stroke-width="0" transform=" rotate(0, 116, 204)"/>
  <ellipse cx="124.3037" cy="200.2112" fill="#006ca1" rx="6.75" ry="6.75" stroke-width="0" transform=" rotate(0, 124, 200)"/>
  <rect fill="#006ca1" height="13.5" stroke-width="0" transform=" rotate(0, 141, 205)" width="13.5" x="134.8663" y="198.7845"/>
  <polygon fill="#006ca1" points="152.896,213.4368 159.646,199.9368 166.396,213.4368" stroke-width="0" transform=" rotate(0, 159, 206)"/>
  <ellipse cx="173.6664" cy="204.7142" fill="#006ca1" rx="6.75" ry="6.75" stroke-width="0" transform=" rotate(0, 173, 204)"/>
  <rect fill="#006ca1" height="13.5" stroke-width="0" transform=" rotate(0, 187, 200)" width="13.5" x="180.5607" y="193.6609"/>
  <polygon fill="#006ca1" points="199.2142,209.1253 205.9642,195.6253 212.7142,209.1253" stroke-width="0" transform=" rotate(0, 205, 202)"/>
  <ellipse cx="214.6885" cy="204.4739" fill="#006ca1" rx="6.75" ry="6.75" stroke-width="0" transform=" rotate(0, 214, 204)"/>
  <rect fill="#006ca1" height="13.5" stroke-width="0" transform=" rotate(0, 231, 199)" width="13.5" x="224.5123" y="192.6238"/>
  <polygon fill="#006ca1" points="243.7619,212.1319 250.5119,198.6319 257.2619,212.1319" stroke-width="0" transform=" rotate(0, 250, 205)"/>
  <ellipse cx="264.1087" cy="199.707" fill="#006ca1" rx="6.75" ry="6.75" stroke-width="0" transform=" rotate(0, 264, 199)"/>
  <rect fill="#006ca1" height="13.5" stroke-width="0" transform=" rotate(0, 281, 198)" width="13.5" x="274.8702" y="191.9993"/>
  <rect fill="#1b9fd8" height="10.5" stroke-width="0" transform=" rotate(0, 53, 221)" width="10.5" x="48.0765" y="216.1972"/>
  <polygon fill="#1b9fd8" points="62.8755,224.2159 68.1255,213.7159 73.3755,224.2159" stroke-width="0" transform=" rotate(0, 68, 218)"/>
  <ellipse cx="82.0904" cy="216.5304" fill="#1b9fd8" rx="5.25" ry="5.25" stroke-width="0" transform=" rotate(0, 82, 216)"/>
  <rect fill="#1b9fd8" height="10.5" stroke-width="0" transform=" rotate(0, 99, 221)" width="10.5" x="94.5364" y="215.8979"/>
  <polygon fill="#1b9fd8" points="102.7773,225.5496 108.0273,215.0496 113.2773,225.5496" stroke-width="0" transform=" rotate(0, 108, 220)"/>
  <ellipse cx="124.5991" cy="221.7059" fill="#1b9fd8" rx="5.25" ry="5.25" stroke-width="0" transform=" rotate(0, 124, 221)"/>
  <rect fill="#1b9fd8" height="10.5" stroke-width="0" transform=" rotate(0, 139, 218)" width="10.5" x="134.7164" y="213.094"/>
  <polygon fill="#1b9fd8" points="152.3292,225.185 157.5792,214.685 162.8292,225.185" stroke-width="0" transform=" rotate(0, 157, 219)"/>
  <ellipse cx="176.6995" cy="219.5901" fill="#1b9fd8" rx="5.25" ry="5.25" stroke-width="0" transform=" rotate(0, 176, 219)"/>
  <rect fill="#1b9fd8" height="10.5" stroke-width="0" transform=" rotate(0, 186, 213)" width="10.5" x="180.9853" y="208.4494"/>
  <polygon fill="#1b9fd8" points="199.3693,222.7518 204.6193,212.2518 209.8693,222.7518" stroke-width="0" transform=" rotate(0, 204, 217)"/>
  <ellipse cx="218.0521" cy="219.7608" fill="#1b9fd8" rx="5.25" ry="5.25" stroke-width="0" transform=" rotate(0, 218, 219)"/>
  <rect fill="#1b9fd8" height="10.5" stroke-width="0" transform=" rotate(0, 236, 213)" width="10.5" x="231.1885" y="208.5499"/>
  <polygon fill="#1b9fd8" points="244.1493,226.5163 249.3993,216.0163 254.6493,226.5163" stroke-width="0" transform=" rotate(0, 249, 221)"/>
  <ellipse cx="266.4874" cy="216.7718" fill="#1b9fd8" rx="5.25" ry="5.25" stroke-width="0" transform=" rotate(0, 266, 216)"/>
  <rect fill="#1b9fd8" height="10.5" stroke-width="0" transform=" rotate(0, 281, 219)" width="10.5" x="276.3362" y="214.3935"/>
  <rect fill="#6dd6ff" height="7.5" stroke-width="0" transform=" rotate(0, 51, 230)" width="7.5" x="47.6069" y="226.6925"/>
  <polygon fill="#6dd6ff" points="65.6127,237.2718 69.3627,229.7718 73.1127,237.2718" stroke-width="0" transform=" rotate(0, 69, 233)"/>
  <ellipse cx="82.5824" cy="236.5794" fill="#6dd6ff" rx="3.75" ry="3.75" stroke-width="0" transform=" rotate(0, 82, 236)"/>
  <rect fill="#6dd6ff" height="7.5" stroke-width="0" transform=" rotate(0, 97, 232)" width="7.5" x="94.0051" y="228.7371"/>
  <polygon fill="#6dd6ff" points="113.0197,238.9331 116.7697,231.4331 120.5197,238.9331" stroke-width="0" transform=" rotate(0, 116, 235)"/>
  <ellipse cx="127.9902" cy="228.7568" fill="#6dd6ff" rx="3.75" ry="3.75" stroke-width="0" transform=" rotate(0, 127, 228)"/>
  <rect fill="#6dd6ff" height="7.5" stroke-width="0" transform=" rotate(0, 144, 236)" width="7.5" x="141.113" y="232.6061"/>
  <polygon fill="#6dd6ff" points="153.4461,234.7542 157.1961,227.2542 160.9461,234.7542" stroke-width="0" transform=" rotate(0, 157, 231)"/>
  <ellipse cx="173.1516" cy="230.1805" fill="#6dd6ff" rx="3.75" ry="3.75" stroke-width="0" transform=" rotate(0, 173, 230)"/>
  <rect fill="#6dd6ff" height="7.5" stroke-width="0" transform=" rotate(0, 186, 228)" width="7.5" x="182.325" y="224.8127"/>
  <polygon fill="#6dd6ff" points="198.5664,233.8887 202.3164,226.3887 206.0664,233.8887" stroke-width="0" transform=" rotate(0, 202, 230)"/>
  <ellipse cx="214.7844" cy="229.1674" fill="#6dd6ff" rx="3.75" ry="3.75" stroke-width="0" transform=" rotate(0, 214, 229)"/>
  <rect fill="#6dd6ff" height="7.5" stroke-width="0" transform=" rotate(0, 231, 228)" width="7.5" x="227.8324" y="225.0927"/>
  <polygon fill="#6dd6ff" points="245.8022,232.1427 249.5522,224.6427 253.3022,232.1427" stroke-width="0" transform=" rotate(0, 249, 228)"/>
  <ellipse cx="264.8825" cy="228.0569" fill="#6dd6ff" rx="3.75" ry="3.75" stroke-width="0" transform=" rotate(0, 264, 228)"/>
  <rect fill="#6dd6ff" height="7.5" stroke-width="0" transform=" rotate(0, 274, 232)" width="7.5" x="270.619" y="228.8579"/>
  <rect fill="#006ca1" height="13.5" stroke-width="0" transform=" rotate(0, 50, 250)" width="13.5" x="43.9774" y="243.6098"/>
  <polygon fill="#006ca1" points="61.9987,257.4464 68.7487,243.9464 75.4987,257.4464" stroke-width="0" transform=" rotate(0, 68, 250)"/>
  <ellipse cx="86.4106" cy="245.6237" fill="#006ca1" rx="6.75" ry="6.75" stroke-width="0" transform=" rotate(0, 86, 245)"/>
  <rect fill="#006ca1" height="13.5" stroke-width="0" transform=" rotate(0, 94, 250)" width="13.5" x="88.0531" y="243.3443"/>
  <polygon fill="#006ca1" points="109.103,255.0379 115.853,241.5379 122.603,255.0379" stroke-width="0" transform=" rotate(0, 115, 248)"/>
  <ellipse cx="125.7228" cy="243.9414" fill="#006ca1" rx="6.75" ry="6.75" stroke-width="0" transform=" rotate(0, 125, 243)"/>
  <rect fill="#006ca1" height="13.5" stroke-width="0" transform=" rotate(0, 143, 245)" width="13.5" x="136.5815" y="238.8189"/>
  <polygon fill="#006ca1" points="147.462,256.6164 154.212,243.1164 160.962,256.6164" stroke-width="0" transform=" rotate(0, 154, 249)"/>
  <ellipse cx="169.0777" cy="244.2036" fill="#006ca1" rx="6.75" ry="6.75" stroke-width="0" transform=" rotate(0, 169, 244)"/>
  <rect fill="#006ca1" height="13.5" stroke-width="0" transform=" rotate(0, 187, 248)" width="13.5" x="181.1482" y="241.5597"/>
  <polygon fill="#006ca1" points="198.4741,250.8576 205.2241,237.3576 211.9741,250.8576" stroke-width="0" transform=" rotate(0, 205, 244)"/>
  <ellipse cx="217.9316" cy="245.8669" fill="#006ca1" rx="6.75" ry="6.75" stroke-width="0" transform=" rotate(0, 217, 245)"/>
  <rect fill="#006ca1" height="13.5" stroke-width="0" transform=" rotate(0, 230, 247)" width="13.5" x="223.256" y="240.7842"/>
  <polygon fill="#006ca1" points="239.0601,250.536 245.8101,237.036 252.5601,250.536" stroke-width="0" transform=" rotate(0, 245, 243)"/>
  <ellipse cx="260.1016" cy="251.8328" fill="#006ca1" rx="6.75" ry="6.75" stroke-width="0" transform=" rotate(0, 260, 251)"/>
  <rect fill="#006ca1" height="13.5" stroke-width="0" transform=" rotate(0, 276, 248)" width="13.5" x="269.8051" y="242.1672"/>
  <rect fill="#1b9fd8" height="10.5" stroke-width="0" transform=" rotate(0, 56, 259)" width="10.5" x="50.9395" y="254.3787"/>
  <polygon fill="#1b9fd8" points="61.2255,264.0506 66.4755,253.5506 71.7255,264.0506" stroke-width="0" transform=" rotate(0, 66, 258)"/>
  <ellipse cx="83.4184" cy="262.958" fill="#1b9fd8" rx="5.25" ry="5.25" stroke-width="0" transform=" rotate(0, 83, 262)"/>
  <rect fill="#1b9fd8" height="10.5" stroke-width="0" transform=" rotate(0, 96, 262)" width="10.5" x="91.5779" y="256.9015"/>
  <polygon fill="#1b9fd8" points="105.4369,266.2425 110.6869,255.7425 115.9369,266.2425" stroke-width="0" transform=" rotate(0, 110, 260)"/>
  <ellipse cx="122.8962" cy="263.9475" fill="#1b9fd8" rx="5.25" ry="5.25" stroke-width="0" transform=" rotate(0, 122, 263)"/>
  <rect fill="#1b9fd8" height="10.5" stroke-width="0" transform=" rotate(0, 141, 266)" width="10.5" x="136.2957" y="260.9386"/>
  <polygon fill="#1b9fd8" points="154.8199,266.7909 160.0699,256.2909 165.3199,266.7909" stroke-width="0" transform=" rotate(0, 160, 261)"/>
  <ellipse cx="168.3527" cy="259.7371" fill="#1b9fd8" rx="5.25" ry="5.25" stroke-width="0" transform=" rotate(0, 168, 259)"/>
  <rect fill="#1b9fd8" height="10.5" stroke-width="0" transform=" rotate(0, 191, 264)" width="10.5" x="185.9637" y="258.7763"/>
  <polygon fill="#1b9fd8" points="196.7251,265.3871 201.9751,254.8871 207.2251,265.3871" stroke-width="0" transform=" rotate(0, 201, 260)"/>
  <ellipse cx="218.6832" cy="260.4601" fill="#1b9fd8" rx="5.25" ry="5.25" stroke-width="0" transform=" rotate(0, 218, 260)"/>
  <rect fill="#1b9fd8" height="10.5" stroke-width="0" transform=" rotate(0, 232, 263)" width="10.5" x="227.7042" y="258.3811"/>
  <polygon fill="#1b9fd8" points="241.5801,271.8567 246.8301,261.3567 252.0801,271.8567" stroke-width="0" transform=" rotate(0, 246, 266)"/>
  <ellipse cx="265.703" cy="257.9946" fill="#1b9fd8" rx="5.25" ry="5.25" stroke-width="0" transform=" rotate(0, 265, 257)"/>
  <rect fill="#1b9fd8" height="10.5" stroke-width="0" transform=" rotate(0, 273, 264)" width="10.5" x="268.0685" y="259.5702"/>
  <rect fill="#6dd6ff" height="7.5" stroke-width="0" transform=" rotate(0, 56, 281)" width="7.5" x="52.9606" y="277.8905"/>
  <polygon fill="#6dd6ff" points="63.299,282.3308 67.049,274.8308 70.799,282.3308" stroke-width="0" transform=" rotate(0, 67, 278)"/>
  <ellipse cx="81.3335" cy="280.2285" fill="#6dd6ff" rx="3.75" ry="3.75" stroke-width="0" transform=" rotate(0, 81, 280)"/>
  <rect fill="#6dd6ff" height="7.5" stroke-width="0" transform=" rotate(0, 95, 277)" width="7.5" x="91.367" y="273.4375"/>
  <polygon fill="#6dd6ff" points="111.9482,284.4234 115.6982,276.9234 119.4482,284.4234" stroke-width="0" transform=" rotate(0, 115, 280)"/>
  <ellipse cx="124.8242" cy="279.2929" fill="#6dd6ff" rx="3.75" ry="3.75" stroke-width="0" transform=" rotate(0, 124, 279)"/>
  <rect fill="#6dd6ff" height="7.5" stroke-width="0" transform=" rotate(0, 142, 279)" width="7.5" x="139.1991" y="275.4211"/>
  <polygon fill="#6dd6ff" points="156.1129,277.005 159.8629,269.505 163.6129,277.005" stroke-width="0" transform=" rotate(0, 159, 273)"/>
  <ellipse cx="175.2665" cy="280.8266" fill="#6dd6ff" rx="3.75" ry="3.75" stroke-width="0" transform=" rotate(0, 175, 280)"/>
  <rect fill="#6dd6ff" height="7.5" stroke-width="0" transform=" rotate(0, 186, 275)" width="7.5" x="182.976" y="271.3382"/>
  <polygon fill="#6dd6ff" points="200.5293,285.6751 204.2793,278.1751 208.0293,285.6751" stroke-width="0" transform=" rotate(0, 204, 281)"/>
  <ellipse cx="215.8716" cy="274.3426" fill="#6dd6ff" rx="3.75" ry="3.75" stroke-width="0" transform=" rotate(0, 215, 274)"/>
  <rect fill="#6dd6ff" height="7.5" stroke-width="0" transform=" rotate(0, 229, 279)" width="7.5" x="226.2367" y="275.9683"/>
  <polygon fill="#6dd6ff" points="242.1849,277.7924 245.9349,270.2924 249.6849,277.7924" stroke-width="0" transform=" rotate(0, 245, 274)"/>
  <ellipse cx="259.3716" cy="277.368" fill="#6dd6ff" rx="3.75" ry="3.75" stroke-width="0" transform=" rotate(0, 259, 277)"/>
  <rect fill="#6dd6ff" height="7.5" stroke-width="0" transform=" rotate(0, 274, 275)" width="7.5" x="270.3586" y="271.7553"/>
</svg>
