<?xml version="1.0" encoding="utf-8" ?>
<svg baseProfile="tiny" height="330" version="1.2" width="330" xmlns="http://www.w3.org/2000/svg" xmlns:ev="http://www.w3.org/2001/xml-events" xmlns:xlink="http://www.w3.org/1999/xlink">
  <defs/>
  <rect fill="white" height="330" width="330" x="0" y="0"/>
  <rect fill="#6dd6ff" height="7.5" stroke-width="0" transform=" rotate(0, 50, 52)" width="7.5" x="46.8888" y="48.2506"/>
  <polygon fill="#6dd6ff" points="63.4341,58.0967 67.1841,50.5967 70.9341,58.0967" stroke-width="0" transform=" rotate(0, 67, 54)"/>
  <ellipse cx="83.3921" cy="51.0473" fill="#6dd6ff" rx="3.75" ry="3.75" stroke-width="0" transform=" rotate(0, 83, 51)"/>
  <rect fill="#6dd6ff" height="7.5" stroke-width="0" transform=" rotate(0, 95, 53)" width="7.5" x="91.7304" y="50.1854"/>
  <polygon fill="#6dd6ff" points="110.4387,56.0716 114.1887,48.5716 117.9387,56.0716" stroke-width="0" transform=" rotate(0, 114, 52)"/>
  <ellipse cx="128.3906" cy="51.2966" fill="#6dd6ff" rx="3.75" ry="3.75" stroke-width="0" transform=" rotate(0, 128, 51)"/>
  <rect fill="#6dd6ff" height="7.5" stroke-width="0" transform=" rotate(0, 142, 53)" width="7.5" x="138.7438" y="49.5354"/>
  <polygon fill="#6dd6ff" points="151.7658,57.9604 155.5158,50.4604 159.2658,57.9604" stroke-width="0" transform=" rotate(0, 155, 54)"/>
  <ellipse cx="173.9556" cy="53.0785" fill="#6dd6ff" rx="3.75" ry="3.75" stroke-width="0" transform=" rotate(0, 173, 53)"/>
  <rect fill="#6dd6ff" height="7.5" stroke-width="0" transform=" rotate(0, 186, 51)" width="7.5" x="183.1557" y="48.0904"/>
  <polygon fill="#6dd6ff" points="197.2822,54.2319 201.0322,46.7319 204.7822,54.2319" stroke-width="0" transform=" rotate(0, 201, 50)"/>
  <ellipse cx="217.8644" cy="52.6792" fill="#6dd6ff" rx="3.75" ry="3.75" stroke-width="0" transform=" rotate(0, 217, 52)"/>
  <rect fill="#6dd6ff" height="7.5" stroke-width="0" transform=" rotate(0, 234, 50)" width="7.5" x="230.7425" y="46.9236"/>
  <polygon fill="#6dd6ff" points="242.141,56.6516 245.891,49.1516 249.641,56.6516" stroke-width="0" transform=" rotate(0, 245, 52)"/>
  <ellipse cx="262.7267" cy="53.5229" fill="#6dd6ff" rx="3.75" ry="3.75" stroke-width="0" transform=" rotate(0, 262, 53)"/>
  <rect fill="#6dd6ff" height="7.5" stroke-width="0" transform=" rotate(0, 278, 52)" width="7.5" x="274.5342" y="48.3091"/>
  <rect fill="#1b9fd8" height="10.5" stroke-width="0" transform=" rotate(0, 50, 69)" width="10.5" x="44.9599" y="64.1116"/>
  <polygon fill="#1b9fd8" points="62.2957,71.7051 67.5457,61.2051 72.7957,71.7051" stroke-width="0" transform=" rotate(0, 67, 66)"/>
  <ellipse cx="83.5477" cy="64.5785" fill="#1b9fd8" rx="5.25" ry="5.25" stroke-width="0" transform=" rotate(0, 83, 64)"/>
  <rect fill="#1b9fd8" height="10.5" stroke-width="0" transform=" rotate(0, 97, 64)" width="10.5" x="91.9827" y="59.2743"/>
  <polygon fill="#1b9fd8" points="105.0418,75.011 110.2918,64.511 115.5418,75.011" stroke-width="0" transform=" rotate(0, 110, 69)"/>
  <ellipse cx="128.4357" cy="68.7219" fill="#1b9fd8" rx="5.25" ry="5.25" stroke-width="0" transform=" rotate(0, 128, 68)"/>
  <rect fill="#1b9fd8" height="10.5" stroke-width="0" transform=" rotate(0, 142, 64)" width="10.5" x="136.7912" y="59.2399"/>
  <polygon fill="#1b9fd8" points="154.6531,73.5184 159.9031,63.0184 165.1531,73.5184" stroke-width="0" transform=" rotate(0, 159, 68)"/>
  <ellipse cx="172.1786" cy="69.7431" fill="#1b9fd8" rx="5.25" ry="5.25" stroke-width="0" transform=" rotate(0, 172, 69)"/>
  <rect fill="#1b9fd8" height="10.5" stroke-width="0" transform=" rotate(0, 187, 65)" width="10.5" x="182.6782" y="60.4982"/>
  <polygon fill="#1b9fd8" points="198.4288,71.681 203.6788,61.181 208.9288,71.681" stroke-width="0" transform=" rotate(0, 203, 66)"/>
  <ellipse cx="215.9741" cy="66.6839" fill="#1b9fd8" rx="5.25" ry="5.25" stroke-width="0" transform=" rotate(0, 215, 66)"/>
  <rect fill="#1b9fd8" height="10.5" stroke-width="0" transform=" rotate(0, 233, 64)" width="10.5" x="228.2601" y="59.6785"/>
  <polygon fill="#1b9fd8" points="245.1074,75.7523 250.3574,65.2523 255.6074,75.7523" stroke-width="0" transform=" rotate(0, 250, 70)"/>
  <ellipse cx="259.5879" cy="70.5442" fill="#1b9fd8" rx="5.25" ry="5.25" stroke-width="0" transform=" rotate(0, 259, 70)"/>
  <rect fill="#1b9fd8" height="10.5" stroke-width="0" transform=" rotate(0, 276, 65)" width="10.5" x="271.4598" y="59.9526"/>
  <rect fill="#006ca1" height="13.5" stroke-width="0" transform=" rotate(0, 53, 81)" width="13.5" x="47.1643" y="74.7831"/>
  <polygon fill="#006ca1" points="60.3735,93.0068 67.1235,79.5068 73.8735,93.0068" stroke-width="0" transform=" rotate(0, 67, 86)"/>
  <ellipse cx="86.1759" cy="85.7717" fill="#006ca1" rx="6.75" ry="6.75" stroke-width="0" transform=" rotate(0, 86, 85)"/>
  <rect fill="#006ca1" height="13.5" stroke-width="0" transform=" rotate(0, 99, 79)" width="13.5" x="92.3046" y="72.7886"/>
  <polygon fill="#006ca1" points="105.671,89.0004 112.421,75.5004 119.171,89.0004" stroke-width="0" transform=" rotate(0, 112, 82)"/>
  <ellipse cx="130.9565" cy="81.8297" fill="#006ca1" rx="6.75" ry="6.75" stroke-width="0" transform=" rotate(0, 130, 81)"/>
  <rect fill="#006ca1" height="13.5" stroke-width="0" transform=" rotate(0, 143, 83)" width="13.5" x="136.9876" y="76.6411"/>
  <polygon fill="#006ca1" points="151.7025,89.1585 158.4525,75.6585 165.2025,89.1585" stroke-width="0" transform=" rotate(0, 158, 82)"/>
  <ellipse cx="173.1253" cy="81.4887" fill="#006ca1" rx="6.75" ry="6.75" stroke-width="0" transform=" rotate(0, 173, 81)"/>
  <rect fill="#006ca1" height="13.5" stroke-width="0" transform=" rotate(0, 188, 79)" width="13.5" x="181.6446" y="73.154"/>
  <polygon fill="#006ca1" points="196.9126,91.1149 203.6626,77.6149 210.4126,91.1149" stroke-width="0" transform=" rotate(0, 203, 84)"/>
  <ellipse cx="221.3091" cy="83.4048" fill="#006ca1" rx="6.75" ry="6.75" stroke-width="0" transform=" rotate(0, 221, 83)"/>
  <rect fill="#006ca1" height="13.5" stroke-width="0" transform=" rotate(0, 231, 78)" width="13.5" x="224.3743" y="72.1173"/>
  <polygon fill="#006ca1" points="244.2282,90.4576 250.9782,76.9576 257.7282,90.4576" stroke-width="0" transform=" rotate(0, 250, 83)"/>
  <ellipse cx="261.4086" cy="85.9055" fill="#006ca1" rx="6.75" ry="6.75" stroke-width="0" transform=" rotate(0, 261, 85)"/>
  <rect fill="#006ca1" height="13.5" stroke-width="0" transform=" rotate(0, 275, 82)" width="13.5" x="268.7701" y="75.9191"/>
  <rect fill="#6dd6ff" height="7.5" stroke-width="0" transform=" rotate(0, 50, 97)" width="7.5" x="46.7372" y="93.3236"/>
  <polygon fill="#6dd6ff" points="65.6548,102.3357 69.4048,94.8357 73.1548,102.3357" stroke-width="0" transform=" rotate(0, 69, 98)"/>
  <ellipse cx="80.7753" cy="98.3885" fill="#6dd6ff" rx="3.75" ry="3.75" stroke-width="0" transform=" rotate(0, 80, 98)"/>
  <rect fill="#6dd6ff" height="7.5" stroke-width="0" transform=" rotate(0, 96, 96)" width="7.5" x="93.15" y="92.3248"/>
  <polygon fill="#6dd6ff" points="110.4898,101.865 114.2398,94.365 117.9898,101.865" stroke-width="0" transform=" rotate(0, 114, 98)"/>
  <ellipse cx="128.5117" cy="98.8631" fill="#6dd6ff" rx="3.75" ry="3.75" stroke-width="0" transform=" rotate(0, 128, 98)"/>
  <rect fill="#6dd6ff" height="7.5" stroke-width="0" transform=" rotate(0, 141, 99)" width="7.5" x="137.5843" y="95.5571"/>
  <polygon fill="#6dd6ff" points="153.0322,100.2402 156.7822,92.7402 160.5322,100.2402" stroke-width="0" transform=" rotate(0, 156, 96)"/>
  <ellipse cx="172.1395" cy="96.8229" fill="#6dd6ff" rx="3.75" ry="3.75" stroke-width="0" transform=" rotate(0, 172, 96)"/>
  <rect fill="#6dd6ff" height="7.5" stroke-width="0" transform=" rotate(0, 186, 95)" width="7.5" x="182.8034" y="92.0536"/>
  <polygon fill="#6dd6ff" points="198.2162,99.3227 201.9662,91.8227 205.7162,99.3227" stroke-width="0" transform=" rotate(0, 201, 95)"/>
  <ellipse cx="216.3465" cy="95.6905" fill="#6dd6ff" rx="3.75" ry="3.75" stroke-width="0" transform=" rotate(0, 216, 95)"/>
  <rect fill="#6dd6ff" height="7.5" stroke-width="0" transform=" rotate(0, 230, 99)" width="7.5" x="226.7806" y="95.6748"/>
  <polygon fill="#6dd6ff" points="245.3563,103.3759 249.1063,95.8759 252.8563,103.3759" stroke-width="0" transform=" rotate(0, 249, 99)"/>
  <ellipse cx="260.2904" cy="97.8388" fill="#6dd6ff" rx="3.75" ry="3.75" stroke-width="0" transform=" rotate(0, 260, 97)"/>
  <rect fill="#6dd6ff" height="7.5" stroke-width="0" transform=" rotate(0, 278, 97)" width="7.5" x="274.3813" y="93.6675"/>
  <rect fill="#1b9fd8" height="10.5" stroke-width="0" transform=" rotate(0, 49, 115)" width="10.5" x="44.6249" y="109.9345"/>
  <polygon fill="#1b9fd8" points="61.7609,120.8736 67.0109,110.3736 72.2609,120.8736" stroke-width="0" transform=" rotate(0, 67, 115)"/>
  <ellipse cx="79.789" cy="113.8814" fill="#1b9fd8" rx="5.25" ry="5.25" stroke-width="0" transform=" rotate(0, 79, 113)"/>
  <rect fill="#1b9fd8" height="10.5" stroke-width="0" transform=" rotate(0, 99, 112)" width="10.5" x="94.0479" y="107.0965"/>
  <polygon fill="#1b9fd8" points="107.5521,119.5258 112.8021,109.0258 118.0521,119.5258" stroke-width="0" transform=" rotate(0, 112, 114)"/>
  <ellipse cx="126.4639" cy="112.0965" fill="#1b9fd8" rx="5.25" ry="5.25" stroke-width="0" transform=" rotate(0, 126, 112)"/>
  <rect fill="#1b9fd8" height="10.5" stroke-width="0" transform=" rotate(0, 144, 111)" width="10.5" x="139.5447" y="106.6401"/>
  <polygon fill="#1b9fd8" points="151.4138,118.2528 156.6638,107.7528 161.9138,118.2528" stroke-width="0" transform=" rotate(0, 156, 113)"/>
  <ellipse cx="170.4409" cy="115.242" fill="#1b9fd8" rx="5.25" ry="5.25" stroke-width="0" transform=" rotate(0, 170, 115)"/>
  <rect fill="#1b9fd8" height="10.5" stroke-width="0" transform=" rotate(0, 187, 112)" width="10.5" x="182.0524" y="107.048"/>
  <polygon fill="#1b9fd8" points="198.0934,118.1851 203.3434,107.6851 208.5934,118.1851" stroke-width="0" transform=" rotate(0, 203, 112)"/>
  <ellipse cx="215.3602" cy="111.5667" fill="#1b9fd8" rx="5.25" ry="5.25" stroke-width="0" transform=" rotate(0, 215, 111)"/>
  <rect fill="#1b9fd8" height="10.5" stroke-width="0" transform=" rotate(0, 231, 110)" width="10.5" x="226.4645" y="104.8851"/>
  <polygon fill="#1b9fd8" points="240.1648,119.6266 245.4148,109.1266 250.6648,119.6266" stroke-width="0" transform=" rotate(0, 245, 114)"/>
  <ellipse cx="260.3035" cy="112.6816" fill="#1b9fd8" rx="5.25" ry="5.25" stroke-width="0" transform=" rotate(0, 260, 112)"/>
  <rect fill="#1b9fd8" height="10.5" stroke-width="0" transform=" rotate(0, 278, 109)" width="10.5" x="272.8971" y="104.6972"/>
  <rect fill="#006ca1" height="13.5" stroke-width="0" transform=" rotate(0, 54, 127)" width="13.5" x="47.3036" y="120.4697"/>
  <polygon fill="#006ca1" points="56.7049,138.2387 63.4549,124.7387 70.2049,138.2387" stroke-width="0" transform=" rotate(0, 63, 131)"/>
  <ellipse cx="80.4034" cy="124.9884" fill="#006ca1" rx="6.75" ry="6.75" stroke-width="0" transform=" rotate(0, 80, 124)"/>
  <rect fill="#006ca1" height="13.5" stroke-width="0" transform=" rotate(0, 94, 130)" width="13.5" x="87.4845" y="123.8271"/>
  <polygon fill="#006ca1" points="107.9769,132.9794 114.7269,119.4794 121.4769,132.9794" stroke-width="0" transform=" rotate(0, 114, 126)"/>
  <ellipse cx="131.4205" cy="124.1936" fill="#006ca1" rx="6.75" ry="6.75" stroke-width="0" transform=" rotate(0, 131, 124)"/>
  <rect fill="#006ca1" height="13.5" stroke-width="0" transform=" rotate(0, 139, 126)" width="13.5" x="132.7468" y="119.3637"/>
  <polygon fill="#006ca1" points="151.8544,135.6145 158.6044,122.1145 165.3544,135.6145" stroke-width="0" transform=" rotate(0, 158, 128)"/>
  <ellipse cx="174.8471" cy="130.2672" fill="#006ca1" rx="6.75" ry="6.75" stroke-width="0" transform=" rotate(0, 174, 130)"/>
  <rect fill="#006ca1" height="13.5" stroke-width="0" transform=" rotate(0, 184, 125)" width="13.5" x="177.3886" y="118.3203"/>
  <polygon fill="#006ca1" points="194.4923,137.2061 201.2423,123.7061 207.9923,137.2061" stroke-width="0" transform=" rotate(0, 201, 130)"/>
  <ellipse cx="216.3365" cy="125.9833" fill="#006ca1" rx="6.75" ry="6.75" stroke-width="0" transform=" rotate(0, 216, 125)"/>
  <rect fill="#006ca1" height="13.5" stroke-width="0" transform=" rotate(0, 229, 124)" width="13.5" x="222.6894" y="117.6102"/>
  <polygon fill="#006ca1" points="237.0775,137.6159 243.8275,124.1159 250.5775,137.6159" stroke-width="0" transform=" rotate(0, 243, 130)"/>
  <ellipse cx="259.9395" cy="124.6041" fill="#006ca1" rx="6.75" ry="6.75" stroke-width="0" transform=" rotate(0, 259, 124)"/>
  <rect fill="#006ca1" height="13.5" stroke-width="0" transform=" rotate(0, 276, 129)" width="13.5" x="269.5923" y="122.8675"/>
  <rect fill="#6dd6ff" height="7.5" stroke-width="0" transform=" rotate(0, 51, 141)" width="7.5" x="48.1332" y="137.2512"/>
  <polygon fill="#6dd6ff" points="62.3925,145.026 66.1425,137.526 69.8925,145.026" stroke-width="0" transform=" rotate(0, 66, 141)"/>
  <ellipse cx="83.2927" cy="142.0243" fill="#6dd6ff" rx="3.75" ry="3.75" stroke-width="0" transform=" rotate(0, 83, 142)"/>
  <rect fill="#6dd6ff" height="7.5" stroke-width="0" transform=" rotate(0, 96, 143)" width="7.5" x="93.0163" y="139.4248"/>
  <polygon fill="#6dd6ff" points="110.7654,145.8717 114.5154,138.3717 118.2654,145.8717" stroke-width="0" transform=" rotate(0, 114, 142)"/>
  <ellipse cx="127.7778" cy="143.3956" fill="#6dd6ff" rx="3.75" ry="3.75" stroke-width="0" transform=" rotate(0, 127, 143)"/>
  <rect fill="#6dd6ff" height="7.5" stroke-width="0" transform=" rotate(0, 144, 142)" width="7.5" x="140.3653" y="139.0287"/>
  <polygon fill="#6dd6ff" points="151.9866,144.4383 155.7366,136.9383 159.4866,144.4383" stroke-width="0" transform=" rotate(0, 155, 140)"/>
  <ellipse cx="171.7973" cy="141.4399" fill="#6dd6ff" rx="3.75" ry="3.75" stroke-width="0" transform=" rotate(0, 171, 141)"/>
  <rect fill="#6dd6ff" height="7.5" stroke-width="0" transform=" rotate(0, 189, 140)" width="7.5" x="185.4735" y="136.7005"/>
  <polygon fill="#6dd6ff" points="198.0663,147.5431 201.8163,140.0431 205.5663,147.5431" stroke-width="0" transform=" rotate(0, 201, 143)"/>
  <ellipse cx="215.6389" cy="142.3726" fill="#6dd6ff" rx="3.75" ry="3.75" stroke-width="0" transform=" rotate(0, 215, 142)"/>
  <rect fill="#6dd6ff" height="7.5" stroke-width="0" transform=" rotate(0, 231, 142)" width="7.5" x="228.0544" y="139.013"/>
  <polygon fill="#6dd6ff" points="244.3343,147.8779 248.0843,140.3779 251.8343,147.8779" stroke-width="0" transform=" rotate(0, 248, 144)"/>
  <ellipse cx="261.9151" cy="140.2755" fill="#6dd6ff" rx="3.75" ry="3.75" stroke-width="0" transform=" rotate(0, 261, 140)"/>
  <rect fill="#6dd6ff" height="7.5" stroke-width="0" transform=" rotate(0, 279, 141)" width="7.5" x="275.6222" y="138.0198"/>
  <rect fill="#1b9fd8" height="10.5" stroke-width="0" transform=" rotate(0, 50, 154)" width="10.5" x="45.2464" y="149.3141"/>
  <polygon fill="#1b9fd8" points="60.5392,160.6385 65.7892,150.1385 71.0392,160.6385" stroke-width="0" transform=" rotate(0, 65, 155)"/>
  <ellipse cx="85.3785" cy="157.6986" fill="#1b9fd8" rx="5.25" ry="5.25" stroke-width="0" transform=" rotate(0, 85, 157)"/>
  <rect fill="#1b9fd8" height="10.5" stroke-width="0" transform=" rotate(0, 95, 157)" width="10.5" x="90.6928" y="151.9684"/>
  <polygon fill="#1b9fd8" points="109.135,159.7883 114.385,149.2883 119.635,159.7883" stroke-width="0" transform=" rotate(0, 114, 154)"/>
  <ellipse cx="124.8386" cy="160.0938" fill="#1b9fd8" rx="5.25" ry="5.25" stroke-width="0" transform=" rotate(0, 124, 160)"/>
  <rect fill="#1b9fd8" height="10.5" stroke-width="0" transform=" rotate(0, 139, 160)" width="10.5" x="134.6845" y="155.2236"/>
  <polygon fill="#1b9fd8" points="150.8915,159.7682 156.1415,149.2682 161.3915,159.7682" stroke-width="0" transform=" rotate(0, 156, 154)"/>
  <ellipse cx="174.7761" cy="160.1287" fill="#1b9fd8" rx="5.25" ry="5.25" stroke-width="0" transform=" rotate(0, 174, 160)"/>
  <rect fill="#1b9fd8" height="10.5" stroke-width="0" transform=" rotate(0, 189, 158)" width="10.5" x="184.6736" y="153.0175"/>
  <polygon fill="#1b9fd8" points="199.4978,162.8886 204.7478,152.3886 209.9978,162.8886" stroke-width="0" transform=" rotate(0, 204, 157)"/>
  <ellipse cx="219.8929" cy="154.4529" fill="#1b9fd8" rx="5.25" ry="5.25" stroke-width="0" transform=" rotate(0, 219, 154)"/>
  <rect fill="#1b9fd8" height="10.5" stroke-width="0" transform=" rotate(0, 229, 156)" width="10.5" x="224.5294" y="151.4894"/>
  <polygon fill="#1b9fd8" points="241.3554,160.2352 246.6054,149.7352 251.8554,160.2352" stroke-width="0" transform=" rotate(0, 246, 154)"/>
  <ellipse cx="263.5356" cy="158.554" fill="#1b9fd8" rx="5.25" ry="5.25" stroke-width="0" transform=" rotate(0, 263, 158)"/>
  <rect fill="#1b9fd8" height="10.5" stroke-width="0" transform=" rotate(0, 279, 158)" width="10.5" x="273.8735" y="153.0564"/>
  <rect fill="#1b9fd8" height="10.5" stroke-width="0" transform=" rotate(0, 54, 169)" width="10.5" x="48.7688" y="164.4553"/>
  <polygon fill="#1b9fd8" points="61.8453,176.4444 67.0953,165.9444 72.3453,176.4444" stroke-width="0" transform=" rotate(0, 67, 171)"/>
  <ellipse cx="83.912" cy="170.536" fill="#1b9fd8" rx="5.25" ry="5.25" stroke-width="0" transform=" rotate(0, 83, 170)"/>
  <rect fill="#1b9fd8" height="10.5" stroke-width="0" transform=" rotate(0, 98, 172)" width="10.5" x="93.6694" y="166.763"/>
  <polygon fill="#1b9fd8" points="109.8402,178.9765 115.0902,168.4765 120.3402,178.9765" stroke-width="0" transform=" rotate(0, 115, 173)"/>
  <ellipse cx="124.4258" cy="174.5916" fill="#1b9fd8" rx="5.25" ry="5.25" stroke-width="0" transform=" rotate(0, 124, 174)"/>
  <rect fill="#1b9fd8" height="10.5" stroke-width="0" transform=" rotate(0, 144, 174)" width="10.5" x="138.8617" y="169.4308"/>
  <polygon fill="#1b9fd8" points="153.5475,176.2051 158.7975,165.7051 164.0475,176.2051" stroke-width="0" transform=" rotate(0, 158, 170)"/>
  <ellipse cx="173.3012" cy="172.96" fill="#1b9fd8" rx="5.25" ry="5.25" stroke-width="0" transform=" rotate(0, 173, 172)"/>
  <rect fill="#1b9fd8" height="10.5" stroke-width="0" transform=" rotate(0, 187, 172)" width="10.5" x="182.7491" y="166.7769"/>
  <polygon fill="#1b9fd8" points="195.3807,177.9197 200.6307,167.4197 205.8807,177.9197" stroke-width="0" transform=" rotate(0, 200, 172)"/>
  <ellipse cx="219.4081" cy="173.3983" fill="#1b9fd8" rx="5.25" ry="5.25" stroke-width="0" transform=" rotate(0, 219, 173)"/>
  <rect fill="#1b9fd8" height="10.5" stroke-width="0" transform=" rotate(0, 233, 170)" width="10.5" x="228.7151" y="165.0753"/>
  <polygon fill="#1b9fd8" points="240.1642,180.5699 245.4142,170.0699 250.6642,180.5699" stroke-width="0" transform=" rotate(0, 245, 175)"/>
  <ellipse cx="259.9172" cy="174.3859" fill="#1b9fd8" rx="5.25" ry="5.25" stroke-width="0" transform=" rotate(0, 259, 174)"/>
  <rect fill="#1b9fd8" height="10.5" stroke-width="0" transform=" rotate(0, 280, 171)" width="10.5" x="274.7766" y="165.7681"/>
  <rect fill="#6dd6ff" height="7.5" stroke-width="0" transform=" rotate(0, 51, 186)" width="7.5" x="47.4235" y="183.0511"/>
  <polygon fill="#6dd6ff" points="61.8139,192.0533 65.5639,184.5533 69.3139,192.0533" stroke-width="0" transform=" rotate(0, 65, 188)"/>
  <ellipse cx="80.1986" cy="189.7228" fill="#6dd6ff" rx="3.75" ry="3.75" stroke-width="0" transform=" rotate(0, 80, 189)"/>
  <rect fill="#6dd6ff" height="7.5" stroke-width="0" transform=" rotate(0, 98, 185)" width="7.5" x="94.3325" y="182.2026"/>
  <polygon fill="#6dd6ff" points="106.6439,193.3785 110.3939,185.8785 114.1439,193.3785" stroke-width="0" transform=" rotate(0, 110, 189)"/>
  <ellipse cx="126.04" cy="189.2061" fill="#6dd6ff" rx="3.75" ry="3.75" stroke-width="0" transform=" rotate(0, 126, 189)"/>
  <rect fill="#6dd6ff" height="7.5" stroke-width="0" transform=" rotate(0, 143, 185)" width="7.5" x="139.6917" y="181.9363"/>
  <polygon fill="#6dd6ff" points="154.4254,191.2968 158.1754,183.7968 161.9254,191.2968" stroke-width="0" transform=" rotate(0, 158, 187)"/>
  <ellipse cx="173.1376" cy="188.123" fill="#6dd6ff" rx="3.75" ry="3.75" stroke-width="0" transform=" rotate(0, 173, 188)"/>
  <rect fill="#6dd6ff" height="7.5" stroke-width="0" transform=" rotate(0, 189, 189)" width="7.5" x="185.6982" y="185.6612"/>
  <polygon fill="#6dd6ff" points="199.295,192.4298 203.045,184.9298 206.795,192.4298" stroke-width="0" transform=" rotate(0, 203, 188)"/>
  <ellipse cx="218.3491" cy="187.5841" fill="#6dd6ff" rx="3.75" ry="3.75" stroke-width="0" transform=" rotate(0, 218, 187)"/>
  <rect fill="#6dd6ff" height="7.5" stroke-width="0" transform=" rotate(0, 232, 186)" width="7.5" x="228.2729" y="182.5882"/>
  <polygon fill="#6dd6ff" points="244.9173,191.8927 248.6673,184.3927 252.4173,191.8927" stroke-width="0" transform=" rotate(0, 248, 188)"/>
  <ellipse cx="261.5351" cy="186.0259" fill="#6dd6ff" rx="3.75" ry="3.75" stroke-width="0" transform=" rotate(0, 261, 186)"/>
  <rect fill="#6dd6ff" height="7.5" stroke-width="0" transform=" rotate(0, 279, 186)" width="7.5" x="275.6697" y="182.912"/>
  <rect fill="#006ca1" height="13.5" stroke-width="0" transform=" rotate(0, 52, 201)" width="13.5" x="45.7754" y="194.9213"/>
  <polygon fill="#006ca1" points="59.1214,209.1097 65.8714,195.6097 72.6214,209.1097" stroke-width="0" transform=" rotate(0, 65, 202)"/>
  <ellipse cx="85.769" cy="200.5253" fill="#006ca1" rx="6.75" ry="6.75" stroke-width="0" transform=" rotate(0, 85, 200)"/>
  <rect fill="#006ca1" height="13.5" stroke-width="0" transform=" rotate(0, 100, 202)" width="13.5" x="94.1867" y="195.3252"/>
  <polygon fill="#006ca1" points="108.9483,211.4085 115.6983,197.9085 122.4483,211.4085" stroke-width="0" transform=" rotate(0, 115, 204)"/>
  <ellipse cx="124.6322" cy="200.4299" fill="#006ca1" rx="6.75" ry="6.75" stroke-width="0" transform=" rotate(0, 124, 200)"/>
  <rect fill="#006ca1" height="13.5" stroke-width="0" transform=" rotate(0, 141, 205)" width="13.5" x="134.9636" y="198.4707"/>
  <polygon fill="#006ca1" points="152.6903,213.0079 159.4403,199.5079 166.1903,213.0079" stroke-width="0" transform=" rotate(0, 159, 206)"/>
  <ellipse cx="173.5587" cy="204.4825" fill="#006ca1" rx="6.75" ry="6.75" stroke-width="0" transform=" rotate(0, 173, 204)"/>
  <rect fill="#006ca1" height="13.5" stroke-width="0" transform=" rotate(0, 187, 200)" width="13.5" x="180.5885" y="193.8596"/>
  <polygon fill="#006ca1" points="198.8767,209.1275 205.6267,195.6275 212.3767,209.1275" stroke-width="0" transform=" rotate(0, 205, 202)"/>
  <ellipse cx="214.9786" cy="204.2662" fill="#006ca1" rx="6.75" ry="6.75" stroke-width="0" transform=" rotate(0, 214, 204)"/>
  <rect fill="#006ca1" height="13.5" stroke-width="0" transform=" rotate(0, 231, 199)" width="13.5" x="224.645" y="192.9262"/>
  <polygon fill="#006ca1" points="243.4696,211.8334 250.2196,198.3334 256.9696,211.8334" stroke-width="0" transform=" rotate(0, 250, 205)"/>
  <ellipse cx="263.9568" cy="199.9761" fill="#006ca1" rx="6.75" ry="6.75" stroke-width="0" transform=" rotate(0, 263, 199)"/>
  <rect fill="#006ca1" height="13.5" stroke-width="0" transform=" rotate(0, 281, 199)" width="13.5" x="274.4671" y="192.3641"/>
  <rect fill="#1b9fd8" height="10.5" stroke-width="0" transform=" rotate(0, 53, 220)" width="10.5" x="47.8138" y="215.0009"/>
  <polygon fill="#1b9fd8" points="62.673,223.764 67.923,213.264 73.173,223.764" stroke-width="0" transform=" rotate(0, 67, 218)"/>
  <ellipse cx="82.1985" cy="216.8092" fill="#1b9fd8" rx="5.25" ry="5.25" stroke-width="0" transform=" rotate(0, 82, 216)"/>
  <rect fill="#1b9fd8" height="10.5" stroke-width="0" transform=" rotate(0, 99, 220)" width="10.5" x="93.8357" y="214.7914"/>
  <polygon fill="#1b9fd8" points="104.1044,224.6976 109.3544,214.1976 114.6044,224.6976" stroke-width="0" transform=" rotate(0, 109, 219)"/>
  <ellipse cx="125.4546" cy="220.432" fill="#1b9fd8" rx="5.25" ry="5.25" stroke-width="0" transform=" rotate(0, 125, 220)"/>
  <rect fill="#1b9fd8" height="10.5" stroke-width="0" transform=" rotate(0, 140, 218)" width="10.5" x="135.4617" y="212.8287"/>
  <polygon fill="#1b9fd8" points="152.2907,224.4424 157.5407,213.9424 162.7907,224.4424" stroke-width="0" transform=" rotate(0, 157, 219)"/>
  <ellipse cx="175.4249" cy="218.9509" fill="#1b9fd8" rx="5.25" ry="5.25" stroke-width="0" transform=" rotate(0, 175, 218)"/>
  <rect fill="#1b9fd8" height="10.5" stroke-width="0" transform=" rotate(0, 186, 214)" width="10.5" x="181.35" y="209.5774"/>
  <polygon fill="#1b9fd8" points="198.7187,222.7391 203.9687,212.2391 209.2187,222.7391" stroke-width="0" transform=" rotate(0, 203, 217)"/>
  <ellipse cx="217.8717" cy="219.0704" fill="#1b9fd8" rx="5.25" ry="5.25" stroke-width="0" transform=" rotate(0, 217, 219)"/>
  <rect fill="#1b9fd8" height="10.5" stroke-width="0" transform=" rotate(0, 235, 214)" width="10.5" x="229.9922" y="209.6478"/>
  <polygon fill="#1b9fd8" points="243.5648,225.3743 248.8148,214.8743 254.0648,225.3743" stroke-width="0" transform=" rotate(0, 248, 220)"/>
  <ellipse cx="265.2764" cy="216.9781" fill="#1b9fd8" rx="5.25" ry="5.25" stroke-width="0" transform=" rotate(0, 265, 216)"/>
  <rect fill="#1b9fd8" height="10.5" stroke-width="0" transform=" rotate(0, 280, 218)" width="10.5" x="275.0956" y="213.7383"/>
  <rect fill="#6dd6ff" height="7.5" stroke-width="0" transform=" rotate(0, 51, 231)" width="7.5" x="48.14" y="227.7072"/>
  <polygon fill="#6dd6ff" points="64.6429,236.7469 68.3929,229.2469 72.1429,236.7469" stroke-width="0" transform=" rotate(0, 68, 232)"/>
  <ellipse cx="82.5028" cy="234.5257" fill="#6dd6ff" rx="3.75" ry="3.75" stroke-width="0" transform=" rotate(0, 82, 234)"/>
  <rect fill="#6dd6ff" height="7.5" stroke-width="0" transform=" rotate(0, 97, 232)" width="7.5" x="93.8391" y="228.7296"/>
  <polygon fill="#6dd6ff" points="110.8464,237.5775 114.5964,230.0775 118.3464,237.5775" stroke-width="0" transform=" rotate(0, 114, 233)"/>
  <ellipse cx="127.7067" cy="230.6144" fill="#6dd6ff" rx="3.75" ry="3.75" stroke-width="0" transform=" rotate(0, 127, 230)"/>
  <rect fill="#6dd6ff" height="7.5" stroke-width="0" transform=" rotate(0, 143, 234)" width="7.5" x="139.8931" y="230.664"/>
  <polygon fill="#6dd6ff" points="153.5596,235.4881 157.3096,227.9881 161.0596,235.4881" stroke-width="0" transform=" rotate(0, 157, 231)"/>
  <ellipse cx="172.7873" cy="231.3262" fill="#6dd6ff" rx="3.75" ry="3.75" stroke-width="0" transform=" rotate(0, 172, 231)"/>
  <rect fill="#6dd6ff" height="7.5" stroke-width="0" transform=" rotate(0, 186, 230)" width="7.5" x="182.9991" y="226.7673"/>
  <polygon fill="#6dd6ff" points="198.6197,235.0553 202.3697,227.5553 206.1197,235.0553" stroke-width="0" transform=" rotate(0, 202, 231)"/>
  <ellipse cx="216.1038" cy="230.8197" fill="#6dd6ff" rx="3.75" ry="3.75" stroke-width="0" transform=" rotate(0, 216, 230)"/>
  <rect fill="#6dd6ff" height="7.5" stroke-width="0" transform=" rotate(0, 232, 230)" width="7.5" x="228.2528" y="226.9073"/>
  <polygon fill="#6dd6ff" points="244.7376,234.1823 248.4876,226.6823 252.2376,234.1823" stroke-width="0" transform=" rotate(0, 248, 230)"/>
  <ellipse cx="263.6528" cy="230.2644" fill="#6dd6ff" rx="3.75" ry="3.75" stroke-width="0" transform=" rotate(0, 263, 230)"/>
  <rect fill="#6dd6ff" height="7.5" stroke-width="0" transform=" rotate(0, 275, 232)" width="7.5" x="272.1461" y="228.7899"/>
  <rect fill="#006ca1" height="13.5" stroke-width="0" transform=" rotate(0, 50, 250)" width="13.5" x="44.1636" y="243.3136"/>
  <polygon fill="#006ca1" points="61.8827,257.1165 68.6327,243.6165 75.3827,257.1165" stroke-width="0" transform=" rotate(0, 68, 250)"/>
  <ellipse cx="86.0284" cy="245.8011" fill="#006ca1" rx="6.75" ry="6.75" stroke-width="0" transform=" rotate(0, 86, 245)"/>
  <rect fill="#006ca1" height="13.5" stroke-width="0" transform=" rotate(0, 95, 249)" width="13.5" x="88.3317" y="243.0746"/>
  <polygon fill="#006ca1" points="108.7766,254.9489 115.5266,241.4489 122.2766,254.9489" stroke-width="0" transform=" rotate(0, 115, 248)"/>
  <ellipse cx="125.9094" cy="244.287" fill="#006ca1" rx="6.75" ry="6.75" stroke-width="0" transform=" rotate(0, 125, 244)"/>
  <rect fill="#006ca1" height="13.5" stroke-width="0" transform=" rotate(0, 143, 245)" width="13.5" x="136.5072" y="239.0018"/>
  <polygon fill="#006ca1" points="147.7997,256.3695 154.5497,242.8695 161.2997,256.3695" stroke-width="0" transform=" rotate(0, 154, 249)"/>
  <ellipse cx="169.4288" cy="244.5229" fill="#006ca1" rx="6.75" ry="6.75" stroke-width="0" transform=" rotate(0, 169, 244)"/>
  <rect fill="#006ca1" height="13.5" stroke-width="0" transform=" rotate(0, 187, 248)" width="13.5" x="181.1173" y="241.4685"/>
  <polygon fill="#006ca1" points="198.2106,251.1866 204.9606,237.6866 211.7106,251.1866" stroke-width="0" transform=" rotate(0, 204, 244)"/>
  <ellipse cx="217.8974" cy="246.0199" fill="#006ca1" rx="6.75" ry="6.75" stroke-width="0" transform=" rotate(0, 217, 246)"/>
  <rect fill="#006ca1" height="13.5" stroke-width="0" transform=" rotate(0, 230, 247)" width="13.5" x="223.5143" y="240.7705"/>
  <polygon fill="#006ca1" points="239.238,250.8972 245.988,237.3972 252.738,250.8972" stroke-width="0" transform=" rotate(0, 245, 244)"/>
  <ellipse cx="260.3504" cy="251.3893" fill="#006ca1" rx="6.75" ry="6.75" stroke-width="0" transform=" rotate(0, 260, 251)"/>
  <rect fill="#006ca1" height="13.5" stroke-width="0" transform=" rotate(0, 276, 248)" width="13.5" x="269.9085" y="242.0152"/>
  <rect fill="#1b9fd8" height="10.5" stroke-width="0" transform=" rotate(0, 55, 260)" width="10.5" x="49.8178" y="255.228"/>
  <polygon fill="#1b9fd8" points="61.5181,265.1483 66.7681,254.6483 72.0181,265.1483" stroke-width="0" transform=" rotate(0, 66, 259)"/>
  <ellipse cx="83.1281" cy="262.8084" fill="#1b9fd8" rx="5.25" ry="5.25" stroke-width="0" transform=" rotate(0, 83, 262)"/>
  <rect fill="#1b9fd8" height="10.5" stroke-width="0" transform=" rotate(0, 97, 262)" width="10.5" x="91.7648" y="256.9939"/>
  <polygon fill="#1b9fd8" points="105.966,266.6826 111.216,256.1826 116.466,266.6826" stroke-width="0" transform=" rotate(0, 111, 261)"/>
  <ellipse cx="124.2626" cy="263.5011" fill="#1b9fd8" rx="5.25" ry="5.25" stroke-width="0" transform=" rotate(0, 124, 263)"/>
  <rect fill="#1b9fd8" height="10.5" stroke-width="0" transform=" rotate(0, 141, 265)" width="10.5" x="136.5672" y="259.8199"/>
  <polygon fill="#1b9fd8" points="154.0341,267.0665 159.2841,256.5665 164.5341,267.0665" stroke-width="0" transform=" rotate(0, 159, 261)"/>
  <ellipse cx="169.5821" cy="260.5539" fill="#1b9fd8" rx="5.25" ry="5.25" stroke-width="0" transform=" rotate(0, 169, 260)"/>
  <rect fill="#1b9fd8" height="10.5" stroke-width="0" transform=" rotate(0, 190, 263)" width="10.5" x="184.8348" y="258.3063"/>
  <polygon fill="#1b9fd8" points="196.8678,266.0838 202.1178,255.5838 207.3678,266.0838" stroke-width="0" transform=" rotate(0, 202, 260)"/>
  <ellipse cx="218.3134" cy="261.06" fill="#1b9fd8" rx="5.25" ry="5.25" stroke-width="0" transform=" rotate(0, 218, 261)"/>
  <rect fill="#1b9fd8" height="10.5" stroke-width="0" transform=" rotate(0, 232, 263)" width="10.5" x="227.5532" y="258.0296"/>
  <polygon fill="#1b9fd8" points="241.7663,270.6125 247.0163,260.1125 252.2663,270.6125" stroke-width="0" transform=" rotate(0, 247, 265)"/>
  <ellipse cx="264.7273" cy="259.3341" fill="#1b9fd8" rx="5.25" ry="5.25" stroke-width="0" transform=" rotate(0, 264, 259)"/>
  <rect fill="#1b9fd8" height="10.5" stroke-width="0" transform=" rotate(0, 274, 264)" width="10.5" x="269.3082" y="258.862"/>
  <rect fill="#6dd6ff" height="7.5" stroke-width="0" transform=" rotate(0, 54, 279)" width="7.5" x="50.8169" y="275.8062"/>
  <polygon fill="#6dd6ff" points="63.4861,281.7764 67.2361,274.2764 70.9861,281.7764" stroke-width="0" transform=" rotate(0, 67, 278)"/>
  <ellipse cx="81.8783" cy="278.8502" fill="#6dd6ff" rx="3.75" ry="3.75" stroke-width="0" transform=" rotate(0, 81, 278)"/>
  <rect fill="#6dd6ff" height="7.5" stroke-width="0" transform=" rotate(0, 96, 277)" width="7.5" x="92.52" y="273.5797"/>
  <polygon fill="#6dd6ff" points="110.3106,282.8227 114.0606,275.3227 117.8106,282.8227" stroke-width="0" transform=" rotate(0, 114, 279)"/>
  <ellipse cx="126.1236" cy="278.3824" fill="#6dd6ff" rx="3.75" ry="3.75" stroke-width="0" transform=" rotate(0, 126, 278)"/>
  <rect fill="#6dd6ff" height="7.5" stroke-width="0" transform=" rotate(0, 142, 278)" width="7.5" x="138.9361" y="274.5715"/>
  <polygon fill="#6dd6ff" points="154.893,279.1135 158.643,271.6135 162.393,279.1135" stroke-width="0" transform=" rotate(0, 158, 275)"/>
  <ellipse cx="173.8448" cy="279.1493" fill="#6dd6ff" rx="3.75" ry="3.75" stroke-width="0" transform=" rotate(0, 173, 279)"/>
  <rect fill="#6dd6ff" height="7.5" stroke-width="0" transform=" rotate(0, 187, 276)" width="7.5" x="183.3246" y="272.5301"/>
  <polygon fill="#6dd6ff" points="199.6012,283.4485 203.3512,275.9485 207.1012,283.4485" stroke-width="0" transform=" rotate(0, 203, 279)"/>
  <ellipse cx="216.6474" cy="275.9073" fill="#6dd6ff" rx="3.75" ry="3.75" stroke-width="0" transform=" rotate(0, 216, 275)"/>
  <rect fill="#6dd6ff" height="7.5" stroke-width="0" transform=" rotate(0, 231, 278)" width="7.5" x="227.4549" y="274.8451"/>
  <polygon fill="#6dd6ff" points="242.929,279.5072 246.679,272.0072 250.429,279.5072" stroke-width="0" transform=" rotate(0, 246, 275)"/>
  <ellipse cx="260.8973" cy="277.42" fill="#6dd6ff" rx="3.75" ry="3.75" stroke-width="0" transform=" rotate(0, 260, 277)"/>
  <rect fill="#6dd6ff" height="7.5" stroke-width="0" transform=" rotate(0, 275, 276)" width="7.5" x="272.0159" y="272.7386"/>
</svg>
