<?xml version="1.0" encoding="utf-8" ?>
<svg baseProfile="tiny" height="330" version="1.2" width="330" xmlns="http://www.w3.org/2000/svg" xmlns:ev="http://www.w3.org/2001/xml-events" xmlns:xlink="http://www.w3.org/1999/xlink">
  <defs/>
  <rect fill="white" height="330" width="330" x="0" y="0"/>
  <rect fill="#6dd6ff" height="5" stroke-width="0" transform=" rotate(0, 49, 50)" width="5" x="46.7104" y="48.0243"/>
  <polygon fill="#6dd6ff" points="57.3972,52.4021 59.8972,47.4021 62.3972,52.4021" stroke-width="0" transform=" rotate(0, 59, 49)"/>
  <ellipse cx="70.4341" cy="49.7923" fill="#6dd6ff" rx="2.5" ry="2.5" stroke-width="0" transform=" rotate(0, 70, 49)"/>
  <rect fill="#6dd6ff" height="5" stroke-width="0" transform=" rotate(0, 79, 50)" width="5" x="76.64" y="48.3357"/>
  <polygon fill="#6dd6ff" points="88.2882,53.1556 90.7882,48.1556 93.2882,53.1556" stroke-width="0" transform=" rotate(0, 90, 50)"/>
  <ellipse cx="100.4335" cy="48.9801" fill="#6dd6ff" rx="2.5" ry="2.5" stroke-width="0" transform=" rotate(0, 100, 48)"/>
  <rect fill="#6dd6ff" height="5" stroke-width="0" transform=" rotate(0, 110, 50)" width="5" x="107.5349" y="48.1798"/>
  <polygon fill="#6dd6ff" points="116.6558,53.3829 119.1558,48.3829 121.6558,53.3829" stroke-width="0" transform=" rotate(0, 119, 50)"/>
  <ellipse cx="130.6846" cy="50.6717" fill="#6dd6ff" rx="2.5" ry="2.5" stroke-width="0" transform=" rotate(0, 130, 50)"/>
  <rect fill="#6dd6ff" height="5" stroke-width="0" transform=" rotate(0, 139, 50)" width="5" x="137.2735" y="48.4074"/>
  <polygon fill="#6dd6ff" points="146.8853,53.3736 149.3853,48.3736 151.8853,53.3736" stroke-width="0" transform=" rotate(0, 149, 50)"/>
  <ellipse cx="160.1996" cy="49.1579" fill="#6dd6ff" rx="2.5" ry="2.5" stroke-width="0" transform=" rotate(0, 160, 49)"/>
  <rect fill="#6dd6ff" height="5" stroke-width="0" transform=" rotate(0, 170, 49)" width="5" x="168.4232" y="47.1192"/>
  <polygon fill="#6dd6ff" points="176.8225,52.3698 179.3225,47.3698 181.8225,52.3698" stroke-width="0" transform=" rotate(0, 179, 49)"/>
  <ellipse cx="190.1384" cy="49.4222" fill="#6dd6ff" rx="2.5" ry="2.5" stroke-width="0" transform=" rotate(0, 190, 49)"/>
  <rect fill="#6dd6ff" height="5" stroke-width="0" transform=" rotate(0, 200, 50)" width="5" x="197.8862" y="47.7223"/>
  <polygon fill="#6dd6ff" points="206.7982,52.6811 209.2982,47.6811 211.7982,52.6811" stroke-width="0" transform=" rotate(0, 209, 50)"/>
  <ellipse cx="220.0397" cy="49.1504" fill="#6dd6ff" rx="2.5" ry="2.5" stroke-width="0" transform=" rotate(0, 220, 49)"/>
  <rect fill="#6dd6ff" height="5" stroke-width="0" transform=" rotate(0, 230, 50)" width="5" x="227.8578" y="48.3882"/>
  <polygon fill="#6dd6ff" points="237.4404,51.5075 239.9404,46.5075 242.4404,51.5075" stroke-width="0" transform=" rotate(0, 239, 49)"/>
  <ellipse cx="249.3242" cy="50.4472" fill="#6dd6ff" rx="2.5" ry="2.5" stroke-width="0" transform=" rotate(0, 249, 50)"/>
  <rect fill="#6dd6ff" height="5" stroke-width="0" transform=" rotate(0, 260, 49)" width="5" x="257.8223" y="46.8305"/>
  <polygon fill="#6dd6ff" points="267.3796,52.1119 269.8796,47.1119 272.3796,52.1119" stroke-width="0" transform=" rotate(0, 269, 49)"/>
  <ellipse cx="280.7881" cy="49.9232" fill="#6dd6ff" rx="2.5" ry="2.5" stroke-width="0" transform=" rotate(0, 280, 49)"/>
  <rect fill="#1b9fd8" height="7" stroke-width="0" transform=" rotate(0, 49, 60)" width="7" x="46.4232" y="56.6989"/>
  <polygon fill="#1b9fd8" points="56.6612,63.0081 60.1612,56.0081 63.6612,63.0081" stroke-width="0" transform=" rotate(0, 60, 59)"/>
  <ellipse cx="70.3995" cy="60.7361" fill="#1b9fd8" rx="3.5" ry="3.5" stroke-width="0" transform=" rotate(0, 70, 60)"/>
  <rect fill="#1b9fd8" height="7" stroke-width="0" transform=" rotate(0, 79, 60)" width="7" x="76.0408" y="56.8061"/>
  <polygon fill="#1b9fd8" points="86.8459,62.8495 90.3459,55.8495 93.8459,62.8495" stroke-width="0" transform=" rotate(0, 90, 59)"/>
  <ellipse cx="100.9323" cy="60.3735" fill="#1b9fd8" rx="3.5" ry="3.5" stroke-width="0" transform=" rotate(0, 100, 60)"/>
  <rect fill="#1b9fd8" height="7" stroke-width="0" transform=" rotate(0, 109, 60)" width="7" x="105.6008" y="56.9338"/>
  <polygon fill="#1b9fd8" points="116.2744,64.2111 119.7744,57.2111 123.2744,64.2111" stroke-width="0" transform=" rotate(0, 119, 60)"/>
  <ellipse cx="130.3676" cy="59.6055" fill="#1b9fd8" rx="3.5" ry="3.5" stroke-width="0" transform=" rotate(0, 130, 59)"/>
  <rect fill="#1b9fd8" height="7" stroke-width="0" transform=" rotate(0, 139, 59)" width="7" x="136.4254" y="55.9547"/>
  <polygon fill="#1b9fd8" points="147.426,63.9931 150.926,56.9931 154.426,63.9931" stroke-width="0" transform=" rotate(0, 150, 60)"/>
  <ellipse cx="160.4022" cy="59.4744" fill="#1b9fd8" rx="3.5" ry="3.5" stroke-width="0" transform=" rotate(0, 160, 59)"/>
  <rect fill="#1b9fd8" height="7" stroke-width="0" transform=" rotate(0, 169, 60)" width="7" x="166.4988" y="57.1176"/>
  <polygon fill="#1b9fd8" points="177.3718,64.0249 180.8718,57.0249 184.3718,64.0249" stroke-width="0" transform=" rotate(0, 180, 60)"/>
  <ellipse cx="190.3239" cy="59.9072" fill="#1b9fd8" rx="3.5" ry="3.5" stroke-width="0" transform=" rotate(0, 190, 59)"/>
  <rect fill="#1b9fd8" height="7" stroke-width="0" transform=" rotate(0, 200, 60)" width="7" x="196.7535" y="57.4321"/>
  <polygon fill="#1b9fd8" points="206.6728,63.448 210.1728,56.448 213.6728,63.448" stroke-width="0" transform=" rotate(0, 210, 59)"/>
  <ellipse cx="220.2392" cy="60.7878" fill="#1b9fd8" rx="3.5" ry="3.5" stroke-width="0" transform=" rotate(0, 220, 60)"/>
  <rect fill="#1b9fd8" height="7" stroke-width="0" transform=" rotate(0, 230, 60)" width="7" x="226.8054" y="56.6084"/>
  <polygon fill="#1b9fd8" points="237.4589,63.3904 240.9589,56.3904 244.4589,63.3904" stroke-width="0" transform=" rotate(0, 240, 59)"/>
  <ellipse cx="249.6787" cy="59.4529" fill="#1b9fd8" rx="3.5" ry="3.5" stroke-width="0" transform=" rotate(0, 249, 59)"/>
  <rect fill="#1b9fd8" height="7" stroke-width="0" transform=" rotate(0, 260, 59)" width="7" x="257.3772" y="55.5461"/>
  <polygon fill="#1b9fd8" points="266.2489,63.113 269.7489,56.113 273.2489,63.113" stroke-width="0" transform=" rotate(0, 269, 59)"/>
  <ellipse cx="279.5295" cy="60.0985" fill="#1b9fd8" rx="3.5" ry="3.5" stroke-width="0" transform=" rotate(0, 279, 60)"/>
  <rect fill="#006ca1" height="9" stroke-width="0" transform=" rotate(0, 49, 69)" width="9" x="44.643" y="64.5009"/>
  <polygon fill="#006ca1" points="56.3842,75.2541 60.8842,66.2541 65.3842,75.2541" stroke-width="0" transform=" rotate(0, 60, 70)"/>
  <ellipse cx="69.2711" cy="70.2936" fill="#006ca1" rx="4.5" ry="4.5" stroke-width="0" transform=" rotate(0, 69, 70)"/>
  <rect fill="#006ca1" height="9" stroke-width="0" transform=" rotate(0, 79, 70)" width="9" x="75.271" y="65.8059"/>
  <polygon fill="#006ca1" points="86.3109,75.132 90.8109,66.132 95.3109,75.132" stroke-width="0" transform=" rotate(0, 90, 70)"/>
  <ellipse cx="100.4873" cy="70.6274" fill="#006ca1" rx="4.5" ry="4.5" stroke-width="0" transform=" rotate(0, 100, 70)"/>
  <rect fill="#006ca1" height="9" stroke-width="0" transform=" rotate(0, 109, 69)" width="9" x="105.0196" y="64.8999"/>
  <polygon fill="#006ca1" points="115.2186,73.6272 119.7186,64.6272 124.2186,73.6272" stroke-width="0" transform=" rotate(0, 119, 69)"/>
  <ellipse cx="129.8774" cy="70.7391" fill="#006ca1" rx="4.5" ry="4.5" stroke-width="0" transform=" rotate(0, 129, 70)"/>
  <rect fill="#006ca1" height="9" stroke-width="0" transform=" rotate(0, 139, 70)" width="9" x="135.1169" y="65.7715"/>
  <polygon fill="#006ca1" points="145.3004,73.5015 149.8004,64.5015 154.3004,73.5015" stroke-width="0" transform=" rotate(0, 149, 69)"/>
  <ellipse cx="159.525" cy="69.3814" fill="#006ca1" rx="4.5" ry="4.5" stroke-width="0" transform=" rotate(0, 159, 69)"/>
  <rect fill="#006ca1" height="9" stroke-width="0" transform=" rotate(0, 169, 69)" width="9" x="164.6623" y="65.3624"/>
  <polygon fill="#006ca1" points="176.2515,74.9914 180.7515,65.9914 185.2515,74.9914" stroke-width="0" transform=" rotate(0, 180, 70)"/>
  <ellipse cx="189.0556" cy="69.7433" fill="#006ca1" rx="4.5" ry="4.5" stroke-width="0" transform=" rotate(0, 189, 69)"/>
  <rect fill="#006ca1" height="9" stroke-width="0" transform=" rotate(0, 200, 70)" width="9" x="195.8182" y="65.5189"/>
  <polygon fill="#006ca1" points="204.6919,74.2259 209.1919,65.2259 213.6919,74.2259" stroke-width="0" transform=" rotate(0, 209, 69)"/>
  <ellipse cx="219.87" cy="69.5387" fill="#006ca1" rx="4.5" ry="4.5" stroke-width="0" transform=" rotate(0, 219, 69)"/>
  <rect fill="#006ca1" height="9" stroke-width="0" transform=" rotate(0, 229, 69)" width="9" x="224.6646" y="65.3939"/>
  <polygon fill="#006ca1" points="236.096,74.1402 240.596,65.1402 245.096,74.1402" stroke-width="0" transform=" rotate(0, 240, 69)"/>
  <ellipse cx="250.1211" cy="69.2723" fill="#006ca1" rx="4.5" ry="4.5" stroke-width="0" transform=" rotate(0, 250, 69)"/>
  <rect fill="#006ca1" height="9" stroke-width="0" transform=" rotate(0, 259, 70)" width="9" x="255.1963" y="65.6886"/>
  <polygon fill="#006ca1" points="266.2537,75.2888 270.7537,66.2888 275.2537,75.2888" stroke-width="0" transform=" rotate(0, 270, 70)"/>
  <ellipse cx="279.7598" cy="70.8055" fill="#006ca1" rx="4.5" ry="4.5" stroke-width="0" transform=" rotate(0, 279, 70)"/>
  <rect fill="#6dd6ff" height="5" stroke-width="0" transform=" rotate(0, 49, 80)" width="5" x="46.8716" y="78.0576"/>
  <polygon fill="#6dd6ff" points="57.4625,82.5726 59.9625,77.5726 62.4625,82.5726" stroke-width="0" transform=" rotate(0, 59, 80)"/>
  <ellipse cx="70.293" cy="80.2118" fill="#6dd6ff" rx="2.5" ry="2.5" stroke-width="0" transform=" rotate(0, 70, 80)"/>
  <rect fill="#6dd6ff" height="5" stroke-width="0" transform=" rotate(0, 79, 79)" width="5" x="76.8459" y="77.4916"/>
  <polygon fill="#6dd6ff" points="87.2759,83.2469 89.7759,78.2469 92.2759,83.2469" stroke-width="0" transform=" rotate(0, 89, 80)"/>
  <ellipse cx="99.3633" cy="79.0157" fill="#6dd6ff" rx="2.5" ry="2.5" stroke-width="0" transform=" rotate(0, 99, 79)"/>
  <rect fill="#6dd6ff" height="5" stroke-width="0" transform=" rotate(0, 109, 80)" width="5" x="106.8279" y="77.599"/>
  <polygon fill="#6dd6ff" points="117.7307,83.3703 120.2307,78.3703 122.7307,83.3703" stroke-width="0" transform=" rotate(0, 120, 80)"/>
  <ellipse cx="130.402" cy="80.4651" fill="#6dd6ff" rx="2.5" ry="2.5" stroke-width="0" transform=" rotate(0, 130, 80)"/>
  <rect fill="#6dd6ff" height="5" stroke-width="0" transform=" rotate(0, 139, 79)" width="5" x="136.5196" y="76.7844"/>
  <polygon fill="#6dd6ff" points="147.0007,81.9614 149.5007,76.9614 152.0007,81.9614" stroke-width="0" transform=" rotate(0, 149, 79)"/>
  <ellipse cx="159.212" cy="79.8033" fill="#6dd6ff" rx="2.5" ry="2.5" stroke-width="0" transform=" rotate(0, 159, 79)"/>
  <rect fill="#6dd6ff" height="5" stroke-width="0" transform=" rotate(0, 170, 79)" width="5" x="168.0682" y="76.7836"/>
  <polygon fill="#6dd6ff" points="178.4864,82.3867 180.9864,77.3867 183.4864,82.3867" stroke-width="0" transform=" rotate(0, 180, 79)"/>
  <ellipse cx="189.2768" cy="80.5164" fill="#6dd6ff" rx="2.5" ry="2.5" stroke-width="0" transform=" rotate(0, 189, 80)"/>
  <rect fill="#6dd6ff" height="5" stroke-width="0" transform=" rotate(0, 200, 80)" width="5" x="197.791" y="78.2555"/>
  <polygon fill="#6dd6ff" points="208.0979,81.5145 210.5979,76.5145 213.0979,81.5145" stroke-width="0" transform=" rotate(0, 210, 79)"/>
  <ellipse cx="219.1884" cy="80.0552" fill="#6dd6ff" rx="2.5" ry="2.5" stroke-width="0" transform=" rotate(0, 219, 80)"/>
  <rect fill="#6dd6ff" height="5" stroke-width="0" transform=" rotate(0, 229, 80)" width="5" x="227.2078" y="78.1637"/>
  <polygon fill="#6dd6ff" points="237.2311,81.489 239.7311,76.489 242.2311,81.489" stroke-width="0" transform=" rotate(0, 239, 78)"/>
  <ellipse cx="249.2626" cy="80.8685" fill="#6dd6ff" rx="2.5" ry="2.5" stroke-width="0" transform=" rotate(0, 249, 80)"/>
  <rect fill="#6dd6ff" height="5" stroke-width="0" transform=" rotate(0, 259, 80)" width="5" x="256.6116" y="78.1446"/>
  <polygon fill="#6dd6ff" points="266.8861,82.5163 269.3861,77.5163 271.8861,82.5163" stroke-width="0" transform=" rotate(0, 269, 80)"/>
  <ellipse cx="279.7325" cy="79.7954" fill="#6dd6ff" rx="2.5" ry="2.5" stroke-width="0" transform=" rotate(0, 279, 79)"/>
  <rect fill="#1b9fd8" height="7" stroke-width="0" transform=" rotate(0, 49, 89)" width="7" x="46.2635" y="85.7203"/>
  <polygon fill="#1b9fd8" points="55.9343,94.4683 59.4343,87.4683 62.9343,94.4683" stroke-width="0" transform=" rotate(0, 59, 90)"/>
  <ellipse cx="70.3899" cy="89.667" fill="#1b9fd8" rx="3.5" ry="3.5" stroke-width="0" transform=" rotate(0, 70, 89)"/>
  <rect fill="#1b9fd8" height="7" stroke-width="0" transform=" rotate(0, 79, 89)" width="7" x="76.2115" y="86.3995"/>
  <polygon fill="#1b9fd8" points="87.4334,93.5801 90.9334,86.5801 94.4334,93.5801" stroke-width="0" transform=" rotate(0, 90, 90)"/>
  <ellipse cx="100.1611" cy="89.9729" fill="#1b9fd8" rx="3.5" ry="3.5" stroke-width="0" transform=" rotate(0, 100, 89)"/>
  <rect fill="#1b9fd8" height="7" stroke-width="0" transform=" rotate(0, 110, 90)" width="7" x="107.2555" y="87.4236"/>
  <polygon fill="#1b9fd8" points="115.7539,92.5731 119.2539,85.5731 122.7539,92.5731" stroke-width="0" transform=" rotate(0, 119, 89)"/>
  <ellipse cx="129.7253" cy="89.4313" fill="#1b9fd8" rx="3.5" ry="3.5" stroke-width="0" transform=" rotate(0, 129, 89)"/>
  <rect fill="#1b9fd8" height="7" stroke-width="0" transform=" rotate(0, 140, 90)" width="7" x="137.3036" y="87.3419"/>
  <polygon fill="#1b9fd8" points="146.2338,93.3496 149.7338,86.3496 153.2338,93.3496" stroke-width="0" transform=" rotate(0, 149, 89)"/>
  <ellipse cx="159.2105" cy="90.6506" fill="#1b9fd8" rx="3.5" ry="3.5" stroke-width="0" transform=" rotate(0, 159, 90)"/>
  <rect fill="#1b9fd8" height="7" stroke-width="0" transform=" rotate(0, 169, 89)" width="7" x="166.2285" y="86.2101"/>
  <polygon fill="#1b9fd8" points="176.7973,94.0254 180.2973,87.0254 183.7973,94.0254" stroke-width="0" transform=" rotate(0, 180, 90)"/>
  <ellipse cx="189.7777" cy="89.8563" fill="#1b9fd8" rx="3.5" ry="3.5" stroke-width="0" transform=" rotate(0, 189, 89)"/>
  <rect fill="#1b9fd8" height="7" stroke-width="0" transform=" rotate(0, 200, 89)" width="7" x="197.3697" y="85.9272"/>
  <polygon fill="#1b9fd8" points="205.8892,94.3882 209.3892,87.3882 212.8892,94.3882" stroke-width="0" transform=" rotate(0, 209, 90)"/>
  <ellipse cx="219.4821" cy="89.2364" fill="#1b9fd8" rx="3.5" ry="3.5" stroke-width="0" transform=" rotate(0, 219, 89)"/>
  <rect fill="#1b9fd8" height="7" stroke-width="0" transform=" rotate(0, 230, 89)" width="7" x="227.4391" y="85.7583"/>
  <polygon fill="#1b9fd8" points="236.0309,93.5229 239.5309,86.5229 243.0309,93.5229" stroke-width="0" transform=" rotate(0, 239, 90)"/>
  <ellipse cx="250.6237" cy="89.546" fill="#1b9fd8" rx="3.5" ry="3.5" stroke-width="0" transform=" rotate(0, 250, 89)"/>
  <rect fill="#1b9fd8" height="7" stroke-width="0" transform=" rotate(0, 259, 89)" width="7" x="255.6804" y="86.3965"/>
  <polygon fill="#1b9fd8" points="265.7108,93.5951 269.2108,86.5951 272.7108,93.5951" stroke-width="0" transform=" rotate(0, 269, 90)"/>
  <ellipse cx="279.594" cy="89.8775" fill="#1b9fd8" rx="3.5" ry="3.5" stroke-width="0" transform=" rotate(0, 279, 89)"/>
  <rect fill="#006ca1" height="9" stroke-width="0" transform=" rotate(0, 50, 100)" width="9" x="46.2478" y="96.315"/>
  <polygon fill="#006ca1" points="56.2946,104.3338 60.7946,95.3338 65.2946,104.3338" stroke-width="0" transform=" rotate(0, 60, 99)"/>
  <ellipse cx="70.7388" cy="100.0676" fill="#006ca1" rx="4.5" ry="4.5" stroke-width="0" transform=" rotate(0, 70, 100)"/>
  <rect fill="#006ca1" height="9" stroke-width="0" transform=" rotate(0, 80, 99)" width="9" x="76.2849" y="94.5606"/>
  <polygon fill="#006ca1" points="84.6616,103.841 89.1616,94.841 93.6616,103.841" stroke-width="0" transform=" rotate(0, 89, 99)"/>
  <ellipse cx="99.7412" cy="100.3612" fill="#006ca1" rx="4.5" ry="4.5" stroke-width="0" transform=" rotate(0, 99, 100)"/>
  <rect fill="#006ca1" height="9" stroke-width="0" transform=" rotate(0, 110, 100)" width="9" x="105.854" y="96.3659"/>
  <polygon fill="#006ca1" points="116.0406,103.8098 120.5406,94.8098 125.0406,103.8098" stroke-width="0" transform=" rotate(0, 120, 99)"/>
  <ellipse cx="130.5074" cy="100.2525" fill="#006ca1" rx="4.5" ry="4.5" stroke-width="0" transform=" rotate(0, 130, 100)"/>
  <rect fill="#006ca1" height="9" stroke-width="0" transform=" rotate(0, 139, 99)" width="9" x="135.3968" y="94.9088"/>
  <polygon fill="#006ca1" points="145.9735,105.3187 150.4735,96.3187 154.9735,105.3187" stroke-width="0" transform=" rotate(0, 150, 100)"/>
  <ellipse cx="160.4758" cy="100.1155" fill="#006ca1" rx="4.5" ry="4.5" stroke-width="0" transform=" rotate(0, 160, 100)"/>
  <rect fill="#006ca1" height="9" stroke-width="0" transform=" rotate(0, 170, 100)" width="9" x="166.3475" y="96.2219"/>
  <polygon fill="#006ca1" points="174.5493,104.6686 179.0493,95.6686 183.5493,104.6686" stroke-width="0" transform=" rotate(0, 179, 100)"/>
  <ellipse cx="190.5369" cy="100.3574" fill="#006ca1" rx="4.5" ry="4.5" stroke-width="0" transform=" rotate(0, 190, 100)"/>
  <rect fill="#006ca1" height="9" stroke-width="0" transform=" rotate(0, 200, 99)" width="9" x="195.9371" y="95.0341"/>
  <polygon fill="#006ca1" points="205.7796,103.8469 210.2796,94.8469 214.7796,103.8469" stroke-width="0" transform=" rotate(0, 210, 99)"/>
  <ellipse cx="220.1837" cy="99.6317" fill="#006ca1" rx="4.5" ry="4.5" stroke-width="0" transform=" rotate(0, 220, 99)"/>
  <rect fill="#006ca1" height="9" stroke-width="0" transform=" rotate(0, 229, 100)" width="9" x="224.9318" y="96.1747"/>
  <polygon fill="#006ca1" points="236.131,103.8852 240.631,94.8852 245.131,103.8852" stroke-width="0" transform=" rotate(0, 240, 99)"/>
  <ellipse cx="250.4903" cy="100.1488" fill="#006ca1" rx="4.5" ry="4.5" stroke-width="0" transform=" rotate(0, 250, 100)"/>
  <rect fill="#006ca1" height="9" stroke-width="0" transform=" rotate(0, 259, 99)" width="9" x="254.8631" y="95.2981"/>
  <polygon fill="#006ca1" points="264.7053,104.7042 269.2053,95.7042 273.7053,104.7042" stroke-width="0" transform=" rotate(0, 269, 100)"/>
  <ellipse cx="280.8273" cy="99.3651" fill="#006ca1" rx="4.5" ry="4.5" stroke-width="0" transform=" rotate(0, 280, 99)"/>
  <rect fill="#6dd6ff" height="5" stroke-width="0" transform=" rotate(0, 49, 110)" width="5" x="46.9481" y="108.1228"/>
  <polygon fill="#6dd6ff" points="56.6771,112.134 59.1771,107.134 61.6771,112.134" stroke-width="0" transform=" rotate(0, 59, 109)"/>
  <ellipse cx="69.0148" cy="110.4913" fill="#6dd6ff" rx="2.5" ry="2.5" stroke-width="0" transform=" rotate(0, 69, 110)"/>
  <rect fill="#6dd6ff" height="5" stroke-width="0" transform=" rotate(0, 80, 110)" width="5" x="77.7965" y="107.6449"/>
  <polygon fill="#6dd6ff" points="86.6016,112.2779 89.1016,107.2779 91.6016,112.2779" stroke-width="0" transform=" rotate(0, 89, 109)"/>
  <ellipse cx="99.3887" cy="110.7393" fill="#6dd6ff" rx="2.5" ry="2.5" stroke-width="0" transform=" rotate(0, 99, 110)"/>
  <rect fill="#6dd6ff" height="5" stroke-width="0" transform=" rotate(0, 110, 110)" width="5" x="107.9562" y="107.9935"/>
  <polygon fill="#6dd6ff" points="117.8378,112.5112 120.3378,107.5112 122.8378,112.5112" stroke-width="0" transform=" rotate(0, 120, 110)"/>
  <ellipse cx="130.321" cy="109.4934" fill="#6dd6ff" rx="2.5" ry="2.5" stroke-width="0" transform=" rotate(0, 130, 109)"/>
  <rect fill="#6dd6ff" height="5" stroke-width="0" transform=" rotate(0, 140, 109)" width="5" x="138.4035" y="106.5997"/>
  <polygon fill="#6dd6ff" points="147.7799,112.8491 150.2799,107.8491 152.7799,112.8491" stroke-width="0" transform=" rotate(0, 150, 110)"/>
  <ellipse cx="160.415" cy="109.9309" fill="#6dd6ff" rx="2.5" ry="2.5" stroke-width="0" transform=" rotate(0, 160, 109)"/>
  <rect fill="#6dd6ff" height="5" stroke-width="0" transform=" rotate(0, 169, 110)" width="5" x="167.3256" y="107.5087"/>
  <polygon fill="#6dd6ff" points="178.0564,113.4446 180.5564,108.4446 183.0564,113.4446" stroke-width="0" transform=" rotate(0, 180, 110)"/>
  <ellipse cx="189.6088" cy="110.3493" fill="#6dd6ff" rx="2.5" ry="2.5" stroke-width="0" transform=" rotate(0, 189, 110)"/>
  <rect fill="#6dd6ff" height="5" stroke-width="0" transform=" rotate(0, 200, 109)" width="5" x="198.3909" y="106.889"/>
  <polygon fill="#6dd6ff" points="207.5246,113.3217 210.0246,108.3217 212.5246,113.3217" stroke-width="0" transform=" rotate(0, 210, 110)"/>
  <ellipse cx="219.6162" cy="110.038" fill="#6dd6ff" rx="2.5" ry="2.5" stroke-width="0" transform=" rotate(0, 219, 110)"/>
  <rect fill="#6dd6ff" height="5" stroke-width="0" transform=" rotate(0, 230, 110)" width="5" x="228.3255" y="108.0442"/>
  <polygon fill="#6dd6ff" points="238.3669,111.5167 240.8669,106.5167 243.3669,111.5167" stroke-width="0" transform=" rotate(0, 240, 109)"/>
  <ellipse cx="250.808" cy="109.7475" fill="#6dd6ff" rx="2.5" ry="2.5" stroke-width="0" transform=" rotate(0, 250, 109)"/>
  <rect fill="#6dd6ff" height="5" stroke-width="0" transform=" rotate(0, 259, 109)" width="5" x="256.8103" y="106.7558"/>
  <polygon fill="#6dd6ff" points="267.3242,112.0982 269.8242,107.0982 272.3242,112.0982" stroke-width="0" transform=" rotate(0, 269, 109)"/>
  <ellipse cx="280.4974" cy="109.8676" fill="#6dd6ff" rx="2.5" ry="2.5" stroke-width="0" transform=" rotate(0, 280, 109)"/>
  <rect fill="#1b9fd8" height="7" stroke-width="0" transform=" rotate(0, 50, 120)" width="7" x="46.7798" y="117.3175"/>
  <polygon fill="#1b9fd8" points="56.4785,124.2156 59.9785,117.2156 63.4785,124.2156" stroke-width="0" transform=" rotate(0, 59, 120)"/>
  <ellipse cx="70.7904" cy="119.8794" fill="#1b9fd8" rx="3.5" ry="3.5" stroke-width="0" transform=" rotate(0, 70, 119)"/>
  <rect fill="#1b9fd8" height="7" stroke-width="0" transform=" rotate(0, 79, 119)" width="7" x="75.8958" y="115.7808"/>
  <polygon fill="#1b9fd8" points="86.2455,124.2402 89.7455,117.2402 93.2455,124.2402" stroke-width="0" transform=" rotate(0, 89, 120)"/>
  <ellipse cx="100.6899" cy="119.8662" fill="#1b9fd8" rx="3.5" ry="3.5" stroke-width="0" transform=" rotate(0, 100, 119)"/>
  <rect fill="#1b9fd8" height="7" stroke-width="0" transform=" rotate(0, 110, 120)" width="7" x="106.878" y="117.3037"/>
  <polygon fill="#1b9fd8" points="117.4361,123.2796 120.9361,116.2796 124.4361,123.2796" stroke-width="0" transform=" rotate(0, 120, 119)"/>
  <ellipse cx="130.2042" cy="119.1574" fill="#1b9fd8" rx="3.5" ry="3.5" stroke-width="0" transform=" rotate(0, 130, 119)"/>
  <rect fill="#1b9fd8" height="7" stroke-width="0" transform=" rotate(0, 140, 119)" width="7" x="136.6595" y="116.2861"/>
  <polygon fill="#1b9fd8" points="146.4295,123.5371 149.9295,116.5371 153.4295,123.5371" stroke-width="0" transform=" rotate(0, 149, 120)"/>
  <ellipse cx="160.5286" cy="120.8154" fill="#1b9fd8" rx="3.5" ry="3.5" stroke-width="0" transform=" rotate(0, 160, 120)"/>
  <rect fill="#1b9fd8" height="7" stroke-width="0" transform=" rotate(0, 169, 120)" width="7" x="165.5266" y="116.7915"/>
  <polygon fill="#1b9fd8" points="175.8759,122.559 179.3759,115.559 182.8759,122.559" stroke-width="0" transform=" rotate(0, 179, 119)"/>
  <ellipse cx="189.4575" cy="120.9381" fill="#1b9fd8" rx="3.5" ry="3.5" stroke-width="0" transform=" rotate(0, 189, 120)"/>
  <rect fill="#1b9fd8" height="7" stroke-width="0" transform=" rotate(0, 200, 119)" width="7" x="196.5382" y="116.3913"/>
  <polygon fill="#1b9fd8" points="207.4538,122.7688 210.9538,115.7688 214.4538,122.7688" stroke-width="0" transform=" rotate(0, 210, 119)"/>
  <ellipse cx="219.7395" cy="119.6681" fill="#1b9fd8" rx="3.5" ry="3.5" stroke-width="0" transform=" rotate(0, 219, 119)"/>
  <rect fill="#1b9fd8" height="7" stroke-width="0" transform=" rotate(0, 230, 120)" width="7" x="226.9915" y="117.0703"/>
  <polygon fill="#1b9fd8" points="236.6432,124.3022 240.1432,117.3022 243.6432,124.3022" stroke-width="0" transform=" rotate(0, 240, 120)"/>
  <ellipse cx="250.8958" cy="119.8702" fill="#1b9fd8" rx="3.5" ry="3.5" stroke-width="0" transform=" rotate(0, 250, 119)"/>
  <rect fill="#1b9fd8" height="7" stroke-width="0" transform=" rotate(0, 260, 119)" width="7" x="256.9426" y="116.0616"/>
  <polygon fill="#1b9fd8" points="267.4066,124.348 270.9066,117.348 274.4066,124.348" stroke-width="0" transform=" rotate(0, 270, 120)"/>
  <ellipse cx="280.9286" cy="119.7432" fill="#1b9fd8" rx="3.5" ry="3.5" stroke-width="0" transform=" rotate(0, 280, 119)"/>
  <rect fill="#006ca1" height="9" stroke-width="0" transform=" rotate(0, 49, 130)" width="9" x="45.2665" y="125.7929"/>
  <polygon fill="#006ca1" points="55.9345,135.0398 60.4345,126.0398 64.9345,135.0398" stroke-width="0" transform=" rotate(0, 60, 130)"/>
  <ellipse cx="70.0389" cy="130.6739" fill="#006ca1" rx="4.5" ry="4.5" stroke-width="0" transform=" rotate(0, 70, 130)"/>
  <rect fill="#006ca1" height="9" stroke-width="0" transform=" rotate(0, 80, 130)" width="9" x="75.5772" y="126.1974"/>
  <polygon fill="#006ca1" points="86.4694,133.8669 90.9694,124.8669 95.4694,133.8669" stroke-width="0" transform=" rotate(0, 90, 129)"/>
  <ellipse cx="100.1295" cy="129.4817" fill="#006ca1" rx="4.5" ry="4.5" stroke-width="0" transform=" rotate(0, 100, 129)"/>
  <rect fill="#006ca1" height="9" stroke-width="0" transform=" rotate(0, 110, 130)" width="9" x="106.0457" y="125.591"/>
  <polygon fill="#006ca1" points="115.453,134.8277 119.953,125.8277 124.453,134.8277" stroke-width="0" transform=" rotate(0, 119, 130)"/>
  <ellipse cx="130.1653" cy="130.0226" fill="#006ca1" rx="4.5" ry="4.5" stroke-width="0" transform=" rotate(0, 130, 130)"/>
  <rect fill="#006ca1" height="9" stroke-width="0" transform=" rotate(0, 139, 130)" width="9" x="135.2039" y="125.9353"/>
  <polygon fill="#006ca1" points="145.4797,134.7346 149.9797,125.7346 154.4797,134.7346" stroke-width="0" transform=" rotate(0, 149, 130)"/>
  <ellipse cx="159.4171" cy="130.2446" fill="#006ca1" rx="4.5" ry="4.5" stroke-width="0" transform=" rotate(0, 159, 130)"/>
  <rect fill="#006ca1" height="9" stroke-width="0" transform=" rotate(0, 169, 130)" width="9" x="165.3166" y="125.7751"/>
  <polygon fill="#006ca1" points="175.9766,134.3599 180.4766,125.3599 184.9766,134.3599" stroke-width="0" transform=" rotate(0, 180, 129)"/>
  <ellipse cx="190.55" cy="130.333" fill="#006ca1" rx="4.5" ry="4.5" stroke-width="0" transform=" rotate(0, 190, 130)"/>
  <rect fill="#006ca1" height="9" stroke-width="0" transform=" rotate(0, 199, 130)" width="9" x="194.8248" y="126.4744"/>
  <polygon fill="#006ca1" points="205.1266,134.4266 209.6266,125.4266 214.1266,134.4266" stroke-width="0" transform=" rotate(0, 209, 129)"/>
  <ellipse cx="220.298" cy="130.5182" fill="#006ca1" rx="4.5" ry="4.5" stroke-width="0" transform=" rotate(0, 220, 130)"/>
  <rect fill="#006ca1" height="9" stroke-width="0" transform=" rotate(0, 230, 130)" width="9" x="226.3896" y="126.2278"/>
  <polygon fill="#006ca1" points="234.9212,134.2814 239.4212,125.2814 243.9212,134.2814" stroke-width="0" transform=" rotate(0, 239, 129)"/>
  <ellipse cx="250.7657" cy="129.2264" fill="#006ca1" rx="4.5" ry="4.5" stroke-width="0" transform=" rotate(0, 250, 129)"/>
  <rect fill="#006ca1" height="9" stroke-width="0" transform=" rotate(0, 259, 130)" width="9" x="255.1256" y="125.6252"/>
  <polygon fill="#006ca1" points="265.7053,133.5255 270.2053,124.5255 274.7053,133.5255" stroke-width="0" transform=" rotate(0, 270, 129)"/>
  <ellipse cx="279.2899" cy="130.6941" fill="#006ca1" rx="4.5" ry="4.5" stroke-width="0" transform=" rotate(0, 279, 130)"/>
  <rect fill="#6dd6ff" height="5" stroke-width="0" transform=" rotate(0, 49, 140)" width="5" x="46.76" y="138.2092"/>
  <polygon fill="#6dd6ff" points="57.609,142.7704 60.109,137.7704 62.609,142.7704" stroke-width="0" transform=" rotate(0, 60, 140)"/>
  <ellipse cx="70.6259" cy="140.0184" fill="#6dd6ff" rx="2.5" ry="2.5" stroke-width="0" transform=" rotate(0, 70, 140)"/>
  <rect fill="#6dd6ff" height="5" stroke-width="0" transform=" rotate(0, 80, 140)" width="5" x="77.6165" y="138.2924"/>
  <polygon fill="#6dd6ff" points="86.9663,141.8001 89.4663,136.8001 91.9663,141.8001" stroke-width="0" transform=" rotate(0, 89, 139)"/>
  <ellipse cx="99.645" cy="140.5892" fill="#6dd6ff" rx="2.5" ry="2.5" stroke-width="0" transform=" rotate(0, 99, 140)"/>
  <rect fill="#6dd6ff" height="5" stroke-width="0" transform=" rotate(0, 109, 140)" width="5" x="106.9876" y="138.2213"/>
  <polygon fill="#6dd6ff" points="117.3106,142.526 119.8106,137.526 122.3106,142.526" stroke-width="0" transform=" rotate(0, 119, 140)"/>
  <ellipse cx="130.8404" cy="140.9599" fill="#6dd6ff" rx="2.5" ry="2.5" stroke-width="0" transform=" rotate(0, 130, 140)"/>
  <rect fill="#6dd6ff" height="5" stroke-width="0" transform=" rotate(0, 139, 140)" width="5" x="137.2929" y="138.2433"/>
  <polygon fill="#6dd6ff" points="147.7246,142.7382 150.2246,137.7382 152.7246,142.7382" stroke-width="0" transform=" rotate(0, 150, 140)"/>
  <ellipse cx="159.8712" cy="139.8013" fill="#6dd6ff" rx="2.5" ry="2.5" stroke-width="0" transform=" rotate(0, 159, 139)"/>
  <rect fill="#6dd6ff" height="5" stroke-width="0" transform=" rotate(0, 169, 139)" width="5" x="167.1176" y="136.878"/>
  <polygon fill="#6dd6ff" points="176.4975,141.7187 178.9975,136.7187 181.4975,141.7187" stroke-width="0" transform=" rotate(0, 178, 139)"/>
  <ellipse cx="189.8085" cy="140.6487" fill="#6dd6ff" rx="2.5" ry="2.5" stroke-width="0" transform=" rotate(0, 189, 140)"/>
  <rect fill="#6dd6ff" height="5" stroke-width="0" transform=" rotate(0, 200, 140)" width="5" x="198.0916" y="138.2521"/>
  <polygon fill="#6dd6ff" points="206.5989,141.511 209.0989,136.511 211.5989,141.511" stroke-width="0" transform=" rotate(0, 209, 139)"/>
  <ellipse cx="220.8458" cy="140.8511" fill="#6dd6ff" rx="2.5" ry="2.5" stroke-width="0" transform=" rotate(0, 220, 140)"/>
  <rect fill="#6dd6ff" height="5" stroke-width="0" transform=" rotate(0, 229, 139)" width="5" x="227.4039" y="137.1289"/>
  <polygon fill="#6dd6ff" points="237.7835,142.556 240.2835,137.556 242.7835,142.556" stroke-width="0" transform=" rotate(0, 240, 140)"/>
  <ellipse cx="250.1215" cy="139.2603" fill="#6dd6ff" rx="2.5" ry="2.5" stroke-width="0" transform=" rotate(0, 250, 139)"/>
  <rect fill="#6dd6ff" height="5" stroke-width="0" transform=" rotate(0, 259, 139)" width="5" x="257.3717" y="137.1062"/>
  <polygon fill="#6dd6ff" points="268.2323,143.4043 270.7323,138.4043 273.2323,143.4043" stroke-width="0" transform=" rotate(0, 270, 140)"/>
  <ellipse cx="279.0913" cy="140.3841" fill="#6dd6ff" rx="2.5" ry="2.5" stroke-width="0" transform=" rotate(0, 279, 140)"/>
  <rect fill="#1b9fd8" height="7" stroke-width="0" transform=" rotate(0, 50, 150)" width="7" x="47.4562" y="146.6476"/>
  <polygon fill="#1b9fd8" points="56.4203,153.0735 59.9203,146.0735 63.4203,153.0735" stroke-width="0" transform=" rotate(0, 59, 149)"/>
  <ellipse cx="69.7613" cy="149.8206" fill="#1b9fd8" rx="3.5" ry="3.5" stroke-width="0" transform=" rotate(0, 69, 149)"/>
  <rect fill="#1b9fd8" height="7" stroke-width="0" transform=" rotate(0, 79, 150)" width="7" x="75.991" y="146.6527"/>
  <polygon fill="#1b9fd8" points="87.2313,154.1143 90.7313,147.1143 94.2313,154.1143" stroke-width="0" transform=" rotate(0, 90, 150)"/>
  <ellipse cx="99.4259" cy="150.1293" fill="#1b9fd8" rx="3.5" ry="3.5" stroke-width="0" transform=" rotate(0, 99, 150)"/>
  <rect fill="#1b9fd8" height="7" stroke-width="0" transform=" rotate(0, 110, 150)" width="7" x="106.6204" y="146.7313"/>
  <polygon fill="#1b9fd8" points="117.0456,153.205 120.5456,146.205 124.0456,153.205" stroke-width="0" transform=" rotate(0, 120, 149)"/>
  <ellipse cx="130.6353" cy="149.4833" fill="#1b9fd8" rx="3.5" ry="3.5" stroke-width="0" transform=" rotate(0, 130, 149)"/>
  <rect fill="#1b9fd8" height="7" stroke-width="0" transform=" rotate(0, 139, 149)" width="7" x="136.3486" y="145.8634"/>
  <polygon fill="#1b9fd8" points="146.9159,153.7169 150.4159,146.7169 153.9159,153.7169" stroke-width="0" transform=" rotate(0, 150, 150)"/>
  <ellipse cx="159.6587" cy="150.9607" fill="#1b9fd8" rx="3.5" ry="3.5" stroke-width="0" transform=" rotate(0, 159, 150)"/>
  <rect fill="#1b9fd8" height="7" stroke-width="0" transform=" rotate(0, 169, 150)" width="7" x="165.962" y="147.3936"/>
  <polygon fill="#1b9fd8" points="176.1728,152.7382 179.6728,145.7382 183.1728,152.7382" stroke-width="0" transform=" rotate(0, 179, 149)"/>
  <ellipse cx="189.3253" cy="150.2299" fill="#1b9fd8" rx="3.5" ry="3.5" stroke-width="0" transform=" rotate(0, 189, 150)"/>
  <rect fill="#1b9fd8" height="7" stroke-width="0" transform=" rotate(0, 199, 150)" width="7" x="195.7669" y="146.5404"/>
  <polygon fill="#1b9fd8" points="206.2806,153.3024 209.7806,146.3024 213.2806,153.3024" stroke-width="0" transform=" rotate(0, 209, 149)"/>
  <ellipse cx="220.8233" cy="150.6055" fill="#1b9fd8" rx="3.5" ry="3.5" stroke-width="0" transform=" rotate(0, 220, 150)"/>
  <rect fill="#1b9fd8" height="7" stroke-width="0" transform=" rotate(0, 229, 150)" width="7" x="225.8569" y="147.3209"/>
  <polygon fill="#1b9fd8" points="237.1405,153.7816 240.6405,146.7816 244.1405,153.7816" stroke-width="0" transform=" rotate(0, 240, 150)"/>
  <ellipse cx="249.9233" cy="150.0707" fill="#1b9fd8" rx="3.5" ry="3.5" stroke-width="0" transform=" rotate(0, 249, 150)"/>
  <rect fill="#1b9fd8" height="7" stroke-width="0" transform=" rotate(0, 259, 149)" width="7" x="255.9677" y="145.5079"/>
  <polygon fill="#1b9fd8" points="266.8516,154.2889 270.3516,147.2889 273.8516,154.2889" stroke-width="0" transform=" rotate(0, 270, 150)"/>
  <ellipse cx="280.7627" cy="149.9741" fill="#1b9fd8" rx="3.5" ry="3.5" stroke-width="0" transform=" rotate(0, 280, 149)"/>
  <rect fill="#006ca1" height="9" stroke-width="0" transform=" rotate(0, 50, 159)" width="9" x="45.7597" y="155.0064"/>
  <polygon fill="#006ca1" points="55.2094,164.809 59.7094,155.809 64.2094,164.809" stroke-width="0" transform=" rotate(0, 59, 160)"/>
  <ellipse cx="69.1056" cy="160.0864" fill="#006ca1" rx="4.5" ry="4.5" stroke-width="0" transform=" rotate(0, 69, 160)"/>
  <rect fill="#006ca1" height="9" stroke-width="0" transform=" rotate(0, 80, 159)" width="9" x="75.5822" y="154.8493"/>
  <polygon fill="#006ca1" points="84.6908,163.7846 89.1908,154.7846 93.6908,163.7846" stroke-width="0" transform=" rotate(0, 89, 159)"/>
  <ellipse cx="100.181" cy="160.7266" fill="#006ca1" rx="4.5" ry="4.5" stroke-width="0" transform=" rotate(0, 100, 160)"/>
  <rect fill="#006ca1" height="9" stroke-width="0" transform=" rotate(0, 110, 160)" width="9" x="105.9572" y="156.2264"/>
  <polygon fill="#006ca1" points="115.3066,164.6475 119.8066,155.6475 124.3066,164.6475" stroke-width="0" transform=" rotate(0, 119, 160)"/>
  <ellipse cx="130.5912" cy="160.222" fill="#006ca1" rx="4.5" ry="4.5" stroke-width="0" transform=" rotate(0, 130, 160)"/>
  <rect fill="#006ca1" height="9" stroke-width="0" transform=" rotate(0, 139, 160)" width="9" x="135.1685" y="156.1283"/>
  <polygon fill="#006ca1" points="144.5727,164.4805 149.0727,155.4805 153.5727,164.4805" stroke-width="0" transform=" rotate(0, 149, 159)"/>
  <ellipse cx="159.0555" cy="159.9225" fill="#006ca1" rx="4.5" ry="4.5" stroke-width="0" transform=" rotate(0, 159, 159)"/>
  <rect fill="#006ca1" height="9" stroke-width="0" transform=" rotate(0, 170, 159)" width="9" x="166.218" y="154.974"/>
  <polygon fill="#006ca1" points="175.8881,163.7874 180.3881,154.7874 184.8881,163.7874" stroke-width="0" transform=" rotate(0, 180, 159)"/>
  <ellipse cx="189.0446" cy="160.7675" fill="#006ca1" rx="4.5" ry="4.5" stroke-width="0" transform=" rotate(0, 189, 160)"/>
  <rect fill="#006ca1" height="9" stroke-width="0" transform=" rotate(0, 200, 160)" width="9" x="195.7441" y="155.7963"/>
  <polygon fill="#006ca1" points="206.2123,164.8111 210.7123,155.8111 215.2123,164.8111" stroke-width="0" transform=" rotate(0, 210, 160)"/>
  <ellipse cx="219.4441" cy="160.9141" fill="#006ca1" rx="4.5" ry="4.5" stroke-width="0" transform=" rotate(0, 219, 160)"/>
  <rect fill="#006ca1" height="9" stroke-width="0" transform=" rotate(0, 229, 159)" width="9" x="225.1608" y="154.6101"/>
  <polygon fill="#006ca1" points="235.2411,164.7412 239.7411,155.7412 244.2411,164.7412" stroke-width="0" transform=" rotate(0, 239, 160)"/>
  <ellipse cx="249.1838" cy="159.6537" fill="#006ca1" rx="4.5" ry="4.5" stroke-width="0" transform=" rotate(0, 249, 159)"/>
  <rect fill="#006ca1" height="9" stroke-width="0" transform=" rotate(0, 260, 160)" width="9" x="256.4533" y="155.6335"/>
  <polygon fill="#006ca1" points="266.4666,165.3597 270.9666,156.3597 275.4666,165.3597" stroke-width="0" transform=" rotate(0, 270, 160)"/>
  <ellipse cx="279.2709" cy="159.1169" fill="#006ca1" rx="4.5" ry="4.5" stroke-width="0" transform=" rotate(0, 279, 159)"/>
  <rect fill="#006ca1" height="9" stroke-width="0" transform=" rotate(0, 49, 170)" width="9" x="45.2601" y="166.0897"/>
  <polygon fill="#006ca1" points="56.4265,174.6081 60.9265,165.6081 65.4265,174.6081" stroke-width="0" transform=" rotate(0, 60, 170)"/>
  <ellipse cx="70.8067" cy="169.3431" fill="#006ca1" rx="4.5" ry="4.5" stroke-width="0" transform=" rotate(0, 70, 169)"/>
  <rect fill="#006ca1" height="9" stroke-width="0" transform=" rotate(0, 79, 169)" width="9" x="74.7677" y="165.2489"/>
  <polygon fill="#006ca1" points="85.4372,174.5139 89.9372,165.5139 94.4372,174.5139" stroke-width="0" transform=" rotate(0, 89, 170)"/>
  <ellipse cx="99.8334" cy="170.4758" fill="#006ca1" rx="4.5" ry="4.5" stroke-width="0" transform=" rotate(0, 99, 170)"/>
  <rect fill="#006ca1" height="9" stroke-width="0" transform=" rotate(0, 110, 169)" width="9" x="105.7189" y="164.6489"/>
  <polygon fill="#006ca1" points="115.4763,173.6054 119.9763,164.6054 124.4763,173.6054" stroke-width="0" transform=" rotate(0, 119, 169)"/>
  <ellipse cx="129.7492" cy="169.1496" fill="#006ca1" rx="4.5" ry="4.5" stroke-width="0" transform=" rotate(0, 129, 169)"/>
  <rect fill="#006ca1" height="9" stroke-width="0" transform=" rotate(0, 139, 169)" width="9" x="134.8579" y="165.2361"/>
  <polygon fill="#006ca1" points="145.9593,174.5733 150.4593,165.5733 154.9593,174.5733" stroke-width="0" transform=" rotate(0, 150, 170)"/>
  <ellipse cx="160.2223" cy="170.7962" fill="#006ca1" rx="4.5" ry="4.5" stroke-width="0" transform=" rotate(0, 160, 170)"/>
  <rect fill="#006ca1" height="9" stroke-width="0" transform=" rotate(0, 169, 170)" width="9" x="164.6019" y="166.247"/>
  <polygon fill="#006ca1" points="175.797,174.2945 180.297,165.2945 184.797,174.2945" stroke-width="0" transform=" rotate(0, 180, 169)"/>
  <ellipse cx="190.8397" cy="170.6169" fill="#006ca1" rx="4.5" ry="4.5" stroke-width="0" transform=" rotate(0, 190, 170)"/>
  <rect fill="#006ca1" height="9" stroke-width="0" transform=" rotate(0, 200, 170)" width="9" x="195.5406" y="166.2976"/>
  <polygon fill="#006ca1" points="205.3131,174.4278 209.8131,165.4278 214.3131,174.4278" stroke-width="0" transform=" rotate(0, 209, 169)"/>
  <ellipse cx="220.4851" cy="169.2769" fill="#006ca1" rx="4.5" ry="4.5" stroke-width="0" transform=" rotate(0, 220, 169)"/>
  <rect fill="#006ca1" height="9" stroke-width="0" transform=" rotate(0, 230, 169)" width="9" x="225.8974" y="165.415"/>
  <polygon fill="#006ca1" points="234.8691,174.2855 239.3691,165.2855 243.8691,174.2855" stroke-width="0" transform=" rotate(0, 239, 169)"/>
  <ellipse cx="250.2759" cy="169.8299" fill="#006ca1" rx="4.5" ry="4.5" stroke-width="0" transform=" rotate(0, 250, 169)"/>
  <rect fill="#006ca1" height="9" stroke-width="0" transform=" rotate(0, 260, 169)" width="9" x="256.1084" y="164.7219"/>
  <polygon fill="#006ca1" points="266.3057,174.4259 270.8057,165.4259 275.3057,174.4259" stroke-width="0" transform=" rotate(0, 270, 169)"/>
  <ellipse cx="279.5538" cy="170.1685" fill="#006ca1" rx="4.5" ry="4.5" stroke-width="0" transform=" rotate(0, 279, 170)"/>
  <rect fill="#1b9fd8" height="7" stroke-width="0" transform=" rotate(0, 49, 180)" width="7" x="46.2016" y="177.1231"/>
  <polygon fill="#1b9fd8" points="55.7486,182.934 59.2486,175.934 62.7486,182.934" stroke-width="0" transform=" rotate(0, 59, 179)"/>
  <ellipse cx="69.146" cy="179.3899" fill="#1b9fd8" rx="3.5" ry="3.5" stroke-width="0" transform=" rotate(0, 69, 179)"/>
  <rect fill="#1b9fd8" height="7" stroke-width="0" transform=" rotate(0, 79, 180)" width="7" x="75.6983" y="177.0194"/>
  <polygon fill="#1b9fd8" points="87.358,182.8159 90.858,175.8159 94.358,182.8159" stroke-width="0" transform=" rotate(0, 90, 179)"/>
  <ellipse cx="100.9474" cy="179.7617" fill="#1b9fd8" rx="3.5" ry="3.5" stroke-width="0" transform=" rotate(0, 100, 179)"/>
  <rect fill="#1b9fd8" height="7" stroke-width="0" transform=" rotate(0, 110, 180)" width="7" x="106.6531" y="176.6471"/>
  <polygon fill="#1b9fd8" points="116.4659,183.3656 119.9659,176.3656 123.4659,183.3656" stroke-width="0" transform=" rotate(0, 119, 179)"/>
  <ellipse cx="130.8524" cy="180.8992" fill="#1b9fd8" rx="3.5" ry="3.5" stroke-width="0" transform=" rotate(0, 130, 180)"/>
  <rect fill="#1b9fd8" height="7" stroke-width="0" transform=" rotate(0, 140, 179)" width="7" x="137.4918" y="175.71"/>
  <polygon fill="#1b9fd8" points="146.9387,182.6444 150.4387,175.6444 153.9387,182.6444" stroke-width="0" transform=" rotate(0, 150, 179)"/>
  <ellipse cx="159.9515" cy="180.8285" fill="#1b9fd8" rx="3.5" ry="3.5" stroke-width="0" transform=" rotate(0, 159, 180)"/>
  <rect fill="#1b9fd8" height="7" stroke-width="0" transform=" rotate(0, 170, 180)" width="7" x="167.0639" y="176.707"/>
  <polygon fill="#1b9fd8" points="176.3721,184.0968 179.8721,177.0968 183.3721,184.0968" stroke-width="0" transform=" rotate(0, 179, 180)"/>
  <ellipse cx="189.8066" cy="179.0302" fill="#1b9fd8" rx="3.5" ry="3.5" stroke-width="0" transform=" rotate(0, 189, 179)"/>
  <rect fill="#1b9fd8" height="7" stroke-width="0" transform=" rotate(0, 200, 179)" width="7" x="196.6598" y="175.6518"/>
  <polygon fill="#1b9fd8" points="207.3707,184.1233 210.8707,177.1233 214.3707,184.1233" stroke-width="0" transform=" rotate(0, 210, 180)"/>
  <ellipse cx="219.9361" cy="179.3911" fill="#1b9fd8" rx="3.5" ry="3.5" stroke-width="0" transform=" rotate(0, 219, 179)"/>
  <rect fill="#1b9fd8" height="7" stroke-width="0" transform=" rotate(0, 230, 180)" width="7" x="226.6383" y="177.1196"/>
  <polygon fill="#1b9fd8" points="236.2039,182.5979 239.7039,175.5979 243.2039,182.5979" stroke-width="0" transform=" rotate(0, 239, 179)"/>
  <ellipse cx="249.2494" cy="180.3897" fill="#1b9fd8" rx="3.5" ry="3.5" stroke-width="0" transform=" rotate(0, 249, 180)"/>
  <rect fill="#1b9fd8" height="7" stroke-width="0" transform=" rotate(0, 260, 179)" width="7" x="257.0959" y="175.682"/>
  <polygon fill="#1b9fd8" points="266.5578,182.5999 270.0578,175.5999 273.5578,182.5999" stroke-width="0" transform=" rotate(0, 270, 179)"/>
  <ellipse cx="279.1898" cy="180.2056" fill="#1b9fd8" rx="3.5" ry="3.5" stroke-width="0" transform=" rotate(0, 279, 180)"/>
  <rect fill="#6dd6ff" height="5" stroke-width="0" transform=" rotate(0, 49, 189)" width="5" x="47.4296" y="187.1708"/>
  <polygon fill="#6dd6ff" points="58.4837,193.2244 60.9837,188.2244 63.4837,193.2244" stroke-width="0" transform=" rotate(0, 60, 190)"/>
  <ellipse cx="69.3787" cy="190.7347" fill="#6dd6ff" rx="2.5" ry="2.5" stroke-width="0" transform=" rotate(0, 69, 190)"/>
  <rect fill="#6dd6ff" height="5" stroke-width="0" transform=" rotate(0, 80, 189)" width="5" x="78.2587" y="187.2785"/>
  <polygon fill="#6dd6ff" points="87.1851,193.2951 89.6851,188.2951 92.1851,193.2951" stroke-width="0" transform=" rotate(0, 89, 190)"/>
  <ellipse cx="99.1825" cy="190.1275" fill="#6dd6ff" rx="2.5" ry="2.5" stroke-width="0" transform=" rotate(0, 99, 190)"/>
  <rect fill="#6dd6ff" height="5" stroke-width="0" transform=" rotate(0, 109, 189)" width="5" x="107.1566" y="187.2953"/>
  <polygon fill="#6dd6ff" points="117.8358,191.6056 120.3358,186.6056 122.8358,191.6056" stroke-width="0" transform=" rotate(0, 120, 189)"/>
  <ellipse cx="130.6821" cy="190.8774" fill="#6dd6ff" rx="2.5" ry="2.5" stroke-width="0" transform=" rotate(0, 130, 190)"/>
  <rect fill="#6dd6ff" height="5" stroke-width="0" transform=" rotate(0, 139, 189)" width="5" x="136.8989" y="186.8195"/>
  <polygon fill="#6dd6ff" points="148.2288,191.9425 150.7288,186.9425 153.2288,191.9425" stroke-width="0" transform=" rotate(0, 150, 189)"/>
  <ellipse cx="159.6244" cy="190.4613" fill="#6dd6ff" rx="2.5" ry="2.5" stroke-width="0" transform=" rotate(0, 159, 190)"/>
  <rect fill="#6dd6ff" height="5" stroke-width="0" transform=" rotate(0, 169, 190)" width="5" x="166.7236" y="188.2203"/>
  <polygon fill="#6dd6ff" points="178.33,192.1352 180.83,187.1352 183.33,192.1352" stroke-width="0" transform=" rotate(0, 180, 189)"/>
  <ellipse cx="189.2838" cy="189.4237" fill="#6dd6ff" rx="2.5" ry="2.5" stroke-width="0" transform=" rotate(0, 189, 189)"/>
  <rect fill="#6dd6ff" height="5" stroke-width="0" transform=" rotate(0, 200, 190)" width="5" x="198.0217" y="187.6525"/>
  <polygon fill="#6dd6ff" points="206.8364,193.0441 209.3364,188.0441 211.8364,193.0441" stroke-width="0" transform=" rotate(0, 209, 190)"/>
  <ellipse cx="219.4586" cy="189.7707" fill="#6dd6ff" rx="2.5" ry="2.5" stroke-width="0" transform=" rotate(0, 219, 189)"/>
  <rect fill="#6dd6ff" height="5" stroke-width="0" transform=" rotate(0, 229, 189)" width="5" x="227.2911" y="186.5007"/>
  <polygon fill="#6dd6ff" points="237.8025,193.1859 240.3025,188.1859 242.8025,193.1859" stroke-width="0" transform=" rotate(0, 240, 190)"/>
  <ellipse cx="249.8344" cy="189.2138" fill="#6dd6ff" rx="2.5" ry="2.5" stroke-width="0" transform=" rotate(0, 249, 189)"/>
  <rect fill="#6dd6ff" height="5" stroke-width="0" transform=" rotate(0, 260, 189)" width="5" x="257.9006" y="186.5231"/>
  <polygon fill="#6dd6ff" points="267.6264,192.9262 270.1264,187.9262 272.6264,192.9262" stroke-width="0" transform=" rotate(0, 270, 190)"/>
  <ellipse cx="279.1974" cy="189.6697" fill="#6dd6ff" rx="2.5" ry="2.5" stroke-width="0" transform=" rotate(0, 279, 189)"/>
  <rect fill="#006ca1" height="9" stroke-width="0" transform=" rotate(0, 49, 199)" width="9" x="45.0314" y="194.8185"/>
  <polygon fill="#006ca1" points="54.5917,204.1712 59.0917,195.1712 63.5917,204.1712" stroke-width="0" transform=" rotate(0, 59, 199)"/>
  <ellipse cx="70.5773" cy="199.1466" fill="#006ca1" rx="4.5" ry="4.5" stroke-width="0" transform=" rotate(0, 70, 199)"/>
  <rect fill="#006ca1" height="9" stroke-width="0" transform=" rotate(0, 79, 200)" width="9" x="75.4459" y="196.4217"/>
  <polygon fill="#006ca1" points="85.6194,204.7286 90.1194,195.7286 94.6194,204.7286" stroke-width="0" transform=" rotate(0, 90, 200)"/>
  <ellipse cx="100.7261" cy="198.9838" fill="#006ca1" rx="4.5" ry="4.5" stroke-width="0" transform=" rotate(0, 100, 198)"/>
  <rect fill="#006ca1" height="9" stroke-width="0" transform=" rotate(0, 109, 199)" width="9" x="104.5139" y="195.4584"/>
  <polygon fill="#006ca1" points="115.178,205.3621 119.678,196.3621 124.178,205.3621" stroke-width="0" transform=" rotate(0, 119, 200)"/>
  <ellipse cx="129.0682" cy="199.1636" fill="#006ca1" rx="4.5" ry="4.5" stroke-width="0" transform=" rotate(0, 129, 199)"/>
  <rect fill="#006ca1" height="9" stroke-width="0" transform=" rotate(0, 139, 199)" width="9" x="134.8299" y="195.073"/>
  <polygon fill="#006ca1" points="145.5632,203.862 150.0632,194.862 154.5632,203.862" stroke-width="0" transform=" rotate(0, 150, 199)"/>
  <ellipse cx="159.9108" cy="200.754" fill="#006ca1" rx="4.5" ry="4.5" stroke-width="0" transform=" rotate(0, 159, 200)"/>
  <rect fill="#006ca1" height="9" stroke-width="0" transform=" rotate(0, 169, 200)" width="9" x="164.56" y="196.3773"/>
  <polygon fill="#006ca1" points="176.3236,204.141 180.8236,195.141 185.3236,204.141" stroke-width="0" transform=" rotate(0, 180, 199)"/>
  <ellipse cx="190.9442" cy="200.5151" fill="#006ca1" rx="4.5" ry="4.5" stroke-width="0" transform=" rotate(0, 190, 200)"/>
  <rect fill="#006ca1" height="9" stroke-width="0" transform=" rotate(0, 199, 198)" width="9" x="194.5536" y="194.4843"/>
  <polygon fill="#006ca1" points="206.3347,204.014 210.8347,195.014 215.3347,204.014" stroke-width="0" transform=" rotate(0, 210, 199)"/>
  <ellipse cx="220.2438" cy="199.793" fill="#006ca1" rx="4.5" ry="4.5" stroke-width="0" transform=" rotate(0, 220, 199)"/>
  <rect fill="#006ca1" height="9" stroke-width="0" transform=" rotate(0, 230, 199)" width="9" x="225.5442" y="194.8972"/>
  <polygon fill="#006ca1" points="234.5329,204.6704 239.0329,195.6704 243.5329,204.6704" stroke-width="0" transform=" rotate(0, 239, 200)"/>
  <ellipse cx="249.7587" cy="199.2128" fill="#006ca1" rx="4.5" ry="4.5" stroke-width="0" transform=" rotate(0, 249, 199)"/>
  <rect fill="#006ca1" height="9" stroke-width="0" transform=" rotate(0, 259, 200)" width="9" x="254.7018" y="195.747"/>
  <polygon fill="#006ca1" points="265.8348,205.0091 270.3348,196.0091 274.8348,205.0091" stroke-width="0" transform=" rotate(0, 270, 200)"/>
  <ellipse cx="280.2562" cy="199.702" fill="#006ca1" rx="4.5" ry="4.5" stroke-width="0" transform=" rotate(0, 280, 199)"/>
  <rect fill="#1b9fd8" height="7" stroke-width="0" transform=" rotate(0, 49, 209)" width="7" x="45.613" y="205.8135"/>
  <polygon fill="#1b9fd8" points="56.0857,213.5428 59.5857,206.5428 63.0857,213.5428" stroke-width="0" transform=" rotate(0, 59, 210)"/>
  <ellipse cx="69.3767" cy="209.5246" fill="#1b9fd8" rx="3.5" ry="3.5" stroke-width="0" transform=" rotate(0, 69, 209)"/>
  <rect fill="#1b9fd8" height="7" stroke-width="0" transform=" rotate(0, 79, 209)" width="7" x="76.3456" y="206.3246"/>
  <polygon fill="#1b9fd8" points="86.8895,214.1949 90.3895,207.1949 93.8895,214.1949" stroke-width="0" transform=" rotate(0, 90, 210)"/>
  <ellipse cx="100.6642" cy="209.9153" fill="#1b9fd8" rx="3.5" ry="3.5" stroke-width="0" transform=" rotate(0, 100, 209)"/>
  <rect fill="#1b9fd8" height="7" stroke-width="0" transform=" rotate(0, 110, 209)" width="7" x="107.1925" y="206.2987"/>
  <polygon fill="#1b9fd8" points="116.0098,212.7234 119.5098,205.7234 123.0098,212.7234" stroke-width="0" transform=" rotate(0, 119, 209)"/>
  <ellipse cx="130.1462" cy="210.7497" fill="#1b9fd8" rx="3.5" ry="3.5" stroke-width="0" transform=" rotate(0, 130, 210)"/>
  <rect fill="#1b9fd8" height="7" stroke-width="0" transform=" rotate(0, 139, 210)" width="7" x="136.35" y="206.8472"/>
  <polygon fill="#1b9fd8" points="146.5541,214.095 150.0541,207.095 153.5541,214.095" stroke-width="0" transform=" rotate(0, 150, 210)"/>
  <ellipse cx="160.2854" cy="209.2594" fill="#1b9fd8" rx="3.5" ry="3.5" stroke-width="0" transform=" rotate(0, 160, 209)"/>
  <rect fill="#1b9fd8" height="7" stroke-width="0" transform=" rotate(0, 169, 210)" width="7" x="165.8098" y="207.057"/>
  <polygon fill="#1b9fd8" points="177.3954,212.7766 180.8954,205.7766 184.3954,212.7766" stroke-width="0" transform=" rotate(0, 180, 209)"/>
  <ellipse cx="190.5989" cy="210.9392" fill="#1b9fd8" rx="3.5" ry="3.5" stroke-width="0" transform=" rotate(0, 190, 210)"/>
  <rect fill="#1b9fd8" height="7" stroke-width="0" transform=" rotate(0, 199, 209)" width="7" x="196.0297" y="206.3494"/>
  <polygon fill="#1b9fd8" points="206.1919,213.2564 209.6919,206.2564 213.1919,213.2564" stroke-width="0" transform=" rotate(0, 209, 209)"/>
  <ellipse cx="220.3596" cy="210.4309" fill="#1b9fd8" rx="3.5" ry="3.5" stroke-width="0" transform=" rotate(0, 220, 210)"/>
  <rect fill="#1b9fd8" height="7" stroke-width="0" transform=" rotate(0, 230, 210)" width="7" x="227.4905" y="206.8073"/>
  <polygon fill="#1b9fd8" points="235.8148,212.6204 239.3148,205.6204 242.8148,212.6204" stroke-width="0" transform=" rotate(0, 239, 209)"/>
  <ellipse cx="250.9486" cy="209.396" fill="#1b9fd8" rx="3.5" ry="3.5" stroke-width="0" transform=" rotate(0, 250, 209)"/>
  <rect fill="#1b9fd8" height="7" stroke-width="0" transform=" rotate(0, 260, 210)" width="7" x="257.2608" y="206.8472"/>
  <polygon fill="#1b9fd8" points="265.6965,213.7158 269.1965,206.7158 272.6965,213.7158" stroke-width="0" transform=" rotate(0, 269, 210)"/>
  <ellipse cx="280.0233" cy="209.8704" fill="#1b9fd8" rx="3.5" ry="3.5" stroke-width="0" transform=" rotate(0, 280, 209)"/>
  <rect fill="#6dd6ff" height="5" stroke-width="0" transform=" rotate(0, 50, 220)" width="5" x="47.7794" y="217.8099"/>
  <polygon fill="#6dd6ff" points="58.352,221.8471 60.852,216.8471 63.352,221.8471" stroke-width="0" transform=" rotate(0, 60, 219)"/>
  <ellipse cx="70.5269" cy="219.8433" fill="#6dd6ff" rx="2.5" ry="2.5" stroke-width="0" transform=" rotate(0, 70, 219)"/>
  <rect fill="#6dd6ff" height="5" stroke-width="0" transform=" rotate(0, 80, 220)" width="5" x="77.54" y="217.9482"/>
  <polygon fill="#6dd6ff" points="86.9862,222.4649 89.4862,217.4649 91.9862,222.4649" stroke-width="0" transform=" rotate(0, 89, 219)"/>
  <ellipse cx="100.2882" cy="219.4009" fill="#6dd6ff" rx="2.5" ry="2.5" stroke-width="0" transform=" rotate(0, 100, 219)"/>
  <rect fill="#6dd6ff" height="5" stroke-width="0" transform=" rotate(0, 109, 220)" width="5" x="106.8474" y="218.2746"/>
  <polygon fill="#6dd6ff" points="117.1301,221.8732 119.6301,216.8732 122.1301,221.8732" stroke-width="0" transform=" rotate(0, 119, 219)"/>
  <ellipse cx="129.7942" cy="220.8858" fill="#6dd6ff" rx="2.5" ry="2.5" stroke-width="0" transform=" rotate(0, 129, 220)"/>
  <rect fill="#6dd6ff" height="5" stroke-width="0" transform=" rotate(0, 139, 219)" width="5" x="137.4642" y="216.8879"/>
  <polygon fill="#6dd6ff" points="147.0113,221.8351 149.5113,216.8351 152.0113,221.8351" stroke-width="0" transform=" rotate(0, 149, 219)"/>
  <ellipse cx="159.894" cy="220.0132" fill="#6dd6ff" rx="2.5" ry="2.5" stroke-width="0" transform=" rotate(0, 159, 220)"/>
  <rect fill="#6dd6ff" height="5" stroke-width="0" transform=" rotate(0, 170, 219)" width="5" x="168.0318" y="216.9839"/>
  <polygon fill="#6dd6ff" points="176.9877,223.1862 179.4877,218.1862 181.9877,223.1862" stroke-width="0" transform=" rotate(0, 179, 220)"/>
  <ellipse cx="190.6707" cy="220.2168" fill="#6dd6ff" rx="2.5" ry="2.5" stroke-width="0" transform=" rotate(0, 190, 220)"/>
  <rect fill="#6dd6ff" height="5" stroke-width="0" transform=" rotate(0, 200, 220)" width="5" x="198.4267" y="218.1502"/>
  <polygon fill="#6dd6ff" points="207.9884,222.1967 210.4884,217.1967 212.9884,222.1967" stroke-width="0" transform=" rotate(0, 210, 219)"/>
  <ellipse cx="219.5321" cy="219.4405" fill="#6dd6ff" rx="2.5" ry="2.5" stroke-width="0" transform=" rotate(0, 219, 219)"/>
  <rect fill="#6dd6ff" height="5" stroke-width="0" transform=" rotate(0, 229, 219)" width="5" x="227.4686" y="216.5242"/>
  <polygon fill="#6dd6ff" points="237.935,223.0468 240.435,218.0468 242.935,223.0468" stroke-width="0" transform=" rotate(0, 240, 220)"/>
  <ellipse cx="249.3016" cy="219.6114" fill="#6dd6ff" rx="2.5" ry="2.5" stroke-width="0" transform=" rotate(0, 249, 219)"/>
  <rect fill="#6dd6ff" height="5" stroke-width="0" transform=" rotate(0, 260, 219)" width="5" x="258.1368" y="216.5492"/>
  <polygon fill="#6dd6ff" points="266.8757,222.4641 269.3757,217.4641 271.8757,222.4641" stroke-width="0" transform=" rotate(0, 269, 219)"/>
  <ellipse cx="279.1628" cy="220.3909" fill="#6dd6ff" rx="2.5" ry="2.5" stroke-width="0" transform=" rotate(0, 279, 220)"/>
  <rect fill="#006ca1" height="9" stroke-width="0" transform=" rotate(0, 50, 229)" width="9" x="46.3735" y="224.6961"/>
  <polygon fill="#006ca1" points="55.8221,233.7684 60.3221,224.7684 64.8221,233.7684" stroke-width="0" transform=" rotate(0, 60, 229)"/>
  <ellipse cx="69.7809" cy="230.5111" fill="#006ca1" rx="4.5" ry="4.5" stroke-width="0" transform=" rotate(0, 69, 230)"/>
  <rect fill="#006ca1" height="9" stroke-width="0" transform=" rotate(0, 80, 230)" width="9" x="76.307" y="226.3896"/>
  <polygon fill="#006ca1" points="86.1185,235.1315 90.6185,226.1315 95.1185,235.1315" stroke-width="0" transform=" rotate(0, 90, 230)"/>
  <ellipse cx="100.931" cy="229.9592" fill="#006ca1" rx="4.5" ry="4.5" stroke-width="0" transform=" rotate(0, 100, 229)"/>
  <rect fill="#006ca1" height="9" stroke-width="0" transform=" rotate(0, 110, 229)" width="9" x="105.6839" y="224.5009"/>
  <polygon fill="#006ca1" points="116.0374,234.8105 120.5374,225.8105 125.0374,234.8105" stroke-width="0" transform=" rotate(0, 120, 230)"/>
  <ellipse cx="130.4608" cy="229.4936" fill="#006ca1" rx="4.5" ry="4.5" stroke-width="0" transform=" rotate(0, 130, 229)"/>
  <rect fill="#006ca1" height="9" stroke-width="0" transform=" rotate(0, 139, 230)" width="9" x="134.6518" y="226.3021"/>
  <polygon fill="#006ca1" points="145.4967,233.8481 149.9967,224.8481 154.4967,233.8481" stroke-width="0" transform=" rotate(0, 149, 229)"/>
  <ellipse cx="160.4987" cy="230.2212" fill="#006ca1" rx="4.5" ry="4.5" stroke-width="0" transform=" rotate(0, 160, 230)"/>
  <rect fill="#006ca1" height="9" stroke-width="0" transform=" rotate(0, 169, 229)" width="9" x="164.6741" y="225.3549"/>
  <polygon fill="#006ca1" points="176.3333,234.8061 180.8333,225.8061 185.3333,234.8061" stroke-width="0" transform=" rotate(0, 180, 230)"/>
  <ellipse cx="189.8345" cy="230.8064" fill="#006ca1" rx="4.5" ry="4.5" stroke-width="0" transform=" rotate(0, 189, 230)"/>
  <rect fill="#006ca1" height="9" stroke-width="0" transform=" rotate(0, 200, 230)" width="9" x="195.9727" y="226.3179"/>
  <polygon fill="#006ca1" points="205.0391,234.6354 209.5391,225.6354 214.0391,234.6354" stroke-width="0" transform=" rotate(0, 209, 230)"/>
  <ellipse cx="220.2234" cy="229.4818" fill="#006ca1" rx="4.5" ry="4.5" stroke-width="0" transform=" rotate(0, 220, 229)"/>
  <rect fill="#006ca1" height="9" stroke-width="0" transform=" rotate(0, 230, 229)" width="9" x="226.4029" y="224.8593"/>
  <polygon fill="#006ca1" points="235.4935,233.884 239.9935,224.884 244.4935,233.884" stroke-width="0" transform=" rotate(0, 239, 229)"/>
  <ellipse cx="250.5926" cy="229.8863" fill="#006ca1" rx="4.5" ry="4.5" stroke-width="0" transform=" rotate(0, 250, 229)"/>
  <rect fill="#006ca1" height="9" stroke-width="0" transform=" rotate(0, 259, 229)" width="9" x="254.6645" y="225.054"/>
  <polygon fill="#006ca1" points="266.3532,235.37 270.8532,226.37 275.3532,235.37" stroke-width="0" transform=" rotate(0, 270, 230)"/>
  <ellipse cx="279.6639" cy="230.1256" fill="#006ca1" rx="4.5" ry="4.5" stroke-width="0" transform=" rotate(0, 279, 230)"/>
  <rect fill="#1b9fd8" height="7" stroke-width="0" transform=" rotate(0, 49, 239)" width="7" x="45.9809" y="235.5571"/>
  <polygon fill="#1b9fd8" points="55.6214,242.827 59.1214,235.827 62.6214,242.827" stroke-width="0" transform=" rotate(0, 59, 239)"/>
  <ellipse cx="69.4716" cy="240.0137" fill="#1b9fd8" rx="3.5" ry="3.5" stroke-width="0" transform=" rotate(0, 69, 240)"/>
  <rect fill="#1b9fd8" height="7" stroke-width="0" transform=" rotate(0, 79, 239)" width="7" x="75.7557" y="235.6755"/>
  <polygon fill="#1b9fd8" points="85.6836,243.6276 89.1836,236.6276 92.6836,243.6276" stroke-width="0" transform=" rotate(0, 89, 240)"/>
  <ellipse cx="99.0836" cy="239.4676" fill="#1b9fd8" rx="3.5" ry="3.5" stroke-width="0" transform=" rotate(0, 99, 239)"/>
  <rect fill="#1b9fd8" height="7" stroke-width="0" transform=" rotate(0, 109, 240)" width="7" x="105.509" y="236.7085"/>
  <polygon fill="#1b9fd8" points="116.5203,243.5582 120.0203,236.5582 123.5203,243.5582" stroke-width="0" transform=" rotate(0, 120, 240)"/>
  <ellipse cx="130.6319" cy="240.1846" fill="#1b9fd8" rx="3.5" ry="3.5" stroke-width="0" transform=" rotate(0, 130, 240)"/>
  <rect fill="#1b9fd8" height="7" stroke-width="0" transform=" rotate(0, 140, 239)" width="7" x="137.2066" y="235.7224"/>
  <polygon fill="#1b9fd8" points="146.0794,242.6484 149.5794,235.6484 153.0794,242.6484" stroke-width="0" transform=" rotate(0, 149, 239)"/>
  <ellipse cx="160.5728" cy="240.4254" fill="#1b9fd8" rx="3.5" ry="3.5" stroke-width="0" transform=" rotate(0, 160, 240)"/>
  <rect fill="#1b9fd8" height="7" stroke-width="0" transform=" rotate(0, 170, 239)" width="7" x="166.6714" y="236.0408"/>
  <polygon fill="#1b9fd8" points="175.7055,242.8563 179.2055,235.8563 182.7055,242.8563" stroke-width="0" transform=" rotate(0, 179, 239)"/>
  <ellipse cx="189.5672" cy="239.5661" fill="#1b9fd8" rx="3.5" ry="3.5" stroke-width="0" transform=" rotate(0, 189, 239)"/>
  <rect fill="#1b9fd8" height="7" stroke-width="0" transform=" rotate(0, 200, 239)" width="7" x="197.0222" y="235.6995"/>
  <polygon fill="#1b9fd8" points="205.7638,244.1245 209.2638,237.1245 212.7638,244.1245" stroke-width="0" transform=" rotate(0, 209, 240)"/>
  <ellipse cx="220.1763" cy="239.1079" fill="#1b9fd8" rx="3.5" ry="3.5" stroke-width="0" transform=" rotate(0, 220, 239)"/>
  <rect fill="#1b9fd8" height="7" stroke-width="0" transform=" rotate(0, 229, 240)" width="7" x="225.7425" y="237.0765"/>
  <polygon fill="#1b9fd8" points="236.1334,244.2778 239.6334,237.2778 243.1334,244.2778" stroke-width="0" transform=" rotate(0, 239, 240)"/>
  <ellipse cx="250.0039" cy="239.6822" fill="#1b9fd8" rx="3.5" ry="3.5" stroke-width="0" transform=" rotate(0, 250, 239)"/>
  <rect fill="#1b9fd8" height="7" stroke-width="0" transform=" rotate(0, 259, 239)" width="7" x="255.671" y="235.6882"/>
  <polygon fill="#1b9fd8" points="267.4592,242.5606 270.9592,235.5606 274.4592,242.5606" stroke-width="0" transform=" rotate(0, 270, 239)"/>
  <ellipse cx="280.3113" cy="240.3716" fill="#1b9fd8" rx="3.5" ry="3.5" stroke-width="0" transform=" rotate(0, 280, 240)"/>
  <rect fill="#6dd6ff" height="5" stroke-width="0" transform=" rotate(0, 49, 250)" width="5" x="46.8583" y="247.5994"/>
  <polygon fill="#6dd6ff" points="56.6742,251.8605 59.1742,246.8605 61.6742,251.8605" stroke-width="0" transform=" rotate(0, 59, 249)"/>
  <ellipse cx="70.0981" cy="250.8767" fill="#6dd6ff" rx="2.5" ry="2.5" stroke-width="0" transform=" rotate(0, 70, 250)"/>
  <rect fill="#6dd6ff" height="5" stroke-width="0" transform=" rotate(0, 79, 250)" width="5" x="77.4189" y="248.3519"/>
  <polygon fill="#6dd6ff" points="87.1613,252.6567 89.6613,247.6567 92.1613,252.6567" stroke-width="0" transform=" rotate(0, 89, 250)"/>
  <ellipse cx="100.318" cy="249.556" fill="#6dd6ff" rx="2.5" ry="2.5" stroke-width="0" transform=" rotate(0, 100, 249)"/>
  <rect fill="#6dd6ff" height="5" stroke-width="0" transform=" rotate(0, 110, 250)" width="5" x="108.316" y="247.794"/>
  <polygon fill="#6dd6ff" points="117.2832,253.3173 119.7832,248.3173 122.2832,253.3173" stroke-width="0" transform=" rotate(0, 119, 250)"/>
  <ellipse cx="129.3824" cy="250.6378" fill="#6dd6ff" rx="2.5" ry="2.5" stroke-width="0" transform=" rotate(0, 129, 250)"/>
  <rect fill="#6dd6ff" height="5" stroke-width="0" transform=" rotate(0, 140, 250)" width="5" x="137.8355" y="248.2964"/>
  <polygon fill="#6dd6ff" points="146.9712,253.068 149.4712,248.068 151.9712,253.068" stroke-width="0" transform=" rotate(0, 149, 250)"/>
  <ellipse cx="159.543" cy="250.2366" fill="#6dd6ff" rx="2.5" ry="2.5" stroke-width="0" transform=" rotate(0, 159, 250)"/>
  <rect fill="#6dd6ff" height="5" stroke-width="0" transform=" rotate(0, 170, 250)" width="5" x="167.7477" y="248.4619"/>
  <polygon fill="#6dd6ff" points="178.4089,251.5516 180.9089,246.5516 183.4089,251.5516" stroke-width="0" transform=" rotate(0, 180, 249)"/>
  <ellipse cx="188.9951" cy="249.6148" fill="#6dd6ff" rx="2.5" ry="2.5" stroke-width="0" transform=" rotate(0, 188, 249)"/>
  <rect fill="#6dd6ff" height="5" stroke-width="0" transform=" rotate(0, 200, 249)" width="5" x="198.0119" y="247.3123"/>
  <polygon fill="#6dd6ff" points="208.4164,252.2798 210.9164,247.2798 213.4164,252.2798" stroke-width="0" transform=" rotate(0, 210, 249)"/>
  <ellipse cx="220.2365" cy="249.9215" fill="#6dd6ff" rx="2.5" ry="2.5" stroke-width="0" transform=" rotate(0, 220, 249)"/>
  <rect fill="#6dd6ff" height="5" stroke-width="0" transform=" rotate(0, 230, 250)" width="5" x="228.1027" y="247.6616"/>
  <polygon fill="#6dd6ff" points="237.4269,252.5425 239.9269,247.5425 242.4269,252.5425" stroke-width="0" transform=" rotate(0, 239, 250)"/>
  <ellipse cx="250.7015" cy="250.4676" fill="#6dd6ff" rx="2.5" ry="2.5" stroke-width="0" transform=" rotate(0, 250, 250)"/>
  <rect fill="#6dd6ff" height="5" stroke-width="0" transform=" rotate(0, 260, 249)" width="5" x="257.8948" y="246.6127"/>
  <polygon fill="#6dd6ff" points="267.8677,252.3042 270.3677,247.3042 272.8677,252.3042" stroke-width="0" transform=" rotate(0, 270, 249)"/>
  <ellipse cx="279.053" cy="250.5007" fill="#6dd6ff" rx="2.5" ry="2.5" stroke-width="0" transform=" rotate(0, 279, 250)"/>
  <rect fill="#006ca1" height="9" stroke-width="0" transform=" rotate(0, 50, 260)" width="9" x="46.2356" y="256.2534"/>
  <polygon fill="#006ca1" points="54.9604,264.0211 59.4604,255.0211 63.9604,264.0211" stroke-width="0" transform=" rotate(0, 59, 259)"/>
  <ellipse cx="70.9797" cy="260.1027" fill="#006ca1" rx="4.5" ry="4.5" stroke-width="0" transform=" rotate(0, 70, 260)"/>
  <rect fill="#006ca1" height="9" stroke-width="0" transform=" rotate(0, 79, 259)" width="9" x="74.7947" y="254.9923"/>
  <polygon fill="#006ca1" points="85.9893,263.6512 90.4893,254.6512 94.9893,263.6512" stroke-width="0" transform=" rotate(0, 90, 259)"/>
  <ellipse cx="99.228" cy="260.4719" fill="#006ca1" rx="4.5" ry="4.5" stroke-width="0" transform=" rotate(0, 99, 260)"/>
  <rect fill="#006ca1" height="9" stroke-width="0" transform=" rotate(0, 109, 259)" width="9" x="105.467" y="254.6514"/>
  <polygon fill="#006ca1" points="115.0531,264.177 119.5531,255.177 124.0531,264.177" stroke-width="0" transform=" rotate(0, 119, 259)"/>
  <ellipse cx="130.4941" cy="259.2817" fill="#006ca1" rx="4.5" ry="4.5" stroke-width="0" transform=" rotate(0, 130, 259)"/>
  <rect fill="#006ca1" height="9" stroke-width="0" transform=" rotate(0, 139, 259)" width="9" x="134.8827" y="254.7883"/>
  <polygon fill="#006ca1" points="144.552,263.964 149.052,254.964 153.552,263.964" stroke-width="0" transform=" rotate(0, 149, 259)"/>
  <ellipse cx="160.6498" cy="260.8883" fill="#006ca1" rx="4.5" ry="4.5" stroke-width="0" transform=" rotate(0, 160, 260)"/>
  <rect fill="#006ca1" height="9" stroke-width="0" transform=" rotate(0, 170, 259)" width="9" x="165.5484" y="254.9038"/>
  <polygon fill="#006ca1" points="176.2164,264.3101 180.7164,255.3101 185.2164,264.3101" stroke-width="0" transform=" rotate(0, 180, 259)"/>
  <ellipse cx="189.3273" cy="260.3149" fill="#006ca1" rx="4.5" ry="4.5" stroke-width="0" transform=" rotate(0, 189, 260)"/>
  <rect fill="#006ca1" height="9" stroke-width="0" transform=" rotate(0, 200, 260)" width="9" x="195.5538" y="256.3225"/>
  <polygon fill="#006ca1" points="206.3993,264.1905 210.8993,255.1905 215.3993,264.1905" stroke-width="0" transform=" rotate(0, 210, 259)"/>
  <ellipse cx="219.9241" cy="259.7886" fill="#006ca1" rx="4.5" ry="4.5" stroke-width="0" transform=" rotate(0, 219, 259)"/>
  <rect fill="#006ca1" height="9" stroke-width="0" transform=" rotate(0, 229, 259)" width="9" x="225.253" y="255.4712"/>
  <polygon fill="#006ca1" points="235.028,264.7625 239.528,255.7625 244.028,264.7625" stroke-width="0" transform=" rotate(0, 239, 260)"/>
  <ellipse cx="249.6622" cy="259.3414" fill="#006ca1" rx="4.5" ry="4.5" stroke-width="0" transform=" rotate(0, 249, 259)"/>
  <rect fill="#006ca1" height="9" stroke-width="0" transform=" rotate(0, 260, 259)" width="9" x="255.8731" y="255.0282"/>
  <polygon fill="#006ca1" points="264.656,264.2689 269.156,255.2689 273.656,264.2689" stroke-width="0" transform=" rotate(0, 269, 259)"/>
  <ellipse cx="279.6345" cy="259.9086" fill="#006ca1" rx="4.5" ry="4.5" stroke-width="0" transform=" rotate(0, 279, 259)"/>
  <rect fill="#1b9fd8" height="7" stroke-width="0" transform=" rotate(0, 49, 269)" width="7" x="46.2749" y="266.2763"/>
  <polygon fill="#1b9fd8" points="56.8855,274.3918 60.3855,267.3918 63.8855,274.3918" stroke-width="0" transform=" rotate(0, 60, 270)"/>
  <ellipse cx="69.9639" cy="269.009" fill="#1b9fd8" rx="3.5" ry="3.5" stroke-width="0" transform=" rotate(0, 69, 269)"/>
  <rect fill="#1b9fd8" height="7" stroke-width="0" transform=" rotate(0, 80, 269)" width="7" x="76.9505" y="266.0271"/>
  <polygon fill="#1b9fd8" points="87.0879,273.938 90.5879,266.938 94.0879,273.938" stroke-width="0" transform=" rotate(0, 90, 270)"/>
  <ellipse cx="99.121" cy="270.5297" fill="#1b9fd8" rx="3.5" ry="3.5" stroke-width="0" transform=" rotate(0, 99, 270)"/>
  <rect fill="#1b9fd8" height="7" stroke-width="0" transform=" rotate(0, 109, 269)" width="7" x="105.8542" y="266.163"/>
  <polygon fill="#1b9fd8" points="116.2599,272.4856 119.7599,265.4856 123.2599,272.4856" stroke-width="0" transform=" rotate(0, 119, 268)"/>
  <ellipse cx="130.5303" cy="270.7036" fill="#1b9fd8" rx="3.5" ry="3.5" stroke-width="0" transform=" rotate(0, 130, 270)"/>
  <rect fill="#1b9fd8" height="7" stroke-width="0" transform=" rotate(0, 140, 270)" width="7" x="137.4816" y="267.3355"/>
  <polygon fill="#1b9fd8" points="147.4718,272.8584 150.9718,265.8584 154.4718,272.8584" stroke-width="0" transform=" rotate(0, 150, 269)"/>
  <ellipse cx="160.5253" cy="269.6507" fill="#1b9fd8" rx="3.5" ry="3.5" stroke-width="0" transform=" rotate(0, 160, 269)"/>
  <rect fill="#1b9fd8" height="7" stroke-width="0" transform=" rotate(0, 169, 270)" width="7" x="165.8677" y="267.0762"/>
  <polygon fill="#1b9fd8" points="177.469,274.337 180.969,267.337 184.469,274.337" stroke-width="0" transform=" rotate(0, 180, 270)"/>
  <ellipse cx="189.0613" cy="269.0728" fill="#1b9fd8" rx="3.5" ry="3.5" stroke-width="0" transform=" rotate(0, 189, 269)"/>
  <rect fill="#1b9fd8" height="7" stroke-width="0" transform=" rotate(0, 200, 270)" width="7" x="197.0191" y="267.3478"/>
  <polygon fill="#1b9fd8" points="205.6842,273.5749 209.1842,266.5749 212.6842,273.5749" stroke-width="0" transform=" rotate(0, 209, 270)"/>
  <ellipse cx="219.7352" cy="270.5577" fill="#1b9fd8" rx="3.5" ry="3.5" stroke-width="0" transform=" rotate(0, 219, 270)"/>
  <rect fill="#1b9fd8" height="7" stroke-width="0" transform=" rotate(0, 229, 269)" width="7" x="225.6384" y="266.1909"/>
  <polygon fill="#1b9fd8" points="236.833,273.9752 240.333,266.9752 243.833,273.9752" stroke-width="0" transform=" rotate(0, 240, 270)"/>
  <ellipse cx="249.0108" cy="270.3142" fill="#1b9fd8" rx="3.5" ry="3.5" stroke-width="0" transform=" rotate(0, 249, 270)"/>
  <rect fill="#1b9fd8" height="7" stroke-width="0" transform=" rotate(0, 260, 270)" width="7" x="256.6897" y="266.6295"/>
  <polygon fill="#1b9fd8" points="265.7949,273.9438 269.2949,266.9438 272.7949,273.9438" stroke-width="0" transform=" rotate(0, 269, 270)"/>
  <ellipse cx="280.7333" cy="269.6245" fill="#1b9fd8" rx="3.5" ry="3.5" stroke-width="0" transform=" rotate(0, 280, 269)"/>
  <rect fill="#6dd6ff" height="5" stroke-width="0" transform=" rotate(0, 49, 280)" width="5" x="46.5122" y="277.7183"/>
  <polygon fill="#6dd6ff" points="58.2811,281.6067 60.7811,276.6067 63.2811,281.6067" stroke-width="0" transform=" rotate(0, 60, 279)"/>
  <ellipse cx="69.7199" cy="279.8033" fill="#6dd6ff" rx="2.5" ry="2.5" stroke-width="0" transform=" rotate(0, 69, 279)"/>
  <rect fill="#6dd6ff" height="5" stroke-width="0" transform=" rotate(0, 79, 280)" width="5" x="76.8852" y="278.1511"/>
  <polygon fill="#6dd6ff" points="87.7061,282.58 90.2061,277.58 92.7061,282.58" stroke-width="0" transform=" rotate(0, 90, 280)"/>
  <ellipse cx="99.9469" cy="279.6181" fill="#6dd6ff" rx="2.5" ry="2.5" stroke-width="0" transform=" rotate(0, 99, 279)"/>
  <rect fill="#6dd6ff" height="5" stroke-width="0" transform=" rotate(0, 110, 280)" width="5" x="108.0504" y="277.7746"/>
  <polygon fill="#6dd6ff" points="116.8934,282.7806 119.3934,277.7806 121.8934,282.7806" stroke-width="0" transform=" rotate(0, 119, 280)"/>
  <ellipse cx="129.0232" cy="279.0173" fill="#6dd6ff" rx="2.5" ry="2.5" stroke-width="0" transform=" rotate(0, 129, 279)"/>
  <rect fill="#6dd6ff" height="5" stroke-width="0" transform=" rotate(0, 139, 280)" width="5" x="137.4815" y="277.9862"/>
  <polygon fill="#6dd6ff" points="147.3244,281.8819 149.8244,276.8819 152.3244,281.8819" stroke-width="0" transform=" rotate(0, 149, 279)"/>
  <ellipse cx="160.2332" cy="280.7237" fill="#6dd6ff" rx="2.5" ry="2.5" stroke-width="0" transform=" rotate(0, 160, 280)"/>
  <rect fill="#6dd6ff" height="5" stroke-width="0" transform=" rotate(0, 169, 280)" width="5" x="166.6369" y="277.6501"/>
  <polygon fill="#6dd6ff" points="177.1872,283.3837 179.6872,278.3837 182.1872,283.3837" stroke-width="0" transform=" rotate(0, 179, 280)"/>
  <ellipse cx="189.7783" cy="280.7686" fill="#6dd6ff" rx="2.5" ry="2.5" stroke-width="0" transform=" rotate(0, 189, 280)"/>
  <rect fill="#6dd6ff" height="5" stroke-width="0" transform=" rotate(0, 200, 279)" width="5" x="197.9275" y="277.0904"/>
  <polygon fill="#6dd6ff" points="207.5272,283.4417 210.0272,278.4417 212.5272,283.4417" stroke-width="0" transform=" rotate(0, 210, 280)"/>
  <ellipse cx="219.7442" cy="279.4178" fill="#6dd6ff" rx="2.5" ry="2.5" stroke-width="0" transform=" rotate(0, 219, 279)"/>
  <rect fill="#6dd6ff" height="5" stroke-width="0" transform=" rotate(0, 230, 279)" width="5" x="227.9679" y="276.616"/>
  <polygon fill="#6dd6ff" points="236.9951,283.3017 239.4951,278.3017 241.9951,283.3017" stroke-width="0" transform=" rotate(0, 239, 280)"/>
  <ellipse cx="249.0485" cy="280.7489" fill="#6dd6ff" rx="2.5" ry="2.5" stroke-width="0" transform=" rotate(0, 249, 280)"/>
  <rect fill="#6dd6ff" height="5" stroke-width="0" transform=" rotate(0, 259, 278)" width="5" x="257.4515" y="276.485"/>
  <polygon fill="#6dd6ff" points="268.4331,282.8365 270.9331,277.8365 273.4331,282.8365" stroke-width="0" transform=" rotate(0, 270, 280)"/>
  <ellipse cx="280.3253" cy="280.0497" fill="#6dd6ff" rx="2.5" ry="2.5" stroke-width="0" transform=" rotate(0, 280, 280)"/>
</svg>
