<?xml version="1.0" encoding="utf-8" ?>
<svg baseProfile="tiny" height="330" version="1.2" width="330" xmlns="http://www.w3.org/2000/svg" xmlns:ev="http://www.w3.org/2001/xml-events" xmlns:xlink="http://www.w3.org/1999/xlink">
  <defs/>
  <rect fill="white" height="330" width="330" x="0" y="0"/>
  <rect fill="#6dd6ff" height="15" stroke-width="0" transform=" rotate(0, 53, 54)" width="15" x="46.0575" y="46.908"/>
  <polygon fill="#6dd6ff" points="81.4147,67.1973 88.9147,52.1973 96.4147,67.1973" stroke-width="0" transform=" rotate(0, 88, 59)"/>
  <ellipse cx="123.1025" cy="54.1954" fill="#6dd6ff" rx="7.5" ry="7.5" stroke-width="0" transform=" rotate(0, 123, 54)"/>
  <rect fill="#6dd6ff" height="15" stroke-width="0" transform=" rotate(0, 143, 65)" width="15" x="135.5083" y="57.8603"/>
  <polygon fill="#6dd6ff" points="178.3638,69.1564 185.8638,54.1564 193.3638,69.1564" stroke-width="0" transform=" rotate(0, 185, 61)"/>
  <ellipse cx="213.0973" cy="58.3428" fill="#6dd6ff" rx="7.5" ry="7.5" stroke-width="0" transform=" rotate(0, 213, 58)"/>
  <rect fill="#6dd6ff" height="15" stroke-width="0" transform=" rotate(0, 239, 66)" width="15" x="232.4882" y="59.0904"/>
  <polygon fill="#6dd6ff" points="255.6311,66.3378 263.1311,51.3378 270.6311,66.3378" stroke-width="0" transform=" rotate(0, 263, 58)"/>
  <rect fill="#1b9fd8" height="21" stroke-width="0" transform=" rotate(0, 65, 85)" width="21" x="54.5559" y="75.3097"/>
  <polygon fill="#1b9fd8" points="77.4497,100.9192 87.9497,79.9192 98.4497,100.9192" stroke-width="0" transform=" rotate(0, 87, 90)"/>
  <ellipse cx="114.9215" cy="92.9968" fill="#1b9fd8" rx="10.5" ry="10.5" stroke-width="0" transform=" rotate(0, 114, 92)"/>
  <rect fill="#1b9fd8" height="21" stroke-width="0" transform=" rotate(0, 151, 85)" width="21" x="140.7732" y="75.1097"/>
  <polygon fill="#1b9fd8" points="176.417,99.4633 186.917,78.4633 197.417,99.4633" stroke-width="0" transform=" rotate(0, 186, 88)"/>
  <ellipse cx="204.4319" cy="85.745" fill="#1b9fd8" rx="10.5" ry="10.5" stroke-width="0" transform=" rotate(0, 204, 85)"/>
  <rect fill="#1b9fd8" height="21" stroke-width="0" transform=" rotate(0, 240, 85)" width="21" x="230.2956" y="74.9695"/>
  <polygon fill="#1b9fd8" points="262.2282,103.0107 272.7282,82.0107 283.2282,103.0107" stroke-width="0" transform=" rotate(0, 272, 92)"/>
  <rect fill="#006ca1" height="27" stroke-width="0" transform=" rotate(0, 54, 123)" width="27" x="40.7424" y="110.3468"/>
  <polygon fill="#006ca1" points="76.5262,126.564 90.0262,99.564 103.5262,126.564" stroke-width="0" transform=" rotate(0, 90, 113)"/>
  <ellipse cx="122.5074" cy="116.8167" fill="#006ca1" rx="13.5" ry="13.5" stroke-width="0" transform=" rotate(0, 122, 116)"/>
  <rect fill="#006ca1" height="27" stroke-width="0" transform=" rotate(0, 149, 114)" width="27" x="135.7513" y="101.0654"/>
  <polygon fill="#006ca1" points="160.945,138.6435 174.445,111.6435 187.945,138.6435" stroke-width="0" transform=" rotate(0, 174, 125)"/>
  <ellipse cx="212.2301" cy="128.4052" fill="#006ca1" rx="13.5" ry="13.5" stroke-width="0" transform=" rotate(0, 212, 128)"/>
  <rect fill="#006ca1" height="27" stroke-width="0" transform=" rotate(0, 238, 115)" width="27" x="225.2771" y="101.5708"/>
  <polygon fill="#006ca1" points="262.3637,136.4816 275.8637,109.4816 289.3637,136.4816" stroke-width="0" transform=" rotate(0, 275, 122)"/>
  <rect fill="#6dd6ff" height="15" stroke-width="0" transform=" rotate(0, 59, 155)" width="15" x="51.6172" y="147.8749"/>
  <polygon fill="#6dd6ff" points="83.4735,151.8809 90.9735,136.8809 98.4735,151.8809" stroke-width="0" transform=" rotate(0, 90, 144)"/>
  <ellipse cx="122.832" cy="148.4324" fill="#6dd6ff" rx="7.5" ry="7.5" stroke-width="0" transform=" rotate(0, 122, 148)"/>
  <rect fill="#6dd6ff" height="15" stroke-width="0" transform=" rotate(0, 146, 148)" width="15" x="138.6348" y="141.1139"/>
  <polygon fill="#6dd6ff" points="174.9142,152.4602 182.4142,137.4602 189.9142,152.4602" stroke-width="0" transform=" rotate(0, 182, 144)"/>
  <ellipse cx="216.9885" cy="143.7817" fill="#6dd6ff" rx="7.5" ry="7.5" stroke-width="0" transform=" rotate(0, 216, 143)"/>
  <rect fill="#6dd6ff" height="15" stroke-width="0" transform=" rotate(0, 232, 145)" width="15" x="225.2023" y="138.4232"/>
  <polygon fill="#6dd6ff" points="260.4564,156.125 267.9564,141.125 275.4564,156.125" stroke-width="0" transform=" rotate(0, 267, 148)"/>
  <rect fill="#6dd6ff" height="15" stroke-width="0" transform=" rotate(0, 62, 178)" width="15" x="55.0832" y="171.3667"/>
  <polygon fill="#6dd6ff" points="81.6342,183.7991 89.1342,168.7991 96.6342,183.7991" stroke-width="0" transform=" rotate(0, 89, 176)"/>
  <ellipse cx="126.9388" cy="183.7531" fill="#6dd6ff" rx="7.5" ry="7.5" stroke-width="0" transform=" rotate(0, 126, 183)"/>
  <rect fill="#6dd6ff" height="15" stroke-width="0" transform=" rotate(0, 152, 178)" width="15" x="145.3534" y="170.9615"/>
  <polygon fill="#6dd6ff" points="172.2071,195.4919 179.7071,180.4919 187.2071,195.4919" stroke-width="0" transform=" rotate(0, 179, 187)"/>
  <ellipse cx="216.5163" cy="181.9682" fill="#6dd6ff" rx="7.5" ry="7.5" stroke-width="0" transform=" rotate(0, 216, 181)"/>
  <rect fill="#6dd6ff" height="15" stroke-width="0" transform=" rotate(0, 242, 186)" width="15" x="234.7429" y="179.1046"/>
  <polygon fill="#6dd6ff" points="264.1937,182.3919 271.6937,167.3919 279.1937,182.3919" stroke-width="0" transform=" rotate(0, 271, 174)"/>
  <rect fill="#006ca1" height="27" stroke-width="0" transform=" rotate(0, 61, 208)" width="27" x="47.5637" y="195.0691"/>
  <polygon fill="#006ca1" points="78.0822,230.4799 91.5822,203.4799 105.0822,230.4799" stroke-width="0" transform=" rotate(0, 91, 216)"/>
  <ellipse cx="122.0985" cy="208.6348" fill="#006ca1" rx="13.5" ry="13.5" stroke-width="0" transform=" rotate(0, 122, 208)"/>
  <rect fill="#006ca1" height="27" stroke-width="0" transform=" rotate(0, 157, 204)" width="27" x="143.6953" y="191.0533"/>
  <polygon fill="#006ca1" points="163.7098,222.0938 177.2098,195.0938 190.7098,222.0938" stroke-width="0" transform=" rotate(0, 177, 208)"/>
  <ellipse cx="216.5581" cy="213.0308" fill="#006ca1" rx="13.5" ry="13.5" stroke-width="0" transform=" rotate(0, 216, 213)"/>
  <rect fill="#006ca1" height="27" stroke-width="0" transform=" rotate(0, 237, 208)" width="27" x="224.2574" y="195.4773"/>
  <polygon fill="#006ca1" points="252.5462,230.9955 266.0462,203.9955 279.5462,230.9955" stroke-width="0" transform=" rotate(0, 266, 217)"/>
  <rect fill="#1b9fd8" height="21" stroke-width="0" transform=" rotate(0, 53, 235)" width="21" x="42.5319" y="225.4472"/>
  <polygon fill="#1b9fd8" points="86.1132,247.172 96.6132,226.172 107.1132,247.172" stroke-width="0" transform=" rotate(0, 96, 236)"/>
  <ellipse cx="114.0307" cy="248.0361" fill="#1b9fd8" rx="10.5" ry="10.5" stroke-width="0" transform=" rotate(0, 114, 248)"/>
  <rect fill="#1b9fd8" height="21" stroke-width="0" transform=" rotate(0, 147, 237)" width="21" x="137.4297" y="226.5523"/>
  <polygon fill="#1b9fd8" points="175.5411,256.076 186.0411,235.076 196.5411,256.076" stroke-width="0" transform=" rotate(0, 186, 245)"/>
  <ellipse cx="213.5171" cy="234.3183" fill="#1b9fd8" rx="10.5" ry="10.5" stroke-width="0" transform=" rotate(0, 213, 234)"/>
  <rect fill="#1b9fd8" height="21" stroke-width="0" transform=" rotate(0, 235, 234)" width="21" x="225.4688" y="224.0556"/>
  <polygon fill="#1b9fd8" points="257.0212,248.0445 267.5212,227.0445 278.0212,248.0445" stroke-width="0" transform=" rotate(0, 267, 237)"/>
  <rect fill="#6dd6ff" height="15" stroke-width="0" transform=" rotate(0, 58, 276)" width="15" x="51.26" y="269.0444"/>
  <polygon fill="#6dd6ff" points="79.2282,284.4096 86.7282,269.4096 94.2282,284.4096" stroke-width="0" transform=" rotate(0, 86, 276)"/>
  <ellipse cx="118.1591" cy="276.4742" fill="#6dd6ff" rx="7.5" ry="7.5" stroke-width="0" transform=" rotate(0, 118, 276)"/>
  <rect fill="#6dd6ff" height="15" stroke-width="0" transform=" rotate(0, 146, 276)" width="15" x="138.5109" y="269.3337"/>
  <polygon fill="#6dd6ff" points="165.6825,271.6717 173.1825,256.6717 180.6825,271.6717" stroke-width="0" transform=" rotate(0, 173, 264)"/>
  <ellipse cx="215.5782" cy="268.6932" fill="#6dd6ff" rx="7.5" ry="7.5" stroke-width="0" transform=" rotate(0, 215, 268)"/>
  <rect fill="#6dd6ff" height="15" stroke-width="0" transform=" rotate(0, 232, 273)" width="15" x="224.8498" y="265.9727"/>
  <polygon fill="#6dd6ff" points="264.6981,282.4285 272.1981,267.4285 279.6981,282.4285" stroke-width="0" transform=" rotate(0, 272, 274)"/>
</svg>
