<?xml version="1.0" encoding="utf-8" ?>
<svg baseProfile="tiny" height="330" version="1.2" width="330" xmlns="http://www.w3.org/2000/svg" xmlns:ev="http://www.w3.org/2001/xml-events" xmlns:xlink="http://www.w3.org/1999/xlink">
  <defs/>
  <rect fill="white" height="330" width="330" x="0" y="0"/>
  <rect fill="#6dd6ff" height="5" stroke-width="0" transform=" rotate(0, 47, 51)" width="5" x="45.4964" y="48.814"/>
  <polygon fill="#6dd6ff" points="57.2135,52.2584 59.7135,47.2584 62.2135,52.2584" stroke-width="0" transform=" rotate(0, 59, 49)"/>
  <ellipse cx="71.0557" cy="49.484" fill="#6dd6ff" rx="2.5" ry="2.5" stroke-width="0" transform=" rotate(0, 71, 49)"/>
  <rect fill="#6dd6ff" height="5" stroke-width="0" transform=" rotate(0, 77, 52)" width="5" x="75.3204" y="49.5926"/>
  <polygon fill="#6dd6ff" points="89.4407,54.1422 91.9407,49.1422 94.4407,54.1422" stroke-width="0" transform=" rotate(0, 91, 51)"/>
  <ellipse cx="101.054" cy="47.4534" fill="#6dd6ff" rx="2.5" ry="2.5" stroke-width="0" transform=" rotate(0, 101, 47)"/>
  <rect fill="#6dd6ff" height="5" stroke-width="0" transform=" rotate(0, 110, 51)" width="5" x="107.5575" y="49.2028"/>
  <polygon fill="#6dd6ff" points="115.3598,54.7106 117.8598,49.7106 120.3598,54.7106" stroke-width="0" transform=" rotate(0, 117, 52)"/>
  <ellipse cx="131.6818" cy="51.6824" fill="#6dd6ff" rx="2.5" ry="2.5" stroke-width="0" transform=" rotate(0, 131, 51)"/>
  <rect fill="#6dd6ff" height="5" stroke-width="0" transform=" rotate(0, 139, 52)" width="5" x="136.9042" y="49.7717"/>
  <polygon fill="#6dd6ff" points="145.9336,54.6871 148.4336,49.6871 150.9336,54.6871" stroke-width="0" transform=" rotate(0, 148, 52)"/>
  <ellipse cx="160.4694" cy="47.898" fill="#6dd6ff" rx="2.5" ry="2.5" stroke-width="0" transform=" rotate(0, 160, 47)"/>
  <rect fill="#6dd6ff" height="5" stroke-width="0" transform=" rotate(0, 172, 49)" width="5" x="169.7783" y="46.5512"/>
  <polygon fill="#6dd6ff" points="175.7767,52.1778 178.2767,47.1778 180.7767,52.1778" stroke-width="0" transform=" rotate(0, 178, 49)"/>
  <ellipse cx="190.3163" cy="48.5588" fill="#6dd6ff" rx="2.5" ry="2.5" stroke-width="0" transform=" rotate(0, 190, 48)"/>
  <rect fill="#6dd6ff" height="5" stroke-width="0" transform=" rotate(0, 200, 50)" width="5" x="198.4357" y="48.0589"/>
  <polygon fill="#6dd6ff" points="205.7159,52.9561 208.2159,47.9561 210.7159,52.9561" stroke-width="0" transform=" rotate(0, 208, 50)"/>
  <ellipse cx="220.0697" cy="47.8793" fill="#6dd6ff" rx="2.5" ry="2.5" stroke-width="0" transform=" rotate(0, 220, 47)"/>
  <rect fill="#6dd6ff" height="5" stroke-width="0" transform=" rotate(0, 230, 52)" width="5" x="228.365" y="49.7237"/>
  <polygon fill="#6dd6ff" points="237.3213,50.0219 239.8213,45.0219 242.3213,50.0219" stroke-width="0" transform=" rotate(0, 239, 47)"/>
  <ellipse cx="248.2809" cy="51.1211" fill="#6dd6ff" rx="2.5" ry="2.5" stroke-width="0" transform=" rotate(0, 248, 51)"/>
  <rect fill="#6dd6ff" height="5" stroke-width="0" transform=" rotate(0, 260, 48)" width="5" x="258.2761" y="45.8296"/>
  <polygon fill="#6dd6ff" points="267.1694,51.533 269.6694,46.533 272.1694,51.533" stroke-width="0" transform=" rotate(0, 269, 49)"/>
  <ellipse cx="281.9407" cy="49.8113" fill="#6dd6ff" rx="2.5" ry="2.5" stroke-width="0" transform=" rotate(0, 281, 49)"/>
  <rect fill="#1b9fd8" height="7" stroke-width="0" transform=" rotate(0, 49, 60)" width="7" x="46.2073" y="57.2201"/>
  <polygon fill="#1b9fd8" points="57.0403,61.8023 60.5403,54.8023 64.0403,61.8023" stroke-width="0" transform=" rotate(0, 60, 58)"/>
  <ellipse cx="71.3742" cy="62.6003" fill="#1b9fd8" rx="3.5" ry="3.5" stroke-width="0" transform=" rotate(0, 71, 62)"/>
  <rect fill="#1b9fd8" height="7" stroke-width="0" transform=" rotate(0, 78, 61)" width="7" x="74.869" y="57.5954"/>
  <polygon fill="#1b9fd8" points="87.6867,61.2473 91.1867,54.2473 94.6867,61.2473" stroke-width="0" transform=" rotate(0, 91, 57)"/>
  <ellipse cx="103.2393" cy="61.3311" fill="#1b9fd8" rx="3.5" ry="3.5" stroke-width="0" transform=" rotate(0, 103, 61)"/>
  <rect fill="#1b9fd8" height="7" stroke-width="0" transform=" rotate(0, 106, 61)" width="7" x="103.3288" y="58.0422"/>
  <polygon fill="#1b9fd8" points="115.6864,66.0129 119.1864,59.0129 122.6864,66.0129" stroke-width="0" transform=" rotate(0, 119, 62)"/>
  <ellipse cx="131.2626" cy="58.6431" fill="#1b9fd8" rx="3.5" ry="3.5" stroke-width="0" transform=" rotate(0, 131, 58)"/>
  <rect fill="#1b9fd8" height="7" stroke-width="0" transform=" rotate(0, 139, 58)" width="7" x="136.2149" y="54.6153"/>
  <polygon fill="#1b9fd8" points="149.717,65.2498 153.217,58.2498 156.717,65.2498" stroke-width="0" transform=" rotate(0, 153, 61)"/>
  <ellipse cx="161.3838" cy="58.1843" fill="#1b9fd8" rx="3.5" ry="3.5" stroke-width="0" transform=" rotate(0, 161, 58)"/>
  <rect fill="#1b9fd8" height="7" stroke-width="0" transform=" rotate(0, 169, 62)" width="7" x="166.472" y="58.6854"/>
  <polygon fill="#1b9fd8" points="179.5274,65.3612 183.0274,58.3612 186.5274,65.3612" stroke-width="0" transform=" rotate(0, 183, 61)"/>
  <ellipse cx="191.1099" cy="59.6993" fill="#1b9fd8" rx="3.5" ry="3.5" stroke-width="0" transform=" rotate(0, 191, 59)"/>
  <rect fill="#1b9fd8" height="7" stroke-width="0" transform=" rotate(0, 200, 63)" width="7" x="197.3635" y="59.7863"/>
  <polygon fill="#1b9fd8" points="207.0808,63.3421 210.5808,56.3421 214.0808,63.3421" stroke-width="0" transform=" rotate(0, 210, 59)"/>
  <ellipse cx="220.8134" cy="62.7813" fill="#1b9fd8" rx="3.5" ry="3.5" stroke-width="0" transform=" rotate(0, 220, 62)"/>
  <rect fill="#1b9fd8" height="7" stroke-width="0" transform=" rotate(0, 231, 60)" width="7" x="227.5451" y="56.9033"/>
  <polygon fill="#1b9fd8" points="239.8321,63.1403 243.3321,56.1403 246.8321,63.1403" stroke-width="0" transform=" rotate(0, 243, 59)"/>
  <ellipse cx="248.8514" cy="58.1092" fill="#1b9fd8" rx="3.5" ry="3.5" stroke-width="0" transform=" rotate(0, 248, 58)"/>
  <rect fill="#1b9fd8" height="7" stroke-width="0" transform=" rotate(0, 263, 56)" width="7" x="259.5462" y="53.1855"/>
  <polygon fill="#1b9fd8" points="265.5971,62.1696 269.0971,55.1696 272.5971,62.1696" stroke-width="0" transform=" rotate(0, 269, 58)"/>
  <ellipse cx="278.3293" cy="60.3686" fill="#1b9fd8" rx="3.5" ry="3.5" stroke-width="0" transform=" rotate(0, 278, 60)"/>
  <rect fill="#006ca1" height="9" stroke-width="0" transform=" rotate(0, 46, 65)" width="9" x="41.6255" y="61.0488"/>
  <polygon fill="#006ca1" points="59.4609,77.9383 63.9609,68.9383 68.4609,77.9383" stroke-width="0" transform=" rotate(0, 63, 73)"/>
  <ellipse cx="66.7018" cy="71.3659" fill="#006ca1" rx="4.5" ry="4.5" stroke-width="0" transform=" rotate(0, 66, 71)"/>
  <rect fill="#006ca1" height="9" stroke-width="0" transform=" rotate(0, 78, 71)" width="9" x="74.4512" y="66.9213"/>
  <polygon fill="#006ca1" points="89.1308,77.3885 93.6308,68.3885 98.1308,77.3885" stroke-width="0" transform=" rotate(0, 93, 72)"/>
  <ellipse cx="102.1747" cy="72.8681" fill="#006ca1" rx="4.5" ry="4.5" stroke-width="0" transform=" rotate(0, 102, 72)"/>
  <rect fill="#006ca1" height="9" stroke-width="0" transform=" rotate(0, 107, 67)" width="9" x="103.3199" y="62.8444"/>
  <polygon fill="#006ca1" points="114.2155,70.6171 118.7155,61.6171 123.2155,70.6171" stroke-width="0" transform=" rotate(0, 118, 66)"/>
  <ellipse cx="129.4302" cy="73.3709" fill="#006ca1" rx="4.5" ry="4.5" stroke-width="0" transform=" rotate(0, 129, 73)"/>
  <rect fill="#006ca1" height="9" stroke-width="0" transform=" rotate(0, 138, 71)" width="9" x="133.758" y="66.7664"/>
  <polygon fill="#006ca1" points="144.5835,70.0514 149.0835,61.0514 153.5835,70.0514" stroke-width="0" transform=" rotate(0, 149, 65)"/>
  <ellipse cx="157.8442" cy="67.261" fill="#006ca1" rx="4.5" ry="4.5" stroke-width="0" transform=" rotate(0, 157, 67)"/>
  <rect fill="#006ca1" height="9" stroke-width="0" transform=" rotate(0, 166, 69)" width="9" x="161.7124" y="64.9257"/>
  <polygon fill="#006ca1" points="178.8638,76.7562 183.3638,67.7562 187.8638,76.7562" stroke-width="0" transform=" rotate(0, 183, 72)"/>
  <ellipse cx="185.732" cy="68.8896" fill="#006ca1" rx="4.5" ry="4.5" stroke-width="0" transform=" rotate(0, 185, 68)"/>
  <rect fill="#006ca1" height="9" stroke-width="0" transform=" rotate(0, 201, 70)" width="9" x="196.9137" y="65.6298"/>
  <polygon fill="#006ca1" points="201.8452,73.3113 206.3452,64.3113 210.8452,73.3113" stroke-width="0" transform=" rotate(0, 206, 68)"/>
  <ellipse cx="219.3968" cy="67.9689" fill="#006ca1" rx="4.5" ry="4.5" stroke-width="0" transform=" rotate(0, 219, 67)"/>
  <rect fill="#006ca1" height="9" stroke-width="0" transform=" rotate(0, 226, 69)" width="9" x="221.7225" y="65.0673"/>
  <polygon fill="#006ca1" points="238.1639,72.9257 242.6639,63.9257 247.1639,72.9257" stroke-width="0" transform=" rotate(0, 242, 68)"/>
  <ellipse cx="250.527" cy="66.7701" fill="#006ca1" rx="4.5" ry="4.5" stroke-width="0" transform=" rotate(0, 250, 66)"/>
  <rect fill="#006ca1" height="9" stroke-width="0" transform=" rotate(0, 258, 70)" width="9" x="254.1153" y="66.3936"/>
  <polygon fill="#006ca1" points="268.8735,78.0941 273.3735,69.0941 277.8735,78.0941" stroke-width="0" transform=" rotate(0, 273, 73)"/>
  <ellipse cx="278.9009" cy="73.6693" fill="#006ca1" rx="4.5" ry="4.5" stroke-width="0" transform=" rotate(0, 278, 73)"/>
  <rect fill="#6dd6ff" height="5" stroke-width="0" transform=" rotate(0, 48, 81)" width="5" x="45.8993" y="78.8972"/>
  <polygon fill="#6dd6ff" points="57.3766,82.6848 59.8766,77.6848 62.3766,82.6848" stroke-width="0" transform=" rotate(0, 59, 80)"/>
  <ellipse cx="70.7028" cy="80.5326" fill="#6dd6ff" rx="2.5" ry="2.5" stroke-width="0" transform=" rotate(0, 70, 80)"/>
  <rect fill="#6dd6ff" height="5" stroke-width="0" transform=" rotate(0, 78, 79)" width="5" x="75.8352" y="77.4822"/>
  <polygon fill="#6dd6ff" points="86.91,84.3706 89.41,79.3706 91.91,84.3706" stroke-width="0" transform=" rotate(0, 89, 81)"/>
  <ellipse cx="98.3785" cy="77.5425" fill="#6dd6ff" rx="2.5" ry="2.5" stroke-width="0" transform=" rotate(0, 98, 77)"/>
  <rect fill="#6dd6ff" height="5" stroke-width="0" transform=" rotate(0, 108, 80)" width="5" x="105.7902" y="77.7508"/>
  <polygon fill="#6dd6ff" points="118.047,84.6789 120.547,79.6789 123.047,84.6789" stroke-width="0" transform=" rotate(0, 120, 82)"/>
  <ellipse cx="130.9752" cy="81.166" fill="#6dd6ff" rx="2.5" ry="2.5" stroke-width="0" transform=" rotate(0, 130, 81)"/>
  <rect fill="#6dd6ff" height="5" stroke-width="0" transform=" rotate(0, 137, 78)" width="5" x="135.0192" y="75.7142"/>
  <polygon fill="#6dd6ff" points="146.222,81.1567 148.722,76.1567 151.222,81.1567" stroke-width="0" transform=" rotate(0, 148, 78)"/>
  <ellipse cx="158.0005" cy="79.5114" fill="#6dd6ff" rx="2.5" ry="2.5" stroke-width="0" transform=" rotate(0, 158, 79)"/>
  <rect fill="#6dd6ff" height="5" stroke-width="0" transform=" rotate(0, 171, 78)" width="5" x="168.8909" y="75.7121"/>
  <polygon fill="#6dd6ff" points="179.9363,82.22 182.4363,77.22 184.9363,82.22" stroke-width="0" transform=" rotate(0, 182, 79)"/>
  <ellipse cx="188.1624" cy="81.2943" fill="#6dd6ff" rx="2.5" ry="2.5" stroke-width="0" transform=" rotate(0, 188, 81)"/>
  <rect fill="#6dd6ff" height="5" stroke-width="0" transform=" rotate(0, 200, 81)" width="5" x="198.1979" y="79.392"/>
  <polygon fill="#6dd6ff" points="208.965,80.0395 211.465,75.0395 213.965,80.0395" stroke-width="0" transform=" rotate(0, 211, 77)"/>
  <ellipse cx="217.9413" cy="80.1412" fill="#6dd6ff" rx="2.5" ry="2.5" stroke-width="0" transform=" rotate(0, 217, 80)"/>
  <rect fill="#6dd6ff" height="5" stroke-width="0" transform=" rotate(0, 229, 81)" width="5" x="226.7399" y="79.1623"/>
  <polygon fill="#6dd6ff" points="236.798,79.9758 239.298,74.9758 241.798,79.9758" stroke-width="0" transform=" rotate(0, 239, 77)"/>
  <ellipse cx="248.127" cy="82.1745" fill="#6dd6ff" rx="2.5" ry="2.5" stroke-width="0" transform=" rotate(0, 248, 82)"/>
  <rect fill="#6dd6ff" height="5" stroke-width="0" transform=" rotate(0, 257, 81)" width="5" x="255.2493" y="79.1147"/>
  <polygon fill="#6dd6ff" points="265.9356,82.544 268.4356,77.544 270.9356,82.544" stroke-width="0" transform=" rotate(0, 268, 80)"/>
  <ellipse cx="279.3016" cy="79.4916" fill="#6dd6ff" rx="2.5" ry="2.5" stroke-width="0" transform=" rotate(0, 279, 79)"/>
  <rect fill="#1b9fd8" height="7" stroke-width="0" transform=" rotate(0, 49, 87)" width="7" x="45.6483" y="83.795"/>
  <polygon fill="#1b9fd8" points="54.4962,96.9131 57.9962,89.9131 61.4962,96.9131" stroke-width="0" transform=" rotate(0, 57, 93)"/>
  <ellipse cx="71.3409" cy="88.8583" fill="#1b9fd8" rx="3.5" ry="3.5" stroke-width="0" transform=" rotate(0, 71, 88)"/>
  <rect fill="#1b9fd8" height="7" stroke-width="0" transform=" rotate(0, 78, 89)" width="7" x="75.4665" y="86.1722"/>
  <polygon fill="#1b9fd8" points="89.7429,93.8044 93.2429,86.8044 96.7429,93.8044" stroke-width="0" transform=" rotate(0, 93, 90)"/>
  <ellipse cx="100.54" cy="89.9292" fill="#1b9fd8" rx="3.5" ry="3.5" stroke-width="0" transform=" rotate(0, 100, 89)"/>
  <rect fill="#1b9fd8" height="7" stroke-width="0" transform=" rotate(0, 112, 93)" width="7" x="109.1204" y="89.7567"/>
  <polygon fill="#1b9fd8" points="113.8648,90.2799 117.3648,83.2799 120.8648,90.2799" stroke-width="0" transform=" rotate(0, 117, 86)"/>
  <ellipse cx="129.0148" cy="88.0336" fill="#1b9fd8" rx="3.5" ry="3.5" stroke-width="0" transform=" rotate(0, 129, 88)"/>
  <rect fill="#1b9fd8" height="7" stroke-width="0" transform=" rotate(0, 142, 92)" width="7" x="139.2888" y="89.4708"/>
  <polygon fill="#1b9fd8" points="145.5442,92.9976 149.0442,85.9976 152.5442,92.9976" stroke-width="0" transform=" rotate(0, 149, 89)"/>
  <ellipse cx="157.2128" cy="92.3012" fill="#1b9fd8" rx="3.5" ry="3.5" stroke-width="0" transform=" rotate(0, 157, 92)"/>
  <rect fill="#1b9fd8" height="7" stroke-width="0" transform=" rotate(0, 169, 89)" width="7" x="165.5259" y="85.5092"/>
  <polygon fill="#1b9fd8" points="177.5168,95.3629 181.0168,88.3629 184.5168,95.3629" stroke-width="0" transform=" rotate(0, 181, 91)"/>
  <ellipse cx="189.1979" cy="89.5211" fill="#1b9fd8" rx="3.5" ry="3.5" stroke-width="0" transform=" rotate(0, 189, 89)"/>
  <rect fill="#1b9fd8" height="7" stroke-width="0" transform=" rotate(0, 203, 88)" width="7" x="199.5202" y="84.519"/>
  <polygon fill="#1b9fd8" points="204.3383,96.6328 207.8383,89.6328 211.3383,96.6328" stroke-width="0" transform=" rotate(0, 207, 93)"/>
  <ellipse cx="218.1635" cy="87.3514" fill="#1b9fd8" rx="3.5" ry="3.5" stroke-width="0" transform=" rotate(0, 218, 87)"/>
  <rect fill="#1b9fd8" height="7" stroke-width="0" transform=" rotate(0, 233, 87)" width="7" x="229.7628" y="83.928"/>
  <polygon fill="#1b9fd8" points="234.8342,93.604 238.3342,86.604 241.8342,93.604" stroke-width="0" transform=" rotate(0, 238, 90)"/>
  <ellipse cx="252.1589" cy="88.4351" fill="#1b9fd8" rx="3.5" ry="3.5" stroke-width="0" transform=" rotate(0, 252, 88)"/>
  <rect fill="#1b9fd8" height="7" stroke-width="0" transform=" rotate(0, 257, 89)" width="7" x="253.6074" y="86.1616"/>
  <polygon fill="#1b9fd8" points="263.7138,93.8569 267.2138,86.8569 270.7138,93.8569" stroke-width="0" transform=" rotate(0, 267, 90)"/>
  <ellipse cx="278.555" cy="89.5954" fill="#1b9fd8" rx="3.5" ry="3.5" stroke-width="0" transform=" rotate(0, 278, 89)"/>
  <rect fill="#006ca1" height="9" stroke-width="0" transform=" rotate(0, 53, 103)" width="9" x="48.847" y="99.2124"/>
  <polygon fill="#006ca1" points="59.0577,103.7967 63.5577,94.7967 68.0577,103.7967" stroke-width="0" transform=" rotate(0, 63, 99)"/>
  <ellipse cx="73.3065" cy="100.3491" fill="#006ca1" rx="4.5" ry="4.5" stroke-width="0" transform=" rotate(0, 73, 100)"/>
  <rect fill="#006ca1" height="9" stroke-width="0" transform=" rotate(0, 83, 95)" width="9" x="79.0139" y="91.3173"/>
  <polygon fill="#006ca1" points="81.7089,101.5794 86.2089,92.5794 90.7089,101.5794" stroke-width="0" transform=" rotate(0, 86, 97)"/>
  <ellipse cx="98.8174" cy="101.6701" fill="#006ca1" rx="4.5" ry="4.5" stroke-width="0" transform=" rotate(0, 98, 101)"/>
  <rect fill="#006ca1" height="9" stroke-width="0" transform=" rotate(0, 111, 103)" width="9" x="107.0749" y="99.4411"/>
  <polygon fill="#006ca1" points="117.9147,101.4389 122.4147,92.4389 126.9147,101.4389" stroke-width="0" transform=" rotate(0, 122, 96)"/>
  <ellipse cx="132.2652" cy="101.1812" fill="#006ca1" rx="4.5" ry="4.5" stroke-width="0" transform=" rotate(0, 132, 101)"/>
  <rect fill="#006ca1" height="9" stroke-width="0" transform=" rotate(0, 139, 97)" width="9" x="135.0173" y="92.8844"/>
  <polygon fill="#006ca1" points="147.6125,108.2289 152.1125,99.2289 156.6125,108.2289" stroke-width="0" transform=" rotate(0, 152, 103)"/>
  <ellipse cx="162.1231" cy="100.5643" fill="#006ca1" rx="4.5" ry="4.5" stroke-width="0" transform=" rotate(0, 162, 100)"/>
  <rect fill="#006ca1" height="9" stroke-width="0" transform=" rotate(0, 173, 103)" width="9" x="169.2957" y="98.7933"/>
  <polygon fill="#006ca1" points="171.2037,105.3035 175.7037,96.3035 180.2037,105.3035" stroke-width="0" transform=" rotate(0, 175, 100)"/>
  <ellipse cx="192.3979" cy="101.6531" fill="#006ca1" rx="4.5" ry="4.5" stroke-width="0" transform=" rotate(0, 192, 101)"/>
  <rect fill="#006ca1" height="9" stroke-width="0" transform=" rotate(0, 201, 97)" width="9" x="197.449" y="93.4483"/>
  <polygon fill="#006ca1" points="206.7401,101.6059 211.2401,92.6059 215.7401,101.6059" stroke-width="0" transform=" rotate(0, 211, 97)"/>
  <ellipse cx="220.8085" cy="98.3872" fill="#006ca1" rx="4.5" ry="4.5" stroke-width="0" transform=" rotate(0, 220, 98)"/>
  <rect fill="#006ca1" height="9" stroke-width="0" transform=" rotate(0, 227, 103)" width="9" x="222.925" y="98.5809"/>
  <polygon fill="#006ca1" points="238.3213,101.7781 242.8213,92.7781 247.3213,101.7781" stroke-width="0" transform=" rotate(0, 242, 97)"/>
  <ellipse cx="252.1884" cy="100.7142" fill="#006ca1" rx="4.5" ry="4.5" stroke-width="0" transform=" rotate(0, 252, 100)"/>
  <rect fill="#006ca1" height="9" stroke-width="0" transform=" rotate(0, 257, 99)" width="9" x="252.6158" y="94.6362"/>
  <polygon fill="#006ca1" points="261.9057,105.4634 266.4057,96.4634 270.9057,105.4634" stroke-width="0" transform=" rotate(0, 266, 100)"/>
  <ellipse cx="283.7049" cy="97.1875" fill="#006ca1" rx="4.5" ry="4.5" stroke-width="0" transform=" rotate(0, 283, 97)"/>
  <rect fill="#6dd6ff" height="5" stroke-width="0" transform=" rotate(0, 48, 111)" width="5" x="46.0905" y="109.0603"/>
  <polygon fill="#6dd6ff" points="55.4132,111.5882 57.9132,106.5882 60.4132,111.5882" stroke-width="0" transform=" rotate(0, 57, 109)"/>
  <ellipse cx="67.5074" cy="111.2315" fill="#6dd6ff" rx="2.5" ry="2.5" stroke-width="0" transform=" rotate(0, 67, 111)"/>
  <rect fill="#6dd6ff" height="5" stroke-width="0" transform=" rotate(0, 80, 110)" width="5" x="78.2117" y="107.8655"/>
  <polygon fill="#6dd6ff" points="85.2243,111.9481 87.7243,106.9481 90.2243,111.9481" stroke-width="0" transform=" rotate(0, 87, 109)"/>
  <ellipse cx="98.4422" cy="111.8514" fill="#6dd6ff" rx="2.5" ry="2.5" stroke-width="0" transform=" rotate(0, 98, 111)"/>
  <rect fill="#6dd6ff" height="5" stroke-width="0" transform=" rotate(0, 111, 111)" width="5" x="108.6108" y="108.7369"/>
  <polygon fill="#6dd6ff" points="118.3149,112.5312 120.8149,107.5312 123.3149,112.5312" stroke-width="0" transform=" rotate(0, 120, 110)"/>
  <ellipse cx="130.7729" cy="108.7367" fill="#6dd6ff" rx="2.5" ry="2.5" stroke-width="0" transform=" rotate(0, 130, 108)"/>
  <rect fill="#6dd6ff" height="5" stroke-width="0" transform=" rotate(0, 142, 107)" width="5" x="139.7291" y="105.2523"/>
  <polygon fill="#6dd6ff" points="148.17,113.376 150.67,108.376 153.17,113.376" stroke-width="0" transform=" rotate(0, 150, 110)"/>
  <ellipse cx="161.0079" cy="109.8304" fill="#6dd6ff" rx="2.5" ry="2.5" stroke-width="0" transform=" rotate(0, 161, 109)"/>
  <rect fill="#6dd6ff" height="5" stroke-width="0" transform=" rotate(0, 169, 110)" width="5" x="167.0344" y="107.5248"/>
  <polygon fill="#6dd6ff" points="178.8614,114.8647 181.3614,109.8647 183.8614,114.8647" stroke-width="0" transform=" rotate(0, 181, 112)"/>
  <ellipse cx="188.9923" cy="110.8765" fill="#6dd6ff" rx="2.5" ry="2.5" stroke-width="0" transform=" rotate(0, 188, 110)"/>
  <rect fill="#6dd6ff" height="5" stroke-width="0" transform=" rotate(0, 202, 108)" width="5" x="199.6975" y="105.9758"/>
  <polygon fill="#6dd6ff" points="207.5319,114.5574 210.0319,109.5574 212.5319,114.5574" stroke-width="0" transform=" rotate(0, 210, 112)"/>
  <ellipse cx="219.0109" cy="110.0982" fill="#6dd6ff" rx="2.5" ry="2.5" stroke-width="0" transform=" rotate(0, 219, 110)"/>
  <rect fill="#6dd6ff" height="5" stroke-width="0" transform=" rotate(0, 232, 111)" width="5" x="229.5341" y="108.8638"/>
  <polygon fill="#6dd6ff" points="239.6376,110.0451 242.1376,105.0451 244.6376,110.0451" stroke-width="0" transform=" rotate(0, 242, 107)"/>
  <ellipse cx="251.9905" cy="109.372" fill="#6dd6ff" rx="2.5" ry="2.5" stroke-width="0" transform=" rotate(0, 251, 109)"/>
  <rect fill="#6dd6ff" height="5" stroke-width="0" transform=" rotate(0, 258, 108)" width="5" x="255.746" y="105.6427"/>
  <polygon fill="#6dd6ff" points="267.0308,111.4987 269.5308,106.4987 272.0308,111.4987" stroke-width="0" transform=" rotate(0, 269, 108)"/>
  <ellipse cx="281.2139" cy="109.6722" fill="#6dd6ff" rx="2.5" ry="2.5" stroke-width="0" transform=" rotate(0, 281, 109)"/>
  <rect fill="#1b9fd8" height="7" stroke-width="0" transform=" rotate(0, 50, 122)" width="7" x="47.4553" y="119.3853"/>
  <polygon fill="#1b9fd8" points="56.4008,126.0287 59.9008,119.0287 63.4008,126.0287" stroke-width="0" transform=" rotate(0, 59, 122)"/>
  <ellipse cx="72.7424" cy="119.6018" fill="#1b9fd8" rx="3.5" ry="3.5" stroke-width="0" transform=" rotate(0, 72, 119)"/>
  <rect fill="#1b9fd8" height="7" stroke-width="0" transform=" rotate(0, 77, 117)" width="7" x="74.3613" y="114.0068"/>
  <polygon fill="#1b9fd8" points="85.5854,126.1148 89.0854,119.1148 92.5854,126.1148" stroke-width="0" transform=" rotate(0, 89, 122)"/>
  <ellipse cx="102.3906" cy="119.5557" fill="#1b9fd8" rx="3.5" ry="3.5" stroke-width="0" transform=" rotate(0, 102, 119)"/>
  <rect fill="#1b9fd8" height="7" stroke-width="0" transform=" rotate(0, 111, 122)" width="7" x="107.7993" y="119.3369"/>
  <polygon fill="#1b9fd8" points="119.7526,122.7525 123.2526,115.7525 126.7526,122.7525" stroke-width="0" transform=" rotate(0, 123, 119)"/>
  <ellipse cx="130.6909" cy="117.075" fill="#1b9fd8" rx="3.5" ry="3.5" stroke-width="0" transform=" rotate(0, 130, 117)"/>
  <rect fill="#1b9fd8" height="7" stroke-width="0" transform=" rotate(0, 140, 119)" width="7" x="137.0345" y="115.7752"/>
  <polygon fill="#1b9fd8" points="146.2294,123.654 149.7294,116.654 153.2294,123.654" stroke-width="0" transform=" rotate(0, 149, 120)"/>
  <ellipse cx="161.8263" cy="122.8778" fill="#1b9fd8" rx="3.5" ry="3.5" stroke-width="0" transform=" rotate(0, 161, 122)"/>
  <rect fill="#1b9fd8" height="7" stroke-width="0" transform=" rotate(0, 166, 121)" width="7" x="163.0693" y="117.5441"/>
  <polygon fill="#1b9fd8" points="174.2917,120.2303 177.7917,113.2303 181.2917,120.2303" stroke-width="0" transform=" rotate(0, 177, 116)"/>
  <ellipse cx="188.0775" cy="123.3072" fill="#1b9fd8" rx="3.5" ry="3.5" stroke-width="0" transform=" rotate(0, 188, 123)"/>
  <rect fill="#1b9fd8" height="7" stroke-width="0" transform=" rotate(0, 200, 119)" width="7" x="196.6097" y="116.1436"/>
  <polygon fill="#1b9fd8" points="209.8143,120.9648 213.3143,113.9648 216.8143,120.9648" stroke-width="0" transform=" rotate(0, 213, 117)"/>
  <ellipse cx="219.0644" cy="118.8623" fill="#1b9fd8" rx="3.5" ry="3.5" stroke-width="0" transform=" rotate(0, 219, 118)"/>
  <rect fill="#1b9fd8" height="7" stroke-width="0" transform=" rotate(0, 231, 122)" width="7" x="228.1964" y="118.52"/>
  <polygon fill="#1b9fd8" points="236.9774,126.3316 240.4774,119.3316 243.9774,126.3316" stroke-width="0" transform=" rotate(0, 240, 122)"/>
  <ellipse cx="253.1113" cy="119.5697" fill="#1b9fd8" rx="3.5" ry="3.5" stroke-width="0" transform=" rotate(0, 253, 119)"/>
  <rect fill="#1b9fd8" height="7" stroke-width="0" transform=" rotate(0, 261, 118)" width="7" x="258.0253" y="114.9895"/>
  <polygon fill="#1b9fd8" points="269.6493,126.4919 273.1493,119.4919 276.6493,126.4919" stroke-width="0" transform=" rotate(0, 273, 122)"/>
  <ellipse cx="283.2262" cy="119.1252" fill="#1b9fd8" rx="3.5" ry="3.5" stroke-width="0" transform=" rotate(0, 283, 119)"/>
  <rect fill="#006ca1" height="9" stroke-width="0" transform=" rotate(0, 48, 131)" width="9" x="44.4313" y="126.8628"/>
  <polygon fill="#006ca1" points="57.437,136.974 61.937,127.974 66.437,136.974" stroke-width="0" transform=" rotate(0, 61, 132)"/>
  <ellipse cx="70.1568" cy="133.0772" fill="#006ca1" rx="4.5" ry="4.5" stroke-width="0" transform=" rotate(0, 70, 133)"/>
  <rect fill="#006ca1" height="9" stroke-width="0" transform=" rotate(0, 80, 133)" width="9" x="75.8294" y="128.683"/>
  <polygon fill="#006ca1" points="89.844,131.6956 94.344,122.6956 98.844,131.6956" stroke-width="0" transform=" rotate(0, 94, 127)"/>
  <ellipse cx="100.5645" cy="127.7122" fill="#006ca1" rx="4.5" ry="4.5" stroke-width="0" transform=" rotate(0, 100, 127)"/>
  <rect fill="#006ca1" height="9" stroke-width="0" transform=" rotate(0, 112, 130)" width="9" x="107.9373" y="125.954"/>
  <polygon fill="#006ca1" points="115.2704,136.0195 119.7704,127.0195 124.2704,136.0195" stroke-width="0" transform=" rotate(0, 119, 131)"/>
  <ellipse cx="130.7259" cy="130.1464" fill="#006ca1" rx="4.5" ry="4.5" stroke-width="0" transform=" rotate(0, 130, 130)"/>
  <rect fill="#006ca1" height="9" stroke-width="0" transform=" rotate(0, 138, 132)" width="9" x="134.1493" y="127.5035"/>
  <polygon fill="#006ca1" points="145.3907,135.6006 149.8907,126.6006 154.3907,135.6006" stroke-width="0" transform=" rotate(0, 149, 131)"/>
  <ellipse cx="157.3587" cy="131.1455" fill="#006ca1" rx="4.5" ry="4.5" stroke-width="0" transform=" rotate(0, 157, 131)"/>
  <rect fill="#006ca1" height="9" stroke-width="0" transform=" rotate(0, 169, 131)" width="9" x="164.6567" y="126.7827"/>
  <polygon fill="#006ca1" points="177.6265,133.9144 182.1265,124.9144 186.6265,133.9144" stroke-width="0" transform=" rotate(0, 182, 129)"/>
  <ellipse cx="192.4568" cy="131.5433" fill="#006ca1" rx="4.5" ry="4.5" stroke-width="0" transform=" rotate(0, 192, 131)"/>
  <rect fill="#006ca1" height="9" stroke-width="0" transform=" rotate(0, 196, 134)" width="9" x="192.4433" y="129.9293"/>
  <polygon fill="#006ca1" points="203.8018,134.2146 208.3018,125.2146 212.8018,134.2146" stroke-width="0" transform=" rotate(0, 208, 129)"/>
  <ellipse cx="221.323" cy="132.3765" fill="#006ca1" rx="4.5" ry="4.5" stroke-width="0" transform=" rotate(0, 221, 132)"/>
  <rect fill="#006ca1" height="9" stroke-width="0" transform=" rotate(0, 233, 133)" width="9" x="229.4849" y="128.8198"/>
  <polygon fill="#006ca1" points="232.8774,133.5609 237.3774,124.5609 241.8774,133.5609" stroke-width="0" transform=" rotate(0, 237, 129)"/>
  <ellipse cx="253.4273" cy="126.5635" fill="#006ca1" rx="4.5" ry="4.5" stroke-width="0" transform=" rotate(0, 253, 126)"/>
  <rect fill="#006ca1" height="9" stroke-width="0" transform=" rotate(0, 258, 130)" width="9" x="253.7971" y="126.1081"/>
  <polygon fill="#006ca1" points="266.4058,130.1594 270.9058,121.1594 275.4058,130.1594" stroke-width="0" transform=" rotate(0, 270, 125)"/>
  <ellipse cx="276.7863" cy="133.1681" fill="#006ca1" rx="4.5" ry="4.5" stroke-width="0" transform=" rotate(0, 276, 133)"/>
  <rect fill="#6dd6ff" height="5" stroke-width="0" transform=" rotate(0, 48, 141)" width="5" x="45.6205" y="139.2761"/>
  <polygon fill="#6dd6ff" points="57.7429,143.1792 60.2429,138.1792 62.7429,143.1792" stroke-width="0" transform=" rotate(0, 60, 140)"/>
  <ellipse cx="71.5351" cy="140.0492" fill="#6dd6ff" rx="2.5" ry="2.5" stroke-width="0" transform=" rotate(0, 71, 140)"/>
  <rect fill="#6dd6ff" height="5" stroke-width="0" transform=" rotate(0, 80, 141)" width="5" x="77.7615" y="139.4843"/>
  <polygon fill="#6dd6ff" points="86.1362,140.7535 88.6362,135.7535 91.1362,140.7535" stroke-width="0" transform=" rotate(0, 88, 138)"/>
  <ellipse cx="99.0829" cy="141.4762" fill="#6dd6ff" rx="2.5" ry="2.5" stroke-width="0" transform=" rotate(0, 99, 141)"/>
  <rect fill="#6dd6ff" height="5" stroke-width="0" transform=" rotate(0, 108, 141)" width="5" x="106.1893" y="139.3064"/>
  <polygon fill="#6dd6ff" points="116.9968,142.5682 119.4968,137.5682 121.9968,142.5682" stroke-width="0" transform=" rotate(0, 119, 140)"/>
  <ellipse cx="132.0714" cy="142.403" fill="#6dd6ff" rx="2.5" ry="2.5" stroke-width="0" transform=" rotate(0, 132, 142)"/>
  <rect fill="#6dd6ff" height="5" stroke-width="0" transform=" rotate(0, 139, 141)" width="5" x="136.9525" y="139.3616"/>
  <polygon fill="#6dd6ff" points="148.032,143.0987 150.532,138.0987 153.032,143.0987" stroke-width="0" transform=" rotate(0, 150, 140)"/>
  <ellipse cx="159.6483" cy="139.5064" fill="#6dd6ff" rx="2.5" ry="2.5" stroke-width="0" transform=" rotate(0, 159, 139)"/>
  <rect fill="#6dd6ff" height="5" stroke-width="0" transform=" rotate(0, 169, 138)" width="5" x="166.5144" y="135.9483"/>
  <polygon fill="#6dd6ff" points="174.9641,140.5498 177.4641,135.5498 179.9641,140.5498" stroke-width="0" transform=" rotate(0, 177, 138)"/>
  <ellipse cx="189.4915" cy="141.625" fill="#6dd6ff" rx="2.5" ry="2.5" stroke-width="0" transform=" rotate(0, 189, 141)"/>
  <rect fill="#6dd6ff" height="5" stroke-width="0" transform=" rotate(0, 201, 141)" width="5" x="198.9494" y="139.3835"/>
  <polygon fill="#6dd6ff" points="205.2177,140.0308 207.7177,135.0308 210.2177,140.0308" stroke-width="0" transform=" rotate(0, 207, 137)"/>
  <ellipse cx="222.0849" cy="142.1309" fill="#6dd6ff" rx="2.5" ry="2.5" stroke-width="0" transform=" rotate(0, 222, 142)"/>
  <rect fill="#6dd6ff" height="5" stroke-width="0" transform=" rotate(0, 229, 139)" width="5" x="227.2301" y="136.5756"/>
  <polygon fill="#6dd6ff" points="238.179,142.6433 240.679,137.6433 243.179,142.6433" stroke-width="0" transform=" rotate(0, 240, 140)"/>
  <ellipse cx="250.2741" cy="138.154" fill="#6dd6ff" rx="2.5" ry="2.5" stroke-width="0" transform=" rotate(0, 250, 138)"/>
  <rect fill="#6dd6ff" height="5" stroke-width="0" transform=" rotate(0, 259, 139)" width="5" x="257.1496" y="136.5188"/>
  <polygon fill="#6dd6ff" points="269.3012,144.7639 271.8012,139.7639 274.3012,144.7639" stroke-width="0" transform=" rotate(0, 271, 142)"/>
  <ellipse cx="277.6987" cy="140.9634" fill="#6dd6ff" rx="2.5" ry="2.5" stroke-width="0" transform=" rotate(0, 277, 140)"/>
  <rect fill="#1b9fd8" height="7" stroke-width="0" transform=" rotate(0, 53, 150)" width="7" x="49.823" y="147.0407"/>
  <polygon fill="#1b9fd8" points="56.1973,152.0312 59.6973,145.0312 63.1973,152.0312" stroke-width="0" transform=" rotate(0, 59, 148)"/>
  <ellipse cx="69.1408" cy="149.3962" fill="#1b9fd8" rx="3.5" ry="3.5" stroke-width="0" transform=" rotate(0, 69, 149)"/>
  <rect fill="#1b9fd8" height="7" stroke-width="0" transform=" rotate(0, 78, 150)" width="7" x="74.6945" y="147.0585"/>
  <polygon fill="#1b9fd8" points="89.0355,155.6742 92.5355,148.6742 96.0355,155.6742" stroke-width="0" transform=" rotate(0, 92, 152)"/>
  <ellipse cx="97.9668" cy="150.4764" fill="#1b9fd8" rx="3.5" ry="3.5" stroke-width="0" transform=" rotate(0, 97, 150)"/>
  <rect fill="#1b9fd8" height="7" stroke-width="0" transform=" rotate(0, 110, 150)" width="7" x="106.8974" y="147.3334"/>
  <polygon fill="#1b9fd8" points="118.3858,152.4915 121.8858,145.4915 125.3858,152.4915" stroke-width="0" transform=" rotate(0, 121, 148)"/>
  <ellipse cx="132.1998" cy="148.2154" fill="#1b9fd8" rx="3.5" ry="3.5" stroke-width="0" transform=" rotate(0, 132, 148)"/>
  <rect fill="#1b9fd8" height="7" stroke-width="0" transform=" rotate(0, 139, 147)" width="7" x="135.9461" y="144.296"/>
  <polygon fill="#1b9fd8" points="147.9319,154.2832 151.4319,147.2832 154.9319,154.2832" stroke-width="0" transform=" rotate(0, 151, 150)"/>
  <ellipse cx="158.7815" cy="153.3865" fill="#1b9fd8" rx="3.5" ry="3.5" stroke-width="0" transform=" rotate(0, 158, 153)"/>
  <rect fill="#1b9fd8" height="7" stroke-width="0" transform=" rotate(0, 168, 153)" width="7" x="164.5932" y="149.6514"/>
  <polygon fill="#1b9fd8" points="175.3307,150.8576 178.8307,143.8576 182.3307,150.8576" stroke-width="0" transform=" rotate(0, 178, 147)"/>
  <ellipse cx="187.6148" cy="150.8285" fill="#1b9fd8" rx="3.5" ry="3.5" stroke-width="0" transform=" rotate(0, 187, 150)"/>
  <rect fill="#1b9fd8" height="7" stroke-width="0" transform=" rotate(0, 197, 150)" width="7" x="193.9103" y="146.6652"/>
  <polygon fill="#1b9fd8" points="205.7083,152.8324 209.2083,145.8324 212.7083,152.8324" stroke-width="0" transform=" rotate(0, 209, 149)"/>
  <ellipse cx="222.8577" cy="152.1431" fill="#1b9fd8" rx="3.5" ry="3.5" stroke-width="0" transform=" rotate(0, 222, 152)"/>
  <rect fill="#1b9fd8" height="7" stroke-width="0" transform=" rotate(0, 227, 152)" width="7" x="224.2253" y="149.3971"/>
  <polygon fill="#1b9fd8" points="238.7179,154.5095 242.2179,147.5095 245.7179,154.5095" stroke-width="0" transform=" rotate(0, 242, 151)"/>
  <ellipse cx="249.7076" cy="150.2716" fill="#1b9fd8" rx="3.5" ry="3.5" stroke-width="0" transform=" rotate(0, 249, 150)"/>
  <rect fill="#1b9fd8" height="7" stroke-width="0" transform=" rotate(0, 258, 146)" width="7" x="254.6131" y="143.0517"/>
  <polygon fill="#1b9fd8" points="267.7067,156.285 271.2067,149.285 274.7067,156.285" stroke-width="0" transform=" rotate(0, 271, 152)"/>
  <ellipse cx="282.6456" cy="149.9332" fill="#1b9fd8" rx="3.5" ry="3.5" stroke-width="0" transform=" rotate(0, 282, 149)"/>
  <rect fill="#006ca1" height="9" stroke-width="0" transform=" rotate(0, 51, 157)" width="9" x="46.6504" y="153.3234"/>
  <polygon fill="#006ca1" points="54.1741,165.9354 58.6741,156.9354 63.1741,165.9354" stroke-width="0" transform=" rotate(0, 58, 161)"/>
  <ellipse cx="65.9572" cy="160.4337" fill="#006ca1" rx="4.5" ry="4.5" stroke-width="0" transform=" rotate(0, 65, 160)"/>
  <rect fill="#006ca1" height="9" stroke-width="0" transform=" rotate(0, 80, 157)" width="9" x="75.8517" y="152.6164"/>
  <polygon fill="#006ca1" points="81.8406,161.3254 86.3406,152.3254 90.8406,161.3254" stroke-width="0" transform=" rotate(0, 86, 156)"/>
  <ellipse cx="100.7965" cy="163.3143" fill="#006ca1" rx="4.5" ry="4.5" stroke-width="0" transform=" rotate(0, 100, 163)"/>
  <rect fill="#006ca1" height="9" stroke-width="0" transform=" rotate(0, 112, 163)" width="9" x="107.5392" y="158.8134"/>
  <polygon fill="#006ca1" points="114.6117,165.2083 119.1117,156.2083 123.6117,165.2083" stroke-width="0" transform=" rotate(0, 119, 160)"/>
  <ellipse cx="132.6421" cy="161.0439" fill="#006ca1" rx="4.5" ry="4.5" stroke-width="0" transform=" rotate(0, 132, 161)"/>
  <rect fill="#006ca1" height="9" stroke-width="0" transform=" rotate(0, 138, 162)" width="9" x="133.9899" y="158.3721"/>
  <polygon fill="#006ca1" points="141.3091,164.4568 145.8091,155.4568 150.3091,164.4568" stroke-width="0" transform=" rotate(0, 145, 159)"/>
  <ellipse cx="155.7318" cy="159.6958" fill="#006ca1" rx="4.5" ry="4.5" stroke-width="0" transform=" rotate(0, 155, 159)"/>
  <rect fill="#006ca1" height="9" stroke-width="0" transform=" rotate(0, 173, 157)" width="9" x="168.7127" y="153.1778"/>
  <polygon fill="#006ca1" points="177.2283,161.3381 181.7283,152.3381 186.2283,161.3381" stroke-width="0" transform=" rotate(0, 181, 156)"/>
  <ellipse cx="185.6825" cy="163.4983" fill="#006ca1" rx="4.5" ry="4.5" stroke-width="0" transform=" rotate(0, 185, 163)"/>
  <rect fill="#006ca1" height="9" stroke-width="0" transform=" rotate(0, 201, 161)" width="9" x="196.5804" y="156.878"/>
  <polygon fill="#006ca1" points="208.6871,165.9448 213.1871,156.9448 217.6871,165.9448" stroke-width="0" transform=" rotate(0, 213, 161)"/>
  <ellipse cx="217.4802" cy="164.1584" fill="#006ca1" rx="4.5" ry="4.5" stroke-width="0" transform=" rotate(0, 217, 164)"/>
  <rect fill="#006ca1" height="9" stroke-width="0" transform=" rotate(0, 228, 156)" width="9" x="223.9555" y="151.5404"/>
  <polygon fill="#006ca1" points="234.3168,165.63 238.8168,156.63 243.3168,165.63" stroke-width="0" transform=" rotate(0, 238, 161)"/>
  <ellipse cx="246.3092" cy="158.4862" fill="#006ca1" rx="4.5" ry="4.5" stroke-width="0" transform=" rotate(0, 246, 158)"/>
  <rect fill="#006ca1" height="9" stroke-width="0" transform=" rotate(0, 264, 160)" width="9" x="259.7717" y="156.1454"/>
  <polygon fill="#006ca1" points="269.8315,168.4133 274.3315,159.4133 278.8315,168.4133" stroke-width="0" transform=" rotate(0, 274, 163)"/>
  <ellipse cx="276.7007" cy="156.0707" fill="#006ca1" rx="4.5" ry="4.5" stroke-width="0" transform=" rotate(0, 276, 156)"/>
  <rect fill="#006ca1" height="9" stroke-width="0" transform=" rotate(0, 48, 172)" width="9" x="44.4024" y="168.1982"/>
  <polygon fill="#006ca1" points="59.651,175.0314 64.151,166.0314 68.651,175.0314" stroke-width="0" transform=" rotate(0, 64, 170)"/>
  <ellipse cx="73.6119" cy="167.0886" fill="#006ca1" rx="4.5" ry="4.5" stroke-width="0" transform=" rotate(0, 73, 167)"/>
  <rect fill="#006ca1" height="9" stroke-width="0" transform=" rotate(0, 76, 168)" width="9" x="72.1863" y="164.4148"/>
  <polygon fill="#006ca1" points="85.1994,174.6072 89.6994,165.6072 94.1994,174.6072" stroke-width="0" transform=" rotate(0, 89, 170)"/>
  <ellipse cx="99.232" cy="172.1857" fill="#006ca1" rx="4.5" ry="4.5" stroke-width="0" transform=" rotate(0, 99, 172)"/>
  <rect fill="#006ca1" height="9" stroke-width="0" transform=" rotate(0, 110, 166)" width="9" x="106.4668" y="161.715"/>
  <polygon fill="#006ca1" points="115.3751,170.5192 119.8751,161.5192 124.3751,170.5192" stroke-width="0" transform=" rotate(0, 119, 166)"/>
  <ellipse cx="128.8531" cy="166.2181" fill="#006ca1" rx="4.5" ry="4.5" stroke-width="0" transform=" rotate(0, 128, 166)"/>
  <rect fill="#006ca1" height="9" stroke-width="0" transform=" rotate(0, 137, 168)" width="9" x="132.5923" y="164.3574"/>
  <polygon fill="#006ca1" points="147.5488,174.8747 152.0488,165.8747 156.5488,174.8747" stroke-width="0" transform=" rotate(0, 152, 170)"/>
  <ellipse cx="160.9821" cy="173.6277" fill="#006ca1" rx="4.5" ry="4.5" stroke-width="0" transform=" rotate(0, 160, 173)"/>
  <rect fill="#006ca1" height="9" stroke-width="0" transform=" rotate(0, 165, 173)" width="9" x="161.4405" y="168.9062"/>
  <polygon fill="#006ca1" points="176.8186,173.6199 181.3186,164.6199 185.8186,173.6199" stroke-width="0" transform=" rotate(0, 181, 169)"/>
  <ellipse cx="193.7606" cy="172.821" fill="#006ca1" rx="4.5" ry="4.5" stroke-width="0" transform=" rotate(0, 193, 172)"/>
  <rect fill="#006ca1" height="9" stroke-width="0" transform=" rotate(0, 200, 173)" width="9" x="195.6646" y="169.134"/>
  <polygon fill="#006ca1" points="204.6406,174.2199 209.1406,165.2199 213.6406,174.2199" stroke-width="0" transform=" rotate(0, 209, 169)"/>
  <ellipse cx="222.1648" cy="166.7908" fill="#006ca1" rx="4.5" ry="4.5" stroke-width="0" transform=" rotate(0, 222, 166)"/>
  <rect fill="#006ca1" height="9" stroke-width="0" transform=" rotate(0, 231, 169)" width="9" x="227.2704" y="165.1623"/>
  <polygon fill="#006ca1" points="232.643,173.5795 237.143,164.5795 241.643,173.5795" stroke-width="0" transform=" rotate(0, 237, 169)"/>
  <ellipse cx="251.2234" cy="169.2791" fill="#006ca1" rx="4.5" ry="4.5" stroke-width="0" transform=" rotate(0, 251, 169)"/>
  <rect fill="#006ca1" height="9" stroke-width="0" transform=" rotate(0, 262, 166)" width="9" x="258.2195" y="162.0431"/>
  <polygon fill="#006ca1" points="269.1076,174.2112 273.6076,165.2112 278.1076,174.2112" stroke-width="0" transform=" rotate(0, 273, 169)"/>
  <ellipse cx="277.9739" cy="170.8031" fill="#006ca1" rx="4.5" ry="4.5" stroke-width="0" transform=" rotate(0, 277, 170)"/>
  <rect fill="#1b9fd8" height="7" stroke-width="0" transform=" rotate(0, 48, 182)" width="7" x="45.4318" y="178.7048"/>
  <polygon fill="#1b9fd8" points="53.8462,181.5429 57.3462,174.5429 60.8462,181.5429" stroke-width="0" transform=" rotate(0, 57, 178)"/>
  <ellipse cx="66.987" cy="177.8887" fill="#1b9fd8" rx="3.5" ry="3.5" stroke-width="0" transform=" rotate(0, 66, 177)"/>
  <rect fill="#1b9fd8" height="7" stroke-width="0" transform=" rotate(0, 77, 181)" width="7" x="73.6703" y="178.3418"/>
  <polygon fill="#1b9fd8" points="89.4792,181.1294 92.9792,174.1294 96.4792,181.1294" stroke-width="0" transform=" rotate(0, 92, 177)"/>
  <ellipse cx="103.2921" cy="179.1899" fill="#1b9fd8" rx="3.5" ry="3.5" stroke-width="0" transform=" rotate(0, 103, 179)"/>
  <rect fill="#1b9fd8" height="7" stroke-width="0" transform=" rotate(0, 110, 180)" width="7" x="107.0121" y="177.0389"/>
  <polygon fill="#1b9fd8" points="116.3568,183.0534 119.8568,176.0534 123.3568,183.0534" stroke-width="0" transform=" rotate(0, 119, 179)"/>
  <ellipse cx="132.9596" cy="183.1713" fill="#1b9fd8" rx="3.5" ry="3.5" stroke-width="0" transform=" rotate(0, 132, 183)"/>
  <rect fill="#1b9fd8" height="7" stroke-width="0" transform=" rotate(0, 143, 177)" width="7" x="139.9474" y="173.7588"/>
  <polygon fill="#1b9fd8" points="148.0116,180.5295 151.5116,173.5295 155.0116,180.5295" stroke-width="0" transform=" rotate(0, 151, 177)"/>
  <ellipse cx="159.8062" cy="182.9238" fill="#1b9fd8" rx="3.5" ry="3.5" stroke-width="0" transform=" rotate(0, 159, 182)"/>
  <rect fill="#1b9fd8" height="7" stroke-width="0" transform=" rotate(0, 171, 180)" width="7" x="168.4499" y="177.2483"/>
  <polygon fill="#1b9fd8" points="176.0284,185.6128 179.5284,178.6128 183.0284,185.6128" stroke-width="0" transform=" rotate(0, 179, 182)"/>
  <ellipse cx="189.2991" cy="176.6296" fill="#1b9fd8" rx="3.5" ry="3.5" stroke-width="0" transform=" rotate(0, 189, 176)"/>
  <rect fill="#1b9fd8" height="7" stroke-width="0" transform=" rotate(0, 200, 177)" width="7" x="197.0355" y="173.5554"/>
  <polygon fill="#1b9fd8" points="209.5234,185.7056 213.0234,178.7056 216.5234,185.7056" stroke-width="0" transform=" rotate(0, 213, 182)"/>
  <ellipse cx="219.7524" cy="177.8928" fill="#1b9fd8" rx="3.5" ry="3.5" stroke-width="0" transform=" rotate(0, 219, 177)"/>
  <rect fill="#1b9fd8" height="7" stroke-width="0" transform=" rotate(0, 230, 182)" width="7" x="226.9602" y="178.6927"/>
  <polygon fill="#1b9fd8" points="235.4398,180.3666 238.9398,173.3666 242.4398,180.3666" stroke-width="0" transform=" rotate(0, 238, 176)"/>
  <ellipse cx="247.349" cy="181.3879" fill="#1b9fd8" rx="3.5" ry="3.5" stroke-width="0" transform=" rotate(0, 247, 181)"/>
  <rect fill="#1b9fd8" height="7" stroke-width="0" transform=" rotate(0, 262, 177)" width="7" x="258.5619" y="173.6609"/>
  <polygon fill="#1b9fd8" points="266.6785,180.3737 270.1785,173.3737 273.6785,180.3737" stroke-width="0" transform=" rotate(0, 270, 176)"/>
  <ellipse cx="277.1403" cy="180.7437" fill="#1b9fd8" rx="3.5" ry="3.5" stroke-width="0" transform=" rotate(0, 277, 180)"/>
  <rect fill="#6dd6ff" height="5" stroke-width="0" transform=" rotate(0, 49, 189)" width="5" x="47.2945" y="186.6803"/>
  <polygon fill="#6dd6ff" points="59.9297,194.3142 62.4297,189.3142 64.9297,194.3142" stroke-width="0" transform=" rotate(0, 62, 191)"/>
  <ellipse cx="68.4171" cy="191.8401" fill="#6dd6ff" rx="2.5" ry="2.5" stroke-width="0" transform=" rotate(0, 68, 191)"/>
  <rect fill="#6dd6ff" height="5" stroke-width="0" transform=" rotate(0, 81, 189)" width="5" x="79.367" y="186.9496"/>
  <polygon fill="#6dd6ff" points="86.6832,194.4911 89.1832,189.4911 91.6832,194.4911" stroke-width="0" transform=" rotate(0, 89, 191)"/>
  <ellipse cx="97.9265" cy="190.322" fill="#6dd6ff" rx="2.5" ry="2.5" stroke-width="0" transform=" rotate(0, 97, 190)"/>
  <rect fill="#6dd6ff" height="5" stroke-width="0" transform=" rotate(0, 109, 189)" width="5" x="106.6118" y="186.9914"/>
  <polygon fill="#6dd6ff" points="118.3098,190.2672 120.8098,185.2672 123.3098,190.2672" stroke-width="0" transform=" rotate(0, 120, 187)"/>
  <ellipse cx="131.6757" cy="192.1968" fill="#6dd6ff" rx="2.5" ry="2.5" stroke-width="0" transform=" rotate(0, 131, 192)"/>
  <rect fill="#6dd6ff" height="5" stroke-width="0" transform=" rotate(0, 138, 188)" width="5" x="135.9677" y="185.802"/>
  <polygon fill="#6dd6ff" points="149.2923,191.1094 151.7923,186.1094 154.2923,191.1094" stroke-width="0" transform=" rotate(0, 151, 188)"/>
  <ellipse cx="159.0313" cy="191.1565" fill="#6dd6ff" rx="2.5" ry="2.5" stroke-width="0" transform=" rotate(0, 159, 191)"/>
  <rect fill="#6dd6ff" height="5" stroke-width="0" transform=" rotate(0, 168, 191)" width="5" x="165.5293" y="189.304"/>
  <polygon fill="#6dd6ff" points="179.5452,191.5911 182.0452,186.5911 184.5452,191.5911" stroke-width="0" transform=" rotate(0, 182, 189)"/>
  <ellipse cx="188.1799" cy="188.5624" fill="#6dd6ff" rx="2.5" ry="2.5" stroke-width="0" transform=" rotate(0, 188, 188)"/>
  <rect fill="#6dd6ff" height="5" stroke-width="0" transform=" rotate(0, 201, 190)" width="5" x="198.7746" y="187.8845"/>
  <polygon fill="#6dd6ff" points="205.8115,193.8635 208.3115,188.8635 210.8115,193.8635" stroke-width="0" transform=" rotate(0, 208, 191)"/>
  <ellipse cx="218.6167" cy="189.4299" fill="#6dd6ff" rx="2.5" ry="2.5" stroke-width="0" transform=" rotate(0, 218, 189)"/>
  <rect fill="#6dd6ff" height="5" stroke-width="0" transform=" rotate(0, 229, 187)" width="5" x="226.9482" y="185.0049"/>
  <polygon fill="#6dd6ff" points="238.2266,194.2179 240.7266,189.2179 243.2266,194.2179" stroke-width="0" transform=" rotate(0, 240, 191)"/>
  <ellipse cx="249.5564" cy="188.0376" fill="#6dd6ff" rx="2.5" ry="2.5" stroke-width="0" transform=" rotate(0, 249, 188)"/>
  <rect fill="#6dd6ff" height="5" stroke-width="0" transform=" rotate(0, 260, 187)" width="5" x="258.4718" y="185.061"/>
  <polygon fill="#6dd6ff" points="267.7864,193.5687 270.2864,188.5687 272.7864,193.5687" stroke-width="0" transform=" rotate(0, 270, 191)"/>
  <ellipse cx="277.9638" cy="189.1775" fill="#6dd6ff" rx="2.5" ry="2.5" stroke-width="0" transform=" rotate(0, 277, 189)"/>
  <rect fill="#006ca1" height="9" stroke-width="0" transform=" rotate(0, 47, 196)" width="9" x="43.3731" y="192.4781"/>
  <polygon fill="#006ca1" points="51.3943,203.065 55.8943,194.065 60.3943,203.065" stroke-width="0" transform=" rotate(0, 55, 198)"/>
  <ellipse cx="72.5796" cy="196.2046" fill="#006ca1" rx="4.5" ry="4.5" stroke-width="0" transform=" rotate(0, 72, 196)"/>
  <rect fill="#006ca1" height="9" stroke-width="0" transform=" rotate(0, 79, 204)" width="9" x="75.2385" y="199.6925"/>
  <polygon fill="#006ca1" points="86.0193,205.5732 90.5193,196.5732 95.0193,205.5732" stroke-width="0" transform=" rotate(0, 90, 201)"/>
  <ellipse cx="103.2491" cy="195.4719" fill="#006ca1" rx="4.5" ry="4.5" stroke-width="0" transform=" rotate(0, 103, 195)"/>
  <rect fill="#006ca1" height="9" stroke-width="0" transform=" rotate(0, 105, 199)" width="9" x="101.0444" y="195.3576"/>
  <polygon fill="#006ca1" points="114.033,208.4241 118.533,199.4241 123.033,208.4241" stroke-width="0" transform=" rotate(0, 118, 203)"/>
  <ellipse cx="125.7886" cy="196.2811" fill="#006ca1" rx="4.5" ry="4.5" stroke-width="0" transform=" rotate(0, 125, 196)"/>
  <rect fill="#006ca1" height="9" stroke-width="0" transform=" rotate(0, 136, 198)" width="9" x="132.4663" y="193.6231"/>
  <polygon fill="#006ca1" points="145.7664,201.6735 150.2664,192.6735 154.7664,201.6735" stroke-width="0" transform=" rotate(0, 150, 197)"/>
  <ellipse cx="159.5804" cy="203.4379" fill="#006ca1" rx="4.5" ry="4.5" stroke-width="0" transform=" rotate(0, 159, 203)"/>
  <rect fill="#006ca1" height="9" stroke-width="0" transform=" rotate(0, 165, 203)" width="9" x="161.2517" y="199.4926"/>
  <polygon fill="#006ca1" points="179.1881,202.929 183.6881,193.929 188.1881,202.929" stroke-width="0" transform=" rotate(0, 183, 198)"/>
  <ellipse cx="194.2307" cy="202.3626" fill="#006ca1" rx="4.5" ry="4.5" stroke-width="0" transform=" rotate(0, 194, 202)"/>
  <rect fill="#006ca1" height="9" stroke-width="0" transform=" rotate(0, 195, 195)" width="9" x="191.2229" y="190.974"/>
  <polygon fill="#006ca1" points="209.2379,202.3579 213.7379,193.3579 218.2379,202.3579" stroke-width="0" transform=" rotate(0, 213, 197)"/>
  <ellipse cx="221.0791" cy="199.1131" fill="#006ca1" rx="4.5" ry="4.5" stroke-width="0" transform=" rotate(0, 221, 199)"/>
  <rect fill="#006ca1" height="9" stroke-width="0" transform=" rotate(0, 230, 197)" width="9" x="225.6807" y="192.832"/>
  <polygon fill="#006ca1" points="231.1297,205.3113 235.6297,196.3113 240.1297,205.3113" stroke-width="0" transform=" rotate(0, 235, 200)"/>
  <ellipse cx="248.8961" cy="196.5022" fill="#006ca1" rx="4.5" ry="4.5" stroke-width="0" transform=" rotate(0, 248, 196)"/>
  <rect fill="#006ca1" height="9" stroke-width="0" transform=" rotate(0, 256, 201)" width="9" x="251.8901" y="196.6564"/>
  <polygon fill="#006ca1" points="266.9884,206.8357 271.4884,197.8357 275.9884,206.8357" stroke-width="0" transform=" rotate(0, 271, 202)"/>
  <ellipse cx="281.1347" cy="198.7035" fill="#006ca1" rx="4.5" ry="4.5" stroke-width="0" transform=" rotate(0, 281, 198)"/>
  <rect fill="#1b9fd8" height="7" stroke-width="0" transform=" rotate(0, 46, 207)" width="7" x="43.3715" y="204.121"/>
  <polygon fill="#1b9fd8" points="55.0261,213.6737 58.5261,206.6737 62.0261,213.6737" stroke-width="0" transform=" rotate(0, 58, 210)"/>
  <ellipse cx="67.7945" cy="208.3599" fill="#1b9fd8" rx="3.5" ry="3.5" stroke-width="0" transform=" rotate(0, 67, 208)"/>
  <rect fill="#1b9fd8" height="7" stroke-width="0" transform=" rotate(0, 79, 209)" width="7" x="75.9357" y="205.9102"/>
  <polygon fill="#1b9fd8" points="87.8395,215.9562 91.3395,208.9562 94.8395,215.9562" stroke-width="0" transform=" rotate(0, 91, 212)"/>
  <ellipse cx="102.3007" cy="209.7274" fill="#1b9fd8" rx="3.5" ry="3.5" stroke-width="0" transform=" rotate(0, 102, 209)"/>
  <rect fill="#1b9fd8" height="7" stroke-width="0" transform=" rotate(0, 112, 209)" width="7" x="108.8999" y="205.8196"/>
  <polygon fill="#1b9fd8" points="114.7603,210.8058 118.2603,203.8058 121.7603,210.8058" stroke-width="0" transform=" rotate(0, 118, 207)"/>
  <ellipse cx="130.4879" cy="212.648" fill="#1b9fd8" rx="3.5" ry="3.5" stroke-width="0" transform=" rotate(0, 130, 212)"/>
  <rect fill="#1b9fd8" height="7" stroke-width="0" transform=" rotate(0, 139, 211)" width="7" x="135.9511" y="207.7391"/>
  <polygon fill="#1b9fd8" points="146.6653,215.6063 150.1653,208.6063 153.6653,215.6063" stroke-width="0" transform=" rotate(0, 150, 212)"/>
  <ellipse cx="160.9748" cy="207.432" fill="#1b9fd8" rx="3.5" ry="3.5" stroke-width="0" transform=" rotate(0, 160, 207)"/>
  <rect fill="#1b9fd8" height="7" stroke-width="0" transform=" rotate(0, 167, 211)" width="7" x="164.0605" y="208.4734"/>
  <polygon fill="#1b9fd8" points="179.61,210.992 183.11,203.992 186.61,210.992" stroke-width="0" transform=" rotate(0, 183, 207)"/>
  <ellipse cx="192.0722" cy="213.3112" fill="#1b9fd8" rx="3.5" ry="3.5" stroke-width="0" transform=" rotate(0, 192, 213)"/>
  <rect fill="#1b9fd8" height="7" stroke-width="0" transform=" rotate(0, 198, 209)" width="7" x="194.8302" y="205.997"/>
  <polygon fill="#1b9fd8" points="205.3978,212.6714 208.8978,205.6714 212.3978,212.6714" stroke-width="0" transform=" rotate(0, 208, 209)"/>
  <ellipse cx="221.2347" cy="211.5323" fill="#1b9fd8" rx="3.5" ry="3.5" stroke-width="0" transform=" rotate(0, 221, 211)"/>
  <rect fill="#1b9fd8" height="7" stroke-width="0" transform=" rotate(0, 233, 211)" width="7" x="229.9427" y="207.5996"/>
  <polygon fill="#1b9fd8" points="234.0781,210.4453 237.5781,203.4453 241.0781,210.4453" stroke-width="0" transform=" rotate(0, 237, 206)"/>
  <ellipse cx="253.2961" cy="207.9098" fill="#1b9fd8" rx="3.5" ry="3.5" stroke-width="0" transform=" rotate(0, 253, 207)"/>
  <rect fill="#1b9fd8" height="7" stroke-width="0" transform=" rotate(0, 262, 211)" width="7" x="259.139" y="207.7392"/>
  <polygon fill="#1b9fd8" points="263.6638,214.2794 267.1638,207.2794 270.6638,214.2794" stroke-width="0" transform=" rotate(0, 267, 210)"/>
  <ellipse cx="280.0578" cy="209.5703" fill="#1b9fd8" rx="3.5" ry="3.5" stroke-width="0" transform=" rotate(0, 280, 209)"/>
  <rect fill="#6dd6ff" height="5" stroke-width="0" transform=" rotate(0, 50, 220)" width="5" x="48.169" y="218.2779"/>
  <polygon fill="#6dd6ff" points="59.6003,220.871 62.1003,215.871 64.6003,220.871" stroke-width="0" transform=" rotate(0, 62, 218)"/>
  <ellipse cx="71.2876" cy="219.6115" fill="#6dd6ff" rx="2.5" ry="2.5" stroke-width="0" transform=" rotate(0, 71, 219)"/>
  <rect fill="#6dd6ff" height="5" stroke-width="0" transform=" rotate(0, 80, 221)" width="5" x="77.5702" y="218.6237"/>
  <polygon fill="#6dd6ff" points="86.1858,222.4155 88.6858,217.4155 91.1858,222.4155" stroke-width="0" transform=" rotate(0, 88, 219)"/>
  <ellipse cx="100.6909" cy="218.5054" fill="#6dd6ff" rx="2.5" ry="2.5" stroke-width="0" transform=" rotate(0, 100, 218)"/>
  <rect fill="#6dd6ff" height="5" stroke-width="0" transform=" rotate(0, 108, 221)" width="5" x="105.8389" y="219.4398"/>
  <polygon fill="#6dd6ff" points="116.5456,220.9363 119.0456,215.9363 121.5456,220.9363" stroke-width="0" transform=" rotate(0, 119, 218)"/>
  <ellipse cx="129.456" cy="222.2178" fill="#6dd6ff" rx="2.5" ry="2.5" stroke-width="0" transform=" rotate(0, 129, 222)"/>
  <rect fill="#6dd6ff" height="5" stroke-width="0" transform=" rotate(0, 139, 218)" width="5" x="137.3809" y="215.973"/>
  <polygon fill="#6dd6ff" points="146.2485,220.8409 148.7485,215.8409 151.2485,220.8409" stroke-width="0" transform=" rotate(0, 148, 218)"/>
  <ellipse cx="159.7053" cy="220.0362" fill="#6dd6ff" rx="2.5" ry="2.5" stroke-width="0" transform=" rotate(0, 159, 220)"/>
  <rect fill="#6dd6ff" height="5" stroke-width="0" transform=" rotate(0, 171, 218)" width="5" x="168.7999" y="216.2129"/>
  <polygon fill="#6dd6ff" points="176.1897,224.2187 178.6897,219.2187 181.1897,224.2187" stroke-width="0" transform=" rotate(0, 178, 221)"/>
  <ellipse cx="191.647" cy="220.5451" fill="#6dd6ff" rx="2.5" ry="2.5" stroke-width="0" transform=" rotate(0, 191, 220)"/>
  <rect fill="#6dd6ff" height="5" stroke-width="0" transform=" rotate(0, 202, 221)" width="5" x="199.7872" y="219.1286"/>
  <polygon fill="#6dd6ff" points="208.6913,221.745 211.1913,216.745 213.6913,221.745" stroke-width="0" transform=" rotate(0, 211, 219)"/>
  <ellipse cx="218.8006" cy="218.6044" fill="#6dd6ff" rx="2.5" ry="2.5" stroke-width="0" transform=" rotate(0, 218, 218)"/>
  <rect fill="#6dd6ff" height="5" stroke-width="0" transform=" rotate(0, 229, 217)" width="5" x="227.3919" y="215.0636"/>
  <polygon fill="#6dd6ff" points="238.5578,223.8701 241.0578,218.8701 243.5578,223.8701" stroke-width="0" transform=" rotate(0, 241, 221)"/>
  <ellipse cx="248.2244" cy="219.0318" fill="#6dd6ff" rx="2.5" ry="2.5" stroke-width="0" transform=" rotate(0, 248, 219)"/>
  <rect fill="#6dd6ff" height="5" stroke-width="0" transform=" rotate(0, 261, 217)" width="5" x="259.0622" y="215.1261"/>
  <polygon fill="#6dd6ff" points="265.9095,222.4135 268.4095,217.4135 270.9095,222.4135" stroke-width="0" transform=" rotate(0, 268, 219)"/>
  <ellipse cx="277.8774" cy="220.9805" fill="#6dd6ff" rx="2.5" ry="2.5" stroke-width="0" transform=" rotate(0, 277, 220)"/>
  <rect fill="#006ca1" height="9" stroke-width="0" transform=" rotate(0, 53, 226)" width="9" x="49.4126" y="221.9271"/>
  <polygon fill="#006ca1" points="56.9313,231.2526 61.4313,222.2526 65.9313,231.2526" stroke-width="0" transform=" rotate(0, 61, 226)"/>
  <ellipse cx="68.9958" cy="232.3445" fill="#006ca1" rx="4.5" ry="4.5" stroke-width="0" transform=" rotate(0, 68, 232)"/>
  <rect fill="#006ca1" height="9" stroke-width="0" transform=" rotate(0, 83, 234)" width="9" x="79.1133" y="229.548"/>
  <polygon fill="#006ca1" points="88.265,237.3865 92.765,228.3865 97.265,237.3865" stroke-width="0" transform=" rotate(0, 92, 232)"/>
  <ellipse cx="104.1712" cy="229.8612" fill="#006ca1" rx="4.5" ry="4.5" stroke-width="0" transform=" rotate(0, 104, 229)"/>
  <rect fill="#006ca1" height="9" stroke-width="0" transform=" rotate(0, 110, 225)" width="9" x="106.3094" y="221.0488"/>
  <polygon fill="#006ca1" points="117.9004,235.942 122.4004,226.942 126.9004,235.942" stroke-width="0" transform=" rotate(0, 122, 231)"/>
  <ellipse cx="132.0554" cy="227.7659" fill="#006ca1" rx="4.5" ry="4.5" stroke-width="0" transform=" rotate(0, 132, 227)"/>
  <rect fill="#006ca1" height="9" stroke-width="0" transform=" rotate(0, 136, 233)" width="9" x="131.6647" y="229.1543"/>
  <polygon fill="#006ca1" points="145.4671,231.611 149.9671,222.611 154.4671,231.611" stroke-width="0" transform=" rotate(0, 149, 227)"/>
  <ellipse cx="162.2262" cy="231.0403" fill="#006ca1" rx="4.5" ry="4.5" stroke-width="0" transform=" rotate(0, 162, 231)"/>
  <rect fill="#006ca1" height="9" stroke-width="0" transform=" rotate(0, 166, 229)" width="9" x="161.7653" y="224.8916"/>
  <polygon fill="#006ca1" points="179.2317,235.922 183.7317,226.922 188.2317,235.922" stroke-width="0" transform=" rotate(0, 183, 231)"/>
  <ellipse cx="189.2371" cy="233.6733" fill="#006ca1" rx="4.5" ry="4.5" stroke-width="0" transform=" rotate(0, 189, 233)"/>
  <rect fill="#006ca1" height="9" stroke-width="0" transform=" rotate(0, 202, 233)" width="9" x="197.6089" y="229.2253"/>
  <polygon fill="#006ca1" points="203.4079,235.1538 207.9079,226.1538 212.4079,235.1538" stroke-width="0" transform=" rotate(0, 207, 230)"/>
  <ellipse cx="220.9872" cy="227.713" fill="#006ca1" rx="4.5" ry="4.5" stroke-width="0" transform=" rotate(0, 220, 227)"/>
  <rect fill="#006ca1" height="9" stroke-width="0" transform=" rotate(0, 234, 227)" width="9" x="229.5447" y="222.6616"/>
  <polygon fill="#006ca1" points="235.4525,231.7726 239.9525,222.7726 244.4525,231.7726" stroke-width="0" transform=" rotate(0, 239, 227)"/>
  <ellipse cx="252.6484" cy="229.5332" fill="#006ca1" rx="4.5" ry="4.5" stroke-width="0" transform=" rotate(0, 252, 229)"/>
  <rect fill="#006ca1" height="9" stroke-width="0" transform=" rotate(0, 256, 228)" width="9" x="251.7222" y="223.5379"/>
  <polygon fill="#006ca1" points="269.3214,238.4598 273.8214,229.4598 278.3214,238.4598" stroke-width="0" transform=" rotate(0, 273, 233)"/>
  <ellipse cx="278.4696" cy="230.6101" fill="#006ca1" rx="4.5" ry="4.5" stroke-width="0" transform=" rotate(0, 278, 230)"/>
  <rect fill="#1b9fd8" height="7" stroke-width="0" transform=" rotate(0, 48, 236)" width="7" x="44.6592" y="233.2238"/>
  <polygon fill="#1b9fd8" points="53.4009,241.1684 56.9009,234.1684 60.4009,241.1684" stroke-width="0" transform=" rotate(0, 56, 237)"/>
  <ellipse cx="68.1267" cy="240.0721" fill="#1b9fd8" rx="3.5" ry="3.5" stroke-width="0" transform=" rotate(0, 68, 240)"/>
  <rect fill="#1b9fd8" height="7" stroke-width="0" transform=" rotate(0, 77, 237)" width="7" x="73.8712" y="233.6381"/>
  <polygon fill="#1b9fd8" points="83.6187,243.9704 87.1187,236.9704 90.6187,243.9704" stroke-width="0" transform=" rotate(0, 87, 240)"/>
  <ellipse cx="96.7687" cy="238.1607" fill="#1b9fd8" rx="3.5" ry="3.5" stroke-width="0" transform=" rotate(0, 96, 238)"/>
  <rect fill="#1b9fd8" height="7" stroke-width="0" transform=" rotate(0, 106, 240)" width="7" x="103.0075" y="237.2537"/>
  <polygon fill="#1b9fd8" points="116.5472,243.7277 120.0472,236.7277 123.5472,243.7277" stroke-width="0" transform=" rotate(0, 120, 240)"/>
  <ellipse cx="132.1876" cy="240.6699" fill="#1b9fd8" rx="3.5" ry="3.5" stroke-width="0" transform=" rotate(0, 132, 240)"/>
  <rect fill="#1b9fd8" height="7" stroke-width="0" transform=" rotate(0, 142, 237)" width="7" x="138.9494" y="233.8023"/>
  <polygon fill="#1b9fd8" points="145.0039,240.5434 148.5039,233.5434 152.0039,240.5434" stroke-width="0" transform=" rotate(0, 148, 237)"/>
  <ellipse cx="161.981" cy="241.5129" fill="#1b9fd8" rx="3.5" ry="3.5" stroke-width="0" transform=" rotate(0, 161, 241)"/>
  <rect fill="#1b9fd8" height="7" stroke-width="0" transform=" rotate(0, 170, 238)" width="7" x="167.0761" y="234.9166"/>
  <polygon fill="#1b9fd8" points="173.6955,241.2709 177.1955,234.2709 180.6955,241.2709" stroke-width="0" transform=" rotate(0, 177, 237)"/>
  <ellipse cx="188.4613" cy="238.5052" fill="#1b9fd8" rx="3.5" ry="3.5" stroke-width="0" transform=" rotate(0, 188, 238)"/>
  <rect fill="#1b9fd8" height="7" stroke-width="0" transform=" rotate(0, 201, 237)" width="7" x="198.3038" y="233.7221"/>
  <polygon fill="#1b9fd8" points="203.8994,245.7096 207.3994,238.7096 210.8994,245.7096" stroke-width="0" transform=" rotate(0, 207, 242)"/>
  <ellipse cx="220.5931" cy="236.9018" fill="#1b9fd8" rx="3.5" ry="3.5" stroke-width="0" transform=" rotate(0, 220, 236)"/>
  <rect fill="#1b9fd8" height="7" stroke-width="0" transform=" rotate(0, 227, 242)" width="7" x="223.8248" y="238.5416"/>
  <polygon fill="#1b9fd8" points="235.193,246.2464 238.693,239.2464 242.193,246.2464" stroke-width="0" transform=" rotate(0, 238, 242)"/>
  <ellipse cx="249.9898" cy="238.9116" fill="#1b9fd8" rx="3.5" ry="3.5" stroke-width="0" transform=" rotate(0, 249, 238)"/>
  <rect fill="#1b9fd8" height="7" stroke-width="0" transform=" rotate(0, 257, 237)" width="7" x="253.5746" y="233.6827"/>
  <polygon fill="#1b9fd8" points="269.8333,240.236 273.3333,233.236 276.8333,240.236" stroke-width="0" transform=" rotate(0, 273, 236)"/>
  <ellipse cx="281.0656" cy="241.3246" fill="#1b9fd8" rx="3.5" ry="3.5" stroke-width="0" transform=" rotate(0, 281, 241)"/>
  <rect fill="#6dd6ff" height="5" stroke-width="0" transform=" rotate(0, 48, 250)" width="5" x="45.866" y="247.7518"/>
  <polygon fill="#6dd6ff" points="55.4059,250.9046 57.9059,245.9046 60.4059,250.9046" stroke-width="0" transform=" rotate(0, 57, 248)"/>
  <ellipse cx="70.2156" cy="252.195" fill="#6dd6ff" rx="2.5" ry="2.5" stroke-width="0" transform=" rotate(0, 70, 252)"/>
  <rect fill="#6dd6ff" height="5" stroke-width="0" transform=" rotate(0, 79, 252)" width="5" x="77.2675" y="249.633"/>
  <polygon fill="#6dd6ff" points="86.6237,252.8949 89.1237,247.8949 91.6237,252.8949" stroke-width="0" transform=" rotate(0, 89, 250)"/>
  <ellipse cx="100.7654" cy="248.8933" fill="#6dd6ff" rx="2.5" ry="2.5" stroke-width="0" transform=" rotate(0, 100, 248)"/>
  <rect fill="#6dd6ff" height="5" stroke-width="0" transform=" rotate(0, 112, 250)" width="5" x="109.5104" y="248.2381"/>
  <polygon fill="#6dd6ff" points="116.9283,254.5464 119.4283,249.5464 121.9283,254.5464" stroke-width="0" transform=" rotate(0, 119, 252)"/>
  <ellipse cx="128.4263" cy="251.5977" fill="#6dd6ff" rx="2.5" ry="2.5" stroke-width="0" transform=" rotate(0, 128, 251)"/>
  <rect fill="#6dd6ff" height="5" stroke-width="0" transform=" rotate(0, 140, 251)" width="5" x="138.3092" y="249.4942"/>
  <polygon fill="#6dd6ff" points="146.1485,253.9231 148.6485,248.9231 151.1485,253.9231" stroke-width="0" transform=" rotate(0, 148, 251)"/>
  <ellipse cx="158.8279" cy="250.5947" fill="#6dd6ff" rx="2.5" ry="2.5" stroke-width="0" transform=" rotate(0, 158, 250)"/>
  <rect fill="#6dd6ff" height="5" stroke-width="0" transform=" rotate(0, 170, 252)" width="5" x="168.0896" y="249.9079"/>
  <polygon fill="#6dd6ff" points="179.7427,250.1323 182.2427,245.1323 184.7427,250.1323" stroke-width="0" transform=" rotate(0, 182, 247)"/>
  <ellipse cx="187.4582" cy="249.0402" fill="#6dd6ff" rx="2.5" ry="2.5" stroke-width="0" transform=" rotate(0, 187, 249)"/>
  <rect fill="#6dd6ff" height="5" stroke-width="0" transform=" rotate(0, 201, 249)" width="5" x="198.7502" y="247.034"/>
  <polygon fill="#6dd6ff" points="209.7614,251.9528 212.2614,246.9528 214.7614,251.9528" stroke-width="0" transform=" rotate(0, 212, 249)"/>
  <ellipse cx="220.5616" cy="249.8071" fill="#6dd6ff" rx="2.5" ry="2.5" stroke-width="0" transform=" rotate(0, 220, 249)"/>
  <rect fill="#6dd6ff" height="5" stroke-width="0" transform=" rotate(0, 231, 250)" width="5" x="228.977" y="247.9072"/>
  <polygon fill="#6dd6ff" points="237.2876,252.6094 239.7876,247.6094 242.2876,252.6094" stroke-width="0" transform=" rotate(0, 239, 250)"/>
  <ellipse cx="251.7242" cy="251.1721" fill="#6dd6ff" rx="2.5" ry="2.5" stroke-width="0" transform=" rotate(0, 251, 251)"/>
  <rect fill="#6dd6ff" height="5" stroke-width="0" transform=" rotate(0, 260, 247)" width="5" x="258.4572" y="245.2851"/>
  <polygon fill="#6dd6ff" points="268.3896,252.0136 270.8896,247.0136 273.3896,252.0136" stroke-width="0" transform=" rotate(0, 270, 249)"/>
  <ellipse cx="277.6028" cy="251.255" fill="#6dd6ff" rx="2.5" ry="2.5" stroke-width="0" transform=" rotate(0, 277, 251)"/>
  <rect fill="#006ca1" height="9" stroke-width="0" transform=" rotate(0, 53, 263)" width="9" x="48.792" y="258.9349"/>
  <polygon fill="#006ca1" points="53.0536,262.3896 57.5536,253.3896 62.0536,262.3896" stroke-width="0" transform=" rotate(0, 57, 257)"/>
  <ellipse cx="74.3905" cy="260.507" fill="#006ca1" rx="4.5" ry="4.5" stroke-width="0" transform=" rotate(0, 74, 260)"/>
  <rect fill="#006ca1" height="9" stroke-width="0" transform=" rotate(0, 76, 257)" width="9" x="72.3079" y="253.2601"/>
  <polygon fill="#006ca1" points="87.6836,260.7252 92.1836,251.7252 96.6836,260.7252" stroke-width="0" transform=" rotate(0, 92, 256)"/>
  <ellipse cx="96.5077" cy="262.1685" fill="#006ca1" rx="4.5" ry="4.5" stroke-width="0" transform=" rotate(0, 96, 262)"/>
  <rect fill="#006ca1" height="9" stroke-width="0" transform=" rotate(0, 109, 256)" width="9" x="105.3334" y="251.7259"/>
  <polygon fill="#006ca1" points="113.4707,263.0912 117.9707,254.0912 122.4707,263.0912" stroke-width="0" transform=" rotate(0, 117, 258)"/>
  <ellipse cx="132.2055" cy="256.8122" fill="#006ca1" rx="4.5" ry="4.5" stroke-width="0" transform=" rotate(0, 132, 256)"/>
  <rect fill="#006ca1" height="9" stroke-width="0" transform=" rotate(0, 137, 256)" width="9" x="132.704" y="252.3423"/>
  <polygon fill="#006ca1" points="141.216,262.1326 145.716,253.1326 150.216,262.1326" stroke-width="0" transform=" rotate(0, 145, 257)"/>
  <ellipse cx="162.9061" cy="264.0422" fill="#006ca1" rx="4.5" ry="4.5" stroke-width="0" transform=" rotate(0, 162, 264)"/>
  <rect fill="#006ca1" height="9" stroke-width="0" transform=" rotate(0, 170, 257)" width="9" x="165.6998" y="252.8617"/>
  <polygon fill="#006ca1" points="178.7058,263.6904 183.2058,254.6904 187.7058,263.6904" stroke-width="0" transform=" rotate(0, 183, 259)"/>
  <ellipse cx="186.9546" cy="261.4616" fill="#006ca1" rx="4.5" ry="4.5" stroke-width="0" transform=" rotate(0, 186, 261)"/>
  <rect fill="#006ca1" height="9" stroke-width="0" transform=" rotate(0, 200, 263)" width="9" x="195.7241" y="259.2458"/>
  <polygon fill="#006ca1" points="209.5287,263.152 214.0287,254.152 218.5287,263.152" stroke-width="0" transform=" rotate(0, 214, 258)"/>
  <ellipse cx="219.6401" cy="259.0935" fill="#006ca1" rx="4.5" ry="4.5" stroke-width="0" transform=" rotate(0, 219, 259)"/>
  <rect fill="#006ca1" height="9" stroke-width="0" transform=" rotate(0, 228, 259)" width="9" x="224.3703" y="255.4151"/>
  <polygon fill="#006ca1" points="233.358,265.726 237.858,256.726 242.358,265.726" stroke-width="0" transform=" rotate(0, 237, 261)"/>
  <ellipse cx="248.4617" cy="257.0812" fill="#006ca1" rx="4.5" ry="4.5" stroke-width="0" transform=" rotate(0, 248, 257)"/>
  <rect fill="#006ca1" height="9" stroke-width="0" transform=" rotate(0, 261, 257)" width="9" x="257.1606" y="253.4215"/>
  <polygon fill="#006ca1" points="261.6839,263.5047 266.1839,254.5047 270.6839,263.5047" stroke-width="0" transform=" rotate(0, 266, 259)"/>
  <ellipse cx="278.3369" cy="259.6333" fill="#006ca1" rx="4.5" ry="4.5" stroke-width="0" transform=" rotate(0, 278, 259)"/>
  <rect fill="#1b9fd8" height="7" stroke-width="0" transform=" rotate(0, 49, 269)" width="7" x="45.6884" y="265.741"/>
  <polygon fill="#1b9fd8" points="57.8254,276.6452 61.3254,269.6452 64.8254,276.6452" stroke-width="0" transform=" rotate(0, 61, 273)"/>
  <ellipse cx="69.8497" cy="266.5554" fill="#1b9fd8" rx="3.5" ry="3.5" stroke-width="0" transform=" rotate(0, 69, 266)"/>
  <rect fill="#1b9fd8" height="7" stroke-width="0" transform=" rotate(0, 81, 268)" width="7" x="78.0528" y="264.8688"/>
  <polygon fill="#1b9fd8" points="88.5336,275.057 92.0336,268.057 95.5336,275.057" stroke-width="0" transform=" rotate(0, 92, 271)"/>
  <ellipse cx="96.8995" cy="271.8779" fill="#1b9fd8" rx="3.5" ry="3.5" stroke-width="0" transform=" rotate(0, 96, 271)"/>
  <rect fill="#1b9fd8" height="7" stroke-width="0" transform=" rotate(0, 107, 268)" width="7" x="104.2156" y="265.3444"/>
  <polygon fill="#1b9fd8" points="115.6356,269.9735 119.1356,262.9735 122.6356,269.9735" stroke-width="0" transform=" rotate(0, 119, 266)"/>
  <ellipse cx="131.8321" cy="272.4865" fill="#1b9fd8" rx="3.5" ry="3.5" stroke-width="0" transform=" rotate(0, 131, 272)"/>
  <rect fill="#1b9fd8" height="7" stroke-width="0" transform=" rotate(0, 143, 272)" width="7" x="139.9117" y="269.4484"/>
  <polygon fill="#1b9fd8" points="149.8775,271.2784 153.3775,264.2784 156.8775,271.2784" stroke-width="0" transform=" rotate(0, 153, 267)"/>
  <ellipse cx="161.8146" cy="268.8014" fill="#1b9fd8" rx="3.5" ry="3.5" stroke-width="0" transform=" rotate(0, 161, 268)"/>
  <rect fill="#1b9fd8" height="7" stroke-width="0" transform=" rotate(0, 167, 272)" width="7" x="164.2632" y="268.5407"/>
  <polygon fill="#1b9fd8" points="179.8678,276.4536 183.3678,269.4536 186.8678,276.4536" stroke-width="0" transform=" rotate(0, 183, 272)"/>
  <ellipse cx="186.6906" cy="266.7788" fill="#1b9fd8" rx="3.5" ry="3.5" stroke-width="0" transform=" rotate(0, 186, 266)"/>
  <rect fill="#1b9fd8" height="7" stroke-width="0" transform=" rotate(0, 201, 272)" width="7" x="198.2929" y="269.4913"/>
  <polygon fill="#1b9fd8" points="203.6207,273.786 207.1207,266.786 210.6207,273.786" stroke-width="0" transform=" rotate(0, 207, 270)"/>
  <ellipse cx="219.0493" cy="271.9759" fill="#1b9fd8" rx="3.5" ry="3.5" stroke-width="0" transform=" rotate(0, 219, 271)"/>
  <rect fill="#1b9fd8" height="7" stroke-width="0" transform=" rotate(0, 226, 268)" width="7" x="223.4606" y="265.4421"/>
  <polygon fill="#1b9fd8" points="237.6417,275.187 241.1417,268.187 244.6417,275.187" stroke-width="0" transform=" rotate(0, 241, 271)"/>
  <ellipse cx="246.5138" cy="271.1235" fill="#1b9fd8" rx="3.5" ry="3.5" stroke-width="0" transform=" rotate(0, 246, 271)"/>
  <rect fill="#1b9fd8" height="7" stroke-width="0" transform=" rotate(0, 260, 270)" width="7" x="257.1402" y="266.9772"/>
  <polygon fill="#1b9fd8" points="264.0082,275.0773 267.5082,268.0773 271.0082,275.0773" stroke-width="0" transform=" rotate(0, 267, 271)"/>
  <ellipse cx="282.5425" cy="268.7096" fill="#1b9fd8" rx="3.5" ry="3.5" stroke-width="0" transform=" rotate(0, 282, 268)"/>
  <rect fill="#6dd6ff" height="5" stroke-width="0" transform=" rotate(0, 47, 280)" width="5" x="45.0008" y="278.0489"/>
  <polygon fill="#6dd6ff" points="59.4231,280.27 61.9231,275.27 64.4231,280.27" stroke-width="0" transform=" rotate(0, 61, 277)"/>
  <ellipse cx="69.27" cy="279.5116" fill="#6dd6ff" rx="2.5" ry="2.5" stroke-width="0" transform=" rotate(0, 69, 279)"/>
  <rect fill="#6dd6ff" height="5" stroke-width="0" transform=" rotate(0, 78, 281)" width="5" x="75.9334" y="279.131"/>
  <polygon fill="#6dd6ff" points="87.9856,282.7033 90.4856,277.7033 92.9856,282.7033" stroke-width="0" transform=" rotate(0, 90, 280)"/>
  <ellipse cx="99.8375" cy="279.0485" fill="#6dd6ff" rx="2.5" ry="2.5" stroke-width="0" transform=" rotate(0, 99, 279)"/>
  <rect fill="#6dd6ff" height="5" stroke-width="0" transform=" rotate(0, 111, 280)" width="5" x="108.8462" y="278.1898"/>
  <polygon fill="#6dd6ff" points="115.9538,283.2048 118.4538,278.2048 120.9538,283.2048" stroke-width="0" transform=" rotate(0, 118, 280)"/>
  <ellipse cx="127.5283" cy="277.5465" fill="#6dd6ff" rx="2.5" ry="2.5" stroke-width="0" transform=" rotate(0, 127, 277)"/>
  <rect fill="#6dd6ff" height="5" stroke-width="0" transform=" rotate(0, 139, 281)" width="5" x="137.4242" y="278.7187"/>
  <polygon fill="#6dd6ff" points="147.0313,280.9579 149.5313,275.9579 152.0313,280.9579" stroke-width="0" transform=" rotate(0, 149, 278)"/>
  <ellipse cx="160.5532" cy="281.8123" fill="#6dd6ff" rx="2.5" ry="2.5" stroke-width="0" transform=" rotate(0, 160, 281)"/>
  <rect fill="#6dd6ff" height="5" stroke-width="0" transform=" rotate(0, 167, 280)" width="5" x="165.3127" y="277.8784"/>
  <polygon fill="#6dd6ff" points="176.6883,284.7125 179.1883,279.7125 181.6883,284.7125" stroke-width="0" transform=" rotate(0, 179, 282)"/>
  <ellipse cx="189.416" cy="281.9248" fill="#6dd6ff" rx="2.5" ry="2.5" stroke-width="0" transform=" rotate(0, 189, 281)"/>
  <rect fill="#6dd6ff" height="5" stroke-width="0" transform=" rotate(0, 201, 278)" width="5" x="198.5391" y="276.4792"/>
  <polygon fill="#6dd6ff" points="207.5383,284.8576 210.0383,279.8576 212.5383,284.8576" stroke-width="0" transform=" rotate(0, 210, 282)"/>
  <ellipse cx="219.3309" cy="278.5477" fill="#6dd6ff" rx="2.5" ry="2.5" stroke-width="0" transform=" rotate(0, 219, 278)"/>
  <rect fill="#6dd6ff" height="5" stroke-width="0" transform=" rotate(0, 231, 277)" width="5" x="228.6402" y="275.2931"/>
  <polygon fill="#6dd6ff" points="236.2081,284.5074 238.7081,279.5074 241.2081,284.5074" stroke-width="0" transform=" rotate(0, 238, 282)"/>
  <ellipse cx="247.5916" cy="281.8755" fill="#6dd6ff" rx="2.5" ry="2.5" stroke-width="0" transform=" rotate(0, 247, 281)"/>
  <rect fill="#6dd6ff" height="5" stroke-width="0" transform=" rotate(0, 259, 277)" width="5" x="257.3492" y="274.9657"/>
  <polygon fill="#6dd6ff" points="269.8032,283.3445 272.3032,278.3445 274.8032,283.3445" stroke-width="0" transform=" rotate(0, 272, 280)"/>
  <ellipse cx="280.7835" cy="280.1275" fill="#6dd6ff" rx="2.5" ry="2.5" stroke-width="0" transform=" rotate(0, 280, 280)"/>
</svg>
