<?xml version="1.0" encoding="utf-8" ?>
<svg baseProfile="tiny" height="330" version="1.2" width="330" xmlns="http://www.w3.org/2000/svg" xmlns:ev="http://www.w3.org/2001/xml-events" xmlns:xlink="http://www.w3.org/1999/xlink">
  <defs/>
  <rect fill="white" height="330" width="330" x="0" y="0"/>
  <rect fill="#6dd6ff" height="5" stroke-width="0" transform=" rotate(0, 48, 51)" width="5" x="45.8419" y="48.601"/>
  <polygon fill="#6dd6ff" points="57.2842,52.2943 59.7842,47.2943 62.2842,52.2943" stroke-width="0" transform=" rotate(0, 59, 49)"/>
  <ellipse cx="70.9117" cy="49.5638" fill="#6dd6ff" rx="2.5" ry="2.5" stroke-width="0" transform=" rotate(0, 70, 49)"/>
  <rect fill="#6dd6ff" height="5" stroke-width="0" transform=" rotate(0, 78, 51)" width="5" x="75.694" y="49.2551"/>
  <polygon fill="#6dd6ff" points="89.1551,53.8767 91.6551,48.8767 94.1551,53.8767" stroke-width="0" transform=" rotate(0, 91, 51)"/>
  <ellipse cx="100.9103" cy="47.8582" fill="#6dd6ff" rx="2.5" ry="2.5" stroke-width="0" transform=" rotate(0, 100, 47)"/>
  <rect fill="#6dd6ff" height="5" stroke-width="0" transform=" rotate(0, 110, 51)" width="5" x="107.5732" y="48.9277"/>
  <polygon fill="#6dd6ff" points="115.7271,54.3542 118.2271,49.3542 120.7271,54.3542" stroke-width="0" transform=" rotate(0, 118, 51)"/>
  <ellipse cx="131.4376" cy="51.4105" fill="#6dd6ff" rx="2.5" ry="2.5" stroke-width="0" transform=" rotate(0, 131, 51)"/>
  <rect fill="#6dd6ff" height="5" stroke-width="0" transform=" rotate(0, 139, 51)" width="5" x="137.0244" y="49.4055"/>
  <polygon fill="#6dd6ff" points="146.2091,54.3345 148.7091,49.3345 151.2091,54.3345" stroke-width="0" transform=" rotate(0, 148, 51)"/>
  <ellipse cx="160.4192" cy="48.2316" fill="#6dd6ff" rx="2.5" ry="2.5" stroke-width="0" transform=" rotate(0, 160, 48)"/>
  <rect fill="#6dd6ff" height="5" stroke-width="0" transform=" rotate(0, 171, 49)" width="5" x="169.4387" y="46.7003"/>
  <polygon fill="#6dd6ff" points="176.0773,52.2267 178.5773,47.2267 181.0773,52.2267" stroke-width="0" transform=" rotate(0, 178, 49)"/>
  <ellipse cx="190.2906" cy="48.7867" fill="#6dd6ff" rx="2.5" ry="2.5" stroke-width="0" transform=" rotate(0, 190, 48)"/>
  <rect fill="#6dd6ff" height="5" stroke-width="0" transform=" rotate(0, 200, 50)" width="5" x="198.3109" y="47.9668"/>
  <polygon fill="#6dd6ff" points="206.0263,52.8804 208.5263,47.8804 211.0263,52.8804" stroke-width="0" transform=" rotate(0, 208, 50)"/>
  <ellipse cx="220.0835" cy="48.2159" fill="#6dd6ff" rx="2.5" ry="2.5" stroke-width="0" transform=" rotate(0, 220, 48)"/>
  <rect fill="#6dd6ff" height="5" stroke-width="0" transform=" rotate(0, 230, 51)" width="5" x="228.2515" y="49.3652"/>
  <polygon fill="#6dd6ff" points="237.3748,50.4157 239.8748,45.4157 242.3748,50.4157" stroke-width="0" transform=" rotate(0, 239, 47)"/>
  <ellipse cx="248.5808" cy="50.9391" fill="#6dd6ff" rx="2.5" ry="2.5" stroke-width="0" transform=" rotate(0, 248, 50)"/>
  <rect fill="#6dd6ff" height="5" stroke-width="0" transform=" rotate(0, 260, 48)" width="5" x="258.1768" y="46.0941"/>
  <polygon fill="#6dd6ff" points="267.2472,51.685 269.7472,46.685 272.2472,51.685" stroke-width="0" transform=" rotate(0, 269, 49)"/>
  <ellipse cx="281.6551" cy="49.8388" fill="#6dd6ff" rx="2.5" ry="2.5" stroke-width="0" transform=" rotate(0, 281, 49)"/>
  <rect fill="#1b9fd8" height="7" stroke-width="0" transform=" rotate(0, 49, 60)" width="7" x="46.3387" y="56.9177"/>
  <polygon fill="#1b9fd8" points="56.8385,62.467 60.3385,55.467 63.8385,62.467" stroke-width="0" transform=" rotate(0, 60, 58)"/>
  <ellipse cx="70.8389" cy="61.5458" fill="#1b9fd8" rx="3.5" ry="3.5" stroke-width="0" transform=" rotate(0, 70, 61)"/>
  <rect fill="#1b9fd8" height="7" stroke-width="0" transform=" rotate(0, 79, 60)" width="7" x="75.5358" y="57.1429"/>
  <polygon fill="#1b9fd8" points="87.2264,62.134 90.7264,55.134 94.2264,62.134" stroke-width="0" transform=" rotate(0, 90, 58)"/>
  <ellipse cx="101.9579" cy="60.7843" fill="#1b9fd8" rx="3.5" ry="3.5" stroke-width="0" transform=" rotate(0, 101, 60)"/>
  <rect fill="#1b9fd8" height="7" stroke-width="0" transform=" rotate(0, 108, 60)" width="7" x="104.6116" y="57.4109"/>
  <polygon fill="#1b9fd8" points="116.0262,64.9933 119.5262,57.9933 123.0262,64.9933" stroke-width="0" transform=" rotate(0, 119, 61)"/>
  <ellipse cx="130.7719" cy="59.1715" fill="#1b9fd8" rx="3.5" ry="3.5" stroke-width="0" transform=" rotate(0, 130, 59)"/>
  <rect fill="#1b9fd8" height="7" stroke-width="0" transform=" rotate(0, 139, 58)" width="7" x="136.3433" y="55.3548"/>
  <polygon fill="#1b9fd8" points="148.4445,64.5355 151.9445,57.5355 155.4445,64.5355" stroke-width="0" transform=" rotate(0, 151, 61)"/>
  <ellipse cx="160.8446" cy="58.8962" fill="#1b9fd8" rx="3.5" ry="3.5" stroke-width="0" transform=" rotate(0, 160, 58)"/>
  <rect fill="#1b9fd8" height="7" stroke-width="0" transform=" rotate(0, 169, 61)" width="7" x="166.4976" y="57.7969"/>
  <polygon fill="#1b9fd8" points="178.3308,64.6023 181.8308,57.6023 185.3308,64.6023" stroke-width="0" transform=" rotate(0, 181, 61)"/>
  <ellipse cx="190.6803" cy="59.8052" fill="#1b9fd8" rx="3.5" ry="3.5" stroke-width="0" transform=" rotate(0, 190, 59)"/>
  <rect fill="#1b9fd8" height="7" stroke-width="0" transform=" rotate(0, 200, 61)" width="7" x="197.0324" y="58.4574"/>
  <polygon fill="#1b9fd8" points="206.8628,63.3909 210.3628,56.3909 213.8628,63.3909" stroke-width="0" transform=" rotate(0, 210, 59)"/>
  <ellipse cx="220.5024" cy="61.6544" fill="#1b9fd8" rx="3.5" ry="3.5" stroke-width="0" transform=" rotate(0, 220, 61)"/>
  <rect fill="#1b9fd8" height="7" stroke-width="0" transform=" rotate(0, 230, 60)" width="7" x="227.1414" y="56.7276"/>
  <polygon fill="#1b9fd8" points="238.5136,63.2698 242.0136,56.2698 245.5136,63.2698" stroke-width="0" transform=" rotate(0, 242, 59)"/>
  <ellipse cx="249.3252" cy="58.8512" fill="#1b9fd8" rx="3.5" ry="3.5" stroke-width="0" transform=" rotate(0, 249, 58)"/>
  <rect fill="#1b9fd8" height="7" stroke-width="0" transform=" rotate(0, 261, 57)" width="7" x="258.342" y="54.4969"/>
  <polygon fill="#1b9fd8" points="265.9726,62.6874 269.4726,55.6874 272.9726,62.6874" stroke-width="0" transform=" rotate(0, 269, 59)"/>
  <ellipse cx="279.0119" cy="60.2068" fill="#1b9fd8" rx="3.5" ry="3.5" stroke-width="0" transform=" rotate(0, 279, 60)"/>
  <rect fill="#006ca1" height="9" stroke-width="0" transform=" rotate(0, 48, 67)" width="9" x="43.7004" y="63.4019"/>
  <polygon fill="#006ca1" points="57.3569,76.0837 61.8569,67.0837 66.3569,76.0837" stroke-width="0" transform=" rotate(0, 61, 71)"/>
  <ellipse cx="68.4693" cy="70.6165" fill="#006ca1" rx="4.5" ry="4.5" stroke-width="0" transform=" rotate(0, 68, 70)"/>
  <rect fill="#006ca1" height="9" stroke-width="0" transform=" rotate(0, 79, 70)" width="9" x="75.019" y="66.1424"/>
  <polygon fill="#006ca1" points="87.2029,75.8271 91.7029,66.8271 96.2029,75.8271" stroke-width="0" transform=" rotate(0, 91, 71)"/>
  <ellipse cx="101.0233" cy="71.3176" fill="#006ca1" rx="4.5" ry="4.5" stroke-width="0" transform=" rotate(0, 101, 71)"/>
  <rect fill="#006ca1" height="9" stroke-width="0" transform=" rotate(0, 108, 68)" width="9" x="104.4911" y="64.2398"/>
  <polygon fill="#006ca1" points="114.909,72.6671 119.409,63.6671 123.909,72.6671" stroke-width="0" transform=" rotate(0, 119, 68)"/>
  <ellipse cx="129.7425" cy="71.5522" fill="#006ca1" rx="4.5" ry="4.5" stroke-width="0" transform=" rotate(0, 129, 71)"/>
  <rect fill="#006ca1" height="9" stroke-width="0" transform=" rotate(0, 139, 70)" width="9" x="134.6955" y="66.0701"/>
  <polygon fill="#006ca1" points="145.0808,72.4031 149.5808,63.4031 154.0808,72.4031" stroke-width="0" transform=" rotate(0, 149, 67)"/>
  <ellipse cx="159.0024" cy="68.7009" fill="#006ca1" rx="4.5" ry="4.5" stroke-width="0" transform=" rotate(0, 159, 68)"/>
  <rect fill="#006ca1" height="9" stroke-width="0" transform=" rotate(0, 168, 69)" width="9" x="163.7409" y="65.2111"/>
  <polygon fill="#006ca1" points="177.0782,75.532 181.5782,66.532 186.0782,75.532" stroke-width="0" transform=" rotate(0, 181, 71)"/>
  <ellipse cx="188.0167" cy="69.461" fill="#006ca1" rx="4.5" ry="4.5" stroke-width="0" transform=" rotate(0, 188, 69)"/>
  <rect fill="#006ca1" height="9" stroke-width="0" transform=" rotate(0, 200, 70)" width="9" x="196.1682" y="65.5397"/>
  <polygon fill="#006ca1" points="203.8029,73.9244 208.3029,64.9244 212.8029,73.9244" stroke-width="0" transform=" rotate(0, 208, 69)"/>
  <ellipse cx="219.727" cy="69.0313" fill="#006ca1" rx="4.5" ry="4.5" stroke-width="0" transform=" rotate(0, 219, 69)"/>
  <rect fill="#006ca1" height="9" stroke-width="0" transform=" rotate(0, 228, 69)" width="9" x="223.7457" y="65.2772"/>
  <polygon fill="#006ca1" points="236.7516,73.7444 241.2516,64.7444 245.7516,73.7444" stroke-width="0" transform=" rotate(0, 241, 69)"/>
  <ellipse cx="250.2544" cy="68.4718" fill="#006ca1" rx="4.5" ry="4.5" stroke-width="0" transform=" rotate(0, 250, 68)"/>
  <rect fill="#006ca1" height="9" stroke-width="0" transform=" rotate(0, 259, 70)" width="9" x="254.8623" y="65.8962"/>
  <polygon fill="#006ca1" points="267.0828,76.1564 271.5828,67.1564 276.0828,76.1564" stroke-width="0" transform=" rotate(0, 271, 71)"/>
  <ellipse cx="279.4955" cy="71.6915" fill="#006ca1" rx="4.5" ry="4.5" stroke-width="0" transform=" rotate(0, 279, 71)"/>
  <rect fill="#6dd6ff" height="5" stroke-width="0" transform=" rotate(0, 48, 81)" width="5" x="46.1803" y="78.6709"/>
  <polygon fill="#6dd6ff" points="57.4213,82.6525 59.9213,77.6525 62.4213,82.6525" stroke-width="0" transform=" rotate(0, 59, 80)"/>
  <ellipse cx="70.6153" cy="80.4447" fill="#6dd6ff" rx="2.5" ry="2.5" stroke-width="0" transform=" rotate(0, 70, 80)"/>
  <rect fill="#6dd6ff" height="5" stroke-width="0" transform=" rotate(0, 78, 79)" width="5" x="76.1265" y="77.4824"/>
  <polygon fill="#6dd6ff" points="87.0293,84.0686 89.5293,79.0686 92.0293,84.0686" stroke-width="0" transform=" rotate(0, 89, 81)"/>
  <ellipse cx="98.6629" cy="77.933" fill="#6dd6ff" rx="2.5" ry="2.5" stroke-width="0" transform=" rotate(0, 98, 77)"/>
  <rect fill="#6dd6ff" height="5" stroke-width="0" transform=" rotate(0, 108, 80)" width="5" x="106.0887" y="77.708"/>
  <polygon fill="#6dd6ff" points="117.9844,84.3275 120.4844,79.3275 122.9844,84.3275" stroke-width="0" transform=" rotate(0, 120, 81)"/>
  <ellipse cx="130.8441" cy="80.9768" fill="#6dd6ff" rx="2.5" ry="2.5" stroke-width="0" transform=" rotate(0, 130, 80)"/>
  <rect fill="#6dd6ff" height="5" stroke-width="0" transform=" rotate(0, 137, 78)" width="5" x="135.4411" y="75.9973"/>
  <polygon fill="#6dd6ff" points="146.4514,81.3689 148.9514,76.3689 151.4514,81.3689" stroke-width="0" transform=" rotate(0, 148, 78)"/>
  <ellipse cx="158.3453" cy="79.5869" fill="#6dd6ff" rx="2.5" ry="2.5" stroke-width="0" transform=" rotate(0, 158, 79)"/>
  <rect fill="#6dd6ff" height="5" stroke-width="0" transform=" rotate(0, 171, 78)" width="5" x="168.6932" y="75.9955"/>
  <polygon fill="#6dd6ff" points="179.5714,82.2621 182.0714,77.2621 184.5714,82.2621" stroke-width="0" transform=" rotate(0, 182, 79)"/>
  <ellipse cx="188.4813" cy="81.0845" fill="#6dd6ff" rx="2.5" ry="2.5" stroke-width="0" transform=" rotate(0, 188, 81)"/>
  <rect fill="#6dd6ff" height="5" stroke-width="0" transform=" rotate(0, 200, 81)" width="5" x="198.1112" y="79.0866"/>
  <polygon fill="#6dd6ff" points="208.7555,80.4304 211.2555,75.4304 213.7555,80.4304" stroke-width="0" transform=" rotate(0, 211, 77)"/>
  <ellipse cx="218.2956" cy="80.1159" fill="#6dd6ff" rx="2.5" ry="2.5" stroke-width="0" transform=" rotate(0, 218, 80)"/>
  <rect fill="#6dd6ff" height="5" stroke-width="0" transform=" rotate(0, 229, 81)" width="5" x="226.8864" y="78.8937"/>
  <polygon fill="#6dd6ff" points="236.9353,80.377 239.4353,75.377 241.9353,80.377" stroke-width="0" transform=" rotate(0, 239, 77)"/>
  <ellipse cx="248.4516" cy="81.8239" fill="#6dd6ff" rx="2.5" ry="2.5" stroke-width="0" transform=" rotate(0, 248, 81)"/>
  <rect fill="#6dd6ff" height="5" stroke-width="0" transform=" rotate(0, 258, 81)" width="5" x="255.6343" y="78.8536"/>
  <polygon fill="#6dd6ff" points="266.2108,82.5342 268.7108,77.5342 271.2108,82.5342" stroke-width="0" transform=" rotate(0, 268, 80)"/>
  <ellipse cx="279.4382" cy="79.5703" fill="#6dd6ff" rx="2.5" ry="2.5" stroke-width="0" transform=" rotate(0, 279, 79)"/>
  <rect fill="#1b9fd8" height="7" stroke-width="0" transform=" rotate(0, 49, 88)" width="7" x="46.0033" y="84.8626"/>
  <polygon fill="#1b9fd8" points="55.312,95.5335 58.812,88.5335 62.312,95.5335" stroke-width="0" transform=" rotate(0, 58, 92)"/>
  <ellipse cx="70.8189" cy="89.3006" fill="#1b9fd8" rx="3.5" ry="3.5" stroke-width="0" transform=" rotate(0, 70, 89)"/>
  <rect fill="#1b9fd8" height="7" stroke-width="0" transform=" rotate(0, 79, 89)" width="7" x="75.8942" y="86.289"/>
  <polygon fill="#1b9fd8" points="88.4601,93.6683 91.9601,86.6683 95.4601,93.6683" stroke-width="0" transform=" rotate(0, 91, 90)"/>
  <ellipse cx="100.3384" cy="89.9431" fill="#1b9fd8" rx="3.5" ry="3.5" stroke-width="0" transform=" rotate(0, 100, 89)"/>
  <rect fill="#1b9fd8" height="7" stroke-width="0" transform=" rotate(0, 111, 91)" width="7" x="108.0866" y="88.4397"/>
  <polygon fill="#1b9fd8" points="114.9332,91.5536 118.4332,84.5536 121.9332,91.5536" stroke-width="0" transform=" rotate(0, 118, 88)"/>
  <ellipse cx="129.4232" cy="88.8058" fill="#1b9fd8" rx="3.5" ry="3.5" stroke-width="0" transform=" rotate(0, 129, 88)"/>
  <rect fill="#1b9fd8" height="7" stroke-width="0" transform=" rotate(0, 141, 91)" width="7" x="138.1876" y="88.2681"/>
  <polygon fill="#1b9fd8" points="145.9409,93.1842 149.4409,86.1842 152.9409,93.1842" stroke-width="0" transform=" rotate(0, 149, 89)"/>
  <ellipse cx="158.342" cy="91.3663" fill="#1b9fd8" rx="3.5" ry="3.5" stroke-width="0" transform=" rotate(0, 158, 91)"/>
  <rect fill="#1b9fd8" height="7" stroke-width="0" transform=" rotate(0, 169, 89)" width="7" x="165.9299" y="85.8911"/>
  <polygon fill="#1b9fd8" points="177.1244,94.6034 180.6244,87.6034 184.1244,94.6034" stroke-width="0" transform=" rotate(0, 180, 91)"/>
  <ellipse cx="189.5331" cy="89.6983" fill="#1b9fd8" rx="3.5" ry="3.5" stroke-width="0" transform=" rotate(0, 189, 89)"/>
  <rect fill="#1b9fd8" height="7" stroke-width="0" transform=" rotate(0, 201, 88)" width="7" x="198.3265" y="85.297"/>
  <polygon fill="#1b9fd8" points="205.2173,95.3653 208.7173,88.3653 212.2173,95.3653" stroke-width="0" transform=" rotate(0, 208, 91)"/>
  <ellipse cx="218.9124" cy="88.3964" fill="#1b9fd8" rx="3.5" ry="3.5" stroke-width="0" transform=" rotate(0, 218, 88)"/>
  <rect fill="#1b9fd8" height="7" stroke-width="0" transform=" rotate(0, 231, 88)" width="7" x="228.472" y="84.9424"/>
  <polygon fill="#1b9fd8" points="235.5148,93.548 239.0148,86.548 242.5148,93.548" stroke-width="0" transform=" rotate(0, 239, 90)"/>
  <ellipse cx="251.3097" cy="89.0467" fill="#1b9fd8" rx="3.5" ry="3.5" stroke-width="0" transform=" rotate(0, 251, 89)"/>
  <rect fill="#1b9fd8" height="7" stroke-width="0" transform=" rotate(0, 258, 89)" width="7" x="254.7788" y="86.2826"/>
  <polygon fill="#1b9fd8" points="264.8426,93.6997 268.3426,86.6997 271.8426,93.6997" stroke-width="0" transform=" rotate(0, 268, 90)"/>
  <ellipse cx="279.1474" cy="89.7428" fill="#1b9fd8" rx="3.5" ry="3.5" stroke-width="0" transform=" rotate(0, 279, 89)"/>
  <rect fill="#006ca1" height="9" stroke-width="0" transform=" rotate(0, 51, 101)" width="9" x="47.0704" y="97.2116"/>
  <polygon fill="#006ca1" points="57.1687,104.1509 61.6687,95.1509 66.1687,104.1509" stroke-width="0" transform=" rotate(0, 61, 99)"/>
  <ellipse cx="71.5515" cy="100.1421" fill="#006ca1" rx="4.5" ry="4.5" stroke-width="0" transform=" rotate(0, 71, 100)"/>
  <rect fill="#006ca1" height="9" stroke-width="0" transform=" rotate(0, 81, 98)" width="9" x="77.1483" y="93.5272"/>
  <polygon fill="#006ca1" points="83.7393,103.1162 88.2393,94.1162 92.7393,103.1162" stroke-width="0" transform=" rotate(0, 88, 98)"/>
  <ellipse cx="99.4566" cy="100.7585" fill="#006ca1" rx="4.5" ry="4.5" stroke-width="0" transform=" rotate(0, 99, 100)"/>
  <rect fill="#006ca1" height="9" stroke-width="0" transform=" rotate(0, 110, 101)" width="9" x="106.2434" y="97.3183"/>
  <polygon fill="#006ca1" points="116.6353,103.0506 121.1353,94.0506 125.6353,103.0506" stroke-width="0" transform=" rotate(0, 121, 98)"/>
  <ellipse cx="131.0656" cy="100.5303" fill="#006ca1" rx="4.5" ry="4.5" stroke-width="0" transform=" rotate(0, 131, 100)"/>
  <rect fill="#006ca1" height="9" stroke-width="0" transform=" rotate(0, 139, 98)" width="9" x="135.2832" y="94.2585"/>
  <polygon fill="#006ca1" points="146.4943,106.2193 150.9943,97.2193 155.4943,106.2193" stroke-width="0" transform=" rotate(0, 150, 101)"/>
  <ellipse cx="160.9993" cy="100.2425" fill="#006ca1" rx="4.5" ry="4.5" stroke-width="0" transform=" rotate(0, 160, 100)"/>
  <rect fill="#006ca1" height="9" stroke-width="0" transform=" rotate(0, 171, 101)" width="9" x="167.2798" y="97.016"/>
  <polygon fill="#006ca1" points="173.5035,104.8541 178.0035,95.8541 182.5035,104.8541" stroke-width="0" transform=" rotate(0, 178, 100)"/>
  <ellipse cx="191.1275" cy="100.7506" fill="#006ca1" rx="4.5" ry="4.5" stroke-width="0" transform=" rotate(0, 191, 100)"/>
  <rect fill="#006ca1" height="9" stroke-width="0" transform=" rotate(0, 200, 99)" width="9" x="196.418" y="94.5217"/>
  <polygon fill="#006ca1" points="206.0872,103.1286 210.5872,94.1286 215.0872,103.1286" stroke-width="0" transform=" rotate(0, 210, 98)"/>
  <ellipse cx="220.3857" cy="99.2265" fill="#006ca1" rx="4.5" ry="4.5" stroke-width="0" transform=" rotate(0, 220, 99)"/>
  <rect fill="#006ca1" height="9" stroke-width="0" transform=" rotate(0, 228, 101)" width="9" x="224.3068" y="96.9169"/>
  <polygon fill="#006ca1" points="236.8251,103.2089 241.3251,94.2089 245.8251,103.2089" stroke-width="0" transform=" rotate(0, 241, 98)"/>
  <ellipse cx="251.0297" cy="100.3124" fill="#006ca1" rx="4.5" ry="4.5" stroke-width="0" transform=" rotate(0, 251, 100)"/>
  <rect fill="#006ca1" height="9" stroke-width="0" transform=" rotate(0, 258, 99)" width="9" x="254.1625" y="95.076"/>
  <polygon fill="#006ca1" points="263.8311,104.9287 268.3311,95.9287 272.8311,104.9287" stroke-width="0" transform=" rotate(0, 268, 100)"/>
  <ellipse cx="281.7374" cy="98.6666" fill="#006ca1" rx="4.5" ry="4.5" stroke-width="0" transform=" rotate(0, 281, 98)"/>
  <rect fill="#6dd6ff" height="5" stroke-width="0" transform=" rotate(0, 48, 111)" width="5" x="46.341" y="108.808"/>
  <polygon fill="#6dd6ff" points="55.772,111.7314 58.272,106.7314 60.772,111.7314" stroke-width="0" transform=" rotate(0, 58, 109)"/>
  <ellipse cx="67.9311" cy="111.0318" fill="#6dd6ff" rx="2.5" ry="2.5" stroke-width="0" transform=" rotate(0, 67, 111)"/>
  <rect fill="#6dd6ff" height="5" stroke-width="0" transform=" rotate(0, 80, 110)" width="5" x="78.1227" y="107.8043"/>
  <polygon fill="#6dd6ff" points="85.6133,112.0337 88.1133,107.0337 90.6133,112.0337" stroke-width="0" transform=" rotate(0, 88, 109)"/>
  <ellipse cx="98.7164" cy="111.5525" fill="#6dd6ff" rx="2.5" ry="2.5" stroke-width="0" transform=" rotate(0, 98, 111)"/>
  <rect fill="#6dd6ff" height="5" stroke-width="0" transform=" rotate(0, 110, 111)" width="5" x="108.458" y="108.5363"/>
  <polygon fill="#6dd6ff" points="118.2094,112.5235 120.7094,107.5235 123.2094,112.5235" stroke-width="0" transform=" rotate(0, 120, 110)"/>
  <ellipse cx="130.6742" cy="108.9362" fill="#6dd6ff" rx="2.5" ry="2.5" stroke-width="0" transform=" rotate(0, 130, 108)"/>
  <rect fill="#6dd6ff" height="5" stroke-width="0" transform=" rotate(0, 141, 108)" width="5" x="139.3973" y="105.6093"/>
  <polygon fill="#6dd6ff" points="148.0877,113.2331 150.5877,108.2331 153.0877,113.2331" stroke-width="0" transform=" rotate(0, 150, 110)"/>
  <ellipse cx="160.8716" cy="109.8549" fill="#6dd6ff" rx="2.5" ry="2.5" stroke-width="0" transform=" rotate(0, 160, 109)"/>
  <rect fill="#6dd6ff" height="5" stroke-width="0" transform=" rotate(0, 169, 110)" width="5" x="167.1338" y="107.5182"/>
  <polygon fill="#6dd6ff" points="178.6685,114.4837 181.1685,109.4837 183.6685,114.4837" stroke-width="0" transform=" rotate(0, 181, 111)"/>
  <ellipse cx="189.1785" cy="110.7335" fill="#6dd6ff" rx="2.5" ry="2.5" stroke-width="0" transform=" rotate(0, 189, 110)"/>
  <rect fill="#6dd6ff" height="5" stroke-width="0" transform=" rotate(0, 201, 108)" width="5" x="199.3708" y="106.2169"/>
  <polygon fill="#6dd6ff" points="207.5517,114.2255 210.0517,109.2255 212.5517,114.2255" stroke-width="0" transform=" rotate(0, 210, 111)"/>
  <ellipse cx="219.1941" cy="110.0798" fill="#6dd6ff" rx="2.5" ry="2.5" stroke-width="0" transform=" rotate(0, 219, 110)"/>
  <rect fill="#6dd6ff" height="5" stroke-width="0" transform=" rotate(0, 231, 111)" width="5" x="229.2336" y="108.6429"/>
  <polygon fill="#6dd6ff" points="239.3205,110.4352 241.8205,105.4352 244.3205,110.4352" stroke-width="0" transform=" rotate(0, 241, 107)"/>
  <ellipse cx="251.6969" cy="109.4698" fill="#6dd6ff" rx="2.5" ry="2.5" stroke-width="0" transform=" rotate(0, 251, 109)"/>
  <rect fill="#6dd6ff" height="5" stroke-width="0" transform=" rotate(0, 258, 108)" width="5" x="256.0515" y="105.9371"/>
  <polygon fill="#6dd6ff" points="267.1308,111.6562 269.6308,106.6562 272.1308,111.6562" stroke-width="0" transform=" rotate(0, 269, 109)"/>
  <ellipse cx="281.0446" cy="109.7219" fill="#6dd6ff" rx="2.5" ry="2.5" stroke-width="0" transform=" rotate(0, 281, 109)"/>
  <rect fill="#1b9fd8" height="7" stroke-width="0" transform=" rotate(0, 50, 121)" width="7" x="47.0875" y="118.2168"/>
  <polygon fill="#1b9fd8" points="56.4548,125.0028 59.9548,118.0028 63.4548,125.0028" stroke-width="0" transform=" rotate(0, 59, 121)"/>
  <ellipse cx="71.6598" cy="119.7467" fill="#1b9fd8" rx="3.5" ry="3.5" stroke-width="0" transform=" rotate(0, 71, 119)"/>
  <rect fill="#1b9fd8" height="7" stroke-width="0" transform=" rotate(0, 78, 118)" width="7" x="75.2311" y="114.9897"/>
  <polygon fill="#1b9fd8" points="85.9656,125.0545 89.4656,118.0545 92.9656,125.0545" stroke-width="0" transform=" rotate(0, 89, 121)"/>
  <ellipse cx="101.4487" cy="119.719" fill="#1b9fd8" rx="3.5" ry="3.5" stroke-width="0" transform=" rotate(0, 101, 119)"/>
  <rect fill="#1b9fd8" height="7" stroke-width="0" transform=" rotate(0, 110, 121)" width="7" x="107.2939" y="118.1878"/>
  <polygon fill="#1b9fd8" points="118.4659,123.0371 121.9659,116.0371 125.4659,123.0371" stroke-width="0" transform=" rotate(0, 121, 119)"/>
  <ellipse cx="130.4289" cy="118.2306" fill="#1b9fd8" rx="3.5" ry="3.5" stroke-width="0" transform=" rotate(0, 130, 118)"/>
  <rect fill="#1b9fd8" height="7" stroke-width="0" transform=" rotate(0, 140, 119)" width="7" x="136.835" y="116.0507"/>
  <polygon fill="#1b9fd8" points="146.352,123.578 149.852,116.578 153.352,123.578" stroke-width="0" transform=" rotate(0, 149, 120)"/>
  <ellipse cx="161.1101" cy="121.7123" fill="#1b9fd8" rx="3.5" ry="3.5" stroke-width="0" transform=" rotate(0, 161, 121)"/>
  <rect fill="#1b9fd8" height="7" stroke-width="0" transform=" rotate(0, 167, 120)" width="7" x="164.4559" y="117.1121"/>
  <polygon fill="#1b9fd8" points="175.1894,121.5238 178.6894,114.5238 182.1894,121.5238" stroke-width="0" transform=" rotate(0, 178, 118)"/>
  <ellipse cx="188.8608" cy="121.97" fill="#1b9fd8" rx="3.5" ry="3.5" stroke-width="0" transform=" rotate(0, 188, 121)"/>
  <rect fill="#1b9fd8" height="7" stroke-width="0" transform=" rotate(0, 200, 119)" width="7" x="196.5801" y="116.2717"/>
  <polygon fill="#1b9fd8" points="208.5029,121.9645 212.0029,114.9645 215.5029,121.9645" stroke-width="0" transform=" rotate(0, 212, 118)"/>
  <ellipse cx="219.453" cy="119.303" fill="#1b9fd8" rx="3.5" ry="3.5" stroke-width="0" transform=" rotate(0, 219, 119)"/>
  <rect fill="#1b9fd8" height="7" stroke-width="0" transform=" rotate(0, 231, 121)" width="7" x="227.5322" y="117.6976"/>
  <polygon fill="#1b9fd8" points="236.8008,125.1846 240.3008,118.1846 243.8008,125.1846" stroke-width="0" transform=" rotate(0, 240, 121)"/>
  <ellipse cx="251.8811" cy="119.7274" fill="#1b9fd8" rx="3.5" ry="3.5" stroke-width="0" transform=" rotate(0, 251, 119)"/>
  <rect fill="#1b9fd8" height="7" stroke-width="0" transform=" rotate(0, 260, 119)" width="7" x="257.4295" y="115.5793"/>
  <polygon fill="#1b9fd8" points="268.4039,125.2807 271.9039,118.2807 275.4039,125.2807" stroke-width="0" transform=" rotate(0, 271, 121)"/>
  <ellipse cx="281.95" cy="119.4607" fill="#1b9fd8" rx="3.5" ry="3.5" stroke-width="0" transform=" rotate(0, 281, 119)"/>
  <rect fill="#006ca1" height="9" stroke-width="0" transform=" rotate(0, 49, 130)" width="9" x="45.0097" y="126.1151"/>
  <polygon fill="#006ca1" points="56.4124,135.6337 60.9124,126.6337 65.4124,135.6337" stroke-width="0" transform=" rotate(0, 60, 131)"/>
  <ellipse cx="70.0816" cy="131.4152" fill="#006ca1" rx="4.5" ry="4.5" stroke-width="0" transform=" rotate(0, 70, 131)"/>
  <rect fill="#006ca1" height="9" stroke-width="0" transform=" rotate(0, 80, 131)" width="9" x="75.6622" y="126.9645"/>
  <polygon fill="#006ca1" points="87.5357,133.1704 92.0357,124.1704 96.5357,133.1704" stroke-width="0" transform=" rotate(0, 92, 128)"/>
  <ellipse cx="100.2719" cy="128.9115" fill="#006ca1" rx="4.5" ry="4.5" stroke-width="0" transform=" rotate(0, 100, 128)"/>
  <rect fill="#006ca1" height="9" stroke-width="0" transform=" rotate(0, 111, 130)" width="9" x="106.6459" y="125.691"/>
  <polygon fill="#006ca1" points="115.4013,135.1882 119.9013,126.1882 124.4013,135.1882" stroke-width="0" transform=" rotate(0, 119, 130)"/>
  <ellipse cx="130.3472" cy="130.0474" fill="#006ca1" rx="4.5" ry="4.5" stroke-width="0" transform=" rotate(0, 130, 130)"/>
  <rect fill="#006ca1" height="9" stroke-width="0" transform=" rotate(0, 139, 130)" width="9" x="134.8781" y="126.4141"/>
  <polygon fill="#006ca1" points="145.4575,134.9928 149.9575,125.9928 154.4575,134.9928" stroke-width="0" transform=" rotate(0, 149, 130)"/>
  <ellipse cx="158.7759" cy="130.5137" fill="#006ca1" rx="4.5" ry="4.5" stroke-width="0" transform=" rotate(0, 158, 130)"/>
  <rect fill="#006ca1" height="9" stroke-width="0" transform=" rotate(0, 169, 130)" width="9" x="165.115" y="126.0777"/>
  <polygon fill="#006ca1" points="176.5008,134.2058 181.0008,125.2058 185.5008,134.2058" stroke-width="0" transform=" rotate(0, 181, 129)"/>
  <ellipse cx="191.155" cy="130.6994" fill="#006ca1" rx="4.5" ry="4.5" stroke-width="0" transform=" rotate(0, 191, 130)"/>
  <rect fill="#006ca1" height="9" stroke-width="0" transform=" rotate(0, 198, 132)" width="9" x="194.082" y="127.5461"/>
  <polygon fill="#006ca1" points="204.716,134.3459 209.216,125.3459 213.716,134.3459" stroke-width="0" transform=" rotate(0, 209, 129)"/>
  <ellipse cx="220.6259" cy="131.0881" fill="#006ca1" rx="4.5" ry="4.5" stroke-width="0" transform=" rotate(0, 220, 131)"/>
  <rect fill="#006ca1" height="9" stroke-width="0" transform=" rotate(0, 231, 131)" width="9" x="227.3681" y="127.0284"/>
  <polygon fill="#006ca1" points="234.2846,134.0409 238.7846,125.0409 243.2846,134.0409" stroke-width="0" transform=" rotate(0, 238, 129)"/>
  <ellipse cx="251.6079" cy="128.3754" fill="#006ca1" rx="4.5" ry="4.5" stroke-width="0" transform=" rotate(0, 251, 128)"/>
  <rect fill="#006ca1" height="9" stroke-width="0" transform=" rotate(0, 259, 130)" width="9" x="254.7138" y="125.7629"/>
  <polygon fill="#006ca1" points="265.9312,132.4535 270.4312,123.4535 274.9312,132.4535" stroke-width="0" transform=" rotate(0, 270, 127)"/>
  <ellipse cx="278.5088" cy="131.4576" fill="#006ca1" rx="4.5" ry="4.5" stroke-width="0" transform=" rotate(0, 278, 131)"/>
  <rect fill="#6dd6ff" height="5" stroke-width="0" transform=" rotate(0, 48, 141)" width="5" x="45.9461" y="138.9893"/>
  <polygon fill="#6dd6ff" points="57.729,143.0679 60.229,138.0679 62.729,143.0679" stroke-width="0" transform=" rotate(0, 60, 140)"/>
  <ellipse cx="71.3144" cy="140.0386" fill="#6dd6ff" rx="2.5" ry="2.5" stroke-width="0" transform=" rotate(0, 71, 140)"/>
  <rect fill="#6dd6ff" height="5" stroke-width="0" transform=" rotate(0, 80, 141)" width="5" x="77.7446" y="139.1641"/>
  <polygon fill="#6dd6ff" points="86.3793,141.0302 88.8793,136.0302 91.3793,141.0302" stroke-width="0" transform=" rotate(0, 88, 138)"/>
  <ellipse cx="99.2545" cy="141.2373" fill="#6dd6ff" rx="2.5" ry="2.5" stroke-width="0" transform=" rotate(0, 99, 141)"/>
  <rect fill="#6dd6ff" height="5" stroke-width="0" transform=" rotate(0, 108, 141)" width="5" x="106.4239" y="139.0146"/>
  <polygon fill="#6dd6ff" points="117.1022,142.5545 119.6022,137.5545 122.1022,142.5545" stroke-width="0" transform=" rotate(0, 119, 140)"/>
  <ellipse cx="131.7649" cy="142.0158" fill="#6dd6ff" rx="2.5" ry="2.5" stroke-width="0" transform=" rotate(0, 131, 142)"/>
  <rect fill="#6dd6ff" height="5" stroke-width="0" transform=" rotate(0, 139, 141)" width="5" x="137.065" y="139.061"/>
  <polygon fill="#6dd6ff" points="147.9718,143.0002 150.4718,138.0002 152.9718,143.0002" stroke-width="0" transform=" rotate(0, 150, 140)"/>
  <ellipse cx="159.7295" cy="139.5826" fill="#6dd6ff" rx="2.5" ry="2.5" stroke-width="0" transform=" rotate(0, 159, 139)"/>
  <rect fill="#6dd6ff" height="5" stroke-width="0" transform=" rotate(0, 169, 138)" width="5" x="166.697" y="136.1938"/>
  <polygon fill="#6dd6ff" points="175.3947,140.8592 177.8947,135.8592 180.3947,140.8592" stroke-width="0" transform=" rotate(0, 177, 138)"/>
  <ellipse cx="189.5978" cy="141.3623" fill="#6dd6ff" rx="2.5" ry="2.5" stroke-width="0" transform=" rotate(0, 189, 141)"/>
  <rect fill="#6dd6ff" height="5" stroke-width="0" transform=" rotate(0, 201, 141)" width="5" x="198.7424" y="139.0794"/>
  <polygon fill="#6dd6ff" points="205.6077,140.4232 208.1077,135.4232 210.6077,140.4232" stroke-width="0" transform=" rotate(0, 208, 137)"/>
  <ellipse cx="221.7762" cy="141.7873" fill="#6dd6ff" rx="2.5" ry="2.5" stroke-width="0" transform=" rotate(0, 221, 141)"/>
  <rect fill="#6dd6ff" height="5" stroke-width="0" transform=" rotate(0, 229, 139)" width="5" x="227.2982" y="136.7208"/>
  <polygon fill="#6dd6ff" points="238.0953,142.6177 240.5953,137.6177 243.0953,142.6177" stroke-width="0" transform=" rotate(0, 240, 140)"/>
  <ellipse cx="250.2551" cy="138.4466" fill="#6dd6ff" rx="2.5" ry="2.5" stroke-width="0" transform=" rotate(0, 250, 138)"/>
  <rect fill="#6dd6ff" height="5" stroke-width="0" transform=" rotate(0, 259, 139)" width="5" x="257.2305" y="136.6731"/>
  <polygon fill="#6dd6ff" points="269.0379,144.3989 271.5379,139.3989 274.0379,144.3989" stroke-width="0" transform=" rotate(0, 271, 141)"/>
  <ellipse cx="278.0918" cy="140.8065" fill="#6dd6ff" rx="2.5" ry="2.5" stroke-width="0" transform=" rotate(0, 278, 140)"/>
  <rect fill="#1b9fd8" height="7" stroke-width="0" transform=" rotate(0, 52, 150)" width="7" x="48.5081" y="146.81"/>
  <polygon fill="#1b9fd8" points="56.3327,152.6044 59.8327,145.6044 63.3327,152.6044" stroke-width="0" transform=" rotate(0, 59, 149)"/>
  <ellipse cx="69.4988" cy="149.6233" fill="#1b9fd8" rx="3.5" ry="3.5" stroke-width="0" transform=" rotate(0, 69, 149)"/>
  <rect fill="#1b9fd8" height="7" stroke-width="0" transform=" rotate(0, 78, 150)" width="7" x="75.4311" y="146.8207"/>
  <polygon fill="#1b9fd8" points="88.0356,154.7901 91.5356,147.7901 95.0356,154.7901" stroke-width="0" transform=" rotate(0, 91, 151)"/>
  <ellipse cx="98.7944" cy="150.2715" fill="#1b9fd8" rx="3.5" ry="3.5" stroke-width="0" transform=" rotate(0, 98, 150)"/>
  <rect fill="#1b9fd8" height="7" stroke-width="0" transform=" rotate(0, 110, 150)" width="7" x="106.7528" y="146.9857"/>
  <polygon fill="#1b9fd8" points="117.6458,152.8805 121.1458,145.8805 124.6458,152.8805" stroke-width="0" transform=" rotate(0, 121, 149)"/>
  <ellipse cx="131.3342" cy="148.9149" fill="#1b9fd8" rx="3.5" ry="3.5" stroke-width="0" transform=" rotate(0, 131, 148)"/>
  <rect fill="#1b9fd8" height="7" stroke-width="0" transform=" rotate(0, 139, 148)" width="7" x="136.182" y="145.1632"/>
  <polygon fill="#1b9fd8" points="147.3735,153.9556 150.8735,146.9556 154.3735,153.9556" stroke-width="0" transform=" rotate(0, 150, 150)"/>
  <ellipse cx="159.2832" cy="152.0175" fill="#1b9fd8" rx="3.5" ry="3.5" stroke-width="0" transform=" rotate(0, 159, 152)"/>
  <rect fill="#1b9fd8" height="7" stroke-width="0" transform=" rotate(0, 168, 151)" width="7" x="165.3703" y="148.3765"/>
  <polygon fill="#1b9fd8" points="175.8128,151.9002 179.3128,144.9002 182.8128,151.9002" stroke-width="0" transform=" rotate(0, 179, 148)"/>
  <ellipse cx="188.5832" cy="150.4827" fill="#1b9fd8" rx="3.5" ry="3.5" stroke-width="0" transform=" rotate(0, 188, 150)"/>
  <rect fill="#1b9fd8" height="7" stroke-width="0" transform=" rotate(0, 198, 150)" width="7" x="194.9605" y="146.5848"/>
  <polygon fill="#1b9fd8" points="206.0393,153.0851 209.5393,146.0851 213.0393,153.0851" stroke-width="0" transform=" rotate(0, 209, 149)"/>
  <ellipse cx="221.7289" cy="151.2715" fill="#1b9fd8" rx="3.5" ry="3.5" stroke-width="0" transform=" rotate(0, 221, 151)"/>
  <rect fill="#1b9fd8" height="7" stroke-width="0" transform=" rotate(0, 228, 151)" width="7" x="225.1495" y="148.2239"/>
  <polygon fill="#1b9fd8" points="237.8451,154.0913 241.3451,147.0913 244.8451,154.0913" stroke-width="0" transform=" rotate(0, 241, 150)"/>
  <ellipse cx="249.8389" cy="150.1486" fill="#1b9fd8" rx="3.5" ry="3.5" stroke-width="0" transform=" rotate(0, 249, 150)"/>
  <rect fill="#1b9fd8" height="7" stroke-width="0" transform=" rotate(0, 258, 147)" width="7" x="255.3822" y="144.4166"/>
  <polygon fill="#1b9fd8" points="267.2384,155.1566 270.7384,148.1566 274.2384,155.1566" stroke-width="0" transform=" rotate(0, 270, 151)"/>
  <ellipse cx="281.6017" cy="149.9455" fill="#1b9fd8" rx="3.5" ry="3.5" stroke-width="0" transform=" rotate(0, 281, 149)"/>
  <rect fill="#006ca1" height="9" stroke-width="0" transform=" rotate(0, 50, 158)" width="9" x="46.0453" y="154.4634"/>
  <polygon fill="#006ca1" points="54.8897,165.149 59.3897,156.149 63.8897,165.149" stroke-width="0" transform=" rotate(0, 59, 160)"/>
  <ellipse cx="68.1218" cy="160.1815" fill="#006ca1" rx="4.5" ry="4.5" stroke-width="0" transform=" rotate(0, 68, 160)"/>
  <rect fill="#006ca1" height="9" stroke-width="0" transform=" rotate(0, 80, 158)" width="9" x="75.6726" y="154.1334"/>
  <polygon fill="#006ca1" points="83.8008,162.9976 88.3008,153.9976 92.8008,162.9976" stroke-width="0" transform=" rotate(0, 88, 158)"/>
  <ellipse cx="100.3802" cy="161.5258" fill="#006ca1" rx="4.5" ry="4.5" stroke-width="0" transform=" rotate(0, 100, 161)"/>
  <rect fill="#006ca1" height="9" stroke-width="0" transform=" rotate(0, 110, 161)" width="9" x="106.4601" y="157.0254"/>
  <polygon fill="#006ca1" points="115.0939,164.8097 119.5939,155.8097 124.0939,164.8097" stroke-width="0" transform=" rotate(0, 119, 160)"/>
  <ellipse cx="131.2415" cy="160.4663" fill="#006ca1" rx="4.5" ry="4.5" stroke-width="0" transform=" rotate(0, 131, 160)"/>
  <rect fill="#006ca1" height="9" stroke-width="0" transform=" rotate(0, 139, 161)" width="9" x="134.8038" y="156.8194"/>
  <polygon fill="#006ca1" points="143.5527,164.459 148.0527,155.459 152.5527,164.459" stroke-width="0" transform=" rotate(0, 148, 159)"/>
  <ellipse cx="158.0166" cy="159.8372" fill="#006ca1" rx="4.5" ry="4.5" stroke-width="0" transform=" rotate(0, 158, 159)"/>
  <rect fill="#006ca1" height="9" stroke-width="0" transform=" rotate(0, 171, 158)" width="9" x="167.0077" y="154.3954"/>
  <polygon fill="#006ca1" points="176.315,163.0036 180.815,154.0036 185.315,163.0036" stroke-width="0" transform=" rotate(0, 180, 158)"/>
  <ellipse cx="187.9936" cy="161.6117" fill="#006ca1" rx="4.5" ry="4.5" stroke-width="0" transform=" rotate(0, 187, 161)"/>
  <rect fill="#006ca1" height="9" stroke-width="0" transform=" rotate(0, 200, 160)" width="9" x="196.0127" y="156.1222"/>
  <polygon fill="#006ca1" points="206.9958,165.1534 211.4958,156.1534 215.9958,165.1534" stroke-width="0" transform=" rotate(0, 211, 160)"/>
  <ellipse cx="218.8325" cy="161.9197" fill="#006ca1" rx="4.5" ry="4.5" stroke-width="0" transform=" rotate(0, 218, 161)"/>
  <rect fill="#006ca1" height="9" stroke-width="0" transform=" rotate(0, 229, 158)" width="9" x="224.7877" y="153.6313"/>
  <polygon fill="#006ca1" points="234.9563,165.0065 239.4563,156.0065 243.9563,165.0065" stroke-width="0" transform=" rotate(0, 239, 160)"/>
  <ellipse cx="248.2861" cy="159.2727" fill="#006ca1" rx="4.5" ry="4.5" stroke-width="0" transform=" rotate(0, 248, 159)"/>
  <rect fill="#006ca1" height="9" stroke-width="0" transform=" rotate(0, 262, 160)" width="9" x="257.5019" y="155.7803"/>
  <polygon fill="#006ca1" points="267.5298,166.3053 272.0298,157.3053 276.5298,166.3053" stroke-width="0" transform=" rotate(0, 272, 161)"/>
  <ellipse cx="278.4688" cy="158.1455" fill="#006ca1" rx="4.5" ry="4.5" stroke-width="0" transform=" rotate(0, 278, 158)"/>
  <rect fill="#006ca1" height="9" stroke-width="0" transform=" rotate(0, 49, 171)" width="9" x="44.9962" y="166.7383"/>
  <polygon fill="#006ca1" points="57.4456,174.7271 61.9456,165.7271 66.4456,174.7271" stroke-width="0" transform=" rotate(0, 61, 170)"/>
  <ellipse cx="71.694" cy="168.6205" fill="#006ca1" rx="4.5" ry="4.5" stroke-width="0" transform=" rotate(0, 71, 168)"/>
  <rect fill="#006ca1" height="9" stroke-width="0" transform=" rotate(0, 78, 169)" width="9" x="73.9621" y="164.9727"/>
  <polygon fill="#006ca1" points="85.3682,174.5291 89.8682,165.5291 94.3682,174.5291" stroke-width="0" transform=" rotate(0, 89, 170)"/>
  <ellipse cx="99.6501" cy="170.9991" fill="#006ca1" rx="4.5" ry="4.5" stroke-width="0" transform=" rotate(0, 99, 170)"/>
  <rect fill="#006ca1" height="9" stroke-width="0" transform=" rotate(0, 110, 168)" width="9" x="105.9597" y="163.7128"/>
  <polygon fill="#006ca1" points="115.4502,172.6214 119.9502,163.6214 124.4502,172.6214" stroke-width="0" transform=" rotate(0, 119, 168)"/>
  <ellipse cx="129.4732" cy="168.2143" fill="#006ca1" rx="4.5" ry="4.5" stroke-width="0" transform=" rotate(0, 129, 168)"/>
  <rect fill="#006ca1" height="9" stroke-width="0" transform=" rotate(0, 138, 169)" width="9" x="134.1515" y="164.9459"/>
  <polygon fill="#006ca1" points="146.4646,174.654 150.9646,165.654 155.4646,174.654" stroke-width="0" transform=" rotate(0, 150, 170)"/>
  <ellipse cx="160.4668" cy="171.6721" fill="#006ca1" rx="4.5" ry="4.5" stroke-width="0" transform=" rotate(0, 160, 171)"/>
  <rect fill="#006ca1" height="9" stroke-width="0" transform=" rotate(0, 168, 171)" width="9" x="163.614" y="167.0687"/>
  <polygon fill="#006ca1" points="176.1238,174.0684 180.6238,165.0684 185.1238,174.0684" stroke-width="0" transform=" rotate(0, 180, 169)"/>
  <ellipse cx="191.7634" cy="171.2956" fill="#006ca1" rx="4.5" ry="4.5" stroke-width="0" transform=" rotate(0, 191, 171)"/>
  <rect fill="#006ca1" height="9" stroke-width="0" transform=" rotate(0, 200, 171)" width="9" x="195.5853" y="167.175"/>
  <polygon fill="#006ca1" points="205.1074,174.3484 209.6074,165.3484 214.1074,174.3484" stroke-width="0" transform=" rotate(0, 209, 169)"/>
  <ellipse cx="221.0187" cy="168.4815" fill="#006ca1" rx="4.5" ry="4.5" stroke-width="0" transform=" rotate(0, 221, 168)"/>
  <rect fill="#006ca1" height="9" stroke-width="0" transform=" rotate(0, 230, 169)" width="9" x="226.3346" y="165.3216"/>
  <polygon fill="#006ca1" points="234.1752,174.0495 238.6752,165.0495 243.1752,174.0495" stroke-width="0" transform=" rotate(0, 238, 169)"/>
  <ellipse cx="250.5794" cy="169.6427" fill="#006ca1" rx="4.5" ry="4.5" stroke-width="0" transform=" rotate(0, 250, 169)"/>
  <rect fill="#006ca1" height="9" stroke-width="0" transform=" rotate(0, 261, 168)" width="9" x="256.7776" y="163.8659"/>
  <polygon fill="#006ca1" points="267.192,174.3444 271.692,165.3444 276.192,174.3444" stroke-width="0" transform=" rotate(0, 271, 169)"/>
  <ellipse cx="279.0629" cy="170.3539" fill="#006ca1" rx="4.5" ry="4.5" stroke-width="0" transform=" rotate(0, 279, 170)"/>
  <rect fill="#1b9fd8" height="7" stroke-width="0" transform=" rotate(0, 49, 181)" width="7" x="45.8734" y="177.8085"/>
  <polygon fill="#1b9fd8" points="54.9221,182.3113 58.4221,175.3113 61.9221,182.3113" stroke-width="0" transform=" rotate(0, 58, 178)"/>
  <ellipse cx="68.2065" cy="178.7189" fill="#1b9fd8" rx="3.5" ry="3.5" stroke-width="0" transform=" rotate(0, 68, 178)"/>
  <rect fill="#1b9fd8" height="7" stroke-width="0" transform=" rotate(0, 78, 181)" width="7" x="74.8165" y="177.5907"/>
  <polygon fill="#1b9fd8" points="88.3019,182.0633 91.8019,175.0633 95.3019,182.0633" stroke-width="0" transform=" rotate(0, 91, 178)"/>
  <ellipse cx="101.9896" cy="179.4996" fill="#1b9fd8" rx="3.5" ry="3.5" stroke-width="0" transform=" rotate(0, 101, 179)"/>
  <rect fill="#1b9fd8" height="7" stroke-width="0" transform=" rotate(0, 110, 180)" width="7" x="106.8216" y="176.8089"/>
  <polygon fill="#1b9fd8" points="116.4284,183.2177 119.9284,176.2177 123.4284,183.2177" stroke-width="0" transform=" rotate(0, 119, 179)"/>
  <ellipse cx="131.7901" cy="181.8884" fill="#1b9fd8" rx="3.5" ry="3.5" stroke-width="0" transform=" rotate(0, 131, 181)"/>
  <rect fill="#1b9fd8" height="7" stroke-width="0" transform=" rotate(0, 142, 178)" width="7" x="138.5828" y="174.8409"/>
  <polygon fill="#1b9fd8" points="147.4213,181.7033 150.9213,174.7033 154.4213,181.7033" stroke-width="0" transform=" rotate(0, 150, 178)"/>
  <ellipse cx="159.898" cy="181.7399" fill="#1b9fd8" rx="3.5" ry="3.5" stroke-width="0" transform=" rotate(0, 159, 181)"/>
  <rect fill="#1b9fd8" height="7" stroke-width="0" transform=" rotate(0, 171, 180)" width="7" x="167.6843" y="176.9346"/>
  <polygon fill="#1b9fd8" points="176.2314,184.7533 179.7314,177.7533 183.2314,184.7533" stroke-width="0" transform=" rotate(0, 179, 181)"/>
  <ellipse cx="189.5938" cy="177.9634" fill="#1b9fd8" rx="3.5" ry="3.5" stroke-width="0" transform=" rotate(0, 189, 177)"/>
  <rect fill="#1b9fd8" height="7" stroke-width="0" transform=" rotate(0, 200, 178)" width="7" x="196.8356" y="174.7189"/>
  <polygon fill="#1b9fd8" points="208.3284,184.809 211.8284,177.809 215.3284,184.809" stroke-width="0" transform=" rotate(0, 211, 181)"/>
  <ellipse cx="219.8658" cy="178.7213" fill="#1b9fd8" rx="3.5" ry="3.5" stroke-width="0" transform=" rotate(0, 219, 178)"/>
  <rect fill="#1b9fd8" height="7" stroke-width="0" transform=" rotate(0, 230, 181)" width="7" x="226.7905" y="177.8012"/>
  <polygon fill="#1b9fd8" points="235.8782,181.6056 239.3782,174.6056 242.8782,181.6056" stroke-width="0" transform=" rotate(0, 239, 178)"/>
  <ellipse cx="248.4238" cy="180.8184" fill="#1b9fd8" rx="3.5" ry="3.5" stroke-width="0" transform=" rotate(0, 248, 180)"/>
  <rect fill="#1b9fd8" height="7" stroke-width="0" transform=" rotate(0, 261, 178)" width="7" x="257.7515" y="174.7821"/>
  <polygon fill="#1b9fd8" points="266.6214,181.6098 270.1214,174.6098 273.6214,181.6098" stroke-width="0" transform=" rotate(0, 270, 178)"/>
  <ellipse cx="278.2985" cy="180.4318" fill="#1b9fd8" rx="3.5" ry="3.5" stroke-width="0" transform=" rotate(0, 278, 180)"/>
  <rect fill="#6dd6ff" height="5" stroke-width="0" transform=" rotate(0, 49, 189)" width="5" x="47.3523" y="186.8087"/>
  <polygon fill="#6dd6ff" points="59.5658,194.0213 62.0658,189.0213 64.5658,194.0213" stroke-width="0" transform=" rotate(0, 62, 191)"/>
  <ellipse cx="68.6953" cy="191.5429" fill="#6dd6ff" rx="2.5" ry="2.5" stroke-width="0" transform=" rotate(0, 68, 191)"/>
  <rect fill="#6dd6ff" height="5" stroke-width="0" transform=" rotate(0, 81, 189)" width="5" x="79.0932" y="187.0349"/>
  <polygon fill="#6dd6ff" points="86.8388,194.1698 89.3388,189.1698 91.8388,194.1698" stroke-width="0" transform=" rotate(0, 89, 191)"/>
  <ellipse cx="98.2832" cy="190.2678" fill="#6dd6ff" rx="2.5" ry="2.5" stroke-width="0" transform=" rotate(0, 98, 190)"/>
  <rect fill="#6dd6ff" height="5" stroke-width="0" transform=" rotate(0, 109, 189)" width="5" x="106.7788" y="187.0701"/>
  <polygon fill="#6dd6ff" points="118.2051,190.6217 120.7051,185.6217 123.2051,190.6217" stroke-width="0" transform=" rotate(0, 120, 188)"/>
  <ellipse cx="131.4325" cy="191.8426" fill="#6dd6ff" rx="2.5" ry="2.5" stroke-width="0" transform=" rotate(0, 131, 191)"/>
  <rect fill="#6dd6ff" height="5" stroke-width="0" transform=" rotate(0, 138, 188)" width="5" x="136.2378" y="186.071"/>
  <polygon fill="#6dd6ff" points="149.0304,191.3292 151.5304,186.3292 154.0304,191.3292" stroke-width="0" transform=" rotate(0, 151, 188)"/>
  <ellipse cx="159.2112" cy="190.9687" fill="#6dd6ff" rx="2.5" ry="2.5" stroke-width="0" transform=" rotate(0, 159, 190)"/>
  <rect fill="#6dd6ff" height="5" stroke-width="0" transform=" rotate(0, 168, 191)" width="5" x="165.8696" y="189.0126"/>
  <polygon fill="#6dd6ff" points="179.2429,191.7338 181.7429,186.7338 184.2429,191.7338" stroke-width="0" transform=" rotate(0, 181, 189)"/>
  <ellipse cx="188.496" cy="188.7897" fill="#6dd6ff" rx="2.5" ry="2.5" stroke-width="0" transform=" rotate(0, 188, 188)"/>
  <rect fill="#6dd6ff" height="5" stroke-width="0" transform=" rotate(0, 201, 190)" width="5" x="198.5956" y="187.8203"/>
  <polygon fill="#6dd6ff" points="206.1065,193.6426 208.6065,188.6426 211.1065,193.6426" stroke-width="0" transform=" rotate(0, 208, 191)"/>
  <ellipse cx="218.863" cy="189.5184" fill="#6dd6ff" rx="2.5" ry="2.5" stroke-width="0" transform=" rotate(0, 218, 189)"/>
  <rect fill="#6dd6ff" height="5" stroke-width="0" transform=" rotate(0, 229, 187)" width="5" x="227.0614" y="185.4014"/>
  <polygon fill="#6dd6ff" points="238.1352,193.9404 240.6352,188.9404 243.1352,193.9404" stroke-width="0" transform=" rotate(0, 240, 191)"/>
  <ellipse cx="249.6523" cy="188.3489" fill="#6dd6ff" rx="2.5" ry="2.5" stroke-width="0" transform=" rotate(0, 249, 188)"/>
  <rect fill="#6dd6ff" height="5" stroke-width="0" transform=" rotate(0, 260, 187)" width="5" x="258.3412" y="185.4486"/>
  <polygon fill="#6dd6ff" points="267.7655,193.395 270.2655,188.395 272.7655,193.395" stroke-width="0" transform=" rotate(0, 270, 190)"/>
  <ellipse cx="278.3145" cy="189.3064" fill="#6dd6ff" rx="2.5" ry="2.5" stroke-width="0" transform=" rotate(0, 278, 189)"/>
  <rect fill="#006ca1" height="9" stroke-width="0" transform=" rotate(0, 49, 198)" width="9" x="44.5159" y="194.0689"/>
  <polygon fill="#006ca1" points="53.5925,203.8095 58.0925,194.8095 62.5925,203.8095" stroke-width="0" transform=" rotate(0, 58, 199)"/>
  <ellipse cx="71.2123" cy="198.2079" fill="#006ca1" rx="4.5" ry="4.5" stroke-width="0" transform=" rotate(0, 71, 198)"/>
  <rect fill="#006ca1" height="9" stroke-width="0" transform=" rotate(0, 79, 201)" width="9" x="75.3864" y="197.4356"/>
  <polygon fill="#006ca1" points="85.7508,204.98 90.2508,195.98 94.7508,204.98" stroke-width="0" transform=" rotate(0, 90, 200)"/>
  <ellipse cx="101.5247" cy="197.866" fill="#006ca1" rx="4.5" ry="4.5" stroke-width="0" transform=" rotate(0, 101, 197)"/>
  <rect fill="#006ca1" height="9" stroke-width="0" transform=" rotate(0, 107, 199)" width="9" x="103.4292" y="195.4127"/>
  <polygon fill="#006ca1" points="114.8239,206.3104 119.3239,197.3104 123.8239,206.3104" stroke-width="0" transform=" rotate(0, 119, 201)"/>
  <ellipse cx="128.0431" cy="198.2436" fill="#006ca1" rx="4.5" ry="4.5" stroke-width="0" transform=" rotate(0, 128, 198)"/>
  <rect fill="#006ca1" height="9" stroke-width="0" transform=" rotate(0, 138, 199)" width="9" x="134.0927" y="194.6032"/>
  <polygon fill="#006ca1" points="145.6328,203.1601 150.1328,194.1601 154.6328,203.1601" stroke-width="0" transform=" rotate(0, 150, 198)"/>
  <ellipse cx="159.8127" cy="201.5835" fill="#006ca1" rx="4.5" ry="4.5" stroke-width="0" transform=" rotate(0, 159, 201)"/>
  <rect fill="#006ca1" height="9" stroke-width="0" transform=" rotate(0, 168, 201)" width="9" x="163.5259" y="197.3423"/>
  <polygon fill="#006ca1" points="177.2296,203.746 181.7296,194.746 186.2296,203.746" stroke-width="0" transform=" rotate(0, 181, 199)"/>
  <ellipse cx="191.9828" cy="201.0817" fill="#006ca1" rx="4.5" ry="4.5" stroke-width="0" transform=" rotate(0, 191, 201)"/>
  <rect fill="#006ca1" height="9" stroke-width="0" transform=" rotate(0, 198, 197)" width="9" x="193.5125" y="193.367"/>
  <polygon fill="#006ca1" points="207.2528,203.4795 211.7528,194.4795 216.2528,203.4795" stroke-width="0" transform=" rotate(0, 211, 198)"/>
  <ellipse cx="220.5121" cy="199.5652" fill="#006ca1" rx="4.5" ry="4.5" stroke-width="0" transform=" rotate(0, 220, 199)"/>
  <rect fill="#006ca1" height="9" stroke-width="0" transform=" rotate(0, 230, 198)" width="9" x="225.5928" y="194.2341"/>
  <polygon fill="#006ca1" points="233.469,204.8577 237.969,195.8577 242.469,204.8577" stroke-width="0" transform=" rotate(0, 237, 200)"/>
  <ellipse cx="249.4933" cy="198.3468" fill="#006ca1" rx="4.5" ry="4.5" stroke-width="0" transform=" rotate(0, 249, 198)"/>
  <rect fill="#006ca1" height="9" stroke-width="0" transform=" rotate(0, 258, 200)" width="9" x="253.8239" y="196.0188"/>
  <polygon fill="#006ca1" points="266.2031,205.5691 270.7031,196.5691 275.2031,205.5691" stroke-width="0" transform=" rotate(0, 270, 201)"/>
  <ellipse cx="280.538" cy="199.3741" fill="#006ca1" rx="4.5" ry="4.5" stroke-width="0" transform=" rotate(0, 280, 199)"/>
  <rect fill="#1b9fd8" height="7" stroke-width="0" transform=" rotate(0, 48, 208)" width="7" x="44.6373" y="205.0582"/>
  <polygon fill="#1b9fd8" points="55.63,213.5898 59.13,206.5898 62.63,213.5898" stroke-width="0" transform=" rotate(0, 59, 210)"/>
  <ellipse cx="68.6911" cy="209.0016" fill="#1b9fd8" rx="3.5" ry="3.5" stroke-width="0" transform=" rotate(0, 68, 209)"/>
  <rect fill="#1b9fd8" height="7" stroke-width="0" transform=" rotate(0, 79, 209)" width="7" x="76.1757" y="206.1317"/>
  <polygon fill="#1b9fd8" points="87.318,214.9593 90.818,207.9593 94.318,214.9593" stroke-width="0" transform=" rotate(0, 90, 211)"/>
  <ellipse cx="101.3948" cy="209.8221" fill="#1b9fd8" rx="3.5" ry="3.5" stroke-width="0" transform=" rotate(0, 101, 209)"/>
  <rect fill="#1b9fd8" height="7" stroke-width="0" transform=" rotate(0, 111, 209)" width="7" x="107.9543" y="206.0774"/>
  <polygon fill="#1b9fd8" points="115.4705,211.8691 118.9705,204.8691 122.4705,211.8691" stroke-width="0" transform=" rotate(0, 118, 208)"/>
  <ellipse cx="130.3071" cy="211.5744" fill="#1b9fd8" rx="3.5" ry="3.5" stroke-width="0" transform=" rotate(0, 130, 211)"/>
  <rect fill="#1b9fd8" height="7" stroke-width="0" transform=" rotate(0, 139, 210)" width="7" x="136.185" y="207.2291"/>
  <polygon fill="#1b9fd8" points="146.6135,214.7494 150.1135,207.7494 153.6135,214.7494" stroke-width="0" transform=" rotate(0, 150, 211)"/>
  <ellipse cx="160.5992" cy="208.4448" fill="#1b9fd8" rx="3.5" ry="3.5" stroke-width="0" transform=" rotate(0, 160, 208)"/>
  <rect fill="#1b9fd8" height="7" stroke-width="0" transform=" rotate(0, 168, 211)" width="7" x="165.0506" y="207.6696"/>
  <polygon fill="#1b9fd8" points="178.3804,211.9808 181.8804,204.9808 185.3804,211.9808" stroke-width="0" transform=" rotate(0, 181, 208)"/>
  <ellipse cx="191.2577" cy="211.9723" fill="#1b9fd8" rx="3.5" ry="3.5" stroke-width="0" transform=" rotate(0, 191, 211)"/>
  <rect fill="#1b9fd8" height="7" stroke-width="0" transform=" rotate(0, 199, 209)" width="7" x="195.5125" y="206.1838"/>
  <polygon fill="#1b9fd8" points="205.853,212.9884 209.353,205.9884 212.853,212.9884" stroke-width="0" transform=" rotate(0, 209, 209)"/>
  <ellipse cx="220.7552" cy="210.905" fill="#1b9fd8" rx="3.5" ry="3.5" stroke-width="0" transform=" rotate(0, 220, 210)"/>
  <rect fill="#1b9fd8" height="7" stroke-width="0" transform=" rotate(0, 232, 210)" width="7" x="228.58" y="207.1454"/>
  <polygon fill="#1b9fd8" points="235.0612,211.6528 238.5612,204.6528 242.0612,211.6528" stroke-width="0" transform=" rotate(0, 238, 208)"/>
  <ellipse cx="251.992" cy="208.7315" fill="#1b9fd8" rx="3.5" ry="3.5" stroke-width="0" transform=" rotate(0, 251, 208)"/>
  <rect fill="#1b9fd8" height="7" stroke-width="0" transform=" rotate(0, 261, 210)" width="7" x="258.0977" y="207.2292"/>
  <polygon fill="#1b9fd8" points="264.8126,213.9533 268.3126,206.9533 271.8126,213.9533" stroke-width="0" transform=" rotate(0, 268, 210)"/>
  <ellipse cx="280.049" cy="209.7278" fill="#1b9fd8" rx="3.5" ry="3.5" stroke-width="0" transform=" rotate(0, 280, 209)"/>
  <rect fill="#6dd6ff" height="5" stroke-width="0" transform=" rotate(0, 50, 220)" width="5" x="48.0868" y="218.1507"/>
  <polygon fill="#6dd6ff" points="59.2892,221.1289 61.7892,216.1289 64.2892,221.1289" stroke-width="0" transform=" rotate(0, 61, 218)"/>
  <ellipse cx="71.1065" cy="219.671" fill="#6dd6ff" rx="2.5" ry="2.5" stroke-width="0" transform=" rotate(0, 71, 219)"/>
  <rect fill="#6dd6ff" height="5" stroke-width="0" transform=" rotate(0, 80, 220)" width="5" x="77.5839" y="218.4412"/>
  <polygon fill="#6dd6ff" points="86.421,222.4264 88.921,217.4264 91.421,222.4264" stroke-width="0" transform=" rotate(0, 88, 219)"/>
  <ellipse cx="100.6052" cy="218.7419" fill="#6dd6ff" rx="2.5" ry="2.5" stroke-width="0" transform=" rotate(0, 100, 218)"/>
  <rect fill="#6dd6ff" height="5" stroke-width="0" transform=" rotate(0, 108, 221)" width="5" x="106.1295" y="219.1267"/>
  <polygon fill="#6dd6ff" points="116.7232,221.1838 119.2232,216.1838 121.7232,221.1838" stroke-width="0" transform=" rotate(0, 119, 218)"/>
  <ellipse cx="129.5679" cy="221.8603" fill="#6dd6ff" rx="2.5" ry="2.5" stroke-width="0" transform=" rotate(0, 129, 221)"/>
  <rect fill="#6dd6ff" height="5" stroke-width="0" transform=" rotate(0, 139, 218)" width="5" x="137.4249" y="216.2146"/>
  <polygon fill="#6dd6ff" points="146.4737,221.1036 148.9737,216.1036 151.4737,221.1036" stroke-width="0" transform=" rotate(0, 148, 218)"/>
  <ellipse cx="159.7773" cy="220.0277" fill="#6dd6ff" rx="2.5" ry="2.5" stroke-width="0" transform=" rotate(0, 159, 220)"/>
  <rect fill="#6dd6ff" height="5" stroke-width="0" transform=" rotate(0, 171, 218)" width="5" x="168.6168" y="216.4161"/>
  <polygon fill="#6dd6ff" points="176.4242,223.941 178.9242,218.941 181.4242,223.941" stroke-width="0" transform=" rotate(0, 178, 221)"/>
  <ellipse cx="191.4084" cy="220.4552" fill="#6dd6ff" rx="2.5" ry="2.5" stroke-width="0" transform=" rotate(0, 191, 220)"/>
  <rect fill="#6dd6ff" height="5" stroke-width="0" transform=" rotate(0, 201, 221)" width="5" x="199.4462" y="218.8653"/>
  <polygon fill="#6dd6ff" points="208.5256,221.8631 211.0256,216.8631 213.5256,221.8631" stroke-width="0" transform=" rotate(0, 211, 219)"/>
  <ellipse cx="219.0174" cy="218.825" fill="#6dd6ff" rx="2.5" ry="2.5" stroke-width="0" transform=" rotate(0, 219, 218)"/>
  <rect fill="#6dd6ff" height="5" stroke-width="0" transform=" rotate(0, 229, 217)" width="5" x="227.4341" y="215.4508"/>
  <polygon fill="#6dd6ff" points="238.4134,223.6482 240.9134,218.6482 243.4134,223.6482" stroke-width="0" transform=" rotate(0, 240, 221)"/>
  <ellipse cx="248.5334" cy="219.184" fill="#6dd6ff" rx="2.5" ry="2.5" stroke-width="0" transform=" rotate(0, 248, 219)"/>
  <rect fill="#6dd6ff" height="5" stroke-width="0" transform=" rotate(0, 261, 218)" width="5" x="258.8372" y="215.5032"/>
  <polygon fill="#6dd6ff" points="266.1889,222.4246 268.6889,217.4246 271.1889,222.4246" stroke-width="0" transform=" rotate(0, 268, 219)"/>
  <ellipse cx="278.242" cy="220.8209" fill="#6dd6ff" rx="2.5" ry="2.5" stroke-width="0" transform=" rotate(0, 278, 220)"/>
  <rect fill="#006ca1" height="9" stroke-width="0" transform=" rotate(0, 51, 228)" width="9" x="47.3343" y="223.8118"/>
  <polygon fill="#006ca1" points="56.1764,232.9637 60.6764,223.9637 65.1764,232.9637" stroke-width="0" transform=" rotate(0, 60, 228)"/>
  <ellipse cx="69.5398" cy="231.0732" fill="#006ca1" rx="4.5" ry="4.5" stroke-width="0" transform=" rotate(0, 69, 231)"/>
  <rect fill="#006ca1" height="9" stroke-width="0" transform=" rotate(0, 81, 231)" width="9" x="77.1947" y="227.3682"/>
  <polygon fill="#006ca1" points="86.7988,235.8262 91.2988,226.8262 95.7988,235.8262" stroke-width="0" transform=" rotate(0, 91, 231)"/>
  <ellipse cx="101.955" cy="229.9144" fill="#006ca1" rx="4.5" ry="4.5" stroke-width="0" transform=" rotate(0, 101, 229)"/>
  <rect fill="#006ca1" height="9" stroke-width="0" transform=" rotate(0, 110, 227)" width="9" x="105.8862" y="223.4019"/>
  <polygon fill="#006ca1" points="116.6286,235.1521 121.1286,226.1521 125.6286,235.1521" stroke-width="0" transform=" rotate(0, 121, 230)"/>
  <ellipse cx="130.9677" cy="228.9365" fill="#006ca1" rx="4.5" ry="4.5" stroke-width="0" transform=" rotate(0, 130, 228)"/>
  <rect fill="#006ca1" height="9" stroke-width="0" transform=" rotate(0, 138, 231)" width="9" x="133.7187" y="227.1845"/>
  <polygon fill="#006ca1" points="145.4931,233.1309 149.9931,224.1309 154.4931,233.1309" stroke-width="0" transform=" rotate(0, 149, 228)"/>
  <ellipse cx="161.0474" cy="230.4646" fill="#006ca1" rx="4.5" ry="4.5" stroke-width="0" transform=" rotate(0, 161, 230)"/>
  <rect fill="#006ca1" height="9" stroke-width="0" transform=" rotate(0, 168, 229)" width="9" x="163.7656" y="225.1952"/>
  <polygon fill="#006ca1" points="177.2499,235.1427 181.7499,226.1427 186.2499,235.1427" stroke-width="0" transform=" rotate(0, 181, 230)"/>
  <ellipse cx="189.6525" cy="231.6934" fill="#006ca1" rx="4.5" ry="4.5" stroke-width="0" transform=" rotate(0, 189, 231)"/>
  <rect fill="#006ca1" height="9" stroke-width="0" transform=" rotate(0, 200, 231)" width="9" x="196.4926" y="227.2176"/>
  <polygon fill="#006ca1" points="204.5321,234.7842 209.0321,225.7842 213.5321,234.7842" stroke-width="0" transform=" rotate(0, 209, 230)"/>
  <ellipse cx="220.4692" cy="228.9119" fill="#006ca1" rx="4.5" ry="4.5" stroke-width="0" transform=" rotate(0, 220, 228)"/>
  <rect fill="#006ca1" height="9" stroke-width="0" transform=" rotate(0, 231, 228)" width="9" x="227.396" y="224.1545"/>
  <polygon fill="#006ca1" points="235.4863,233.2063 239.9863,224.2063 244.4863,233.2063" stroke-width="0" transform=" rotate(0, 239, 228)"/>
  <ellipse cx="251.2444" cy="229.7613" fill="#006ca1" rx="4.5" ry="4.5" stroke-width="0" transform=" rotate(0, 251, 229)"/>
  <rect fill="#006ca1" height="9" stroke-width="0" transform=" rotate(0, 258, 229)" width="9" x="253.7455" y="224.5635"/>
  <polygon fill="#006ca1" points="267.2918,236.3271 271.7918,227.3271 276.2918,236.3271" stroke-width="0" transform=" rotate(0, 271, 231)"/>
  <ellipse cx="279.2943" cy="230.2639" fill="#006ca1" rx="4.5" ry="4.5" stroke-width="0" transform=" rotate(0, 279, 230)"/>
  <rect fill="#1b9fd8" height="7" stroke-width="0" transform=" rotate(0, 48, 238)" width="7" x="45.4099" y="234.5199"/>
  <polygon fill="#1b9fd8" points="54.6549,242.0867 58.1549,235.0867 61.6549,242.0867" stroke-width="0" transform=" rotate(0, 58, 238)"/>
  <ellipse cx="68.8904" cy="240.0288" fill="#1b9fd8" rx="3.5" ry="3.5" stroke-width="0" transform=" rotate(0, 68, 240)"/>
  <rect fill="#1b9fd8" height="7" stroke-width="0" transform=" rotate(0, 78, 238)" width="7" x="74.9371" y="234.7685"/>
  <polygon fill="#1b9fd8" points="84.7856,243.7679 88.2856,236.7679 91.7856,243.7679" stroke-width="0" transform=" rotate(0, 88, 240)"/>
  <ellipse cx="98.0756" cy="238.8821" fill="#1b9fd8" rx="3.5" ry="3.5" stroke-width="0" transform=" rotate(0, 98, 238)"/>
  <rect fill="#1b9fd8" height="7" stroke-width="0" transform=" rotate(0, 107, 240)" width="7" x="104.4189" y="236.9378"/>
  <polygon fill="#1b9fd8" points="116.5426,243.6222 120.0426,236.6222 123.5426,243.6222" stroke-width="0" transform=" rotate(0, 120, 240)"/>
  <ellipse cx="131.3269" cy="240.3876" fill="#1b9fd8" rx="3.5" ry="3.5" stroke-width="0" transform=" rotate(0, 131, 240)"/>
  <rect fill="#1b9fd8" height="7" stroke-width="0" transform=" rotate(0, 141, 238)" width="7" x="137.984" y="234.867"/>
  <polygon fill="#1b9fd8" points="145.6167,241.7117 149.1167,234.7117 152.6167,241.7117" stroke-width="0" transform=" rotate(0, 149, 238)"/>
  <ellipse cx="161.203" cy="240.8934" fill="#1b9fd8" rx="3.5" ry="3.5" stroke-width="0" transform=" rotate(0, 161, 240)"/>
  <rect fill="#1b9fd8" height="7" stroke-width="0" transform=" rotate(0, 170, 239)" width="7" x="166.86" y="235.5356"/>
  <polygon fill="#1b9fd8" points="174.8316,242.1482 178.3316,235.1482 181.8316,242.1482" stroke-width="0" transform=" rotate(0, 178, 238)"/>
  <ellipse cx="189.0911" cy="239.0887" fill="#1b9fd8" rx="3.5" ry="3.5" stroke-width="0" transform=" rotate(0, 189, 239)"/>
  <rect fill="#1b9fd8" height="7" stroke-width="0" transform=" rotate(0, 201, 238)" width="7" x="197.5966" y="234.8189"/>
  <polygon fill="#1b9fd8" points="204.954,244.8114 208.454,237.8114 211.954,244.8114" stroke-width="0" transform=" rotate(0, 208, 241)"/>
  <ellipse cx="220.3702" cy="238.1267" fill="#1b9fd8" rx="3.5" ry="3.5" stroke-width="0" transform=" rotate(0, 220, 238)"/>
  <rect fill="#1b9fd8" height="7" stroke-width="0" transform=" rotate(0, 228, 241)" width="7" x="224.9092" y="237.7106"/>
  <polygon fill="#1b9fd8" points="235.7302,245.1335 239.2302,238.1335 242.7302,245.1335" stroke-width="0" transform=" rotate(0, 239, 241)"/>
  <ellipse cx="250.0082" cy="239.3326" fill="#1b9fd8" rx="3.5" ry="3.5" stroke-width="0" transform=" rotate(0, 250, 239)"/>
  <rect fill="#1b9fd8" height="7" stroke-width="0" transform=" rotate(0, 258, 238)" width="7" x="254.7591" y="234.7953"/>
  <polygon fill="#1b9fd8" points="268.5143,241.5272 272.0143,234.5272 275.5143,241.5272" stroke-width="0" transform=" rotate(0, 272, 238)"/>
  <ellipse cx="280.6537" cy="240.7804" fill="#1b9fd8" rx="3.5" ry="3.5" stroke-width="0" transform=" rotate(0, 280, 240)"/>
  <rect fill="#6dd6ff" height="5" stroke-width="0" transform=" rotate(0, 48, 250)" width="5" x="46.1524" y="247.7088"/>
  <polygon fill="#6dd6ff" points="55.7659,251.1571 58.2659,246.1571 60.7659,251.1571" stroke-width="0" transform=" rotate(0, 58, 248)"/>
  <ellipse cx="70.206" cy="251.8411" fill="#6dd6ff" rx="2.5" ry="2.5" stroke-width="0" transform=" rotate(0, 70, 251)"/>
  <rect fill="#6dd6ff" height="5" stroke-width="0" transform=" rotate(0, 79, 251)" width="5" x="77.3296" y="249.2891"/>
  <polygon fill="#6dd6ff" points="86.7888,252.829 89.2888,247.829 91.7888,252.829" stroke-width="0" transform=" rotate(0, 89, 250)"/>
  <ellipse cx="100.6678" cy="249.0677" fill="#6dd6ff" rx="2.5" ry="2.5" stroke-width="0" transform=" rotate(0, 100, 249)"/>
  <rect fill="#6dd6ff" height="5" stroke-width="0" transform=" rotate(0, 111, 250)" width="5" x="109.2137" y="248.1173"/>
  <polygon fill="#6dd6ff" points="117.0447,254.2163 119.5447,249.2163 122.0447,254.2163" stroke-width="0" transform=" rotate(0, 119, 251)"/>
  <ellipse cx="128.703" cy="251.3394" fill="#6dd6ff" rx="2.5" ry="2.5" stroke-width="0" transform=" rotate(0, 128, 251)"/>
  <rect fill="#6dd6ff" height="5" stroke-width="0" transform=" rotate(0, 140, 251)" width="5" x="138.2046" y="249.1724"/>
  <polygon fill="#6dd6ff" points="146.3896,253.6927 148.8896,248.6927 151.3896,253.6927" stroke-width="0" transform=" rotate(0, 148, 251)"/>
  <ellipse cx="159.0404" cy="250.4969" fill="#6dd6ff" rx="2.5" ry="2.5" stroke-width="0" transform=" rotate(0, 159, 250)"/>
  <rect fill="#6dd6ff" height="5" stroke-width="0" transform=" rotate(0, 170, 252)" width="5" x="168.0202" y="249.5199"/>
  <polygon fill="#6dd6ff" points="179.4087,250.5084 181.9087,245.5084 184.4087,250.5084" stroke-width="0" transform=" rotate(0, 181, 248)"/>
  <ellipse cx="187.8898" cy="249.1911" fill="#6dd6ff" rx="2.5" ry="2.5" stroke-width="0" transform=" rotate(0, 187, 249)"/>
  <rect fill="#6dd6ff" height="5" stroke-width="0" transform=" rotate(0, 201, 249)" width="5" x="198.575" y="247.1058"/>
  <polygon fill="#6dd6ff" points="209.4245,252.0377 211.9245,247.0377 214.4245,252.0377" stroke-width="0" transform=" rotate(0, 211, 249)"/>
  <ellipse cx="220.4967" cy="249.8352" fill="#6dd6ff" rx="2.5" ry="2.5" stroke-width="0" transform=" rotate(0, 220, 249)"/>
  <rect fill="#6dd6ff" height="5" stroke-width="0" transform=" rotate(0, 231, 250)" width="5" x="228.7656" y="247.8394"/>
  <polygon fill="#6dd6ff" points="237.3465,252.5892 239.8465,247.5892 242.3465,252.5892" stroke-width="0" transform=" rotate(0, 239, 250)"/>
  <ellipse cx="251.4732" cy="250.9819" fill="#6dd6ff" rx="2.5" ry="2.5" stroke-width="0" transform=" rotate(0, 251, 250)"/>
  <rect fill="#6dd6ff" height="5" stroke-width="0" transform=" rotate(0, 260, 248)" width="5" x="258.329" y="245.6367"/>
  <polygon fill="#6dd6ff" points="268.2722,252.0888 270.7722,247.0888 273.2722,252.0888" stroke-width="0" transform=" rotate(0, 270, 249)"/>
  <ellipse cx="278.0113" cy="251.0515" fill="#6dd6ff" rx="2.5" ry="2.5" stroke-width="0" transform=" rotate(0, 278, 251)"/>
  <rect fill="#006ca1" height="9" stroke-width="0" transform=" rotate(0, 51, 261)" width="9" x="47.0447" y="257.0821"/>
  <polygon fill="#006ca1" points="54.3668,263.4943 58.8668,254.4943 63.3668,263.4943" stroke-width="0" transform=" rotate(0, 58, 258)"/>
  <ellipse cx="72.0574" cy="260.2157" fill="#006ca1" rx="4.5" ry="4.5" stroke-width="0" transform=" rotate(0, 72, 260)"/>
  <rect fill="#006ca1" height="9" stroke-width="0" transform=" rotate(0, 78, 258)" width="9" x="74.0188" y="254.4339"/>
  <polygon fill="#006ca1" points="86.5275,262.7176 91.0275,253.7176 95.5275,262.7176" stroke-width="0" transform=" rotate(0, 91, 258)"/>
  <ellipse cx="98.3787" cy="260.9911" fill="#006ca1" rx="4.5" ry="4.5" stroke-width="0" transform=" rotate(0, 98, 260)"/>
  <rect fill="#006ca1" height="9" stroke-width="0" transform=" rotate(0, 109, 258)" width="9" x="105.4307" y="253.7179"/>
  <polygon fill="#006ca1" points="114.5614,263.8217 119.0614,254.8217 123.5614,263.8217" stroke-width="0" transform=" rotate(0, 119, 259)"/>
  <ellipse cx="131.0377" cy="258.4915" fill="#006ca1" rx="4.5" ry="4.5" stroke-width="0" transform=" rotate(0, 131, 258)"/>
  <rect fill="#006ca1" height="9" stroke-width="0" transform=" rotate(0, 138, 258)" width="9" x="134.2037" y="254.0055"/>
  <polygon fill="#006ca1" points="143.5093,263.3743 148.0093,254.3743 152.5093,263.3743" stroke-width="0" transform=" rotate(0, 148, 258)"/>
  <ellipse cx="161.3646" cy="261.8655" fill="#006ca1" rx="4.5" ry="4.5" stroke-width="0" transform=" rotate(0, 161, 261)"/>
  <rect fill="#006ca1" height="9" stroke-width="0" transform=" rotate(0, 170, 258)" width="9" x="165.6017" y="254.2479"/>
  <polygon fill="#006ca1" points="177.0045,264.1013 181.5045,255.1013 186.0045,264.1013" stroke-width="0" transform=" rotate(0, 181, 259)"/>
  <ellipse cx="188.5873" cy="260.6612" fill="#006ca1" rx="4.5" ry="4.5" stroke-width="0" transform=" rotate(0, 188, 260)"/>
  <rect fill="#006ca1" height="9" stroke-width="0" transform=" rotate(0, 200, 261)" width="9" x="195.613" y="257.2272"/>
  <polygon fill="#006ca1" points="207.3885,263.8501 211.8885,254.8501 216.3885,263.8501" stroke-width="0" transform=" rotate(0, 211, 259)"/>
  <ellipse cx="219.8405" cy="259.5561" fill="#006ca1" rx="4.5" ry="4.5" stroke-width="0" transform=" rotate(0, 219, 259)"/>
  <rect fill="#006ca1" height="9" stroke-width="0" transform=" rotate(0, 229, 259)" width="9" x="224.9813" y="255.4395"/>
  <polygon fill="#006ca1" points="234.5089,265.0513 239.0089,256.0513 243.5089,265.0513" stroke-width="0" transform=" rotate(0, 239, 260)"/>
  <ellipse cx="249.2906" cy="258.617" fill="#006ca1" rx="4.5" ry="4.5" stroke-width="0" transform=" rotate(0, 249, 258)"/>
  <rect fill="#006ca1" height="9" stroke-width="0" transform=" rotate(0, 260, 259)" width="9" x="256.2834" y="254.5092"/>
  <polygon fill="#006ca1" points="263.7276,264.0146 268.2276,255.0146 272.7276,264.0146" stroke-width="0" transform=" rotate(0, 268, 259)"/>
  <ellipse cx="279.2324" cy="259.808" fill="#006ca1" rx="4.5" ry="4.5" stroke-width="0" transform=" rotate(0, 279, 259)"/>
  <rect fill="#1b9fd8" height="7" stroke-width="0" transform=" rotate(0, 49, 269)" width="7" x="46.0274" y="266.0302"/>
  <polygon fill="#1b9fd8" points="57.3096,275.3727 60.8096,268.3727 64.3096,275.3727" stroke-width="0" transform=" rotate(0, 60, 271)"/>
  <ellipse cx="69.9242" cy="267.9188" fill="#1b9fd8" rx="3.5" ry="3.5" stroke-width="0" transform=" rotate(0, 69, 267)"/>
  <rect fill="#1b9fd8" height="7" stroke-width="0" transform=" rotate(0, 80, 269)" width="7" x="77.446" y="265.5069"/>
  <polygon fill="#1b9fd8" points="87.7345,274.4198 91.2345,267.4198 94.7345,274.4198" stroke-width="0" transform=" rotate(0, 91, 270)"/>
  <ellipse cx="98.154" cy="271.1124" fill="#1b9fd8" rx="3.5" ry="3.5" stroke-width="0" transform=" rotate(0, 98, 271)"/>
  <rect fill="#1b9fd8" height="7" stroke-width="0" transform=" rotate(0, 108, 269)" width="7" x="105.1437" y="265.7922"/>
  <polygon fill="#1b9fd8" points="115.9957,271.3697 119.4957,264.3697 122.9957,271.3697" stroke-width="0" transform=" rotate(0, 119, 267)"/>
  <ellipse cx="131.1136" cy="271.4775" fill="#1b9fd8" rx="3.5" ry="3.5" stroke-width="0" transform=" rotate(0, 131, 271)"/>
  <rect fill="#1b9fd8" height="7" stroke-width="0" transform=" rotate(0, 142, 271)" width="7" x="138.5614" y="268.2546"/>
  <polygon fill="#1b9fd8" points="148.5408,272.1526 152.0408,265.1526 155.5408,272.1526" stroke-width="0" transform=" rotate(0, 152, 268)"/>
  <ellipse cx="161.1031" cy="269.2665" fill="#1b9fd8" rx="3.5" ry="3.5" stroke-width="0" transform=" rotate(0, 161, 269)"/>
  <rect fill="#1b9fd8" height="7" stroke-width="0" transform=" rotate(0, 168, 271)" width="7" x="165.1723" y="267.7101"/>
  <polygon fill="#1b9fd8" points="178.535,275.2578 182.035,268.2578 185.535,275.2578" stroke-width="0" transform=" rotate(0, 182, 271)"/>
  <ellipse cx="188.0287" cy="268.0529" fill="#1b9fd8" rx="3.5" ry="3.5" stroke-width="0" transform=" rotate(0, 188, 268)"/>
  <rect fill="#1b9fd8" height="7" stroke-width="0" transform=" rotate(0, 201, 271)" width="7" x="197.5901" y="268.2804"/>
  <polygon fill="#1b9fd8" points="204.7867,273.6572 208.2867,266.6572 211.7867,273.6572" stroke-width="0" transform=" rotate(0, 208, 270)"/>
  <ellipse cx="219.4439" cy="271.1712" fill="#1b9fd8" rx="3.5" ry="3.5" stroke-width="0" transform=" rotate(0, 219, 271)"/>
  <rect fill="#1b9fd8" height="7" stroke-width="0" transform=" rotate(0, 228, 269)" width="7" x="224.6907" y="265.8509"/>
  <polygon fill="#1b9fd8" points="237.1994,274.4978 240.6994,267.4978 244.1994,274.4978" stroke-width="0" transform=" rotate(0, 240, 270)"/>
  <ellipse cx="247.9226" cy="270.6597" fill="#1b9fd8" rx="3.5" ry="3.5" stroke-width="0" transform=" rotate(0, 247, 270)"/>
  <rect fill="#1b9fd8" height="7" stroke-width="0" transform=" rotate(0, 260, 270)" width="7" x="256.8985" y="266.7719"/>
  <polygon fill="#1b9fd8" points="265.0192,274.432 268.5192,267.432 272.0192,274.432" stroke-width="0" transform=" rotate(0, 268, 270)"/>
  <ellipse cx="281.5398" cy="269.2114" fill="#1b9fd8" rx="3.5" ry="3.5" stroke-width="0" transform=" rotate(0, 281, 269)"/>
  <rect fill="#6dd6ff" height="5" stroke-width="0" transform=" rotate(0, 47, 280)" width="5" x="45.4256" y="277.9584"/>
  <polygon fill="#6dd6ff" points="59.1403,280.6241 61.6403,275.6241 64.1403,280.6241" stroke-width="0" transform=" rotate(0, 61, 278)"/>
  <ellipse cx="69.4117" cy="279.587" fill="#6dd6ff" rx="2.5" ry="2.5" stroke-width="0" transform=" rotate(0, 69, 279)"/>
  <rect fill="#6dd6ff" height="5" stroke-width="0" transform=" rotate(0, 78, 281)" width="5" x="76.2089" y="278.8674"/>
  <polygon fill="#6dd6ff" points="87.9328,282.668 90.4328,277.668 92.9328,282.668" stroke-width="0" transform=" rotate(0, 90, 280)"/>
  <ellipse cx="99.8884" cy="279.198" fill="#6dd6ff" rx="2.5" ry="2.5" stroke-width="0" transform=" rotate(0, 99, 279)"/>
  <rect fill="#6dd6ff" height="5" stroke-width="0" transform=" rotate(0, 111, 280)" width="5" x="108.6557" y="278.0768"/>
  <polygon fill="#6dd6ff" points="116.2261,283.0893 118.7261,278.0893 121.2261,283.0893" stroke-width="0" transform=" rotate(0, 118, 280)"/>
  <ellipse cx="127.9487" cy="277.9364" fill="#6dd6ff" rx="2.5" ry="2.5" stroke-width="0" transform=" rotate(0, 127, 277)"/>
  <rect fill="#6dd6ff" height="5" stroke-width="0" transform=" rotate(0, 139, 281)" width="5" x="137.4612" y="278.521"/>
  <polygon fill="#6dd6ff" points="147.1312,281.2019 149.6312,276.2019 152.1312,281.2019" stroke-width="0" transform=" rotate(0, 149, 278)"/>
  <ellipse cx="160.4896" cy="281.5197" fill="#6dd6ff" rx="2.5" ry="2.5" stroke-width="0" transform=" rotate(0, 160, 281)"/>
  <rect fill="#6dd6ff" height="5" stroke-width="0" transform=" rotate(0, 168, 280)" width="5" x="165.6876" y="277.8151"/>
  <polygon fill="#6dd6ff" points="176.843,284.3558 179.343,279.3558 181.843,284.3558" stroke-width="0" transform=" rotate(0, 179, 281)"/>
  <ellipse cx="189.5344" cy="281.6141" fill="#6dd6ff" rx="2.5" ry="2.5" stroke-width="0" transform=" rotate(0, 189, 281)"/>
  <rect fill="#6dd6ff" height="5" stroke-width="0" transform=" rotate(0, 200, 279)" width="5" x="198.3978" y="276.6398"/>
  <polygon fill="#6dd6ff" points="207.5571,284.4777 210.0571,279.4777 212.5571,284.4777" stroke-width="0" transform=" rotate(0, 210, 281)"/>
  <ellipse cx="219.4628" cy="278.7773" fill="#6dd6ff" rx="2.5" ry="2.5" stroke-width="0" transform=" rotate(0, 219, 278)"/>
  <rect fill="#6dd6ff" height="5" stroke-width="0" transform=" rotate(0, 230, 278)" width="5" x="228.4827" y="275.6435"/>
  <polygon fill="#6dd6ff" points="236.4397,284.1835 238.9397,279.1835 241.4397,284.1835" stroke-width="0" transform=" rotate(0, 238, 281)"/>
  <ellipse cx="248.0018" cy="281.5727" fill="#6dd6ff" rx="2.5" ry="2.5" stroke-width="0" transform=" rotate(0, 248, 281)"/>
  <rect fill="#6dd6ff" height="5" stroke-width="0" transform=" rotate(0, 259, 277)" width="5" x="257.3982" y="275.3685"/>
  <polygon fill="#6dd6ff" points="269.4596,283.2067 271.9596,278.2067 274.4596,283.2067" stroke-width="0" transform=" rotate(0, 271, 280)"/>
  <ellipse cx="280.683" cy="280.1044" fill="#6dd6ff" rx="2.5" ry="2.5" stroke-width="0" transform=" rotate(0, 280, 280)"/>
</svg>
