<?xml version="1.0" encoding="utf-8" ?>
<svg baseProfile="tiny" height="330" version="1.2" width="330" xmlns="http://www.w3.org/2000/svg" xmlns:ev="http://www.w3.org/2001/xml-events" xmlns:xlink="http://www.w3.org/1999/xlink">
  <defs/>
  <rect fill="white" height="330" width="330" x="0" y="0"/>
  <rect fill="#6dd6ff" height="15" stroke-width="0" transform=" rotate(0, 51, 53)" width="15" x="44.4468" y="45.51"/>
  <polygon fill="#6dd6ff" points="81.1434,67.1217 88.6434,52.1217 96.1434,67.1217" stroke-width="0" transform=" rotate(0, 88, 59)"/>
  <ellipse cx="123.8782" cy="52.7442" fill="#6dd6ff" rx="7.5" ry="7.5" stroke-width="0" transform=" rotate(0, 123, 52)"/>
  <rect fill="#6dd6ff" height="15" stroke-width="0" transform=" rotate(0, 141, 66)" width="15" x="133.7604" y="59.2004"/>
  <polygon fill="#6dd6ff" points="179.8298,69.5705 187.3298,54.5705 194.8298,69.5705" stroke-width="0" transform=" rotate(0, 187, 62)"/>
  <ellipse cx="213.8716" cy="57.9285" fill="#6dd6ff" rx="7.5" ry="7.5" stroke-width="0" transform=" rotate(0, 213, 57)"/>
  <rect fill="#6dd6ff" height="15" stroke-width="0" transform=" rotate(0, 239, 68)" width="15" x="232.4852" y="60.7379"/>
  <polygon fill="#6dd6ff" points="253.9139,66.0472 261.4139,51.0472 268.9139,66.0472" stroke-width="0" transform=" rotate(0, 261, 58)"/>
  <rect fill="#1b9fd8" height="21" stroke-width="0" transform=" rotate(0, 66, 84)" width="21" x="55.8198" y="74.2621"/>
  <polygon fill="#1b9fd8" points="76.9371,101.0239 87.4371,80.0239 97.9371,101.0239" stroke-width="0" transform=" rotate(0, 87, 90)"/>
  <ellipse cx="113.6518" cy="93.7461" fill="#1b9fd8" rx="10.5" ry="10.5" stroke-width="0" transform=" rotate(0, 113, 93)"/>
  <rect fill="#1b9fd8" height="21" stroke-width="0" transform=" rotate(0, 151, 84)" width="21" x="141.0915" y="74.0122"/>
  <polygon fill="#1b9fd8" points="178.1463,99.2041 188.6463,78.2041 199.1463,99.2041" stroke-width="0" transform=" rotate(0, 188, 88)"/>
  <ellipse cx="203.0399" cy="84.6812" fill="#1b9fd8" rx="10.5" ry="10.5" stroke-width="0" transform=" rotate(0, 203, 84)"/>
  <rect fill="#1b9fd8" height="21" stroke-width="0" transform=" rotate(0, 240, 84)" width="21" x="230.4945" y="73.8369"/>
  <polygon fill="#1b9fd8" points="262.9103,103.6384 273.4103,82.6384 283.9103,103.6384" stroke-width="0" transform=" rotate(0, 273, 93)"/>
  <rect fill="#006ca1" height="27" stroke-width="0" transform=" rotate(0, 52, 124)" width="27" x="39.3029" y="111.3085"/>
  <polygon fill="#006ca1" points="76.5328,124.83 90.0328,97.83 103.5328,124.83" stroke-width="0" transform=" rotate(0, 90, 111)"/>
  <ellipse cx="123.1342" cy="116.0209" fill="#006ca1" rx="13.5" ry="13.5" stroke-width="0" transform=" rotate(0, 123, 116)"/>
  <rect fill="#006ca1" height="27" stroke-width="0" transform=" rotate(0, 149, 113)" width="27" x="135.5641" y="99.7068"/>
  <polygon fill="#006ca1" points="159.5563,139.9293 173.0563,112.9293 186.5563,139.9293" stroke-width="0" transform=" rotate(0, 173, 126)"/>
  <ellipse cx="212.7876" cy="130.5065" fill="#006ca1" rx="13.5" ry="13.5" stroke-width="0" transform=" rotate(0, 212, 130)"/>
  <rect fill="#006ca1" height="27" stroke-width="0" transform=" rotate(0, 238, 113)" width="27" x="224.9714" y="100.3385"/>
  <polygon fill="#006ca1" points="263.8296,137.227 277.3296,110.227 290.8296,137.227" stroke-width="0" transform=" rotate(0, 277, 123)"/>
  <rect fill="#6dd6ff" height="15" stroke-width="0" transform=" rotate(0, 58, 156)" width="15" x="51.3964" y="149.2186"/>
  <polygon fill="#6dd6ff" points="83.7169,150.4761 91.2169,135.4761 98.7169,150.4761" stroke-width="0" transform=" rotate(0, 91, 142)"/>
  <ellipse cx="123.54" cy="148.0405" fill="#6dd6ff" rx="7.5" ry="7.5" stroke-width="0" transform=" rotate(0, 123, 148)"/>
  <rect fill="#6dd6ff" height="15" stroke-width="0" transform=" rotate(0, 145, 148)" width="15" x="137.6685" y="140.7674"/>
  <polygon fill="#6dd6ff" points="175.5177,151.2002 183.0177,136.2002 190.5177,151.2002" stroke-width="0" transform=" rotate(0, 183, 143)"/>
  <ellipse cx="218.7356" cy="142.2271" fill="#6dd6ff" rx="7.5" ry="7.5" stroke-width="0" transform=" rotate(0, 218, 142)"/>
  <rect fill="#6dd6ff" height="15" stroke-width="0" transform=" rotate(0, 230, 144)" width="15" x="223.3779" y="137.404"/>
  <polygon fill="#6dd6ff" points="259.9455,155.7812 267.4455,140.7812 274.9455,155.7812" stroke-width="0" transform=" rotate(0, 267, 148)"/>
  <rect fill="#6dd6ff" height="15" stroke-width="0" transform=" rotate(0, 63, 178)" width="15" x="55.729" y="171.0833"/>
  <polygon fill="#6dd6ff" points="81.4177,182.8738 88.9177,167.8738 96.4177,182.8738" stroke-width="0" transform=" rotate(0, 88, 175)"/>
  <ellipse cx="128.6735" cy="184.6914" fill="#6dd6ff" rx="7.5" ry="7.5" stroke-width="0" transform=" rotate(0, 128, 184)"/>
  <rect fill="#6dd6ff" height="15" stroke-width="0" transform=" rotate(0, 153, 178)" width="15" x="146.0668" y="170.5769"/>
  <polygon fill="#6dd6ff" points="172.1339,197.4899 179.6339,182.4899 187.1339,197.4899" stroke-width="0" transform=" rotate(0, 179, 189)"/>
  <ellipse cx="218.1454" cy="182.4603" fill="#6dd6ff" rx="7.5" ry="7.5" stroke-width="0" transform=" rotate(0, 218, 182)"/>
  <rect fill="#6dd6ff" height="15" stroke-width="0" transform=" rotate(0, 242, 188)" width="15" x="235.3036" y="180.7558"/>
  <polygon fill="#6dd6ff" points="264.6172,181.1149 272.1172,166.1149 279.6172,181.1149" stroke-width="0" transform=" rotate(0, 272, 173)"/>
  <rect fill="#006ca1" height="27" stroke-width="0" transform=" rotate(0, 61, 208)" width="27" x="47.8297" y="194.7114"/>
  <polygon fill="#006ca1" points="78.4778,232.2249 91.9778,205.2249 105.4778,232.2249" stroke-width="0" transform=" rotate(0, 91, 218)"/>
  <ellipse cx="122.6231" cy="208.2935" fill="#006ca1" rx="13.5" ry="13.5" stroke-width="0" transform=" rotate(0, 122, 208)"/>
  <rect fill="#006ca1" height="27" stroke-width="0" transform=" rotate(0, 158, 203)" width="27" x="145.4942" y="189.6917"/>
  <polygon fill="#006ca1" points="163.0122,221.7422 176.5122,194.7422 190.0122,221.7422" stroke-width="0" transform=" rotate(0, 176, 208)"/>
  <ellipse cx="218.1976" cy="213.7885" fill="#006ca1" rx="13.5" ry="13.5" stroke-width="0" transform=" rotate(0, 218, 213)"/>
  <rect fill="#006ca1" height="27" stroke-width="0" transform=" rotate(0, 237, 208)" width="27" x="223.6967" y="195.2216"/>
  <polygon fill="#006ca1" points="251.5578,232.8693 265.0578,205.8693 278.5578,232.8693" stroke-width="0" transform=" rotate(0, 265, 219)"/>
  <rect fill="#1b9fd8" height="21" stroke-width="0" transform=" rotate(0, 51, 234)" width="21" x="40.7899" y="224.434"/>
  <polygon fill="#1b9fd8" points="87.7664,246.34 98.2664,225.34 108.7664,246.34" stroke-width="0" transform=" rotate(0, 98, 235)"/>
  <ellipse cx="112.5384" cy="250.0451" fill="#1b9fd8" rx="10.5" ry="10.5" stroke-width="0" transform=" rotate(0, 112, 250)"/>
  <rect fill="#1b9fd8" height="21" stroke-width="0" transform=" rotate(0, 147, 236)" width="21" x="136.9122" y="225.8154"/>
  <polygon fill="#1b9fd8" points="177.0514,257.47 187.5514,236.47 198.0514,257.47" stroke-width="0" transform=" rotate(0, 187, 246)"/>
  <ellipse cx="214.3964" cy="232.8979" fill="#1b9fd8" rx="10.5" ry="10.5" stroke-width="0" transform=" rotate(0, 214, 232)"/>
  <rect fill="#1b9fd8" height="21" stroke-width="0" transform=" rotate(0, 234, 233)" width="21" x="224.461" y="222.6945"/>
  <polygon fill="#1b9fd8" points="256.4015,247.4307 266.9015,226.4307 277.4015,247.4307" stroke-width="0" transform=" rotate(0, 266, 236)"/>
  <rect fill="#6dd6ff" height="15" stroke-width="0" transform=" rotate(0, 58, 278)" width="15" x="50.9499" y="270.6805"/>
  <polygon fill="#6dd6ff" points="78.4102,286.1371 85.9102,271.1371 93.4102,286.1371" stroke-width="0" transform=" rotate(0, 85, 278)"/>
  <ellipse cx="117.6989" cy="278.0928" fill="#6dd6ff" rx="7.5" ry="7.5" stroke-width="0" transform=" rotate(0, 117, 278)"/>
  <rect fill="#6dd6ff" height="15" stroke-width="0" transform=" rotate(0, 145, 278)" width="15" x="137.5137" y="271.0421"/>
  <polygon fill="#6dd6ff" points="163.9781,270.2146 171.4781,255.2146 178.9781,270.2146" stroke-width="0" transform=" rotate(0, 171, 262)"/>
  <ellipse cx="216.9728" cy="268.3665" fill="#6dd6ff" rx="7.5" ry="7.5" stroke-width="0" transform=" rotate(0, 216, 268)"/>
  <rect fill="#6dd6ff" height="15" stroke-width="0" transform=" rotate(0, 230, 274)" width="15" x="222.9372" y="266.8409"/>
  <polygon fill="#6dd6ff" points="265.2477,283.6606 272.7477,268.6606 280.2477,283.6606" stroke-width="0" transform=" rotate(0, 272, 276)"/>
</svg>
