<?xml version="1.0" encoding="utf-8" ?>
<svg baseProfile="tiny" height="330" version="1.2" width="330" xmlns="http://www.w3.org/2000/svg" xmlns:ev="http://www.w3.org/2001/xml-events" xmlns:xlink="http://www.w3.org/1999/xlink">
  <defs/>
  <rect fill="white" height="330" width="330" x="0" y="0"/>
  <rect fill="#6dd6ff" height="15" stroke-width="0" transform=" rotate(0, 54, 55)" width="15" x="47.4086" y="48.3971"/>
  <polygon fill="#6dd6ff" points="81.5295,67.4658 89.0295,52.4658 96.5295,67.4658" stroke-width="0" transform=" rotate(0, 89, 59)"/>
  <ellipse cx="122.2509" cy="55.7335" fill="#6dd6ff" rx="7.5" ry="7.5" stroke-width="0" transform=" rotate(0, 122, 55)"/>
  <rect fill="#6dd6ff" height="15" stroke-width="0" transform=" rotate(0, 144, 64)" width="15" x="136.9862" y="56.822"/>
  <polygon fill="#6dd6ff" points="176.875,68.9728 184.375,53.9728 191.875,68.9728" stroke-width="0" transform=" rotate(0, 184, 61)"/>
  <ellipse cx="212.2469" cy="58.9239" fill="#6dd6ff" rx="7.5" ry="7.5" stroke-width="0" transform=" rotate(0, 212, 58)"/>
  <rect fill="#6dd6ff" height="15" stroke-width="0" transform=" rotate(0, 239, 65)" width="15" x="232.3553" y="57.7681"/>
  <polygon fill="#6dd6ff" points="257.0806,66.8046 264.5806,51.8046 272.0806,66.8046" stroke-width="0" transform=" rotate(0, 264, 59)"/>
  <rect fill="#1b9fd8" height="21" stroke-width="0" transform=" rotate(0, 65, 85)" width="21" x="54.9103" y="74.9809"/>
  <polygon fill="#1b9fd8" points="77.2575,100.9449 87.7575,79.9449 98.2575,100.9449" stroke-width="0" transform=" rotate(0, 87, 90)"/>
  <ellipse cx="114.4963" cy="93.2209" fill="#1b9fd8" rx="10.5" ry="10.5" stroke-width="0" transform=" rotate(0, 114, 93)"/>
  <rect fill="#1b9fd8" height="21" stroke-width="0" transform=" rotate(0, 151, 85)" width="21" x="140.8366" y="74.7655"/>
  <polygon fill="#1b9fd8" points="176.9146,99.3771 187.4146,78.3771 197.9146,99.3771" stroke-width="0" transform=" rotate(0, 187, 88)"/>
  <ellipse cx="203.9691" cy="85.4112" fill="#1b9fd8" rx="10.5" ry="10.5" stroke-width="0" transform=" rotate(0, 203, 85)"/>
  <rect fill="#1b9fd8" height="21" stroke-width="0" transform=" rotate(0, 240, 85)" width="21" x="230.3223" y="74.6145"/>
  <polygon fill="#1b9fd8" points="262.4036,103.1974 272.9036,82.1974 283.4036,103.1974" stroke-width="0" transform=" rotate(0, 272, 92)"/>
  <rect fill="#006ca1" height="27" stroke-width="0" transform=" rotate(0, 52, 125)" width="27" x="38.5945" y="111.6147"/>
  <polygon fill="#006ca1" points="76.603,123.6847 90.103,96.6847 103.603,123.6847" stroke-width="0" transform=" rotate(0, 90, 110)"/>
  <ellipse cx="123.5384" cy="115.3808" fill="#006ca1" rx="13.5" ry="13.5" stroke-width="0" transform=" rotate(0, 123, 115)"/>
  <rect fill="#006ca1" height="27" stroke-width="0" transform=" rotate(0, 149, 112)" width="27" x="135.5299" y="98.7636"/>
  <polygon fill="#006ca1" points="158.8751,140.4101 172.3751,113.4101 185.8751,140.4101" stroke-width="0" transform=" rotate(0, 172, 126)"/>
  <ellipse cx="213.1544" cy="131.4264" fill="#006ca1" rx="13.5" ry="13.5" stroke-width="0" transform=" rotate(0, 213, 131)"/>
  <rect fill="#006ca1" height="27" stroke-width="0" transform=" rotate(0, 238, 112)" width="27" x="224.8734" y="99.4633"/>
  <polygon fill="#006ca1" points="264.6856,137.4167 278.1856,110.4167 291.6856,137.4167" stroke-width="0" transform=" rotate(0, 278, 123)"/>
  <rect fill="#6dd6ff" height="15" stroke-width="0" transform=" rotate(0, 59, 154)" width="15" x="51.6853" y="146.8332"/>
  <polygon fill="#6dd6ff" points="83.1132,153.3762 90.6132,138.3762 98.1132,153.3762" stroke-width="0" transform=" rotate(0, 90, 145)"/>
  <ellipse cx="122.0428" cy="148.9928" fill="#6dd6ff" rx="7.5" ry="7.5" stroke-width="0" transform=" rotate(0, 122, 148)"/>
  <rect fill="#6dd6ff" height="15" stroke-width="0" transform=" rotate(0, 146, 149)" width="15" x="139.3911" y="141.6324"/>
  <polygon fill="#6dd6ff" points="174.2214,153.8218 181.7214,138.8218 189.2214,153.8218" stroke-width="0" transform=" rotate(0, 181, 146)"/>
  <ellipse cx="215.2401" cy="145.4153" fill="#6dd6ff" rx="7.5" ry="7.5" stroke-width="0" transform=" rotate(0, 215, 145)"/>
  <rect fill="#6dd6ff" height="15" stroke-width="0" transform=" rotate(0, 234, 147)" width="15" x="226.7507" y="139.5626"/>
  <polygon fill="#6dd6ff" points="260.7924,156.6409 268.2924,141.6409 275.7924,156.6409" stroke-width="0" transform=" rotate(0, 268, 149)"/>
  <rect fill="#6dd6ff" height="15" stroke-width="0" transform=" rotate(0, 61, 179)" width="15" x="54.3515" y="171.8268"/>
  <polygon fill="#6dd6ff" points="81.6984,184.8517 89.1984,169.8517 96.6984,184.8517" stroke-width="0" transform=" rotate(0, 89, 177)"/>
  <ellipse cx="125.2019" cy="183.0856" fill="#6dd6ff" rx="7.5" ry="7.5" stroke-width="0" transform=" rotate(0, 125, 183)"/>
  <rect fill="#6dd6ff" height="15" stroke-width="0" transform=" rotate(0, 152, 179)" width="15" x="144.5593" y="171.5152"/>
  <polygon fill="#6dd6ff" points="172.1391,193.8462 179.6391,178.8462 187.1391,193.8462" stroke-width="0" transform=" rotate(0, 179, 186)"/>
  <ellipse cx="214.8769" cy="181.7127" fill="#6dd6ff" rx="7.5" ry="7.5" stroke-width="0" transform=" rotate(0, 214, 181)"/>
  <rect fill="#6dd6ff" height="15" stroke-width="0" transform=" rotate(0, 241, 185)" width="15" x="234.0897" y="177.7791"/>
  <polygon fill="#6dd6ff" points="263.6672,183.7693 271.1672,168.7693 278.6672,183.7693" stroke-width="0" transform=" rotate(0, 271, 176)"/>
  <rect fill="#006ca1" height="27" stroke-width="0" transform=" rotate(0, 61, 207)" width="27" x="48.0395" y="194.3072"/>
  <polygon fill="#006ca1" points="78.7574,232.9529 92.2574,205.9529 105.7574,232.9529" stroke-width="0" transform=" rotate(0, 92, 219)"/>
  <ellipse cx="122.9722" cy="207.8981" fill="#006ca1" rx="13.5" ry="13.5" stroke-width="0" transform=" rotate(0, 122, 207)"/>
  <rect fill="#006ca1" height="27" stroke-width="0" transform=" rotate(0, 160, 202)" width="27" x="146.5294" y="188.7469"/>
  <polygon fill="#006ca1" points="162.7032,221.3414 176.2032,194.3414 189.7032,221.3414" stroke-width="0" transform=" rotate(0, 176, 207)"/>
  <ellipse cx="219.147" cy="213.9848" fill="#006ca1" rx="13.5" ry="13.5" stroke-width="0" transform=" rotate(0, 219, 213)"/>
  <rect fill="#006ca1" height="27" stroke-width="0" transform=" rotate(0, 236, 208)" width="27" x="223.4615" y="194.8724"/>
  <polygon fill="#006ca1" points="251.0922,233.6667 264.5922,206.6667 278.0922,233.6667" stroke-width="0" transform=" rotate(0, 264, 220)"/>
  <rect fill="#1b9fd8" height="21" stroke-width="0" transform=" rotate(0, 52, 235)" width="21" x="41.9614" y="225.1289"/>
  <polygon fill="#1b9fd8" points="86.5874,246.9095 97.0874,225.9095 107.5874,246.9095" stroke-width="0" transform=" rotate(0, 97, 236)"/>
  <ellipse cx="113.537" cy="248.6478" fill="#1b9fd8" rx="10.5" ry="10.5" stroke-width="0" transform=" rotate(0, 113, 248)"/>
  <rect fill="#1b9fd8" height="21" stroke-width="0" transform=" rotate(0, 147, 236)" width="21" x="137.236" y="226.3191"/>
  <polygon fill="#1b9fd8" points="175.9713,256.4985 186.4713,235.4985 196.9713,256.4985" stroke-width="0" transform=" rotate(0, 186, 245)"/>
  <ellipse cx="213.7532" cy="233.8748" fill="#1b9fd8" rx="10.5" ry="10.5" stroke-width="0" transform=" rotate(0, 213, 233)"/>
  <rect fill="#1b9fd8" height="21" stroke-width="0" transform=" rotate(0, 235, 234)" width="21" x="225.1242" y="223.6303"/>
  <polygon fill="#1b9fd8" points="256.7961,247.8492 267.2961,226.8492 277.7961,247.8492" stroke-width="0" transform=" rotate(0, 267, 237)"/>
  <rect fill="#6dd6ff" height="15" stroke-width="0" transform=" rotate(0, 58, 275)" width="15" x="51.4105" y="267.7328"/>
  <polygon fill="#6dd6ff" points="79.8476,283.0137 87.3476,268.0137 94.8476,283.0137" stroke-width="0" transform=" rotate(0, 87, 275)"/>
  <ellipse cx="118.4483" cy="275.1788" fill="#6dd6ff" rx="7.5" ry="7.5" stroke-width="0" transform=" rotate(0, 118, 275)"/>
  <rect fill="#6dd6ff" height="15" stroke-width="0" transform=" rotate(0, 146, 275)" width="15" x="139.2959" y="267.9553"/>
  <polygon fill="#6dd6ff" points="167.1201,273.2153 174.6201,258.2153 182.1201,273.2153" stroke-width="0" transform=" rotate(0, 174, 265)"/>
  <ellipse cx="214.1553" cy="269.1934" fill="#6dd6ff" rx="7.5" ry="7.5" stroke-width="0" transform=" rotate(0, 214, 269)"/>
  <rect fill="#6dd6ff" height="15" stroke-width="0" transform=" rotate(0, 233, 272)" width="15" x="226.4796" y="265.3699"/>
  <polygon fill="#6dd6ff" points="264.0552,281.4897 271.5552,266.4897 279.0552,281.4897" stroke-width="0" transform=" rotate(0, 271, 273)"/>
</svg>
