<?xml version="1.0" encoding="utf-8" ?>
<svg baseProfile="tiny" height="330" version="1.2" width="330" xmlns="http://www.w3.org/2000/svg" xmlns:ev="http://www.w3.org/2001/xml-events" xmlns:xlink="http://www.w3.org/1999/xlink">
  <defs/>
  <rect fill="white" height="330" width="330" x="0" y="0"/>
  <rect fill="#6dd6ff" height="5" stroke-width="0" transform=" rotate(0, 46, 52)" width="5" x="43.5521" y="50.1215"/>
  <polygon fill="#6dd6ff" points="56.9862,52.0103 59.4862,47.0103 61.9862,52.0103" stroke-width="0" transform=" rotate(0, 59, 49)"/>
  <ellipse cx="72.1707" cy="48.9615" fill="#6dd6ff" rx="2.5" ry="2.5" stroke-width="0" transform=" rotate(0, 72, 48)"/>
  <rect fill="#6dd6ff" height="5" stroke-width="0" transform=" rotate(0, 75, 54)" width="5" x="73.2001" y="51.6787"/>
  <polygon fill="#6dd6ff" points="91.4408,55.7779 93.9408,50.7779 96.4408,55.7779" stroke-width="0" transform=" rotate(0, 93, 53)"/>
  <ellipse cx="102.1673" cy="44.9004" fill="#6dd6ff" rx="2.5" ry="2.5" stroke-width="0" transform=" rotate(0, 102, 44)"/>
  <rect fill="#6dd6ff" height="5" stroke-width="0" transform=" rotate(0, 110, 53)" width="5" x="107.6743" y="50.8992"/>
  <polygon fill="#6dd6ff" points="113.2788,56.9147 115.7788,51.9147 118.2788,56.9147" stroke-width="0" transform=" rotate(0, 115, 54)"/>
  <ellipse cx="133.4229" cy="53.3584" fill="#6dd6ff" rx="2.5" ry="2.5" stroke-width="0" transform=" rotate(0, 133, 53)"/>
  <rect fill="#6dd6ff" height="5" stroke-width="0" transform=" rotate(0, 138, 54)" width="5" x="136.3676" y="52.0369"/>
  <polygon fill="#6dd6ff" points="144.4264,56.8678 146.9264,51.8678 149.4264,56.8678" stroke-width="0" transform=" rotate(0, 146, 54)"/>
  <ellipse cx="160.9981" cy="45.7896" fill="#6dd6ff" rx="2.5" ry="2.5" stroke-width="0" transform=" rotate(0, 160, 45)"/>
  <rect fill="#6dd6ff" height="5" stroke-width="0" transform=" rotate(0, 174, 48)" width="5" x="172.1159" y="45.5959"/>
  <polygon fill="#6dd6ff" points="174.1126,51.8492 176.6126,46.8492 179.1126,51.8492" stroke-width="0" transform=" rotate(0, 176, 49)"/>
  <ellipse cx="190.6919" cy="47.1112" fill="#6dd6ff" rx="2.5" ry="2.5" stroke-width="0" transform=" rotate(0, 190, 47)"/>
  <rect fill="#6dd6ff" height="5" stroke-width="0" transform=" rotate(0, 201, 51)" width="5" x="199.4308" y="48.6114"/>
  <polygon fill="#6dd6ff" points="203.9911,53.4057 206.4911,48.4057 208.9911,53.4057" stroke-width="0" transform=" rotate(0, 206, 50)"/>
  <ellipse cx="220.1987" cy="45.7522" fill="#6dd6ff" rx="2.5" ry="2.5" stroke-width="0" transform=" rotate(0, 220, 45)"/>
  <rect fill="#6dd6ff" height="5" stroke-width="0" transform=" rotate(0, 231, 54)" width="5" x="229.2892" y="51.9409"/>
  <polygon fill="#6dd6ff" points="237.202,47.5373 239.702,42.5373 242.202,47.5373" stroke-width="0" transform=" rotate(0, 239, 45)"/>
  <ellipse cx="246.621" cy="52.2358" fill="#6dd6ff" rx="2.5" ry="2.5" stroke-width="0" transform=" rotate(0, 246, 52)"/>
  <rect fill="#6dd6ff" height="5" stroke-width="0" transform=" rotate(0, 261, 46)" width="5" x="259.1115" y="44.1527"/>
  <polygon fill="#6dd6ff" points="266.898,50.5596 269.398,45.5596 271.898,50.5596" stroke-width="0" transform=" rotate(0, 269, 48)"/>
  <ellipse cx="283.9407" cy="49.6161" fill="#6dd6ff" rx="2.5" ry="2.5" stroke-width="0" transform=" rotate(0, 283, 49)"/>
  <rect fill="#1b9fd8" height="7" stroke-width="0" transform=" rotate(0, 49, 60)" width="7" x="46.116" y="57.4945"/>
  <polygon fill="#1b9fd8" points="57.306,61.0405 60.806,54.0405 64.306,61.0405" stroke-width="0" transform=" rotate(0, 60, 57)"/>
  <ellipse cx="71.9973" cy="63.6805" fill="#1b9fd8" rx="3.5" ry="3.5" stroke-width="0" transform=" rotate(0, 71, 63)"/>
  <rect fill="#1b9fd8" height="7" stroke-width="0" transform=" rotate(0, 77, 61)" width="7" x="74.2042" y="58.0306"/>
  <polygon fill="#1b9fd8" points="88.2295,60.2476 91.7295,53.2476 95.2295,60.2476" stroke-width="0" transform=" rotate(0, 91, 56)"/>
  <ellipse cx="104.6617" cy="61.8673" fill="#1b9fd8" rx="3.5" ry="3.5" stroke-width="0" transform=" rotate(0, 104, 61)"/>
  <rect fill="#1b9fd8" height="7" stroke-width="0" transform=" rotate(0, 105, 62)" width="7" x="102.0039" y="58.6688"/>
  <polygon fill="#1b9fd8" points="115.3719,67.0556 118.8719,60.0556 122.3719,67.0556" stroke-width="0" transform=" rotate(0, 118, 63)"/>
  <ellipse cx="131.8378" cy="58.0273" fill="#1b9fd8" rx="3.5" ry="3.5" stroke-width="0" transform=" rotate(0, 131, 58)"/>
  <rect fill="#1b9fd8" height="7" stroke-width="0" transform=" rotate(0, 139, 57)" width="7" x="136.1269" y="53.7733"/>
  <polygon fill="#1b9fd8" points="151.1299,65.9654 154.6299,58.9654 158.1299,65.9654" stroke-width="0" transform=" rotate(0, 154, 62)"/>
  <ellipse cx="162.011" cy="57.3718" fill="#1b9fd8" rx="3.5" ry="3.5" stroke-width="0" transform=" rotate(0, 162, 57)"/>
  <rect fill="#1b9fd8" height="7" stroke-width="0" transform=" rotate(0, 169, 63)" width="7" x="166.4942" y="59.5878"/>
  <polygon fill="#1b9fd8" points="180.859,66.1246 184.359,59.1246 187.859,66.1246" stroke-width="0" transform=" rotate(0, 184, 62)"/>
  <ellipse cx="191.6197" cy="59.5362" fill="#1b9fd8" rx="3.5" ry="3.5" stroke-width="0" transform=" rotate(0, 191, 59)"/>
  <rect fill="#1b9fd8" height="7" stroke-width="0" transform=" rotate(0, 201, 64)" width="7" x="197.7676" y="61.1605"/>
  <polygon fill="#1b9fd8" points="207.3638,63.2402 210.8638,56.2402 214.3638,63.2402" stroke-width="0" transform=" rotate(0, 210, 59)"/>
  <ellipse cx="221.1962" cy="63.939" fill="#1b9fd8" rx="3.5" ry="3.5" stroke-width="0" transform=" rotate(0, 221, 63)"/>
  <rect fill="#1b9fd8" height="7" stroke-width="0" transform=" rotate(0, 231, 60)" width="7" x="228.0271" y="57.0419"/>
  <polygon fill="#1b9fd8" points="241.2943,62.9519 244.7943,55.9519 248.2943,62.9519" stroke-width="0" transform=" rotate(0, 244, 59)"/>
  <ellipse cx="248.3933" cy="57.2647" fill="#1b9fd8" rx="3.5" ry="3.5" stroke-width="0" transform=" rotate(0, 248, 57)"/>
  <rect fill="#1b9fd8" height="7" stroke-width="0" transform=" rotate(0, 264, 55)" width="7" x="260.8858" y="51.7307"/>
  <polygon fill="#1b9fd8" points="265.2444,61.5651 268.7444,54.5651 272.2444,61.5651" stroke-width="0" transform=" rotate(0, 268, 58)"/>
  <ellipse cx="277.6474" cy="60.4924" fill="#1b9fd8" rx="3.5" ry="3.5" stroke-width="0" transform=" rotate(0, 277, 60)"/>
  <rect fill="#006ca1" height="9" stroke-width="0" transform=" rotate(0, 45, 65)" width="9" x="41.2152" y="60.5045"/>
  <polygon fill="#006ca1" points="59.9211,78.2707 64.4211,69.2707 68.9211,78.2707" stroke-width="0" transform=" rotate(0, 64, 73)"/>
  <ellipse cx="66.3555" cy="71.4679" fill="#006ca1" rx="4.5" ry="4.5" stroke-width="0" transform=" rotate(0, 66, 71)"/>
  <rect fill="#006ca1" height="9" stroke-width="0" transform=" rotate(0, 78, 71)" width="9" x="74.3548" y="67.0295"/>
  <polygon fill="#006ca1" points="89.5544,77.6598 94.0544,68.6598 98.5544,77.6598" stroke-width="0" transform=" rotate(0, 94, 73)"/>
  <ellipse cx="102.4365" cy="73.1371" fill="#006ca1" rx="4.5" ry="4.5" stroke-width="0" transform=" rotate(0, 102, 73)"/>
  <rect fill="#006ca1" height="9" stroke-width="0" transform=" rotate(0, 107, 66)" width="9" x="103.0978" y="62.4996"/>
  <polygon fill="#006ca1" points="114.093,70.136 118.593,61.136 123.093,70.136" stroke-width="0" transform=" rotate(0, 118, 65)"/>
  <ellipse cx="129.387" cy="73.6957" fill="#006ca1" rx="4.5" ry="4.5" stroke-width="0" transform=" rotate(0, 129, 73)"/>
  <rect fill="#006ca1" height="9" stroke-width="0" transform=" rotate(0, 138, 71)" width="9" x="133.5846" y="66.8574"/>
  <polygon fill="#006ca1" points="144.5019,69.5074 149.0019,60.5074 153.5019,69.5074" stroke-width="0" transform=" rotate(0, 149, 65)"/>
  <ellipse cx="157.6248" cy="66.9069" fill="#006ca1" rx="4.5" ry="4.5" stroke-width="0" transform=" rotate(0, 157, 66)"/>
  <rect fill="#006ca1" height="9" stroke-width="0" transform=" rotate(0, 165, 69)" width="9" x="161.3117" y="64.8121"/>
  <polygon fill="#006ca1" points="179.2577,76.9572 183.7577,67.9572 188.2577,76.9572" stroke-width="0" transform=" rotate(0, 183, 72)"/>
  <ellipse cx="185.2779" cy="68.7166" fill="#006ca1" rx="4.5" ry="4.5" stroke-width="0" transform=" rotate(0, 185, 68)"/>
  <rect fill="#006ca1" height="9" stroke-width="0" transform=" rotate(0, 201, 70)" width="9" x="197.091" y="65.5945"/>
  <polygon fill="#006ca1" points="201.4593,73.1295 205.9593,64.1295 210.4593,73.1295" stroke-width="0" transform=" rotate(0, 205, 68)"/>
  <ellipse cx="219.3499" cy="67.6935" fill="#006ca1" rx="4.5" ry="4.5" stroke-width="0" transform=" rotate(0, 219, 67)"/>
  <rect fill="#006ca1" height="9" stroke-width="0" transform=" rotate(0, 225, 69)" width="9" x="221.323" y="64.9695"/>
  <polygon fill="#006ca1" points="238.48,72.701 242.98,63.701 247.48,72.701" stroke-width="0" transform=" rotate(0, 242, 68)"/>
  <ellipse cx="250.6057" cy="66.3615" fill="#006ca1" rx="4.5" ry="4.5" stroke-width="0" transform=" rotate(0, 250, 66)"/>
  <rect fill="#006ca1" height="9" stroke-width="0" transform=" rotate(0, 258, 70)" width="9" x="253.9816" y="66.4432"/>
  <polygon fill="#006ca1" points="269.2685,78.4438 273.7685,69.4438 278.2685,78.4438" stroke-width="0" transform=" rotate(0, 273, 73)"/>
  <ellipse cx="278.7989" cy="74.0273" fill="#006ca1" rx="4.5" ry="4.5" stroke-width="0" transform=" rotate(0, 278, 74)"/>
  <rect fill="#6dd6ff" height="5" stroke-width="0" transform=" rotate(0, 46, 82)" width="5" x="44.3578" y="80.288"/>
  <polygon fill="#6dd6ff" points="57.3126,82.8632 59.8126,77.8632 62.3126,82.8632" stroke-width="0" transform=" rotate(0, 59, 80)"/>
  <ellipse cx="71.465" cy="81.0588" fill="#6dd6ff" rx="2.5" ry="2.5" stroke-width="0" transform=" rotate(0, 71, 81)"/>
  <rect fill="#6dd6ff" height="5" stroke-width="0" transform=" rotate(0, 76, 79)" width="5" x="74.2296" y="77.458"/>
  <polygon fill="#6dd6ff" points="86.3794,86.2347 88.8794,81.2347 91.3794,86.2347" stroke-width="0" transform=" rotate(0, 88, 83)"/>
  <ellipse cx="96.8163" cy="75.0786" fill="#6dd6ff" rx="2.5" ry="2.5" stroke-width="0" transform=" rotate(0, 96, 75)"/>
  <rect fill="#6dd6ff" height="5" stroke-width="0" transform=" rotate(0, 106, 80)" width="5" x="104.1397" y="77.9952"/>
  <polygon fill="#6dd6ff" points="118.6533,86.8513 121.1533,81.8513 123.6533,86.8513" stroke-width="0" transform=" rotate(0, 121, 84)"/>
  <ellipse cx="132.0098" cy="82.3256" fill="#6dd6ff" rx="2.5" ry="2.5" stroke-width="0" transform=" rotate(0, 132, 82)"/>
  <rect fill="#6dd6ff" height="5" stroke-width="0" transform=" rotate(0, 135, 76)" width="5" x="132.5978" y="73.922"/>
  <polygon fill="#6dd6ff" points="145.0033,79.807 147.5033,74.807 150.0033,79.807" stroke-width="0" transform=" rotate(0, 147, 77)"/>
  <ellipse cx="156.0602" cy="79.0163" fill="#6dd6ff" rx="2.5" ry="2.5" stroke-width="0" transform=" rotate(0, 156, 79)"/>
  <rect fill="#6dd6ff" height="5" stroke-width="0" transform=" rotate(0, 172, 76)" width="5" x="170.341" y="73.9178"/>
  <polygon fill="#6dd6ff" points="182.4319,81.9336 184.9319,76.9336 187.4319,81.9336" stroke-width="0" transform=" rotate(0, 184, 79)"/>
  <ellipse cx="186.3842" cy="82.5821" fill="#6dd6ff" rx="2.5" ry="2.5" stroke-width="0" transform=" rotate(0, 186, 82)"/>
  <rect fill="#6dd6ff" height="5" stroke-width="0" transform=" rotate(0, 201, 83)" width="5" x="198.9552" y="81.2776"/>
  <polygon fill="#6dd6ff" points="210.4894,77.5725 212.9894,72.5725 215.4894,77.5725" stroke-width="0" transform=" rotate(0, 212, 75)"/>
  <ellipse cx="215.9419" cy="80.276" fill="#6dd6ff" rx="2.5" ry="2.5" stroke-width="0" transform=" rotate(0, 215, 80)"/>
  <rect fill="#6dd6ff" height="5" stroke-width="0" transform=" rotate(0, 228, 83)" width="5" x="226.0391" y="80.8183"/>
  <polygon fill="#6dd6ff" points="236.1554,77.4452 238.6554,72.4452 241.1554,77.4452" stroke-width="0" transform=" rotate(0, 238, 74)"/>
  <ellipse cx="246.3132" cy="84.3425" fill="#6dd6ff" rx="2.5" ry="2.5" stroke-width="0" transform=" rotate(0, 246, 84)"/>
  <rect fill="#6dd6ff" height="5" stroke-width="0" transform=" rotate(0, 255, 83)" width="5" x="253.0578" y="80.7229"/>
  <polygon fill="#6dd6ff" points="264.4306,82.5815 266.9306,77.5815 269.4306,82.5815" stroke-width="0" transform=" rotate(0, 266, 80)"/>
  <ellipse cx="278.6625" cy="78.9769" fill="#6dd6ff" rx="2.5" ry="2.5" stroke-width="0" transform=" rotate(0, 278, 78)"/>
  <rect fill="#1b9fd8" height="7" stroke-width="0" transform=" rotate(0, 48, 86)" width="7" x="45.3174" y="82.6014"/>
  <polygon fill="#1b9fd8" points="53.6715,98.3416 57.1715,91.3416 60.6715,98.3416" stroke-width="0" transform=" rotate(0, 57, 94)"/>
  <ellipse cx="71.9497" cy="88.3348" fill="#1b9fd8" rx="3.5" ry="3.5" stroke-width="0" transform=" rotate(0, 71, 88)"/>
  <rect fill="#1b9fd8" height="7" stroke-width="0" transform=" rotate(0, 78, 89)" width="7" x="75.0577" y="85.9975"/>
  <polygon fill="#1b9fd8" points="91.1669,93.9006 94.6669,86.9006 98.1669,93.9006" stroke-width="0" transform=" rotate(0, 94, 90)"/>
  <ellipse cx="100.8056" cy="89.8645" fill="#1b9fd8" rx="3.5" ry="3.5" stroke-width="0" transform=" rotate(0, 100, 89)"/>
  <rect fill="#1b9fd8" height="7" stroke-width="0" transform=" rotate(0, 113, 94)" width="7" x="110.2776" y="91.1182"/>
  <polygon fill="#1b9fd8" points="112.7695,88.8657 116.2695,81.8657 119.7695,88.8657" stroke-width="0" transform=" rotate(0, 116, 85)"/>
  <ellipse cx="128.6267" cy="87.1567" fill="#1b9fd8" rx="3.5" ry="3.5" stroke-width="0" transform=" rotate(0, 128, 87)"/>
  <rect fill="#1b9fd8" height="7" stroke-width="0" transform=" rotate(0, 144, 94)" width="7" x="140.5182" y="90.7097"/>
  <polygon fill="#1b9fd8" points="145.1688,92.7481 148.6688,85.7481 152.1688,92.7481" stroke-width="0" transform=" rotate(0, 148, 89)"/>
  <ellipse cx="156.0525" cy="93.2532" fill="#1b9fd8" rx="3.5" ry="3.5" stroke-width="0" transform=" rotate(0, 156, 93)"/>
  <rect fill="#1b9fd8" height="7" stroke-width="0" transform=" rotate(0, 168, 88)" width="7" x="165.1425" y="85.0503"/>
  <polygon fill="#1b9fd8" points="177.9867,96.1271 181.4867,89.1271 184.9867,96.1271" stroke-width="0" transform=" rotate(0, 181, 92)"/>
  <ellipse cx="188.8883" cy="89.2816" fill="#1b9fd8" rx="3.5" ry="3.5" stroke-width="0" transform=" rotate(0, 188, 89)"/>
  <rect fill="#1b9fd8" height="7" stroke-width="0" transform=" rotate(0, 204, 87)" width="7" x="200.8487" y="83.6358"/>
  <polygon fill="#1b9fd8" points="203.4459,97.9412 206.9459,90.9412 210.4459,97.9412" stroke-width="0" transform=" rotate(0, 206, 94)"/>
  <ellipse cx="217.4106" cy="86.182" fill="#1b9fd8" rx="3.5" ry="3.5" stroke-width="0" transform=" rotate(0, 217, 86)"/>
  <rect fill="#1b9fd8" height="7" stroke-width="0" transform=" rotate(0, 234, 86)" width="7" x="231.1953" y="82.7915"/>
  <polygon fill="#1b9fd8" points="234.1544,93.6144 237.6544,86.6144 241.1544,93.6144" stroke-width="0" transform=" rotate(0, 237, 90)"/>
  <ellipse cx="253.1183" cy="87.7302" fill="#1b9fd8" rx="3.5" ry="3.5" stroke-width="0" transform=" rotate(0, 253, 87)"/>
  <rect fill="#1b9fd8" height="7" stroke-width="0" transform=" rotate(0, 255, 89)" width="7" x="252.4018" y="85.9823"/>
  <polygon fill="#1b9fd8" points="262.5539,93.9756 266.0539,86.9756 269.5539,93.9756" stroke-width="0" transform=" rotate(0, 266, 90)"/>
  <ellipse cx="277.9699" cy="89.3877" fill="#1b9fd8" rx="3.5" ry="3.5" stroke-width="0" transform=" rotate(0, 277, 89)"/>
  <rect fill="#006ca1" height="9" stroke-width="0" transform=" rotate(0, 53, 104)" width="9" x="49.239" y="99.5752"/>
  <polygon fill="#006ca1" points="59.4732,103.6689 63.9732,94.6689 68.4732,103.6689" stroke-width="0" transform=" rotate(0, 63, 99)"/>
  <ellipse cx="73.6941" cy="100.3382" fill="#006ca1" rx="4.5" ry="4.5" stroke-width="0" transform=" rotate(0, 73, 100)"/>
  <rect fill="#006ca1" height="9" stroke-width="0" transform=" rotate(0, 83, 95)" width="9" x="79.4245" y="90.8028"/>
  <polygon fill="#006ca1" points="81.3078,101.2052 85.8078,92.2052 90.3078,101.2052" stroke-width="0" transform=" rotate(0, 85, 96)"/>
  <ellipse cx="98.7062" cy="101.8059" fill="#006ca1" rx="4.5" ry="4.5" stroke-width="0" transform=" rotate(0, 98, 101)"/>
  <rect fill="#006ca1" height="9" stroke-width="0" transform=" rotate(0, 111, 104)" width="9" x="107.27" y="99.8293"/>
  <polygon fill="#006ca1" points="118.2032,101.0491 122.7032,92.0491 127.2032,101.0491" stroke-width="0" transform=" rotate(0, 122, 96)"/>
  <ellipse cx="132.5371" cy="101.2627" fill="#006ca1" rx="4.5" ry="4.5" stroke-width="0" transform=" rotate(0, 132, 101)"/>
  <rect fill="#006ca1" height="9" stroke-width="0" transform=" rotate(0, 139, 97)" width="9" x="134.9839" y="92.5441"/>
  <polygon fill="#006ca1" points="147.8674,108.5935 152.3674,99.5935 156.8674,108.5935" stroke-width="0" transform=" rotate(0, 152, 104)"/>
  <ellipse cx="162.3792" cy="100.5773" fill="#006ca1" rx="4.5" ry="4.5" stroke-width="0" transform=" rotate(0, 162, 100)"/>
  <rect fill="#006ca1" height="9" stroke-width="0" transform=" rotate(0, 174, 103)" width="9" x="169.7376" y="99.1095"/>
  <polygon fill="#006ca1" points="170.7465,105.343 175.2465,96.343 179.7465,105.343" stroke-width="0" transform=" rotate(0, 175, 100)"/>
  <ellipse cx="192.6845" cy="101.787" fill="#006ca1" rx="4.5" ry="4.5" stroke-width="0" transform=" rotate(0, 192, 101)"/>
  <rect fill="#006ca1" height="9" stroke-width="0" transform=" rotate(0, 202, 97)" width="9" x="197.6857" y="93.1706"/>
  <polygon fill="#006ca1" points="206.898,101.2347 211.398,92.2347 215.898,101.2347" stroke-width="0" transform=" rotate(0, 211, 96)"/>
  <ellipse cx="220.9185" cy="98.1583" fill="#006ca1" rx="4.5" ry="4.5" stroke-width="0" transform=" rotate(0, 220, 98)"/>
  <rect fill="#006ca1" height="9" stroke-width="0" transform=" rotate(0, 227, 103)" width="9" x="222.6591" y="98.8735"/>
  <polygon fill="#006ca1" points="238.655,101.426 243.155,92.426 247.655,101.426" stroke-width="0" transform=" rotate(0, 243, 96)"/>
  <ellipse cx="252.4517" cy="100.7439" fill="#006ca1" rx="4.5" ry="4.5" stroke-width="0" transform=" rotate(0, 252, 100)"/>
  <rect fill="#006ca1" height="9" stroke-width="0" transform=" rotate(0, 256, 98)" width="9" x="252.3155" y="94.4905"/>
  <polygon fill="#006ca1" points="261.5265,105.5208 266.0265,96.5208 270.5265,105.5208" stroke-width="0" transform=" rotate(0, 266, 101)"/>
  <ellipse cx="284.1367" cy="96.8253" fill="#006ca1" rx="4.5" ry="4.5" stroke-width="0" transform=" rotate(0, 284, 96)"/>
  <rect fill="#6dd6ff" height="5" stroke-width="0" transform=" rotate(0, 47, 113)" width="5" x="44.7404" y="110.6142"/>
  <polygon fill="#6dd6ff" points="53.3857,110.6699 55.8857,105.6699 58.3857,110.6699" stroke-width="0" transform=" rotate(0, 55, 108)"/>
  <ellipse cx="65.074" cy="112.4566" fill="#6dd6ff" rx="2.5" ry="2.5" stroke-width="0" transform=" rotate(0, 65, 112)"/>
  <rect fill="#6dd6ff" height="5" stroke-width="0" transform=" rotate(0, 81, 110)" width="5" x="78.9827" y="108.2246"/>
  <polygon fill="#6dd6ff" points="83.0079,111.3897 85.5079,106.3897 88.0079,111.3897" stroke-width="0" transform=" rotate(0, 85, 108)"/>
  <ellipse cx="96.9437" cy="113.6964" fill="#6dd6ff" rx="2.5" ry="2.5" stroke-width="0" transform=" rotate(0, 96, 113)"/>
  <rect fill="#6dd6ff" height="5" stroke-width="0" transform=" rotate(0, 112, 112)" width="5" x="109.7809" y="109.9674"/>
  <polygon fill="#6dd6ff" points="119.1891,112.556 121.6891,107.556 124.1891,112.556" stroke-width="0" transform=" rotate(0, 121, 110)"/>
  <ellipse cx="131.6051" cy="107.467" fill="#6dd6ff" rx="2.5" ry="2.5" stroke-width="0" transform=" rotate(0, 131, 107)"/>
  <rect fill="#6dd6ff" height="5" stroke-width="0" transform=" rotate(0, 144, 105)" width="5" x="142.0175" y="102.9983"/>
  <polygon fill="#6dd6ff" points="148.8993,114.2455 151.3993,109.2455 153.8993,114.2455" stroke-width="0" transform=" rotate(0, 151, 111)"/>
  <ellipse cx="162.0752" cy="109.6544" fill="#6dd6ff" rx="2.5" ry="2.5" stroke-width="0" transform=" rotate(0, 162, 109)"/>
  <rect fill="#6dd6ff" height="5" stroke-width="0" transform=" rotate(0, 169, 110)" width="5" x="166.628" y="107.5433"/>
  <polygon fill="#6dd6ff" points="180.2822,117.223 182.7822,112.223 185.2822,117.223" stroke-width="0" transform=" rotate(0, 182, 114)"/>
  <ellipse cx="188.0439" cy="111.7465" fill="#6dd6ff" rx="2.5" ry="2.5" stroke-width="0" transform=" rotate(0, 188, 111)"/>
  <rect fill="#6dd6ff" height="5" stroke-width="0" transform=" rotate(0, 204, 106)" width="5" x="201.9543" y="104.4451"/>
  <polygon fill="#6dd6ff" points="207.6231,116.6083 210.1231,111.6083 212.6231,116.6083" stroke-width="0" transform=" rotate(0, 210, 114)"/>
  <ellipse cx="218.0811" cy="110.19" fill="#6dd6ff" rx="2.5" ry="2.5" stroke-width="0" transform=" rotate(0, 218, 110)"/>
  <rect fill="#6dd6ff" height="5" stroke-width="0" transform=" rotate(0, 234, 112)" width="5" x="231.6275" y="110.2211"/>
  <polygon fill="#6dd6ff" points="241.8346,107.5837 244.3346,102.5837 246.8346,107.5837" stroke-width="0" transform=" rotate(0, 244, 105)"/>
  <ellipse cx="254.0402" cy="108.7376" fill="#6dd6ff" rx="2.5" ry="2.5" stroke-width="0" transform=" rotate(0, 254, 108)"/>
  <rect fill="#6dd6ff" height="5" stroke-width="0" transform=" rotate(0, 256, 106)" width="5" x="254.0513" y="103.7789"/>
  <polygon fill="#6dd6ff" points="266.6209,110.4909 269.1209,105.4909 271.6209,110.4909" stroke-width="0" transform=" rotate(0, 269, 107)"/>
  <ellipse cx="282.4872" cy="109.3379" fill="#6dd6ff" rx="2.5" ry="2.5" stroke-width="0" transform=" rotate(0, 282, 109)"/>
  <rect fill="#1b9fd8" height="7" stroke-width="0" transform=" rotate(0, 51, 124)" width="7" x="47.8988" y="120.5876"/>
  <polygon fill="#1b9fd8" points="56.3924,127.0782 59.8924,120.0782 63.3924,127.0782" stroke-width="0" transform=" rotate(0, 59, 123)"/>
  <ellipse cx="73.9519" cy="119.3969" fill="#1b9fd8" rx="3.5" ry="3.5" stroke-width="0" transform=" rotate(0, 73, 119)"/>
  <rect fill="#1b9fd8" height="7" stroke-width="0" transform=" rotate(0, 76, 116)" width="7" x="73.4789" y="112.904"/>
  <polygon fill="#1b9fd8" points="85.2275,127.2012 88.7275,120.2012 92.2275,127.2012" stroke-width="0" transform=" rotate(0, 88, 123)"/>
  <ellipse cx="103.4493" cy="119.331" fill="#1b9fd8" rx="3.5" ry="3.5" stroke-width="0" transform=" rotate(0, 103, 119)"/>
  <rect fill="#1b9fd8" height="7" stroke-width="0" transform=" rotate(0, 111, 124)" width="7" x="108.3902" y="120.5185"/>
  <polygon fill="#1b9fd8" points="121.1807,122.3979 124.6807,115.3979 128.1807,122.3979" stroke-width="0" transform=" rotate(0, 124, 118)"/>
  <ellipse cx="131.0211" cy="115.7871" fill="#1b9fd8" rx="3.5" ry="3.5" stroke-width="0" transform=" rotate(0, 131, 115)"/>
  <rect fill="#1b9fd8" height="7" stroke-width="0" transform=" rotate(0, 140, 118)" width="7" x="137.2977" y="115.4303"/>
  <polygon fill="#1b9fd8" points="146.1476,123.6857 149.6476,116.6857 153.1476,123.6857" stroke-width="0" transform=" rotate(0, 149, 120)"/>
  <ellipse cx="162.6432" cy="124.0769" fill="#1b9fd8" rx="3.5" ry="3.5" stroke-width="0" transform=" rotate(0, 162, 124)"/>
  <rect fill="#1b9fd8" height="7" stroke-width="0" transform=" rotate(0, 165, 121)" width="7" x="161.6331" y="117.9573"/>
  <polygon fill="#1b9fd8" points="173.3795,118.7948 176.8795,111.7948 180.3795,118.7948" stroke-width="0" transform=" rotate(0, 176, 115)"/>
  <ellipse cx="187.2877" cy="124.6904" fill="#1b9fd8" rx="3.5" ry="3.5" stroke-width="0" transform=" rotate(0, 187, 124)"/>
  <rect fill="#1b9fd8" height="7" stroke-width="0" transform=" rotate(0, 200, 119)" width="7" x="196.6908" y="115.9565"/>
  <polygon fill="#1b9fd8" points="211.2688,119.844 214.7688,112.844 218.2688,119.844" stroke-width="0" transform=" rotate(0, 214, 116)"/>
  <ellipse cx="218.6976" cy="118.3405" fill="#1b9fd8" rx="3.5" ry="3.5" stroke-width="0" transform=" rotate(0, 218, 118)"/>
  <rect fill="#1b9fd8" height="7" stroke-width="0" transform=" rotate(0, 232, 122)" width="7" x="228.9575" y="119.3514"/>
  <polygon fill="#1b9fd8" points="237.2162,127.5109 240.7162,120.5109 244.2162,127.5109" stroke-width="0" transform=" rotate(0, 240, 124)"/>
  <ellipse cx="254.4789" cy="119.351" fill="#1b9fd8" rx="3.5" ry="3.5" stroke-width="0" transform=" rotate(0, 254, 119)"/>
  <rect fill="#1b9fd8" height="7" stroke-width="0" transform=" rotate(0, 262, 117)" width="7" x="258.7131" y="114.3078"/>
  <polygon fill="#1b9fd8" points="271.0332,127.7398 274.5332,120.7398 278.0332,127.7398" stroke-width="0" transform=" rotate(0, 274, 124)"/>
  <ellipse cx="284.643" cy="118.716" fill="#1b9fd8" rx="3.5" ry="3.5" stroke-width="0" transform=" rotate(0, 284, 118)"/>
  <rect fill="#006ca1" height="9" stroke-width="0" transform=" rotate(0, 48, 131)" width="9" x="44.3327" y="126.9645"/>
  <polygon fill="#006ca1" points="57.6724,137.1992 62.1724,128.1992 66.6724,137.1992" stroke-width="0" transform=" rotate(0, 62, 132)"/>
  <ellipse cx="70.1943" cy="133.3694" fill="#006ca1" rx="4.5" ry="4.5" stroke-width="0" transform=" rotate(0, 70, 133)"/>
  <rect fill="#006ca1" height="9" stroke-width="0" transform=" rotate(0, 80, 133)" width="9" x="75.8862" y="128.987"/>
  <polygon fill="#006ca1" points="90.3468,131.3344 94.8468,122.3344 99.3468,131.3344" stroke-width="0" transform=" rotate(0, 94, 126)"/>
  <ellipse cx="100.6474" cy="127.4083" fill="#006ca1" rx="4.5" ry="4.5" stroke-width="0" transform=" rotate(0, 100, 127)"/>
  <rect fill="#006ca1" height="9" stroke-width="0" transform=" rotate(0, 112, 130)" width="9" x="108.2283" y="125.9548"/>
  <polygon fill="#006ca1" points="115.2651,136.1387 119.7651,127.1387 124.2651,136.1387" stroke-width="0" transform=" rotate(0, 119, 131)"/>
  <ellipse cx="130.8267" cy="130.1129" fill="#006ca1" rx="4.5" ry="4.5" stroke-width="0" transform=" rotate(0, 130, 130)"/>
  <rect fill="#006ca1" height="9" stroke-width="0" transform=" rotate(0, 138, 132)" width="9" x="134.0194" y="127.6764"/>
  <polygon fill="#006ca1" points="145.3987,135.6732 149.8987,126.6732 154.3987,135.6732" stroke-width="0" transform=" rotate(0, 149, 131)"/>
  <ellipse cx="157.0854" cy="131.2231" fill="#006ca1" rx="4.5" ry="4.5" stroke-width="0" transform=" rotate(0, 157, 131)"/>
  <rect fill="#006ca1" height="9" stroke-width="0" transform=" rotate(0, 169, 131)" width="9" x="164.5832" y="126.8755"/>
  <polygon fill="#006ca1" points="177.8829,133.7996 182.3829,124.7996 186.8829,133.7996" stroke-width="0" transform=" rotate(0, 182, 129)"/>
  <ellipse cx="192.75" cy="131.6651" fill="#006ca1" rx="4.5" ry="4.5" stroke-width="0" transform=" rotate(0, 192, 131)"/>
  <rect fill="#006ca1" height="9" stroke-width="0" transform=" rotate(0, 196, 134)" width="9" x="192.1239" y="130.3718"/>
  <polygon fill="#006ca1" points="203.6332,134.1332 208.1332,125.1332 212.6332,134.1332" stroke-width="0" transform=" rotate(0, 208, 129)"/>
  <ellipse cx="221.4902" cy="132.5908" fill="#006ca1" rx="4.5" ry="4.5" stroke-width="0" transform=" rotate(0, 221, 132)"/>
  <rect fill="#006ca1" height="9" stroke-width="0" transform=" rotate(0, 234, 133)" width="9" x="229.9478" y="129.139"/>
  <polygon fill="#006ca1" points="232.6062,133.4069 237.1062,124.4069 241.6062,133.4069" stroke-width="0" transform=" rotate(0, 237, 128)"/>
  <ellipse cx="253.8283" cy="126.132" fill="#006ca1" rx="4.5" ry="4.5" stroke-width="0" transform=" rotate(0, 253, 126)"/>
  <rect fill="#006ca1" height="9" stroke-width="0" transform=" rotate(0, 258, 130)" width="9" x="253.628" y="126.126"/>
  <polygon fill="#006ca1" points="266.5266,129.6274 271.0266,120.6274 275.5266,129.6274" stroke-width="0" transform=" rotate(0, 271, 125)"/>
  <ellipse cx="276.4494" cy="133.4704" fill="#006ca1" rx="4.5" ry="4.5" stroke-width="0" transform=" rotate(0, 276, 133)"/>
  <rect fill="#6dd6ff" height="5" stroke-width="0" transform=" rotate(0, 46, 143)" width="5" x="43.8002" y="141.0458"/>
  <polygon fill="#6dd6ff" points="58.0452,143.852 60.5452,138.852 63.0452,143.852" stroke-width="0" transform=" rotate(0, 60, 141)"/>
  <ellipse cx="73.1295" cy="140.0919" fill="#6dd6ff" rx="2.5" ry="2.5" stroke-width="0" transform=" rotate(0, 73, 140)"/>
  <rect fill="#6dd6ff" height="5" stroke-width="0" transform=" rotate(0, 80, 143)" width="5" x="78.0823" y="141.4622"/>
  <polygon fill="#6dd6ff" points="84.8316,139.0005 87.3316,134.0005 89.8316,139.0005" stroke-width="0" transform=" rotate(0, 87, 136)"/>
  <ellipse cx="98.2251" cy="142.946" fill="#6dd6ff" rx="2.5" ry="2.5" stroke-width="0" transform=" rotate(0, 98, 142)"/>
  <rect fill="#6dd6ff" height="5" stroke-width="0" transform=" rotate(0, 107, 143)" width="5" x="104.9379" y="141.1063"/>
  <polygon fill="#6dd6ff" points="116.5529,142.6299 119.0529,137.6299 121.5529,142.6299" stroke-width="0" transform=" rotate(0, 119, 140)"/>
  <ellipse cx="134.2021" cy="144.7995" fill="#6dd6ff" rx="2.5" ry="2.5" stroke-width="0" transform=" rotate(0, 134, 144)"/>
  <rect fill="#6dd6ff" height="5" stroke-width="0" transform=" rotate(0, 138, 143)" width="5" x="136.4644" y="141.2167"/>
  <polygon fill="#6dd6ff" points="148.6232,143.6909 151.1232,138.6909 153.6232,143.6909" stroke-width="0" transform=" rotate(0, 151, 141)"/>
  <ellipse cx="159.356" cy="139.0063" fill="#6dd6ff" rx="2.5" ry="2.5" stroke-width="0" transform=" rotate(0, 159, 139)"/>
  <rect fill="#6dd6ff" height="5" stroke-width="0" transform=" rotate(0, 168, 136)" width="5" x="165.5881" y="134.3901"/>
  <polygon fill="#6dd6ff" points="172.4874,138.5933 174.9874,133.5933 177.4874,138.5933" stroke-width="0" transform=" rotate(0, 174, 136)"/>
  <ellipse cx="189.0424" cy="143.2435" fill="#6dd6ff" rx="2.5" ry="2.5" stroke-width="0" transform=" rotate(0, 189, 143)"/>
  <rect fill="#6dd6ff" height="5" stroke-width="0" transform=" rotate(0, 202, 143)" width="5" x="200.4581" y="141.2605"/>
  <polygon fill="#6dd6ff" points="202.9946,137.5551 205.4946,132.5551 207.9946,137.5551" stroke-width="0" transform=" rotate(0, 205, 135)"/>
  <ellipse cx="224.2291" cy="144.2554" fill="#6dd6ff" rx="2.5" ry="2.5" stroke-width="0" transform=" rotate(0, 224, 144)"/>
  <rect fill="#6dd6ff" height="5" stroke-width="0" transform=" rotate(0, 229, 138)" width="5" x="227.0196" y="135.6447"/>
  <polygon fill="#6dd6ff" points="238.9174,142.7802 241.4174,137.7802 243.9174,142.7802" stroke-width="0" transform=" rotate(0, 241, 140)"/>
  <ellipse cx="250.6074" cy="136.3015" fill="#6dd6ff" rx="2.5" ry="2.5" stroke-width="0" transform=" rotate(0, 250, 136)"/>
  <rect fill="#6dd6ff" height="5" stroke-width="0" transform=" rotate(0, 259, 138)" width="5" x="256.8584" y="135.5312"/>
  <polygon fill="#6dd6ff" points="271.1616,147.0213 273.6616,142.0213 276.1616,147.0213" stroke-width="0" transform=" rotate(0, 273, 144)"/>
  <ellipse cx="275.4567" cy="141.9203" fill="#6dd6ff" rx="2.5" ry="2.5" stroke-width="0" transform=" rotate(0, 275, 141)"/>
  <rect fill="#1b9fd8" height="7" stroke-width="0" transform=" rotate(0, 54, 150)" width="7" x="51.2812" y="147.2381"/>
  <polygon fill="#1b9fd8" points="56.1017,151.3675 59.6017,144.3675 63.1017,151.3675" stroke-width="0" transform=" rotate(0, 59, 147)"/>
  <ellipse cx="68.8067" cy="149.1032" fill="#1b9fd8" rx="3.5" ry="3.5" stroke-width="0" transform=" rotate(0, 68, 149)"/>
  <rect fill="#1b9fd8" height="7" stroke-width="0" transform=" rotate(0, 77, 150)" width="7" x="73.9549" y="147.2636"/>
  <polygon fill="#1b9fd8" points="90.1563,156.5717 93.6563,149.5717 97.1563,156.5717" stroke-width="0" transform=" rotate(0, 93, 153)"/>
  <ellipse cx="97.1296" cy="150.6464" fill="#1b9fd8" rx="3.5" ry="3.5" stroke-width="0" transform=" rotate(0, 97, 150)"/>
  <rect fill="#1b9fd8" height="7" stroke-width="0" transform=" rotate(0, 110, 151)" width="7" x="107.1018" y="147.6563"/>
  <polygon fill="#1b9fd8" points="119.2281,152.025 122.7281,145.025 126.2281,152.025" stroke-width="0" transform=" rotate(0, 122, 148)"/>
  <ellipse cx="133.1767" cy="147.4164" fill="#1b9fd8" rx="3.5" ry="3.5" stroke-width="0" transform=" rotate(0, 133, 147)"/>
  <rect fill="#1b9fd8" height="7" stroke-width="0" transform=" rotate(0, 139, 146)" width="7" x="135.7428" y="143.3172"/>
  <polygon fill="#1b9fd8" points="148.5797,154.5847 152.0797,147.5847 155.5797,154.5847" stroke-width="0" transform=" rotate(0, 152, 151)"/>
  <ellipse cx="158.2934" cy="154.8035" fill="#1b9fd8" rx="3.5" ry="3.5" stroke-width="0" transform=" rotate(0, 158, 154)"/>
  <rect fill="#1b9fd8" height="7" stroke-width="0" transform=" rotate(0, 167, 154)" width="7" x="163.8102" y="150.9678"/>
  <polygon fill="#1b9fd8" points="174.8638,149.6909 178.3638,142.6909 181.8638,149.6909" stroke-width="0" transform=" rotate(0, 178, 146)"/>
  <ellipse cx="186.6267" cy="151.1493" fill="#1b9fd8" rx="3.5" ry="3.5" stroke-width="0" transform=" rotate(0, 186, 151)"/>
  <rect fill="#1b9fd8" height="7" stroke-width="0" transform=" rotate(0, 196, 150)" width="7" x="192.8346" y="146.7018"/>
  <polygon fill="#1b9fd8" points="205.4031,152.512 208.9031,145.512 212.4031,152.512" stroke-width="0" transform=" rotate(0, 208, 149)"/>
  <ellipse cx="224.1165" cy="153.0273" fill="#1b9fd8" rx="3.5" ry="3.5" stroke-width="0" transform=" rotate(0, 224, 153)"/>
  <rect fill="#1b9fd8" height="7" stroke-width="0" transform=" rotate(0, 226, 154)" width="7" x="223.2845" y="150.6045"/>
  <polygon fill="#1b9fd8" points="239.7026,154.9079 243.2026,147.9079 246.7026,154.9079" stroke-width="0" transform=" rotate(0, 243, 151)"/>
  <ellipse cx="249.6164" cy="150.3537" fill="#1b9fd8" rx="3.5" ry="3.5" stroke-width="0" transform=" rotate(0, 249, 150)"/>
  <rect fill="#1b9fd8" height="7" stroke-width="0" transform=" rotate(0, 257, 145)" width="7" x="253.8386" y="141.5395"/>
  <polygon fill="#1b9fd8" points="268.258,157.4443 271.758,150.4443 275.258,157.4443" stroke-width="0" transform=" rotate(0, 271, 153)"/>
  <ellipse cx="283.8136" cy="149.8703" fill="#1b9fd8" rx="3.5" ry="3.5" stroke-width="0" transform=" rotate(0, 283, 149)"/>
  <rect fill="#006ca1" height="9" stroke-width="0" transform=" rotate(0, 51, 157)" width="9" x="46.7984" y="153.0319"/>
  <polygon fill="#006ca1" points="54.047,166.0451 58.547,157.0451 63.047,166.0451" stroke-width="0" transform=" rotate(0, 58, 161)"/>
  <ellipse cx="65.5282" cy="160.4322" fill="#006ca1" rx="4.5" ry="4.5" stroke-width="0" transform=" rotate(0, 65, 160)"/>
  <rect fill="#006ca1" height="9" stroke-width="0" transform=" rotate(0, 80, 156)" width="9" x="75.9109" y="152.2463"/>
  <polygon fill="#006ca1" points="81.4542,160.9229 85.9542,151.9229 90.4542,160.9229" stroke-width="0" transform=" rotate(0, 85, 156)"/>
  <ellipse cx="100.9052" cy="163.6329" fill="#006ca1" rx="4.5" ry="4.5" stroke-width="0" transform=" rotate(0, 100, 163)"/>
  <rect fill="#006ca1" height="9" stroke-width="0" transform=" rotate(0, 112, 163)" width="9" x="107.786" y="159.1318"/>
  <polygon fill="#006ca1" points="114.5331,165.2373 119.0331,156.2373 123.5331,165.2373" stroke-width="0" transform=" rotate(0, 119, 160)"/>
  <ellipse cx="132.9559" cy="161.1102" fill="#006ca1" rx="4.5" ry="4.5" stroke-width="0" transform=" rotate(0, 132, 161)"/>
  <rect fill="#006ca1" height="9" stroke-width="0" transform=" rotate(0, 138, 163)" width="9" x="133.8423" y="158.6415"/>
  <polygon fill="#006ca1" points="140.8636,164.4023 145.3636,155.4023 149.8636,164.4023" stroke-width="0" transform=" rotate(0, 145, 159)"/>
  <ellipse cx="155.2777" cy="159.6123" fill="#006ca1" rx="4.5" ry="4.5" stroke-width="0" transform=" rotate(0, 155, 159)"/>
  <rect fill="#006ca1" height="9" stroke-width="0" transform=" rotate(0, 173, 157)" width="9" x="169.0898" y="152.87"/>
  <polygon fill="#006ca1" points="177.4404,160.9371 181.9404,151.9371 186.4404,160.9371" stroke-width="0" transform=" rotate(0, 181, 156)"/>
  <ellipse cx="185.2229" cy="163.8373" fill="#006ca1" rx="4.5" ry="4.5" stroke-width="0" transform=" rotate(0, 185, 163)"/>
  <rect fill="#006ca1" height="9" stroke-width="0" transform=" rotate(0, 201, 161)" width="9" x="196.7206" y="156.9814"/>
  <polygon fill="#006ca1" points="209.0613,166.0556 213.5613,157.0556 218.0613,166.0556" stroke-width="0" transform=" rotate(0, 213, 161)"/>
  <ellipse cx="217.2204" cy="164.5707" fill="#006ca1" rx="4.5" ry="4.5" stroke-width="0" transform=" rotate(0, 217, 164)"/>
  <rect fill="#006ca1" height="9" stroke-width="0" transform=" rotate(0, 228, 155)" width="9" x="223.8041" y="151.0507"/>
  <polygon fill="#006ca1" points="234.2055,165.7058 238.7055,156.7058 243.2055,165.7058" stroke-width="0" transform=" rotate(0, 238, 161)"/>
  <ellipse cx="245.9192" cy="158.2683" fill="#006ca1" rx="4.5" ry="4.5" stroke-width="0" transform=" rotate(0, 245, 158)"/>
  <rect fill="#006ca1" height="9" stroke-width="0" transform=" rotate(0, 264, 160)" width="9" x="260.2665" y="156.1674"/>
  <polygon fill="#006ca1" points="270.333,168.7984 274.833,159.7984 279.333,168.7984" stroke-width="0" transform=" rotate(0, 274, 164)"/>
  <ellipse cx="276.3543" cy="155.5844" fill="#006ca1" rx="4.5" ry="4.5" stroke-width="0" transform=" rotate(0, 276, 155)"/>
  <rect fill="#006ca1" height="9" stroke-width="0" transform=" rotate(0, 48, 172)" width="9" x="44.3006" y="168.4484"/>
  <polygon fill="#006ca1" points="60.1323,175.0407 64.6323,166.0407 69.1323,175.0407" stroke-width="0" transform=" rotate(0, 64, 170)"/>
  <ellipse cx="74.0334" cy="166.7155" fill="#006ca1" rx="4.5" ry="4.5" stroke-width="0" transform=" rotate(0, 74, 166)"/>
  <rect fill="#006ca1" height="9" stroke-width="0" transform=" rotate(0, 76, 168)" width="9" x="71.8383" y="164.2446"/>
  <polygon fill="#006ca1" points="85.1862,174.5694 89.6862,165.5694 94.1862,174.5694" stroke-width="0" transform=" rotate(0, 89, 170)"/>
  <ellipse cx="99.1668" cy="172.3788" fill="#006ca1" rx="4.5" ry="4.5" stroke-width="0" transform=" rotate(0, 99, 172)"/>
  <rect fill="#006ca1" height="9" stroke-width="0" transform=" rotate(0, 111, 165)" width="9" x="106.5944" y="161.2447"/>
  <polygon fill="#006ca1" points="115.3813,170.0272 119.8813,161.0272 124.3813,170.0272" stroke-width="0" transform=" rotate(0, 119, 165)"/>
  <ellipse cx="128.7458" cy="165.7482" fill="#006ca1" rx="4.5" ry="4.5" stroke-width="0" transform=" rotate(0, 128, 165)"/>
  <rect fill="#006ca1" height="9" stroke-width="0" transform=" rotate(0, 136, 168)" width="9" x="132.2894" y="164.1807"/>
  <polygon fill="#006ca1" points="147.7966,174.8666 152.2966,165.8666 156.7966,174.8666" stroke-width="0" transform=" rotate(0, 152, 170)"/>
  <ellipse cx="161.1113" cy="173.9811" fill="#006ca1" rx="4.5" ry="4.5" stroke-width="0" transform=" rotate(0, 161, 173)"/>
  <rect fill="#006ca1" height="9" stroke-width="0" transform=" rotate(0, 165, 173)" width="9" x="161.0096" y="169.235"/>
  <polygon fill="#006ca1" points="176.9852,173.4724 181.4852,164.4724 185.9852,173.4724" stroke-width="0" transform=" rotate(0, 181, 168)"/>
  <ellipse cx="194.1986" cy="173.0847" fill="#006ca1" rx="4.5" ry="4.5" stroke-width="0" transform=" rotate(0, 194, 173)"/>
  <rect fill="#006ca1" height="9" stroke-width="0" transform=" rotate(0, 200, 173)" width="9" x="195.7031" y="169.4881"/>
  <polygon fill="#006ca1" points="204.5653,174.1391 209.0653,165.1391 213.5653,174.1391" stroke-width="0" transform=" rotate(0, 209, 169)"/>
  <ellipse cx="222.4255" cy="166.3845" fill="#006ca1" rx="4.5" ry="4.5" stroke-width="0" transform=" rotate(0, 222, 166)"/>
  <rect fill="#006ca1" height="9" stroke-width="0" transform=" rotate(0, 231, 169)" width="9" x="227.4872" y="165.0751"/>
  <polygon fill="#006ca1" points="232.3457,173.4275 236.8457,164.4275 241.3457,173.4275" stroke-width="0" transform=" rotate(0, 236, 168)"/>
  <ellipse cx="251.3795" cy="169.1493" fill="#006ca1" rx="4.5" ry="4.5" stroke-width="0" transform=" rotate(0, 251, 169)"/>
  <rect fill="#006ca1" height="9" stroke-width="0" transform=" rotate(0, 263, 166)" width="9" x="258.5419" y="161.6093"/>
  <polygon fill="#006ca1" points="269.5286,174.1294 274.0286,165.1294 278.5286,174.1294" stroke-width="0" transform=" rotate(0, 274, 169)"/>
  <ellipse cx="277.7689" cy="170.8427" fill="#006ca1" rx="4.5" ry="4.5" stroke-width="0" transform=" rotate(0, 277, 170)"/>
  <rect fill="#1b9fd8" height="7" stroke-width="0" transform=" rotate(0, 48, 183)" width="7" x="45.0082" y="179.6154"/>
  <polygon fill="#1b9fd8" points="52.743,180.6699 56.243,173.6699 59.743,180.6699" stroke-width="0" transform=" rotate(0, 56, 177)"/>
  <ellipse cx="65.7298" cy="176.9497" fill="#1b9fd8" rx="3.5" ry="3.5" stroke-width="0" transform=" rotate(0, 65, 176)"/>
  <rect fill="#1b9fd8" height="7" stroke-width="0" transform=" rotate(0, 75, 182)" width="7" x="72.4917" y="179.0969"/>
  <polygon fill="#1b9fd8" points="90.7902,180.0793 94.2902,173.0793 97.7902,180.0793" stroke-width="0" transform=" rotate(0, 94, 176)"/>
  <ellipse cx="104.7371" cy="178.8085" fill="#1b9fd8" rx="3.5" ry="3.5" stroke-width="0" transform=" rotate(0, 104, 178)"/>
  <rect fill="#1b9fd8" height="7" stroke-width="0" transform=" rotate(0, 110, 180)" width="7" x="107.2657" y="177.2356"/>
  <polygon fill="#1b9fd8" points="116.3296,182.8278 119.8296,175.8278 123.3296,182.8278" stroke-width="0" transform=" rotate(0, 119, 179)"/>
  <ellipse cx="134.2621" cy="184.4961" fill="#1b9fd8" rx="3.5" ry="3.5" stroke-width="0" transform=" rotate(0, 134, 184)"/>
  <rect fill="#1b9fd8" height="7" stroke-width="0" transform=" rotate(0, 144, 176)" width="7" x="141.459" y="172.5498"/>
  <polygon fill="#1b9fd8" points="148.6936,179.2222 152.1936,172.2222 155.6936,179.2222" stroke-width="0" transform=" rotate(0, 152, 175)"/>
  <ellipse cx="159.7573" cy="184.1426" fill="#1b9fd8" rx="3.5" ry="3.5" stroke-width="0" transform=" rotate(0, 159, 184)"/>
  <rect fill="#1b9fd8" height="7" stroke-width="0" transform=" rotate(0, 172, 181)" width="7" x="169.3196" y="177.5348"/>
  <polygon fill="#1b9fd8" points="175.8604,186.4841 179.3604,179.4841 182.8604,186.4841" stroke-width="0" transform=" rotate(0, 179, 182)"/>
  <ellipse cx="189.0328" cy="175.1509" fill="#1b9fd8" rx="3.5" ry="3.5" stroke-width="0" transform=" rotate(0, 189, 175)"/>
  <rect fill="#1b9fd8" height="7" stroke-width="0" transform=" rotate(0, 200, 175)" width="7" x="197.2991" y="172.2592"/>
  <polygon fill="#1b9fd8" points="210.8533,186.6166 214.3533,179.6166 217.8533,186.6166" stroke-width="0" transform=" rotate(0, 214, 183)"/>
  <ellipse cx="219.6804" cy="176.9555" fill="#1b9fd8" rx="3.5" ry="3.5" stroke-width="0" transform=" rotate(0, 219, 176)"/>
  <rect fill="#1b9fd8" height="7" stroke-width="0" transform=" rotate(0, 230, 183)" width="7" x="227.1915" y="179.5982"/>
  <polygon fill="#1b9fd8" points="235.0195,178.9895 238.5195,171.9895 242.0195,178.9895" stroke-width="0" transform=" rotate(0, 238, 175)"/>
  <ellipse cx="246.2471" cy="181.9485" fill="#1b9fd8" rx="3.5" ry="3.5" stroke-width="0" transform=" rotate(0, 246, 181)"/>
  <rect fill="#1b9fd8" height="7" stroke-width="0" transform=" rotate(0, 262, 175)" width="7" x="259.4797" y="172.4098"/>
  <polygon fill="#1b9fd8" points="266.7891,178.9996 270.2891,171.9996 273.7891,178.9996" stroke-width="0" transform=" rotate(0, 270, 175)"/>
  <ellipse cx="275.9488" cy="181.0281" fill="#1b9fd8" rx="3.5" ry="3.5" stroke-width="0" transform=" rotate(0, 275, 181)"/>
  <rect fill="#6dd6ff" height="5" stroke-width="0" transform=" rotate(0, 49, 188)" width="5" x="47.1482" y="185.8541"/>
  <polygon fill="#6dd6ff" points="62.4187,196.1221 64.9187,191.1221 67.4187,196.1221" stroke-width="0" transform=" rotate(0, 64, 193)"/>
  <ellipse cx="66.8936" cy="193.6737" fill="#6dd6ff" rx="2.5" ry="2.5" stroke-width="0" transform=" rotate(0, 66, 193)"/>
  <rect fill="#6dd6ff" height="5" stroke-width="0" transform=" rotate(0, 83, 188)" width="5" x="81.2933" y="186.3927"/>
  <polygon fill="#6dd6ff" points="85.9257,196.4757 88.4257,191.4757 90.9257,196.4757" stroke-width="0" transform=" rotate(0, 88, 193)"/>
  <ellipse cx="95.9124" cy="190.6377" fill="#6dd6ff" rx="2.5" ry="2.5" stroke-width="0" transform=" rotate(0, 95, 190)"/>
  <rect fill="#6dd6ff" height="5" stroke-width="0" transform=" rotate(0, 108, 188)" width="5" x="105.7829" y="186.4764"/>
  <polygon fill="#6dd6ff" points="119.1789,188.0279 121.6789,183.0279 124.1789,188.0279" stroke-width="0" transform=" rotate(0, 121, 185)"/>
  <ellipse cx="133.4107" cy="194.3871" fill="#6dd6ff" rx="2.5" ry="2.5" stroke-width="0" transform=" rotate(0, 133, 194)"/>
  <rect fill="#6dd6ff" height="5" stroke-width="0" transform=" rotate(0, 136, 186)" width="5" x="134.4947" y="184.0976"/>
  <polygon fill="#6dd6ff" points="151.1438,189.7124 153.6438,184.7124 156.1438,189.7124" stroke-width="0" transform=" rotate(0, 153, 187)"/>
  <ellipse cx="158.1219" cy="192.3065" fill="#6dd6ff" rx="2.5" ry="2.5" stroke-width="0" transform=" rotate(0, 158, 192)"/>
  <rect fill="#6dd6ff" height="5" stroke-width="0" transform=" rotate(0, 166, 193)" width="5" x="163.618" y="191.1015"/>
  <polygon fill="#6dd6ff" points="181.6498,190.6758 184.1498,185.6758 186.6498,190.6758" stroke-width="0" transform=" rotate(0, 184, 188)"/>
  <ellipse cx="186.4191" cy="187.1183" fill="#6dd6ff" rx="2.5" ry="2.5" stroke-width="0" transform=" rotate(0, 186, 187)"/>
  <rect fill="#6dd6ff" height="5" stroke-width="0" transform=" rotate(0, 202, 190)" width="5" x="200.1085" y="188.2625"/>
  <polygon fill="#6dd6ff" points="204.1822,195.2205 206.6822,190.2205 209.1822,195.2205" stroke-width="0" transform=" rotate(0, 206, 192)"/>
  <ellipse cx="217.2928" cy="188.8533" fill="#6dd6ff" rx="2.5" ry="2.5" stroke-width="0" transform=" rotate(0, 217, 188)"/>
  <rect fill="#6dd6ff" height="5" stroke-width="0" transform=" rotate(0, 228, 185)" width="5" x="226.4557" y="182.5034"/>
  <polygon fill="#6dd6ff" points="239.0124,195.9294 241.5124,190.9294 244.0124,195.9294" stroke-width="0" transform=" rotate(0, 241, 193)"/>
  <ellipse cx="249.172" cy="186.0689" fill="#6dd6ff" rx="2.5" ry="2.5" stroke-width="0" transform=" rotate(0, 249, 186)"/>
  <rect fill="#6dd6ff" height="5" stroke-width="0" transform=" rotate(0, 262, 185)" width="5" x="259.503" y="182.6156"/>
  <polygon fill="#6dd6ff" points="268.1321,194.6309 270.6321,189.6309 273.1321,194.6309" stroke-width="0" transform=" rotate(0, 270, 192)"/>
  <ellipse cx="275.9869" cy="188.3485" fill="#6dd6ff" rx="2.5" ry="2.5" stroke-width="0" transform=" rotate(0, 275, 188)"/>
  <rect fill="#006ca1" height="9" stroke-width="0" transform=" rotate(0, 47, 196)" width="9" x="43.157" y="192.0926"/>
  <polygon fill="#006ca1" points="50.9583,202.8558 55.4583,193.8558 59.9583,202.8558" stroke-width="0" transform=" rotate(0, 55, 198)"/>
  <ellipse cx="72.8864" cy="195.7332" fill="#006ca1" rx="4.5" ry="4.5" stroke-width="0" transform=" rotate(0, 72, 195)"/>
  <rect fill="#006ca1" height="9" stroke-width="0" transform=" rotate(0, 79, 204)" width="9" x="75.2296" y="200.1087"/>
  <polygon fill="#006ca1" points="86.0972,205.6428 90.5972,196.6428 95.0972,205.6428" stroke-width="0" transform=" rotate(0, 90, 201)"/>
  <ellipse cx="103.6303" cy="194.9191" fill="#006ca1" rx="4.5" ry="4.5" stroke-width="0" transform=" rotate(0, 103, 194)"/>
  <rect fill="#006ca1" height="9" stroke-width="0" transform=" rotate(0, 105, 199)" width="9" x="100.5695" y="195.2921"/>
  <polygon fill="#006ca1" points="113.8902,208.8104 118.3902,199.8104 122.8902,208.8104" stroke-width="0" transform=" rotate(0, 118, 204)"/>
  <ellipse cx="125.3408" cy="195.8182" fill="#006ca1" rx="4.5" ry="4.5" stroke-width="0" transform=" rotate(0, 125, 195)"/>
  <rect fill="#006ca1" height="9" stroke-width="0" transform=" rotate(0, 136, 197)" width="9" x="132.1494" y="193.3648"/>
  <polygon fill="#006ca1" points="145.8161,201.3098 150.3161,192.3098 154.8161,201.3098" stroke-width="0" transform=" rotate(0, 150, 196)"/>
  <ellipse cx="159.554" cy="203.7702" fill="#006ca1" rx="4.5" ry="4.5" stroke-width="0" transform=" rotate(0, 159, 203)"/>
  <rect fill="#006ca1" height="9" stroke-width="0" transform=" rotate(0, 165, 204)" width="9" x="160.7998" y="199.8865"/>
  <polygon fill="#006ca1" points="179.6181,202.7048 184.1181,193.7048 188.6181,202.7048" stroke-width="0" transform=" rotate(0, 184, 198)"/>
  <ellipse cx="194.721" cy="202.5755" fill="#006ca1" rx="4.5" ry="4.5" stroke-width="0" transform=" rotate(0, 194, 202)"/>
  <rect fill="#006ca1" height="9" stroke-width="0" transform=" rotate(0, 195, 194)" width="9" x="190.7679" y="190.4214"/>
  <polygon fill="#006ca1" points="209.6734,202.0702 214.1734,193.0702 218.6734,202.0702" stroke-width="0" transform=" rotate(0, 214, 197)"/>
  <ellipse cx="221.2192" cy="198.9648" fill="#006ca1" rx="4.5" ry="4.5" stroke-width="0" transform=" rotate(0, 221, 198)"/>
  <rect fill="#006ca1" height="9" stroke-width="0" transform=" rotate(0, 230, 196)" width="9" x="225.721" y="192.4859"/>
  <polygon fill="#006ca1" points="230.6643,205.3518 235.1643,196.3518 239.6643,205.3518" stroke-width="0" transform=" rotate(0, 235, 200)"/>
  <ellipse cx="248.7936" cy="196.0639" fill="#006ca1" rx="4.5" ry="4.5" stroke-width="0" transform=" rotate(0, 248, 196)"/>
  <rect fill="#006ca1" height="9" stroke-width="0" transform=" rotate(0, 256, 201)" width="9" x="251.5092" y="196.7351"/>
  <polygon fill="#006ca1" points="267.174,207.0455 271.674,198.0455 276.174,207.0455" stroke-width="0" transform=" rotate(0, 271, 202)"/>
  <ellipse cx="281.2809" cy="198.5098" fill="#006ca1" rx="4.5" ry="4.5" stroke-width="0" transform=" rotate(0, 281, 198)"/>
  <rect fill="#1b9fd8" height="7" stroke-width="0" transform=" rotate(0, 45, 206)" width="7" x="42.0649" y="203.0673"/>
  <polygon fill="#1b9fd8" points="54.4286,213.7139 57.9286,206.7139 61.4286,213.7139" stroke-width="0" transform=" rotate(0, 57, 210)"/>
  <ellipse cx="66.8835" cy="207.6228" fill="#1b9fd8" rx="3.5" ry="3.5" stroke-width="0" transform=" rotate(0, 66, 207)"/>
  <rect fill="#1b9fd8" height="7" stroke-width="0" transform=" rotate(0, 79, 209)" width="7" x="75.728" y="205.6232"/>
  <polygon fill="#1b9fd8" points="88.4477,216.9746 91.9477,209.9746 95.4477,216.9746" stroke-width="0" transform=" rotate(0, 91, 213)"/>
  <ellipse cx="103.3209" cy="209.5763" fill="#1b9fd8" rx="3.5" ry="3.5" stroke-width="0" transform=" rotate(0, 103, 209)"/>
  <rect fill="#1b9fd8" height="7" stroke-width="0" transform=" rotate(0, 113, 208)" width="7" x="109.9625" y="205.4937"/>
  <polygon fill="#1b9fd8" points="114.0488,209.617 117.5488,202.617 121.0488,209.617" stroke-width="0" transform=" rotate(0, 117, 206)"/>
  <ellipse cx="130.7312" cy="213.7486" fill="#1b9fd8" rx="3.5" ry="3.5" stroke-width="0" transform=" rotate(0, 130, 213)"/>
  <rect fill="#1b9fd8" height="7" stroke-width="0" transform=" rotate(0, 139, 211)" width="7" x="135.75" y="208.2359"/>
  <polygon fill="#1b9fd8" points="146.7704,216.4748 150.2704,209.4748 153.7704,216.4748" stroke-width="0" transform=" rotate(0, 150, 212)"/>
  <ellipse cx="161.4268" cy="206.2971" fill="#1b9fd8" rx="3.5" ry="3.5" stroke-width="0" transform=" rotate(0, 161, 206)"/>
  <rect fill="#1b9fd8" height="7" stroke-width="0" transform=" rotate(0, 166, 212)" width="7" x="163.0491" y="209.2848"/>
  <polygon fill="#1b9fd8" points="180.977,209.8829 184.477,202.8829 187.977,209.8829" stroke-width="0" transform=" rotate(0, 184, 206)"/>
  <ellipse cx="192.9945" cy="214.696" fill="#1b9fd8" rx="3.5" ry="3.5" stroke-width="0" transform=" rotate(0, 192, 214)"/>
  <rect fill="#1b9fd8" height="7" stroke-width="0" transform=" rotate(0, 197, 209)" width="7" x="194.1487" y="205.7472"/>
  <polygon fill="#1b9fd8" points="204.9596,212.282 208.4596,205.282 211.9596,212.282" stroke-width="0" transform=" rotate(0, 208, 208)"/>
  <ellipse cx="221.798" cy="212.1547" fill="#1b9fd8" rx="3.5" ry="3.5" stroke-width="0" transform=" rotate(0, 221, 212)"/>
  <rect fill="#1b9fd8" height="7" stroke-width="0" transform=" rotate(0, 234, 211)" width="7" x="231.4523" y="208.0366"/>
  <polygon fill="#1b9fd8" points="233.0742,209.1019 236.5742,202.1019 240.0742,209.1019" stroke-width="0" transform=" rotate(0, 236, 205)"/>
  <ellipse cx="254.7429" cy="206.9798" fill="#1b9fd8" rx="3.5" ry="3.5" stroke-width="0" transform=" rotate(0, 254, 206)"/>
  <rect fill="#1b9fd8" height="7" stroke-width="0" transform=" rotate(0, 263, 211)" width="7" x="260.3041" y="208.2361"/>
  <polygon fill="#1b9fd8" points="262.4824,214.5792 265.9824,207.5792 269.4824,214.5792" stroke-width="0" transform=" rotate(0, 265, 211)"/>
  <ellipse cx="280.1167" cy="209.3519" fill="#1b9fd8" rx="3.5" ry="3.5" stroke-width="0" transform=" rotate(0, 280, 209)"/>
  <rect fill="#6dd6ff" height="5" stroke-width="0" transform=" rotate(0, 51, 221)" width="5" x="48.8972" y="219.0494"/>
  <polygon fill="#6dd6ff" points="61.7599,219.2355 64.2599,214.2355 66.7599,219.2355" stroke-width="0" transform=" rotate(0, 64, 216)"/>
  <ellipse cx="72.6345" cy="219.2166" fill="#6dd6ff" rx="2.5" ry="2.5" stroke-width="0" transform=" rotate(0, 72, 219)"/>
  <rect fill="#6dd6ff" height="5" stroke-width="0" transform=" rotate(0, 80, 222)" width="5" x="77.6998" y="219.741"/>
  <polygon fill="#6dd6ff" points="84.931,222.3247 87.431,217.3247 89.931,222.3247" stroke-width="0" transform=" rotate(0, 87, 219)"/>
  <ellipse cx="101.4411" cy="217.0044" fill="#6dd6ff" rx="2.5" ry="2.5" stroke-width="0" transform=" rotate(0, 101, 217)"/>
  <rect fill="#6dd6ff" height="5" stroke-width="0" transform=" rotate(0, 106, 223)" width="5" x="104.237" y="221.3732"/>
  <polygon fill="#6dd6ff" points="115.6505,219.3661 118.1505,214.3661 120.6505,219.3661" stroke-width="0" transform=" rotate(0, 118, 216)"/>
  <ellipse cx="128.9712" cy="224.4292" fill="#6dd6ff" rx="2.5" ry="2.5" stroke-width="0" transform=" rotate(0, 128, 224)"/>
  <rect fill="#6dd6ff" height="5" stroke-width="0" transform=" rotate(0, 139, 216)" width="5" x="137.3212" y="214.4396"/>
  <polygon fill="#6dd6ff" points="145.0564,219.1753 147.5564,214.1753 150.0564,219.1753" stroke-width="0" transform=" rotate(0, 147, 216)"/>
  <ellipse cx="159.4699" cy="220.0659" fill="#6dd6ff" rx="2.5" ry="2.5" stroke-width="0" transform=" rotate(0, 159, 220)"/>
  <rect fill="#6dd6ff" height="5" stroke-width="0" transform=" rotate(0, 172, 217)" width="5" x="170.1592" y="214.9194"/>
  <polygon fill="#6dd6ff" points="174.9386,225.9309 177.4386,220.9309 179.9386,225.9309" stroke-width="0" transform=" rotate(0, 177, 223)"/>
  <ellipse cx="193.3533" cy="221.0838" fill="#6dd6ff" rx="2.5" ry="2.5" stroke-width="0" transform=" rotate(0, 193, 221)"/>
  <rect fill="#6dd6ff" height="5" stroke-width="0" transform=" rotate(0, 204, 223)" width="5" x="202.1337" y="220.7508"/>
  <polygon fill="#6dd6ff" points="209.9419,220.9836 212.4419,215.9836 214.9419,220.9836" stroke-width="0" transform=" rotate(0, 212, 218)"/>
  <ellipse cx="217.6605" cy="217.2023" fill="#6dd6ff" rx="2.5" ry="2.5" stroke-width="0" transform=" rotate(0, 217, 217)"/>
  <rect fill="#6dd6ff" height="5" stroke-width="0" transform=" rotate(0, 229, 215)" width="5" x="227.3431" y="212.6209"/>
  <polygon fill="#6dd6ff" points="239.6748,225.2338 242.1748,220.2338 244.6748,225.2338" stroke-width="0" transform=" rotate(0, 242, 222)"/>
  <ellipse cx="246.5081" cy="218.0571" fill="#6dd6ff" rx="2.5" ry="2.5" stroke-width="0" transform=" rotate(0, 246, 218)"/>
  <rect fill="#6dd6ff" height="5" stroke-width="0" transform=" rotate(0, 263, 215)" width="5" x="260.6838" y="212.7458"/>
  <polygon fill="#6dd6ff" points="264.3784,222.3205 266.8784,217.3205 269.3784,222.3205" stroke-width="0" transform=" rotate(0, 266, 219)"/>
  <ellipse cx="275.8142" cy="221.9546" fill="#6dd6ff" rx="2.5" ry="2.5" stroke-width="0" transform=" rotate(0, 275, 221)"/>
  <rect fill="#006ca1" height="9" stroke-width="0" transform=" rotate(0, 54, 225)" width="9" x="49.8675" y="221.4804"/>
  <polygon fill="#006ca1" points="57.1105,230.8421 61.6105,221.8421 66.1105,230.8421" stroke-width="0" transform=" rotate(0, 61, 226)"/>
  <ellipse cx="68.9044" cy="232.5553" fill="#006ca1" rx="4.5" ry="4.5" stroke-width="0" transform=" rotate(0, 68, 232)"/>
  <rect fill="#006ca1" height="9" stroke-width="0" transform=" rotate(0, 84, 234)" width="9" x="79.5349" y="229.9481"/>
  <polygon fill="#006ca1" points="88.5923,237.6575 93.0923,228.6575 97.5923,237.6575" stroke-width="0" transform=" rotate(0, 93, 233)"/>
  <ellipse cx="104.6549" cy="229.7961" fill="#006ca1" rx="4.5" ry="4.5" stroke-width="0" transform=" rotate(0, 104, 229)"/>
  <rect fill="#006ca1" height="9" stroke-width="0" transform=" rotate(0, 110, 225)" width="9" x="106.4195" y="220.5045"/>
  <polygon fill="#006ca1" points="118.1872,236.0526 122.6872,227.0526 127.1872,236.0526" stroke-width="0" transform=" rotate(0, 122, 231)"/>
  <ellipse cx="132.304" cy="227.4679" fill="#006ca1" rx="4.5" ry="4.5" stroke-width="0" transform=" rotate(0, 132, 227)"/>
  <rect fill="#006ca1" height="9" stroke-width="0" transform=" rotate(0, 135, 234)" width="9" x="131.2588" y="229.5106"/>
  <polygon fill="#006ca1" points="145.4836,231.2403 149.9836,222.2403 154.4836,231.2403" stroke-width="0" transform=" rotate(0, 149, 226)"/>
  <ellipse cx="162.4937" cy="231.1062" fill="#006ca1" rx="4.5" ry="4.5" stroke-width="0" transform=" rotate(0, 162, 231)"/>
  <rect fill="#006ca1" height="9" stroke-width="0" transform=" rotate(0, 165, 229)" width="9" x="161.3705" y="224.7743"/>
  <polygon fill="#006ca1" points="179.6665,236.0303 184.1665,227.0303 188.6665,236.0303" stroke-width="0" transform=" rotate(0, 184, 231)"/>
  <ellipse cx="189.1725" cy="234.0318" fill="#006ca1" rx="4.5" ry="4.5" stroke-width="0" transform=" rotate(0, 189, 234)"/>
  <rect fill="#006ca1" height="9" stroke-width="0" transform=" rotate(0, 202, 234)" width="9" x="197.8633" y="229.5895"/>
  <polygon fill="#006ca1" points="203.1956,235.1768 207.6956,226.1768 212.1956,235.1768" stroke-width="0" transform=" rotate(0, 207, 230)"/>
  <ellipse cx="221.117" cy="227.4092" fill="#006ca1" rx="4.5" ry="4.5" stroke-width="0" transform=" rotate(0, 221, 227)"/>
  <rect fill="#006ca1" height="9" stroke-width="0" transform=" rotate(0, 234, 226)" width="9" x="230.0143" y="222.2965"/>
  <polygon fill="#006ca1" points="235.4674,231.4198 239.9674,222.4198 244.4674,231.4198" stroke-width="0" transform=" rotate(0, 239, 226)"/>
  <ellipse cx="252.9628" cy="229.4316" fill="#006ca1" rx="4.5" ry="4.5" stroke-width="0" transform=" rotate(0, 252, 229)"/>
  <rect fill="#006ca1" height="9" stroke-width="0" transform=" rotate(0, 255, 227)" width="9" x="251.3226" y="223.2702"/>
  <polygon fill="#006ca1" points="269.7662,238.8501 274.2662,229.8501 278.7662,238.8501" stroke-width="0" transform=" rotate(0, 274, 234)"/>
  <ellipse cx="278.3197" cy="230.6282" fill="#006ca1" rx="4.5" ry="4.5" stroke-width="0" transform=" rotate(0, 278, 230)"/>
  <rect fill="#1b9fd8" height="7" stroke-width="0" transform=" rotate(0, 47, 235)" width="7" x="43.9044" y="231.7854"/>
  <polygon fill="#1b9fd8" points="52.1069,240.1349 55.6069,233.1349 59.1069,240.1349" stroke-width="0" transform=" rotate(0, 55, 236)"/>
  <ellipse cx="67.358" cy="240.0687" fill="#1b9fd8" rx="3.5" ry="3.5" stroke-width="0" transform=" rotate(0, 67, 240)"/>
  <rect fill="#1b9fd8" height="7" stroke-width="0" transform=" rotate(0, 76, 235)" width="7" x="72.7787" y="232.3773"/>
  <polygon fill="#1b9fd8" points="82.418,244.1378 85.918,237.1378 89.418,244.1378" stroke-width="0" transform=" rotate(0, 85, 240)"/>
  <ellipse cx="95.418" cy="237.3382" fill="#1b9fd8" rx="3.5" ry="3.5" stroke-width="0" transform=" rotate(0, 95, 237)"/>
  <rect fill="#1b9fd8" height="7" stroke-width="0" transform=" rotate(0, 105, 241)" width="7" x="101.5449" y="237.5424"/>
  <polygon fill="#1b9fd8" points="116.6015,243.791 120.1015,236.791 123.6015,243.791" stroke-width="0" transform=" rotate(0, 120, 240)"/>
  <ellipse cx="133.1593" cy="240.9228" fill="#1b9fd8" rx="3.5" ry="3.5" stroke-width="0" transform=" rotate(0, 133, 240)"/>
  <rect fill="#1b9fd8" height="7" stroke-width="0" transform=" rotate(0, 143, 236)" width="7" x="140.0332" y="232.612"/>
  <polygon fill="#1b9fd8" points="144.3969,239.2421 147.8969,232.2421 151.3969,239.2421" stroke-width="0" transform=" rotate(0, 147, 235)"/>
  <ellipse cx="162.8642" cy="242.1271" fill="#1b9fd8" rx="3.5" ry="3.5" stroke-width="0" transform=" rotate(0, 162, 242)"/>
  <rect fill="#1b9fd8" height="7" stroke-width="0" transform=" rotate(0, 170, 237)" width="7" x="167.3571" y="234.2038"/>
  <polygon fill="#1b9fd8" points="172.5277,240.2813 176.0277,233.2813 179.5277,240.2813" stroke-width="0" transform=" rotate(0, 176, 236)"/>
  <ellipse cx="187.836" cy="237.8303" fill="#1b9fd8" rx="3.5" ry="3.5" stroke-width="0" transform=" rotate(0, 187, 237)"/>
  <rect fill="#1b9fd8" height="7" stroke-width="0" transform=" rotate(0, 202, 235)" width="7" x="199.1111" y="232.4973"/>
  <polygon fill="#1b9fd8" points="202.8189,246.6223 206.3189,239.6223 209.8189,246.6223" stroke-width="0" transform=" rotate(0, 206, 243)"/>
  <ellipse cx="220.8814" cy="235.5397" fill="#1b9fd8" rx="3.5" ry="3.5" stroke-width="0" transform=" rotate(0, 220, 235)"/>
  <rect fill="#1b9fd8" height="7" stroke-width="0" transform=" rotate(0, 226, 242)" width="7" x="222.7124" y="239.3824"/>
  <polygon fill="#1b9fd8" points="234.6671,247.3892 238.1671,240.3892 241.6671,247.3892" stroke-width="0" transform=" rotate(0, 238, 243)"/>
  <ellipse cx="250.0196" cy="238.4109" fill="#1b9fd8" rx="3.5" ry="3.5" stroke-width="0" transform=" rotate(0, 250, 238)"/>
  <rect fill="#1b9fd8" height="7" stroke-width="0" transform=" rotate(0, 255, 235)" width="7" x="252.355" y="232.4411"/>
  <polygon fill="#1b9fd8" points="271.2959,238.803 274.7959,231.803 278.2959,238.803" stroke-width="0" transform=" rotate(0, 274, 235)"/>
  <ellipse cx="281.5564" cy="241.858" fill="#1b9fd8" rx="3.5" ry="3.5" stroke-width="0" transform=" rotate(0, 281, 241)"/>
  <rect fill="#6dd6ff" height="5" stroke-width="0" transform=" rotate(0, 46, 250)" width="5" x="44.2914" y="247.9972"/>
  <polygon fill="#6dd6ff" points="53.3712,249.3027 55.8712,244.3027 58.3712,249.3027" stroke-width="0" transform=" rotate(0, 55, 246)"/>
  <ellipse cx="70.4905" cy="254.3836" fill="#6dd6ff" rx="2.5" ry="2.5" stroke-width="0" transform=" rotate(0, 70, 254)"/>
  <rect fill="#6dd6ff" height="5" stroke-width="0" transform=" rotate(0, 79, 254)" width="5" x="77.0944" y="251.7597"/>
  <polygon fill="#6dd6ff" points="85.8067,253.2834 88.3067,248.2834 90.8067,253.2834" stroke-width="0" transform=" rotate(0, 88, 250)"/>
  <ellipse cx="101.59" cy="247.7801" fill="#6dd6ff" rx="2.5" ry="2.5" stroke-width="0" transform=" rotate(0, 101, 247)"/>
  <rect fill="#6dd6ff" height="5" stroke-width="0" transform=" rotate(0, 114, 251)" width="5" x="111.5801" y="248.9698"/>
  <polygon fill="#6dd6ff" points="116.4159,256.5863 118.9159,251.5863 121.4159,256.5863" stroke-width="0" transform=" rotate(0, 118, 254)"/>
  <ellipse cx="126.9118" cy="253.1889" fill="#6dd6ff" rx="2.5" ry="2.5" stroke-width="0" transform=" rotate(0, 126, 253)"/>
  <rect fill="#6dd6ff" height="5" stroke-width="0" transform=" rotate(0, 141, 253)" width="5" x="139.1776" y="251.4819"/>
  <polygon fill="#6dd6ff" points="144.8562,255.3398 147.3562,250.3398 149.8562,255.3398" stroke-width="0" transform=" rotate(0, 147, 252)"/>
  <ellipse cx="157.7152" cy="251.183" fill="#6dd6ff" rx="2.5" ry="2.5" stroke-width="0" transform=" rotate(0, 157, 251)"/>
  <rect fill="#6dd6ff" height="5" stroke-width="0" transform=" rotate(0, 171, 254)" width="5" x="168.7385" y="252.3093"/>
  <polygon fill="#6dd6ff" points="182.0446,247.7581 184.5446,242.7581 187.0446,247.7581" stroke-width="0" transform=" rotate(0, 184, 245)"/>
  <ellipse cx="184.9757" cy="248.074" fill="#6dd6ff" rx="2.5" ry="2.5" stroke-width="0" transform=" rotate(0, 184, 248)"/>
  <rect fill="#6dd6ff" height="5" stroke-width="0" transform=" rotate(0, 202, 249)" width="5" x="200.0596" y="246.5615"/>
  <polygon fill="#6dd6ff" points="212.0822,251.3992 214.5822,246.3992 217.0822,251.3992" stroke-width="0" transform=" rotate(0, 214, 248)"/>
  <ellipse cx="221.1826" cy="249.6077" fill="#6dd6ff" rx="2.5" ry="2.5" stroke-width="0" transform=" rotate(0, 221, 249)"/>
  <rect fill="#6dd6ff" height="5" stroke-width="0" transform=" rotate(0, 233, 250)" width="5" x="230.5134" y="248.308"/>
  <polygon fill="#6dd6ff" points="237.1345,252.7124 239.6345,247.7124 242.1345,252.7124" stroke-width="0" transform=" rotate(0, 239, 250)"/>
  <ellipse cx="253.5077" cy="252.3378" fill="#6dd6ff" rx="2.5" ry="2.5" stroke-width="0" transform=" rotate(0, 253, 252)"/>
  <rect fill="#6dd6ff" height="5" stroke-width="0" transform=" rotate(0, 261, 245)" width="5" x="259.4738" y="243.0637"/>
  <polygon fill="#6dd6ff" points="269.3385,251.5209 271.8385,246.5209 274.3385,251.5209" stroke-width="0" transform=" rotate(0, 271, 249)"/>
  <ellipse cx="275.2649" cy="252.5035" fill="#6dd6ff" rx="2.5" ry="2.5" stroke-width="0" transform=" rotate(0, 275, 252)"/>
  <rect fill="#006ca1" height="9" stroke-width="0" transform=" rotate(0, 53, 263)" width="9" x="49.1779" y="259.2669"/>
  <polygon fill="#006ca1" points="52.8019,262.1054 57.3019,253.1054 61.8019,262.1054" stroke-width="0" transform=" rotate(0, 57, 257)"/>
  <ellipse cx="74.8985" cy="260.5137" fill="#006ca1" rx="4.5" ry="4.5" stroke-width="0" transform=" rotate(0, 74, 260)"/>
  <rect fill="#006ca1" height="9" stroke-width="0" transform=" rotate(0, 76, 257)" width="9" x="71.9734" y="252.9616"/>
  <polygon fill="#006ca1" points="87.9464,260.2561 92.4464,251.2561 96.9464,260.2561" stroke-width="0" transform=" rotate(0, 92, 255)"/>
  <ellipse cx="96.1399" cy="262.3597" fill="#006ca1" rx="4.5" ry="4.5" stroke-width="0" transform=" rotate(0, 96, 262)"/>
  <rect fill="#006ca1" height="9" stroke-width="0" transform=" rotate(0, 109, 255)" width="9" x="105.335" y="251.2568"/>
  <polygon fill="#006ca1" points="113.2654,262.8849 117.7654,253.8849 122.2654,262.8849" stroke-width="0" transform=" rotate(0, 117, 258)"/>
  <ellipse cx="132.4707" cy="256.4083" fill="#006ca1" rx="4.5" ry="4.5" stroke-width="0" transform=" rotate(0, 132, 256)"/>
  <rect fill="#006ca1" height="9" stroke-width="0" transform=" rotate(0, 136, 256)" width="9" x="132.4135" y="251.9417"/>
  <polygon fill="#006ca1" points="140.7602,261.8198 145.2602,252.8198 149.7602,261.8198" stroke-width="0" transform=" rotate(0, 145, 257)"/>
  <ellipse cx="163.2491" cy="264.4417" fill="#006ca1" rx="4.5" ry="4.5" stroke-width="0" transform=" rotate(0, 163, 264)"/>
  <rect fill="#006ca1" height="9" stroke-width="0" transform=" rotate(0, 170, 257)" width="9" x="165.7422" y="252.5189"/>
  <polygon fill="#006ca1" points="179.0822,263.5507 183.5822,254.5507 188.0822,263.5507" stroke-width="0" transform=" rotate(0, 183, 259)"/>
  <ellipse cx="186.6364" cy="261.5743" fill="#006ca1" rx="4.5" ry="4.5" stroke-width="0" transform=" rotate(0, 186, 261)"/>
  <rect fill="#006ca1" height="9" stroke-width="0" transform=" rotate(0, 200, 264)" width="9" x="195.7691" y="259.6123"/>
  <polygon fill="#006ca1" points="209.9965,262.9525 214.4965,253.9525 218.9965,262.9525" stroke-width="0" transform=" rotate(0, 214, 258)"/>
  <ellipse cx="219.6203" cy="258.943" fill="#006ca1" rx="4.5" ry="4.5" stroke-width="0" transform=" rotate(0, 219, 258)"/>
  <rect fill="#006ca1" height="9" stroke-width="0" transform=" rotate(0, 228, 259)" width="9" x="224.2649" y="255.3559"/>
  <polygon fill="#006ca1" points="233.1402,265.8125 237.6402,256.8125 242.1402,265.8125" stroke-width="0" transform=" rotate(0, 237, 261)"/>
  <ellipse cx="248.3109" cy="256.7072" fill="#006ca1" rx="4.5" ry="4.5" stroke-width="0" transform=" rotate(0, 248, 256)"/>
  <rect fill="#006ca1" height="9" stroke-width="0" transform=" rotate(0, 261, 257)" width="9" x="257.3653" y="253.1409"/>
  <polygon fill="#006ca1" points="261.2801,263.3444 265.7801,254.3444 270.2801,263.3444" stroke-width="0" transform=" rotate(0, 265, 258)"/>
  <ellipse cx="278.1723" cy="259.5428" fill="#006ca1" rx="4.5" ry="4.5" stroke-width="0" transform=" rotate(0, 278, 259)"/>
  <rect fill="#1b9fd8" height="7" stroke-width="0" transform=" rotate(0, 48, 268)" width="7" x="45.3747" y="265.3814"/>
  <polygon fill="#1b9fd8" points="58.4276,277.9589 61.9276,270.9589 65.4276,277.9589" stroke-width="0" transform=" rotate(0, 61, 274)"/>
  <ellipse cx="69.8195" cy="265.0449" fill="#1b9fd8" rx="3.5" ry="3.5" stroke-width="0" transform=" rotate(0, 69, 265)"/>
  <rect fill="#1b9fd8" height="7" stroke-width="0" transform=" rotate(0, 82, 267)" width="7" x="78.7524" y="264.1354"/>
  <polygon fill="#1b9fd8" points="89.4393,275.6901 92.9393,268.6901 96.4393,275.6901" stroke-width="0" transform=" rotate(0, 92, 272)"/>
  <ellipse cx="95.6049" cy="272.6485" fill="#1b9fd8" rx="3.5" ry="3.5" stroke-width="0" transform=" rotate(0, 95, 272)"/>
  <rect fill="#1b9fd8" height="7" stroke-width="0" transform=" rotate(0, 106, 268)" width="7" x="103.2708" y="264.8149"/>
  <polygon fill="#1b9fd8" points="115.2993,268.4278 118.7993,261.4278 122.2993,268.4278" stroke-width="0" transform=" rotate(0, 118, 264)"/>
  <ellipse cx="132.6514" cy="273.5179" fill="#1b9fd8" rx="3.5" ry="3.5" stroke-width="0" transform=" rotate(0, 132, 273)"/>
  <rect fill="#1b9fd8" height="7" stroke-width="0" transform=" rotate(0, 144, 274)" width="7" x="141.4081" y="270.6777"/>
  <polygon fill="#1b9fd8" points="151.3592,270.292 154.8592,263.292 158.3592,270.292" stroke-width="0" transform=" rotate(0, 154, 266)"/>
  <ellipse cx="162.6264" cy="268.2535" fill="#1b9fd8" rx="3.5" ry="3.5" stroke-width="0" transform=" rotate(0, 162, 268)"/>
  <rect fill="#1b9fd8" height="7" stroke-width="0" transform=" rotate(0, 166, 272)" width="7" x="163.3387" y="269.3811"/>
  <polygon fill="#1b9fd8" points="181.3452,277.6852 184.8452,270.6852 188.3452,277.6852" stroke-width="0" transform=" rotate(0, 184, 274)"/>
  <ellipse cx="185.3064" cy="265.3641" fill="#1b9fd8" rx="3.5" ry="3.5" stroke-width="0" transform=" rotate(0, 185, 265)"/>
  <rect fill="#1b9fd8" height="7" stroke-width="0" transform=" rotate(0, 202, 274)" width="7" x="199.0954" y="270.739"/>
  <polygon fill="#1b9fd8" points="202.4208,273.8743 205.9208,266.8743 209.4208,273.8743" stroke-width="0" transform=" rotate(0, 205, 270)"/>
  <ellipse cx="218.676" cy="272.7885" fill="#1b9fd8" rx="3.5" ry="3.5" stroke-width="0" transform=" rotate(0, 218, 272)"/>
  <rect fill="#1b9fd8" height="7" stroke-width="0" transform=" rotate(0, 225, 268)" width="7" x="222.1922" y="264.9544"/>
  <polygon fill="#1b9fd8" points="238.1652,275.8758 241.6652,268.8758 245.1652,275.8758" stroke-width="0" transform=" rotate(0, 241, 272)"/>
  <ellipse cx="245.0538" cy="271.5708" fill="#1b9fd8" rx="3.5" ry="3.5" stroke-width="0" transform=" rotate(0, 245, 271)"/>
  <rect fill="#1b9fd8" height="7" stroke-width="0" transform=" rotate(0, 260, 270)" width="7" x="257.4487" y="267.1474"/>
  <polygon fill="#1b9fd8" points="262.9744,275.7191 266.4744,268.7191 269.9744,275.7191" stroke-width="0" transform=" rotate(0, 266, 272)"/>
  <ellipse cx="283.6663" cy="268.1224" fill="#1b9fd8" rx="3.5" ry="3.5" stroke-width="0" transform=" rotate(0, 283, 268)"/>
  <rect fill="#6dd6ff" height="5" stroke-width="0" transform=" rotate(0, 45, 281)" width="5" x="42.5609" y="278.5915"/>
  <polygon fill="#6dd6ff" points="61.4055,278.0337 63.9055,273.0337 66.4055,278.0337" stroke-width="0" transform=" rotate(0, 63, 275)"/>
  <ellipse cx="68.5993" cy="279.0167" fill="#6dd6ff" rx="2.5" ry="2.5" stroke-width="0" transform=" rotate(0, 68, 279)"/>
  <rect fill="#6dd6ff" height="5" stroke-width="0" transform=" rotate(0, 76, 283)" width="5" x="74.426" y="280.7557"/>
  <polygon fill="#6dd6ff" points="88.5304,282.9001 91.0304,277.9001 93.5304,282.9001" stroke-width="0" transform=" rotate(0, 91, 280)"/>
  <ellipse cx="99.7343" cy="278.0905" fill="#6dd6ff" rx="2.5" ry="2.5" stroke-width="0" transform=" rotate(0, 99, 278)"/>
  <rect fill="#6dd6ff" height="5" stroke-width="0" transform=" rotate(0, 112, 281)" width="5" x="110.2518" y="278.8732"/>
  <polygon fill="#6dd6ff" points="114.4669,283.9032 116.9669,278.9032 119.4669,283.9032" stroke-width="0" transform=" rotate(0, 116, 281)"/>
  <ellipse cx="125.116" cy="275.0866" fill="#6dd6ff" rx="2.5" ry="2.5" stroke-width="0" transform=" rotate(0, 125, 275)"/>
  <rect fill="#6dd6ff" height="5" stroke-width="0" transform=" rotate(0, 139, 282)" width="5" x="137.4077" y="279.9309"/>
  <polygon fill="#6dd6ff" points="146.6219,279.4094 149.1219,274.4094 151.6219,279.4094" stroke-width="0" transform=" rotate(0, 149, 276)"/>
  <ellipse cx="161.1658" cy="283.6183" fill="#6dd6ff" rx="2.5" ry="2.5" stroke-width="0" transform=" rotate(0, 161, 283)"/>
  <rect fill="#6dd6ff" height="5" stroke-width="0" transform=" rotate(0, 165, 280)" width="5" x="163.1847" y="278.2503"/>
  <polygon fill="#6dd6ff" points="175.9358,286.9186 178.4358,281.9186 180.9358,286.9186" stroke-width="0" transform=" rotate(0, 178, 284)"/>
  <ellipse cx="188.8914" cy="283.8431" fill="#6dd6ff" rx="2.5" ry="2.5" stroke-width="0" transform=" rotate(0, 188, 283)"/>
  <rect fill="#6dd6ff" height="5" stroke-width="0" transform=" rotate(0, 202, 277)" width="5" x="199.6375" y="275.452"/>
  <polygon fill="#6dd6ff" points="207.6359,287.2087 210.1359,282.2087 212.6359,287.2087" stroke-width="0" transform=" rotate(0, 210, 284)"/>
  <ellipse cx="218.721" cy="277.0889" fill="#6dd6ff" rx="2.5" ry="2.5" stroke-width="0" transform=" rotate(0, 218, 277)"/>
  <rect fill="#6dd6ff" height="5" stroke-width="0" transform=" rotate(0, 232, 275)" width="5" x="229.8397" y="273.0798"/>
  <polygon fill="#6dd6ff" points="234.9755,286.5083 237.4755,281.5083 239.9755,286.5083" stroke-width="0" transform=" rotate(0, 237, 284)"/>
  <ellipse cx="245.2425" cy="283.7445" fill="#6dd6ff" rx="2.5" ry="2.5" stroke-width="0" transform=" rotate(0, 245, 283)"/>
  <rect fill="#6dd6ff" height="5" stroke-width="0" transform=" rotate(0, 259, 274)" width="5" x="257.2577" y="272.425"/>
  <polygon fill="#6dd6ff" points="272.1657,284.1826 274.6657,279.1826 277.1657,284.1826" stroke-width="0" transform=" rotate(0, 274, 281)"/>
  <ellipse cx="281.6263" cy="280.2486" fill="#6dd6ff" rx="2.5" ry="2.5" stroke-width="0" transform=" rotate(0, 281, 280)"/>
</svg>
