<?xml version="1.0" encoding="utf-8" ?>
<svg baseProfile="tiny" height="330" version="1.2" width="330" xmlns="http://www.w3.org/2000/svg" xmlns:ev="http://www.w3.org/2001/xml-events" xmlns:xlink="http://www.w3.org/1999/xlink">
  <defs/>
  <rect fill="white" height="330" width="330" x="0" y="0"/>
  <rect fill="#6dd6ff" height="20" stroke-width="0" transform=" rotate(0, 53, 65)" width="20" x="43.3014" y="55.0518"/>
  <polygon fill="#6dd6ff" points="92.917,87.2734 102.917,67.2734 112.917,87.2734" stroke-width="0" transform=" rotate(0, 102, 77)"/>
  <ellipse cx="150.4336" cy="69.6032" fill="#6dd6ff" rx="10.0" ry="10.0" stroke-width="0" transform=" rotate(0, 150, 69)"/>
  <rect fill="#6dd6ff" height="20" stroke-width="0" transform=" rotate(0, 172, 68)" width="20" x="162.3158" y="58.6175"/>
  <polygon fill="#6dd6ff" points="225.3898,77.4867 235.3898,57.4867 245.3898,77.4867" stroke-width="0" transform=" rotate(0, 235, 67)"/>
  <ellipse cx="270.4242" cy="68.4173" fill="#6dd6ff" rx="10.0" ry="10.0" stroke-width="0" transform=" rotate(0, 270, 68)"/>
  <rect fill="#1b9fd8" height="28" stroke-width="0" transform=" rotate(0, 64, 109)" width="28" x="50.8437" y="95.3439"/>
  <polygon fill="#1b9fd8" points="78.5363,132.4921 92.5363,104.4921 106.5363,132.4921" stroke-width="0" transform=" rotate(0, 92, 118)"/>
  <ellipse cx="153.9396" cy="100.5694" fill="#1b9fd8" rx="14.0" ry="14.0" stroke-width="0" transform=" rotate(0, 153, 100)"/>
  <rect fill="#1b9fd8" height="28" stroke-width="0" transform=" rotate(0, 181, 117)" width="28" x="167.185" y="103.3483"/>
  <polygon fill="#1b9fd8" points="201.7496,115.5523 215.7496,87.5523 229.7496,115.5523" stroke-width="0" transform=" rotate(0, 215, 101)"/>
  <ellipse cx="267.1502" cy="98.4809" fill="#1b9fd8" rx="14.0" ry="14.0" stroke-width="0" transform=" rotate(0, 267, 98)"/>
  <rect fill="#006ca1" height="36" stroke-width="0" transform=" rotate(0, 77, 133)" width="36" x="59.2802" y="115.0706"/>
  <polygon fill="#006ca1" points="76.871,175.4472 94.871,139.4472 112.871,175.4472" stroke-width="0" transform=" rotate(0, 94, 157)"/>
  <ellipse cx="146.293" cy="134.8634" fill="#006ca1" rx="18.0" ry="18.0" stroke-width="0" transform=" rotate(0, 146, 134)"/>
  <rect fill="#006ca1" height="36" stroke-width="0" transform=" rotate(0, 189, 141)" width="36" x="171.7618" y="123.8616"/>
  <polygon fill="#006ca1" points="196.5308,174.4205 214.5308,138.4205 232.5308,174.4205" stroke-width="0" transform=" rotate(0, 214, 156)"/>
  <ellipse cx="264.9121" cy="151.8902" fill="#006ca1" rx="18.0" ry="18.0" stroke-width="0" transform=" rotate(0, 264, 151)"/>
  <rect fill="#006ca1" height="36" stroke-width="0" transform=" rotate(0, 69, 178)" width="36" x="51.3654" y="160.342"/>
  <polygon fill="#006ca1" points="85.5211,199.1284 103.5211,163.1284 121.5211,199.1284" stroke-width="0" transform=" rotate(0, 103, 181)"/>
  <ellipse cx="134.8945" cy="183.3517" fill="#006ca1" rx="18.0" ry="18.0" stroke-width="0" transform=" rotate(0, 134, 183)"/>
  <rect fill="#006ca1" height="36" stroke-width="0" transform=" rotate(0, 188, 179)" width="36" x="170.8677" y="161.705"/>
  <polygon fill="#006ca1" points="204.67,200.2733 222.67,164.2733 240.67,200.2733" stroke-width="0" transform=" rotate(0, 222, 182)"/>
  <ellipse cx="275.3896" cy="178.4176" fill="#006ca1" rx="18.0" ry="18.0" stroke-width="0" transform=" rotate(0, 275, 178)"/>
  <rect fill="#1b9fd8" height="28" stroke-width="0" transform=" rotate(0, 63, 213)" width="28" x="49.2804" y="199.3409"/>
  <polygon fill="#1b9fd8" points="92.6123,249.5897 106.6123,221.5897 120.6123,249.5897" stroke-width="0" transform=" rotate(0, 106, 235)"/>
  <ellipse cx="149.9481" cy="211.8463" fill="#1b9fd8" rx="14.0" ry="14.0" stroke-width="0" transform=" rotate(0, 149, 211)"/>
  <rect fill="#1b9fd8" height="28" stroke-width="0" transform=" rotate(0, 177, 229)" width="28" x="163.9274" y="215.5228"/>
  <polygon fill="#1b9fd8" points="215.1981,227.7542 229.1981,199.7542 243.1981,227.7542" stroke-width="0" transform=" rotate(0, 229, 213)"/>
  <ellipse cx="277.4084" cy="223.2478" fill="#1b9fd8" rx="14.0" ry="14.0" stroke-width="0" transform=" rotate(0, 277, 223)"/>
  <rect fill="#6dd6ff" height="20" stroke-width="0" transform=" rotate(0, 51, 253)" width="20" x="41.7665" y="243.3725"/>
  <polygon fill="#6dd6ff" points="91.197,283.4122 101.197,263.4122 111.197,283.4122" stroke-width="0" transform=" rotate(0, 101, 273)"/>
  <ellipse cx="149.5016" cy="266.7641" fill="#6dd6ff" rx="10.0" ry="10.0" stroke-width="0" transform=" rotate(0, 149, 266)"/>
  <rect fill="#6dd6ff" height="20" stroke-width="0" transform=" rotate(0, 183, 260)" width="20" x="173.3109" y="250.8166"/>
  <polygon fill="#6dd6ff" points="227.3193,285.6199 237.3193,265.6199 247.3193,285.6199" stroke-width="0" transform=" rotate(0, 237, 275)"/>
  <ellipse cx="269.9865" cy="261.705" fill="#6dd6ff" rx="10.0" ry="10.0" stroke-width="0" transform=" rotate(0, 269, 261)"/>
</svg>
