<svg baseProfile="tiny" height="330" version="1.2" width="330" xmlns="http://www.w3.org/2000/svg" xmlns:ev="http://www.w3.org/2001/xml-events" xmlns:xlink="http://www.w3.org/1999/xlink"><defs/><rect fill="white" height="330" width="330" x="0" y="0"/><rect fill="#6dd6ff" height="36" stroke-width="0" transform=" rotate(0, 55, 65)" width="36" x="37.9754" y="47.0399"/><polygon fill="#6dd6ff" points="85.3931,92.468 103.3931,56.468 121.3931,92.468" stroke-width="0" transform=" rotate(0, 103, 74)"/><ellipse cx="149.1917" cy="68.551" fill="#6dd6ff" rx="18.0" ry="18.0" stroke-width="0" transform=" rotate(0, 149, 68)"/><rect fill="#6dd6ff" height="36" stroke-width="0" transform=" rotate(0, 175, 67)" width="36" x="157.2151" y="49.7906"/><polygon fill="#6dd6ff" points="215.015,84.9183 233.015,48.9183 251.015,84.9183" stroke-width="0" transform=" rotate(0, 233, 66)"/><ellipse cx="269.1844" cy="67.6362" fill="#6dd6ff" rx="18.0" ry="18.0" stroke-width="0" transform=" rotate(0, 269, 67)"/><rect fill="#1b9fd8" height="36" stroke-width="0" transform=" rotate(0, 64, 108)" width="36" x="46.8795" y="90.351"/><polygon fill="#1b9fd8" points="77.3851,133.4082 95.3851,97.4082 113.3851,133.4082" stroke-width="0" transform=" rotate(0, 95, 115)"/><ellipse cx="151.8963" cy="101.5821" fill="#1b9fd8" rx="18.0" ry="18.0" stroke-width="0" transform=" rotate(0, 151, 101)"/><rect fill="#1b9fd8" height="36" stroke-width="0" transform=" rotate(0, 182, 114)" width="36" x="164.057" y="96.5258"/><polygon fill="#1b9fd8" points="199.864,120.3403 217.864,84.3403 235.864,120.3403" stroke-width="0" transform=" rotate(0, 217, 102)"/><ellipse cx="266.6587" cy="99.971" fill="#1b9fd8" rx="18.0" ry="18.0" stroke-width="0" transform=" rotate(0, 266, 99)"/><rect fill="#006ca1" height="36" stroke-width="0" transform=" rotate(0, 74, 135)" width="36" x="56.4733" y="117.7974"/><polygon fill="#006ca1" points="79.1862,172.6021 97.1862,136.6021 115.1862,172.6021" stroke-width="0" transform=" rotate(0, 97, 154)"/><ellipse cx="145.9974" cy="137.1803" fill="#006ca1" rx="18.0" ry="18.0" stroke-width="0" transform=" rotate(0, 145, 137)"/><rect fill="#006ca1" height="36" stroke-width="0" transform=" rotate(0, 188, 142)" width="36" x="170.6734" y="124.5789"/><polygon fill="#006ca1" points="198.9237,171.8101 216.9237,135.8101 234.9237,171.8101" stroke-width="0" transform=" rotate(0, 216, 153)"/><ellipse cx="264.9322" cy="150.3153" fill="#006ca1" rx="18.0" ry="18.0" stroke-width="0" transform=" rotate(0, 264, 150)"/><rect fill="#006ca1" height="36" stroke-width="0" transform=" rotate(0, 68, 179)" width="36" x="50.3676" y="161.8638"/><polygon fill="#006ca1" points="85.8591,200.0133 103.8591,164.0133 121.8591,200.0133" stroke-width="0" transform=" rotate(0, 103, 182)"/><ellipse cx="137.2043" cy="183.7285" fill="#006ca1" rx="18.0" ry="18.0" stroke-width="0" transform=" rotate(0, 137, 183)"/><rect fill="#006ca1" height="36" stroke-width="0" transform=" rotate(0, 187, 180)" width="36" x="169.9837" y="162.9153"/><polygon fill="#006ca1" points="205.2026,200.8966 223.2026,164.8966 241.2026,200.8966" stroke-width="0" transform=" rotate(0, 223, 182)"/><ellipse cx="273.0148" cy="179.9221" fill="#006ca1" rx="18.0" ry="18.0" stroke-width="0" transform=" rotate(0, 273, 179)"/><rect fill="#1b9fd8" height="36" stroke-width="0" transform=" rotate(0, 63, 216)" width="36" x="45.6734" y="198.0058"/><polygon fill="#1b9fd8" points="88.2438,251.1692 106.2438,215.1692 124.2438,251.1692" stroke-width="0" transform=" rotate(0, 106, 233)"/><ellipse cx="148.8171" cy="214.8529" fill="#1b9fd8" rx="18.0" ry="18.0" stroke-width="0" transform=" rotate(0, 148, 214)"/><rect fill="#1b9fd8" height="36" stroke-width="0" transform=" rotate(0, 179, 228)" width="36" x="161.544" y="210.489"/><polygon fill="#1b9fd8" points="210.2385,234.3246 228.2385,198.3246 246.2385,234.3246" stroke-width="0" transform=" rotate(0, 228, 216)"/><ellipse cx="274.5722" cy="223.6483" fill="#1b9fd8" rx="18.0" ry="18.0" stroke-width="0" transform=" rotate(0, 274, 223)"/><rect fill="#6dd6ff" height="36" stroke-width="0" transform=" rotate(0, 54, 256)" width="36" x="36.7913" y="238.0302"/><polygon fill="#6dd6ff" points="84.0663,289.4894 102.0663,253.4894 120.0663,289.4894" stroke-width="0" transform=" rotate(0, 102, 271)"/><ellipse cx="148.4726" cy="266.3608" fill="#6dd6ff" rx="18.0" ry="18.0" stroke-width="0" transform=" rotate(0, 148, 266)"/><rect fill="#6dd6ff" height="36" stroke-width="0" transform=" rotate(0, 183, 261)" width="36" x="165.697" y="243.7728"/><polygon fill="#6dd6ff" points="216.5034,291.1925 234.5034,255.1925 252.5034,291.1925" stroke-width="0" transform=" rotate(0, 234, 273)"/><ellipse cx="268.8467" cy="262.4582" fill="#6dd6ff" rx="18.0" ry="18.0" stroke-width="0" transform=" rotate(0, 268, 262)"/></svg>