<svg baseProfile="tiny" height="330" version="1.2" width="330" xmlns="http://www.w3.org/2000/svg" xmlns:ev="http://www.w3.org/2001/xml-events" xmlns:xlink="http://www.w3.org/1999/xlink"><defs/><rect fill="white" height="330" width="330" x="0" y="0"/><rect fill="#6dd6ff" height="36" stroke-width="0" transform=" rotate(0, 65, 65)" width="36" x="47.0" y="47.0"/><polygon fill="#6dd6ff" points="87.0,83.0 105.0,47.0 123.0,83.0" stroke-width="0" transform=" rotate(0, 105, 65)"/><ellipse cx="145.0" cy="65.0" fill="#6dd6ff" rx="18.0" ry="18.0" stroke-width="0" transform=" rotate(0, 145, 65)"/><rect fill="#6dd6ff" height="36" stroke-width="0" transform=" rotate(0, 185, 65)" width="36" x="167.0" y="47.0"/><polygon fill="#6dd6ff" points="207.0,83.0 225.0,47.0 243.0,83.0" stroke-width="0" transform=" rotate(0, 225, 65)"/><ellipse cx="265.0" cy="65.0" fill="#6dd6ff" rx="18.0" ry="18.0" stroke-width="0" transform=" rotate(0, 265, 65)"/><rect fill="#1b9fd8" height="36" stroke-width="0" transform=" rotate(0, 65, 105)" width="36" x="47.0" y="87.0"/><polygon fill="#1b9fd8" points="87.0,123.0 105.0,87.0 123.0,123.0" stroke-width="0" transform=" rotate(0, 105, 105)"/><ellipse cx="145.0" cy="105.0" fill="#1b9fd8" rx="18.0" ry="18.0" stroke-width="0" transform=" rotate(0, 145, 105)"/><rect fill="#1b9fd8" height="36" stroke-width="0" transform=" rotate(0, 185, 105)" width="36" x="167.0" y="87.0"/><polygon fill="#1b9fd8" points="207.0,123.0 225.0,87.0 243.0,123.0" stroke-width="0" transform=" rotate(0, 225, 105)"/><ellipse cx="265.0" cy="105.0" fill="#1b9fd8" rx="18.0" ry="18.0" stroke-width="0" transform=" rotate(0, 265, 105)"/><rect fill="#006ca1" height="36" stroke-width="0" transform=" rotate(0, 65, 145)" width="36" x="47.0" y="127.0"/><polygon fill="#006ca1" points="87.0,163.0 105.0,127.0 123.0,163.0" stroke-width="0" transform=" rotate(0, 105, 145)"/><ellipse cx="145.0" cy="145.0" fill="#006ca1" rx="18.0" ry="18.0" stroke-width="0" transform=" rotate(0, 145, 145)"/><rect fill="#006ca1" height="36" stroke-width="0" transform=" rotate(0, 185, 145)" width="36" x="167.0" y="127.0"/><polygon fill="#006ca1" points="207.0,163.0 225.0,127.0 243.0,163.0" stroke-width="0" transform=" rotate(0, 225, 145)"/><ellipse cx="265.0" cy="145.0" fill="#006ca1" rx="18.0" ry="18.0" stroke-width="0" transform=" rotate(0, 265, 145)"/><rect fill="#006ca1" height="36" stroke-width="0" transform=" rotate(0, 65, 185)" width="36" x="47.0" y="167.0"/><polygon fill="#006ca1" points="87.0,203.0 105.0,167.0 123.0,203.0" stroke-width="0" transform=" rotate(0, 105, 185)"/><ellipse cx="145.0" cy="185.0" fill="#006ca1" rx="18.0" ry="18.0" stroke-width="0" transform=" rotate(0, 145, 185)"/><rect fill="#006ca1" height="36" stroke-width="0" transform=" rotate(0, 185, 185)" width="36" x="167.0" y="167.0"/><polygon fill="#006ca1" points="207.0,203.0 225.0,167.0 243.0,203.0" stroke-width="0" transform=" rotate(0, 225, 185)"/><ellipse cx="265.0" cy="185.0" fill="#006ca1" rx="18.0" ry="18.0" stroke-width="0" transform=" rotate(0, 265, 185)"/><rect fill="#1b9fd8" height="36" stroke-width="0" transform=" rotate(0, 65, 225)" width="36" x="47.0" y="207.0"/><polygon fill="#1b9fd8" points="87.0,243.0 105.0,207.0 123.0,243.0" stroke-width="0" transform=" rotate(0, 105, 225)"/><ellipse cx="145.0" cy="225.0" fill="#1b9fd8" rx="18.0" ry="18.0" stroke-width="0" transform=" rotate(0, 145, 225)"/><rect fill="#1b9fd8" height="36" stroke-width="0" transform=" rotate(0, 185, 225)" width="36" x="167.0" y="207.0"/><polygon fill="#1b9fd8" points="207.0,243.0 225.0,207.0 243.0,243.0" stroke-width="0" transform=" rotate(0, 225, 225)"/><ellipse cx="265.0" cy="225.0" fill="#1b9fd8" rx="18.0" ry="18.0" stroke-width="0" transform=" rotate(0, 265, 225)"/><rect fill="#6dd6ff" height="36" stroke-width="0" transform=" rotate(0, 65, 265)" width="36" x="47.0" y="247.0"/><polygon fill="#6dd6ff" points="87.0,283.0 105.0,247.0 123.0,283.0" stroke-width="0" transform=" rotate(0, 105, 265)"/><ellipse cx="145.0" cy="265.0" fill="#6dd6ff" rx="18.0" ry="18.0" stroke-width="0" transform=" rotate(0, 145, 265)"/><rect fill="#6dd6ff" height="36" stroke-width="0" transform=" rotate(0, 185, 265)" width="36" x="167.0" y="247.0"/><polygon fill="#6dd6ff" points="207.0,283.0 225.0,247.0 243.0,283.0" stroke-width="0" transform=" rotate(0, 225, 265)"/><ellipse cx="265.0" cy="265.0" fill="#6dd6ff" rx="18.0" ry="18.0" stroke-width="0" transform=" rotate(0, 265, 265)"/></svg>