<svg baseProfile="tiny" height="330" version="1.2" width="330" xmlns="http://www.w3.org/2000/svg" xmlns:ev="http://www.w3.org/2001/xml-events" xmlns:xlink="http://www.w3.org/1999/xlink"><defs/><rect fill="white" height="330" width="330" x="0" y="0"/><rect fill="#6dd6ff" height="36" stroke-width="0" transform=" rotate(0, 54, 65)" width="36" x="36.9727" y="47.0444"/><polygon fill="#6dd6ff" points="85.2146,93.52 103.2146,57.52 121.2146,93.52" stroke-width="0" transform=" rotate(0, 103, 75)"/><ellipse cx="149.6574" cy="68.9456" fill="#6dd6ff" rx="18.0" ry="18.0" stroke-width="0" transform=" rotate(0, 149, 68)"/><rect fill="#6dd6ff" height="36" stroke-width="0" transform=" rotate(0, 174, 68)" width="36" x="156.1278" y="50.1007"/><polygon fill="#6dd6ff" points="215.9056,85.1315 233.9056,49.1315 251.9056,85.1315" stroke-width="0" transform=" rotate(0, 233, 67)"/><ellipse cx="269.6493" cy="67.9291" fill="#6dd6ff" rx="18.0" ry="18.0" stroke-width="0" transform=" rotate(0, 269, 67)"/><rect fill="#1b9fd8" height="36" stroke-width="0" transform=" rotate(0, 64, 108)" width="36" x="46.8661" y="90.7233"/><polygon fill="#1b9fd8" points="76.3168,134.5647 94.3168,98.5647 112.3168,134.5647" stroke-width="0" transform=" rotate(0, 94, 116)"/><ellipse cx="152.6625" cy="101.2023" fill="#1b9fd8" rx="18.0" ry="18.0" stroke-width="0" transform=" rotate(0, 152, 101)"/><rect fill="#1b9fd8" height="36" stroke-width="0" transform=" rotate(0, 181, 115)" width="36" x="163.73" y="97.5843"/><polygon fill="#1b9fd8" points="199.0711,120.0448 217.0711,84.0448 235.0711,120.0448" stroke-width="0" transform=" rotate(0, 217, 102)"/><ellipse cx="266.843" cy="99.4122" fill="#1b9fd8" rx="18.0" ry="18.0" stroke-width="0" transform=" rotate(0, 266, 99)"/><rect fill="#006ca1" height="36" stroke-width="0" transform=" rotate(0, 75, 134)" width="36" x="57.5259" y="116.7748"/><polygon fill="#006ca1" points="78.318,173.669 96.318,137.669 114.318,173.669" stroke-width="0" transform=" rotate(0, 96, 155)"/><ellipse cx="146.1082" cy="136.3114" fill="#006ca1" rx="18.0" ry="18.0" stroke-width="0" transform=" rotate(0, 146, 136)"/><rect fill="#006ca1" height="36" stroke-width="0" transform=" rotate(0, 189, 142)" width="36" x="171.0815" y="124.3099"/><polygon fill="#006ca1" points="198.0264,172.789 216.0264,136.789 234.0264,172.789" stroke-width="0" transform=" rotate(0, 216, 154)"/><ellipse cx="264.9246" cy="150.9059" fill="#006ca1" rx="18.0" ry="18.0" stroke-width="0" transform=" rotate(0, 264, 150)"/><rect fill="#006ca1" height="36" stroke-width="0" transform=" rotate(0, 68, 179)" width="36" x="50.7418" y="161.2931"/><polygon fill="#006ca1" points="85.7324,199.6815 103.7324,163.6815 121.7324,199.6815" stroke-width="0" transform=" rotate(0, 103, 181)"/><ellipse cx="136.3382" cy="183.5872" fill="#006ca1" rx="18.0" ry="18.0" stroke-width="0" transform=" rotate(0, 136, 183)"/><rect fill="#006ca1" height="36" stroke-width="0" transform=" rotate(0, 188, 180)" width="36" x="170.3152" y="162.4614"/><polygon fill="#006ca1" points="205.0029,200.6628 223.0029,164.6628 241.0029,200.6628" stroke-width="0" transform=" rotate(0, 223, 182)"/><ellipse cx="273.9053" cy="179.3579" fill="#006ca1" rx="18.0" ry="18.0" stroke-width="0" transform=" rotate(0, 273, 179)"/><rect fill="#1b9fd8" height="36" stroke-width="0" transform=" rotate(0, 63, 215)" width="36" x="45.5261" y="197.0065"/><polygon fill="#1b9fd8" points="88.382,252.0769 106.382,216.0769 124.382,252.0769" stroke-width="0" transform=" rotate(0, 106, 234)"/><ellipse cx="149.2412" cy="213.7254" fill="#1b9fd8" rx="18.0" ry="18.0" stroke-width="0" transform=" rotate(0, 149, 213)"/><rect fill="#1b9fd8" height="36" stroke-width="0" transform=" rotate(0, 178, 228)" width="36" x="160.9378" y="210.8767"/><polygon fill="#1b9fd8" points="210.5984,233.3607 228.5984,197.3607 246.5984,233.3607" stroke-width="0" transform=" rotate(0, 228, 215)"/><ellipse cx="275.6358" cy="223.4981" fill="#1b9fd8" rx="18.0" ry="18.0" stroke-width="0" transform=" rotate(0, 275, 223)"/><rect fill="#6dd6ff" height="36" stroke-width="0" transform=" rotate(0, 53, 255)" width="36" x="35.657" y="237.0335"/><polygon fill="#6dd6ff" points="83.7403,290.2104 101.7403,254.2104 119.7403,290.2104" stroke-width="0" transform=" rotate(0, 101, 272)"/><ellipse cx="148.8585" cy="266.512" fill="#6dd6ff" rx="18.0" ry="18.0" stroke-width="0" transform=" rotate(0, 148, 266)"/><rect fill="#6dd6ff" height="36" stroke-width="0" transform=" rotate(0, 183, 261)" width="36" x="165.5522" y="243.4142"/><polygon fill="#6dd6ff" points="217.5594,292.1028 235.5594,256.1028 253.5594,292.1028" stroke-width="0" transform=" rotate(0, 235, 274)"/><ellipse cx="269.2742" cy="262.1757" fill="#6dd6ff" rx="18.0" ry="18.0" stroke-width="0" transform=" rotate(0, 269, 262)"/></svg>