<svg baseProfile="tiny" height="330" version="1.2" width="330" xmlns="http://www.w3.org/2000/svg" xmlns:ev="http://www.w3.org/2001/xml-events" xmlns:xlink="http://www.w3.org/1999/xlink"><defs/><rect fill="white" height="330" width="330" x="0" y="0"/><rect fill="#6dd6ff" height="28" stroke-width="0" transform=" rotate(0, 57, 65)" width="28" x="43.9809" y="51.0311"/><polygon fill="#6dd6ff" points="89.7502,86.364 103.7502,58.364 117.7502,86.364" stroke-width="0" transform=" rotate(0, 103, 72)"/><ellipse cx="148.2602" cy="67.7619" fill="#6dd6ff" rx="14.0" ry="14.0" stroke-width="0" transform=" rotate(0, 148, 67)"/><rect fill="#6dd6ff" height="28" stroke-width="0" transform=" rotate(0, 177, 67)" width="28" x="163.3895" y="53.1705"/><polygon fill="#6dd6ff" points="217.2339,80.492 231.2339,52.492 245.2339,80.492" stroke-width="0" transform=" rotate(0, 231, 66)"/><ellipse cx="268.2545" cy="67.0504" fill="#6dd6ff" rx="14.0" ry="14.0" stroke-width="0" transform=" rotate(0, 268, 67)"/><rect fill="#1b9fd8" height="28" stroke-width="0" transform=" rotate(0, 64, 107)" width="28" x="50.9062" y="93.6063"/><polygon fill="#1b9fd8" points="83.5218,127.0953 97.5218,99.0953 111.5218,127.0953" stroke-width="0" transform=" rotate(0, 97, 113)"/><ellipse cx="150.3638" cy="102.3416" fill="#1b9fd8" rx="14.0" ry="14.0" stroke-width="0" transform=" rotate(0, 150, 102)"/><rect fill="#1b9fd8" height="28" stroke-width="0" transform=" rotate(0, 182, 112)" width="28" x="168.711" y="98.409"/><polygon fill="#1b9fd8" points="205.4498,116.9314 219.4498,88.9314 233.4498,116.9314" stroke-width="0" transform=" rotate(0, 219, 102)"/><ellipse cx="266.2901" cy="101.0886" fill="#1b9fd8" rx="14.0" ry="14.0" stroke-width="0" transform=" rotate(0, 266, 101)"/><rect fill="#006ca1" height="28" stroke-width="0" transform=" rotate(0, 72, 137)" width="28" x="58.3681" y="123.8424"/><polygon fill="#006ca1" points="84.9226,166.4683 98.9226,138.4683 112.9226,166.4683" stroke-width="0" transform=" rotate(0, 98, 152)"/><ellipse cx="145.7758" cy="138.918" fill="#006ca1" rx="14.0" ry="14.0" stroke-width="0" transform=" rotate(0, 145, 138)"/><rect fill="#006ca1" height="28" stroke-width="0" transform=" rotate(0, 187, 143)" width="28" x="173.8571" y="129.1169"/><polygon fill="#006ca1" points="204.7185,165.8523 218.7185,137.8523 232.7185,165.8523" stroke-width="0" transform=" rotate(0, 218, 151)"/><ellipse cx="264.9473" cy="149.1341" fill="#006ca1" rx="14.0" ry="14.0" stroke-width="0" transform=" rotate(0, 264, 149)"/><rect fill="#006ca1" height="28" stroke-width="0" transform=" rotate(0, 67, 181)" width="28" x="53.6193" y="167.0052"/><polygon fill="#006ca1" points="90.1127,196.677 104.1127,168.677 118.1127,196.677" stroke-width="0" transform=" rotate(0, 104, 182)"/><ellipse cx="138.9367" cy="184.011" fill="#006ca1" rx="14.0" ry="14.0" stroke-width="0" transform=" rotate(0, 138, 184)"/><rect fill="#006ca1" height="28" stroke-width="0" transform=" rotate(0, 187, 181)" width="28" x="173.3206" y="167.823"/><polygon fill="#006ca1" points="209.602,197.364 223.602,169.364 237.602,197.364" stroke-width="0" transform=" rotate(0, 223, 183)"/><ellipse cx="271.2337" cy="181.0506" fill="#006ca1" rx="14.0" ry="14.0" stroke-width="0" transform=" rotate(0, 271, 181)"/><rect fill="#1b9fd8" height="28" stroke-width="0" transform=" rotate(0, 63, 218)" width="28" x="49.9682" y="204.0045"/><polygon fill="#1b9fd8" points="91.9674,245.3538 105.9674,217.3538 119.9674,245.3538" stroke-width="0" transform=" rotate(0, 105, 231)"/><ellipse cx="147.9688" cy="217.1078" fill="#1b9fd8" rx="14.0" ry="14.0" stroke-width="0" transform=" rotate(0, 147, 217)"/><rect fill="#1b9fd8" height="28" stroke-width="0" transform=" rotate(0, 180, 227)" width="28" x="166.7564" y="213.7137"/><polygon fill="#1b9fd8" points="213.5189,232.2525 227.5189,204.2525 241.5189,232.2525" stroke-width="0" transform=" rotate(0, 227, 218)"/><ellipse cx="272.445" cy="223.9487" fill="#1b9fd8" rx="14.0" ry="14.0" stroke-width="0" transform=" rotate(0, 272, 223)"/><rect fill="#6dd6ff" height="28" stroke-width="0" transform=" rotate(0, 57, 258)" width="28" x="43.0599" y="244.0235"/><polygon fill="#6dd6ff" points="88.7182,284.0473 102.7182,256.0473 116.7182,284.0473" stroke-width="0" transform=" rotate(0, 102, 270)"/><ellipse cx="147.7009" cy="266.0584" fill="#6dd6ff" rx="14.0" ry="14.0" stroke-width="0" transform=" rotate(0, 147, 266)"/><rect fill="#6dd6ff" height="28" stroke-width="0" transform=" rotate(0, 183, 262)" width="28" x="169.9866" y="248.49"/><polygon fill="#6dd6ff" points="218.3916,285.3719 232.3916,257.3719 246.3916,285.3719" stroke-width="0" transform=" rotate(0, 232, 271)"/><ellipse cx="267.9919" cy="263.023" fill="#6dd6ff" rx="14.0" ry="14.0" stroke-width="0" transform=" rotate(0, 267, 263)"/></svg>