<svg baseProfile="tiny" height="330" version="1.2" width="330" xmlns="http://www.w3.org/2000/svg" xmlns:ev="http://www.w3.org/2001/xml-events" xmlns:xlink="http://www.w3.org/1999/xlink"><defs/><rect fill="white" height="330" width="330" x="0" y="0"/><rect fill="#6dd6ff" height="28" stroke-width="0" transform=" rotate(0, 65, 65)" width="28" x="51.0" y="51.0"/><polygon fill="#6dd6ff" points="91.0,79.0 105.0,51.0 119.0,79.0" stroke-width="0" transform=" rotate(0, 105, 65)"/><ellipse cx="145.0" cy="65.0" fill="#6dd6ff" rx="14.0" ry="14.0" stroke-width="0" transform=" rotate(0, 145, 65)"/><rect fill="#6dd6ff" height="28" stroke-width="0" transform=" rotate(0, 185, 65)" width="28" x="171.0" y="51.0"/><polygon fill="#6dd6ff" points="211.0,79.0 225.0,51.0 239.0,79.0" stroke-width="0" transform=" rotate(0, 225, 65)"/><ellipse cx="265.0" cy="65.0" fill="#6dd6ff" rx="14.0" ry="14.0" stroke-width="0" transform=" rotate(0, 265, 65)"/><rect fill="#1b9fd8" height="28" stroke-width="0" transform=" rotate(0, 65, 105)" width="28" x="51.0" y="91.0"/><polygon fill="#1b9fd8" points="91.0,119.0 105.0,91.0 119.0,119.0" stroke-width="0" transform=" rotate(0, 105, 105)"/><ellipse cx="145.0" cy="105.0" fill="#1b9fd8" rx="14.0" ry="14.0" stroke-width="0" transform=" rotate(0, 145, 105)"/><rect fill="#1b9fd8" height="28" stroke-width="0" transform=" rotate(0, 185, 105)" width="28" x="171.0" y="91.0"/><polygon fill="#1b9fd8" points="211.0,119.0 225.0,91.0 239.0,119.0" stroke-width="0" transform=" rotate(0, 225, 105)"/><ellipse cx="265.0" cy="105.0" fill="#1b9fd8" rx="14.0" ry="14.0" stroke-width="0" transform=" rotate(0, 265, 105)"/><rect fill="#006ca1" height="28" stroke-width="0" transform=" rotate(0, 65, 145)" width="28" x="51.0" y="131.0"/><polygon fill="#006ca1" points="91.0,159.0 105.0,131.0 119.0,159.0" stroke-width="0" transform=" rotate(0, 105, 145)"/><ellipse cx="145.0" cy="145.0" fill="#006ca1" rx="14.0" ry="14.0" stroke-width="0" transform=" rotate(0, 145, 145)"/><rect fill="#006ca1" height="28" stroke-width="0" transform=" rotate(0, 185, 145)" width="28" x="171.0" y="131.0"/><polygon fill="#006ca1" points="211.0,159.0 225.0,131.0 239.0,159.0" stroke-width="0" transform=" rotate(0, 225, 145)"/><ellipse cx="265.0" cy="145.0" fill="#006ca1" rx="14.0" ry="14.0" stroke-width="0" transform=" rotate(0, 265, 145)"/><rect fill="#006ca1" height="28" stroke-width="0" transform=" rotate(0, 65, 185)" width="28" x="51.0" y="171.0"/><polygon fill="#006ca1" points="91.0,199.0 105.0,171.0 119.0,199.0" stroke-width="0" transform=" rotate(0, 105, 185)"/><ellipse cx="145.0" cy="185.0" fill="#006ca1" rx="14.0" ry="14.0" stroke-width="0" transform=" rotate(0, 145, 185)"/><rect fill="#006ca1" height="28" stroke-width="0" transform=" rotate(0, 185, 185)" width="28" x="171.0" y="171.0"/><polygon fill="#006ca1" points="211.0,199.0 225.0,171.0 239.0,199.0" stroke-width="0" transform=" rotate(0, 225, 185)"/><ellipse cx="265.0" cy="185.0" fill="#006ca1" rx="14.0" ry="14.0" stroke-width="0" transform=" rotate(0, 265, 185)"/><rect fill="#1b9fd8" height="28" stroke-width="0" transform=" rotate(0, 65, 225)" width="28" x="51.0" y="211.0"/><polygon fill="#1b9fd8" points="91.0,239.0 105.0,211.0 119.0,239.0" stroke-width="0" transform=" rotate(0, 105, 225)"/><ellipse cx="145.0" cy="225.0" fill="#1b9fd8" rx="14.0" ry="14.0" stroke-width="0" transform=" rotate(0, 145, 225)"/><rect fill="#1b9fd8" height="28" stroke-width="0" transform=" rotate(0, 185, 225)" width="28" x="171.0" y="211.0"/><polygon fill="#1b9fd8" points="211.0,239.0 225.0,211.0 239.0,239.0" stroke-width="0" transform=" rotate(0, 225, 225)"/><ellipse cx="265.0" cy="225.0" fill="#1b9fd8" rx="14.0" ry="14.0" stroke-width="0" transform=" rotate(0, 265, 225)"/><rect fill="#6dd6ff" height="28" stroke-width="0" transform=" rotate(0, 65, 265)" width="28" x="51.0" y="251.0"/><polygon fill="#6dd6ff" points="91.0,279.0 105.0,251.0 119.0,279.0" stroke-width="0" transform=" rotate(0, 105, 265)"/><ellipse cx="145.0" cy="265.0" fill="#6dd6ff" rx="14.0" ry="14.0" stroke-width="0" transform=" rotate(0, 145, 265)"/><rect fill="#6dd6ff" height="28" stroke-width="0" transform=" rotate(0, 185, 265)" width="28" x="171.0" y="251.0"/><polygon fill="#6dd6ff" points="211.0,279.0 225.0,251.0 239.0,279.0" stroke-width="0" transform=" rotate(0, 225, 265)"/><ellipse cx="265.0" cy="265.0" fill="#6dd6ff" rx="14.0" ry="14.0" stroke-width="0" transform=" rotate(0, 265, 265)"/></svg>