<?xml version="1.0" encoding="utf-8" ?>
<svg baseProfile="tiny" height="330" version="1.2" width="330" xmlns="http://www.w3.org/2000/svg" xmlns:ev="http://www.w3.org/2001/xml-events" xmlns:xlink="http://www.w3.org/1999/xlink">
  <defs/>
  <rect fill="white" height="330" width="330" x="0" y="0"/>
  <rect fill="#6dd6ff" height="15" stroke-width="0" transform=" rotate(0, 60, 60)" width="15" x="52.5" y="52.5"/>
  <polygon fill="#6dd6ff" points="82.5,67.5 90.0,52.5 97.5,67.5" stroke-width="0" transform=" rotate(0, 90, 60)"/>
  <ellipse cx="120.0" cy="60.0" fill="#6dd6ff" rx="7.5" ry="7.5" stroke-width="0" transform=" rotate(0, 120, 60)"/>
  <rect fill="#6dd6ff" height="15" stroke-width="0" transform=" rotate(0, 150, 60)" width="15" x="142.5" y="52.5"/>
  <polygon fill="#6dd6ff" points="172.5,67.5 180.0,52.5 187.5,67.5" stroke-width="0" transform=" rotate(0, 180, 60)"/>
  <ellipse cx="210.0" cy="60.0" fill="#6dd6ff" rx="7.5" ry="7.5" stroke-width="0" transform=" rotate(0, 210, 60)"/>
  <rect fill="#6dd6ff" height="15" stroke-width="0" transform=" rotate(0, 240, 60)" width="15" x="232.5" y="52.5"/>
  <polygon fill="#6dd6ff" points="262.5,67.5 270.0,52.5 277.5,67.5" stroke-width="0" transform=" rotate(0, 270, 60)"/>
  <rect fill="#1b9fd8" height="21" stroke-width="0" transform=" rotate(0, 60, 90)" width="21" x="49.5" y="79.5"/>
  <polygon fill="#1b9fd8" points="79.5,100.5 90.0,79.5 100.5,100.5" stroke-width="0" transform=" rotate(0, 90, 90)"/>
  <ellipse cx="120.0" cy="90.0" fill="#1b9fd8" rx="10.5" ry="10.5" stroke-width="0" transform=" rotate(0, 120, 90)"/>
  <rect fill="#1b9fd8" height="21" stroke-width="0" transform=" rotate(0, 150, 90)" width="21" x="139.5" y="79.5"/>
  <polygon fill="#1b9fd8" points="169.5,100.5 180.0,79.5 190.5,100.5" stroke-width="0" transform=" rotate(0, 180, 90)"/>
  <ellipse cx="210.0" cy="90.0" fill="#1b9fd8" rx="10.5" ry="10.5" stroke-width="0" transform=" rotate(0, 210, 90)"/>
  <rect fill="#1b9fd8" height="21" stroke-width="0" transform=" rotate(0, 240, 90)" width="21" x="229.5" y="79.5"/>
  <polygon fill="#1b9fd8" points="259.5,100.5 270.0,79.5 280.5,100.5" stroke-width="0" transform=" rotate(0, 270, 90)"/>
  <rect fill="#006ca1" height="27" stroke-width="0" transform=" rotate(0, 60, 120)" width="27" x="46.5" y="106.5"/>
  <polygon fill="#006ca1" points="76.5,133.5 90.0,106.5 103.5,133.5" stroke-width="0" transform=" rotate(0, 90, 120)"/>
  <ellipse cx="120.0" cy="120.0" fill="#006ca1" rx="13.5" ry="13.5" stroke-width="0" transform=" rotate(0, 120, 120)"/>
  <rect fill="#006ca1" height="27" stroke-width="0" transform=" rotate(0, 150, 120)" width="27" x="136.5" y="106.5"/>
  <polygon fill="#006ca1" points="166.5,133.5 180.0,106.5 193.5,133.5" stroke-width="0" transform=" rotate(0, 180, 120)"/>
  <ellipse cx="210.0" cy="120.0" fill="#006ca1" rx="13.5" ry="13.5" stroke-width="0" transform=" rotate(0, 210, 120)"/>
  <rect fill="#006ca1" height="27" stroke-width="0" transform=" rotate(0, 240, 120)" width="27" x="226.5" y="106.5"/>
  <polygon fill="#006ca1" points="256.5,133.5 270.0,106.5 283.5,133.5" stroke-width="0" transform=" rotate(0, 270, 120)"/>
  <rect fill="#6dd6ff" height="15" stroke-width="0" transform=" rotate(0, 60, 150)" width="15" x="52.5" y="142.5"/>
  <polygon fill="#6dd6ff" points="82.5,157.5 90.0,142.5 97.5,157.5" stroke-width="0" transform=" rotate(0, 90, 150)"/>
  <ellipse cx="120.0" cy="150.0" fill="#6dd6ff" rx="7.5" ry="7.5" stroke-width="0" transform=" rotate(0, 120, 150)"/>
  <rect fill="#6dd6ff" height="15" stroke-width="0" transform=" rotate(0, 150, 150)" width="15" x="142.5" y="142.5"/>
  <polygon fill="#6dd6ff" points="172.5,157.5 180.0,142.5 187.5,157.5" stroke-width="0" transform=" rotate(0, 180, 150)"/>
  <ellipse cx="210.0" cy="150.0" fill="#6dd6ff" rx="7.5" ry="7.5" stroke-width="0" transform=" rotate(0, 210, 150)"/>
  <rect fill="#6dd6ff" height="15" stroke-width="0" transform=" rotate(0, 240, 150)" width="15" x="232.5" y="142.5"/>
  <polygon fill="#6dd6ff" points="262.5,157.5 270.0,142.5 277.5,157.5" stroke-width="0" transform=" rotate(0, 270, 150)"/>
  <rect fill="#6dd6ff" height="15" stroke-width="0" transform=" rotate(0, 60, 180)" width="15" x="52.5" y="172.5"/>
  <polygon fill="#6dd6ff" points="82.5,187.5 90.0,172.5 97.5,187.5" stroke-width="0" transform=" rotate(0, 90, 180)"/>
  <ellipse cx="120.0" cy="180.0" fill="#6dd6ff" rx="7.5" ry="7.5" stroke-width="0" transform=" rotate(0, 120, 180)"/>
  <rect fill="#6dd6ff" height="15" stroke-width="0" transform=" rotate(0, 150, 180)" width="15" x="142.5" y="172.5"/>
  <polygon fill="#6dd6ff" points="172.5,187.5 180.0,172.5 187.5,187.5" stroke-width="0" transform=" rotate(0, 180, 180)"/>
  <ellipse cx="210.0" cy="180.0" fill="#6dd6ff" rx="7.5" ry="7.5" stroke-width="0" transform=" rotate(0, 210, 180)"/>
  <rect fill="#6dd6ff" height="15" stroke-width="0" transform=" rotate(0, 240, 180)" width="15" x="232.5" y="172.5"/>
  <polygon fill="#6dd6ff" points="262.5,187.5 270.0,172.5 277.5,187.5" stroke-width="0" transform=" rotate(0, 270, 180)"/>
  <rect fill="#006ca1" height="27" stroke-width="0" transform=" rotate(0, 60, 210)" width="27" x="46.5" y="196.5"/>
  <polygon fill="#006ca1" points="76.5,223.5 90.0,196.5 103.5,223.5" stroke-width="0" transform=" rotate(0, 90, 210)"/>
  <ellipse cx="120.0" cy="210.0" fill="#006ca1" rx="13.5" ry="13.5" stroke-width="0" transform=" rotate(0, 120, 210)"/>
  <rect fill="#006ca1" height="27" stroke-width="0" transform=" rotate(0, 150, 210)" width="27" x="136.5" y="196.5"/>
  <polygon fill="#006ca1" points="166.5,223.5 180.0,196.5 193.5,223.5" stroke-width="0" transform=" rotate(0, 180, 210)"/>
  <ellipse cx="210.0" cy="210.0" fill="#006ca1" rx="13.5" ry="13.5" stroke-width="0" transform=" rotate(0, 210, 210)"/>
  <rect fill="#006ca1" height="27" stroke-width="0" transform=" rotate(0, 240, 210)" width="27" x="226.5" y="196.5"/>
  <polygon fill="#006ca1" points="256.5,223.5 270.0,196.5 283.5,223.5" stroke-width="0" transform=" rotate(0, 270, 210)"/>
  <rect fill="#1b9fd8" height="21" stroke-width="0" transform=" rotate(0, 60, 240)" width="21" x="49.5" y="229.5"/>
  <polygon fill="#1b9fd8" points="79.5,250.5 90.0,229.5 100.5,250.5" stroke-width="0" transform=" rotate(0, 90, 240)"/>
  <ellipse cx="120.0" cy="240.0" fill="#1b9fd8" rx="10.5" ry="10.5" stroke-width="0" transform=" rotate(0, 120, 240)"/>
  <rect fill="#1b9fd8" height="21" stroke-width="0" transform=" rotate(0, 150, 240)" width="21" x="139.5" y="229.5"/>
  <polygon fill="#1b9fd8" points="169.5,250.5 180.0,229.5 190.5,250.5" stroke-width="0" transform=" rotate(0, 180, 240)"/>
  <ellipse cx="210.0" cy="240.0" fill="#1b9fd8" rx="10.5" ry="10.5" stroke-width="0" transform=" rotate(0, 210, 240)"/>
  <rect fill="#1b9fd8" height="21" stroke-width="0" transform=" rotate(0, 240, 240)" width="21" x="229.5" y="229.5"/>
  <polygon fill="#1b9fd8" points="259.5,250.5 270.0,229.5 280.5,250.5" stroke-width="0" transform=" rotate(0, 270, 240)"/>
  <rect fill="#6dd6ff" height="15" stroke-width="0" transform=" rotate(0, 60, 270)" width="15" x="52.5" y="262.5"/>
  <polygon fill="#6dd6ff" points="82.5,277.5 90.0,262.5 97.5,277.5" stroke-width="0" transform=" rotate(0, 90, 270)"/>
  <ellipse cx="120.0" cy="270.0" fill="#6dd6ff" rx="7.5" ry="7.5" stroke-width="0" transform=" rotate(0, 120, 270)"/>
  <rect fill="#6dd6ff" height="15" stroke-width="0" transform=" rotate(0, 150, 270)" width="15" x="142.5" y="262.5"/>
  <polygon fill="#6dd6ff" points="172.5,277.5 180.0,262.5 187.5,277.5" stroke-width="0" transform=" rotate(0, 180, 270)"/>
  <ellipse cx="210.0" cy="270.0" fill="#6dd6ff" rx="7.5" ry="7.5" stroke-width="0" transform=" rotate(0, 210, 270)"/>
  <rect fill="#6dd6ff" height="15" stroke-width="0" transform=" rotate(0, 240, 270)" width="15" x="232.5" y="262.5"/>
  <polygon fill="#6dd6ff" points="262.5,277.5 270.0,262.5 277.5,277.5" stroke-width="0" transform=" rotate(0, 270, 270)"/>
</svg>
