<?xml version="1.0" encoding="utf-8" ?>
<svg baseProfile="tiny" height="330" version="1.2" width="330" xmlns="http://www.w3.org/2000/svg" xmlns:ev="http://www.w3.org/2001/xml-events" xmlns:xlink="http://www.w3.org/1999/xlink">
  <defs/>
  <rect fill="white" height="330" width="330" x="0" y="0"/>
  <rect fill="#6dd6ff" height="10" stroke-width="0" transform=" rotate(0, 55, 55)" width="10" x="50.0" y="50.0"/>
  <polygon fill="#6dd6ff" points="70.0,60.0 75.0,50.0 80.0,60.0" stroke-width="0" transform=" rotate(0, 75, 55)"/>
  <ellipse cx="95.0" cy="55.0" fill="#6dd6ff" rx="5.0" ry="5.0" stroke-width="0" transform=" rotate(0, 95, 55)"/>
  <rect fill="#6dd6ff" height="10" stroke-width="0" transform=" rotate(0, 115, 55)" width="10" x="110.0" y="50.0"/>
  <polygon fill="#6dd6ff" points="130.0,60.0 135.0,50.0 140.0,60.0" stroke-width="0" transform=" rotate(0, 135, 55)"/>
  <ellipse cx="155.0" cy="55.0" fill="#6dd6ff" rx="5.0" ry="5.0" stroke-width="0" transform=" rotate(0, 155, 55)"/>
  <rect fill="#6dd6ff" height="10" stroke-width="0" transform=" rotate(0, 175, 55)" width="10" x="170.0" y="50.0"/>
  <polygon fill="#6dd6ff" points="190.0,60.0 195.0,50.0 200.0,60.0" stroke-width="0" transform=" rotate(0, 195, 55)"/>
  <ellipse cx="215.0" cy="55.0" fill="#6dd6ff" rx="5.0" ry="5.0" stroke-width="0" transform=" rotate(0, 215, 55)"/>
  <rect fill="#6dd6ff" height="10" stroke-width="0" transform=" rotate(0, 235, 55)" width="10" x="230.0" y="50.0"/>
  <polygon fill="#6dd6ff" points="250.0,60.0 255.0,50.0 260.0,60.0" stroke-width="0" transform=" rotate(0, 255, 55)"/>
  <ellipse cx="275.0" cy="55.0" fill="#6dd6ff" rx="5.0" ry="5.0" stroke-width="0" transform=" rotate(0, 275, 55)"/>
  <rect fill="#1b9fd8" height="14" stroke-width="0" transform=" rotate(0, 55, 75)" width="14" x="48.0" y="68.0"/>
  <polygon fill="#1b9fd8" points="68.0,82.0 75.0,68.0 82.0,82.0" stroke-width="0" transform=" rotate(0, 75, 75)"/>
  <ellipse cx="95.0" cy="75.0" fill="#1b9fd8" rx="7.0" ry="7.0" stroke-width="0" transform=" rotate(0, 95, 75)"/>
  <rect fill="#1b9fd8" height="14" stroke-width="0" transform=" rotate(0, 115, 75)" width="14" x="108.0" y="68.0"/>
  <polygon fill="#1b9fd8" points="128.0,82.0 135.0,68.0 142.0,82.0" stroke-width="0" transform=" rotate(0, 135, 75)"/>
  <ellipse cx="155.0" cy="75.0" fill="#1b9fd8" rx="7.0" ry="7.0" stroke-width="0" transform=" rotate(0, 155, 75)"/>
  <rect fill="#1b9fd8" height="14" stroke-width="0" transform=" rotate(0, 175, 75)" width="14" x="168.0" y="68.0"/>
  <polygon fill="#1b9fd8" points="188.0,82.0 195.0,68.0 202.0,82.0" stroke-width="0" transform=" rotate(0, 195, 75)"/>
  <ellipse cx="215.0" cy="75.0" fill="#1b9fd8" rx="7.0" ry="7.0" stroke-width="0" transform=" rotate(0, 215, 75)"/>
  <rect fill="#1b9fd8" height="14" stroke-width="0" transform=" rotate(0, 235, 75)" width="14" x="228.0" y="68.0"/>
  <polygon fill="#1b9fd8" points="248.0,82.0 255.0,68.0 262.0,82.0" stroke-width="0" transform=" rotate(0, 255, 75)"/>
  <ellipse cx="275.0" cy="75.0" fill="#1b9fd8" rx="7.0" ry="7.0" stroke-width="0" transform=" rotate(0, 275, 75)"/>
  <rect fill="#006ca1" height="18" stroke-width="0" transform=" rotate(0, 55, 95)" width="18" x="46.0" y="86.0"/>
  <polygon fill="#006ca1" points="66.0,104.0 75.0,86.0 84.0,104.0" stroke-width="0" transform=" rotate(0, 75, 95)"/>
  <ellipse cx="95.0" cy="95.0" fill="#006ca1" rx="9.0" ry="9.0" stroke-width="0" transform=" rotate(0, 95, 95)"/>
  <rect fill="#006ca1" height="18" stroke-width="0" transform=" rotate(0, 115, 95)" width="18" x="106.0" y="86.0"/>
  <polygon fill="#006ca1" points="126.0,104.0 135.0,86.0 144.0,104.0" stroke-width="0" transform=" rotate(0, 135, 95)"/>
  <ellipse cx="155.0" cy="95.0" fill="#006ca1" rx="9.0" ry="9.0" stroke-width="0" transform=" rotate(0, 155, 95)"/>
  <rect fill="#006ca1" height="18" stroke-width="0" transform=" rotate(0, 175, 95)" width="18" x="166.0" y="86.0"/>
  <polygon fill="#006ca1" points="186.0,104.0 195.0,86.0 204.0,104.0" stroke-width="0" transform=" rotate(0, 195, 95)"/>
  <ellipse cx="215.0" cy="95.0" fill="#006ca1" rx="9.0" ry="9.0" stroke-width="0" transform=" rotate(0, 215, 95)"/>
  <rect fill="#006ca1" height="18" stroke-width="0" transform=" rotate(0, 235, 95)" width="18" x="226.0" y="86.0"/>
  <polygon fill="#006ca1" points="246.0,104.0 255.0,86.0 264.0,104.0" stroke-width="0" transform=" rotate(0, 255, 95)"/>
  <ellipse cx="275.0" cy="95.0" fill="#006ca1" rx="9.0" ry="9.0" stroke-width="0" transform=" rotate(0, 275, 95)"/>
  <rect fill="#6dd6ff" height="10" stroke-width="0" transform=" rotate(0, 55, 115)" width="10" x="50.0" y="110.0"/>
  <polygon fill="#6dd6ff" points="70.0,120.0 75.0,110.0 80.0,120.0" stroke-width="0" transform=" rotate(0, 75, 115)"/>
  <ellipse cx="95.0" cy="115.0" fill="#6dd6ff" rx="5.0" ry="5.0" stroke-width="0" transform=" rotate(0, 95, 115)"/>
  <rect fill="#6dd6ff" height="10" stroke-width="0" transform=" rotate(0, 115, 115)" width="10" x="110.0" y="110.0"/>
  <polygon fill="#6dd6ff" points="130.0,120.0 135.0,110.0 140.0,120.0" stroke-width="0" transform=" rotate(0, 135, 115)"/>
  <ellipse cx="155.0" cy="115.0" fill="#6dd6ff" rx="5.0" ry="5.0" stroke-width="0" transform=" rotate(0, 155, 115)"/>
  <rect fill="#6dd6ff" height="10" stroke-width="0" transform=" rotate(0, 175, 115)" width="10" x="170.0" y="110.0"/>
  <polygon fill="#6dd6ff" points="190.0,120.0 195.0,110.0 200.0,120.0" stroke-width="0" transform=" rotate(0, 195, 115)"/>
  <ellipse cx="215.0" cy="115.0" fill="#6dd6ff" rx="5.0" ry="5.0" stroke-width="0" transform=" rotate(0, 215, 115)"/>
  <rect fill="#6dd6ff" height="10" stroke-width="0" transform=" rotate(0, 235, 115)" width="10" x="230.0" y="110.0"/>
  <polygon fill="#6dd6ff" points="250.0,120.0 255.0,110.0 260.0,120.0" stroke-width="0" transform=" rotate(0, 255, 115)"/>
  <ellipse cx="275.0" cy="115.0" fill="#6dd6ff" rx="5.0" ry="5.0" stroke-width="0" transform=" rotate(0, 275, 115)"/>
  <rect fill="#1b9fd8" height="14" stroke-width="0" transform=" rotate(0, 55, 135)" width="14" x="48.0" y="128.0"/>
  <polygon fill="#1b9fd8" points="68.0,142.0 75.0,128.0 82.0,142.0" stroke-width="0" transform=" rotate(0, 75, 135)"/>
  <ellipse cx="95.0" cy="135.0" fill="#1b9fd8" rx="7.0" ry="7.0" stroke-width="0" transform=" rotate(0, 95, 135)"/>
  <rect fill="#1b9fd8" height="14" stroke-width="0" transform=" rotate(0, 115, 135)" width="14" x="108.0" y="128.0"/>
  <polygon fill="#1b9fd8" points="128.0,142.0 135.0,128.0 142.0,142.0" stroke-width="0" transform=" rotate(0, 135, 135)"/>
  <ellipse cx="155.0" cy="135.0" fill="#1b9fd8" rx="7.0" ry="7.0" stroke-width="0" transform=" rotate(0, 155, 135)"/>
  <rect fill="#1b9fd8" height="14" stroke-width="0" transform=" rotate(0, 175, 135)" width="14" x="168.0" y="128.0"/>
  <polygon fill="#1b9fd8" points="188.0,142.0 195.0,128.0 202.0,142.0" stroke-width="0" transform=" rotate(0, 195, 135)"/>
  <ellipse cx="215.0" cy="135.0" fill="#1b9fd8" rx="7.0" ry="7.0" stroke-width="0" transform=" rotate(0, 215, 135)"/>
  <rect fill="#1b9fd8" height="14" stroke-width="0" transform=" rotate(0, 235, 135)" width="14" x="228.0" y="128.0"/>
  <polygon fill="#1b9fd8" points="248.0,142.0 255.0,128.0 262.0,142.0" stroke-width="0" transform=" rotate(0, 255, 135)"/>
  <ellipse cx="275.0" cy="135.0" fill="#1b9fd8" rx="7.0" ry="7.0" stroke-width="0" transform=" rotate(0, 275, 135)"/>
  <rect fill="#006ca1" height="18" stroke-width="0" transform=" rotate(0, 55, 155)" width="18" x="46.0" y="146.0"/>
  <polygon fill="#006ca1" points="66.0,164.0 75.0,146.0 84.0,164.0" stroke-width="0" transform=" rotate(0, 75, 155)"/>
  <ellipse cx="95.0" cy="155.0" fill="#006ca1" rx="9.0" ry="9.0" stroke-width="0" transform=" rotate(0, 95, 155)"/>
  <rect fill="#006ca1" height="18" stroke-width="0" transform=" rotate(0, 115, 155)" width="18" x="106.0" y="146.0"/>
  <polygon fill="#006ca1" points="126.0,164.0 135.0,146.0 144.0,164.0" stroke-width="0" transform=" rotate(0, 135, 155)"/>
  <ellipse cx="155.0" cy="155.0" fill="#006ca1" rx="9.0" ry="9.0" stroke-width="0" transform=" rotate(0, 155, 155)"/>
  <rect fill="#006ca1" height="18" stroke-width="0" transform=" rotate(0, 175, 155)" width="18" x="166.0" y="146.0"/>
  <polygon fill="#006ca1" points="186.0,164.0 195.0,146.0 204.0,164.0" stroke-width="0" transform=" rotate(0, 195, 155)"/>
  <ellipse cx="215.0" cy="155.0" fill="#006ca1" rx="9.0" ry="9.0" stroke-width="0" transform=" rotate(0, 215, 155)"/>
  <rect fill="#006ca1" height="18" stroke-width="0" transform=" rotate(0, 235, 155)" width="18" x="226.0" y="146.0"/>
  <polygon fill="#006ca1" points="246.0,164.0 255.0,146.0 264.0,164.0" stroke-width="0" transform=" rotate(0, 255, 155)"/>
  <ellipse cx="275.0" cy="155.0" fill="#006ca1" rx="9.0" ry="9.0" stroke-width="0" transform=" rotate(0, 275, 155)"/>
  <rect fill="#006ca1" height="18" stroke-width="0" transform=" rotate(0, 55, 175)" width="18" x="46.0" y="166.0"/>
  <polygon fill="#006ca1" points="66.0,184.0 75.0,166.0 84.0,184.0" stroke-width="0" transform=" rotate(0, 75, 175)"/>
  <ellipse cx="95.0" cy="175.0" fill="#006ca1" rx="9.0" ry="9.0" stroke-width="0" transform=" rotate(0, 95, 175)"/>
  <rect fill="#006ca1" height="18" stroke-width="0" transform=" rotate(0, 115, 175)" width="18" x="106.0" y="166.0"/>
  <polygon fill="#006ca1" points="126.0,184.0 135.0,166.0 144.0,184.0" stroke-width="0" transform=" rotate(0, 135, 175)"/>
  <ellipse cx="155.0" cy="175.0" fill="#006ca1" rx="9.0" ry="9.0" stroke-width="0" transform=" rotate(0, 155, 175)"/>
  <rect fill="#006ca1" height="18" stroke-width="0" transform=" rotate(0, 175, 175)" width="18" x="166.0" y="166.0"/>
  <polygon fill="#006ca1" points="186.0,184.0 195.0,166.0 204.0,184.0" stroke-width="0" transform=" rotate(0, 195, 175)"/>
  <ellipse cx="215.0" cy="175.0" fill="#006ca1" rx="9.0" ry="9.0" stroke-width="0" transform=" rotate(0, 215, 175)"/>
  <rect fill="#006ca1" height="18" stroke-width="0" transform=" rotate(0, 235, 175)" width="18" x="226.0" y="166.0"/>
  <polygon fill="#006ca1" points="246.0,184.0 255.0,166.0 264.0,184.0" stroke-width="0" transform=" rotate(0, 255, 175)"/>
  <ellipse cx="275.0" cy="175.0" fill="#006ca1" rx="9.0" ry="9.0" stroke-width="0" transform=" rotate(0, 275, 175)"/>
  <rect fill="#1b9fd8" height="14" stroke-width="0" transform=" rotate(0, 55, 195)" width="14" x="48.0" y="188.0"/>
  <polygon fill="#1b9fd8" points="68.0,202.0 75.0,188.0 82.0,202.0" stroke-width="0" transform=" rotate(0, 75, 195)"/>
  <ellipse cx="95.0" cy="195.0" fill="#1b9fd8" rx="7.0" ry="7.0" stroke-width="0" transform=" rotate(0, 95, 195)"/>
  <rect fill="#1b9fd8" height="14" stroke-width="0" transform=" rotate(0, 115, 195)" width="14" x="108.0" y="188.0"/>
  <polygon fill="#1b9fd8" points="128.0,202.0 135.0,188.0 142.0,202.0" stroke-width="0" transform=" rotate(0, 135, 195)"/>
  <ellipse cx="155.0" cy="195.0" fill="#1b9fd8" rx="7.0" ry="7.0" stroke-width="0" transform=" rotate(0, 155, 195)"/>
  <rect fill="#1b9fd8" height="14" stroke-width="0" transform=" rotate(0, 175, 195)" width="14" x="168.0" y="188.0"/>
  <polygon fill="#1b9fd8" points="188.0,202.0 195.0,188.0 202.0,202.0" stroke-width="0" transform=" rotate(0, 195, 195)"/>
  <ellipse cx="215.0" cy="195.0" fill="#1b9fd8" rx="7.0" ry="7.0" stroke-width="0" transform=" rotate(0, 215, 195)"/>
  <rect fill="#1b9fd8" height="14" stroke-width="0" transform=" rotate(0, 235, 195)" width="14" x="228.0" y="188.0"/>
  <polygon fill="#1b9fd8" points="248.0,202.0 255.0,188.0 262.0,202.0" stroke-width="0" transform=" rotate(0, 255, 195)"/>
  <ellipse cx="275.0" cy="195.0" fill="#1b9fd8" rx="7.0" ry="7.0" stroke-width="0" transform=" rotate(0, 275, 195)"/>
  <rect fill="#6dd6ff" height="10" stroke-width="0" transform=" rotate(0, 55, 215)" width="10" x="50.0" y="210.0"/>
  <polygon fill="#6dd6ff" points="70.0,220.0 75.0,210.0 80.0,220.0" stroke-width="0" transform=" rotate(0, 75, 215)"/>
  <ellipse cx="95.0" cy="215.0" fill="#6dd6ff" rx="5.0" ry="5.0" stroke-width="0" transform=" rotate(0, 95, 215)"/>
  <rect fill="#6dd6ff" height="10" stroke-width="0" transform=" rotate(0, 115, 215)" width="10" x="110.0" y="210.0"/>
  <polygon fill="#6dd6ff" points="130.0,220.0 135.0,210.0 140.0,220.0" stroke-width="0" transform=" rotate(0, 135, 215)"/>
  <ellipse cx="155.0" cy="215.0" fill="#6dd6ff" rx="5.0" ry="5.0" stroke-width="0" transform=" rotate(0, 155, 215)"/>
  <rect fill="#6dd6ff" height="10" stroke-width="0" transform=" rotate(0, 175, 215)" width="10" x="170.0" y="210.0"/>
  <polygon fill="#6dd6ff" points="190.0,220.0 195.0,210.0 200.0,220.0" stroke-width="0" transform=" rotate(0, 195, 215)"/>
  <ellipse cx="215.0" cy="215.0" fill="#6dd6ff" rx="5.0" ry="5.0" stroke-width="0" transform=" rotate(0, 215, 215)"/>
  <rect fill="#6dd6ff" height="10" stroke-width="0" transform=" rotate(0, 235, 215)" width="10" x="230.0" y="210.0"/>
  <polygon fill="#6dd6ff" points="250.0,220.0 255.0,210.0 260.0,220.0" stroke-width="0" transform=" rotate(0, 255, 215)"/>
  <ellipse cx="275.0" cy="215.0" fill="#6dd6ff" rx="5.0" ry="5.0" stroke-width="0" transform=" rotate(0, 275, 215)"/>
  <rect fill="#006ca1" height="18" stroke-width="0" transform=" rotate(0, 55, 235)" width="18" x="46.0" y="226.0"/>
  <polygon fill="#006ca1" points="66.0,244.0 75.0,226.0 84.0,244.0" stroke-width="0" transform=" rotate(0, 75, 235)"/>
  <ellipse cx="95.0" cy="235.0" fill="#006ca1" rx="9.0" ry="9.0" stroke-width="0" transform=" rotate(0, 95, 235)"/>
  <rect fill="#006ca1" height="18" stroke-width="0" transform=" rotate(0, 115, 235)" width="18" x="106.0" y="226.0"/>
  <polygon fill="#006ca1" points="126.0,244.0 135.0,226.0 144.0,244.0" stroke-width="0" transform=" rotate(0, 135, 235)"/>
  <ellipse cx="155.0" cy="235.0" fill="#006ca1" rx="9.0" ry="9.0" stroke-width="0" transform=" rotate(0, 155, 235)"/>
  <rect fill="#006ca1" height="18" stroke-width="0" transform=" rotate(0, 175, 235)" width="18" x="166.0" y="226.0"/>
  <polygon fill="#006ca1" points="186.0,244.0 195.0,226.0 204.0,244.0" stroke-width="0" transform=" rotate(0, 195, 235)"/>
  <ellipse cx="215.0" cy="235.0" fill="#006ca1" rx="9.0" ry="9.0" stroke-width="0" transform=" rotate(0, 215, 235)"/>
  <rect fill="#006ca1" height="18" stroke-width="0" transform=" rotate(0, 235, 235)" width="18" x="226.0" y="226.0"/>
  <polygon fill="#006ca1" points="246.0,244.0 255.0,226.0 264.0,244.0" stroke-width="0" transform=" rotate(0, 255, 235)"/>
  <ellipse cx="275.0" cy="235.0" fill="#006ca1" rx="9.0" ry="9.0" stroke-width="0" transform=" rotate(0, 275, 235)"/>
  <rect fill="#1b9fd8" height="14" stroke-width="0" transform=" rotate(0, 55, 255)" width="14" x="48.0" y="248.0"/>
  <polygon fill="#1b9fd8" points="68.0,262.0 75.0,248.0 82.0,262.0" stroke-width="0" transform=" rotate(0, 75, 255)"/>
  <ellipse cx="95.0" cy="255.0" fill="#1b9fd8" rx="7.0" ry="7.0" stroke-width="0" transform=" rotate(0, 95, 255)"/>
  <rect fill="#1b9fd8" height="14" stroke-width="0" transform=" rotate(0, 115, 255)" width="14" x="108.0" y="248.0"/>
  <polygon fill="#1b9fd8" points="128.0,262.0 135.0,248.0 142.0,262.0" stroke-width="0" transform=" rotate(0, 135, 255)"/>
  <ellipse cx="155.0" cy="255.0" fill="#1b9fd8" rx="7.0" ry="7.0" stroke-width="0" transform=" rotate(0, 155, 255)"/>
  <rect fill="#1b9fd8" height="14" stroke-width="0" transform=" rotate(0, 175, 255)" width="14" x="168.0" y="248.0"/>
  <polygon fill="#1b9fd8" points="188.0,262.0 195.0,248.0 202.0,262.0" stroke-width="0" transform=" rotate(0, 195, 255)"/>
  <ellipse cx="215.0" cy="255.0" fill="#1b9fd8" rx="7.0" ry="7.0" stroke-width="0" transform=" rotate(0, 215, 255)"/>
  <rect fill="#1b9fd8" height="14" stroke-width="0" transform=" rotate(0, 235, 255)" width="14" x="228.0" y="248.0"/>
  <polygon fill="#1b9fd8" points="248.0,262.0 255.0,248.0 262.0,262.0" stroke-width="0" transform=" rotate(0, 255, 255)"/>
  <ellipse cx="275.0" cy="255.0" fill="#1b9fd8" rx="7.0" ry="7.0" stroke-width="0" transform=" rotate(0, 275, 255)"/>
  <rect fill="#6dd6ff" height="10" stroke-width="0" transform=" rotate(0, 55, 275)" width="10" x="50.0" y="270.0"/>
  <polygon fill="#6dd6ff" points="70.0,280.0 75.0,270.0 80.0,280.0" stroke-width="0" transform=" rotate(0, 75, 275)"/>
  <ellipse cx="95.0" cy="275.0" fill="#6dd6ff" rx="5.0" ry="5.0" stroke-width="0" transform=" rotate(0, 95, 275)"/>
  <rect fill="#6dd6ff" height="10" stroke-width="0" transform=" rotate(0, 115, 275)" width="10" x="110.0" y="270.0"/>
  <polygon fill="#6dd6ff" points="130.0,280.0 135.0,270.0 140.0,280.0" stroke-width="0" transform=" rotate(0, 135, 275)"/>
  <ellipse cx="155.0" cy="275.0" fill="#6dd6ff" rx="5.0" ry="5.0" stroke-width="0" transform=" rotate(0, 155, 275)"/>
  <rect fill="#6dd6ff" height="10" stroke-width="0" transform=" rotate(0, 175, 275)" width="10" x="170.0" y="270.0"/>
  <polygon fill="#6dd6ff" points="190.0,280.0 195.0,270.0 200.0,280.0" stroke-width="0" transform=" rotate(0, 195, 275)"/>
  <ellipse cx="215.0" cy="275.0" fill="#6dd6ff" rx="5.0" ry="5.0" stroke-width="0" transform=" rotate(0, 215, 275)"/>
  <rect fill="#6dd6ff" height="10" stroke-width="0" transform=" rotate(0, 235, 275)" width="10" x="230.0" y="270.0"/>
  <polygon fill="#6dd6ff" points="250.0,280.0 255.0,270.0 260.0,280.0" stroke-width="0" transform=" rotate(0, 255, 275)"/>
  <ellipse cx="275.0" cy="275.0" fill="#6dd6ff" rx="5.0" ry="5.0" stroke-width="0" transform=" rotate(0, 275, 275)"/>
</svg>
