<svg baseProfile="tiny" height="330" version="1.2" width="330" xmlns="http://www.w3.org/2000/svg" xmlns:ev="http://www.w3.org/2001/xml-events" xmlns:xlink="http://www.w3.org/1999/xlink"><defs/><rect fill="white" height="330" width="330" x="0" y="0"/><rect fill="#6dd6ff" height="20" stroke-width="0" transform=" rotate(0, 65, 65)" width="20" x="55.0" y="55.0"/><polygon fill="#6dd6ff" points="95.0,75.0 105.0,55.0 115.0,75.0" stroke-width="0" transform=" rotate(0, 105, 65)"/><ellipse cx="145.0" cy="65.0" fill="#6dd6ff" rx="10.0" ry="10.0" stroke-width="0" transform=" rotate(0, 145, 65)"/><rect fill="#6dd6ff" height="20" stroke-width="0" transform=" rotate(0, 185, 65)" width="20" x="175.0" y="55.0"/><polygon fill="#6dd6ff" points="215.0,75.0 225.0,55.0 235.0,75.0" stroke-width="0" transform=" rotate(0, 225, 65)"/><ellipse cx="265.0" cy="65.0" fill="#6dd6ff" rx="10.0" ry="10.0" stroke-width="0" transform=" rotate(0, 265, 65)"/><rect fill="#1b9fd8" height="20" stroke-width="0" transform=" rotate(0, 65, 105)" width="20" x="55.0" y="95.0"/><polygon fill="#1b9fd8" points="95.0,115.0 105.0,95.0 115.0,115.0" stroke-width="0" transform=" rotate(0, 105, 105)"/><ellipse cx="145.0" cy="105.0" fill="#1b9fd8" rx="10.0" ry="10.0" stroke-width="0" transform=" rotate(0, 145, 105)"/><rect fill="#1b9fd8" height="20" stroke-width="0" transform=" rotate(0, 185, 105)" width="20" x="175.0" y="95.0"/><polygon fill="#1b9fd8" points="215.0,115.0 225.0,95.0 235.0,115.0" stroke-width="0" transform=" rotate(0, 225, 105)"/><ellipse cx="265.0" cy="105.0" fill="#1b9fd8" rx="10.0" ry="10.0" stroke-width="0" transform=" rotate(0, 265, 105)"/><rect fill="#006ca1" height="20" stroke-width="0" transform=" rotate(0, 65, 145)" width="20" x="55.0" y="135.0"/><polygon fill="#006ca1" points="95.0,155.0 105.0,135.0 115.0,155.0" stroke-width="0" transform=" rotate(0, 105, 145)"/><ellipse cx="145.0" cy="145.0" fill="#006ca1" rx="10.0" ry="10.0" stroke-width="0" transform=" rotate(0, 145, 145)"/><rect fill="#006ca1" height="20" stroke-width="0" transform=" rotate(0, 185, 145)" width="20" x="175.0" y="135.0"/><polygon fill="#006ca1" points="215.0,155.0 225.0,135.0 235.0,155.0" stroke-width="0" transform=" rotate(0, 225, 145)"/><ellipse cx="265.0" cy="145.0" fill="#006ca1" rx="10.0" ry="10.0" stroke-width="0" transform=" rotate(0, 265, 145)"/><rect fill="#006ca1" height="20" stroke-width="0" transform=" rotate(0, 65, 185)" width="20" x="55.0" y="175.0"/><polygon fill="#006ca1" points="95.0,195.0 105.0,175.0 115.0,195.0" stroke-width="0" transform=" rotate(0, 105, 185)"/><ellipse cx="145.0" cy="185.0" fill="#006ca1" rx="10.0" ry="10.0" stroke-width="0" transform=" rotate(0, 145, 185)"/><rect fill="#006ca1" height="20" stroke-width="0" transform=" rotate(0, 185, 185)" width="20" x="175.0" y="175.0"/><polygon fill="#006ca1" points="215.0,195.0 225.0,175.0 235.0,195.0" stroke-width="0" transform=" rotate(0, 225, 185)"/><ellipse cx="265.0" cy="185.0" fill="#006ca1" rx="10.0" ry="10.0" stroke-width="0" transform=" rotate(0, 265, 185)"/><rect fill="#1b9fd8" height="20" stroke-width="0" transform=" rotate(0, 65, 225)" width="20" x="55.0" y="215.0"/><polygon fill="#1b9fd8" points="95.0,235.0 105.0,215.0 115.0,235.0" stroke-width="0" transform=" rotate(0, 105, 225)"/><ellipse cx="145.0" cy="225.0" fill="#1b9fd8" rx="10.0" ry="10.0" stroke-width="0" transform=" rotate(0, 145, 225)"/><rect fill="#1b9fd8" height="20" stroke-width="0" transform=" rotate(0, 185, 225)" width="20" x="175.0" y="215.0"/><polygon fill="#1b9fd8" points="215.0,235.0 225.0,215.0 235.0,235.0" stroke-width="0" transform=" rotate(0, 225, 225)"/><ellipse cx="265.0" cy="225.0" fill="#1b9fd8" rx="10.0" ry="10.0" stroke-width="0" transform=" rotate(0, 265, 225)"/><rect fill="#6dd6ff" height="20" stroke-width="0" transform=" rotate(0, 65, 265)" width="20" x="55.0" y="255.0"/><polygon fill="#6dd6ff" points="95.0,275.0 105.0,255.0 115.0,275.0" stroke-width="0" transform=" rotate(0, 105, 265)"/><ellipse cx="145.0" cy="265.0" fill="#6dd6ff" rx="10.0" ry="10.0" stroke-width="0" transform=" rotate(0, 145, 265)"/><rect fill="#6dd6ff" height="20" stroke-width="0" transform=" rotate(0, 185, 265)" width="20" x="175.0" y="255.0"/><polygon fill="#6dd6ff" points="215.0,275.0 225.0,255.0 235.0,275.0" stroke-width="0" transform=" rotate(0, 225, 265)"/><ellipse cx="265.0" cy="265.0" fill="#6dd6ff" rx="10.0" ry="10.0" stroke-width="0" transform=" rotate(0, 265, 265)"/></svg>