<svg baseProfile="tiny" height="330" version="1.2" width="330" xmlns="http://www.w3.org/2000/svg" xmlns:ev="http://www.w3.org/2001/xml-events" xmlns:xlink="http://www.w3.org/1999/xlink"><defs/><rect fill="white" height="330" width="330" x="0" y="0"/><rect fill="#6dd6ff" height="20" stroke-width="0" transform=" rotate(0, 59, 65)" width="20" x="49.9863" y="55.0222"/><polygon fill="#6dd6ff" points="94.1073,80.26 104.1073,60.26 114.1073,80.26" stroke-width="0" transform=" rotate(0, 104, 70)"/><ellipse cx="147.3287" cy="66.9728" fill="#6dd6ff" rx="10.0" ry="10.0" stroke-width="0" transform=" rotate(0, 147, 66)"/><rect fill="#6dd6ff" height="20" stroke-width="0" transform=" rotate(0, 179, 66)" width="20" x="169.5639" y="56.5503"/><polygon fill="#6dd6ff" points="219.4528,76.0657 229.4528,56.0657 239.4528,76.0657" stroke-width="0" transform=" rotate(0, 229, 66)"/><ellipse cx="267.3247" cy="66.4646" fill="#6dd6ff" rx="10.0" ry="10.0" stroke-width="0" transform=" rotate(0, 267, 66)"/><rect fill="#1b9fd8" height="20" stroke-width="0" transform=" rotate(0, 64, 106)" width="20" x="54.933" y="96.8617"/><polygon fill="#1b9fd8" points="89.6584,120.7823 99.6584,100.7823 109.6584,120.7823" stroke-width="0" transform=" rotate(0, 99, 110)"/><ellipse cx="148.8313" cy="103.1012" fill="#1b9fd8" rx="10.0" ry="10.0" stroke-width="0" transform=" rotate(0, 148, 103)"/><rect fill="#1b9fd8" height="20" stroke-width="0" transform=" rotate(0, 183, 110)" width="20" x="173.365" y="100.2921"/><polygon fill="#1b9fd8" points="211.0356,113.5224 221.0356,93.5224 231.0356,113.5224" stroke-width="0" transform=" rotate(0, 221, 103)"/><ellipse cx="265.9215" cy="102.2061" fill="#1b9fd8" rx="10.0" ry="10.0" stroke-width="0" transform=" rotate(0, 265, 102)"/><rect fill="#006ca1" height="20" stroke-width="0" transform=" rotate(0, 70, 139)" width="20" x="60.2629" y="129.8874"/><polygon fill="#006ca1" points="90.659,160.3345 100.659,140.3345 110.659,160.3345" stroke-width="0" transform=" rotate(0, 100, 150)"/><ellipse cx="145.5541" cy="140.6557" fill="#006ca1" rx="10.0" ry="10.0" stroke-width="0" transform=" rotate(0, 145, 140)"/><rect fill="#006ca1" height="20" stroke-width="0" transform=" rotate(0, 187, 143)" width="20" x="177.0408" y="133.655"/><polygon fill="#006ca1" points="210.5132,159.8945 220.5132,139.8945 230.5132,159.8945" stroke-width="0" transform=" rotate(0, 220, 149)"/><ellipse cx="264.9623" cy="147.9529" fill="#006ca1" rx="10.0" ry="10.0" stroke-width="0" transform=" rotate(0, 264, 147)"/><rect fill="#006ca1" height="20" stroke-width="0" transform=" rotate(0, 66, 182)" width="20" x="56.8709" y="172.1466"/><polygon fill="#006ca1" points="94.3662,193.3407 104.3662,173.3407 114.3662,193.3407" stroke-width="0" transform=" rotate(0, 104, 183)"/><ellipse cx="140.6691" cy="184.2936" fill="#006ca1" rx="10.0" ry="10.0" stroke-width="0" transform=" rotate(0, 140, 184)"/><rect fill="#006ca1" height="20" stroke-width="0" transform=" rotate(0, 186, 182)" width="20" x="176.6576" y="172.7307"/><polygon fill="#006ca1" points="214.0014,193.8314 224.0014,173.8314 234.0014,193.8314" stroke-width="0" transform=" rotate(0, 224, 183)"/><ellipse cx="269.4527" cy="182.179" fill="#006ca1" rx="10.0" ry="10.0" stroke-width="0" transform=" rotate(0, 269, 182)"/><rect fill="#1b9fd8" height="20" stroke-width="0" transform=" rotate(0, 64, 220)" width="20" x="54.263" y="210.0032"/><polygon fill="#1b9fd8" points="95.691,239.5384 105.691,219.5384 115.691,239.5384" stroke-width="0" transform=" rotate(0, 105, 229)"/><ellipse cx="147.1206" cy="219.3627" fill="#1b9fd8" rx="10.0" ry="10.0" stroke-width="0" transform=" rotate(0, 147, 219)"/><rect fill="#1b9fd8" height="20" stroke-width="0" transform=" rotate(0, 181, 226)" width="20" x="171.9689" y="216.9384"/><polygon fill="#1b9fd8" points="216.7992,230.1804 226.7992,210.1804 236.7992,230.1804" stroke-width="0" transform=" rotate(0, 226, 220)"/><ellipse cx="270.3179" cy="224.249" fill="#1b9fd8" rx="10.0" ry="10.0" stroke-width="0" transform=" rotate(0, 270, 224)"/><rect fill="#6dd6ff" height="20" stroke-width="0" transform=" rotate(0, 59, 260)" width="20" x="49.3285" y="250.0168"/><polygon fill="#6dd6ff" points="93.3701,278.6052 103.3701,258.6052 113.3701,278.6052" stroke-width="0" transform=" rotate(0, 103, 268)"/><ellipse cx="146.9292" cy="265.756" fill="#6dd6ff" rx="10.0" ry="10.0" stroke-width="0" transform=" rotate(0, 146, 265)"/><rect fill="#6dd6ff" height="20" stroke-width="0" transform=" rotate(0, 184, 263)" width="20" x="174.2761" y="253.2071"/><polygon fill="#6dd6ff" points="220.2797,279.5514 230.2797,259.5514 240.2797,279.5514" stroke-width="0" transform=" rotate(0, 230, 269)"/><ellipse cx="267.1371" cy="263.5879" fill="#6dd6ff" rx="10.0" ry="10.0" stroke-width="0" transform=" rotate(0, 267, 263)"/></svg>