<svg baseProfile="tiny" height="330" version="1.2" width="330" xmlns="http://www.w3.org/2000/svg" xmlns:ev="http://www.w3.org/2001/xml-events" xmlns:xlink="http://www.w3.org/1999/xlink"><defs/><rect fill="white" height="330" width="330" x="0" y="0"/><rect fill="#6dd6ff" height="20" stroke-width="0" transform=" rotate(0, 54, 65)" width="20" x="44.9727" y="55.0444"/><polygon fill="#6dd6ff" points="93.2146,85.52 103.2146,65.52 113.2146,85.52" stroke-width="0" transform=" rotate(0, 103, 75)"/><ellipse cx="149.6574" cy="68.9456" fill="#6dd6ff" rx="10.0" ry="10.0" stroke-width="0" transform=" rotate(0, 149, 68)"/><rect fill="#6dd6ff" height="20" stroke-width="0" transform=" rotate(0, 174, 68)" width="20" x="164.1278" y="58.1007"/><polygon fill="#6dd6ff" points="223.9056,77.1315 233.9056,57.1315 243.9056,77.1315" stroke-width="0" transform=" rotate(0, 233, 67)"/><ellipse cx="269.6493" cy="67.9291" fill="#6dd6ff" rx="10.0" ry="10.0" stroke-width="0" transform=" rotate(0, 269, 67)"/><rect fill="#1b9fd8" height="20" stroke-width="0" transform=" rotate(0, 64, 108)" width="20" x="54.8661" y="98.7233"/><polygon fill="#1b9fd8" points="84.3168,126.5647 94.3168,106.5647 104.3168,126.5647" stroke-width="0" transform=" rotate(0, 94, 116)"/><ellipse cx="152.6625" cy="101.2023" fill="#1b9fd8" rx="10.0" ry="10.0" stroke-width="0" transform=" rotate(0, 152, 101)"/><rect fill="#1b9fd8" height="20" stroke-width="0" transform=" rotate(0, 181, 115)" width="20" x="171.73" y="105.5843"/><polygon fill="#1b9fd8" points="207.0711,112.0448 217.0711,92.0448 227.0711,112.0448" stroke-width="0" transform=" rotate(0, 217, 102)"/><ellipse cx="266.843" cy="99.4122" fill="#1b9fd8" rx="10.0" ry="10.0" stroke-width="0" transform=" rotate(0, 266, 99)"/><rect fill="#006ca1" height="20" stroke-width="0" transform=" rotate(0, 75, 134)" width="20" x="65.5259" y="124.7748"/><polygon fill="#006ca1" points="86.318,165.669 96.318,145.669 106.318,165.669" stroke-width="0" transform=" rotate(0, 96, 155)"/><ellipse cx="146.1082" cy="136.3114" fill="#006ca1" rx="10.0" ry="10.0" stroke-width="0" transform=" rotate(0, 146, 136)"/><rect fill="#006ca1" height="20" stroke-width="0" transform=" rotate(0, 189, 142)" width="20" x="179.0815" y="132.3099"/><polygon fill="#006ca1" points="206.0264,164.789 216.0264,144.789 226.0264,164.789" stroke-width="0" transform=" rotate(0, 216, 154)"/><ellipse cx="264.9246" cy="150.9059" fill="#006ca1" rx="10.0" ry="10.0" stroke-width="0" transform=" rotate(0, 264, 150)"/><rect fill="#006ca1" height="20" stroke-width="0" transform=" rotate(0, 68, 179)" width="20" x="58.7418" y="169.2931"/><polygon fill="#006ca1" points="93.7324,191.6815 103.7324,171.6815 113.7324,191.6815" stroke-width="0" transform=" rotate(0, 103, 181)"/><ellipse cx="136.3382" cy="183.5872" fill="#006ca1" rx="10.0" ry="10.0" stroke-width="0" transform=" rotate(0, 136, 183)"/><rect fill="#006ca1" height="20" stroke-width="0" transform=" rotate(0, 188, 180)" width="20" x="178.3152" y="170.4614"/><polygon fill="#006ca1" points="213.0029,192.6628 223.0029,172.6628 233.0029,192.6628" stroke-width="0" transform=" rotate(0, 223, 182)"/><ellipse cx="273.9053" cy="179.3579" fill="#006ca1" rx="10.0" ry="10.0" stroke-width="0" transform=" rotate(0, 273, 179)"/><rect fill="#1b9fd8" height="20" stroke-width="0" transform=" rotate(0, 63, 215)" width="20" x="53.5261" y="205.0065"/><polygon fill="#1b9fd8" points="96.382,244.0769 106.382,224.0769 116.382,244.0769" stroke-width="0" transform=" rotate(0, 106, 234)"/><ellipse cx="149.2412" cy="213.7254" fill="#1b9fd8" rx="10.0" ry="10.0" stroke-width="0" transform=" rotate(0, 149, 213)"/><rect fill="#1b9fd8" height="20" stroke-width="0" transform=" rotate(0, 178, 228)" width="20" x="168.9378" y="218.8767"/><polygon fill="#1b9fd8" points="218.5984,225.3607 228.5984,205.3607 238.5984,225.3607" stroke-width="0" transform=" rotate(0, 228, 215)"/><ellipse cx="275.6358" cy="223.4981" fill="#1b9fd8" rx="10.0" ry="10.0" stroke-width="0" transform=" rotate(0, 275, 223)"/><rect fill="#6dd6ff" height="20" stroke-width="0" transform=" rotate(0, 53, 255)" width="20" x="43.657" y="245.0335"/><polygon fill="#6dd6ff" points="91.7403,282.2104 101.7403,262.2104 111.7403,282.2104" stroke-width="0" transform=" rotate(0, 101, 272)"/><ellipse cx="148.8585" cy="266.512" fill="#6dd6ff" rx="10.0" ry="10.0" stroke-width="0" transform=" rotate(0, 148, 266)"/><rect fill="#6dd6ff" height="20" stroke-width="0" transform=" rotate(0, 183, 261)" width="20" x="173.5522" y="251.4142"/><polygon fill="#6dd6ff" points="225.5594,284.1028 235.5594,264.1028 245.5594,284.1028" stroke-width="0" transform=" rotate(0, 235, 274)"/><ellipse cx="269.2742" cy="262.1757" fill="#6dd6ff" rx="10.0" ry="10.0" stroke-width="0" transform=" rotate(0, 269, 262)"/></svg>