<svg viewBox="0 0 500 500" xmlns="http://www.w3.org/2000/svg" xmlns:xlink="http://www.w3.org/1999/xlink" width="100%" id="blobSvg">
  <path id="blob" d="M404.5,275.5Q383,301,403,354Q423,407,386,427.5Q349,448,303,386.5Q257,325,229.5,372Q202,419,200,369Q198,319,172,316.5Q146,314,108,299Q70,284,107,257Q144,230,93.5,176Q43,122,98,121.5Q153,121,190,146Q227,171,248,106.5Q269,42,310.5,44Q352,46,393,64Q434,82,450.5,124Q467,166,446.5,208Q426,250,404.5,275.5Z" fill="none" stroke-width="7px" stroke="#00cec9"></path>
</svg>