<svg id="Layer_1" data-name="Layer 1" xmlns="http://www.w3.org/2000/svg" viewBox="0 0 86.5 122.88"><defs><style>.cls-1{fill:#fbd734;}.cls-1,.cls-2{fill-rule:evenodd;}.cls-2{fill:#36464e;}</style></defs><title>unlocked</title><path class="cls-1" d="M5.54,53.25H81a5.57,5.57,0,0,1,5.54,5.54v58.55A5.56,5.56,0,0,1,81,122.88H5.54A5.55,5.55,0,0,1,0,117.34V58.79a5.56,5.56,0,0,1,5.54-5.54Z"/><path class="cls-2" d="M38.7,91.82l-6,15.66H53.77L48.23,91.6a10.9,10.9,0,1,0-9.53.22Z"/><path class="cls-2" d="M66.69,34.16a25.17,25.17,0,0,0-6.94-16.49,22.56,22.56,0,0,0-33,0,25.22,25.22,0,0,0-7,17.52V53.25H9.29V35.19A35.76,35.76,0,0,1,19.2,10.42a33,33,0,0,1,48.09,0,35.69,35.69,0,0,1,9.9,23.74Z"/></svg>