<?xml version="1.0" encoding="utf-8" ?>
<svg baseProfile="tiny" height="330" version="1.2" width="330" xmlns="http://www.w3.org/2000/svg" xmlns:ev="http://www.w3.org/2001/xml-events" xmlns:xlink="http://www.w3.org/1999/xlink">
  <defs/>
  <rect fill="white" height="330" width="330" x="0" y="0"/>
  <polygon fill="#006ca1" points="60.0,52.5 54.6967,54.6967 52.5,60.0 54.6967,65.3033 60.0,67.5 65.3033,65.3033 67.5,60.0 65.3033,54.6967" stroke-width="0" transform=" rotate(0, 60, 60)"/>
  <polygon fill="#006ca1" points="90.0,52.5 84.6967,54.6967 82.5,60.0 84.6967,65.3033 90.0,67.5 95.3033,65.3033 97.5,60.0 95.3033,54.6967" stroke-width="0" transform=" rotate(0, 90, 60)"/>
  <polygon fill="#006ca1" points="120.0,52.5 114.6967,54.6967 112.5,60.0 114.6967,65.3033 120.0,67.5 125.3033,65.3033 127.5,60.0 125.3033,54.6967" stroke-width="0" transform=" rotate(0, 120, 60)"/>
  <polygon fill="#006ca1" points="150.0,52.5 144.6967,54.6967 142.5,60.0 144.6967,65.3033 150.0,67.5 155.3033,65.3033 157.5,60.0 155.3033,54.6967" stroke-width="0" transform=" rotate(0, 150, 60)"/>
  <polygon fill="#006ca1" points="180.0,52.5 174.6967,54.6967 172.5,60.0 174.6967,65.3033 180.0,67.5 185.3033,65.3033 187.5,60.0 185.3033,54.6967" stroke-width="0" transform=" rotate(0, 180, 60)"/>
  <polygon fill="#006ca1" points="210.0,52.5 204.6967,54.6967 202.5,60.0 204.6967,65.3033 210.0,67.5 215.3033,65.3033 217.5,60.0 215.3033,54.6967" stroke-width="0" transform=" rotate(0, 210, 60)"/>
  <polygon fill="#006ca1" points="240.0,52.5 234.6967,54.6967 232.5,60.0 234.6967,65.3033 240.0,67.5 245.3033,65.3033 247.5,60.0 245.3033,54.6967" stroke-width="0" transform=" rotate(0, 240, 60)"/>
  <polygon fill="#006ca1" points="270.0,52.5 264.6967,54.6967 262.5,60.0 264.6967,65.3033 270.0,67.5 275.3033,65.3033 277.5,60.0 275.3033,54.6967" stroke-width="0" transform=" rotate(0, 270, 60)"/>
  <polygon fill="#006ca1" points="60.0,82.5 54.6967,84.6967 52.5,90.0 54.6967,95.3033 60.0,97.5 65.3033,95.3033 67.5,90.0 65.3033,84.6967" stroke-width="0" transform=" rotate(0, 60, 90)"/>
  <polygon fill="#1b9fd8" points="90.0,76.5 80.4541,80.4541 76.5,90.0 80.4541,99.5459 90.0,103.5 99.5459,99.5459 103.5,90.0 99.5459,80.4541" stroke-width="0" transform=" rotate(0, 90, 90)"/>
  <polygon fill="#1b9fd8" points="120.0,76.5 110.4541,80.4541 106.5,90.0 110.4541,99.5459 120.0,103.5 129.5459,99.5459 133.5,90.0 129.5459,80.4541" stroke-width="0" transform=" rotate(0, 120, 90)"/>
  <polygon fill="#1b9fd8" points="150.0,76.5 140.4541,80.4541 136.5,90.0 140.4541,99.5459 150.0,103.5 159.5459,99.5459 163.5,90.0 159.5459,80.4541" stroke-width="0" transform=" rotate(0, 150, 90)"/>
  <polygon fill="#1b9fd8" points="180.0,76.5 170.4541,80.4541 166.5,90.0 170.4541,99.5459 180.0,103.5 189.5459,99.5459 193.5,90.0 189.5459,80.4541" stroke-width="0" transform=" rotate(0, 180, 90)"/>
  <polygon fill="#1b9fd8" points="210.0,76.5 200.4541,80.4541 196.5,90.0 200.4541,99.5459 210.0,103.5 219.5459,99.5459 223.5,90.0 219.5459,80.4541" stroke-width="0" transform=" rotate(0, 210, 90)"/>
  <polygon fill="#1b9fd8" points="240.0,76.5 230.4541,80.4541 226.5,90.0 230.4541,99.5459 240.0,103.5 249.5459,99.5459 253.5,90.0 249.5459,80.4541" stroke-width="0" transform=" rotate(0, 240, 90)"/>
  <polygon fill="#006ca1" points="270.0,82.5 264.6967,84.6967 262.5,90.0 264.6967,95.3033 270.0,97.5 275.3033,95.3033 277.5,90.0 275.3033,84.6967" stroke-width="0" transform=" rotate(0, 270, 90)"/>
  <polygon fill="#006ca1" points="60.0,112.5 54.6967,114.6967 52.5,120.0 54.6967,125.3033 60.0,127.5 65.3033,125.3033 67.5,120.0 65.3033,114.6967" stroke-width="0" transform=" rotate(0, 60, 120)"/>
  <polygon fill="#1b9fd8" points="90.0,106.5 80.4541,110.4541 76.5,120.0 80.4541,129.5459 90.0,133.5 99.5459,129.5459 103.5,120.0 99.5459,110.4541" stroke-width="0" transform=" rotate(0, 90, 120)"/>
  <polygon fill="#006ca1" points="120.0,109.5 112.5754,112.5754 109.5,120.0 112.5754,127.4246 120.0,130.5 127.4246,127.4246 130.5,120.0 127.4246,112.5754" stroke-width="0" transform=" rotate(0, 120, 120)"/>
  <polygon fill="#006ca1" points="150.0,109.5 142.5754,112.5754 139.5,120.0 142.5754,127.4246 150.0,130.5 157.4246,127.4246 160.5,120.0 157.4246,112.5754" stroke-width="0" transform=" rotate(0, 150, 120)"/>
  <polygon fill="#006ca1" points="180.0,109.5 172.5754,112.5754 169.5,120.0 172.5754,127.4246 180.0,130.5 187.4246,127.4246 190.5,120.0 187.4246,112.5754" stroke-width="0" transform=" rotate(0, 180, 120)"/>
  <polygon fill="#006ca1" points="210.0,109.5 202.5754,112.5754 199.5,120.0 202.5754,127.4246 210.0,130.5 217.4246,127.4246 220.5,120.0 217.4246,112.5754" stroke-width="0" transform=" rotate(0, 210, 120)"/>
  <polygon fill="#1b9fd8" points="240.0,106.5 230.4541,110.4541 226.5,120.0 230.4541,129.5459 240.0,133.5 249.5459,129.5459 253.5,120.0 249.5459,110.4541" stroke-width="0" transform=" rotate(0, 240, 120)"/>
  <polygon fill="#006ca1" points="270.0,112.5 264.6967,114.6967 262.5,120.0 264.6967,125.3033 270.0,127.5 275.3033,125.3033 277.5,120.0 275.3033,114.6967" stroke-width="0" transform=" rotate(0, 270, 120)"/>
  <polygon fill="#006ca1" points="60.0,142.5 54.6967,144.6967 52.5,150.0 54.6967,155.3033 60.0,157.5 65.3033,155.3033 67.5,150.0 65.3033,144.6967" stroke-width="0" transform=" rotate(0, 60, 150)"/>
  <polygon fill="#1b9fd8" points="90.0,136.5 80.4541,140.4541 76.5,150.0 80.4541,159.5459 90.0,163.5 99.5459,159.5459 103.5,150.0 99.5459,140.4541" stroke-width="0" transform=" rotate(0, 90, 150)"/>
  <polygon fill="#006ca1" points="120.0,139.5 112.5754,142.5754 109.5,150.0 112.5754,157.4246 120.0,160.5 127.4246,157.4246 130.5,150.0 127.4246,142.5754" stroke-width="0" transform=" rotate(0, 120, 150)"/>
  <polygon fill="#1b9fd8" points="150.0,142.5 144.6967,144.6967 142.5,150.0 144.6967,155.3033 150.0,157.5 155.3033,155.3033 157.5,150.0 155.3033,144.6967" stroke-width="0" transform=" rotate(0, 150, 150)"/>
  <polygon fill="#1b9fd8" points="180.0,142.5 174.6967,144.6967 172.5,150.0 174.6967,155.3033 180.0,157.5 185.3033,155.3033 187.5,150.0 185.3033,144.6967" stroke-width="0" transform=" rotate(0, 180, 150)"/>
  <polygon fill="#006ca1" points="210.0,139.5 202.5754,142.5754 199.5,150.0 202.5754,157.4246 210.0,160.5 217.4246,157.4246 220.5,150.0 217.4246,142.5754" stroke-width="0" transform=" rotate(0, 210, 150)"/>
  <polygon fill="#1b9fd8" points="240.0,136.5 230.4541,140.4541 226.5,150.0 230.4541,159.5459 240.0,163.5 249.5459,159.5459 253.5,150.0 249.5459,140.4541" stroke-width="0" transform=" rotate(0, 240, 150)"/>
  <polygon fill="#006ca1" points="270.0,142.5 264.6967,144.6967 262.5,150.0 264.6967,155.3033 270.0,157.5 275.3033,155.3033 277.5,150.0 275.3033,144.6967" stroke-width="0" transform=" rotate(0, 270, 150)"/>
  <polygon fill="#006ca1" points="60.0,172.5 54.6967,174.6967 52.5,180.0 54.6967,185.3033 60.0,187.5 65.3033,185.3033 67.5,180.0 65.3033,174.6967" stroke-width="0" transform=" rotate(0, 60, 180)"/>
  <polygon fill="#1b9fd8" points="90.0,166.5 80.4541,170.4541 76.5,180.0 80.4541,189.5459 90.0,193.5 99.5459,189.5459 103.5,180.0 99.5459,170.4541" stroke-width="0" transform=" rotate(0, 90, 180)"/>
  <polygon fill="#006ca1" points="120.0,169.5 112.5754,172.5754 109.5,180.0 112.5754,187.4246 120.0,190.5 127.4246,187.4246 130.5,180.0 127.4246,172.5754" stroke-width="0" transform=" rotate(0, 120, 180)"/>
  <polygon fill="#1b9fd8" points="150.0,172.5 144.6967,174.6967 142.5,180.0 144.6967,185.3033 150.0,187.5 155.3033,185.3033 157.5,180.0 155.3033,174.6967" stroke-width="0" transform=" rotate(0, 150, 180)"/>
  <polygon fill="#1b9fd8" points="180.0,172.5 174.6967,174.6967 172.5,180.0 174.6967,185.3033 180.0,187.5 185.3033,185.3033 187.5,180.0 185.3033,174.6967" stroke-width="0" transform=" rotate(0, 180, 180)"/>
  <polygon fill="#006ca1" points="210.0,169.5 202.5754,172.5754 199.5,180.0 202.5754,187.4246 210.0,190.5 217.4246,187.4246 220.5,180.0 217.4246,172.5754" stroke-width="0" transform=" rotate(0, 210, 180)"/>
  <polygon fill="#1b9fd8" points="240.0,166.5 230.4541,170.4541 226.5,180.0 230.4541,189.5459 240.0,193.5 249.5459,189.5459 253.5,180.0 249.5459,170.4541" stroke-width="0" transform=" rotate(0, 240, 180)"/>
  <polygon fill="#006ca1" points="270.0,172.5 264.6967,174.6967 262.5,180.0 264.6967,185.3033 270.0,187.5 275.3033,185.3033 277.5,180.0 275.3033,174.6967" stroke-width="0" transform=" rotate(0, 270, 180)"/>
  <polygon fill="#006ca1" points="60.0,202.5 54.6967,204.6967 52.5,210.0 54.6967,215.3033 60.0,217.5 65.3033,215.3033 67.5,210.0 65.3033,204.6967" stroke-width="0" transform=" rotate(0, 60, 210)"/>
  <polygon fill="#1b9fd8" points="90.0,196.5 80.4541,200.4541 76.5,210.0 80.4541,219.5459 90.0,223.5 99.5459,219.5459 103.5,210.0 99.5459,200.4541" stroke-width="0" transform=" rotate(0, 90, 210)"/>
  <polygon fill="#006ca1" points="120.0,199.5 112.5754,202.5754 109.5,210.0 112.5754,217.4246 120.0,220.5 127.4246,217.4246 130.5,210.0 127.4246,202.5754" stroke-width="0" transform=" rotate(0, 120, 210)"/>
  <polygon fill="#006ca1" points="150.0,199.5 142.5754,202.5754 139.5,210.0 142.5754,217.4246 150.0,220.5 157.4246,217.4246 160.5,210.0 157.4246,202.5754" stroke-width="0" transform=" rotate(0, 150, 210)"/>
  <polygon fill="#006ca1" points="180.0,199.5 172.5754,202.5754 169.5,210.0 172.5754,217.4246 180.0,220.5 187.4246,217.4246 190.5,210.0 187.4246,202.5754" stroke-width="0" transform=" rotate(0, 180, 210)"/>
  <polygon fill="#006ca1" points="210.0,199.5 202.5754,202.5754 199.5,210.0 202.5754,217.4246 210.0,220.5 217.4246,217.4246 220.5,210.0 217.4246,202.5754" stroke-width="0" transform=" rotate(0, 210, 210)"/>
  <polygon fill="#1b9fd8" points="240.0,196.5 230.4541,200.4541 226.5,210.0 230.4541,219.5459 240.0,223.5 249.5459,219.5459 253.5,210.0 249.5459,200.4541" stroke-width="0" transform=" rotate(0, 240, 210)"/>
  <polygon fill="#006ca1" points="270.0,202.5 264.6967,204.6967 262.5,210.0 264.6967,215.3033 270.0,217.5 275.3033,215.3033 277.5,210.0 275.3033,204.6967" stroke-width="0" transform=" rotate(0, 270, 210)"/>
  <polygon fill="#006ca1" points="60.0,232.5 54.6967,234.6967 52.5,240.0 54.6967,245.3033 60.0,247.5 65.3033,245.3033 67.5,240.0 65.3033,234.6967" stroke-width="0" transform=" rotate(0, 60, 240)"/>
  <polygon fill="#1b9fd8" points="90.0,226.5 80.4541,230.4541 76.5,240.0 80.4541,249.5459 90.0,253.5 99.5459,249.5459 103.5,240.0 99.5459,230.4541" stroke-width="0" transform=" rotate(0, 90, 240)"/>
  <polygon fill="#1b9fd8" points="120.0,226.5 110.4541,230.4541 106.5,240.0 110.4541,249.5459 120.0,253.5 129.5459,249.5459 133.5,240.0 129.5459,230.4541" stroke-width="0" transform=" rotate(0, 120, 240)"/>
  <polygon fill="#1b9fd8" points="150.0,226.5 140.4541,230.4541 136.5,240.0 140.4541,249.5459 150.0,253.5 159.5459,249.5459 163.5,240.0 159.5459,230.4541" stroke-width="0" transform=" rotate(0, 150, 240)"/>
  <polygon fill="#1b9fd8" points="180.0,226.5 170.4541,230.4541 166.5,240.0 170.4541,249.5459 180.0,253.5 189.5459,249.5459 193.5,240.0 189.5459,230.4541" stroke-width="0" transform=" rotate(0, 180, 240)"/>
  <polygon fill="#1b9fd8" points="210.0,226.5 200.4541,230.4541 196.5,240.0 200.4541,249.5459 210.0,253.5 219.5459,249.5459 223.5,240.0 219.5459,230.4541" stroke-width="0" transform=" rotate(0, 210, 240)"/>
  <polygon fill="#1b9fd8" points="240.0,226.5 230.4541,230.4541 226.5,240.0 230.4541,249.5459 240.0,253.5 249.5459,249.5459 253.5,240.0 249.5459,230.4541" stroke-width="0" transform=" rotate(0, 240, 240)"/>
  <polygon fill="#006ca1" points="270.0,232.5 264.6967,234.6967 262.5,240.0 264.6967,245.3033 270.0,247.5 275.3033,245.3033 277.5,240.0 275.3033,234.6967" stroke-width="0" transform=" rotate(0, 270, 240)"/>
  <polygon fill="#006ca1" points="60.0,262.5 54.6967,264.6967 52.5,270.0 54.6967,275.3033 60.0,277.5 65.3033,275.3033 67.5,270.0 65.3033,264.6967" stroke-width="0" transform=" rotate(0, 60, 270)"/>
  <polygon fill="#006ca1" points="90.0,262.5 84.6967,264.6967 82.5,270.0 84.6967,275.3033 90.0,277.5 95.3033,275.3033 97.5,270.0 95.3033,264.6967" stroke-width="0" transform=" rotate(0, 90, 270)"/>
  <polygon fill="#006ca1" points="120.0,262.5 114.6967,264.6967 112.5,270.0 114.6967,275.3033 120.0,277.5 125.3033,275.3033 127.5,270.0 125.3033,264.6967" stroke-width="0" transform=" rotate(0, 120, 270)"/>
  <polygon fill="#006ca1" points="150.0,262.5 144.6967,264.6967 142.5,270.0 144.6967,275.3033 150.0,277.5 155.3033,275.3033 157.5,270.0 155.3033,264.6967" stroke-width="0" transform=" rotate(0, 150, 270)"/>
  <polygon fill="#006ca1" points="180.0,262.5 174.6967,264.6967 172.5,270.0 174.6967,275.3033 180.0,277.5 185.3033,275.3033 187.5,270.0 185.3033,264.6967" stroke-width="0" transform=" rotate(0, 180, 270)"/>
  <polygon fill="#006ca1" points="210.0,262.5 204.6967,264.6967 202.5,270.0 204.6967,275.3033 210.0,277.5 215.3033,275.3033 217.5,270.0 215.3033,264.6967" stroke-width="0" transform=" rotate(0, 210, 270)"/>
  <polygon fill="#006ca1" points="240.0,262.5 234.6967,264.6967 232.5,270.0 234.6967,275.3033 240.0,277.5 245.3033,275.3033 247.5,270.0 245.3033,264.6967" stroke-width="0" transform=" rotate(0, 240, 270)"/>
  <polygon fill="#006ca1" points="270.0,262.5 264.6967,264.6967 262.5,270.0 264.6967,275.3033 270.0,277.5 275.3033,275.3033 277.5,270.0 275.3033,264.6967" stroke-width="0" transform=" rotate(0, 270, 270)"/>
</svg>
