<?xml version="1.0" encoding="utf-8" ?>
<svg baseProfile="tiny" height="330" version="1.2" width="330" xmlns="http://www.w3.org/2000/svg" xmlns:ev="http://www.w3.org/2001/xml-events" xmlns:xlink="http://www.w3.org/1999/xlink">
  <defs/>
  <rect fill="white" height="330" width="330" x="0" y="0"/>
  <polygon fill="#006ca1" points="52.5,47.25 48.7877,48.7877 47.25,52.5 48.7877,56.2123 52.5,57.75 56.2123,56.2123 57.75,52.5 56.2123,48.7877" stroke-width="0" transform=" rotate(0, 52, 52)"/>
  <polygon fill="#006ca1" points="67.5,47.25 63.7877,48.7877 62.25,52.5 63.7877,56.2123 67.5,57.75 71.2123,56.2123 72.75,52.5 71.2123,48.7877" stroke-width="0" transform=" rotate(0, 67, 52)"/>
  <polygon fill="#006ca1" points="82.5,47.25 78.7877,48.7877 77.25,52.5 78.7877,56.2123 82.5,57.75 86.2123,56.2123 87.75,52.5 86.2123,48.7877" stroke-width="0" transform=" rotate(0, 82, 52)"/>
  <polygon fill="#006ca1" points="97.5,47.25 93.7877,48.7877 92.25,52.5 93.7877,56.2123 97.5,57.75 101.2123,56.2123 102.75,52.5 101.2123,48.7877" stroke-width="0" transform=" rotate(0, 97, 52)"/>
  <polygon fill="#006ca1" points="112.5,47.25 108.7877,48.7877 107.25,52.5 108.7877,56.2123 112.5,57.75 116.2123,56.2123 117.75,52.5 116.2123,48.7877" stroke-width="0" transform=" rotate(0, 112, 52)"/>
  <polygon fill="#006ca1" points="127.5,47.25 123.7877,48.7877 122.25,52.5 123.7877,56.2123 127.5,57.75 131.2123,56.2123 132.75,52.5 131.2123,48.7877" stroke-width="0" transform=" rotate(0, 127, 52)"/>
  <polygon fill="#006ca1" points="142.5,47.25 138.7877,48.7877 137.25,52.5 138.7877,56.2123 142.5,57.75 146.2123,56.2123 147.75,52.5 146.2123,48.7877" stroke-width="0" transform=" rotate(0, 142, 52)"/>
  <polygon fill="#006ca1" points="157.5,47.25 153.7877,48.7877 152.25,52.5 153.7877,56.2123 157.5,57.75 161.2123,56.2123 162.75,52.5 161.2123,48.7877" stroke-width="0" transform=" rotate(0, 157, 52)"/>
  <polygon fill="#006ca1" points="172.5,47.25 168.7877,48.7877 167.25,52.5 168.7877,56.2123 172.5,57.75 176.2123,56.2123 177.75,52.5 176.2123,48.7877" stroke-width="0" transform=" rotate(0, 172, 52)"/>
  <polygon fill="#006ca1" points="187.5,47.25 183.7877,48.7877 182.25,52.5 183.7877,56.2123 187.5,57.75 191.2123,56.2123 192.75,52.5 191.2123,48.7877" stroke-width="0" transform=" rotate(0, 187, 52)"/>
  <polygon fill="#006ca1" points="202.5,47.25 198.7877,48.7877 197.25,52.5 198.7877,56.2123 202.5,57.75 206.2123,56.2123 207.75,52.5 206.2123,48.7877" stroke-width="0" transform=" rotate(0, 202, 52)"/>
  <polygon fill="#006ca1" points="217.5,47.25 213.7877,48.7877 212.25,52.5 213.7877,56.2123 217.5,57.75 221.2123,56.2123 222.75,52.5 221.2123,48.7877" stroke-width="0" transform=" rotate(0, 217, 52)"/>
  <polygon fill="#006ca1" points="232.5,47.25 228.7877,48.7877 227.25,52.5 228.7877,56.2123 232.5,57.75 236.2123,56.2123 237.75,52.5 236.2123,48.7877" stroke-width="0" transform=" rotate(0, 232, 52)"/>
  <polygon fill="#006ca1" points="247.5,47.25 243.7877,48.7877 242.25,52.5 243.7877,56.2123 247.5,57.75 251.2123,56.2123 252.75,52.5 251.2123,48.7877" stroke-width="0" transform=" rotate(0, 247, 52)"/>
  <polygon fill="#006ca1" points="262.5,47.25 258.7877,48.7877 257.25,52.5 258.7877,56.2123 262.5,57.75 266.2123,56.2123 267.75,52.5 266.2123,48.7877" stroke-width="0" transform=" rotate(0, 262, 52)"/>
  <polygon fill="#006ca1" points="277.5,47.25 273.7877,48.7877 272.25,52.5 273.7877,56.2123 277.5,57.75 281.2123,56.2123 282.75,52.5 281.2123,48.7877" stroke-width="0" transform=" rotate(0, 277, 52)"/>
  <polygon fill="#006ca1" points="52.5,62.25 48.7877,63.7877 47.25,67.5 48.7877,71.2123 52.5,72.75 56.2123,71.2123 57.75,67.5 56.2123,63.7877" stroke-width="0" transform=" rotate(0, 52, 67)"/>
  <polygon fill="#1b9fd8" points="67.5,63.75 64.8483,64.8483 63.75,67.5 64.8483,70.1517 67.5,71.25 70.1517,70.1517 71.25,67.5 70.1517,64.8483" stroke-width="0" transform=" rotate(0, 67, 67)"/>
  <polygon fill="#1b9fd8" points="82.5,63.75 79.8483,64.8483 78.75,67.5 79.8483,70.1517 82.5,71.25 85.1517,70.1517 86.25,67.5 85.1517,64.8483" stroke-width="0" transform=" rotate(0, 82, 67)"/>
  <polygon fill="#1b9fd8" points="97.5,63.75 94.8483,64.8483 93.75,67.5 94.8483,70.1517 97.5,71.25 100.1517,70.1517 101.25,67.5 100.1517,64.8483" stroke-width="0" transform=" rotate(0, 97, 67)"/>
  <polygon fill="#1b9fd8" points="112.5,63.75 109.8483,64.8483 108.75,67.5 109.8483,70.1517 112.5,71.25 115.1517,70.1517 116.25,67.5 115.1517,64.8483" stroke-width="0" transform=" rotate(0, 112, 67)"/>
  <polygon fill="#1b9fd8" points="127.5,63.75 124.8483,64.8483 123.75,67.5 124.8483,70.1517 127.5,71.25 130.1517,70.1517 131.25,67.5 130.1517,64.8483" stroke-width="0" transform=" rotate(0, 127, 67)"/>
  <polygon fill="#1b9fd8" points="142.5,63.75 139.8483,64.8483 138.75,67.5 139.8483,70.1517 142.5,71.25 145.1517,70.1517 146.25,67.5 145.1517,64.8483" stroke-width="0" transform=" rotate(0, 142, 67)"/>
  <polygon fill="#1b9fd8" points="157.5,63.75 154.8483,64.8483 153.75,67.5 154.8483,70.1517 157.5,71.25 160.1517,70.1517 161.25,67.5 160.1517,64.8483" stroke-width="0" transform=" rotate(0, 157, 67)"/>
  <polygon fill="#1b9fd8" points="172.5,63.75 169.8483,64.8483 168.75,67.5 169.8483,70.1517 172.5,71.25 175.1517,70.1517 176.25,67.5 175.1517,64.8483" stroke-width="0" transform=" rotate(0, 172, 67)"/>
  <polygon fill="#1b9fd8" points="187.5,63.75 184.8483,64.8483 183.75,67.5 184.8483,70.1517 187.5,71.25 190.1517,70.1517 191.25,67.5 190.1517,64.8483" stroke-width="0" transform=" rotate(0, 187, 67)"/>
  <polygon fill="#1b9fd8" points="202.5,63.75 199.8483,64.8483 198.75,67.5 199.8483,70.1517 202.5,71.25 205.1517,70.1517 206.25,67.5 205.1517,64.8483" stroke-width="0" transform=" rotate(0, 202, 67)"/>
  <polygon fill="#1b9fd8" points="217.5,63.75 214.8483,64.8483 213.75,67.5 214.8483,70.1517 217.5,71.25 220.1517,70.1517 221.25,67.5 220.1517,64.8483" stroke-width="0" transform=" rotate(0, 217, 67)"/>
  <polygon fill="#1b9fd8" points="232.5,63.75 229.8483,64.8483 228.75,67.5 229.8483,70.1517 232.5,71.25 235.1517,70.1517 236.25,67.5 235.1517,64.8483" stroke-width="0" transform=" rotate(0, 232, 67)"/>
  <polygon fill="#1b9fd8" points="247.5,63.75 244.8483,64.8483 243.75,67.5 244.8483,70.1517 247.5,71.25 250.1517,70.1517 251.25,67.5 250.1517,64.8483" stroke-width="0" transform=" rotate(0, 247, 67)"/>
  <polygon fill="#1b9fd8" points="262.5,63.75 259.8483,64.8483 258.75,67.5 259.8483,70.1517 262.5,71.25 265.1517,70.1517 266.25,67.5 265.1517,64.8483" stroke-width="0" transform=" rotate(0, 262, 67)"/>
  <polygon fill="#006ca1" points="277.5,62.25 273.7877,63.7877 272.25,67.5 273.7877,71.2123 277.5,72.75 281.2123,71.2123 282.75,67.5 281.2123,63.7877" stroke-width="0" transform=" rotate(0, 277, 67)"/>
  <polygon fill="#006ca1" points="52.5,77.25 48.7877,78.7877 47.25,82.5 48.7877,86.2123 52.5,87.75 56.2123,86.2123 57.75,82.5 56.2123,78.7877" stroke-width="0" transform=" rotate(0, 52, 82)"/>
  <polygon fill="#1b9fd8" points="67.5,78.75 64.8483,79.8483 63.75,82.5 64.8483,85.1517 67.5,86.25 70.1517,85.1517 71.25,82.5 70.1517,79.8483" stroke-width="0" transform=" rotate(0, 67, 82)"/>
  <polygon fill="#006ca1" points="82.5,75.75 77.727,77.727 75.75,82.5 77.727,87.273 82.5,89.25 87.273,87.273 89.25,82.5 87.273,77.727" stroke-width="0" transform=" rotate(0, 82, 82)"/>
  <polygon fill="#006ca1" points="97.5,75.75 92.727,77.727 90.75,82.5 92.727,87.273 97.5,89.25 102.273,87.273 104.25,82.5 102.273,77.727" stroke-width="0" transform=" rotate(0, 97, 82)"/>
  <polygon fill="#006ca1" points="112.5,75.75 107.727,77.727 105.75,82.5 107.727,87.273 112.5,89.25 117.273,87.273 119.25,82.5 117.273,77.727" stroke-width="0" transform=" rotate(0, 112, 82)"/>
  <polygon fill="#006ca1" points="127.5,75.75 122.727,77.727 120.75,82.5 122.727,87.273 127.5,89.25 132.273,87.273 134.25,82.5 132.273,77.727" stroke-width="0" transform=" rotate(0, 127, 82)"/>
  <polygon fill="#006ca1" points="142.5,75.75 137.727,77.727 135.75,82.5 137.727,87.273 142.5,89.25 147.273,87.273 149.25,82.5 147.273,77.727" stroke-width="0" transform=" rotate(0, 142, 82)"/>
  <polygon fill="#006ca1" points="157.5,75.75 152.727,77.727 150.75,82.5 152.727,87.273 157.5,89.25 162.273,87.273 164.25,82.5 162.273,77.727" stroke-width="0" transform=" rotate(0, 157, 82)"/>
  <polygon fill="#006ca1" points="172.5,75.75 167.727,77.727 165.75,82.5 167.727,87.273 172.5,89.25 177.273,87.273 179.25,82.5 177.273,77.727" stroke-width="0" transform=" rotate(0, 172, 82)"/>
  <polygon fill="#006ca1" points="187.5,75.75 182.727,77.727 180.75,82.5 182.727,87.273 187.5,89.25 192.273,87.273 194.25,82.5 192.273,77.727" stroke-width="0" transform=" rotate(0, 187, 82)"/>
  <polygon fill="#006ca1" points="202.5,75.75 197.727,77.727 195.75,82.5 197.727,87.273 202.5,89.25 207.273,87.273 209.25,82.5 207.273,77.727" stroke-width="0" transform=" rotate(0, 202, 82)"/>
  <polygon fill="#006ca1" points="217.5,75.75 212.727,77.727 210.75,82.5 212.727,87.273 217.5,89.25 222.273,87.273 224.25,82.5 222.273,77.727" stroke-width="0" transform=" rotate(0, 217, 82)"/>
  <polygon fill="#006ca1" points="232.5,75.75 227.727,77.727 225.75,82.5 227.727,87.273 232.5,89.25 237.273,87.273 239.25,82.5 237.273,77.727" stroke-width="0" transform=" rotate(0, 232, 82)"/>
  <polygon fill="#006ca1" points="247.5,75.75 242.727,77.727 240.75,82.5 242.727,87.273 247.5,89.25 252.273,87.273 254.25,82.5 252.273,77.727" stroke-width="0" transform=" rotate(0, 247, 82)"/>
  <polygon fill="#1b9fd8" points="262.5,78.75 259.8483,79.8483 258.75,82.5 259.8483,85.1517 262.5,86.25 265.1517,85.1517 266.25,82.5 265.1517,79.8483" stroke-width="0" transform=" rotate(0, 262, 82)"/>
  <polygon fill="#006ca1" points="277.5,77.25 273.7877,78.7877 272.25,82.5 273.7877,86.2123 277.5,87.75 281.2123,86.2123 282.75,82.5 281.2123,78.7877" stroke-width="0" transform=" rotate(0, 277, 82)"/>
  <polygon fill="#006ca1" points="52.5,92.25 48.7877,93.7877 47.25,97.5 48.7877,101.2123 52.5,102.75 56.2123,101.2123 57.75,97.5 56.2123,93.7877" stroke-width="0" transform=" rotate(0, 52, 97)"/>
  <polygon fill="#1b9fd8" points="67.5,93.75 64.8483,94.8483 63.75,97.5 64.8483,100.1517 67.5,101.25 70.1517,100.1517 71.25,97.5 70.1517,94.8483" stroke-width="0" transform=" rotate(0, 67, 97)"/>
  <polygon fill="#006ca1" points="82.5,90.75 77.727,92.727 75.75,97.5 77.727,102.273 82.5,104.25 87.273,102.273 89.25,97.5 87.273,92.727" stroke-width="0" transform=" rotate(0, 82, 97)"/>
  <polygon fill="#1b9fd8" points="97.5,92.25 93.7877,93.7877 92.25,97.5 93.7877,101.2123 97.5,102.75 101.2123,101.2123 102.75,97.5 101.2123,93.7877" stroke-width="0" transform=" rotate(0, 97, 97)"/>
  <polygon fill="#1b9fd8" points="112.5,92.25 108.7877,93.7877 107.25,97.5 108.7877,101.2123 112.5,102.75 116.2123,101.2123 117.75,97.5 116.2123,93.7877" stroke-width="0" transform=" rotate(0, 112, 97)"/>
  <polygon fill="#1b9fd8" points="127.5,92.25 123.7877,93.7877 122.25,97.5 123.7877,101.2123 127.5,102.75 131.2123,101.2123 132.75,97.5 131.2123,93.7877" stroke-width="0" transform=" rotate(0, 127, 97)"/>
  <polygon fill="#1b9fd8" points="142.5,92.25 138.7877,93.7877 137.25,97.5 138.7877,101.2123 142.5,102.75 146.2123,101.2123 147.75,97.5 146.2123,93.7877" stroke-width="0" transform=" rotate(0, 142, 97)"/>
  <polygon fill="#1b9fd8" points="157.5,92.25 153.7877,93.7877 152.25,97.5 153.7877,101.2123 157.5,102.75 161.2123,101.2123 162.75,97.5 161.2123,93.7877" stroke-width="0" transform=" rotate(0, 157, 97)"/>
  <polygon fill="#1b9fd8" points="172.5,92.25 168.7877,93.7877 167.25,97.5 168.7877,101.2123 172.5,102.75 176.2123,101.2123 177.75,97.5 176.2123,93.7877" stroke-width="0" transform=" rotate(0, 172, 97)"/>
  <polygon fill="#1b9fd8" points="187.5,92.25 183.7877,93.7877 182.25,97.5 183.7877,101.2123 187.5,102.75 191.2123,101.2123 192.75,97.5 191.2123,93.7877" stroke-width="0" transform=" rotate(0, 187, 97)"/>
  <polygon fill="#1b9fd8" points="202.5,92.25 198.7877,93.7877 197.25,97.5 198.7877,101.2123 202.5,102.75 206.2123,101.2123 207.75,97.5 206.2123,93.7877" stroke-width="0" transform=" rotate(0, 202, 97)"/>
  <polygon fill="#1b9fd8" points="217.5,92.25 213.7877,93.7877 212.25,97.5 213.7877,101.2123 217.5,102.75 221.2123,101.2123 222.75,97.5 221.2123,93.7877" stroke-width="0" transform=" rotate(0, 217, 97)"/>
  <polygon fill="#1b9fd8" points="232.5,92.25 228.7877,93.7877 227.25,97.5 228.7877,101.2123 232.5,102.75 236.2123,101.2123 237.75,97.5 236.2123,93.7877" stroke-width="0" transform=" rotate(0, 232, 97)"/>
  <polygon fill="#006ca1" points="247.5,90.75 242.727,92.727 240.75,97.5 242.727,102.273 247.5,104.25 252.273,102.273 254.25,97.5 252.273,92.727" stroke-width="0" transform=" rotate(0, 247, 97)"/>
  <polygon fill="#1b9fd8" points="262.5,93.75 259.8483,94.8483 258.75,97.5 259.8483,100.1517 262.5,101.25 265.1517,100.1517 266.25,97.5 265.1517,94.8483" stroke-width="0" transform=" rotate(0, 262, 97)"/>
  <polygon fill="#006ca1" points="277.5,92.25 273.7877,93.7877 272.25,97.5 273.7877,101.2123 277.5,102.75 281.2123,101.2123 282.75,97.5 281.2123,93.7877" stroke-width="0" transform=" rotate(0, 277, 97)"/>
  <polygon fill="#006ca1" points="52.5,107.25 48.7877,108.7877 47.25,112.5 48.7877,116.2123 52.5,117.75 56.2123,116.2123 57.75,112.5 56.2123,108.7877" stroke-width="0" transform=" rotate(0, 52, 112)"/>
  <polygon fill="#1b9fd8" points="67.5,108.75 64.8483,109.8483 63.75,112.5 64.8483,115.1517 67.5,116.25 70.1517,115.1517 71.25,112.5 70.1517,109.8483" stroke-width="0" transform=" rotate(0, 67, 112)"/>
  <polygon fill="#006ca1" points="82.5,105.75 77.727,107.727 75.75,112.5 77.727,117.273 82.5,119.25 87.273,117.273 89.25,112.5 87.273,107.727" stroke-width="0" transform=" rotate(0, 82, 112)"/>
  <polygon fill="#1b9fd8" points="97.5,107.25 93.7877,108.7877 92.25,112.5 93.7877,116.2123 97.5,117.75 101.2123,116.2123 102.75,112.5 101.2123,108.7877" stroke-width="0" transform=" rotate(0, 97, 112)"/>
  <polygon fill="#006ca1" points="112.5,108.75 109.8483,109.8483 108.75,112.5 109.8483,115.1517 112.5,116.25 115.1517,115.1517 116.25,112.5 115.1517,109.8483" stroke-width="0" transform=" rotate(0, 112, 112)"/>
  <polygon fill="#006ca1" points="127.5,108.75 124.8483,109.8483 123.75,112.5 124.8483,115.1517 127.5,116.25 130.1517,115.1517 131.25,112.5 130.1517,109.8483" stroke-width="0" transform=" rotate(0, 127, 112)"/>
  <polygon fill="#006ca1" points="142.5,108.75 139.8483,109.8483 138.75,112.5 139.8483,115.1517 142.5,116.25 145.1517,115.1517 146.25,112.5 145.1517,109.8483" stroke-width="0" transform=" rotate(0, 142, 112)"/>
  <polygon fill="#006ca1" points="157.5,108.75 154.8483,109.8483 153.75,112.5 154.8483,115.1517 157.5,116.25 160.1517,115.1517 161.25,112.5 160.1517,109.8483" stroke-width="0" transform=" rotate(0, 157, 112)"/>
  <polygon fill="#006ca1" points="172.5,108.75 169.8483,109.8483 168.75,112.5 169.8483,115.1517 172.5,116.25 175.1517,115.1517 176.25,112.5 175.1517,109.8483" stroke-width="0" transform=" rotate(0, 172, 112)"/>
  <polygon fill="#006ca1" points="187.5,108.75 184.8483,109.8483 183.75,112.5 184.8483,115.1517 187.5,116.25 190.1517,115.1517 191.25,112.5 190.1517,109.8483" stroke-width="0" transform=" rotate(0, 187, 112)"/>
  <polygon fill="#006ca1" points="202.5,108.75 199.8483,109.8483 198.75,112.5 199.8483,115.1517 202.5,116.25 205.1517,115.1517 206.25,112.5 205.1517,109.8483" stroke-width="0" transform=" rotate(0, 202, 112)"/>
  <polygon fill="#006ca1" points="217.5,108.75 214.8483,109.8483 213.75,112.5 214.8483,115.1517 217.5,116.25 220.1517,115.1517 221.25,112.5 220.1517,109.8483" stroke-width="0" transform=" rotate(0, 217, 112)"/>
  <polygon fill="#1b9fd8" points="232.5,107.25 228.7877,108.7877 227.25,112.5 228.7877,116.2123 232.5,117.75 236.2123,116.2123 237.75,112.5 236.2123,108.7877" stroke-width="0" transform=" rotate(0, 232, 112)"/>
  <polygon fill="#006ca1" points="247.5,105.75 242.727,107.727 240.75,112.5 242.727,117.273 247.5,119.25 252.273,117.273 254.25,112.5 252.273,107.727" stroke-width="0" transform=" rotate(0, 247, 112)"/>
  <polygon fill="#1b9fd8" points="262.5,108.75 259.8483,109.8483 258.75,112.5 259.8483,115.1517 262.5,116.25 265.1517,115.1517 266.25,112.5 265.1517,109.8483" stroke-width="0" transform=" rotate(0, 262, 112)"/>
  <polygon fill="#006ca1" points="277.5,107.25 273.7877,108.7877 272.25,112.5 273.7877,116.2123 277.5,117.75 281.2123,116.2123 282.75,112.5 281.2123,108.7877" stroke-width="0" transform=" rotate(0, 277, 112)"/>
  <polygon fill="#006ca1" points="52.5,122.25 48.7877,123.7877 47.25,127.5 48.7877,131.2123 52.5,132.75 56.2123,131.2123 57.75,127.5 56.2123,123.7877" stroke-width="0" transform=" rotate(0, 52, 127)"/>
  <polygon fill="#1b9fd8" points="67.5,123.75 64.8483,124.8483 63.75,127.5 64.8483,130.1517 67.5,131.25 70.1517,130.1517 71.25,127.5 70.1517,124.8483" stroke-width="0" transform=" rotate(0, 67, 127)"/>
  <polygon fill="#006ca1" points="82.5,120.75 77.727,122.727 75.75,127.5 77.727,132.273 82.5,134.25 87.273,132.273 89.25,127.5 87.273,122.727" stroke-width="0" transform=" rotate(0, 82, 127)"/>
  <polygon fill="#1b9fd8" points="97.5,122.25 93.7877,123.7877 92.25,127.5 93.7877,131.2123 97.5,132.75 101.2123,131.2123 102.75,127.5 101.2123,123.7877" stroke-width="0" transform=" rotate(0, 97, 127)"/>
  <polygon fill="#006ca1" points="112.5,123.75 109.8483,124.8483 108.75,127.5 109.8483,130.1517 112.5,131.25 115.1517,130.1517 116.25,127.5 115.1517,124.8483" stroke-width="0" transform=" rotate(0, 112, 127)"/>
  <polygon fill="#1b9fd8" points="127.5,120.75 122.727,122.727 120.75,127.5 122.727,132.273 127.5,134.25 132.273,132.273 134.25,127.5 132.273,122.727" stroke-width="0" transform=" rotate(0, 127, 127)"/>
  <polygon fill="#1b9fd8" points="142.5,120.75 137.727,122.727 135.75,127.5 137.727,132.273 142.5,134.25 147.273,132.273 149.25,127.5 147.273,122.727" stroke-width="0" transform=" rotate(0, 142, 127)"/>
  <polygon fill="#1b9fd8" points="157.5,120.75 152.727,122.727 150.75,127.5 152.727,132.273 157.5,134.25 162.273,132.273 164.25,127.5 162.273,122.727" stroke-width="0" transform=" rotate(0, 157, 127)"/>
  <polygon fill="#1b9fd8" points="172.5,120.75 167.727,122.727 165.75,127.5 167.727,132.273 172.5,134.25 177.273,132.273 179.25,127.5 177.273,122.727" stroke-width="0" transform=" rotate(0, 172, 127)"/>
  <polygon fill="#1b9fd8" points="187.5,120.75 182.727,122.727 180.75,127.5 182.727,132.273 187.5,134.25 192.273,132.273 194.25,127.5 192.273,122.727" stroke-width="0" transform=" rotate(0, 187, 127)"/>
  <polygon fill="#1b9fd8" points="202.5,120.75 197.727,122.727 195.75,127.5 197.727,132.273 202.5,134.25 207.273,132.273 209.25,127.5 207.273,122.727" stroke-width="0" transform=" rotate(0, 202, 127)"/>
  <polygon fill="#006ca1" points="217.5,123.75 214.8483,124.8483 213.75,127.5 214.8483,130.1517 217.5,131.25 220.1517,130.1517 221.25,127.5 220.1517,124.8483" stroke-width="0" transform=" rotate(0, 217, 127)"/>
  <polygon fill="#1b9fd8" points="232.5,122.25 228.7877,123.7877 227.25,127.5 228.7877,131.2123 232.5,132.75 236.2123,131.2123 237.75,127.5 236.2123,123.7877" stroke-width="0" transform=" rotate(0, 232, 127)"/>
  <polygon fill="#006ca1" points="247.5,120.75 242.727,122.727 240.75,127.5 242.727,132.273 247.5,134.25 252.273,132.273 254.25,127.5 252.273,122.727" stroke-width="0" transform=" rotate(0, 247, 127)"/>
  <polygon fill="#1b9fd8" points="262.5,123.75 259.8483,124.8483 258.75,127.5 259.8483,130.1517 262.5,131.25 265.1517,130.1517 266.25,127.5 265.1517,124.8483" stroke-width="0" transform=" rotate(0, 262, 127)"/>
  <polygon fill="#006ca1" points="277.5,122.25 273.7877,123.7877 272.25,127.5 273.7877,131.2123 277.5,132.75 281.2123,131.2123 282.75,127.5 281.2123,123.7877" stroke-width="0" transform=" rotate(0, 277, 127)"/>
  <polygon fill="#006ca1" points="52.5,137.25 48.7877,138.7877 47.25,142.5 48.7877,146.2123 52.5,147.75 56.2123,146.2123 57.75,142.5 56.2123,138.7877" stroke-width="0" transform=" rotate(0, 52, 142)"/>
  <polygon fill="#1b9fd8" points="67.5,138.75 64.8483,139.8483 63.75,142.5 64.8483,145.1517 67.5,146.25 70.1517,145.1517 71.25,142.5 70.1517,139.8483" stroke-width="0" transform=" rotate(0, 67, 142)"/>
  <polygon fill="#006ca1" points="82.5,135.75 77.727,137.727 75.75,142.5 77.727,147.273 82.5,149.25 87.273,147.273 89.25,142.5 87.273,137.727" stroke-width="0" transform=" rotate(0, 82, 142)"/>
  <polygon fill="#1b9fd8" points="97.5,137.25 93.7877,138.7877 92.25,142.5 93.7877,146.2123 97.5,147.75 101.2123,146.2123 102.75,142.5 101.2123,138.7877" stroke-width="0" transform=" rotate(0, 97, 142)"/>
  <polygon fill="#006ca1" points="112.5,138.75 109.8483,139.8483 108.75,142.5 109.8483,145.1517 112.5,146.25 115.1517,145.1517 116.25,142.5 115.1517,139.8483" stroke-width="0" transform=" rotate(0, 112, 142)"/>
  <polygon fill="#1b9fd8" points="127.5,135.75 122.727,137.727 120.75,142.5 122.727,147.273 127.5,149.25 132.273,147.273 134.25,142.5 132.273,137.727" stroke-width="0" transform=" rotate(0, 127, 142)"/>
  <polygon fill="#006ca1" points="142.5,137.25 138.7877,138.7877 137.25,142.5 138.7877,146.2123 142.5,147.75 146.2123,146.2123 147.75,142.5 146.2123,138.7877" stroke-width="0" transform=" rotate(0, 142, 142)"/>
  <polygon fill="#006ca1" points="157.5,137.25 153.7877,138.7877 152.25,142.5 153.7877,146.2123 157.5,147.75 161.2123,146.2123 162.75,142.5 161.2123,138.7877" stroke-width="0" transform=" rotate(0, 157, 142)"/>
  <polygon fill="#006ca1" points="172.5,137.25 168.7877,138.7877 167.25,142.5 168.7877,146.2123 172.5,147.75 176.2123,146.2123 177.75,142.5 176.2123,138.7877" stroke-width="0" transform=" rotate(0, 172, 142)"/>
  <polygon fill="#006ca1" points="187.5,137.25 183.7877,138.7877 182.25,142.5 183.7877,146.2123 187.5,147.75 191.2123,146.2123 192.75,142.5 191.2123,138.7877" stroke-width="0" transform=" rotate(0, 187, 142)"/>
  <polygon fill="#1b9fd8" points="202.5,135.75 197.727,137.727 195.75,142.5 197.727,147.273 202.5,149.25 207.273,147.273 209.25,142.5 207.273,137.727" stroke-width="0" transform=" rotate(0, 202, 142)"/>
  <polygon fill="#006ca1" points="217.5,138.75 214.8483,139.8483 213.75,142.5 214.8483,145.1517 217.5,146.25 220.1517,145.1517 221.25,142.5 220.1517,139.8483" stroke-width="0" transform=" rotate(0, 217, 142)"/>
  <polygon fill="#1b9fd8" points="232.5,137.25 228.7877,138.7877 227.25,142.5 228.7877,146.2123 232.5,147.75 236.2123,146.2123 237.75,142.5 236.2123,138.7877" stroke-width="0" transform=" rotate(0, 232, 142)"/>
  <polygon fill="#006ca1" points="247.5,135.75 242.727,137.727 240.75,142.5 242.727,147.273 247.5,149.25 252.273,147.273 254.25,142.5 252.273,137.727" stroke-width="0" transform=" rotate(0, 247, 142)"/>
  <polygon fill="#1b9fd8" points="262.5,138.75 259.8483,139.8483 258.75,142.5 259.8483,145.1517 262.5,146.25 265.1517,145.1517 266.25,142.5 265.1517,139.8483" stroke-width="0" transform=" rotate(0, 262, 142)"/>
  <polygon fill="#006ca1" points="277.5,137.25 273.7877,138.7877 272.25,142.5 273.7877,146.2123 277.5,147.75 281.2123,146.2123 282.75,142.5 281.2123,138.7877" stroke-width="0" transform=" rotate(0, 277, 142)"/>
  <polygon fill="#006ca1" points="52.5,152.25 48.7877,153.7877 47.25,157.5 48.7877,161.2123 52.5,162.75 56.2123,161.2123 57.75,157.5 56.2123,153.7877" stroke-width="0" transform=" rotate(0, 52, 157)"/>
  <polygon fill="#1b9fd8" points="67.5,153.75 64.8483,154.8483 63.75,157.5 64.8483,160.1517 67.5,161.25 70.1517,160.1517 71.25,157.5 70.1517,154.8483" stroke-width="0" transform=" rotate(0, 67, 157)"/>
  <polygon fill="#006ca1" points="82.5,150.75 77.727,152.727 75.75,157.5 77.727,162.273 82.5,164.25 87.273,162.273 89.25,157.5 87.273,152.727" stroke-width="0" transform=" rotate(0, 82, 157)"/>
  <polygon fill="#1b9fd8" points="97.5,152.25 93.7877,153.7877 92.25,157.5 93.7877,161.2123 97.5,162.75 101.2123,161.2123 102.75,157.5 101.2123,153.7877" stroke-width="0" transform=" rotate(0, 97, 157)"/>
  <polygon fill="#006ca1" points="112.5,153.75 109.8483,154.8483 108.75,157.5 109.8483,160.1517 112.5,161.25 115.1517,160.1517 116.25,157.5 115.1517,154.8483" stroke-width="0" transform=" rotate(0, 112, 157)"/>
  <polygon fill="#1b9fd8" points="127.5,150.75 122.727,152.727 120.75,157.5 122.727,162.273 127.5,164.25 132.273,162.273 134.25,157.5 132.273,152.727" stroke-width="0" transform=" rotate(0, 127, 157)"/>
  <polygon fill="#006ca1" points="142.5,152.25 138.7877,153.7877 137.25,157.5 138.7877,161.2123 142.5,162.75 146.2123,161.2123 147.75,157.5 146.2123,153.7877" stroke-width="0" transform=" rotate(0, 142, 157)"/>
  <polygon fill="#1b9fd8" points="157.5,153.75 154.8483,154.8483 153.75,157.5 154.8483,160.1517 157.5,161.25 160.1517,160.1517 161.25,157.5 160.1517,154.8483" stroke-width="0" transform=" rotate(0, 157, 157)"/>
  <polygon fill="#1b9fd8" points="172.5,153.75 169.8483,154.8483 168.75,157.5 169.8483,160.1517 172.5,161.25 175.1517,160.1517 176.25,157.5 175.1517,154.8483" stroke-width="0" transform=" rotate(0, 172, 157)"/>
  <polygon fill="#006ca1" points="187.5,152.25 183.7877,153.7877 182.25,157.5 183.7877,161.2123 187.5,162.75 191.2123,161.2123 192.75,157.5 191.2123,153.7877" stroke-width="0" transform=" rotate(0, 187, 157)"/>
  <polygon fill="#1b9fd8" points="202.5,150.75 197.727,152.727 195.75,157.5 197.727,162.273 202.5,164.25 207.273,162.273 209.25,157.5 207.273,152.727" stroke-width="0" transform=" rotate(0, 202, 157)"/>
  <polygon fill="#006ca1" points="217.5,153.75 214.8483,154.8483 213.75,157.5 214.8483,160.1517 217.5,161.25 220.1517,160.1517 221.25,157.5 220.1517,154.8483" stroke-width="0" transform=" rotate(0, 217, 157)"/>
  <polygon fill="#1b9fd8" points="232.5,152.25 228.7877,153.7877 227.25,157.5 228.7877,161.2123 232.5,162.75 236.2123,161.2123 237.75,157.5 236.2123,153.7877" stroke-width="0" transform=" rotate(0, 232, 157)"/>
  <polygon fill="#006ca1" points="247.5,150.75 242.727,152.727 240.75,157.5 242.727,162.273 247.5,164.25 252.273,162.273 254.25,157.5 252.273,152.727" stroke-width="0" transform=" rotate(0, 247, 157)"/>
  <polygon fill="#1b9fd8" points="262.5,153.75 259.8483,154.8483 258.75,157.5 259.8483,160.1517 262.5,161.25 265.1517,160.1517 266.25,157.5 265.1517,154.8483" stroke-width="0" transform=" rotate(0, 262, 157)"/>
  <polygon fill="#006ca1" points="277.5,152.25 273.7877,153.7877 272.25,157.5 273.7877,161.2123 277.5,162.75 281.2123,161.2123 282.75,157.5 281.2123,153.7877" stroke-width="0" transform=" rotate(0, 277, 157)"/>
  <polygon fill="#006ca1" points="52.5,167.25 48.7877,168.7877 47.25,172.5 48.7877,176.2123 52.5,177.75 56.2123,176.2123 57.75,172.5 56.2123,168.7877" stroke-width="0" transform=" rotate(0, 52, 172)"/>
  <polygon fill="#1b9fd8" points="67.5,168.75 64.8483,169.8483 63.75,172.5 64.8483,175.1517 67.5,176.25 70.1517,175.1517 71.25,172.5 70.1517,169.8483" stroke-width="0" transform=" rotate(0, 67, 172)"/>
  <polygon fill="#006ca1" points="82.5,165.75 77.727,167.727 75.75,172.5 77.727,177.273 82.5,179.25 87.273,177.273 89.25,172.5 87.273,167.727" stroke-width="0" transform=" rotate(0, 82, 172)"/>
  <polygon fill="#1b9fd8" points="97.5,167.25 93.7877,168.7877 92.25,172.5 93.7877,176.2123 97.5,177.75 101.2123,176.2123 102.75,172.5 101.2123,168.7877" stroke-width="0" transform=" rotate(0, 97, 172)"/>
  <polygon fill="#006ca1" points="112.5,168.75 109.8483,169.8483 108.75,172.5 109.8483,175.1517 112.5,176.25 115.1517,175.1517 116.25,172.5 115.1517,169.8483" stroke-width="0" transform=" rotate(0, 112, 172)"/>
  <polygon fill="#1b9fd8" points="127.5,165.75 122.727,167.727 120.75,172.5 122.727,177.273 127.5,179.25 132.273,177.273 134.25,172.5 132.273,167.727" stroke-width="0" transform=" rotate(0, 127, 172)"/>
  <polygon fill="#006ca1" points="142.5,167.25 138.7877,168.7877 137.25,172.5 138.7877,176.2123 142.5,177.75 146.2123,176.2123 147.75,172.5 146.2123,168.7877" stroke-width="0" transform=" rotate(0, 142, 172)"/>
  <polygon fill="#1b9fd8" points="157.5,168.75 154.8483,169.8483 153.75,172.5 154.8483,175.1517 157.5,176.25 160.1517,175.1517 161.25,172.5 160.1517,169.8483" stroke-width="0" transform=" rotate(0, 157, 172)"/>
  <polygon fill="#1b9fd8" points="172.5,168.75 169.8483,169.8483 168.75,172.5 169.8483,175.1517 172.5,176.25 175.1517,175.1517 176.25,172.5 175.1517,169.8483" stroke-width="0" transform=" rotate(0, 172, 172)"/>
  <polygon fill="#006ca1" points="187.5,167.25 183.7877,168.7877 182.25,172.5 183.7877,176.2123 187.5,177.75 191.2123,176.2123 192.75,172.5 191.2123,168.7877" stroke-width="0" transform=" rotate(0, 187, 172)"/>
  <polygon fill="#1b9fd8" points="202.5,165.75 197.727,167.727 195.75,172.5 197.727,177.273 202.5,179.25 207.273,177.273 209.25,172.5 207.273,167.727" stroke-width="0" transform=" rotate(0, 202, 172)"/>
  <polygon fill="#006ca1" points="217.5,168.75 214.8483,169.8483 213.75,172.5 214.8483,175.1517 217.5,176.25 220.1517,175.1517 221.25,172.5 220.1517,169.8483" stroke-width="0" transform=" rotate(0, 217, 172)"/>
  <polygon fill="#1b9fd8" points="232.5,167.25 228.7877,168.7877 227.25,172.5 228.7877,176.2123 232.5,177.75 236.2123,176.2123 237.75,172.5 236.2123,168.7877" stroke-width="0" transform=" rotate(0, 232, 172)"/>
  <polygon fill="#006ca1" points="247.5,165.75 242.727,167.727 240.75,172.5 242.727,177.273 247.5,179.25 252.273,177.273 254.25,172.5 252.273,167.727" stroke-width="0" transform=" rotate(0, 247, 172)"/>
  <polygon fill="#1b9fd8" points="262.5,168.75 259.8483,169.8483 258.75,172.5 259.8483,175.1517 262.5,176.25 265.1517,175.1517 266.25,172.5 265.1517,169.8483" stroke-width="0" transform=" rotate(0, 262, 172)"/>
  <polygon fill="#006ca1" points="277.5,167.25 273.7877,168.7877 272.25,172.5 273.7877,176.2123 277.5,177.75 281.2123,176.2123 282.75,172.5 281.2123,168.7877" stroke-width="0" transform=" rotate(0, 277, 172)"/>
  <polygon fill="#006ca1" points="52.5,182.25 48.7877,183.7877 47.25,187.5 48.7877,191.2123 52.5,192.75 56.2123,191.2123 57.75,187.5 56.2123,183.7877" stroke-width="0" transform=" rotate(0, 52, 187)"/>
  <polygon fill="#1b9fd8" points="67.5,183.75 64.8483,184.8483 63.75,187.5 64.8483,190.1517 67.5,191.25 70.1517,190.1517 71.25,187.5 70.1517,184.8483" stroke-width="0" transform=" rotate(0, 67, 187)"/>
  <polygon fill="#006ca1" points="82.5,180.75 77.727,182.727 75.75,187.5 77.727,192.273 82.5,194.25 87.273,192.273 89.25,187.5 87.273,182.727" stroke-width="0" transform=" rotate(0, 82, 187)"/>
  <polygon fill="#1b9fd8" points="97.5,182.25 93.7877,183.7877 92.25,187.5 93.7877,191.2123 97.5,192.75 101.2123,191.2123 102.75,187.5 101.2123,183.7877" stroke-width="0" transform=" rotate(0, 97, 187)"/>
  <polygon fill="#006ca1" points="112.5,183.75 109.8483,184.8483 108.75,187.5 109.8483,190.1517 112.5,191.25 115.1517,190.1517 116.25,187.5 115.1517,184.8483" stroke-width="0" transform=" rotate(0, 112, 187)"/>
  <polygon fill="#1b9fd8" points="127.5,180.75 122.727,182.727 120.75,187.5 122.727,192.273 127.5,194.25 132.273,192.273 134.25,187.5 132.273,182.727" stroke-width="0" transform=" rotate(0, 127, 187)"/>
  <polygon fill="#006ca1" points="142.5,182.25 138.7877,183.7877 137.25,187.5 138.7877,191.2123 142.5,192.75 146.2123,191.2123 147.75,187.5 146.2123,183.7877" stroke-width="0" transform=" rotate(0, 142, 187)"/>
  <polygon fill="#006ca1" points="157.5,182.25 153.7877,183.7877 152.25,187.5 153.7877,191.2123 157.5,192.75 161.2123,191.2123 162.75,187.5 161.2123,183.7877" stroke-width="0" transform=" rotate(0, 157, 187)"/>
  <polygon fill="#006ca1" points="172.5,182.25 168.7877,183.7877 167.25,187.5 168.7877,191.2123 172.5,192.75 176.2123,191.2123 177.75,187.5 176.2123,183.7877" stroke-width="0" transform=" rotate(0, 172, 187)"/>
  <polygon fill="#006ca1" points="187.5,182.25 183.7877,183.7877 182.25,187.5 183.7877,191.2123 187.5,192.75 191.2123,191.2123 192.75,187.5 191.2123,183.7877" stroke-width="0" transform=" rotate(0, 187, 187)"/>
  <polygon fill="#1b9fd8" points="202.5,180.75 197.727,182.727 195.75,187.5 197.727,192.273 202.5,194.25 207.273,192.273 209.25,187.5 207.273,182.727" stroke-width="0" transform=" rotate(0, 202, 187)"/>
  <polygon fill="#006ca1" points="217.5,183.75 214.8483,184.8483 213.75,187.5 214.8483,190.1517 217.5,191.25 220.1517,190.1517 221.25,187.5 220.1517,184.8483" stroke-width="0" transform=" rotate(0, 217, 187)"/>
  <polygon fill="#1b9fd8" points="232.5,182.25 228.7877,183.7877 227.25,187.5 228.7877,191.2123 232.5,192.75 236.2123,191.2123 237.75,187.5 236.2123,183.7877" stroke-width="0" transform=" rotate(0, 232, 187)"/>
  <polygon fill="#006ca1" points="247.5,180.75 242.727,182.727 240.75,187.5 242.727,192.273 247.5,194.25 252.273,192.273 254.25,187.5 252.273,182.727" stroke-width="0" transform=" rotate(0, 247, 187)"/>
  <polygon fill="#1b9fd8" points="262.5,183.75 259.8483,184.8483 258.75,187.5 259.8483,190.1517 262.5,191.25 265.1517,190.1517 266.25,187.5 265.1517,184.8483" stroke-width="0" transform=" rotate(0, 262, 187)"/>
  <polygon fill="#006ca1" points="277.5,182.25 273.7877,183.7877 272.25,187.5 273.7877,191.2123 277.5,192.75 281.2123,191.2123 282.75,187.5 281.2123,183.7877" stroke-width="0" transform=" rotate(0, 277, 187)"/>
  <polygon fill="#006ca1" points="52.5,197.25 48.7877,198.7877 47.25,202.5 48.7877,206.2123 52.5,207.75 56.2123,206.2123 57.75,202.5 56.2123,198.7877" stroke-width="0" transform=" rotate(0, 52, 202)"/>
  <polygon fill="#1b9fd8" points="67.5,198.75 64.8483,199.8483 63.75,202.5 64.8483,205.1517 67.5,206.25 70.1517,205.1517 71.25,202.5 70.1517,199.8483" stroke-width="0" transform=" rotate(0, 67, 202)"/>
  <polygon fill="#006ca1" points="82.5,195.75 77.727,197.727 75.75,202.5 77.727,207.273 82.5,209.25 87.273,207.273 89.25,202.5 87.273,197.727" stroke-width="0" transform=" rotate(0, 82, 202)"/>
  <polygon fill="#1b9fd8" points="97.5,197.25 93.7877,198.7877 92.25,202.5 93.7877,206.2123 97.5,207.75 101.2123,206.2123 102.75,202.5 101.2123,198.7877" stroke-width="0" transform=" rotate(0, 97, 202)"/>
  <polygon fill="#006ca1" points="112.5,198.75 109.8483,199.8483 108.75,202.5 109.8483,205.1517 112.5,206.25 115.1517,205.1517 116.25,202.5 115.1517,199.8483" stroke-width="0" transform=" rotate(0, 112, 202)"/>
  <polygon fill="#1b9fd8" points="127.5,195.75 122.727,197.727 120.75,202.5 122.727,207.273 127.5,209.25 132.273,207.273 134.25,202.5 132.273,197.727" stroke-width="0" transform=" rotate(0, 127, 202)"/>
  <polygon fill="#1b9fd8" points="142.5,195.75 137.727,197.727 135.75,202.5 137.727,207.273 142.5,209.25 147.273,207.273 149.25,202.5 147.273,197.727" stroke-width="0" transform=" rotate(0, 142, 202)"/>
  <polygon fill="#1b9fd8" points="157.5,195.75 152.727,197.727 150.75,202.5 152.727,207.273 157.5,209.25 162.273,207.273 164.25,202.5 162.273,197.727" stroke-width="0" transform=" rotate(0, 157, 202)"/>
  <polygon fill="#1b9fd8" points="172.5,195.75 167.727,197.727 165.75,202.5 167.727,207.273 172.5,209.25 177.273,207.273 179.25,202.5 177.273,197.727" stroke-width="0" transform=" rotate(0, 172, 202)"/>
  <polygon fill="#1b9fd8" points="187.5,195.75 182.727,197.727 180.75,202.5 182.727,207.273 187.5,209.25 192.273,207.273 194.25,202.5 192.273,197.727" stroke-width="0" transform=" rotate(0, 187, 202)"/>
  <polygon fill="#1b9fd8" points="202.5,195.75 197.727,197.727 195.75,202.5 197.727,207.273 202.5,209.25 207.273,207.273 209.25,202.5 207.273,197.727" stroke-width="0" transform=" rotate(0, 202, 202)"/>
  <polygon fill="#006ca1" points="217.5,198.75 214.8483,199.8483 213.75,202.5 214.8483,205.1517 217.5,206.25 220.1517,205.1517 221.25,202.5 220.1517,199.8483" stroke-width="0" transform=" rotate(0, 217, 202)"/>
  <polygon fill="#1b9fd8" points="232.5,197.25 228.7877,198.7877 227.25,202.5 228.7877,206.2123 232.5,207.75 236.2123,206.2123 237.75,202.5 236.2123,198.7877" stroke-width="0" transform=" rotate(0, 232, 202)"/>
  <polygon fill="#006ca1" points="247.5,195.75 242.727,197.727 240.75,202.5 242.727,207.273 247.5,209.25 252.273,207.273 254.25,202.5 252.273,197.727" stroke-width="0" transform=" rotate(0, 247, 202)"/>
  <polygon fill="#1b9fd8" points="262.5,198.75 259.8483,199.8483 258.75,202.5 259.8483,205.1517 262.5,206.25 265.1517,205.1517 266.25,202.5 265.1517,199.8483" stroke-width="0" transform=" rotate(0, 262, 202)"/>
  <polygon fill="#006ca1" points="277.5,197.25 273.7877,198.7877 272.25,202.5 273.7877,206.2123 277.5,207.75 281.2123,206.2123 282.75,202.5 281.2123,198.7877" stroke-width="0" transform=" rotate(0, 277, 202)"/>
  <polygon fill="#006ca1" points="52.5,212.25 48.7877,213.7877 47.25,217.5 48.7877,221.2123 52.5,222.75 56.2123,221.2123 57.75,217.5 56.2123,213.7877" stroke-width="0" transform=" rotate(0, 52, 217)"/>
  <polygon fill="#1b9fd8" points="67.5,213.75 64.8483,214.8483 63.75,217.5 64.8483,220.1517 67.5,221.25 70.1517,220.1517 71.25,217.5 70.1517,214.8483" stroke-width="0" transform=" rotate(0, 67, 217)"/>
  <polygon fill="#006ca1" points="82.5,210.75 77.727,212.727 75.75,217.5 77.727,222.273 82.5,224.25 87.273,222.273 89.25,217.5 87.273,212.727" stroke-width="0" transform=" rotate(0, 82, 217)"/>
  <polygon fill="#1b9fd8" points="97.5,212.25 93.7877,213.7877 92.25,217.5 93.7877,221.2123 97.5,222.75 101.2123,221.2123 102.75,217.5 101.2123,213.7877" stroke-width="0" transform=" rotate(0, 97, 217)"/>
  <polygon fill="#006ca1" points="112.5,213.75 109.8483,214.8483 108.75,217.5 109.8483,220.1517 112.5,221.25 115.1517,220.1517 116.25,217.5 115.1517,214.8483" stroke-width="0" transform=" rotate(0, 112, 217)"/>
  <polygon fill="#006ca1" points="127.5,213.75 124.8483,214.8483 123.75,217.5 124.8483,220.1517 127.5,221.25 130.1517,220.1517 131.25,217.5 130.1517,214.8483" stroke-width="0" transform=" rotate(0, 127, 217)"/>
  <polygon fill="#006ca1" points="142.5,213.75 139.8483,214.8483 138.75,217.5 139.8483,220.1517 142.5,221.25 145.1517,220.1517 146.25,217.5 145.1517,214.8483" stroke-width="0" transform=" rotate(0, 142, 217)"/>
  <polygon fill="#006ca1" points="157.5,213.75 154.8483,214.8483 153.75,217.5 154.8483,220.1517 157.5,221.25 160.1517,220.1517 161.25,217.5 160.1517,214.8483" stroke-width="0" transform=" rotate(0, 157, 217)"/>
  <polygon fill="#006ca1" points="172.5,213.75 169.8483,214.8483 168.75,217.5 169.8483,220.1517 172.5,221.25 175.1517,220.1517 176.25,217.5 175.1517,214.8483" stroke-width="0" transform=" rotate(0, 172, 217)"/>
  <polygon fill="#006ca1" points="187.5,213.75 184.8483,214.8483 183.75,217.5 184.8483,220.1517 187.5,221.25 190.1517,220.1517 191.25,217.5 190.1517,214.8483" stroke-width="0" transform=" rotate(0, 187, 217)"/>
  <polygon fill="#006ca1" points="202.5,213.75 199.8483,214.8483 198.75,217.5 199.8483,220.1517 202.5,221.25 205.1517,220.1517 206.25,217.5 205.1517,214.8483" stroke-width="0" transform=" rotate(0, 202, 217)"/>
  <polygon fill="#006ca1" points="217.5,213.75 214.8483,214.8483 213.75,217.5 214.8483,220.1517 217.5,221.25 220.1517,220.1517 221.25,217.5 220.1517,214.8483" stroke-width="0" transform=" rotate(0, 217, 217)"/>
  <polygon fill="#1b9fd8" points="232.5,212.25 228.7877,213.7877 227.25,217.5 228.7877,221.2123 232.5,222.75 236.2123,221.2123 237.75,217.5 236.2123,213.7877" stroke-width="0" transform=" rotate(0, 232, 217)"/>
  <polygon fill="#006ca1" points="247.5,210.75 242.727,212.727 240.75,217.5 242.727,222.273 247.5,224.25 252.273,222.273 254.25,217.5 252.273,212.727" stroke-width="0" transform=" rotate(0, 247, 217)"/>
  <polygon fill="#1b9fd8" points="262.5,213.75 259.8483,214.8483 258.75,217.5 259.8483,220.1517 262.5,221.25 265.1517,220.1517 266.25,217.5 265.1517,214.8483" stroke-width="0" transform=" rotate(0, 262, 217)"/>
  <polygon fill="#006ca1" points="277.5,212.25 273.7877,213.7877 272.25,217.5 273.7877,221.2123 277.5,222.75 281.2123,221.2123 282.75,217.5 281.2123,213.7877" stroke-width="0" transform=" rotate(0, 277, 217)"/>
  <polygon fill="#006ca1" points="52.5,227.25 48.7877,228.7877 47.25,232.5 48.7877,236.2123 52.5,237.75 56.2123,236.2123 57.75,232.5 56.2123,228.7877" stroke-width="0" transform=" rotate(0, 52, 232)"/>
  <polygon fill="#1b9fd8" points="67.5,228.75 64.8483,229.8483 63.75,232.5 64.8483,235.1517 67.5,236.25 70.1517,235.1517 71.25,232.5 70.1517,229.8483" stroke-width="0" transform=" rotate(0, 67, 232)"/>
  <polygon fill="#006ca1" points="82.5,225.75 77.727,227.727 75.75,232.5 77.727,237.273 82.5,239.25 87.273,237.273 89.25,232.5 87.273,227.727" stroke-width="0" transform=" rotate(0, 82, 232)"/>
  <polygon fill="#1b9fd8" points="97.5,227.25 93.7877,228.7877 92.25,232.5 93.7877,236.2123 97.5,237.75 101.2123,236.2123 102.75,232.5 101.2123,228.7877" stroke-width="0" transform=" rotate(0, 97, 232)"/>
  <polygon fill="#1b9fd8" points="112.5,227.25 108.7877,228.7877 107.25,232.5 108.7877,236.2123 112.5,237.75 116.2123,236.2123 117.75,232.5 116.2123,228.7877" stroke-width="0" transform=" rotate(0, 112, 232)"/>
  <polygon fill="#1b9fd8" points="127.5,227.25 123.7877,228.7877 122.25,232.5 123.7877,236.2123 127.5,237.75 131.2123,236.2123 132.75,232.5 131.2123,228.7877" stroke-width="0" transform=" rotate(0, 127, 232)"/>
  <polygon fill="#1b9fd8" points="142.5,227.25 138.7877,228.7877 137.25,232.5 138.7877,236.2123 142.5,237.75 146.2123,236.2123 147.75,232.5 146.2123,228.7877" stroke-width="0" transform=" rotate(0, 142, 232)"/>
  <polygon fill="#1b9fd8" points="157.5,227.25 153.7877,228.7877 152.25,232.5 153.7877,236.2123 157.5,237.75 161.2123,236.2123 162.75,232.5 161.2123,228.7877" stroke-width="0" transform=" rotate(0, 157, 232)"/>
  <polygon fill="#1b9fd8" points="172.5,227.25 168.7877,228.7877 167.25,232.5 168.7877,236.2123 172.5,237.75 176.2123,236.2123 177.75,232.5 176.2123,228.7877" stroke-width="0" transform=" rotate(0, 172, 232)"/>
  <polygon fill="#1b9fd8" points="187.5,227.25 183.7877,228.7877 182.25,232.5 183.7877,236.2123 187.5,237.75 191.2123,236.2123 192.75,232.5 191.2123,228.7877" stroke-width="0" transform=" rotate(0, 187, 232)"/>
  <polygon fill="#1b9fd8" points="202.5,227.25 198.7877,228.7877 197.25,232.5 198.7877,236.2123 202.5,237.75 206.2123,236.2123 207.75,232.5 206.2123,228.7877" stroke-width="0" transform=" rotate(0, 202, 232)"/>
  <polygon fill="#1b9fd8" points="217.5,227.25 213.7877,228.7877 212.25,232.5 213.7877,236.2123 217.5,237.75 221.2123,236.2123 222.75,232.5 221.2123,228.7877" stroke-width="0" transform=" rotate(0, 217, 232)"/>
  <polygon fill="#1b9fd8" points="232.5,227.25 228.7877,228.7877 227.25,232.5 228.7877,236.2123 232.5,237.75 236.2123,236.2123 237.75,232.5 236.2123,228.7877" stroke-width="0" transform=" rotate(0, 232, 232)"/>
  <polygon fill="#006ca1" points="247.5,225.75 242.727,227.727 240.75,232.5 242.727,237.273 247.5,239.25 252.273,237.273 254.25,232.5 252.273,227.727" stroke-width="0" transform=" rotate(0, 247, 232)"/>
  <polygon fill="#1b9fd8" points="262.5,228.75 259.8483,229.8483 258.75,232.5 259.8483,235.1517 262.5,236.25 265.1517,235.1517 266.25,232.5 265.1517,229.8483" stroke-width="0" transform=" rotate(0, 262, 232)"/>
  <polygon fill="#006ca1" points="277.5,227.25 273.7877,228.7877 272.25,232.5 273.7877,236.2123 277.5,237.75 281.2123,236.2123 282.75,232.5 281.2123,228.7877" stroke-width="0" transform=" rotate(0, 277, 232)"/>
  <polygon fill="#006ca1" points="52.5,242.25 48.7877,243.7877 47.25,247.5 48.7877,251.2123 52.5,252.75 56.2123,251.2123 57.75,247.5 56.2123,243.7877" stroke-width="0" transform=" rotate(0, 52, 247)"/>
  <polygon fill="#1b9fd8" points="67.5,243.75 64.8483,244.8483 63.75,247.5 64.8483,250.1517 67.5,251.25 70.1517,250.1517 71.25,247.5 70.1517,244.8483" stroke-width="0" transform=" rotate(0, 67, 247)"/>
  <polygon fill="#006ca1" points="82.5,240.75 77.727,242.727 75.75,247.5 77.727,252.273 82.5,254.25 87.273,252.273 89.25,247.5 87.273,242.727" stroke-width="0" transform=" rotate(0, 82, 247)"/>
  <polygon fill="#006ca1" points="97.5,240.75 92.727,242.727 90.75,247.5 92.727,252.273 97.5,254.25 102.273,252.273 104.25,247.5 102.273,242.727" stroke-width="0" transform=" rotate(0, 97, 247)"/>
  <polygon fill="#006ca1" points="112.5,240.75 107.727,242.727 105.75,247.5 107.727,252.273 112.5,254.25 117.273,252.273 119.25,247.5 117.273,242.727" stroke-width="0" transform=" rotate(0, 112, 247)"/>
  <polygon fill="#006ca1" points="127.5,240.75 122.727,242.727 120.75,247.5 122.727,252.273 127.5,254.25 132.273,252.273 134.25,247.5 132.273,242.727" stroke-width="0" transform=" rotate(0, 127, 247)"/>
  <polygon fill="#006ca1" points="142.5,240.75 137.727,242.727 135.75,247.5 137.727,252.273 142.5,254.25 147.273,252.273 149.25,247.5 147.273,242.727" stroke-width="0" transform=" rotate(0, 142, 247)"/>
  <polygon fill="#006ca1" points="157.5,240.75 152.727,242.727 150.75,247.5 152.727,252.273 157.5,254.25 162.273,252.273 164.25,247.5 162.273,242.727" stroke-width="0" transform=" rotate(0, 157, 247)"/>
  <polygon fill="#006ca1" points="172.5,240.75 167.727,242.727 165.75,247.5 167.727,252.273 172.5,254.25 177.273,252.273 179.25,247.5 177.273,242.727" stroke-width="0" transform=" rotate(0, 172, 247)"/>
  <polygon fill="#006ca1" points="187.5,240.75 182.727,242.727 180.75,247.5 182.727,252.273 187.5,254.25 192.273,252.273 194.25,247.5 192.273,242.727" stroke-width="0" transform=" rotate(0, 187, 247)"/>
  <polygon fill="#006ca1" points="202.5,240.75 197.727,242.727 195.75,247.5 197.727,252.273 202.5,254.25 207.273,252.273 209.25,247.5 207.273,242.727" stroke-width="0" transform=" rotate(0, 202, 247)"/>
  <polygon fill="#006ca1" points="217.5,240.75 212.727,242.727 210.75,247.5 212.727,252.273 217.5,254.25 222.273,252.273 224.25,247.5 222.273,242.727" stroke-width="0" transform=" rotate(0, 217, 247)"/>
  <polygon fill="#006ca1" points="232.5,240.75 227.727,242.727 225.75,247.5 227.727,252.273 232.5,254.25 237.273,252.273 239.25,247.5 237.273,242.727" stroke-width="0" transform=" rotate(0, 232, 247)"/>
  <polygon fill="#006ca1" points="247.5,240.75 242.727,242.727 240.75,247.5 242.727,252.273 247.5,254.25 252.273,252.273 254.25,247.5 252.273,242.727" stroke-width="0" transform=" rotate(0, 247, 247)"/>
  <polygon fill="#1b9fd8" points="262.5,243.75 259.8483,244.8483 258.75,247.5 259.8483,250.1517 262.5,251.25 265.1517,250.1517 266.25,247.5 265.1517,244.8483" stroke-width="0" transform=" rotate(0, 262, 247)"/>
  <polygon fill="#006ca1" points="277.5,242.25 273.7877,243.7877 272.25,247.5 273.7877,251.2123 277.5,252.75 281.2123,251.2123 282.75,247.5 281.2123,243.7877" stroke-width="0" transform=" rotate(0, 277, 247)"/>
  <polygon fill="#006ca1" points="52.5,257.25 48.7877,258.7877 47.25,262.5 48.7877,266.2123 52.5,267.75 56.2123,266.2123 57.75,262.5 56.2123,258.7877" stroke-width="0" transform=" rotate(0, 52, 262)"/>
  <polygon fill="#1b9fd8" points="67.5,258.75 64.8483,259.8483 63.75,262.5 64.8483,265.1517 67.5,266.25 70.1517,265.1517 71.25,262.5 70.1517,259.8483" stroke-width="0" transform=" rotate(0, 67, 262)"/>
  <polygon fill="#1b9fd8" points="82.5,258.75 79.8483,259.8483 78.75,262.5 79.8483,265.1517 82.5,266.25 85.1517,265.1517 86.25,262.5 85.1517,259.8483" stroke-width="0" transform=" rotate(0, 82, 262)"/>
  <polygon fill="#1b9fd8" points="97.5,258.75 94.8483,259.8483 93.75,262.5 94.8483,265.1517 97.5,266.25 100.1517,265.1517 101.25,262.5 100.1517,259.8483" stroke-width="0" transform=" rotate(0, 97, 262)"/>
  <polygon fill="#1b9fd8" points="112.5,258.75 109.8483,259.8483 108.75,262.5 109.8483,265.1517 112.5,266.25 115.1517,265.1517 116.25,262.5 115.1517,259.8483" stroke-width="0" transform=" rotate(0, 112, 262)"/>
  <polygon fill="#1b9fd8" points="127.5,258.75 124.8483,259.8483 123.75,262.5 124.8483,265.1517 127.5,266.25 130.1517,265.1517 131.25,262.5 130.1517,259.8483" stroke-width="0" transform=" rotate(0, 127, 262)"/>
  <polygon fill="#1b9fd8" points="142.5,258.75 139.8483,259.8483 138.75,262.5 139.8483,265.1517 142.5,266.25 145.1517,265.1517 146.25,262.5 145.1517,259.8483" stroke-width="0" transform=" rotate(0, 142, 262)"/>
  <polygon fill="#1b9fd8" points="157.5,258.75 154.8483,259.8483 153.75,262.5 154.8483,265.1517 157.5,266.25 160.1517,265.1517 161.25,262.5 160.1517,259.8483" stroke-width="0" transform=" rotate(0, 157, 262)"/>
  <polygon fill="#1b9fd8" points="172.5,258.75 169.8483,259.8483 168.75,262.5 169.8483,265.1517 172.5,266.25 175.1517,265.1517 176.25,262.5 175.1517,259.8483" stroke-width="0" transform=" rotate(0, 172, 262)"/>
  <polygon fill="#1b9fd8" points="187.5,258.75 184.8483,259.8483 183.75,262.5 184.8483,265.1517 187.5,266.25 190.1517,265.1517 191.25,262.5 190.1517,259.8483" stroke-width="0" transform=" rotate(0, 187, 262)"/>
  <polygon fill="#1b9fd8" points="202.5,258.75 199.8483,259.8483 198.75,262.5 199.8483,265.1517 202.5,266.25 205.1517,265.1517 206.25,262.5 205.1517,259.8483" stroke-width="0" transform=" rotate(0, 202, 262)"/>
  <polygon fill="#1b9fd8" points="217.5,258.75 214.8483,259.8483 213.75,262.5 214.8483,265.1517 217.5,266.25 220.1517,265.1517 221.25,262.5 220.1517,259.8483" stroke-width="0" transform=" rotate(0, 217, 262)"/>
  <polygon fill="#1b9fd8" points="232.5,258.75 229.8483,259.8483 228.75,262.5 229.8483,265.1517 232.5,266.25 235.1517,265.1517 236.25,262.5 235.1517,259.8483" stroke-width="0" transform=" rotate(0, 232, 262)"/>
  <polygon fill="#1b9fd8" points="247.5,258.75 244.8483,259.8483 243.75,262.5 244.8483,265.1517 247.5,266.25 250.1517,265.1517 251.25,262.5 250.1517,259.8483" stroke-width="0" transform=" rotate(0, 247, 262)"/>
  <polygon fill="#1b9fd8" points="262.5,258.75 259.8483,259.8483 258.75,262.5 259.8483,265.1517 262.5,266.25 265.1517,265.1517 266.25,262.5 265.1517,259.8483" stroke-width="0" transform=" rotate(0, 262, 262)"/>
  <polygon fill="#006ca1" points="277.5,257.25 273.7877,258.7877 272.25,262.5 273.7877,266.2123 277.5,267.75 281.2123,266.2123 282.75,262.5 281.2123,258.7877" stroke-width="0" transform=" rotate(0, 277, 262)"/>
  <polygon fill="#006ca1" points="52.5,272.25 48.7877,273.7877 47.25,277.5 48.7877,281.2123 52.5,282.75 56.2123,281.2123 57.75,277.5 56.2123,273.7877" stroke-width="0" transform=" rotate(0, 52, 277)"/>
  <polygon fill="#006ca1" points="67.5,272.25 63.7877,273.7877 62.25,277.5 63.7877,281.2123 67.5,282.75 71.2123,281.2123 72.75,277.5 71.2123,273.7877" stroke-width="0" transform=" rotate(0, 67, 277)"/>
  <polygon fill="#006ca1" points="82.5,272.25 78.7877,273.7877 77.25,277.5 78.7877,281.2123 82.5,282.75 86.2123,281.2123 87.75,277.5 86.2123,273.7877" stroke-width="0" transform=" rotate(0, 82, 277)"/>
  <polygon fill="#006ca1" points="97.5,272.25 93.7877,273.7877 92.25,277.5 93.7877,281.2123 97.5,282.75 101.2123,281.2123 102.75,277.5 101.2123,273.7877" stroke-width="0" transform=" rotate(0, 97, 277)"/>
  <polygon fill="#006ca1" points="112.5,272.25 108.7877,273.7877 107.25,277.5 108.7877,281.2123 112.5,282.75 116.2123,281.2123 117.75,277.5 116.2123,273.7877" stroke-width="0" transform=" rotate(0, 112, 277)"/>
  <polygon fill="#006ca1" points="127.5,272.25 123.7877,273.7877 122.25,277.5 123.7877,281.2123 127.5,282.75 131.2123,281.2123 132.75,277.5 131.2123,273.7877" stroke-width="0" transform=" rotate(0, 127, 277)"/>
  <polygon fill="#006ca1" points="142.5,272.25 138.7877,273.7877 137.25,277.5 138.7877,281.2123 142.5,282.75 146.2123,281.2123 147.75,277.5 146.2123,273.7877" stroke-width="0" transform=" rotate(0, 142, 277)"/>
  <polygon fill="#006ca1" points="157.5,272.25 153.7877,273.7877 152.25,277.5 153.7877,281.2123 157.5,282.75 161.2123,281.2123 162.75,277.5 161.2123,273.7877" stroke-width="0" transform=" rotate(0, 157, 277)"/>
  <polygon fill="#006ca1" points="172.5,272.25 168.7877,273.7877 167.25,277.5 168.7877,281.2123 172.5,282.75 176.2123,281.2123 177.75,277.5 176.2123,273.7877" stroke-width="0" transform=" rotate(0, 172, 277)"/>
  <polygon fill="#006ca1" points="187.5,272.25 183.7877,273.7877 182.25,277.5 183.7877,281.2123 187.5,282.75 191.2123,281.2123 192.75,277.5 191.2123,273.7877" stroke-width="0" transform=" rotate(0, 187, 277)"/>
  <polygon fill="#006ca1" points="202.5,272.25 198.7877,273.7877 197.25,277.5 198.7877,281.2123 202.5,282.75 206.2123,281.2123 207.75,277.5 206.2123,273.7877" stroke-width="0" transform=" rotate(0, 202, 277)"/>
  <polygon fill="#006ca1" points="217.5,272.25 213.7877,273.7877 212.25,277.5 213.7877,281.2123 217.5,282.75 221.2123,281.2123 222.75,277.5 221.2123,273.7877" stroke-width="0" transform=" rotate(0, 217, 277)"/>
  <polygon fill="#006ca1" points="232.5,272.25 228.7877,273.7877 227.25,277.5 228.7877,281.2123 232.5,282.75 236.2123,281.2123 237.75,277.5 236.2123,273.7877" stroke-width="0" transform=" rotate(0, 232, 277)"/>
  <polygon fill="#006ca1" points="247.5,272.25 243.7877,273.7877 242.25,277.5 243.7877,281.2123 247.5,282.75 251.2123,281.2123 252.75,277.5 251.2123,273.7877" stroke-width="0" transform=" rotate(0, 247, 277)"/>
  <polygon fill="#006ca1" points="262.5,272.25 258.7877,273.7877 257.25,277.5 258.7877,281.2123 262.5,282.75 266.2123,281.2123 267.75,277.5 266.2123,273.7877" stroke-width="0" transform=" rotate(0, 262, 277)"/>
  <polygon fill="#006ca1" points="277.5,272.25 273.7877,273.7877 272.25,277.5 273.7877,281.2123 277.5,282.75 281.2123,281.2123 282.75,277.5 281.2123,273.7877" stroke-width="0" transform=" rotate(0, 277, 277)"/>
</svg>
