<?xml version="1.0" encoding="utf-8" ?>
<svg baseProfile="tiny" height="330" version="1.2" width="330" xmlns="http://www.w3.org/2000/svg" xmlns:ev="http://www.w3.org/2001/xml-events" xmlns:xlink="http://www.w3.org/1999/xlink">
  <defs/>
  <rect fill="white" height="330" width="330" x="0" y="0"/>
  <ellipse cx="55.0" cy="55.0" fill="#6dd6ff" rx="5.0" ry="5.0" stroke-width="0" transform=" rotate(0, 55, 55)"/>
  <polygon fill="#1b9fd8" points="68.0,62.0 75.0,48.0 82.0,62.0" stroke-width="0" transform=" rotate(0, 75, 55)"/>
  <rect fill="#006ca1" height="18" stroke-width="0" transform=" rotate(0, 95, 55)" width="18" x="86.0" y="46.0"/>
  <ellipse cx="115.0" cy="55.0" fill="#6dd6ff" rx="5.0" ry="5.0" stroke-width="0" transform=" rotate(0, 115, 55)"/>
  <polygon fill="#006ca1" points="126.0,64.0 135.0,46.0 144.0,64.0" stroke-width="0" transform=" rotate(0, 135, 55)"/>
  <polygon fill="#1b9fd8" points="148.0,62.0 155.0,48.0 162.0,62.0" stroke-width="0" transform=" rotate(0, 155, 55)"/>
  <ellipse cx="175.0" cy="55.0" fill="#006ca1" rx="9.0" ry="9.0" stroke-width="0" transform=" rotate(0, 175, 55)"/>
  <polygon fill="#1b9fd8" points="188.0,62.0 195.0,48.0 202.0,62.0" stroke-width="0" transform=" rotate(0, 195, 55)"/>
  <rect fill="#006ca1" height="18" stroke-width="0" transform=" rotate(0, 215, 55)" width="18" x="206.0" y="46.0"/>
  <ellipse cx="235.0" cy="55.0" fill="#6dd6ff" rx="5.0" ry="5.0" stroke-width="0" transform=" rotate(0, 235, 55)"/>
  <polygon fill="#1b9fd8" points="248.0,62.0 255.0,48.0 262.0,62.0" stroke-width="0" transform=" rotate(0, 255, 55)"/>
  <rect fill="#006ca1" height="18" stroke-width="0" transform=" rotate(0, 275, 55)" width="18" x="266.0" y="46.0"/>
  <ellipse cx="55.0" cy="75.0" fill="#6dd6ff" rx="5.0" ry="5.0" stroke-width="0" transform=" rotate(0, 55, 75)"/>
  <ellipse cx="75.0" cy="75.0" fill="#006ca1" rx="9.0" ry="9.0" stroke-width="0" transform=" rotate(0, 75, 75)"/>
  <ellipse cx="95.0" cy="75.0" fill="#6dd6ff" rx="5.0" ry="5.0" stroke-width="0" transform=" rotate(0, 95, 75)"/>
  <rect fill="#1b9fd8" height="14" stroke-width="0" transform=" rotate(0, 115, 75)" width="14" x="108.0" y="68.0"/>
  <ellipse cx="135.0" cy="75.0" fill="#006ca1" rx="9.0" ry="9.0" stroke-width="0" transform=" rotate(0, 135, 75)"/>
  <polygon fill="#6dd6ff" points="150.0,80.0 155.0,70.0 160.0,80.0" stroke-width="0" transform=" rotate(0, 155, 75)"/>
  <rect fill="#1b9fd8" height="14" stroke-width="0" transform=" rotate(0, 175, 75)" width="14" x="168.0" y="68.0"/>
  <polygon fill="#1b9fd8" points="188.0,82.0 195.0,68.0 202.0,82.0" stroke-width="0" transform=" rotate(0, 195, 75)"/>
  <polygon fill="#6dd6ff" points="210.0,80.0 215.0,70.0 220.0,80.0" stroke-width="0" transform=" rotate(0, 215, 75)"/>
  <rect fill="#1b9fd8" height="14" stroke-width="0" transform=" rotate(0, 235, 75)" width="14" x="228.0" y="68.0"/>
  <ellipse cx="255.0" cy="75.0" fill="#006ca1" rx="9.0" ry="9.0" stroke-width="0" transform=" rotate(0, 255, 75)"/>
  <polygon fill="#1b9fd8" points="268.0,82.0 275.0,68.0 282.0,82.0" stroke-width="0" transform=" rotate(0, 275, 75)"/>
  <rect fill="#6dd6ff" height="10" stroke-width="0" transform=" rotate(0, 55, 95)" width="10" x="50.0" y="90.0"/>
  <polygon fill="#6dd6ff" points="70.0,100.0 75.0,90.0 80.0,100.0" stroke-width="0" transform=" rotate(0, 75, 95)"/>
  <ellipse cx="95.0" cy="95.0" fill="#1b9fd8" rx="7.0" ry="7.0" stroke-width="0" transform=" rotate(0, 95, 95)"/>
  <polygon fill="#006ca1" points="106.0,104.0 115.0,86.0 124.0,104.0" stroke-width="0" transform=" rotate(0, 115, 95)"/>
  <rect fill="#6dd6ff" height="10" stroke-width="0" transform=" rotate(0, 135, 95)" width="10" x="130.0" y="90.0"/>
  <rect fill="#1b9fd8" height="14" stroke-width="0" transform=" rotate(0, 155, 95)" width="14" x="148.0" y="88.0"/>
  <rect fill="#006ca1" height="18" stroke-width="0" transform=" rotate(0, 175, 95)" width="18" x="166.0" y="86.0"/>
  <rect fill="#6dd6ff" height="10" stroke-width="0" transform=" rotate(0, 195, 95)" width="10" x="190.0" y="90.0"/>
  <ellipse cx="215.0" cy="95.0" fill="#1b9fd8" rx="7.0" ry="7.0" stroke-width="0" transform=" rotate(0, 215, 95)"/>
  <polygon fill="#1b9fd8" points="228.0,102.0 235.0,88.0 242.0,102.0" stroke-width="0" transform=" rotate(0, 235, 95)"/>
  <rect fill="#1b9fd8" height="14" stroke-width="0" transform=" rotate(0, 255, 95)" width="14" x="248.0" y="88.0"/>
  <ellipse cx="275.0" cy="95.0" fill="#6dd6ff" rx="5.0" ry="5.0" stroke-width="0" transform=" rotate(0, 275, 95)"/>
  <ellipse cx="55.0" cy="115.0" fill="#6dd6ff" rx="5.0" ry="5.0" stroke-width="0" transform=" rotate(0, 55, 115)"/>
  <rect fill="#1b9fd8" height="14" stroke-width="0" transform=" rotate(0, 75, 115)" width="14" x="68.0" y="108.0"/>
  <polygon fill="#006ca1" points="86.0,124.0 95.0,106.0 104.0,124.0" stroke-width="0" transform=" rotate(0, 95, 115)"/>
  <polygon fill="#6dd6ff" points="110.0,120.0 115.0,110.0 120.0,120.0" stroke-width="0" transform=" rotate(0, 115, 115)"/>
  <polygon fill="#6dd6ff" points="130.0,120.0 135.0,110.0 140.0,120.0" stroke-width="0" transform=" rotate(0, 135, 115)"/>
  <rect fill="#006ca1" height="18" stroke-width="0" transform=" rotate(0, 155, 115)" width="18" x="146.0" y="106.0"/>
  <ellipse cx="175.0" cy="115.0" fill="#6dd6ff" rx="5.0" ry="5.0" stroke-width="0" transform=" rotate(0, 175, 115)"/>
  <polygon fill="#1b9fd8" points="188.0,122.0 195.0,108.0 202.0,122.0" stroke-width="0" transform=" rotate(0, 195, 115)"/>
  <rect fill="#1b9fd8" height="14" stroke-width="0" transform=" rotate(0, 215, 115)" width="14" x="208.0" y="108.0"/>
  <ellipse cx="235.0" cy="115.0" fill="#1b9fd8" rx="7.0" ry="7.0" stroke-width="0" transform=" rotate(0, 235, 115)"/>
  <polygon fill="#6dd6ff" points="250.0,120.0 255.0,110.0 260.0,120.0" stroke-width="0" transform=" rotate(0, 255, 115)"/>
  <polygon fill="#006ca1" points="266.0,124.0 275.0,106.0 284.0,124.0" stroke-width="0" transform=" rotate(0, 275, 115)"/>
  <ellipse cx="55.0" cy="135.0" fill="#006ca1" rx="9.0" ry="9.0" stroke-width="0" transform=" rotate(0, 55, 135)"/>
  <ellipse cx="75.0" cy="135.0" fill="#006ca1" rx="9.0" ry="9.0" stroke-width="0" transform=" rotate(0, 75, 135)"/>
  <rect fill="#6dd6ff" height="10" stroke-width="0" transform=" rotate(0, 95, 135)" width="10" x="90.0" y="130.0"/>
  <rect fill="#006ca1" height="18" stroke-width="0" transform=" rotate(0, 115, 135)" width="18" x="106.0" y="126.0"/>
  <ellipse cx="135.0" cy="135.0" fill="#006ca1" rx="9.0" ry="9.0" stroke-width="0" transform=" rotate(0, 135, 135)"/>
  <rect fill="#1b9fd8" height="14" stroke-width="0" transform=" rotate(0, 155, 135)" width="14" x="148.0" y="128.0"/>
  <rect fill="#1b9fd8" height="14" stroke-width="0" transform=" rotate(0, 175, 135)" width="14" x="168.0" y="128.0"/>
  <ellipse cx="195.0" cy="135.0" fill="#006ca1" rx="9.0" ry="9.0" stroke-width="0" transform=" rotate(0, 195, 135)"/>
  <polygon fill="#006ca1" points="206.0,144.0 215.0,126.0 224.0,144.0" stroke-width="0" transform=" rotate(0, 215, 135)"/>
  <rect fill="#6dd6ff" height="10" stroke-width="0" transform=" rotate(0, 235, 135)" width="10" x="230.0" y="130.0"/>
  <ellipse cx="255.0" cy="135.0" fill="#006ca1" rx="9.0" ry="9.0" stroke-width="0" transform=" rotate(0, 255, 135)"/>
  <rect fill="#006ca1" height="18" stroke-width="0" transform=" rotate(0, 275, 135)" width="18" x="266.0" y="126.0"/>
  <rect fill="#006ca1" height="18" stroke-width="0" transform=" rotate(0, 55, 155)" width="18" x="46.0" y="146.0"/>
  <polygon fill="#6dd6ff" points="70.0,160.0 75.0,150.0 80.0,160.0" stroke-width="0" transform=" rotate(0, 75, 155)"/>
  <ellipse cx="95.0" cy="155.0" fill="#1b9fd8" rx="7.0" ry="7.0" stroke-width="0" transform=" rotate(0, 95, 155)"/>
  <rect fill="#006ca1" height="18" stroke-width="0" transform=" rotate(0, 115, 155)" width="18" x="106.0" y="146.0"/>
  <polygon fill="#6dd6ff" points="130.0,160.0 135.0,150.0 140.0,160.0" stroke-width="0" transform=" rotate(0, 135, 155)"/>
  <ellipse cx="155.0" cy="155.0" fill="#1b9fd8" rx="7.0" ry="7.0" stroke-width="0" transform=" rotate(0, 155, 155)"/>
  <polygon fill="#006ca1" points="166.0,164.0 175.0,146.0 184.0,164.0" stroke-width="0" transform=" rotate(0, 175, 155)"/>
  <rect fill="#1b9fd8" height="14" stroke-width="0" transform=" rotate(0, 195, 155)" width="14" x="188.0" y="148.0"/>
  <rect fill="#1b9fd8" height="14" stroke-width="0" transform=" rotate(0, 215, 155)" width="14" x="208.0" y="148.0"/>
  <polygon fill="#006ca1" points="226.0,164.0 235.0,146.0 244.0,164.0" stroke-width="0" transform=" rotate(0, 235, 155)"/>
  <rect fill="#1b9fd8" height="14" stroke-width="0" transform=" rotate(0, 255, 155)" width="14" x="248.0" y="148.0"/>
  <ellipse cx="275.0" cy="155.0" fill="#6dd6ff" rx="5.0" ry="5.0" stroke-width="0" transform=" rotate(0, 275, 155)"/>
  <rect fill="#1b9fd8" height="14" stroke-width="0" transform=" rotate(0, 55, 175)" width="14" x="48.0" y="168.0"/>
  <ellipse cx="75.0" cy="175.0" fill="#6dd6ff" rx="5.0" ry="5.0" stroke-width="0" transform=" rotate(0, 75, 175)"/>
  <rect fill="#006ca1" height="18" stroke-width="0" transform=" rotate(0, 95, 175)" width="18" x="86.0" y="166.0"/>
  <ellipse cx="115.0" cy="175.0" fill="#1b9fd8" rx="7.0" ry="7.0" stroke-width="0" transform=" rotate(0, 115, 175)"/>
  <rect fill="#006ca1" height="18" stroke-width="0" transform=" rotate(0, 135, 175)" width="18" x="126.0" y="166.0"/>
  <polygon fill="#006ca1" points="146.0,184.0 155.0,166.0 164.0,184.0" stroke-width="0" transform=" rotate(0, 155, 175)"/>
  <ellipse cx="175.0" cy="175.0" fill="#1b9fd8" rx="7.0" ry="7.0" stroke-width="0" transform=" rotate(0, 175, 175)"/>
  <ellipse cx="195.0" cy="175.0" fill="#6dd6ff" rx="5.0" ry="5.0" stroke-width="0" transform=" rotate(0, 195, 175)"/>
  <rect fill="#006ca1" height="18" stroke-width="0" transform=" rotate(0, 215, 175)" width="18" x="206.0" y="166.0"/>
  <ellipse cx="235.0" cy="175.0" fill="#6dd6ff" rx="5.0" ry="5.0" stroke-width="0" transform=" rotate(0, 235, 175)"/>
  <polygon fill="#6dd6ff" points="250.0,180.0 255.0,170.0 260.0,180.0" stroke-width="0" transform=" rotate(0, 255, 175)"/>
  <polygon fill="#006ca1" points="266.0,184.0 275.0,166.0 284.0,184.0" stroke-width="0" transform=" rotate(0, 275, 175)"/>
  <polygon fill="#1b9fd8" points="48.0,202.0 55.0,188.0 62.0,202.0" stroke-width="0" transform=" rotate(0, 55, 195)"/>
  <ellipse cx="75.0" cy="195.0" fill="#6dd6ff" rx="5.0" ry="5.0" stroke-width="0" transform=" rotate(0, 75, 195)"/>
  <rect fill="#6dd6ff" height="10" stroke-width="0" transform=" rotate(0, 95, 195)" width="10" x="90.0" y="190.0"/>
  <polygon fill="#1b9fd8" points="108.0,202.0 115.0,188.0 122.0,202.0" stroke-width="0" transform=" rotate(0, 115, 195)"/>
  <rect fill="#006ca1" height="18" stroke-width="0" transform=" rotate(0, 135, 195)" width="18" x="126.0" y="186.0"/>
  <polygon fill="#6dd6ff" points="150.0,200.0 155.0,190.0 160.0,200.0" stroke-width="0" transform=" rotate(0, 155, 195)"/>
  <polygon fill="#6dd6ff" points="170.0,200.0 175.0,190.0 180.0,200.0" stroke-width="0" transform=" rotate(0, 175, 195)"/>
  <ellipse cx="195.0" cy="195.0" fill="#006ca1" rx="9.0" ry="9.0" stroke-width="0" transform=" rotate(0, 195, 195)"/>
  <polygon fill="#1b9fd8" points="208.0,202.0 215.0,188.0 222.0,202.0" stroke-width="0" transform=" rotate(0, 215, 195)"/>
  <rect fill="#006ca1" height="18" stroke-width="0" transform=" rotate(0, 235, 195)" width="18" x="226.0" y="186.0"/>
  <ellipse cx="255.0" cy="195.0" fill="#006ca1" rx="9.0" ry="9.0" stroke-width="0" transform=" rotate(0, 255, 195)"/>
  <polygon fill="#1b9fd8" points="268.0,202.0 275.0,188.0 282.0,202.0" stroke-width="0" transform=" rotate(0, 275, 195)"/>
  <ellipse cx="55.0" cy="215.0" fill="#006ca1" rx="9.0" ry="9.0" stroke-width="0" transform=" rotate(0, 55, 215)"/>
  <polygon fill="#6dd6ff" points="70.0,220.0 75.0,210.0 80.0,220.0" stroke-width="0" transform=" rotate(0, 75, 215)"/>
  <ellipse cx="95.0" cy="215.0" fill="#1b9fd8" rx="7.0" ry="7.0" stroke-width="0" transform=" rotate(0, 95, 215)"/>
  <rect fill="#006ca1" height="18" stroke-width="0" transform=" rotate(0, 115, 215)" width="18" x="106.0" y="206.0"/>
  <polygon fill="#1b9fd8" points="128.0,222.0 135.0,208.0 142.0,222.0" stroke-width="0" transform=" rotate(0, 135, 215)"/>
  <polygon fill="#6dd6ff" points="150.0,220.0 155.0,210.0 160.0,220.0" stroke-width="0" transform=" rotate(0, 155, 215)"/>
  <rect fill="#006ca1" height="18" stroke-width="0" transform=" rotate(0, 175, 215)" width="18" x="166.0" y="206.0"/>
  <polygon fill="#1b9fd8" points="188.0,222.0 195.0,208.0 202.0,222.0" stroke-width="0" transform=" rotate(0, 195, 215)"/>
  <ellipse cx="215.0" cy="215.0" fill="#6dd6ff" rx="5.0" ry="5.0" stroke-width="0" transform=" rotate(0, 215, 215)"/>
  <polygon fill="#1b9fd8" points="228.0,222.0 235.0,208.0 242.0,222.0" stroke-width="0" transform=" rotate(0, 235, 215)"/>
  <rect fill="#6dd6ff" height="10" stroke-width="0" transform=" rotate(0, 255, 215)" width="10" x="250.0" y="210.0"/>
  <ellipse cx="275.0" cy="215.0" fill="#6dd6ff" rx="5.0" ry="5.0" stroke-width="0" transform=" rotate(0, 275, 215)"/>
  <polygon fill="#1b9fd8" points="48.0,242.0 55.0,228.0 62.0,242.0" stroke-width="0" transform=" rotate(0, 55, 235)"/>
  <ellipse cx="75.0" cy="235.0" fill="#6dd6ff" rx="5.0" ry="5.0" stroke-width="0" transform=" rotate(0, 75, 235)"/>
  <polygon fill="#006ca1" points="86.0,244.0 95.0,226.0 104.0,244.0" stroke-width="0" transform=" rotate(0, 95, 235)"/>
  <ellipse cx="115.0" cy="235.0" fill="#1b9fd8" rx="7.0" ry="7.0" stroke-width="0" transform=" rotate(0, 115, 235)"/>
  <rect fill="#1b9fd8" height="14" stroke-width="0" transform=" rotate(0, 135, 235)" width="14" x="128.0" y="228.0"/>
  <polygon fill="#006ca1" points="146.0,244.0 155.0,226.0 164.0,244.0" stroke-width="0" transform=" rotate(0, 155, 235)"/>
  <ellipse cx="175.0" cy="235.0" fill="#1b9fd8" rx="7.0" ry="7.0" stroke-width="0" transform=" rotate(0, 175, 235)"/>
  <rect fill="#6dd6ff" height="10" stroke-width="0" transform=" rotate(0, 195, 235)" width="10" x="190.0" y="230.0"/>
  <polygon fill="#006ca1" points="206.0,244.0 215.0,226.0 224.0,244.0" stroke-width="0" transform=" rotate(0, 215, 235)"/>
  <ellipse cx="235.0" cy="235.0" fill="#1b9fd8" rx="7.0" ry="7.0" stroke-width="0" transform=" rotate(0, 235, 235)"/>
  <polygon fill="#6dd6ff" points="250.0,240.0 255.0,230.0 260.0,240.0" stroke-width="0" transform=" rotate(0, 255, 235)"/>
  <rect fill="#006ca1" height="18" stroke-width="0" transform=" rotate(0, 275, 235)" width="18" x="266.0" y="226.0"/>
  <polygon fill="#6dd6ff" points="50.0,260.0 55.0,250.0 60.0,260.0" stroke-width="0" transform=" rotate(0, 55, 255)"/>
  <ellipse cx="75.0" cy="255.0" fill="#006ca1" rx="9.0" ry="9.0" stroke-width="0" transform=" rotate(0, 75, 255)"/>
  <rect fill="#1b9fd8" height="14" stroke-width="0" transform=" rotate(0, 95, 255)" width="14" x="88.0" y="248.0"/>
  <polygon fill="#1b9fd8" points="108.0,262.0 115.0,248.0 122.0,262.0" stroke-width="0" transform=" rotate(0, 115, 255)"/>
  <ellipse cx="135.0" cy="255.0" fill="#6dd6ff" rx="5.0" ry="5.0" stroke-width="0" transform=" rotate(0, 135, 255)"/>
  <ellipse cx="155.0" cy="255.0" fill="#1b9fd8" rx="7.0" ry="7.0" stroke-width="0" transform=" rotate(0, 155, 255)"/>
  <polygon fill="#6dd6ff" points="170.0,260.0 175.0,250.0 180.0,260.0" stroke-width="0" transform=" rotate(0, 175, 255)"/>
  <ellipse cx="195.0" cy="255.0" fill="#006ca1" rx="9.0" ry="9.0" stroke-width="0" transform=" rotate(0, 195, 255)"/>
  <rect fill="#1b9fd8" height="14" stroke-width="0" transform=" rotate(0, 215, 255)" width="14" x="208.0" y="248.0"/>
  <polygon fill="#1b9fd8" points="228.0,262.0 235.0,248.0 242.0,262.0" stroke-width="0" transform=" rotate(0, 235, 255)"/>
  <ellipse cx="255.0" cy="255.0" fill="#006ca1" rx="9.0" ry="9.0" stroke-width="0" transform=" rotate(0, 255, 255)"/>
  <polygon fill="#1b9fd8" points="268.0,262.0 275.0,248.0 282.0,262.0" stroke-width="0" transform=" rotate(0, 275, 255)"/>
  <rect fill="#006ca1" height="18" stroke-width="0" transform=" rotate(0, 55, 275)" width="18" x="46.0" y="266.0"/>
  <polygon fill="#1b9fd8" points="68.0,282.0 75.0,268.0 82.0,282.0" stroke-width="0" transform=" rotate(0, 75, 275)"/>
  <ellipse cx="95.0" cy="275.0" fill="#6dd6ff" rx="5.0" ry="5.0" stroke-width="0" transform=" rotate(0, 95, 275)"/>
  <rect fill="#006ca1" height="18" stroke-width="0" transform=" rotate(0, 115, 275)" width="18" x="106.0" y="266.0"/>
  <ellipse cx="135.0" cy="275.0" fill="#6dd6ff" rx="5.0" ry="5.0" stroke-width="0" transform=" rotate(0, 135, 275)"/>
  <ellipse cx="155.0" cy="275.0" fill="#006ca1" rx="9.0" ry="9.0" stroke-width="0" transform=" rotate(0, 155, 275)"/>
  <polygon fill="#1b9fd8" points="168.0,282.0 175.0,268.0 182.0,282.0" stroke-width="0" transform=" rotate(0, 175, 275)"/>
  <polygon fill="#1b9fd8" points="188.0,282.0 195.0,268.0 202.0,282.0" stroke-width="0" transform=" rotate(0, 195, 275)"/>
  <polygon fill="#1b9fd8" points="208.0,282.0 215.0,268.0 222.0,282.0" stroke-width="0" transform=" rotate(0, 215, 275)"/>
  <rect fill="#006ca1" height="18" stroke-width="0" transform=" rotate(0, 235, 275)" width="18" x="226.0" y="266.0"/>
  <polygon fill="#1b9fd8" points="248.0,282.0 255.0,268.0 262.0,282.0" stroke-width="0" transform=" rotate(0, 255, 275)"/>
  <ellipse cx="275.0" cy="275.0" fill="#6dd6ff" rx="5.0" ry="5.0" stroke-width="0" transform=" rotate(0, 275, 275)"/>
</svg>
