<?xml version="1.0" encoding="utf-8" ?>
<svg baseProfile="tiny" height="330" version="1.2" width="330" xmlns="http://www.w3.org/2000/svg" xmlns:ev="http://www.w3.org/2001/xml-events" xmlns:xlink="http://www.w3.org/1999/xlink">
  <defs/>
  <rect fill="white" height="330" width="330" x="0" y="0"/>
  <rect fill="#006ca1" height="13.5" stroke-width="0" transform=" rotate(0, 52, 52)" width="13.5" x="45.75" y="45.75"/>
  <ellipse cx="67.5" cy="52.5" fill="#1b9fd8" rx="5.25" ry="5.25" stroke-width="0" transform=" rotate(0, 67, 52)"/>
  <ellipse cx="82.5" cy="52.5" fill="#1b9fd8" rx="5.25" ry="5.25" stroke-width="0" transform=" rotate(0, 82, 52)"/>
  <ellipse cx="97.5" cy="52.5" fill="#6dd6ff" rx="3.75" ry="3.75" stroke-width="0" transform=" rotate(0, 97, 52)"/>
  <ellipse cx="112.5" cy="52.5" fill="#1b9fd8" rx="5.25" ry="5.25" stroke-width="0" transform=" rotate(0, 112, 52)"/>
  <rect fill="#6dd6ff" height="7.5" stroke-width="0" transform=" rotate(0, 127, 52)" width="7.5" x="123.75" y="48.75"/>
  <polygon fill="#006ca1" points="135.75,59.25 142.5,45.75 149.25,59.25" stroke-width="0" transform=" rotate(0, 142, 52)"/>
  <ellipse cx="157.5" cy="52.5" fill="#1b9fd8" rx="5.25" ry="5.25" stroke-width="0" transform=" rotate(0, 157, 52)"/>
  <rect fill="#6dd6ff" height="7.5" stroke-width="0" transform=" rotate(0, 172, 52)" width="7.5" x="168.75" y="48.75"/>
  <ellipse cx="187.5" cy="52.5" fill="#006ca1" rx="6.75" ry="6.75" stroke-width="0" transform=" rotate(0, 187, 52)"/>
  <ellipse cx="202.5" cy="52.5" fill="#1b9fd8" rx="5.25" ry="5.25" stroke-width="0" transform=" rotate(0, 202, 52)"/>
  <rect fill="#6dd6ff" height="7.5" stroke-width="0" transform=" rotate(0, 217, 52)" width="7.5" x="213.75" y="48.75"/>
  <ellipse cx="232.5" cy="52.5" fill="#1b9fd8" rx="5.25" ry="5.25" stroke-width="0" transform=" rotate(0, 232, 52)"/>
  <ellipse cx="247.5" cy="52.5" fill="#006ca1" rx="6.75" ry="6.75" stroke-width="0" transform=" rotate(0, 247, 52)"/>
  <ellipse cx="262.5" cy="52.5" fill="#6dd6ff" rx="3.75" ry="3.75" stroke-width="0" transform=" rotate(0, 262, 52)"/>
  <rect fill="#6dd6ff" height="7.5" stroke-width="0" transform=" rotate(0, 277, 52)" width="7.5" x="273.75" y="48.75"/>
  <ellipse cx="52.5" cy="67.5" fill="#1b9fd8" rx="5.25" ry="5.25" stroke-width="0" transform=" rotate(0, 52, 67)"/>
  <rect fill="#006ca1" height="13.5" stroke-width="0" transform=" rotate(0, 67, 67)" width="13.5" x="60.75" y="60.75"/>
  <ellipse cx="82.5" cy="67.5" fill="#6dd6ff" rx="3.75" ry="3.75" stroke-width="0" transform=" rotate(0, 82, 67)"/>
  <ellipse cx="97.5" cy="67.5" fill="#006ca1" rx="6.75" ry="6.75" stroke-width="0" transform=" rotate(0, 97, 67)"/>
  <rect fill="#006ca1" height="13.5" stroke-width="0" transform=" rotate(0, 112, 67)" width="13.5" x="105.75" y="60.75"/>
  <ellipse cx="127.5" cy="67.5" fill="#6dd6ff" rx="3.75" ry="3.75" stroke-width="0" transform=" rotate(0, 127, 67)"/>
  <polygon fill="#1b9fd8" points="137.25,72.75 142.5,62.25 147.75,72.75" stroke-width="0" transform=" rotate(0, 142, 67)"/>
  <rect fill="#006ca1" height="13.5" stroke-width="0" transform=" rotate(0, 157, 67)" width="13.5" x="150.75" y="60.75"/>
  <ellipse cx="172.5" cy="67.5" fill="#6dd6ff" rx="3.75" ry="3.75" stroke-width="0" transform=" rotate(0, 172, 67)"/>
  <ellipse cx="187.5" cy="67.5" fill="#006ca1" rx="6.75" ry="6.75" stroke-width="0" transform=" rotate(0, 187, 67)"/>
  <rect fill="#006ca1" height="13.5" stroke-width="0" transform=" rotate(0, 202, 67)" width="13.5" x="195.75" y="60.75"/>
  <ellipse cx="217.5" cy="67.5" fill="#6dd6ff" rx="3.75" ry="3.75" stroke-width="0" transform=" rotate(0, 217, 67)"/>
  <polygon fill="#1b9fd8" points="227.25,72.75 232.5,62.25 237.75,72.75" stroke-width="0" transform=" rotate(0, 232, 67)"/>
  <polygon fill="#006ca1" points="240.75,74.25 247.5,60.75 254.25,74.25" stroke-width="0" transform=" rotate(0, 247, 67)"/>
  <ellipse cx="262.5" cy="67.5" fill="#1b9fd8" rx="5.25" ry="5.25" stroke-width="0" transform=" rotate(0, 262, 67)"/>
  <polygon fill="#006ca1" points="270.75,74.25 277.5,60.75 284.25,74.25" stroke-width="0" transform=" rotate(0, 277, 67)"/>
  <polygon fill="#006ca1" points="45.75,89.25 52.5,75.75 59.25,89.25" stroke-width="0" transform=" rotate(0, 52, 82)"/>
  <ellipse cx="67.5" cy="82.5" fill="#6dd6ff" rx="3.75" ry="3.75" stroke-width="0" transform=" rotate(0, 67, 82)"/>
  <rect fill="#1b9fd8" height="10.5" stroke-width="0" transform=" rotate(0, 82, 82)" width="10.5" x="77.25" y="77.25"/>
  <polygon fill="#006ca1" points="90.75,89.25 97.5,75.75 104.25,89.25" stroke-width="0" transform=" rotate(0, 97, 82)"/>
  <ellipse cx="112.5" cy="82.5" fill="#1b9fd8" rx="5.25" ry="5.25" stroke-width="0" transform=" rotate(0, 112, 82)"/>
  <polygon fill="#006ca1" points="120.75,89.25 127.5,75.75 134.25,89.25" stroke-width="0" transform=" rotate(0, 127, 82)"/>
  <rect fill="#006ca1" height="13.5" stroke-width="0" transform=" rotate(0, 142, 82)" width="13.5" x="135.75" y="75.75"/>
  <polygon fill="#6dd6ff" points="153.75,86.25 157.5,78.75 161.25,86.25" stroke-width="0" transform=" rotate(0, 157, 82)"/>
  <polygon fill="#006ca1" points="165.75,89.25 172.5,75.75 179.25,89.25" stroke-width="0" transform=" rotate(0, 172, 82)"/>
  <polygon fill="#006ca1" points="180.75,89.25 187.5,75.75 194.25,89.25" stroke-width="0" transform=" rotate(0, 187, 82)"/>
  <polygon fill="#6dd6ff" points="198.75,86.25 202.5,78.75 206.25,86.25" stroke-width="0" transform=" rotate(0, 202, 82)"/>
  <rect fill="#1b9fd8" height="10.5" stroke-width="0" transform=" rotate(0, 217, 82)" width="10.5" x="212.25" y="77.25"/>
  <rect fill="#6dd6ff" height="7.5" stroke-width="0" transform=" rotate(0, 232, 82)" width="7.5" x="228.75" y="78.75"/>
  <polygon fill="#6dd6ff" points="243.75,86.25 247.5,78.75 251.25,86.25" stroke-width="0" transform=" rotate(0, 247, 82)"/>
  <rect fill="#006ca1" height="13.5" stroke-width="0" transform=" rotate(0, 262, 82)" width="13.5" x="255.75" y="75.75"/>
  <ellipse cx="277.5" cy="82.5" fill="#1b9fd8" rx="5.25" ry="5.25" stroke-width="0" transform=" rotate(0, 277, 82)"/>
  <rect fill="#6dd6ff" height="7.5" stroke-width="0" transform=" rotate(0, 52, 97)" width="7.5" x="48.75" y="93.75"/>
  <rect fill="#6dd6ff" height="7.5" stroke-width="0" transform=" rotate(0, 67, 97)" width="7.5" x="63.75" y="93.75"/>
  <polygon fill="#1b9fd8" points="77.25,102.75 82.5,92.25 87.75,102.75" stroke-width="0" transform=" rotate(0, 82, 97)"/>
  <rect fill="#6dd6ff" height="7.5" stroke-width="0" transform=" rotate(0, 97, 97)" width="7.5" x="93.75" y="93.75"/>
  <rect fill="#6dd6ff" height="7.5" stroke-width="0" transform=" rotate(0, 112, 97)" width="7.5" x="108.75" y="93.75"/>
  <rect fill="#6dd6ff" height="7.5" stroke-width="0" transform=" rotate(0, 127, 97)" width="7.5" x="123.75" y="93.75"/>
  <rect fill="#6dd6ff" height="7.5" stroke-width="0" transform=" rotate(0, 142, 97)" width="7.5" x="138.75" y="93.75"/>
  <ellipse cx="157.5" cy="97.5" fill="#1b9fd8" rx="5.25" ry="5.25" stroke-width="0" transform=" rotate(0, 157, 97)"/>
  <polygon fill="#006ca1" points="165.75,104.25 172.5,90.75 179.25,104.25" stroke-width="0" transform=" rotate(0, 172, 97)"/>
  <rect fill="#6dd6ff" height="7.5" stroke-width="0" transform=" rotate(0, 187, 97)" width="7.5" x="183.75" y="93.75"/>
  <ellipse cx="202.5" cy="97.5" fill="#6dd6ff" rx="3.75" ry="3.75" stroke-width="0" transform=" rotate(0, 202, 97)"/>
  <polygon fill="#006ca1" points="210.75,104.25 217.5,90.75 224.25,104.25" stroke-width="0" transform=" rotate(0, 217, 97)"/>
  <rect fill="#6dd6ff" height="7.5" stroke-width="0" transform=" rotate(0, 232, 97)" width="7.5" x="228.75" y="93.75"/>
  <ellipse cx="247.5" cy="97.5" fill="#006ca1" rx="6.75" ry="6.75" stroke-width="0" transform=" rotate(0, 247, 97)"/>
  <rect fill="#1b9fd8" height="10.5" stroke-width="0" transform=" rotate(0, 262, 97)" width="10.5" x="257.25" y="92.25"/>
  <rect fill="#6dd6ff" height="7.5" stroke-width="0" transform=" rotate(0, 277, 97)" width="7.5" x="273.75" y="93.75"/>
  <ellipse cx="52.5" cy="112.5" fill="#1b9fd8" rx="5.25" ry="5.25" stroke-width="0" transform=" rotate(0, 52, 112)"/>
  <rect fill="#006ca1" height="13.5" stroke-width="0" transform=" rotate(0, 67, 112)" width="13.5" x="60.75" y="105.75"/>
  <rect fill="#6dd6ff" height="7.5" stroke-width="0" transform=" rotate(0, 82, 112)" width="7.5" x="78.75" y="108.75"/>
  <ellipse cx="97.5" cy="112.5" fill="#1b9fd8" rx="5.25" ry="5.25" stroke-width="0" transform=" rotate(0, 97, 112)"/>
  <rect fill="#006ca1" height="13.5" stroke-width="0" transform=" rotate(0, 112, 112)" width="13.5" x="105.75" y="105.75"/>
  <ellipse cx="127.5" cy="112.5" fill="#6dd6ff" rx="3.75" ry="3.75" stroke-width="0" transform=" rotate(0, 127, 112)"/>
  <polygon fill="#1b9fd8" points="137.25,117.75 142.5,107.25 147.75,117.75" stroke-width="0" transform=" rotate(0, 142, 112)"/>
  <rect fill="#006ca1" height="13.5" stroke-width="0" transform=" rotate(0, 157, 112)" width="13.5" x="150.75" y="105.75"/>
  <ellipse cx="172.5" cy="112.5" fill="#6dd6ff" rx="3.75" ry="3.75" stroke-width="0" transform=" rotate(0, 172, 112)"/>
  <polygon fill="#1b9fd8" points="182.25,117.75 187.5,107.25 192.75,117.75" stroke-width="0" transform=" rotate(0, 187, 112)"/>
  <ellipse cx="202.5" cy="112.5" fill="#6dd6ff" rx="3.75" ry="3.75" stroke-width="0" transform=" rotate(0, 202, 112)"/>
  <ellipse cx="217.5" cy="112.5" fill="#6dd6ff" rx="3.75" ry="3.75" stroke-width="0" transform=" rotate(0, 217, 112)"/>
  <rect fill="#1b9fd8" height="10.5" stroke-width="0" transform=" rotate(0, 232, 112)" width="10.5" x="227.25" y="107.25"/>
  <rect fill="#1b9fd8" height="10.5" stroke-width="0" transform=" rotate(0, 247, 112)" width="10.5" x="242.25" y="107.25"/>
  <rect fill="#6dd6ff" height="7.5" stroke-width="0" transform=" rotate(0, 262, 112)" width="7.5" x="258.75" y="108.75"/>
  <rect fill="#1b9fd8" height="10.5" stroke-width="0" transform=" rotate(0, 277, 112)" width="10.5" x="272.25" y="107.25"/>
  <polygon fill="#006ca1" points="45.75,134.25 52.5,120.75 59.25,134.25" stroke-width="0" transform=" rotate(0, 52, 127)"/>
  <ellipse cx="67.5" cy="127.5" fill="#6dd6ff" rx="3.75" ry="3.75" stroke-width="0" transform=" rotate(0, 67, 127)"/>
  <polygon fill="#1b9fd8" points="77.25,132.75 82.5,122.25 87.75,132.75" stroke-width="0" transform=" rotate(0, 82, 127)"/>
  <polygon fill="#006ca1" points="90.75,134.25 97.5,120.75 104.25,134.25" stroke-width="0" transform=" rotate(0, 97, 127)"/>
  <ellipse cx="112.5" cy="127.5" fill="#6dd6ff" rx="3.75" ry="3.75" stroke-width="0" transform=" rotate(0, 112, 127)"/>
  <rect fill="#1b9fd8" height="10.5" stroke-width="0" transform=" rotate(0, 127, 127)" width="10.5" x="122.25" y="122.25"/>
  <ellipse cx="142.5" cy="127.5" fill="#006ca1" rx="6.75" ry="6.75" stroke-width="0" transform=" rotate(0, 142, 127)"/>
  <polygon fill="#6dd6ff" points="153.75,131.25 157.5,123.75 161.25,131.25" stroke-width="0" transform=" rotate(0, 157, 127)"/>
  <rect fill="#1b9fd8" height="10.5" stroke-width="0" transform=" rotate(0, 172, 127)" width="10.5" x="167.25" y="122.25"/>
  <ellipse cx="187.5" cy="127.5" fill="#006ca1" rx="6.75" ry="6.75" stroke-width="0" transform=" rotate(0, 187, 127)"/>
  <ellipse cx="202.5" cy="127.5" fill="#6dd6ff" rx="3.75" ry="3.75" stroke-width="0" transform=" rotate(0, 202, 127)"/>
  <rect fill="#006ca1" height="13.5" stroke-width="0" transform=" rotate(0, 217, 127)" width="13.5" x="210.75" y="120.75"/>
  <ellipse cx="232.5" cy="127.5" fill="#6dd6ff" rx="3.75" ry="3.75" stroke-width="0" transform=" rotate(0, 232, 127)"/>
  <polygon fill="#1b9fd8" points="242.25,132.75 247.5,122.25 252.75,132.75" stroke-width="0" transform=" rotate(0, 247, 127)"/>
  <rect fill="#1b9fd8" height="10.5" stroke-width="0" transform=" rotate(0, 262, 127)" width="10.5" x="257.25" y="122.25"/>
  <ellipse cx="277.5" cy="127.5" fill="#1b9fd8" rx="5.25" ry="5.25" stroke-width="0" transform=" rotate(0, 277, 127)"/>
  <rect fill="#6dd6ff" height="7.5" stroke-width="0" transform=" rotate(0, 52, 142)" width="7.5" x="48.75" y="138.75"/>
  <polygon fill="#1b9fd8" points="62.25,147.75 67.5,137.25 72.75,147.75" stroke-width="0" transform=" rotate(0, 67, 142)"/>
  <polygon fill="#1b9fd8" points="77.25,147.75 82.5,137.25 87.75,147.75" stroke-width="0" transform=" rotate(0, 82, 142)"/>
  <rect fill="#6dd6ff" height="7.5" stroke-width="0" transform=" rotate(0, 97, 142)" width="7.5" x="93.75" y="138.75"/>
  <polygon fill="#6dd6ff" points="108.75,146.25 112.5,138.75 116.25,146.25" stroke-width="0" transform=" rotate(0, 112, 142)"/>
  <ellipse cx="127.5" cy="142.5" fill="#006ca1" rx="6.75" ry="6.75" stroke-width="0" transform=" rotate(0, 127, 142)"/>
  <ellipse cx="142.5" cy="142.5" fill="#006ca1" rx="6.75" ry="6.75" stroke-width="0" transform=" rotate(0, 142, 142)"/>
  <ellipse cx="157.5" cy="142.5" fill="#1b9fd8" rx="5.25" ry="5.25" stroke-width="0" transform=" rotate(0, 157, 142)"/>
  <rect fill="#1b9fd8" height="10.5" stroke-width="0" transform=" rotate(0, 172, 142)" width="10.5" x="167.25" y="137.25"/>
  <polygon fill="#1b9fd8" points="182.25,147.75 187.5,137.25 192.75,147.75" stroke-width="0" transform=" rotate(0, 187, 142)"/>
  <ellipse cx="202.5" cy="142.5" fill="#006ca1" rx="6.75" ry="6.75" stroke-width="0" transform=" rotate(0, 202, 142)"/>
  <polygon fill="#1b9fd8" points="212.25,147.75 217.5,137.25 222.75,147.75" stroke-width="0" transform=" rotate(0, 217, 142)"/>
  <rect fill="#6dd6ff" height="7.5" stroke-width="0" transform=" rotate(0, 232, 142)" width="7.5" x="228.75" y="138.75"/>
  <ellipse cx="247.5" cy="142.5" fill="#006ca1" rx="6.75" ry="6.75" stroke-width="0" transform=" rotate(0, 247, 142)"/>
  <polygon fill="#1b9fd8" points="257.25,147.75 262.5,137.25 267.75,147.75" stroke-width="0" transform=" rotate(0, 262, 142)"/>
  <rect fill="#6dd6ff" height="7.5" stroke-width="0" transform=" rotate(0, 277, 142)" width="7.5" x="273.75" y="138.75"/>
  <ellipse cx="52.5" cy="157.5" fill="#1b9fd8" rx="5.25" ry="5.25" stroke-width="0" transform=" rotate(0, 52, 157)"/>
  <rect fill="#006ca1" height="13.5" stroke-width="0" transform=" rotate(0, 67, 157)" width="13.5" x="60.75" y="150.75"/>
  <polygon fill="#6dd6ff" points="78.75,161.25 82.5,153.75 86.25,161.25" stroke-width="0" transform=" rotate(0, 82, 157)"/>
  <ellipse cx="97.5" cy="157.5" fill="#1b9fd8" rx="5.25" ry="5.25" stroke-width="0" transform=" rotate(0, 97, 157)"/>
  <rect fill="#006ca1" height="13.5" stroke-width="0" transform=" rotate(0, 112, 157)" width="13.5" x="105.75" y="150.75"/>
  <polygon fill="#6dd6ff" points="123.75,161.25 127.5,153.75 131.25,161.25" stroke-width="0" transform=" rotate(0, 127, 157)"/>
  <ellipse cx="142.5" cy="157.5" fill="#1b9fd8" rx="5.25" ry="5.25" stroke-width="0" transform=" rotate(0, 142, 157)"/>
  <rect fill="#006ca1" height="13.5" stroke-width="0" transform=" rotate(0, 157, 157)" width="13.5" x="150.75" y="150.75"/>
  <polygon fill="#6dd6ff" points="168.75,161.25 172.5,153.75 176.25,161.25" stroke-width="0" transform=" rotate(0, 172, 157)"/>
  <polygon fill="#006ca1" points="180.75,164.25 187.5,150.75 194.25,164.25" stroke-width="0" transform=" rotate(0, 187, 157)"/>
  <polygon fill="#006ca1" points="195.75,164.25 202.5,150.75 209.25,164.25" stroke-width="0" transform=" rotate(0, 202, 157)"/>
  <ellipse cx="217.5" cy="157.5" fill="#6dd6ff" rx="3.75" ry="3.75" stroke-width="0" transform=" rotate(0, 217, 157)"/>
  <ellipse cx="232.5" cy="157.5" fill="#006ca1" rx="6.75" ry="6.75" stroke-width="0" transform=" rotate(0, 232, 157)"/>
  <rect fill="#1b9fd8" height="10.5" stroke-width="0" transform=" rotate(0, 247, 157)" width="10.5" x="242.25" y="152.25"/>
  <ellipse cx="262.5" cy="157.5" fill="#6dd6ff" rx="3.75" ry="3.75" stroke-width="0" transform=" rotate(0, 262, 157)"/>
  <rect fill="#006ca1" height="13.5" stroke-width="0" transform=" rotate(0, 277, 157)" width="13.5" x="270.75" y="150.75"/>
  <polygon fill="#006ca1" points="45.75,179.25 52.5,165.75 59.25,179.25" stroke-width="0" transform=" rotate(0, 52, 172)"/>
  <ellipse cx="67.5" cy="172.5" fill="#1b9fd8" rx="5.25" ry="5.25" stroke-width="0" transform=" rotate(0, 67, 172)"/>
  <rect fill="#1b9fd8" height="10.5" stroke-width="0" transform=" rotate(0, 82, 172)" width="10.5" x="77.25" y="167.25"/>
  <polygon fill="#006ca1" points="90.75,179.25 97.5,165.75 104.25,179.25" stroke-width="0" transform=" rotate(0, 97, 172)"/>
  <ellipse cx="112.5" cy="172.5" fill="#6dd6ff" rx="3.75" ry="3.75" stroke-width="0" transform=" rotate(0, 112, 172)"/>
  <rect fill="#006ca1" height="13.5" stroke-width="0" transform=" rotate(0, 127, 172)" width="13.5" x="120.75" y="165.75"/>
  <polygon fill="#006ca1" points="135.75,179.25 142.5,165.75 149.25,179.25" stroke-width="0" transform=" rotate(0, 142, 172)"/>
  <ellipse cx="157.5" cy="172.5" fill="#1b9fd8" rx="5.25" ry="5.25" stroke-width="0" transform=" rotate(0, 157, 172)"/>
  <rect fill="#006ca1" height="13.5" stroke-width="0" transform=" rotate(0, 172, 172)" width="13.5" x="165.75" y="165.75"/>
  <ellipse cx="187.5" cy="172.5" fill="#1b9fd8" rx="5.25" ry="5.25" stroke-width="0" transform=" rotate(0, 187, 172)"/>
  <polygon fill="#6dd6ff" points="198.75,176.25 202.5,168.75 206.25,176.25" stroke-width="0" transform=" rotate(0, 202, 172)"/>
  <rect fill="#006ca1" height="13.5" stroke-width="0" transform=" rotate(0, 217, 172)" width="13.5" x="210.75" y="165.75"/>
  <ellipse cx="232.5" cy="172.5" fill="#1b9fd8" rx="5.25" ry="5.25" stroke-width="0" transform=" rotate(0, 232, 172)"/>
  <polygon fill="#6dd6ff" points="243.75,176.25 247.5,168.75 251.25,176.25" stroke-width="0" transform=" rotate(0, 247, 172)"/>
  <rect fill="#006ca1" height="13.5" stroke-width="0" transform=" rotate(0, 262, 172)" width="13.5" x="255.75" y="165.75"/>
  <ellipse cx="277.5" cy="172.5" fill="#1b9fd8" rx="5.25" ry="5.25" stroke-width="0" transform=" rotate(0, 277, 172)"/>
  <polygon fill="#1b9fd8" points="47.25,192.75 52.5,182.25 57.75,192.75" stroke-width="0" transform=" rotate(0, 52, 187)"/>
  <rect fill="#6dd6ff" height="7.5" stroke-width="0" transform=" rotate(0, 67, 187)" width="7.5" x="63.75" y="183.75"/>
  <rect fill="#1b9fd8" height="10.5" stroke-width="0" transform=" rotate(0, 82, 187)" width="10.5" x="77.25" y="182.25"/>
  <polygon fill="#6dd6ff" points="93.75,191.25 97.5,183.75 101.25,191.25" stroke-width="0" transform=" rotate(0, 97, 187)"/>
  <polygon fill="#1b9fd8" points="107.25,192.75 112.5,182.25 117.75,192.75" stroke-width="0" transform=" rotate(0, 112, 187)"/>
  <ellipse cx="127.5" cy="187.5" fill="#006ca1" rx="6.75" ry="6.75" stroke-width="0" transform=" rotate(0, 127, 187)"/>
  <rect fill="#6dd6ff" height="7.5" stroke-width="0" transform=" rotate(0, 142, 187)" width="7.5" x="138.75" y="183.75"/>
  <polygon fill="#006ca1" points="150.75,194.25 157.5,180.75 164.25,194.25" stroke-width="0" transform=" rotate(0, 157, 187)"/>
  <ellipse cx="172.5" cy="187.5" fill="#6dd6ff" rx="3.75" ry="3.75" stroke-width="0" transform=" rotate(0, 172, 187)"/>
  <rect fill="#6dd6ff" height="7.5" stroke-width="0" transform=" rotate(0, 187, 187)" width="7.5" x="183.75" y="183.75"/>
  <ellipse cx="202.5" cy="187.5" fill="#006ca1" rx="6.75" ry="6.75" stroke-width="0" transform=" rotate(0, 202, 187)"/>
  <polygon fill="#1b9fd8" points="212.25,192.75 217.5,182.25 222.75,192.75" stroke-width="0" transform=" rotate(0, 217, 187)"/>
  <ellipse cx="232.5" cy="187.5" fill="#006ca1" rx="6.75" ry="6.75" stroke-width="0" transform=" rotate(0, 232, 187)"/>
  <ellipse cx="247.5" cy="187.5" fill="#006ca1" rx="6.75" ry="6.75" stroke-width="0" transform=" rotate(0, 247, 187)"/>
  <polygon fill="#1b9fd8" points="257.25,192.75 262.5,182.25 267.75,192.75" stroke-width="0" transform=" rotate(0, 262, 187)"/>
  <rect fill="#6dd6ff" height="7.5" stroke-width="0" transform=" rotate(0, 277, 187)" width="7.5" x="273.75" y="183.75"/>
  <ellipse cx="52.5" cy="202.5" fill="#1b9fd8" rx="5.25" ry="5.25" stroke-width="0" transform=" rotate(0, 52, 202)"/>
  <ellipse cx="67.5" cy="202.5" fill="#006ca1" rx="6.75" ry="6.75" stroke-width="0" transform=" rotate(0, 67, 202)"/>
  <polygon fill="#6dd6ff" points="78.75,206.25 82.5,198.75 86.25,206.25" stroke-width="0" transform=" rotate(0, 82, 202)"/>
  <polygon fill="#1b9fd8" points="92.25,207.75 97.5,197.25 102.75,207.75" stroke-width="0" transform=" rotate(0, 97, 202)"/>
  <rect fill="#006ca1" height="13.5" stroke-width="0" transform=" rotate(0, 112, 202)" width="13.5" x="105.75" y="195.75"/>
  <polygon fill="#6dd6ff" points="123.75,206.25 127.5,198.75 131.25,206.25" stroke-width="0" transform=" rotate(0, 127, 202)"/>
  <ellipse cx="142.5" cy="202.5" fill="#1b9fd8" rx="5.25" ry="5.25" stroke-width="0" transform=" rotate(0, 142, 202)"/>
  <rect fill="#1b9fd8" height="10.5" stroke-width="0" transform=" rotate(0, 157, 202)" width="10.5" x="152.25" y="197.25"/>
  <polygon fill="#6dd6ff" points="168.75,206.25 172.5,198.75 176.25,206.25" stroke-width="0" transform=" rotate(0, 172, 202)"/>
  <ellipse cx="187.5" cy="202.5" fill="#006ca1" rx="6.75" ry="6.75" stroke-width="0" transform=" rotate(0, 187, 202)"/>
  <rect fill="#1b9fd8" height="10.5" stroke-width="0" transform=" rotate(0, 202, 202)" width="10.5" x="197.25" y="197.25"/>
  <ellipse cx="217.5" cy="202.5" fill="#6dd6ff" rx="3.75" ry="3.75" stroke-width="0" transform=" rotate(0, 217, 202)"/>
  <polygon fill="#006ca1" points="225.75,209.25 232.5,195.75 239.25,209.25" stroke-width="0" transform=" rotate(0, 232, 202)"/>
  <rect fill="#1b9fd8" height="10.5" stroke-width="0" transform=" rotate(0, 247, 202)" width="10.5" x="242.25" y="197.25"/>
  <ellipse cx="262.5" cy="202.5" fill="#6dd6ff" rx="3.75" ry="3.75" stroke-width="0" transform=" rotate(0, 262, 202)"/>
  <polygon fill="#006ca1" points="270.75,209.25 277.5,195.75 284.25,209.25" stroke-width="0" transform=" rotate(0, 277, 202)"/>
  <polygon fill="#006ca1" points="45.75,224.25 52.5,210.75 59.25,224.25" stroke-width="0" transform=" rotate(0, 52, 217)"/>
  <ellipse cx="67.5" cy="217.5" fill="#6dd6ff" rx="3.75" ry="3.75" stroke-width="0" transform=" rotate(0, 67, 217)"/>
  <rect fill="#1b9fd8" height="10.5" stroke-width="0" transform=" rotate(0, 82, 217)" width="10.5" x="77.25" y="212.25"/>
  <polygon fill="#006ca1" points="90.75,224.25 97.5,210.75 104.25,224.25" stroke-width="0" transform=" rotate(0, 97, 217)"/>
  <rect fill="#006ca1" height="13.5" stroke-width="0" transform=" rotate(0, 112, 217)" width="13.5" x="105.75" y="210.75"/>
  <polygon fill="#1b9fd8" points="122.25,222.75 127.5,212.25 132.75,222.75" stroke-width="0" transform=" rotate(0, 127, 217)"/>
  <rect fill="#006ca1" height="13.5" stroke-width="0" transform=" rotate(0, 142, 217)" width="13.5" x="135.75" y="210.75"/>
  <ellipse cx="157.5" cy="217.5" fill="#6dd6ff" rx="3.75" ry="3.75" stroke-width="0" transform=" rotate(0, 157, 217)"/>
  <rect fill="#6dd6ff" height="7.5" stroke-width="0" transform=" rotate(0, 172, 217)" width="7.5" x="168.75" y="213.75"/>
  <polygon fill="#1b9fd8" points="182.25,222.75 187.5,212.25 192.75,222.75" stroke-width="0" transform=" rotate(0, 187, 217)"/>
  <ellipse cx="202.5" cy="217.5" fill="#6dd6ff" rx="3.75" ry="3.75" stroke-width="0" transform=" rotate(0, 202, 217)"/>
  <rect fill="#006ca1" height="13.5" stroke-width="0" transform=" rotate(0, 217, 217)" width="13.5" x="210.75" y="210.75"/>
  <polygon fill="#006ca1" points="225.75,224.25 232.5,210.75 239.25,224.25" stroke-width="0" transform=" rotate(0, 232, 217)"/>
  <polygon fill="#6dd6ff" points="243.75,221.25 247.5,213.75 251.25,221.25" stroke-width="0" transform=" rotate(0, 247, 217)"/>
  <rect fill="#006ca1" height="13.5" stroke-width="0" transform=" rotate(0, 262, 217)" width="13.5" x="255.75" y="210.75"/>
  <ellipse cx="277.5" cy="217.5" fill="#1b9fd8" rx="5.25" ry="5.25" stroke-width="0" transform=" rotate(0, 277, 217)"/>
  <polygon fill="#006ca1" points="45.75,239.25 52.5,225.75 59.25,239.25" stroke-width="0" transform=" rotate(0, 52, 232)"/>
  <polygon fill="#1b9fd8" points="62.25,237.75 67.5,227.25 72.75,237.75" stroke-width="0" transform=" rotate(0, 67, 232)"/>
  <rect fill="#6dd6ff" height="7.5" stroke-width="0" transform=" rotate(0, 82, 232)" width="7.5" x="78.75" y="228.75"/>
  <polygon fill="#006ca1" points="90.75,239.25 97.5,225.75 104.25,239.25" stroke-width="0" transform=" rotate(0, 97, 232)"/>
  <polygon fill="#006ca1" points="105.75,239.25 112.5,225.75 119.25,239.25" stroke-width="0" transform=" rotate(0, 112, 232)"/>
  <polygon fill="#6dd6ff" points="123.75,236.25 127.5,228.75 131.25,236.25" stroke-width="0" transform=" rotate(0, 127, 232)"/>
  <rect fill="#6dd6ff" height="7.5" stroke-width="0" transform=" rotate(0, 142, 232)" width="7.5" x="138.75" y="228.75"/>
  <polygon fill="#006ca1" points="150.75,239.25 157.5,225.75 164.25,239.25" stroke-width="0" transform=" rotate(0, 157, 232)"/>
  <ellipse cx="172.5" cy="232.5" fill="#1b9fd8" rx="5.25" ry="5.25" stroke-width="0" transform=" rotate(0, 172, 232)"/>
  <rect fill="#6dd6ff" height="7.5" stroke-width="0" transform=" rotate(0, 187, 232)" width="7.5" x="183.75" y="228.75"/>
  <ellipse cx="202.5" cy="232.5" fill="#006ca1" rx="6.75" ry="6.75" stroke-width="0" transform=" rotate(0, 202, 232)"/>
  <ellipse cx="217.5" cy="232.5" fill="#1b9fd8" rx="5.25" ry="5.25" stroke-width="0" transform=" rotate(0, 217, 232)"/>
  <rect fill="#6dd6ff" height="7.5" stroke-width="0" transform=" rotate(0, 232, 232)" width="7.5" x="228.75" y="228.75"/>
  <rect fill="#6dd6ff" height="7.5" stroke-width="0" transform=" rotate(0, 247, 232)" width="7.5" x="243.75" y="228.75"/>
  <polygon fill="#1b9fd8" points="257.25,237.75 262.5,227.25 267.75,237.75" stroke-width="0" transform=" rotate(0, 262, 232)"/>
  <ellipse cx="277.5" cy="232.5" fill="#1b9fd8" rx="5.25" ry="5.25" stroke-width="0" transform=" rotate(0, 277, 232)"/>
  <ellipse cx="52.5" cy="247.5" fill="#1b9fd8" rx="5.25" ry="5.25" stroke-width="0" transform=" rotate(0, 52, 247)"/>
  <rect fill="#006ca1" height="13.5" stroke-width="0" transform=" rotate(0, 67, 247)" width="13.5" x="60.75" y="240.75"/>
  <ellipse cx="82.5" cy="247.5" fill="#1b9fd8" rx="5.25" ry="5.25" stroke-width="0" transform=" rotate(0, 82, 247)"/>
  <ellipse cx="97.5" cy="247.5" fill="#006ca1" rx="6.75" ry="6.75" stroke-width="0" transform=" rotate(0, 97, 247)"/>
  <ellipse cx="112.5" cy="247.5" fill="#006ca1" rx="6.75" ry="6.75" stroke-width="0" transform=" rotate(0, 112, 247)"/>
  <polygon fill="#6dd6ff" points="123.75,251.25 127.5,243.75 131.25,251.25" stroke-width="0" transform=" rotate(0, 127, 247)"/>
  <rect fill="#006ca1" height="13.5" stroke-width="0" transform=" rotate(0, 142, 247)" width="13.5" x="135.75" y="240.75"/>
  <rect fill="#1b9fd8" height="10.5" stroke-width="0" transform=" rotate(0, 157, 247)" width="10.5" x="152.25" y="242.25"/>
  <polygon fill="#6dd6ff" points="168.75,251.25 172.5,243.75 176.25,251.25" stroke-width="0" transform=" rotate(0, 172, 247)"/>
  <ellipse cx="187.5" cy="247.5" fill="#006ca1" rx="6.75" ry="6.75" stroke-width="0" transform=" rotate(0, 187, 247)"/>
  <rect fill="#1b9fd8" height="10.5" stroke-width="0" transform=" rotate(0, 202, 247)" width="10.5" x="197.25" y="242.25"/>
  <polygon fill="#6dd6ff" points="213.75,251.25 217.5,243.75 221.25,251.25" stroke-width="0" transform=" rotate(0, 217, 247)"/>
  <ellipse cx="232.5" cy="247.5" fill="#006ca1" rx="6.75" ry="6.75" stroke-width="0" transform=" rotate(0, 232, 247)"/>
  <polygon fill="#006ca1" points="240.75,254.25 247.5,240.75 254.25,254.25" stroke-width="0" transform=" rotate(0, 247, 247)"/>
  <polygon fill="#006ca1" points="255.75,254.25 262.5,240.75 269.25,254.25" stroke-width="0" transform=" rotate(0, 262, 247)"/>
  <polygon fill="#006ca1" points="270.75,254.25 277.5,240.75 284.25,254.25" stroke-width="0" transform=" rotate(0, 277, 247)"/>
  <ellipse cx="52.5" cy="262.5" fill="#6dd6ff" rx="3.75" ry="3.75" stroke-width="0" transform=" rotate(0, 52, 262)"/>
  <ellipse cx="67.5" cy="262.5" fill="#6dd6ff" rx="3.75" ry="3.75" stroke-width="0" transform=" rotate(0, 67, 262)"/>
  <rect fill="#006ca1" height="13.5" stroke-width="0" transform=" rotate(0, 82, 262)" width="13.5" x="75.75" y="255.75"/>
  <polygon fill="#1b9fd8" points="92.25,267.75 97.5,257.25 102.75,267.75" stroke-width="0" transform=" rotate(0, 97, 262)"/>
  <ellipse cx="112.5" cy="262.5" fill="#6dd6ff" rx="3.75" ry="3.75" stroke-width="0" transform=" rotate(0, 112, 262)"/>
  <rect fill="#006ca1" height="13.5" stroke-width="0" transform=" rotate(0, 127, 262)" width="13.5" x="120.75" y="255.75"/>
  <ellipse cx="142.5" cy="262.5" fill="#1b9fd8" rx="5.25" ry="5.25" stroke-width="0" transform=" rotate(0, 142, 262)"/>
  <ellipse cx="157.5" cy="262.5" fill="#6dd6ff" rx="3.75" ry="3.75" stroke-width="0" transform=" rotate(0, 157, 262)"/>
  <rect fill="#006ca1" height="13.5" stroke-width="0" transform=" rotate(0, 172, 262)" width="13.5" x="165.75" y="255.75"/>
  <ellipse cx="187.5" cy="262.5" fill="#1b9fd8" rx="5.25" ry="5.25" stroke-width="0" transform=" rotate(0, 187, 262)"/>
  <ellipse cx="202.5" cy="262.5" fill="#6dd6ff" rx="3.75" ry="3.75" stroke-width="0" transform=" rotate(0, 202, 262)"/>
  <rect fill="#006ca1" height="13.5" stroke-width="0" transform=" rotate(0, 217, 262)" width="13.5" x="210.75" y="255.75"/>
  <polygon fill="#1b9fd8" points="227.25,267.75 232.5,257.25 237.75,267.75" stroke-width="0" transform=" rotate(0, 232, 262)"/>
  <polygon fill="#006ca1" points="240.75,269.25 247.5,255.75 254.25,269.25" stroke-width="0" transform=" rotate(0, 247, 262)"/>
  <ellipse cx="262.5" cy="262.5" fill="#006ca1" rx="6.75" ry="6.75" stroke-width="0" transform=" rotate(0, 262, 262)"/>
  <ellipse cx="277.5" cy="262.5" fill="#1b9fd8" rx="5.25" ry="5.25" stroke-width="0" transform=" rotate(0, 277, 262)"/>
  <rect fill="#6dd6ff" height="7.5" stroke-width="0" transform=" rotate(0, 52, 277)" width="7.5" x="48.75" y="273.75"/>
  <rect fill="#1b9fd8" height="10.5" stroke-width="0" transform=" rotate(0, 67, 277)" width="10.5" x="62.25" y="272.25"/>
  <rect fill="#6dd6ff" height="7.5" stroke-width="0" transform=" rotate(0, 82, 277)" width="7.5" x="78.75" y="273.75"/>
  <rect fill="#6dd6ff" height="7.5" stroke-width="0" transform=" rotate(0, 97, 277)" width="7.5" x="93.75" y="273.75"/>
  <polygon fill="#006ca1" points="105.75,284.25 112.5,270.75 119.25,284.25" stroke-width="0" transform=" rotate(0, 112, 277)"/>
  <ellipse cx="127.5" cy="277.5" fill="#1b9fd8" rx="5.25" ry="5.25" stroke-width="0" transform=" rotate(0, 127, 277)"/>
  <rect fill="#6dd6ff" height="7.5" stroke-width="0" transform=" rotate(0, 142, 277)" width="7.5" x="138.75" y="273.75"/>
  <polygon fill="#006ca1" points="150.75,284.25 157.5,270.75 164.25,284.25" stroke-width="0" transform=" rotate(0, 157, 277)"/>
  <polygon fill="#6dd6ff" points="168.75,281.25 172.5,273.75 176.25,281.25" stroke-width="0" transform=" rotate(0, 172, 277)"/>
  <rect fill="#6dd6ff" height="7.5" stroke-width="0" transform=" rotate(0, 187, 277)" width="7.5" x="183.75" y="273.75"/>
  <polygon fill="#006ca1" points="195.75,284.25 202.5,270.75 209.25,284.25" stroke-width="0" transform=" rotate(0, 202, 277)"/>
  <polygon fill="#1b9fd8" points="212.25,282.75 217.5,272.25 222.75,282.75" stroke-width="0" transform=" rotate(0, 217, 277)"/>
  <polygon fill="#006ca1" points="225.75,284.25 232.5,270.75 239.25,284.25" stroke-width="0" transform=" rotate(0, 232, 277)"/>
  <polygon fill="#006ca1" points="240.75,284.25 247.5,270.75 254.25,284.25" stroke-width="0" transform=" rotate(0, 247, 277)"/>
  <ellipse cx="262.5" cy="277.5" fill="#1b9fd8" rx="5.25" ry="5.25" stroke-width="0" transform=" rotate(0, 262, 277)"/>
  <rect fill="#6dd6ff" height="7.5" stroke-width="0" transform=" rotate(0, 277, 277)" width="7.5" x="273.75" y="273.75"/>
</svg>
